<?xml version="1.0" encoding="utf-8"?>
<!-- Generator: Adobe Illustrator 16.0.0, SVG Export Plug-In . SVG Version: 6.00 Build 0)  -->
<!DOCTYPE svg PUBLIC "-//W3C//DTD SVG 1.1//EN" "http://www.w3.org/Graphics/SVG/1.1/DTD/svg11.dtd">
<svg version="1.1" id="Layer_1" xmlns="http://www.w3.org/2000/svg" xmlns:xlink="http://www.w3.org/1999/xlink" x="0px" y="0px"
	 width="40.854px" height="24.063px" viewBox="0 0 40.854 24.063" enable-background="new 0 0 40.854 24.063" xml:space="preserve">
<g>
	<path fill="#E1146E" d="M10.445,0.691h3.322v5.277h2.645V0.691h3.321v14.098h-3.321V8.762h-2.645v6.027h-3.322V0.691L10.445,0.691z
		"/>
	<path fill="#E1146E" d="M25.638,15.066c-4.368,0-4.958-2.842-4.958-7.332s0.59-7.333,4.958-7.333c4.701,0,4.96,3.424,4.96,7.333
		C30.598,11.656,30.339,15.066,25.638,15.066z M25.619,12.854c1.346,0,1.535-1.249,1.535-5.121c0-3.869-0.199-5.117-1.535-5.117
		c-1.308,0-1.495,1.248-1.495,5.117C24.124,11.604,24.313,12.854,25.619,12.854z"/>
	<path fill="#E1146E" d="M31.546,0.691h5.139c3.49,0,4.169,2.524,4.169,4.29c0,2.525-1.207,4.312-4.519,4.312h-1.468v5.498h-3.321
		V0.691z M34.867,6.828h0.907c1.326,0,1.636-0.828,1.636-1.776c0-1.086-0.359-1.914-1.695-1.914h-0.849L34.867,6.828L34.867,6.828z"
		/>
</g>
<g>
	<path fill="#E1146E" d="M3.53,10.498v0.489c0,1.066,0.301,1.878,1.447,1.878c1.167,0,1.496-0.87,1.496-1.675
		c0-3.044-6.067-1.349-6.067-6.614c0-2.256,1.208-4.152,4.62-4.152c3.322,0,4.499,1.676,4.499,3.851v0.341h-3.2
		c0-0.671-0.079-1.167-0.278-1.477c-0.201-0.342-0.51-0.492-1.009-0.492c-0.826,0-1.326,0.489-1.326,1.518
		c0,2.941,6.065,1.466,6.065,6.433c0,3.204-1.775,4.48-4.818,4.48c-2.415,0-4.64-0.729-4.64-3.673v-0.905H3.53L3.53,10.498z"/>
</g>
<g>
	<path fill="#E1146E" d="M0.399,18.119v-1.966H0v-0.309h1.177v0.309H0.778v1.966H0.399z"/>
	<path fill="#E1146E" d="M1.417,18.119v-2.273h0.379v2.273H1.417z"/>
	<path fill="#E1146E" d="M2.085,18.119v-2.273h0.379v1.965h0.57v0.31L2.085,18.119L2.085,18.119z"/>
	<path fill="#E1146E" d="M3.9,18.119v-0.896l-0.519-1.377H3.79l0.308,0.869l0.25-0.869h0.409l-0.469,1.387v0.9H3.9V18.119z"/>
	<path fill="#E1146E" d="M6.065,17.602c0,0.189-0.05,0.328-0.139,0.418c-0.1,0.092-0.25,0.131-0.46,0.131
		c-0.208,0-0.359-0.039-0.459-0.131c-0.1-0.09-0.139-0.229-0.139-0.418v-1.246c0-0.188,0.049-0.328,0.139-0.42
		c0.1-0.09,0.25-0.131,0.459-0.131c0.21,0,0.36,0.041,0.46,0.131c0.1,0.092,0.139,0.23,0.139,0.42V17.602z M5.249,17.602
		c0,0.15,0.069,0.23,0.219,0.23s0.219-0.08,0.219-0.23v-1.246c0-0.149-0.068-0.229-0.219-0.229s-0.219,0.078-0.219,0.229V17.602z"/>
	<path fill="#E1146E" d="M6.345,15.846h0.379v1.766c0,0.15,0.07,0.23,0.22,0.23c0.15,0,0.22-0.08,0.22-0.23v-1.766h0.379v1.766
		c0,0.189-0.051,0.332-0.141,0.421c-0.1,0.088-0.25,0.129-0.447,0.129c-0.208,0-0.359-0.041-0.459-0.129
		c-0.101-0.093-0.141-0.23-0.141-0.421v-1.766H6.345z"/>
	<path fill="#E1146E" d="M8.201,18.119v-2.273H8.86c0.2,0,0.34,0.051,0.431,0.16C9.36,16.094,9.4,16.223,9.4,16.395v1.187
		c0,0.178-0.041,0.319-0.12,0.399c-0.09,0.101-0.229,0.14-0.42,0.14L8.201,18.119L8.201,18.119z M8.579,17.823h0.22
		c0.149,0,0.219-0.091,0.219-0.261v-1.178c0-0.16-0.071-0.24-0.219-0.24h-0.22V17.823z"/>
	<path fill="#E1146E" d="M9.677,18.119v-2.273h0.689c0.188,0,0.317,0.043,0.389,0.131c0.07,0.088,0.11,0.248,0.11,0.486
		c0,0.201-0.021,0.342-0.07,0.41c-0.04,0.059-0.11,0.1-0.201,0.131c0.101,0.02,0.171,0.07,0.21,0.119
		c0.039,0.061,0.06,0.151,0.06,0.27v0.521c0,0.078,0.01,0.147,0.039,0.209h-0.379c-0.029-0.052-0.04-0.121-0.04-0.209v-0.539
		c0-0.062,0-0.103-0.01-0.121c-0.021-0.078-0.09-0.129-0.201-0.129h-0.22v0.998H9.677V18.119z M10.056,16.823h0.22
		c0.079,0,0.129-0.019,0.169-0.058c0.03-0.041,0.052-0.111,0.052-0.201v-0.119c0-0.12-0.011-0.2-0.041-0.239
		s-0.088-0.062-0.169-0.062h-0.219v0.679H10.056z"/>
	<path fill="#E1146E" d="M12.341,17.602c0,0.189-0.049,0.328-0.139,0.418c-0.101,0.092-0.25,0.131-0.459,0.131
		c-0.21,0-0.36-0.039-0.459-0.131c-0.101-0.09-0.14-0.229-0.14-0.418v-1.246c0-0.188,0.049-0.328,0.14-0.42
		c0.1-0.09,0.25-0.131,0.459-0.131c0.208,0,0.358,0.041,0.459,0.131c0.099,0.092,0.139,0.23,0.139,0.42V17.602z M11.523,17.602
		c0,0.15,0.07,0.23,0.221,0.23c0.149,0,0.219-0.08,0.219-0.23v-1.246c0-0.149-0.071-0.229-0.219-0.229
		c-0.149,0-0.221,0.078-0.221,0.229V17.602z"/>
	<path fill="#E1146E" d="M12.62,18.119v-2.273h0.647c0.239,0,0.399,0.07,0.469,0.201c0.039,0.07,0.07,0.207,0.07,0.408
		c0,0.139,0,0.239,0,0.297c-0.009,0.172-0.05,0.291-0.129,0.371s-0.2,0.108-0.369,0.108H13v0.9h-0.38V18.119z M13,16.912h0.219
		c0.07,0,0.129-0.019,0.16-0.062c0.029-0.039,0.05-0.106,0.05-0.207v-0.147c0-0.103-0.011-0.183-0.021-0.232
		c-0.021-0.08-0.079-0.119-0.189-0.119H13V16.912L13,16.912z"/>
</g>
</svg>
