<?xml version="1.0" encoding="utf-8"?>
<!-- Generator: Adobe Illustrator 16.0.0, SVG Export Plug-In . SVG Version: 6.00 Build 0)  -->
<!DOCTYPE svg PUBLIC "-//W3C//DTD SVG 1.1//EN" "http://www.w3.org/Graphics/SVG/1.1/DTD/svg11.dtd">
<svg version="1.1" id="Layer_1" xmlns="http://www.w3.org/2000/svg" xmlns:xlink="http://www.w3.org/1999/xlink" x="0px" y="0px"
	 width="21px" height="24.25px" viewBox="-0.407 0 21 24.25" enable-background="new -0.407 0 21 24.25" xml:space="preserve">
<g>
	<path fill="none" d="M20.654,16.824c0,1.476-1.189,2.67-2.654,2.67H2.307c-1.465,0-2.652-1.194-2.652-2.67V1.356
		c0-1.474,1.188-2.668,2.652-2.668h15.694c1.467,0,2.654,1.194,2.654,2.668L20.654,16.824L20.654,16.824z"/>
</g>
<path fill="#C80C28" d="M20.654,17.877c0,1.447-1.189,2.617-2.654,2.617H2.307c-1.465,0-2.652-1.17-2.652-2.617V2.725
	c0-1.445,1.188-2.615,2.652-2.615h15.694c1.467,0,2.654,1.17,2.654,2.615L20.654,17.877L20.654,17.877z"/>
<g>
	<path fill="#FFFFFF" d="M2.955,13.385l0.53,3.135h0.032c0.029-0.318,0.062-0.654,0.129-0.965l0.447-2.17h1.17l0.575,3.135h0.034
		c0.021-0.305,0.05-0.626,0.104-0.924l0.423-2.211h1.589l-1.481,5.252H5.176l-0.479-2.854H4.644
		c-0.017,0.272-0.027,0.536-0.077,0.795l-0.425,2.06H2.845l-1.472-5.252H2.955z"/>
	<path fill="#FFFFFF" d="M8.078,13.385h2.826v1.437H9.615v0.504h1.176v1.363H9.615v0.517h1.333v1.434H8.078V13.385z"/>
	<path fill="#FFFFFF" d="M11.302,13.385h2.826v1.437h-1.29v0.504h1.178v1.363h-1.178v0.517h1.332v1.434h-2.868V13.385z"/>
	<path fill="#FFFFFF" d="M14.51,13.385h1.487l-0.032,2.279h0.032c0.034-0.217,0.13-0.403,0.213-0.593l0.736-1.687h1.667
		l-1.315,2.556l1.454,2.698h-1.773l-0.724-1.589c-0.089-0.2-0.224-0.396-0.256-0.611h-0.034l0.034,2.2H14.51V13.385L14.51,13.385z"
		/>
	<polygon fill="#FFFFFF" points="1.203,2.487 8.638,2.487 8.638,5.649 6.69,5.561 6.69,12.221 3.152,12.221 3.152,5.561 
		1.203,5.649 	"/>
	<path fill="#FFFFFF" d="M19.291,2.487l-3.77,9.734h-2.996l-3.77-9.734h3.692l1.292,4.428c0.143,0.479,0.246,0.956,0.246,1.447
		h0.077c0-0.49,0.104-0.968,0.243-1.447l1.292-4.428H19.291z"/>
</g>
</svg>
