<?xml version="1.0" encoding="utf-8"?>
<!-- Generator: Adobe Illustrator 16.0.0, SVG Export Plug-In . SVG Version: 6.00 Build 0)  -->
<!DOCTYPE svg PUBLIC "-//W3C//DTD SVG 1.1//EN" "http://www.w3.org/Graphics/SVG/1.1/DTD/svg11.dtd">
<svg version="1.1" id="Layer_1" xmlns="http://www.w3.org/2000/svg" xmlns:xlink="http://www.w3.org/1999/xlink" x="0px" y="0px"
	 width="33px" height="24px" viewBox="-2.019 0.099 33 24" enable-background="new -2.019 0.099 33 24" xml:space="preserve">
<rect x="-2.019" y="0.099" fill="#E03D96" width="33" height="20"/>
<g>
	<g>
		<path fill="#FFFFFF" d="M17.759,14.539l-0.049-0.002c-0.429,0.996-1.072,1.442-1.918,1.442c-1.203,0-1.921-1.139-1.921-3.384
			L13.87,6.89c0.041-0.022,0.067-0.038,0.104-0.048c1.122-0.339,2.033-0.018,2.146,0.019c0.027,0.007,0.068,0.022,0.068,0.022v5.395
			c0,0.587,0.208,1.317,0.737,1.317c0.416,0,0.811-0.215,0.811-1.656c0,0,0-5.006,0-5.041c0.643-0.322,1.497-0.283,2.212-0.05
			c0.029,0.014,0.1,0.055,0.1,0.055v9.078c-0.977-0.014-1.485,0.002-2.285,0.002L17.759,14.539z"/>
		<g>
			<path fill="#FFFFFF" d="M23.039,8.63l0.104-0.341l0.071-0.229c0.09-0.318,0.384-1.365,1.226-1.365
				c0.497,0,0.959,0.361,1.282,0.752l-0.607,2.616c-0.151-0.071-0.559-0.292-0.907-0.27c-0.529,0.035-1.167,0.392-1.167,2.208v3.985
				c0,0-1.815,0-2.303-0.006c0,0-0.012-0.073-0.012-0.118c0-1.132,0-8.955,0-8.955S20.72,6.913,20.76,6.9
				c0.578-0.25,1.511-0.254,2.24-0.001c0.043,0.011,0.043,0.011,0.043,0.011V8.63H23.039L23.039,8.63z M23.039,11.999v1.902V16"/>
		</g>
		<path fill="#FFFFFF" d="M7.192,13.488c-0.026-0.795-0.011-0.928-0.011-4.294c0-1.634,1.579-2.683,3.073-2.683
			c1.195,0,3.021,0.912,3.021,2.636c0,1.133,0.021,4.057,0,4.499c-0.066,1.539-1.618,2.497-3.021,2.497
			C8.854,16.146,7.239,15.122,7.192,13.488z M9.428,11.219c0.017,1.492-0.115,2.503,0.85,2.49c1.019-0.011,0.847-1.038,0.847-2.49
			c0-1.561,0.189-2.338-0.827-2.338C9.26,8.88,9.41,9.839,9.428,11.219z"/>
		<path fill="#FFFFFF" d="M5.487,16.013l-2.578-0.005V11.23l-3.182-6.419c0,0,0.474-0.726,1.148-0.852
			c0.812-0.154,1.523,0.146,1.523,0.146c0.658,1.642,1.783,4.018,1.783,4.018s1.151-2.412,1.812-4.055c0,0,0.708-0.297,1.524-0.145
			c0.674,0.126,1.148,0.854,1.148,0.854l-3.181,6.419L5.487,16.013z"/>
		<path fill="#FFFFFF" d="M24.568,12.845l-0.673,1.116c0,0-0.39,0.679-0.022,1.196c0,0,0.489,0.806,1.877,0.912
			c0,0,1.304,0.138,2.179-0.581c0,0,0.816-0.582,1.079-1.681c0,0,0.296-1.137-0.221-2.167c0,0-0.237-0.492-0.73-1.013
			c-0.495-0.52-0.93-0.872-1.004-1.507c0,0-0.086-0.526,0.353-0.721c0,0,0.53-0.218,1.035,0.382c0,0,0.828-1.243-0.01-1.838
			c0,0-0.818-0.583-1.934-0.169c0,0-1.117,0.371-1.464,2.015c0,0-0.236,1.001,0.162,1.874c0,0,0.276,0.496,0.671,0.965
			c0.609,0.719,0.687,0.854,0.725,1.037c0,0,0.162,0.451-0.164,0.878c0,0-0.231,0.261-0.642,0.237c0,0-0.547-0.037-0.854-0.433
			L24.568,12.845z"/>
	</g>
</g>
</svg>
