<?xml version="1.0" encoding="UTF-8" standalone="no"?>
<!-- Generator: Adobe Illustrator 16.0.0, SVG Export Plug-In . SVG Version: 6.00 Build 0)  -->
<!DOCTYPE svg  PUBLIC '-//W3C//DTD SVG 1.1//EN'  'http://www.w3.org/Graphics/SVG/1.1/DTD/svg11.dtd'>
<svg id="dolly_doctor_copy" xmlns="http://www.w3.org/2000/svg" xml:space="preserve" height="155.7px" viewBox="0 0 158.4 155.7" width="158.4px" version="1.1" y="0px" x="0px" xmlns:xlink="http://www.w3.org/1999/xlink" enable-background="new 0 0 158.4 155.7">
<g id="white_copy">
	<path d="m156.5 52.3c-0.3-5.6-0.7-11.1-1.1-16.7l-0.2-4.1c0-0.7-0.1-1.4-0.1-2.1v-2.2c0-3.2-0.5-6.5-2-9.3-2.8-5.7-7.3-10.4-13.1-13.4-2.8-1.5-6-2.4-9.2-2.7-1.8-0.2-3.1-0.1-4.5-0.2h-4.2c-2.801 0-5.601 0-8.4 0.1l-8.3 0.5c-2.8 0.2-5.601 0.3-8.3 0.4h-12.5-4.2c-2.9 0.1-5.6 0.2-8.4 0.4-11.1 0.6-22.2 1.1-33.3 0.9-1.4 0-2.8-0.1-4.2-0.1h-2.1c-0.8 0-1.5 0-2.3 0.1-3 0.3-6.101 1-9 2.2-2.9 1.2-5.601 3.1-7.9 5.4s-4 5.1-5.2 8.1c-0.6 1.5-1 3-1.399 4.6-0.201 0.8-0.301 1.6-0.401 2.4 0 0.4-0.1 0.8-0.1 1.2l-0.1 1.1c-0.2 2.8-0.2 5.5-0.3 8.3-0.2 5.6-0.4 11.1-0.6 16.7l-1.5 33.2c-0.2 5.699 0 11.4 0.5 17s1.1 11.199 1.699 16.6c0.101 1.4 0.301 2.7 0.4 4.1l0.1 2c0 0.701 0.101 1.5 0.2 2.301 0.5 3.1 1.5 6 3.101 8.699 0.8 1.301 1.6 2.601 2.6 3.701 0.9 1.199 1.9 2.299 3 3.399 2.1 2.101 4.6 4 7.3 5.5 1.4 0.7 2.9 1.3 4.4 1.8 1.5 0.4 3.3 0.7 4.7 0.801 2.8 0.2 5.6 0.4 8.4 0.4 5.601 0.101 11.101 0.399 16.7 0.5l8.4 0.1c2.8 0 5.6-0.101 8.399-0.101l16.7-0.5c5.6-0.101 11.1-0.101 16.7 0l8.399 0.101c1.4 0 2.801 0.1 4.2 0 1.4 0 2.8-0.101 4.2-0.201l4.2-0.199 2.1-0.1c0.7 0 1.601-0.101 2.3-0.201 3.101-0.399 6.101-1.5 8.801-2.899 5.399-2.899 10-7.5 12.6-13.2 1.3-2.8 2.1-6 2.3-9.1 0.2-2.9 0.2-5.7 0.3-8.5 0.101-5.6 0.101-11.2 0.101-16.6v-2.9l0.1-1c0.101-1.4 0.101-2.801 0.101-4.2l-0.1-8.4 0.3-16.8c0-5.8 0-11.4-0.3-16.9z" fill="#fff"/>
</g>
			<defs>
				<path id="SVGID_1_" d="m14.9 133.3c11.3 13.3 32 14.9 48.4 15.6 14.2 0.601 57.7 4.3 70.9-2.2 21.2-10.4 21.8-36.199 21.8-88.3 0-37.3-30.1-53.3-42.7-54-14.3-0.7-24.7-0.9-44-0.5-21.9 0.4-51.1 19.4-55.1 40.9-5.3 27.8-11.5 74.2 0.7 88.5z"/>
			</defs>
			<clipPath id="SVGID_2_">
				<use overflow="visible" xlink:href="#SVGID_1_"/>
			</clipPath>
			<g clip-path="url(#SVGID_2_)">
				<rect y="5.9" x="0" height="24" width="158" fill="#EC008B"/>
				<rect y="29.9" x="0" height="24" width="158" fill="#EF74AB"/>
				<rect y="53.9" x="0" height="24" width="158" fill="#F897C4"/>
				<rect y="77.9" x="0" height="24" width="158" fill="#F89D1B"/>
				<rect y="101.9" x="0" height="24" width="158" fill="#F6821F"/>
				<rect y="125.9" x="0" height="24" width="158" fill="#ED1B24"/>
			</g>
<path d="m158.2 51.7c-0.3-5.7-0.7-11.4-1.1-17.1l-0.2-4.2c0-0.7-0.101-1.4-0.101-2.1v-2.2c0-3.3-0.5-6.6-2-9.5-2.9-5.8-7.5-10.6-13.3-13.6-2.899-1.5-6.1-2.4-9.399-2.8-1.8-0.2-3.1-0.1-4.6-0.2h-4.3c-2.9 0-5.7 0-8.5 0.1l-8.7 0.5c-2.8 0.2-5.7 0.3-8.5 0.4h-12.7-4.3c-2.899 0.1-5.8 0.2-8.6 0.4-11.4 0.6-22.8 1-34.1 0.9-1.399 0-2.8-0.1-4.3-0.1h-2.1c-0.8 0-1.601 0-2.3 0.1-3.101 0.3-6.2 1-9.2 2.3s-5.8 3.1-8.101 5.5c-2.3 2.4-4.1 5.2-5.3 8.3-0.6 1.5-1.1 3.1-1.399 4.7-0.2 0.8-0.301 1.6-0.4 2.4 0 0.4-0.1 0.8-0.1 1.2l-0.1 1.1c-0.2 2.8-0.2 5.7-0.3 8.5-0.2 5.7-0.4 11.4-0.6 17l-1.6 33.999c-0.2 5.801 0 11.601 0.5 17.401 0.5 5.7 1.2 11.4 1.7 17 0.1 1.4 0.3 2.801 0.4 4.2l0.1 2.1c0 0.699 0.1 1.6 0.2 2.299 0.5 3.201 1.6 6.201 3.1 8.9 0.8 1.301 1.7 2.6 2.601 3.801 0.899 1.199 1.899 2.399 3 3.5 2.199 2.199 4.699 4.1 7.5 5.6 1.399 0.699 2.899 1.4 4.5 1.8 1.6 0.5 3.3 0.7 4.8 0.8 2.899 0.2 5.7 0.4 8.6 0.4 5.7 0.1 11.4 0.5 17.101 0.5l8.5 0.1c2.899 0 5.8-0.1 8.6-0.1l17.1-0.5c5.7-0.2 11.4-0.2 17.101 0l8.6 0.1c1.4 0 2.9 0.1 4.3 0 1.4 0 2.9-0.1 4.301-0.199l4.3-0.201 2.2-0.1c0.699 0 1.6-0.1 2.399-0.199 3.2-0.5 6.2-1.5 9-3 5.601-3 10.2-7.701 12.9-13.5 1.3-2.9 2.1-6.101 2.3-9.301 0.2-3 0.2-5.8 0.3-8.699 0.101-5.701 0.101-11.4 0.101-17v-2.9l0.1-1.1c0.1-1.4 0.1-2.9 0.1-4.301l-0.1-8.6 0.3-17.2c0-5.799-0.1-11.499-0.3-17.199zm-4.8 17.2c-0.101 2.8-0.3 5.6-0.4 8.4s-0.3 5.6-0.399 8.4c-0.101 2.801 0 5.6-0.101 8.4 0 1.4-0.1 2.8-0.2 4.199l-0.1 1.101-0.1 1.2c0 0.8 0 1.5-0.101 2.199 0 5.801-0.1 11.4-0.2 17.101-0.1 2.8-0.1 5.7-0.3 8.399-0.2 2.5-0.8 5-1.899 7.301-2.101 4.6-5.9 8.4-10.4 10.8-2.2 1.2-4.7 2-7.1 2.3-0.601 0.1-1.2 0.1-1.9 0.2l-2.1 0.1-4.2 0.199c-11.3 0.5-22.601 0.7-34 0.801-5.7 0-11.3 0.1-17 0-2.8 0-5.601 0-8.5-0.101l-8.5-0.3-17-0.7-8.5-0.399c-1.4-0.101-2.5-0.201-3.7-0.5-1.2-0.301-2.4-0.701-3.5-1.201-4.5-2.1-8.5-5.799-10.9-10.199-1.199-2.2-2-4.6-2.3-7-0.1-0.6-0.1-1.1-0.1-1.9l-0.1-2.2c-0.1-1.4-0.199-2.9-0.3-4.301l-1.5-16.9c-0.4-5.6-0.6-11.1-0.5-16.7 0.101-5.7-0.2-11.4 0-17.1 0.1-5.7 0.9-11.3 1.1-17l0.8-17c0.1-2.8 0.3-5.7 0.3-8.5 0-2.7 0.4-5.3 1.3-7.8s2.2-4.8 4-6.7 3.9-3.5 6.4-4.7c2.4-1.1 5.1-1.8 7.8-2.1 0.7-0.1 1.4-0.1 2-0.1h2.1c1.4 0 2.801 0.1 4.301 0.1 11.699 0.2 23.099-0.5 34.399-0.4 2.8 0 5.7-0.1 8.4 0 1.3 0.1 2.8 0.1 4.2 0.1h12.8c2.8 0 5.7 0.1 8.5 0.2s5.7 0.1 8.5 0.1 5.7 0 8.5-0.1h4.2c1.399 0 2.899 0 4 0.1 2.5 0.2 5 0.9 7.3 2 4.6 2.2 8.6 6 11 10.6 1.2 2.3 2 4.8 2.2 7.3l0.3 4.2 0.3 4.3c0.5 5.7 0.8 11.3 1.1 17 0.4 5.5 0.3 11.2 0.1 16.8z"/>
	<path d="m123.1 62.9c-1.101-1.1-4.7-2-8-2h-12.9c-3.3 0-6-2.7-6-6v-12.4-8s-6.6-2-9.9-2h-13.5-8c-1.1 0-2 6.6-2 9.9v12.4c0 3.3-2.699 6-6 6h-11.9-8c-1.101 0-2 6.6-2 9.9v13.599 8c0 1.101 6.6 2 9.899 2h11.9c3.3 0 6 2.701 6 6v12.4 8s6.6 2 9.9 2h13.6 8s2-6.6 2-9.9v-12.4c0-3.3 2.7-6 6-6h12.9 8c1.1 0 2-6.601 2-9.899v-13.601c0-3.3-0.9-6.9-2-8z" fill="#fff"/>
	<path d="m121.2 66.2c-1-1-4.5-1.8-7.8-1.8h-10.6c-3.3 0-6-2.7-6-6v-10.1-7.8s-6.3-1.8-9.6-1.8h-11.2-7.8s-1.8 6.3-1.8 9.6v10.2c0 3.3-2.7 6-6 6h-9.8-7.801s-1.799 6.3-1.799 9.6v11.199 7.801s6.3 1.8 9.601 1.8h9.8c3.3 0 6 2.7 6 6v10.1 7.799s6.3 1.801 9.6 1.801h11.2 7.8s1.8-6.301 1.8-9.6v-10.201c0-3.299 2.7-6 6-6h10.6 7.8s1.8-6.299 1.8-9.6v-11.2c0-3.3-0.8-6.8-1.8-7.8z" fill="#fff"/>
	<path stroke="#000" stroke-width="5" stroke-miterlimit="10" d="m121.2 66.2c-1-1-4.5-1.8-7.8-1.8h-10.6c-3.3 0-6-2.7-6-6v-10.1-7.8s-6.3-1.8-9.6-1.8h-11.2-7.8s-1.8 6.3-1.8 9.6v10.2c0 3.3-2.7 6-6 6h-9.8-7.801s-1.799 6.3-1.799 9.6v11.199 7.801s6.3 1.8 9.601 1.8h9.8c3.3 0 6 2.7 6 6v10.1 7.799s6.3 1.801 9.6 1.801h11.2 7.8s1.8-6.301 1.8-9.6v-10.201c0-3.299 2.7-6 6-6h10.6 7.8s1.8-6.299 1.8-9.6v-11.2c0-3.3-0.8-6.8-1.8-7.8z" fill="none"/>
</svg>
