<?xml version="1.0" encoding="utf-8"?>
<!-- Generator: Adobe Illustrator 16.0.3, SVG Export Plug-In . SVG Version: 6.00 Build 0)  -->
<!DOCTYPE svg PUBLIC "-//W3C//DTD SVG 1.1//EN" "http://www.w3.org/Graphics/SVG/1.1/DTD/svg11.dtd">
<svg version="1.1" id="dolly_app" xmlns="http://www.w3.org/2000/svg" xmlns:xlink="http://www.w3.org/1999/xlink" x="0px" y="0px"
	 width="156.279px" height="154.879px" viewBox="0 0 156.279 154.879" enable-background="new 0 0 156.279 154.879"
	 xml:space="preserve">
<path fill="#FFFFFF" d="M154.365,27.474c-0.023-0.404,0.046-0.807,0.003-1.208c-0.341-3.217-1.39-6.261-2.862-9.047
	c-2.966-5.547-7.628-10.245-13.51-12.88c-2.933-1.3-6.121-2.059-9.316-2.211c-2.865-0.13-5.636-0.171-8.43-0.206
	c-2.789-0.106-5.575,0.291-8.358,0.577c-1.392,0.133-2.782,0.141-4.173,0.166l-4.182,0.092l-2.106,0.048l-2.116,0.074L95.19,3.017
	c-2.75,0.071-5.501,0.112-8.253,0.122L70.38,3.087c-1.381-0.006-2.805-0.015-4.203,0.016L62.02,3.197
	c-2.773,0.087-5.547,0.062-8.326,0.078c-5.55,0.125-11.156-0.862-16.726-0.635l-4.173,0.132c-0.695,0.017-1.389,0.061-2.083,0.103
	c-0.7,0.045-1.346,0.069-2.201,0.149c-3.223,0.311-6.264,1.333-9.028,2.755C13.98,8.668,9.427,13.191,6.649,18.775
	c-1.378,2.79-2.278,5.846-2.576,8.973c-0.159,1.708-0.116,2.978-0.146,4.406l-0.019,4.177l0.039,16.627
	c0.021,1.383-0.042,2.766-0.027,4.148C3.908,58.49,4,59.873,4.033,61.255l0.242,8.29l0.078,4.142l-0.01,4.177l0.112,8.394
	c0.087,11.116,0.135,22.209,0.416,33.281c0.03,1.383,0.052,2.767,0.112,4.146l0.075,2.078c0.027,0.757,0.083,1.517,0.158,2.276
	c0.322,3.034,1.024,6.098,2.278,9.005c1.236,2.908,3.095,5.62,5.464,7.787c2.384,2.147,5.189,3.785,8.165,4.763
	c2.96,1.006,6.086,1.4,9.08,1.38l4.219-0.065l4.164,0.088l16.6,0.242c11.057,0.187,22.095,0.591,33.101,1.275
	c11.182,0.646,22.369,0.528,33.488,0.155l4.169-0.08l2.08-0.046c0.74-0.015,1.597-0.069,2.379-0.167
	c3.201-0.384,6.244-1.468,8.996-2.965c5.52-2.999,9.938-7.735,12.575-13.506c0.653-1.446,1.186-2.964,1.56-4.542
	c0.382-1.574,0.567-3.253,0.608-4.741c0.08-2.862,0.077-5.626,0.076-8.416c-0.052-5.563,0.076-11.106-0.437-16.653
	c-0.232-2.772-0.289-5.543-0.33-8.308c-0.041-2.752-0.073-5.516-0.055-8.291c0.085-5.54,0.099-11.084,0.36-16.626
	c0.241-5.543,0.481-11.091,0.493-16.647l0.075-8.34c0.042-2.784-0.075-5.571-0.003-8.374l-0.136-4.216v-2.125
	C154.188,28.307,154.384,27.873,154.365,27.474z"/>
<path fill="#EC008C" d="M149.938,87.188c-0.192-7.789-0.386-15.573-1-23.344c-1.403-17.763-4.829-35.904-16.339-50.054
	C121.975,0.729,102.806,4.521,87.003,3.46C73.292,2.539,42.222-1.29,29.34,4.702C8.638,14.333,7.069,34.867,1.668,56.143
	C-1.73,69.533,1.001,82.871,1.702,96.421c0.677,13.08,1.876,25.778,10.465,36.282c8.046,9.84,19.97,12.867,32.11,13.825
	c13.848,1.094,27.686,2.407,41.536,3.476c12.523,0.965,26.582,0.96,38.449-3.61c13.135-5.058,21.203-16.194,24.288-29.696
	C150.771,106.974,150.182,97.057,149.938,87.188z"/>
<path d="M156.261,26.214c-0.023-0.414,0.048-0.827,0.004-1.238c-0.351-3.298-1.425-6.418-2.935-9.275
	c-3.041-5.688-7.82-10.503-13.852-13.205c-3.006-1.333-6.274-2.111-9.551-2.266c-2.938-0.134-5.777-0.176-8.643-0.212
	c-2.858-0.109-5.715,0.299-8.568,0.592c-1.427,0.137-2.852,0.145-4.278,0.169l-4.286,0.095l-2.16,0.049L99.822,1l-4.228,0.141
	c-2.819,0.074-5.64,0.115-8.461,0.125L70.159,1.213c-1.416-0.006-2.876-0.015-4.31,0.017l-4.262,0.096
	c-2.843,0.09-5.688,0.063-8.536,0.08c-5.69,0.128-11.438-0.884-17.147-0.651l-4.277,0.135c-0.713,0.018-1.424,0.063-2.136,0.105
	c-0.718,0.046-1.38,0.071-2.257,0.153c-3.304,0.319-6.422,1.366-9.255,2.825c-5.642,2.962-10.31,7.6-13.157,13.325
	c-1.413,2.86-2.336,5.993-2.641,9.199c-0.164,1.751-0.119,3.053-0.149,4.517l-0.02,4.283l0.04,17.045
	c0.021,1.418-0.043,2.836-0.028,4.253c-0.013,1.417,0.082,2.835,0.115,4.252l0.248,8.499l0.081,4.247l-0.011,4.282l0.115,8.605
	C2.662,97.875,2.712,109.249,3,120.6c0.031,1.418,0.053,2.836,0.115,4.251l0.077,2.13c0.028,0.776,0.085,1.555,0.162,2.333
	c0.33,3.111,1.05,6.252,2.335,9.232c1.269,2.981,3.174,5.761,5.602,7.984c2.444,2.201,5.321,3.88,8.372,4.883
	c3.034,1.031,6.239,1.436,9.309,1.414l4.325-0.067l4.269,0.091l17.019,0.248c11.335,0.191,22.65,0.606,33.935,1.308
	c11.463,0.662,22.934,0.541,34.332,0.159l4.274-0.082l2.133-0.047c0.758-0.015,1.636-0.071,2.438-0.172
	c3.282-0.394,6.401-1.505,9.223-3.04c5.658-3.074,10.188-7.93,12.892-13.846c0.67-1.483,1.216-3.039,1.599-4.656
	c0.393-1.614,0.583-3.335,0.625-4.86c0.081-2.935,0.078-5.769,0.077-8.628c-0.052-5.703,0.079-11.386-0.447-17.072
	c-0.237-2.842-0.297-5.683-0.338-8.518c-0.042-2.822-0.076-5.655-0.056-8.5c0.087-5.68,0.101-11.363,0.368-17.046
	c0.248-5.683,0.494-11.371,0.507-17.066l0.077-8.55c0.043-2.854-0.078-5.712-0.004-8.584l-0.139-4.323v-2.178
	C156.08,27.068,156.28,26.624,156.261,26.214z M151.416,119.154c-0.115,2.829-0.235,5.671-0.43,8.46
	c-0.085,1.369-0.267,2.641-0.611,3.899c-0.339,1.258-0.809,2.487-1.386,3.667c-1.153,2.362-2.727,4.532-4.573,6.416
	c-1.855,1.872-3.923,3.546-6.218,4.798c-2.283,1.259-4.76,2.13-7.275,2.466c-0.64,0.085-1.235,0.131-1.912,0.155l-2.125,0.078
	l-4.247,0.145c-5.655,0.188-11.296,0.835-16.948,0.637c-5.65-0.099-11.278-0.783-16.873-1.299
	c-5.684-0.509-11.391-0.753-17.086-0.937c-5.696-0.225-11.394-0.251-17.086-0.254l-17.057,0.058
	c-2.825,0.004-5.695,0.056-8.429-0.038c-2.566-0.069-5.022-0.552-7.341-1.463c-4.638-1.794-8.393-5.395-10.394-9.96
	c-1.02-2.273-1.635-4.762-1.909-7.324c-0.066-0.642-0.117-1.287-0.144-1.937l-0.087-2.126l-0.183-4.262
	c-0.495-11.35-1.041-22.694-1.381-34c-0.077-2.817-0.15-5.656-0.129-8.4l0.177-8.505c0.082-5.699,0.122-11.389,0.119-17.074
	L7.817,35.327l0.011-4.237c0.02-1.377-0.001-2.91,0.113-4.017c0.229-2.485,0.936-4.93,2.048-7.202
	c2.229-4.544,6.055-8.383,10.58-10.762c2.266-1.176,4.719-1.991,7.194-2.236c0.578-0.059,1.323-0.095,2.024-0.14
	c0.707-0.043,1.413-0.088,2.12-0.112l4.241-0.162c5.657-0.246,11.313,0.587,16.955,0.316c2.824-0.1,5.655-0.152,8.49-0.348
	L65.85,6.18c1.402-0.073,2.777-0.094,4.203-0.125l17.096-0.11c2.854-0.028,5.71-0.087,8.563-0.18l4.281-0.132l2.095-0.062
	l2.103-0.021c5.641-0.004,11.317,0.049,16.967,0.228c2.821,0.123,5.655,0.255,8.423,0.468c2.553,0.204,5.033,0.878,7.325,1.98
	c4.589,2.192,8.376,6.052,10.677,10.58c1.144,2.267,1.93,4.689,2.31,7.124c0.093,0.632,0.144,1.168,0.186,1.88l0.12,2.088
	l0.239,4.202c0.156,2.809,0.294,5.63,0.323,8.456l-0.056,8.486c-0.005,2.831-0.12,5.662-0.065,8.496l0.076,8.503
	c0.101,5.672,0.111,11.346,0.105,17.023c0.012,2.834,0.03,5.684,0.083,8.541c0.04,2.845,0.122,5.683,0.383,8.524
	C151.877,107.812,151.493,113.486,151.416,119.154z"/>
<g>
	<path fill="#FFFFFF" d="M66.833,94.706c-1.303,2.064,0.767,2.11,1.835,0.041c10.538,2.324,19.583-2.731,18.555-15.239
		c1.592-13.134-6.066-18.935-17.844-17.15c-0.977-2.065-3.046-2.11-1.835-0.04C66.333,60.247,65.53,96.77,66.833,94.706z
		 M37.017,35.405c-5.064-5.395,30.524-4.612,31.56,0.694c31.237-4.596,55.677,9.832,49.617,44.148
		c4.682,28.349-15.863,45.667-43.764,39.654c-0.289,5.393-44.551,4.419-39.252-0.863C29.879,124.319,31.952,30.01,37.017,35.405z"/>
</g>
<g>
	<path fill="none" stroke="#000000" stroke-width="5" stroke-miterlimit="10" d="M71.246,93.582c-0.201,0.323,1.65,0.323,1.814,0
		c10.223,0.323,18.213-4.377,18.012-15.468c0.201-11.853-6.763-16.89-18.012-16.566c-0.164-0.323-2.016-0.323-1.814,0
		C71.045,61.224,71.045,93.905,71.246,93.582z M40.502,35.651c-0.82-0.836,31.025-0.836,31.215,0
		c28.688-0.836,50.831,11.588,50.011,42.566c0.82,25.096-17.215,40.989-42.403,40.153c-0.035,0.836-39.643,0.836-38.822,0
		C39.682,119.206,39.682,34.815,40.502,35.651z"/>
</g>
</svg>
