<?xml version="1.0" encoding="utf-8"?>
<!-- Generator: Adobe Illustrator 16.0.3, SVG Export Plug-In . SVG Version: 6.00 Build 0)  -->
<!DOCTYPE svg PUBLIC "-//W3C//DTD SVG 1.1//EN" "http://www.w3.org/Graphics/SVG/1.1/DTD/svg11.dtd">
<svg version="1.1" id="Layer_1" xmlns="http://www.w3.org/2000/svg" xmlns:xlink="http://www.w3.org/1999/xlink" x="0px" y="0px"
	 width="154.83px" height="153.658px" viewBox="0 0 154.83 153.658" enable-background="new 0 0 154.83 153.658"
	 xml:space="preserve">
<g>
	<g>
		<path fill="#FFFFFF" d="M152.446,50.619c0.043-5.62-0.014-11.258-0.165-16.88l-0.125-4.214l-0.075-2.105
			c-0.035-0.707-0.051-1.368-0.12-2.207c-0.265-3.188-1.247-6.224-2.673-8.973c-1.401-2.768-3.313-5.227-5.527-7.342
			c-2.216-2.114-4.758-3.89-7.538-5.177c-2.792-1.262-5.809-2.035-8.851-2.22c-1.613-0.1-2.937-0.009-4.365,0.01l-4.214,0.129
			c-5.608,0.238-11.205,0.305-16.804,0.43C96.393,2.261,90.8,1.689,85.219,1.326c-1.396-0.09-2.791-0.138-4.186-0.189l-4.217-0.054
			c-2.861-0.023-5.656,0.224-8.463,0.392c-2.803,0.189-5.601,0.403-8.401,0.491c-2.799,0.142-5.599,0.213-8.403,0.187
			c-2.804-0.017-5.611-0.118-8.417-0.165l-4.208-0.085c-1.4,0.01-2.802-0.015-4.2,0.032c-1.399,0.025-2.797,0.063-4.192,0.126
			l-2.1,0.081c-0.752,0.028-1.504,0.085-2.256,0.162c-3.009,0.314-6.03,1.038-8.871,2.303c-2.834,1.272-5.446,3.119-7.594,5.401
			c-2.151,2.28-3.819,4.99-4.927,7.88c-1.113,2.883-1.675,5.982-1.729,8.997c-0.058,2.883-0.025,5.659-0.018,8.47l0.043,8.396
			c-0.027,2.797-0.107,5.592-0.171,8.386l-0.313,8.378c-0.047,2.792,0.238,5.591,0.196,8.384C2.73,74.484,2.065,80.039,1.826,85.612
			c-0.178,5.648-0.236,11.29-0.043,16.921l0.325,8.437l0.168,8.427l0.114,4.208l0.062,2.101c0.019,0.731,0.086,1.538,0.19,2.292
			c0.422,3.066,1.476,5.991,2.946,8.644c1.458,2.666,3.409,5.018,5.637,7.038c2.23,2.019,4.762,3.714,7.539,4.938
			c1.387,0.611,2.836,1.103,4.332,1.442c1.494,0.349,3.059,0.493,4.514,0.519c2.85,0.079,5.646,0.077,8.456,0.076
			c5.611,0.011,11.213-0.12,16.815,0.02c5.614,0.146,11.169,0.406,16.769,0.749l9.8,0.529c0.315,0.15,0.665,0.243,1.039,0.245
			l3.744,0.014l2.218,0.121c5.604,0.262,11.217,0.329,16.834,0.144s11.23-0.714,16.856-1.024l4.224-0.291l2.118-0.161
			c0.695-0.054,1.5-0.14,2.233-0.264c2.993-0.498,5.838-1.551,8.435-3c5.198-2.893,9.41-7.439,11.838-12.852
			c1.217-2.698,1.934-5.637,2.092-8.591c0.15-2.832,0.215-5.634,0.269-8.442l0.101-8.416l0.2-8.421
			c0.054-1.39,0.105-2.858,0.095-4.248l0.046-4.183l0.188-8.357c0.082-2.785,0.19-5.567,0.196-8.356
			c-0.012-2.79-0.035-5.579,0.029-8.386C152.362,61.794,152.391,56.259,152.446,50.619z"/>
	</g>
	<g>
		<path fill="#1672B9" d="M125.099,8.753c-24.611-9.395-80.006-9.777-103.11,6.417C-6.226,34.95-0.728,72.525,3.291,102.256
			c6.615,48.938,116.149,36.396,145.297,14.421c8.438-6.361,5.861-33.445,5.902-47.379C154.577,39.146,148.938,17.853,125.099,8.753
			z"/>
		<path fill="#58A2D4" d="M148.668,111.083c0,0-28.269-0.09-37.612-1.176c-12.596-1.465-47.782-1.668-58.177-2.362
			C41.313,106.771,5.8,108.759,5.8,108.759s0.792,7.875,0.263,14.075c-2.844,33.327,84.422,23.554,106.431,24.017
			C122.324,147.058,153.515,138.774,148.668,111.083z"/>
		<path fill="#FFFFFF" d="M129.024,26.156c0.1-5.601-8.576-7.448-13.687-6.635c-2.369,0.377-5.103-0.209-7.506-0.199
			c-3.285,0.015-6.507,0.917-9.429,2.368c-5.262,2.614-9.506,6.724-12.368,11.848c-4.013,7.18-6.308,16.184-5.935,24.965
			C59.53,58.682,66.435,76.754,68.53,77.016c2.543,0.317,8.781,0.302,11.327,0.433c-0.012,11.776-2.895,22.825-3.327,34.567
			c-0.329,8.945-1.769,19.989,0.507,39.19c0,0,20.155,3.155,21.319-9.051c0.84-8.808,1.668-16.531,2.103-25.423
			c0.592-12.121,0.631-24.264,1.237-36.385c0.039-0.791,0.051-1.58,0.072-2.369c3.313-0.137,6.627-0.469,9.953-1.138
			c12.008-2.417,15.143-17.161-1.051-17.321c-1.759-0.018-7.468-0.438-9.225-0.307c-0.092-3.998-0.098-7.996,0.187-11.995
			c0.226-3.159,1.175-5.901,3.869-7.771c1.896-1.314,3.399-1.16,5.694-1.058c3.16,0.14,6.058-0.049,9.191-0.548
			C125.511,37.027,128.864,35.349,129.024,26.156z"/>
		<g>
			<path fill="#010202" d="M99.825,59.621v-0.002c-0.006-0.034-0.01-0.062-0.014-0.083C99.815,59.556,99.819,59.58,99.825,59.621z"
				/>
			<path fill="#010202" d="M99.813,59.536C99.806,59.481,99.806,59.487,99.813,59.536L99.813,59.536z"/>
			<path fill="#010202" d="M153.521,50.245c0.043-5.7-0.015-11.418-0.168-17.12l-0.127-4.274l-0.076-2.135
				c-0.035-0.717-0.051-1.388-0.121-2.238c-0.269-3.234-1.266-6.313-2.711-9.101c-1.422-2.807-3.361-5.301-5.606-7.447
				c-2.247-2.144-4.825-3.945-7.646-5.251c-2.832-1.28-5.892-2.064-8.977-2.251c-1.637-0.102-2.979-0.009-4.428,0.01l-4.273,0.131
				c-5.688,0.241-11.365,0.309-17.043,0.436c-5.677,0.193-11.35-0.386-17.01-0.755c-1.416-0.092-2.831-0.14-4.245-0.192
				l-4.277-0.055C73.911-0.021,71.076,0.23,68.229,0.4c-2.843,0.192-5.68,0.409-8.521,0.498c-2.839,0.144-5.679,0.216-8.523,0.189
				c-2.844-0.017-5.691-0.119-8.537-0.167L38.38,0.834c-1.42,0.01-2.842-0.015-4.26,0.032c-1.419,0.026-2.837,0.064-4.252,0.128
				l-2.129,0.082c-0.763,0.029-1.526,0.086-2.289,0.164c-3.051,0.319-6.115,1.053-8.997,2.336c-2.875,1.29-5.524,3.163-7.702,5.478
				c-2.182,2.313-3.873,5.061-4.997,7.993C2.625,19.971,2.055,23.114,2,26.172c-0.059,2.924-0.026,5.739-0.018,8.59l0.044,8.516
				c-0.028,2.836-0.109,5.671-0.174,8.505L1.535,60.28c-0.048,2.832,0.241,5.671,0.199,8.503c-0.063,5.668-0.737,11.302-0.98,16.954
				c-0.181,5.729-0.24,11.451-0.044,17.162l0.329,8.557l0.171,8.547l0.115,4.268l0.063,2.131c0.019,0.742,0.088,1.56,0.193,2.324
				c0.428,3.11,1.497,6.077,2.988,8.767c1.478,2.704,3.457,5.09,5.717,7.139c2.262,2.048,4.83,3.767,7.646,5.009
				c1.407,0.62,2.877,1.118,4.394,1.463c1.515,0.354,3.102,0.5,4.578,0.526c2.89,0.08,5.727,0.078,8.576,0.077
				c5.691,0.011,11.373-0.122,17.054,0.02c5.694,0.147,11.329,0.412,17.008,0.76l9.939,0.537c0.319,0.152,0.675,0.246,1.054,0.248
				l3.798,0.015l2.249,0.122c5.685,0.266,11.377,0.334,17.073,0.146c5.697-0.188,11.391-0.724,17.097-1.038l4.284-0.296l2.148-0.163
				c0.705-0.055,1.521-0.142,2.266-0.268c3.035-0.505,5.921-1.573,8.555-3.043c5.271-2.934,9.544-7.545,12.006-13.034
				c1.234-2.737,1.961-5.717,2.122-8.713c0.152-2.873,0.218-5.715,0.272-8.563l0.102-8.535l0.203-8.541
				c0.055-1.409,0.107-2.899,0.096-4.309l0.047-4.242l0.191-8.477c0.083-2.825,0.193-5.646,0.199-8.475
				c-0.012-2.829-0.036-5.659,0.029-8.506C153.435,61.58,153.464,55.966,153.521,50.245z M102.675,76.781
				c-0.074,0.021-0.141,0.038-0.254,0.08c-0.087,0.032-0.236,0.086-0.455,0.225c-0.169,0.119-0.306,0.228-0.449,0.415l-0.02,0.023
				c-0.04,0.053-0.086,0.119-0.124,0.183c-0.034,0.058-0.083,0.149-0.099,0.181l-0.039,0.088l-0.062,0.156
				c-0.067,0.188-0.095,0.309-0.124,0.432c-0.053,0.233-0.082,0.424-0.109,0.612c-0.187,1.435-0.221,2.681-0.28,3.981
				c-0.113,2.548-0.271,5.152-0.271,7.55v0.013c0,1.379-0.08,2.565-0.104,3.84l-0.052,3.754l-0.068,7.498l-0.089,7.494
				c-0.021,2.498-0.013,4.996,0.004,7.493l0.543,14.984c0.054,2.495,0.171,4.993-0.001,7.491l-0.242,3.748l-0.105,1.287
				c-1.104-0.028-2.224-0.029-3.33-0.039l-5.453-0.054c-2.836-0.059-5.684,0.001-8.514,0.021
				c-0.342-6.326-1.027-12.697-1.115-19.068c-0.118-3.592-0.192-7.188-0.209-10.785c-0.051-3.598-0.051-7.195-0.036-10.794
				l0.019-10.796l0.186-10.801l0.316-5.41l0.252-1.361v-0.69c0-0.253-0.242-0.427-0.266-0.804l-0.137-0.133
				c-0.266-1.008-0.139-0.291-0.199-0.521l-0.059-0.066c-0.135-0.306-0.381-0.611-0.643-0.822c-0.145-0.113-0.186-0.129-0.281-0.192
				c-0.311-0.18-0.441-0.213-0.58-0.265c-0.246-0.082-0.42-0.122-0.574-0.156c-0.311-0.067-0.566-0.107-0.821-0.146
				c-0.504-0.072-0.976-0.123-1.446-0.169c-2.889-0.256-5.691-0.385-8.509-0.483c0.04-1.902,0.104-3.81,0.198-5.731l0.197-4.048
				c0.018-0.565,0.018-1.137,0.027-1.705c0.059-0.006,0.117-0.013,0.176-0.019c0.89-0.125,1.799-0.08,2.681-0.518
				c0.882-0.424,1.745-1.064,2.637-1.284c0.896-0.192,1.797-0.334,2.711-0.497c0.462-0.063,0.924-0.135,1.411-0.247
				c0.246-0.059,0.49-0.12,0.783-0.236c0.148-0.06,0.304-0.115,0.523-0.272c0.116-0.096,0.247-0.188,0.391-0.449
				c0.063-0.101,0.123-0.314,0.134-0.445l0.011-0.083c0.125-0.873,0.221-1.827,0.273-2.73c0.132-1.799,0.097-3.696,0.15-5.37
				c0.242-3.522,0.584-7.122,0.905-10.682l0.256-2.673l0.069-0.659l0.096-0.58c0.073-0.391,0.158-0.807,0.258-1.208
				c0.394-1.613,1.012-3.126,1.825-4.49c0.821-1.361,1.89-2.545,3.154-3.515c1.237-0.998,2.62-1.895,4.146-2.607
				c3.053-1.453,6.543-2.076,10.028-2.509c3.513-0.432,7.051-0.439,10.622-0.058l2.672,0.262c0.893,0.076,1.781,0.192,2.666,0.372
				c0.882,0.201,1.76,0.453,2.639,0.768c0.182,0.061,0.358,0.122,0.536,0.183c-0.071,0.818-0.104,1.63-0.045,2.435
				c0.14,1.229,0.435,2.457,0.522,3.696c0.093,1.238,0.133,2.482,0.171,3.732c0.022,0.708,0.024,1.418,0.016,2.128
				c-0.666-0.026-1.332-0.061-1.999-0.118c-1.222-0.065-2.479-0.194-3.742-0.285c-2.525-0.181-5.146-0.251-7.881,0.42
				c-0.682,0.172-1.371,0.386-2.064,0.661c-0.348,0.143-0.695,0.292-1.043,0.472l-0.262,0.136l-0.129,0.071l-0.064,0.036
				l-0.147,0.087l-0.194,0.121l-0.388,0.279c-1.672,1.373-2.243,2.872-2.741,4.229c-0.908,2.738-1.176,5.308-1.336,7.868
				c-0.146,2.552-0.129,5.068-0.023,7.573l0.099,1.873l0.026,0.439l0.002,0.022c0.031,0.224,0.096,0.662,0.086,0.588l0.005,0.014
				l0.009,0.027l0.071,0.2c0.037,0.094,0.083,0.188,0.135,0.28c0.103,0.184,0.233,0.356,0.376,0.502
				c0.186,0.184,0.205,0.183,0.249,0.22l0.142,0.1c0.383,0.243,0.529,0.272,0.697,0.339c0.592,0.19,0.903,0.221,1.275,0.285
				c1.382,0.193,2.602,0.253,3.859,0.323c4.281,0.23,8.498,0.165,12.728,0.38c-0.004,0.75-0.001,1.5-0.019,2.25
				c-0.012,1.401-0.061,2.803-0.094,4.206s-0.182,2.804-0.332,4.205l-0.214,2.056c-1.791,0.319-3.608,0.667-5.458,0.72
				c-1.248,0.054-2.535,0.03-3.787,0.035c-0.606-0.001-1.309-0.005-1.961,0.021l-1.963,0.081c-0.66,0.036-1.311,0.075-2.021,0.163
				c-0.178,0.021-0.364,0.049-0.574,0.088C102.929,76.719,102.815,76.742,102.675,76.781z M149.06,75.789
				c-0.078,2.849-0.254,5.7-0.403,8.556l-0.193,4.286l-0.226,4.294c-0.063,1.434-0.135,2.866-0.16,4.301
				c-0.012,0.739-0.035,1.396-0.079,2.08l-0.134,2.09c-0.403,5.617-0.234,11.289-0.332,16.927l-0.174,8.389
				c-0.053,2.433-0.555,4.838-1.494,7.12c-1.864,4.559-5.396,8.607-9.844,11.209c-2.225,1.286-4.66,2.225-7.17,2.682
				c-0.644,0.115-1.218,0.19-1.928,0.254l-2.094,0.184c-1.398,0.119-2.807,0.207-4.214,0.275c-5.248,0.273-10.522,0.428-15.8,0.44
				l-0.773-28.095c-0.205-4.993-0.592-9.985-0.48-14.979c0.01-2.497,0.287-4.993,0.387-7.487l0.441-7.39v0.013
				c0-2.676-0.025-5.15,0.002-7.678c0.016-1.109-0.041-2.261,0.045-3.268c0.467-0.059,0.928-0.104,1.426-0.139
				c0.611-0.045,1.211-0.076,1.824-0.08c0.614-0.013,1.174,0.004,1.838,0.02c1.287,0.042,2.533,0.025,3.824,0.09
				c2.564,0.064,5.188,0.553,7.838,0.409c1.071-0.058,2.008-0.84,2.215-1.942l0.043-0.229c0.058-0.306,0.091-0.656,0.137-1
				l0.077-0.534l0.052-0.367l0.02-0.256l0.002-0.066l0.004-0.132l0.072-2.109c0.023-1.405,0.07-2.811,0.049-4.219
				c-0.033-1.408-0.035-2.817-0.104-4.228c-0.074-1.411-0.104-2.822-0.23-4.235l-0.035-0.382c-0.09-0.968-0.938-1.69-1.912-1.619
				l-3.656,0.269c-1.221,0.061-2.439,0.079-3.659,0.071c-2.437,0-4.875-0.017-7.294-0.101c-1.201-0.047-2.426-0.099-3.557-0.237
				c-0.126-0.016-0.258-0.036-0.378-0.057l-0.083-1.699c-0.094-2.418-0.1-4.841,0.046-7.245c0.13-2.396,0.476-4.811,1.257-6.986
				c0.378-1.068,0.943-2.117,1.695-2.649l0.117-0.081l0.197-0.117l0.338-0.167c0.248-0.12,0.508-0.222,0.77-0.322
				c0.527-0.192,1.074-0.348,1.635-0.475c4.557-0.94,9.43-0.307,14.296,0.104c0.911,0.075,1.729-0.582,1.843-1.498l0.025-0.219
				c0.311-2.535,0.58-5.095,0.732-7.685c0.1-2.589,0.109-5.195-0.021-7.763c-0.062-1.218-1.006-2.24-2.256-2.361l-0.229-0.022
				l-5.197-0.503c-1.786-0.182-3.584-0.325-5.391-0.47c-1.812-0.139-3.615-0.27-5.504-0.327c-1.937-0.047-3.74,0.028-5.631,0.175
				c-1.873,0.137-3.752,0.418-5.624,0.83c-1.858,0.434-3.778,0.885-5.487,1.922c-1.723,1.003-3.248,2.275-4.785,3.478
				c-1.541,1.213-2.895,2.692-4.027,4.336c-1.104,1.663-1.954,3.502-2.487,5.404c-0.129,0.479-0.237,0.948-0.341,1.457l-0.066,0.335
				l-0.031,0.166l-0.039,0.282L78.69,37.5c-0.131,0.895-0.191,1.791-0.285,2.686c-0.34,3.597-0.702,7.114-0.898,10.811l-0.063,0.388
				l-0.051,0.401v0.67l0.043,1.327l-0.026,2.606c-0.014,0.39-0.017,0.754-0.037,1.12c-0.124,0.021-0.241,0.042-0.369,0.061
				c-1.623,0.23-3.396,0.358-5.155,0.476c-1.788,0.124-3.373,0.179-5.309,0.332c-1.249,0.103-2.146,1.137-2.146,2.417v0.062
				L64.1,68.934c-0.065,2.713-0.125,5.451-0.015,8.206l-0.029,0.086c0.052,1.281,1.098,2.296,2.389,2.282
				c3.547-0.039,7.163-0.063,10.621,0.103c0.227,0.013,0.431,0.033,0.649,0.049l0.027,0.984l0.123,5.383l0.204,10.789
				c-0.021,1.797-0.019,3.597-0.08,5.396l-0.229,5.396c-0.1,1.801-0.107,3.601-0.159,5.398c-0.025,1.799,0.012,3.598,0.015,5.396
				c0.013,3.599,0.055,7.201,0.132,10.807c0.136,6.354,0.093,12.709,0.257,19.1l-8.38-0.322c-5.665-0.252-11.402-0.444-17.058-0.516
				c-2.838-0.018-5.675,0.018-8.511-0.029c-2.835-0.032-5.667-0.242-8.494-0.377c-2.818-0.145-5.663-0.336-8.402-0.61
				c-1.314-0.12-2.426-0.328-3.554-0.671c-1.128-0.334-2.235-0.789-3.301-1.344c-1.069-0.549-2.087-1.215-3.069-1.928
				c-0.99-0.703-1.93-1.488-2.806-2.339c-1.75-1.705-3.223-3.673-4.455-5.726c-0.604-1.035-1.105-2.118-1.525-3.217
				c-0.447-1.088-0.79-2.209-1.012-3.345c-0.116-0.585-0.182-1.098-0.253-1.75l-0.216-2.118l-0.414-4.229
				c-0.504-5.637-0.927-11.268-1.193-16.906C5.064,97.245,4.976,91.597,5.19,85.964C5.391,80.274,6.178,74.6,6.351,68.906
				c0.031-1.423,0.075-2.847,0.074-4.271c0.014-1.423-0.017-2.847,0.1-4.268l0.401-4.264l0.438-4.264
				c0.621-5.686,0.413-11.382,0.451-17.055l0.032-8.412c0.017-2.516,0.435-4.919,1.278-7.212c1.661-4.574,5.09-8.395,9.608-10.489
				c2.254-1.046,4.733-1.693,7.296-1.999c0.642-0.074,1.287-0.133,1.938-0.167l2.125-0.111c1.422-0.083,2.842-0.144,4.262-0.196
				C40.029,5.93,45.709,5.871,51.382,5.75c5.672-0.101,11.345-0.2,16.992-0.23c2.813-0.034,5.654-0.083,8.375-0.026l4.221,0.139
				l4.281,0.013c5.707-0.074,11.398-0.338,17.084-0.34l17.025-0.031l4.236,0.021c1.373,0.021,2.916,0.01,3.99,0.132
				c2.446,0.244,4.848,0.957,7.075,2.068c4.453,2.223,8.222,6.021,10.465,10.496c1.119,2.233,1.856,4.636,2.071,7.023l0.466,8.353
				l0.877,16.925l0.374,8.495l0.175,4.256c0.05,1.406,0.056,2.791,0.063,4.215C149.121,70.091,149.151,72.941,149.06,75.789z"/>
		</g>
	</g>
</g>
</svg>
