<?xml version="1.0" encoding="utf-8"?>
<!-- Generator: Adobe Illustrator 16.0.3, SVG Export Plug-In . SVG Version: 6.00 Build 0)  -->
<!DOCTYPE svg PUBLIC "-//W3C//DTD SVG 1.1//EN" "http://www.w3.org/Graphics/SVG/1.1/DTD/svg11.dtd">
<svg version="1.1" id="Layer_1" xmlns="http://www.w3.org/2000/svg" xmlns:xlink="http://www.w3.org/1999/xlink" x="0px" y="0px"
	 width="155.301px" height="153.261px" viewBox="0 0 155.301 153.261" enable-background="new 0 0 155.301 153.261"
	 xml:space="preserve">
<g>
	<g>
		<path fill="#FFFFFF" d="M152.529,93.598c-0.167-2.739-0.295-5.46-0.426-8.218c-0.075-2.744-0.153-5.491-0.069-8.234l0.087-4.115
			l0.193-4.115c0.284-5.488,0.561-10.98,0.393-16.478c-0.214-5.499-0.84-10.987-0.895-16.489c-0.025-2.762-0.067-5.489-0.21-8.297
			c-0.094-1.455-0.333-2.896-0.696-4.303c-0.347-1.411-0.807-2.795-1.38-4.133c-2.298-5.338-6.285-10.027-11.502-13.028
			c-2.598-1.509-5.533-2.478-8.543-2.92c-1.558-0.212-2.899-0.277-4.294-0.381c-1.386-0.096-2.766-0.174-4.146-0.215
			c-5.516-0.216-11.012-0.258-16.535-0.156c-1.385,0.025-2.759,0.052-4.179,0.11l-4.111,0.188c-2.723,0.111-5.445,0.19-8.171,0.24
			c-5.453,0.103-10.903,0.074-16.389-0.009c-2.729-0.05-5.558-0.052-8.282,0.006c-2.746,0.038-5.492,0.13-8.245,0.01
			c-1.375-0.05-2.753-0.063-4.13-0.017c-1.377,0.06-2.753,0.16-4.13,0.247c-2.752,0.158-5.498,0.495-8.241,0.741
			c-1.372,0.123-2.74,0.291-4.111,0.391l-4.112,0.303c-0.666,0.057-1.408,0.096-2.133,0.179C27.548,4.99,26.83,5.112,26.12,5.269
			c-1.419,0.314-2.801,0.764-4.13,1.326c-5.314,2.261-9.834,6.238-12.776,11.221c-1.453,2.499-2.518,5.246-3.077,8.113
			c-0.284,1.422-0.398,2.931-0.435,4.312l-0.129,4.13L5.22,50.838c-0.145,5.483-0.532,10.961-0.864,16.426
			C4.245,69.996,4.1,72.729,4.031,75.45c-0.083,2.834-0.005,5.623,0.162,8.373c0.665,11.014,1.716,21.939,2.519,32.888
			c0.136,2.749,0.322,5.459,0.375,8.232c0.114,2.86,0.572,5.748,1.513,8.522c0.937,2.771,2.379,5.417,4.309,7.688
			c1.922,2.276,4.316,4.169,6.982,5.514c2.663,1.353,5.569,2.191,8.521,2.524c1.54,0.157,2.799,0.199,4.193,0.312
			c1.368,0.096,2.739,0.202,4.113,0.254c5.494,0.25,10.995,0.477,16.499,0.525l8.254,0.065c2.751,0.026,5.501,0.197,8.251,0.261
			c5.503,0.192,11.015,0.2,16.518,0.182c5.487-0.085,10.966-0.635,16.455-0.743c2.743-0.062,5.495,0.12,8.245,0.154
			c2.744-0.103,5.486-0.285,8.231-0.437l8.237-0.45c3.022-0.141,6.035-0.866,8.758-2.103c5.464-2.477,10.016-6.646,13.036-11.834
			c1.495-2.601,2.595-5.497,3.022-8.582l0.074-0.61l0.05-0.521l0.074-1.106l0.106-2.095l0.149-4.145
			c0.104-5.508,0.152-10.998,0.151-16.489C152.816,99.085,152.699,96.34,152.529,93.598z"/>
	</g>
	<g>
		<path fill="#E3CFB6" d="M145.875,43.646c-3.887-4.466-11.305-5.938-16.828-6.827c-7.654-1.231-15.422-1.268-23.149-1.594
			c-8.567-0.362-17.119-1.407-25.662-2.128c-8.584-0.725-17.207-0.934-25.777-1.753c-13.91-1.33-30.071-3.655-42.714,3.844
			c-2.138,1.268-3.044,3.157-3.081,5.064c-0.284,0.313-0.509,0.695-0.627,1.168C4.521,55.458,4.682,69.874,5.648,84.223
			c0.744,11.069,1.293,22.293,5.369,32.739c3.578,9.172,9.779,16.82,18.461,21.578c11.504,6.308,25.827,5.905,38.544,6.299
			c14.783,0.457,29.413-0.493,44.159-1.221c11.258-0.555,24.101-1.136,31.221-11.265c6.354-9.038,5.997-20.985,7.285-31.524
			c1.087-8.894,1.957-17.813,2.132-26.775C153.016,63.998,152.844,51.652,145.875,43.646z"/>
		<path fill="#894F20" d="M149.504,44.254c0.729-7.714-0.68-15.832-3.703-22.766c-4.561-10.461-15.317-14.643-25.782-16.545
			c-27.481-4.996-63.677-1.845-90.13,6.677c-11.831,3.812-19.36,9.052-26.248,20.233c-4.134,6.712-5.915,20.239,1.053,21.981
			c14.197,3.55,36.423,1.664,51.049,2.046c16.078,0.421,32.009-1.536,48.044-1.342c14.084,0.172,28.125,1.905,42.198,0.486
			C151.9,54.43,153.09,46.832,149.504,44.254z"/>
		<path fill="#E52829" d="M32.614,46.143c-0.172-5.112-0.827-10.234-0.713-15.345c0.19-8.53-0.385-17.232-0.685-25.757
			c-0.088-2.497-3.688-3.533-5.088-1.287c-4.545,7.295-2.935,17.264-3.105,25.369c-0.107,5.112-0.59,10.212-0.713,15.324
			c-0.108,4.528-0.51,10.475,3.185,13.842c1.491,1.359,4.578,1.319,5.533-0.666C32.801,53.94,32.747,50.102,32.614,46.143z"/>
		<path fill="#FEE007" d="M40.764,32.07c-0.374-4.803,0.938-9.582,0.447-14.375c-0.453-4.43-0.343-9.31-2.222-13.442
			c-0.667-1.466-6.307-1.371-7.008,0c-1.875,3.669-0.637,7.868-0.692,11.86c-0.065,4.771,0.247,9.603,0.545,14.364
			c0.293,4.671-0.335,9.325-0.234,14.005c0.091,4.25-0.277,9.15,1.726,13.044c0.957,1.861,4.327,2.342,5.748,0.692
			c2.691-3.123,2.348-6.897,2.41-10.776C41.566,42.315,41.162,37.18,40.764,32.07z"/>
		<path fill="#29ABE3" d="M57.58,44.148c-0.172-4.702,0.134-9.411,0.414-14.103c0.514-8.616,1.094-17.8-1.107-26.638
			c-0.856-3.439-8.136-2.403-8.26,0.695c-0.354,8.874,0.806,18.662,0.085,27.556c-0.376,4.646-0.698,9.302-0.531,13.965
			c0.132,3.704,0.296,8.607,2.626,11.63c2.56,3.321,7.634,2.344,7.941-2.15C58.992,51.535,57.712,47.78,57.58,44.148z"/>
		<path fill="#53B265" d="M48.592,4.479c-0.454-2.521-7.6-2.311-8.213,0c-2.433,9.166,0.078,19.56-0.371,28.968
			c-0.37,7.729-1.748,16.617,1.628,23.987c1.519,3.313,7.518,1.639,7.229-1.829c-0.662-7.93-0.198-15.542,0.001-23.485
			C49.093,23.034,50.206,13.442,48.592,4.479z"/>
		<path fill="#C7B29A" d="M112.355,15.602c-0.044,0.035-0.081,0.074-0.124,0.11c-1.964,1.15-3.585,3.048-4.439,5.212
			c-1.709,4.317-1.045,9.641,0.613,13.866c1.828,4.654,5.209,9.266,10.401,10.321c5.883,1.197,12.585-2.641,15.03-8.049
			C139.795,23.89,126.325,4.357,112.355,15.602z"/>
		<path fill="#1672B9" d="M87.788,41.01c-1.52-1.509-3.67-2.479-6.469-2.443C68.23,38.73,56.794,48.167,50.4,59.028
			c-6.384,10.842-5.112,25.207,1.941,35.374c14.906,21.485,48.083,18.445,60.302-4.23C123.702,69.648,109.37,45.226,87.788,41.01z"
			/>
		<path fill="#29ABE3" d="M103.106,86.503c1.294-0.814,2.316-2.153,2.742-4.104c2.001-9.133-2.719-18.612-9.24-24.813
			c-6.513-6.19-16.711-7.624-24.921-4.359c-17.351,6.901-20.59,30.472-6.789,42.629C77.388,106.862,96.69,100.833,103.106,86.503z"
			/>
		<g>
			<path fill="#010202" d="M154.991,94.162c-0.172-2.83-0.305-5.641-0.439-8.49c-0.078-2.836-0.158-5.674-0.072-8.508l0.09-4.252
				l0.2-4.252c0.294-5.67,0.579-11.345,0.405-17.025c-0.221-5.682-0.867-11.352-0.924-17.037c-0.026-2.854-0.07-5.671-0.217-8.572
				c-0.098-1.503-0.345-2.993-0.72-4.446c-0.358-1.458-0.833-2.888-1.426-4.27c-2.374-5.515-6.494-10.36-11.884-13.461
				c-2.685-1.559-5.717-2.56-8.827-3.017c-1.609-0.219-2.995-0.286-4.437-0.394c-1.432-0.099-2.857-0.18-4.283-0.222
				c-5.699-0.224-11.377-0.267-17.084-0.161c-1.431,0.026-2.851,0.054-4.318,0.114l-4.247,0.194
				c-2.813,0.115-5.627,0.196-8.442,0.248C82.731,0.716,77.1,0.686,71.432,0.601c-2.819-0.052-5.742-0.054-8.557,0.006
				c-2.837,0.039-5.675,0.134-8.519,0.01c-1.421-0.052-2.845-0.064-4.267-0.017c-1.423,0.062-2.845,0.165-4.267,0.255
				c-2.844,0.163-5.681,0.511-8.515,0.766c-1.417,0.127-2.831,0.301-4.248,0.404l-4.248,0.313c-0.688,0.059-1.455,0.099-2.204,0.185
				c-0.749,0.087-1.491,0.213-2.224,0.375c-1.466,0.324-2.894,0.789-4.268,1.37c-5.49,2.336-10.161,6.445-13.2,11.594
				c-1.501,2.582-2.602,5.419-3.179,8.382c-0.293,1.469-0.412,3.028-0.449,4.455l-0.133,4.268L2.788,49.981
				c-0.15,5.665-0.549,11.325-0.893,16.972c-0.114,2.823-0.264,5.646-0.335,8.458c-0.085,2.928-0.005,5.809,0.167,8.651
				C2.414,95.441,3.5,106.73,4.33,118.042c0.14,2.84,0.332,5.64,0.388,8.506c0.118,2.955,0.591,5.938,1.563,8.805
				c0.968,2.863,2.458,5.598,4.452,7.943c1.986,2.352,4.46,4.308,7.214,5.697c2.751,1.397,5.754,2.264,8.804,2.607
				c1.591,0.163,2.892,0.206,4.332,0.322c1.413,0.099,2.83,0.209,4.25,0.263c5.677,0.258,11.36,0.492,17.047,0.542l8.528,0.068
				c2.843,0.027,5.684,0.203,8.526,0.27c5.686,0.198,11.381,0.206,17.066,0.188c5.67-0.088,11.33-0.656,17.002-0.768
				c2.834-0.064,5.678,0.124,8.519,0.159c2.836-0.106,5.669-0.295,8.505-0.451l8.512-0.465c3.123-0.146,6.235-0.896,9.049-2.173
				c5.645-2.559,10.348-6.866,13.469-12.227c1.545-2.688,2.681-5.68,3.123-8.867l0.076-0.631l0.052-0.539l0.077-1.144l0.109-2.164
				l0.154-4.282c0.107-5.69,0.158-11.363,0.156-17.037C155.288,99.832,155.167,96.996,154.991,94.162z M149.685,60.112l0.035,8.484
				l0.136,16.991l0.068,8.533c0.052,2.838,0.021,5.67,0.015,8.504c-0.084,5.662-0.212,11.326-0.396,16.963l-0.203,4.209
				l-0.129,2.072l-0.078,0.957l-0.055,0.514l-0.059,0.396c-0.363,2.329-1.256,4.633-2.509,6.75c-1.255,2.12-2.88,4.055-4.734,5.702
				c-1.836,1.668-3.905,3.078-6.118,4.075c-2.22,1.013-4.521,1.566-6.883,1.693c-2.816,0.154-5.628,0.488-8.445,0.818
				c-2.816,0.354-5.638,0.697-8.463,0.922l-8.492,0.184c-5.66,0.223-11.312,0.884-16.979,0.933
				c-5.654,0.058-11.304-0.108-16.95-0.408c-5.645-0.274-11.283-0.642-16.912-1.1c-5.629-0.505-11.242-1.048-16.875-1.341
				c-1.407-0.109-2.818-0.145-4.235-0.196l-2.139-0.076c-0.753-0.022-1.384-0.038-1.937-0.084c-2.377-0.215-4.741-0.694-6.928-1.644
				c-2.181-0.946-4.198-2.279-5.892-4c-1.712-1.705-3.035-3.823-3.982-6.147c-0.478-1.162-0.853-2.381-1.146-3.632
				c-0.256-1.258-0.443-2.546-0.494-3.854l-0.308-8.479C7.914,106.535,7.027,95.227,6.514,83.94
				c-0.102-2.823-0.214-5.627-0.16-8.401l0.16-8.527c0.047-5.68,0.232-11.354,0.326-17.026c0.168-5.67,0.324-11.342,0.544-16.989
				L7.6,28.778c0.068-1.4,0.197-2.557,0.471-3.786c0.533-2.417,1.507-4.722,2.82-6.82c1.322-2.094,2.995-3.975,4.908-5.547
				c1.881-1.604,3.993-2.942,6.238-3.865c1.12-0.463,2.27-0.825,3.426-1.071c0.577-0.123,1.156-0.216,1.733-0.278
				c0.576-0.059,1.112-0.084,1.874-0.143c2.817-0.138,5.623-0.516,8.428-0.896c2.807-0.34,5.609-0.854,8.426-1.1
				c1.407-0.139,2.815-0.291,4.226-0.402c1.411-0.09,2.823-0.147,4.237-0.137c2.827,0.029,5.657,0.129,8.489,0.251
				c2.854,0.117,5.598,0.203,8.443,0.362c5.662,0.293,11.371,0.522,17.08,0.619c2.855,0.058,5.714,0.071,8.568-0.017l4.25-0.119
				c1.357-0.027,2.771-0.026,4.173-0.021c5.625,0.054,11.286,0.054,16.913,0.201l4.208,0.13c1.383,0.062,2.841,0.105,4.003,0.241
				c2.439,0.288,4.822,1.033,7.018,2.185c4.396,2.29,8.027,6.191,10.141,10.734c1.06,2.266,1.744,4.691,1.938,7.103
				c0.183,2.667,0.285,5.537,0.359,8.322c0.12,5.618-0.175,11.267-0.269,16.912C149.631,54.46,149.67,57.285,149.685,60.112z"/>
			<path fill="#010202" d="M138.016,28.113c0.029-1.101,0.17-2.097,0.1-3.376c-0.072-1.22-0.275-2.445-0.658-3.639
				c-0.744-2.399-2.291-4.615-4.432-6.238c-1.07-0.807-2.318-1.411-3.63-1.679c-0.665-0.132-1.274-0.217-2.01-0.247l-0.874,0.015
				l-0.811,0.027c-2.164,0.064-4.328,0.154-6.49,0.008c-1.082-0.05-2.162-0.178-3.244-0.252l-0.404-0.032l-0.498-0.023
				c-0.329-0.007-0.664,0.023-0.998,0.045c-0.667,0.063-1.348,0.165-2,0.382c-1.318,0.407-2.509,1.208-3.495,2.126
				c-0.981,0.934-1.813,1.962-2.504,3.053c-1.366,2.189-2.216,4.636-2.258,7.165c-0.007,2.244-0.026,4.349,0.054,6.53l0.045,1.623
				c0.018,0.538,0.021,1.056,0.066,1.736c0.105,1.279,0.395,2.541,0.854,3.734c0.914,2.401,2.601,4.429,4.642,5.924
				c1.009,0.767,2.112,1.444,3.315,1.929c1.184,0.491,2.531,0.77,3.789,0.864l3.305,0.213l1.623,0.104
				c0.541,0.048,1.08-0.045,1.621-0.073l1.623-0.127l0.815-0.063c0.329-0.026,0.655-0.046,0.981-0.094
				c1.308-0.154,2.563-0.561,3.762-1.048c1.201-0.491,2.309-1.181,3.316-1.981c1.008-0.801,1.91-1.759,2.512-2.9
				c0.309-0.562,0.592-1.132,0.836-1.716c0.226-0.593,0.433-1.187,0.632-1.784c0.185-0.603,0.253-1.219,0.356-1.839
				c0.096-0.591,0.094-1.355,0.094-1.832v-0.045C138.051,32.44,137.899,30.276,138.016,28.113z M134.885,28.113l0.166,6.49v-0.045
				c0,0.605-0.238,0.922-0.297,1.403c-0.06,0.45-0.281,0.89-0.414,1.322c-0.256,0.871-0.821,1.648-1.396,2.325
				c-0.61,0.653-1.252,1.277-1.959,1.783c-0.705,0.512-1.491,0.889-2.272,1.241c-0.789,0.337-1.618,0.608-2.491,0.79
				c-0.218,0.052-0.442,0.08-0.665,0.117l-0.809,0.095l-1.625,0.19c-0.541,0.048-1.08,0.167-1.621,0.129l-1.625-0.063l-3.201-0.116
				c-0.954-0.034-1.805-0.248-2.684-0.511c-0.857-0.281-1.728-0.604-2.492-1.125c-1.523-1.046-2.635-2.631-3.242-4.341
				c-0.299-0.861-0.467-1.763-0.5-2.671c-0.012-0.419,0.004-0.98,0.013-1.523l0.026-1.623c0.021-2.146,0.119-4.364,0.229-6.453
				c0.168-1.795,0.2-3.738,1.084-5.356c0.413-0.811,1.022-1.502,1.739-2.013c0.727-0.505,1.531-0.838,2.367-1.1
				c0.425-0.106,0.849-0.247,1.298-0.321c0.226-0.035,0.448-0.075,0.681-0.093l0.346-0.046l0.404-0.032
				c1.082-0.079,2.165-0.188,3.247-0.228c2.163-0.119,4.326-0.011,6.489,0.082l0.811,0.035c0.213,0.009,0.538,0.032,0.771,0.055
				c0.419,0.048,0.904,0.141,1.341,0.26c0.883,0.24,1.743,0.539,2.501,1.039c1.566,0.94,2.59,2.617,3.145,4.39
				c0.267,0.9,0.521,1.842,0.558,2.794C134.821,25.888,134.893,27.049,134.885,28.113z"/>
			<path fill="#010202" d="M104.747,50.157c-3.195-3.553-7.049-6.712-11.539-8.728c-2.233-1.021-4.615-1.703-7.028-2.141
				c-2.425-0.366-4.892-0.466-7.308-0.31c-2.423,0.101-4.823,0.44-7.189,0.903c-2.356,0.516-4.688,1.164-6.938,2.05
				c-1.115,0.466-2.244,0.902-3.383,1.352c-1.135,0.459-2.164,1.125-3.175,1.803c-2.018,1.365-3.907,2.921-5.614,4.656
				c-1.704,1.738-3.236,3.642-4.568,5.674c-1.354,2.017-2.538,4.154-3.486,6.398c-1.909,4.48-2.875,9.373-2.833,14.235
				c0.078,4.869,1.229,9.693,3.236,14.07c2.003,4.383,4.778,8.36,8.136,11.766c3.393,3.363,7.387,6.15,11.808,8.039
				c4.42,1.882,9.228,2.859,14.037,2.894c4.81,0.039,9.646-0.871,14.122-2.692c2.244-0.901,4.375-2.061,6.426-3.345
				c2.07-1.264,3.877-2.932,5.403-4.801c0.771-0.927,1.474-1.903,2.173-2.869c0.659-0.998,1.377-1.938,2.085-2.896
				c1.363-1.951,2.752-4.055,3.696-6.246c1.869-4.375,2.246-9.174,3.246-13.921v-0.025c-1-4.799-1.407-9.556-3.305-13.926
				C110.838,57.729,107.979,53.696,104.747,50.157z M108.875,88.443c-1.551,3.947-3.853,7.658-6.912,10.653
				c-6.024,6.081-14.502,9.606-23.065,9.562c-4.281,0.012-8.531-0.867-12.494-2.453c-4.003-1.496-7.744-3.799-10.892-6.777
				c-3.17-2.959-5.706-6.608-7.453-10.608c-1.774-3.999-2.609-8.392-2.65-12.77c0.027-4.38,0.901-8.768,2.691-12.748
				c1.757-3.993,4.34-7.591,7.499-10.529c1.576-1.472,3.294-2.781,5.114-3.909c1.83-1.115,3.729-2.08,5.653-3.014
				c1.933-0.92,3.964-1.666,6.066-2.171c2.109-0.477,4.286-0.605,6.439-0.532c2.162,0.136,4.279,0.479,6.344,1.024
				c2.07,0.488,4.078,1.178,6.043,1.965c3.894,1.646,7.563,3.91,10.627,6.887c6.205,5.894,9.638,14.455,9.626,22.983
				C111.401,80.339,110.387,84.476,108.875,88.443z"/>
		</g>
		<path fill="#FFFFFF" d="M101.792,72.975c-1.334-9.666-7.922-19.072-21.588-18.216c-3.075,0.192-2.614,2.546-1.322,3.168
			c7.818,3.763,12.093,8.338,12.703,16.965c0.875,12.322-9.73,16.55-10.205,18.223c-0.608,2.146,5.637,5.672,14.466-2.775
			C99.875,86.48,102.542,78.427,101.792,72.975z"/>
	</g>
</g>
</svg>
