<?xml version="1.0" encoding="utf-8"?>
<!-- Generator: Adobe Illustrator 16.0.3, SVG Export Plug-In . SVG Version: 6.00 Build 0)  -->
<!DOCTYPE svg PUBLIC "-//W3C//DTD SVG 1.1//EN" "http://www.w3.org/Graphics/SVG/1.1/DTD/svg11.dtd">
<svg version="1.1" id="snapchat" xmlns="http://www.w3.org/2000/svg" xmlns:xlink="http://www.w3.org/1999/xlink" x="0px" y="0px"
	 width="155.677px" height="154.259px" viewBox="0 0 155.677 154.259" enable-background="new 0 0 155.677 154.259"
	 xml:space="preserve">
<path id="white_1_" fill="#FFFFFF" d="M153.327,34.115l-0.155-4.156l-0.058-2.07c-0.015-0.722-0.068-1.602-0.168-2.386
	c-0.384-3.227-1.473-6.293-2.979-9.067c-3.019-5.563-7.789-10.021-13.604-12.68c-1.457-0.659-2.986-1.195-4.576-1.572
	c-1.583-0.387-3.281-0.576-4.777-0.617c-2.885-0.081-5.67-0.077-8.48-0.077c-5.605,0.052-11.191-0.077-16.781,0.439
	c-2.793,0.233-5.586,0.292-8.372,0.332c-2.773,0.042-5.559,0.075-8.354,0.055C79.438,2.23,73.853,2.217,68.267,1.954
	C62.681,1.71,57.091,1.469,51.492,1.456L43.088,1.38c-2.806-0.042-5.614,0.09-8.438,0.018L30.4,1.545H28.26
	c-0.323,0-0.763-0.209-1.164-0.189c-0.407,0.024-0.813-0.053-1.217-0.009c-3.242,0.347-6.309,1.401-9.115,2.887
	c-5.59,2.991-10.32,7.689-12.973,13.62c-1.308,2.954-2.07,6.171-2.221,9.386c-0.131,2.888-0.172,5.679-0.208,8.495
	c-0.106,2.81,0.299,5.616,0.585,8.423c0.135,1.403,0.139,2.801,0.165,4.204l0.093,4.213l0.048,2.124l0.074,2.126
	c0.051,1.376,0.091,2.753,0.107,4.131c0.038,2.757,0.019,5.514-0.057,8.271c-0.17,5.524-0.459,11.021-0.73,16.651l-0.072,2.139
	l-0.015,1.103l0.012,1.08l0.127,4.219l0.313,8.435c0.347,5.61-0.349,11.271-0.007,16.816l0.197,4.161
	c0.025,0.693,0.072,1.387,0.116,2.079c0.048,0.697,0.073,1.34,0.151,2.203c0.311,3.246,1.336,6.313,2.769,9.1
	c2.906,5.548,7.461,10.14,13.086,12.943c2.809,1.392,5.889,2.3,9.039,2.604c1.718,0.161,3.007,0.118,4.442,0.147l4.209,0.02
	l16.755-0.039c1.394-0.021,2.787,0.041,4.181,0.027c1.394,0.014,2.786-0.08,4.18-0.113l8.354-0.243l4.173-0.081l4.234,0.004
	c2.862-0.054,5.635-0.161,8.44-0.181c11.186-0.123,22.359-0.112,33.521-0.357c1.396-0.026,2.791-0.044,4.184-0.103l2.1-0.074
	c0.763-0.028,1.529-0.084,2.294-0.16c3.058-0.324,6.146-1.032,9.074-2.297c2.931-1.247,5.662-3.121,7.846-5.509
	c2.162-2.402,3.813-5.23,4.797-8.229c1.013-2.975,1.406-6.152,1.388-9.133c-0.009-1.42-0.026-2.816,0.006-4.216l0.187-4.187
	l0.643-16.725c0.428-11.146,1.005-22.277,1.697-33.396C154.738,56.551,154,45.223,153.327,34.115z"/>
<path fill="#ECE000" d="M151.771,86.41c-0.192-7.789-0.386-40.574-1-48.344c-1.403-17.764-46.133-34.324-61.936-35.385
	C75.124,1.76,44.054-2.068,31.172,3.924C10.47,13.555,8.901,34.088,3.5,55.363C0.102,68.754,2.833,85.092,3.534,98.643
	c0.677,13.08,1.876,22.777,10.465,33.281c8.046,9.84,19.97,11.867,32.11,12.826c13.848,1.094,66.118,4.436,77.985-0.135
	c13.135-5.059,23.203-15.195,26.288-28.697C152.604,106.195,152.014,96.277,151.771,86.41z"/>
<path d="M154.654,33.358l-0.157-4.229l-0.059-2.107c-0.016-0.734-0.07-1.63-0.171-2.428c-0.391-3.283-1.499-6.403-3.032-9.227
	c-3.071-5.661-7.926-10.196-13.843-12.902c-1.482-0.671-3.039-1.217-4.656-1.601c-1.611-0.394-3.339-0.586-4.861-0.628
	c-2.936-0.082-5.771-0.078-8.63-0.078c-5.704,0.053-11.389-0.079-17.076,0.447c-2.843,0.237-5.685,0.297-8.52,0.338
	C90.827,0.986,87.993,1.021,85.147,1c-5.681-0.087-11.365-0.101-17.049-0.368c-5.685-0.248-11.373-0.494-17.069-0.507l-8.553-0.077
	c-2.854-0.043-5.713,0.091-8.586,0.018l-4.324,0.15h-2.179c-0.329,0-0.776-0.213-1.185-0.193c-0.414,0.025-0.827-0.053-1.238-0.009
	c-3.299,0.354-6.419,1.427-9.275,2.938c-5.688,3.044-10.502,7.825-13.2,13.86c-1.331,3.006-2.107,6.279-2.26,9.551
	c-0.134,2.938-0.176,5.778-0.212,8.644c-0.108,2.859,0.304,5.716,0.595,8.571c0.138,1.428,0.142,2.851,0.168,4.278l0.095,4.287
	l0.049,2.161l0.075,2.163c0.052,1.4,0.093,2.802,0.109,4.204c0.039,2.805,0.019,5.61-0.058,8.417
	c-0.173,5.621-0.467,11.214-0.743,16.944l-0.073,2.176L0.219,89.33l0.012,1.099l0.13,4.293l0.317,8.583
	c0.354,5.709-0.354,11.469-0.007,17.112l0.201,4.234c0.025,0.706,0.073,1.411,0.118,2.115c0.049,0.71,0.074,1.364,0.154,2.242
	c0.315,3.304,1.359,6.424,2.816,9.26c2.958,5.646,7.593,10.318,13.316,13.171c2.858,1.416,5.992,2.34,9.198,2.649
	c1.748,0.164,3.06,0.12,4.521,0.15l4.283,0.02l17.049-0.04c1.419-0.021,2.837,0.042,4.255,0.028
	c1.418,0.014,2.835-0.082,4.253-0.115l8.501-0.248l4.247-0.082l4.309,0.004c2.913-0.055,5.733-0.164,8.589-0.184
	c11.382-0.125,22.753-0.114,34.11-0.364c1.42-0.026,2.84-0.044,4.257-0.104l2.137-0.075c0.776-0.028,1.556-0.085,2.334-0.163
	c3.111-0.33,6.254-1.05,9.234-2.337c2.981-1.27,5.762-3.176,7.983-5.605c2.2-2.445,3.879-5.323,4.881-8.375
	c1.03-3.026,1.432-6.26,1.412-9.293c-0.009-1.445-0.026-2.866,0.006-4.29l0.19-4.26l0.653-17.019
	c0.436-11.342,1.022-22.67,1.728-33.983C156.091,56.188,155.339,44.661,154.654,33.358z M149.575,67.452
	c-0.508,5.672-0.796,11.361-1.054,17.044c-0.299,5.683-0.429,11.37-0.555,17.056L147.62,118.6c-0.063,2.833-0.089,5.687-0.211,8.479
	c-0.075,2.61-0.553,5.036-1.464,7.364c-1.793,4.64-5.394,8.396-9.959,10.399c-2.273,1.021-4.763,1.636-7.325,1.91
	c-0.642,0.066-1.287,0.118-1.937,0.144l-2.121,0.085l-4.259,0.172c-11.351,0.457-22.702,0.943-34.029,1.319
	c-2.82,0.087-5.681,0.183-8.424,0.196l-8.474-0.168c-5.699-0.083-11.391-0.123-17.076-0.119l-17.031,0.072l-4.238-0.011
	c-1.381-0.02-2.905,0-4.016-0.114c-2.485-0.232-4.931-0.939-7.202-2.055c-4.543-2.233-8.38-6.063-10.755-10.592
	c-1.175-2.267-1.987-4.721-2.229-7.197c-0.058-0.579-0.094-1.33-0.143-2.037l-0.127-2.135l-0.233-4.27
	c-0.365-5.688,0.164-11.412-0.327-17c-0.208-2.801-0.343-5.6-0.579-8.405l-0.279-4.215l-0.026-0.509l-0.015-0.517l-0.015-1
	l0.018-2.081c0.178-5.622,0.443-11.379,0.585-17.102c0.06-2.866,0.063-5.736,0.006-8.605l-0.101-4.303l-0.061-2.101l-0.021-2.103
	c-0.005-5.642,0.049-11.319,0.227-16.971c0.123-2.822,0.256-5.656,0.469-8.425c0.202-2.557,0.875-5.036,1.976-7.33
	c2.19-4.591,6.048-8.381,10.576-10.685c2.266-1.146,4.689-1.932,7.124-2.313c0.632-0.093,1.17-0.144,1.879-0.187l2.088-0.12
	l4.203-0.239c2.81-0.156,5.632-0.294,8.458-0.324l8.487,0.057c2.831,0.004,5.663,0.119,8.497,0.064l8.505-0.076
	C73.715,5.455,79.39,5.444,85.068,5.45c2.835-0.012,5.684-0.031,8.542-0.083c2.846-0.039,5.685-0.122,8.525-0.383
	c5.683-0.59,11.358-0.207,17.027-0.129c2.83,0.116,5.673,0.235,8.462,0.431c1.371,0.085,2.64,0.268,3.899,0.613
	c1.258,0.339,2.486,0.81,3.667,1.387c2.362,1.156,4.531,2.729,6.414,4.578c1.872,1.856,3.545,3.926,4.796,6.221
	c1.257,2.285,2.127,4.763,2.46,7.279c0.086,0.643,0.129,1.228,0.154,1.92l0.093,2.144l0.225,4.274
	c0.334,5.682,1.224,11.293,1.211,16.94C150.635,56.284,150.09,61.905,149.575,67.452z"/>
<g id="path12604">
	<path fill="#FFFFFF" d="M79.619,27.788c-6.264,0.583-12.742,2.945-17.819,7.432c-3.804,3.356-6.793,7.542-8.678,12.023
		c-0.002,0.01-0.005,0.021-0.009,0.032c-1.794,4.604-1.628,9.313-1.385,13.702c0,0.001,0,0.005,0,0.009
		c0.148,3.081,0.496,6.065,0.203,8.914c-0.024,0.112-0.025,0.14-0.041,0.207c-1.411,0.277-2.947,0.217-4.472-0.032
		c-0.009-0.001-0.016,0-0.024,0.001c-1.043-0.152-2.157-0.54-3.417-0.847c-0.022-0.005-0.044-0.009-0.064-0.013
		c-1.224-0.238-2.424,0.134-3.344,0.803c-0.013,0.008-0.03,0.016-0.042,0.023c-0.019,0.014-0.038,0.026-0.056,0.04
		c-0.75,0.486-1.777,1.294-1.831,2.653c-0.002,0.089,0.007,0.178,0.025,0.266c0.162,0.797,0.686,1.376,1.148,1.754
		c0.465,0.38,0.904,0.63,1.176,0.825c0.02,0.016,0.041,0.031,0.064,0.045c2.281,1.44,4.802,2.085,6.996,2.911
		c0.002,0.001,0.007-0.001,0.008,0c1.52,0.651,2.839,1.674,3.144,2.957c0.379,1.624-0.323,3.479-1.239,5.259
		c-0.002,0.002,0.002,0.006,0,0.006c-2.471,4.72-6.141,8.682-10.65,11.368c-2.363,1.4-5.028,2.354-7.812,2.846
		c-0.038,0.008-0.076,0.017-0.113,0.029c-0.57,0.153-1.925,0.187-2.775,1.3c-0.061,0.077-0.109,0.164-0.146,0.254
		c-0.287,0.735,0.042,1.577,0.445,2.06c0.387,0.46,0.817,0.747,1.188,0.963c0.021,0.012,0.039,0.022,0.057,0.033
		c2.343,1.448,4.9,2.23,7.237,3.004c0.011,0.003,0.022,0.007,0.033,0.01c1.684,0.513,3.235,0.845,4.501,1.476
		c0.063,0.105,0.19,0.522,0.487,1.229c0.415,1.269,0.603,2.742,1.084,4.32c0.132,0.438,0.519,0.82,0.974,0.961
		c1.063,0.328,1.648,0.04,1.739,0.041c0.044,0.002,0.089,0,0.13-0.001c3.914-0.253,7.82-0.489,11.407,0.73
		c0.002,0.001,0.005-0.001,0.007,0c3.764,1.319,7.035,4.227,10.721,6.849c0.007,0.005,0.009,0.014,0.016,0.018
		c0-0.002,0-0.005,0-0.008c2.446,1.795,5.272,3.617,8.541,4.026c0,0.003,0,0.007,0,0.01c0.01,0.001,0.023,0.001,0.033,0.003
		c2.466,0.363,4.891,0.409,7.254,0.43c0.013,0.001,0.024,0.003,0.039,0.004c2.025-0.047,3.989-0.601,5.706-1.639
		c0.023-0.012,0.048-0.022,0.073-0.036c3.875-2.059,7.318-4.692,11.093-6.291c0.006-0.002,0.011-0.006,0.016-0.009
		c1.226-0.411,2.754-0.313,4.456-0.361c0.017-0.001,0.033,0.001,0.049,0.002c3.125,0.03,6.255,0.331,9.356,0.885
		c0.107,0.02,0.215,0.022,0.323,0.011c0.407-0.037,0.853-0.318,1.068-0.611c0.218-0.294,0.28-0.534,0.324-0.707
		c0.091-0.346,0.174-0.506,0.024-0.226c0.049-0.088,0.087-0.182,0.113-0.276c0.569-2.023,0.881-3.862,1.799-4.988
		c0.412-0.427,1.121-0.629,1.927-0.593c0.061,0.003,0.119,0,0.178-0.005c2.695-0.283,5.131-1.294,7.439-2.16
		c0.028-0.012,0.055-0.021,0.081-0.035c0.857-0.394,2.137-0.842,3.011-2.173c0.007-0.006,0.013-0.009,0.015-0.017
		c-0.002-0.003-0.004-0.006-0.007-0.009c0.736-1.114,0.395-2.659-0.646-3.371c0.005-0.006,0.01-0.012,0.016-0.017
		c-0.032-0.025-0.064-0.039-0.097-0.063c-0.009-0.006-0.015-0.013-0.025-0.018c0,0.002,0,0.005,0,0.008
		c-1.25-0.889-2.501-1.025-3.293-1.354c-0.017-0.006-0.032-0.011-0.048-0.017c-5.359-1.943-9.994-6.041-13.458-10.942
		c-1.922-2.733-3.548-5.687-4.626-8.823c-0.003-0.011-0.004-0.022-0.008-0.034c-0.422-1.363-0.442-2.844,0.18-3.74
		c0.007-0.008,0.015-0.019,0.023-0.025c0.968-1.493,2.747-2.454,4.642-3.213c0.007-0.005,0.017-0.005,0.023-0.007
		c2.094-0.788,4.388-1.708,6.276-3.531c0.009-0.009,0.016-0.019,0.024-0.026c0.293-0.301,0.645-0.69,0.907-1.275
		s0.388-1.494,0.04-2.284c0-0.003,0-0.005,0-0.01c-0.544-1.215-1.497-1.835-2.204-2.285c-0.001,0-0.003,0-0.006,0
		c-1.184-0.74-2.56-0.777-3.756-0.349c-0.004,0.001-0.007-0.002-0.009,0c-0.011,0.003-0.017,0.006-0.026,0.01
		c-1.292,0.434-2.348,0.948-3.328,1.092c-0.022,0.004-0.044,0.011-0.064,0.017c-1.395,0.279-2.742,0.354-3.791-0.056
		c-0.01-0.168-0.016-0.497-0.057-0.902c0.003,0,0.005,0,0.008,0c-0.077-2.479,0.117-5.036,0.154-7.685c0-0.007,0-0.01,0-0.017
		c0.105-4.023,0.258-8.172-0.292-12.323c-0.001-0.02-0.005-0.042-0.009-0.062c-1.196-6.997-5.361-12.89-10.645-16.56
		c-3.842-2.665-8.403-3.938-13.031-4.01c-0.002-0.001-0.006,0.001-0.009,0C82.718,27.563,81.165,27.637,79.619,27.788L79.619,27.788
		z"/>
</g>
<path id="path12604_1_" fill="none" stroke="#1D1D1B" stroke-width="5" stroke-linecap="round" stroke-linejoin="round" stroke-miterlimit="10" d="
	M77.422,31.066c-5.91,0.041-12.022,1.609-16.814,5.398c-3.589,2.833-6.41,6.588-8.189,10.782c-0.003,0.01-0.005,0.02-0.008,0.03
	c-1.694,4.321-1.537,8.921-1.308,13.183c0,0.002,0,0.005,0,0.008c0.14,2.995,0.47,5.895,0.191,8.647
	c-0.022,0.107-0.023,0.135-0.038,0.199c-1.332,0.241-2.783,0.153-4.221-0.122c-0.008-0.001-0.016-0.001-0.023,0
	c-0.985-0.17-2.037-0.576-3.227-0.91c-0.021-0.006-0.041-0.011-0.062-0.016c-1.153-0.264-2.288,0.072-3.157,0.719
	c-0.012,0.008-0.027,0.016-0.039,0.023c-0.018,0.013-0.036,0.024-0.053,0.038c-0.708,0.469-1.678,1.256-1.729,2.622
	c-0.002,0.09,0.005,0.18,0.023,0.268c0.152,0.804,0.646,1.392,1.085,1.774c0.438,0.384,0.854,0.637,1.109,0.834
	c0.02,0.016,0.04,0.031,0.061,0.046c2.153,1.451,4.535,2.09,6.606,2.897c0.002,0.001,0.006-0.001,0.008,0
	c1.435,0.636,2.681,1.624,2.967,2.868c0.357,1.572-0.305,3.377-1.17,5.131c-0.001,0.002,0.001,0.005,0,0.007
	c-2.332,4.646-5.797,8.686-10.055,11.646c-2.232,1.541-4.751,2.69-7.379,3.403c-0.036,0.011-0.072,0.023-0.107,0.038
	c-0.539,0.202-1.817,0.336-2.622,1.56c-0.058,0.085-0.104,0.178-0.138,0.275c-0.271,0.787,0.038,1.632,0.42,2.096
	c0.365,0.441,0.772,0.698,1.124,0.887c0.019,0.011,0.036,0.02,0.054,0.03c2.213,1.278,4.629,1.833,6.836,2.401
	c0.01,0.002,0.021,0.005,0.031,0.007c1.59,0.362,3.055,0.556,4.251,1.07c0.059,0.099,0.179,0.504,0.459,1.178
	c0.392,1.224,0.569,2.668,1.024,4.183c0.124,0.42,0.49,0.758,0.918,0.849c1.004,0.214,1.557-0.131,1.644-0.138
	c0.041-0.003,0.082-0.008,0.122-0.015c3.695-0.647,7.382-1.222,10.767-0.367c0.002,0.001,0.005-0.001,0.007,0
	c3.553,0.936,6.639,3.405,10.117,5.528c0.006,0.004,0.009,0.012,0.015,0.015v-0.007c2.309,1.465,4.977,2.899,8.06,3.005v0.008
	c0.01,0,0.021,0,0.03,0c2.328,0.132,4.614-0.016,6.844-0.168c0.013,0,0.025,0,0.038,0c1.91-0.189,3.764-0.825,5.383-1.866
	c0.023-0.013,0.047-0.024,0.069-0.038c3.657-2.096,6.906-4.62,10.468-6.201c0.006-0.002,0.011-0.006,0.016-0.008
	c1.155-0.419,2.598-0.395,4.205-0.504c0.016-0.001,0.031,0,0.046,0c2.949-0.092,5.904,0.066,8.832,0.458
	c0.102,0.013,0.204,0.013,0.306,0c0.385-0.046,0.805-0.304,1.01-0.565c0.204-0.263,0.264-0.476,0.306-0.627
	c0.085-0.304,0.163-0.448,0.022-0.199c0.045-0.077,0.081-0.159,0.107-0.244c0.537-1.782,0.83-3.394,1.697-4.396
	c0.391-0.382,1.061-0.573,1.82-0.559c0.057,0.001,0.112-0.002,0.168-0.008c2.545-0.302,4.846-1.221,7.027-2.003
	c0.025-0.01,0.051-0.02,0.076-0.031c0.811-0.354,2.018-0.758,2.845-1.919c0.005-0.006,0.011-0.009,0.015-0.016l-0.007-0.008
	c0.695-0.972,0.372-2.306-0.612-2.913l0.016-0.015c-0.031-0.021-0.061-0.034-0.092-0.054c-0.008-0.005-0.015-0.011-0.023-0.016
	v0.008c-1.181-0.759-2.363-0.864-3.111-1.14c-0.016-0.006-0.031-0.01-0.046-0.015c-5.063-1.624-9.439-5.12-12.709-9.375
	c-1.814-2.371-3.35-4.948-4.366-7.7c-0.003-0.01-0.004-0.021-0.008-0.03c-0.397-1.195-0.418-2.498,0.169-3.288
	c0.008-0.008,0.015-0.016,0.022-0.022c0.914-1.314,2.593-2.158,4.382-2.822c0.007-0.003,0.016-0.005,0.022-0.007
	c1.978-0.688,4.143-1.49,5.927-3.074c0.008-0.008,0.015-0.016,0.022-0.023c0.276-0.261,0.608-0.601,0.856-1.108
	c0.249-0.508,0.366-1.3,0.038-1.988c0-0.003,0-0.005,0-0.008c-0.515-1.061-1.412-1.606-2.08-2.003c-0.002,0-0.004,0-0.007,0
	c-1.118-0.652-2.418-0.695-3.548-0.329c-0.003,0.001-0.005-0.001-0.008,0c-0.008,0.003-0.016,0.005-0.023,0.008
	c-1.221,0.371-2.217,0.815-3.143,0.933c-0.021,0.005-0.041,0.01-0.061,0.016c-1.315,0.234-2.588,0.291-3.579-0.077
	c-0.009-0.148-0.014-0.438-0.054-0.795h0.008c-0.073-2.182,0.111-4.431,0.146-6.76c0-0.005,0-0.01,0-0.015
	c0.101-3.539,0.243-7.183-0.275-10.851c-0.002-0.018-0.005-0.036-0.008-0.054c-1.129-6.188-5.062-11.517-10.047-15.063
	c-3.625-2.571-7.928-4.007-12.296-4.412c-0.003,0-0.005,0.001-0.008,0C80.345,31.103,78.881,31.05,77.422,31.066L77.422,31.066z"/>
</svg>
