<?xml version="1.0" encoding="utf-8"?>
<!-- Generator: Adobe Illustrator 16.0.3, SVG Export Plug-In . SVG Version: 6.00 Build 0)  -->
<!DOCTYPE svg PUBLIC "-//W3C//DTD SVG 1.1//EN" "http://www.w3.org/Graphics/SVG/1.1/DTD/svg11.dtd">
<svg version="1.1" id="Layer_1" xmlns="http://www.w3.org/2000/svg" xmlns:xlink="http://www.w3.org/1999/xlink" x="0px" y="0px"
	 width="154.883px" height="154.029px" viewBox="0 0 154.883 154.029" enable-background="new 0 0 154.883 154.029"
	 xml:space="preserve">
<g>
	<g>
		<path fill="#FFFFFF" d="M153.291,39.674c-0.068-3.864-0.185-7.734-0.412-11.617c-0.026-0.46-0.055-0.986-0.108-1.526
			c-0.05-0.531-0.123-1.058-0.209-1.582c-0.175-1.046-0.418-2.077-0.717-3.086c-0.606-2.017-1.443-3.952-2.479-5.769
			c-2.069-3.633-4.924-6.818-8.375-9.242c-3.44-2.428-7.517-4.041-11.76-4.523c-1.116-0.125-2.049-0.161-3.032-0.215l-2.909-0.128
			l-5.793-0.187c-3.859-0.101-7.711-0.171-11.569-0.225c-3.856-0.05-7.715-0.074-11.584-0.049c-1.919,0.017-3.904,0.066-5.792,0.116
			c-1.899,0.041-3.815,0.056-5.729,0.125l-23.05,0.531c-7.694,0.157-15.384,0.215-23.107,0.171l-5.81-0.067
			C29.869,2.4,28.938,2.39,27.897,2.408c-1.1,0.026-2.19,0.143-3.268,0.324c-2.157,0.357-4.219,1.076-6.179,1.969
			c-1.958,0.903-3.81,2.027-5.481,3.378c-3.358,2.676-6.166,6.079-8.08,10.006c-0.951,1.962-1.694,4.051-2.115,6.216
			c-0.217,1.088-0.362,2.161-0.437,3.295c-0.071,1.121-0.067,2.049-0.1,3.003c-0.096,3.824-0.232,7.675-0.294,11.559
			c-0.06,3.81-0.061,7.603-0.047,11.388c-0.503,3.709-0.428,7.288-0.191,10.755c0.279,3.541,0.718,7.023,1.018,10.269
			c0.08,0.823,0.131,1.525,0.155,2.375l0.083,2.591l0.268,5.181l0.27,5.179l0.18,5.179c0.08,1.727,0.067,3.453,0.086,5.181
			c0.017,1.727,0.042,3.452,0.005,5.181c-0.026,3.455-0.098,6.914-0.065,10.37l0.099,5.184l0.104,2.591
			c0.041,0.864,0.066,1.703,0.137,2.673c0.273,3.74,1.164,7.535,2.89,11.021c1.713,3.482,4.297,6.597,7.471,8.88
			c3.167,2.297,6.865,3.768,10.648,4.396c0.959,0.158,1.877,0.259,2.88,0.317c0.92,0.05,1.82,0.058,2.691,0.065l5.205-0.001
			l10.339-0.056l10.323-0.011c3.441,0.008,6.88,0.021,10.315,0.137l5.153,0.163l5.146,0.313l10.276,0.689
			c3.881,0.193,7.76,0.303,11.638,0.342c3.878,0.02,7.752-0.046,11.62-0.158c3.867-0.104,7.728-0.237,11.581-0.411l2.887-0.134
			l2.95-0.157c2.181-0.176,4.311-0.666,6.314-1.412c4.021-1.492,7.573-3.931,10.448-6.966c2.877-3.033,5.163-6.652,6.447-10.706
			c0.32-1.012,0.571-2.052,0.747-3.107c0.082-0.538,0.151-1.042,0.199-1.621l0.05-0.772l0.031-0.733
			c0.082-1.954,0.117-3.901,0.126-5.84c0.037-3.879-0.097-7.734-0.087-11.581c0.006-3.848-0.063-7.671,0.067-11.511l0.404-11.517
			l0.209-5.763l0.11-5.768c0.071-3.846,0.131-7.693,0.157-11.542C153.317,55.109,153.434,47.404,153.291,39.674z"/>
	</g>
	<g>
		<path fill="#29ABE3" d="M107.661,3.143C90.71,2.598,35.338,4.821,19.604,16.509C4.521,27.714-18.598,147.271,31.981,146.059
			c58.736-1.409,89.99-4.244,102.658-16.772c17.672-17.472,18.586-49.759,18.825-66.188C153.916,32.308,140.484,4.198,107.661,3.143
			z"/>
		<path fill="#FFFFFF" d="M98.529,45.734c8.373-6.313,5.771-9.187,0.271-8.201c-8.961,1.603-15.84,7.938-18.596,16.14
			c-5.768,17.152-11.428,4.239-22.96-0.472c-8.075-3.297-27.241-9.696-12.077,4.041c-16.179,4.861,6.151,12.098,6.887,14.355
			C40.56,72.44,42.046,79.153,49.34,82.854c2.647,1.343,8.418,1.958,8.418,1.958c-1.804,2.829-3.394,7.844,1.651,8.727
			c-7.536,5.979-8.821,9.497-20.016,7.504C27.362,98.9,19.86,90.181,18.421,94.017C16.74,98.494,38.85,112.28,42.83,113.858
			c10.302,4.087,23.369,6.24,33.973,5.246c17.825-1.673,32.851-9.258,41.731-25.167c4.239-7.595,1.952-12.882,4.938-16.8
			c5.83-2.095,10.865-7.078,10.963-9.284c0.115-2.611-5.844-2.169-13.617-0.401C120.818,67.451,120.855,48.84,98.529,45.734z"/>
		<g>
			<path fill="#010202" d="M154.813,38.925c-0.069-3.941-0.188-7.89-0.42-11.851c-0.027-0.469-0.056-1.006-0.111-1.557
				c-0.051-0.542-0.125-1.079-0.213-1.613c-0.178-1.067-0.426-2.119-0.731-3.148c-0.618-2.058-1.472-4.031-2.528-5.885
				c-2.111-3.706-5.023-6.955-8.543-9.428c-3.51-2.477-7.668-4.122-11.996-4.614c-1.139-0.127-2.09-0.164-3.093-0.219l-2.968-0.131
				l-5.909-0.19c-3.937-0.104-7.866-0.175-11.802-0.229c-3.934-0.051-7.869-0.075-11.816-0.05c-1.957,0.018-3.982,0.067-5.908,0.118
				c-1.938,0.042-3.892,0.057-5.844,0.128L59.417,0.798c-7.848,0.16-15.693,0.22-23.571,0.175L29.92,0.904
				c-1.006-0.001-1.955-0.011-3.017,0.008c-1.122,0.026-2.234,0.146-3.333,0.33c-2.2,0.364-4.304,1.098-6.303,2.009
				c-1.997,0.921-3.886,2.067-5.591,3.446c-3.426,2.729-6.29,6.2-8.242,10.207c-0.97,2.002-1.728,4.132-2.157,6.341
				c-0.222,1.11-0.37,2.204-0.446,3.361c-0.072,1.144-0.069,2.09-0.102,3.063c-0.098,3.9-0.237,7.829-0.3,11.791
				c-0.061,3.886-0.062,7.755-0.048,11.616c-0.513,3.783-0.436,7.434-0.195,10.971c0.285,3.611,0.733,7.164,1.038,10.475
				c0.081,0.839,0.134,1.556,0.158,2.422l0.085,2.644l0.273,5.284l0.275,5.283l0.183,5.282c0.082,1.762,0.069,3.522,0.088,5.284
				c0.017,1.762,0.043,3.521,0.005,5.285c-0.027,3.524-0.1,7.053-0.067,10.578l0.101,5.287l0.107,2.644
				c0.041,0.881,0.068,1.737,0.14,2.727c0.279,3.814,1.187,7.686,2.948,11.241c1.747,3.552,4.384,6.729,7.621,9.058
				c3.23,2.344,7.003,3.844,10.862,4.485c0.978,0.161,1.915,0.264,2.938,0.323c0.939,0.051,1.857,0.059,2.745,0.067l5.309-0.002
				l10.547-0.057l10.53-0.011c3.51,0.008,7.018,0.021,10.522,0.14l5.257,0.166l5.249,0.32l10.482,0.703
				c3.959,0.197,7.916,0.309,11.871,0.349c3.956,0.02,7.908-0.047,11.854-0.161c3.944-0.106,7.883-0.242,11.813-0.42l2.944-0.137
				l3.01-0.16c2.225-0.179,4.396-0.679,6.441-1.44c4.101-1.521,7.725-4.009,10.657-7.105c2.935-3.094,5.267-6.786,6.577-10.921
				c0.326-1.032,0.582-2.093,0.762-3.17c0.084-0.549,0.154-1.063,0.203-1.653l0.051-0.788l0.032-0.748
				c0.083-1.993,0.119-3.979,0.128-5.957c0.038-3.957-0.099-7.89-0.088-11.813c0.006-3.925-0.064-7.824,0.068-11.741l0.412-11.748
				l0.214-5.878l0.112-5.884c0.072-3.923,0.133-7.848,0.16-11.774C154.84,54.67,154.958,46.809,154.813,38.925z M150.238,62.475
				c-1.129,15.64-1.538,31.322-1.465,47.07c0.004,3.918,0.014,7.82-0.07,11.688c-0.042,1.933-0.109,3.855-0.221,5.765l-0.043,0.715
				l-0.054,0.654c-0.03,0.343-0.098,0.787-0.165,1.182c-0.146,0.811-0.351,1.618-0.615,2.416
				c-2.141,6.402-7.648,12.011-14.035,14.375c-1.596,0.591-3.25,0.959-4.902,1.089l-5.784,0.281
				c-3.903,0.175-7.799,0.322-11.692,0.413c-7.784,0.185-15.563,0.148-23.312-0.228c-3.521-0.214-7.055-0.407-10.581-0.557
				c-3.527-0.12-7.056-0.257-10.59,0.104c-1.767,0.146-3.529,0.172-5.29,0.099l-5.284-0.136l-10.563-0.209l-10.548-0.162
				l-5.239-0.104c-0.869-0.027-1.71-0.054-2.526-0.114c-0.732-0.061-1.544-0.161-2.299-0.307c-3.063-0.579-5.963-1.825-8.381-3.663
				c-2.423-1.832-4.345-4.253-5.632-7.015c-1.294-2.765-1.967-5.852-2.13-9.02l-0.28-10.419c-0.183-7.01-0.292-14.021-0.357-21.032
				L8.109,84.841L8.042,79.58l-0.025-2.631c-0.002-0.894-0.043-1.938-0.112-2.852C7.583,70.4,6.962,67.001,6.619,63.592
				c-0.38-3.388-0.605-6.742-0.305-9.943l0.023-0.242c0.004-0.045,0.005-0.09,0.003-0.135c-0.139-3.912-0.357-7.82-0.198-11.717
				c0.168-3.891,0.427-7.797,0.683-11.729c0.078-0.982,0.129-1.993,0.232-2.829c0.101-0.824,0.264-1.686,0.478-2.506
				c0.429-1.651,1.045-3.249,1.856-4.747c1.648-2.974,3.867-5.663,6.567-7.755c2.703-2.069,5.746-3.691,8.941-4.543
				c0.796-0.214,1.603-0.38,2.41-0.478l2.844-0.273l5.822-0.497c7.794-0.537,15.633-0.602,23.467-0.749
				c3.918-0.084,7.838-0.106,11.761-0.108L82.98,5.277c3.931-0.063,7.908,0,11.771,0.157l11.704,0.604
				c3.903,0.13,7.81,0.13,11.71,0.178l5.84,0.111l2.9,0.086c0.947,0.028,1.967,0.054,2.729,0.123
				c6.725,0.548,13.063,4.878,16.686,10.915c0.914,1.502,1.656,3.107,2.203,4.766c0.271,0.83,0.494,1.674,0.66,2.523
				c0.082,0.425,0.152,0.852,0.205,1.28c0.055,0.417,0.09,0.854,0.131,1.363c0.323,3.857,0.539,7.746,0.705,11.643
				C150.566,46.82,150.609,54.65,150.238,62.475z"/>
			<path fill="#010202" d="M133.682,72.479c-0.976,0.21-1.947,0.317-2.968,0.374c-1.014,0.054-2.043,0.048-3.071-0.009
				c-0.146-0.009-0.295-0.024-0.442-0.034c0.612-0.225,1.218-0.48,1.81-0.779c2.428-1.214,4.645-3.222,5.834-5.879V66.15
				c0.199-0.392,0.225-0.873,0.021-1.3c-0.348-0.729-1.221-1.038-1.948-0.69l-0.247,0.118c-0.736,0.351-1.816,0.634-2.827,0.828
				c-1.032,0.196-2.09,0.324-3.137,0.384c-1.047,0.057-2.088,0.043-3.069-0.064c-0.474-0.051-0.937-0.131-1.363-0.233
				c-0.246-1.048-0.522-2.109-0.912-3.22c-0.526-1.521-1.182-2.995-1.947-4.403c-1.523-2.83-3.541-5.359-5.85-7.61
				c-1.17-1.105-2.418-2.163-3.838-2.968c-1.395-0.844-2.928-1.451-4.476-1.949c-0.753-0.241-1.522-0.432-2.3-0.573
				c0.395-0.199,0.708-0.411,1.097-0.655c0.851-0.563,2.298-1.222,2.298-2.438V41.37l0.112-0.07c0.049-0.102,0.122-0.212,0.14-0.328
				c0.094-0.642-0.328-1.237-0.97-1.331c-1.286-0.189-2.144,0.051-3.067,0.235c-0.555,0.13-1.226,0.283-1.756,0.444
				c0.311-0.511,0.541-1.089,0.541-1.712v-0.003l0.156-0.145c0.014-0.125,0.077-0.254,0.051-0.383
				c-0.14-0.638-0.732-1.042-1.371-0.904c-1.836,0.399-3.555,1.026-5.195,1.841c-0.428,0.216-0.625,0.447-1.038,0.692
				c0.054-0.132,0.397-0.245,0.397-0.384v-0.004l-0.212-0.067c0.033-0.316-0.151-0.646-0.348-0.93
				c-0.435-0.628-1.351-0.785-1.978-0.35c-1.189,0.822-2.313,1.76-3.33,2.755c-1.039,0.974-2.008,2.023-2.887,3.124
				c-1.805,2.168-3.314,4.532-4.705,6.936c-1.423,2.391-2.607,4.894-3.84,7.356l-1.78,3.72l-0.222,0.451
				c-1.837-1.754-3.839-3.415-6.272-4.843c-1.675-0.878-3.233-1.632-4.868-2.413c-1.626-0.759-3.224-1.578-4.958-2.096l-2.603-0.753
				c-0.869-0.242-1.729-0.501-2.553-0.841c-1.646-0.683-3.274-1.401-4.901-2.124c-3.248-1.463-6.485-2.949-9.655-4.64l-0.858-0.149
				c-0.162-0.025-0.33-0.034-0.501-0.021c-1.13,0.09-1.974,1.079-1.884,2.209c0.075,0.955,0.178,1.871,0.417,2.741
				c0.203,0.874,0.473,1.714,0.819,2.509c0.691,1.583,1.534,3.051,2.604,4.319c0.844,1.104,1.815,2.24,2.838,3.145
				c-0.718,0.077-1.432,0.438-2.146,0.438h-0.002l-0.299-0.064c-1.135,0.353-1.806,1.46-1.507,2.624
				c0.426,1.654,1.083,3.278,2.064,4.76c0.968,1.485,2.241,2.729,3.636,3.694c1.006,0.691,2.054,1.233,3.123,1.687
				c-0.373,0.133-0.745,0.277-1.106,0.458c-0.804,0.401-1.547,0.907-2.209,1.444l-0.002,0.003l-0.566,0.926
				c-0.343,0.563-0.3,1.304,0.156,1.827c0.56,0.641,1.07,1.268,1.671,1.81c0.562,0.567,1.148,1.097,1.775,1.563
				c1.255,0.926,2.566,1.722,3.968,2.287c1.298,0.551,2.652,0.905,4.015,1.168c-0.089,0.098-0.18,0.19-0.266,0.295
				c-0.592,0.727-1.099,1.656-1.258,2.726c-0.175,1.063,0.049,2.188,0.517,3.087c0.963,1.818,2.594,2.849,4.219,3.431
				c0.419,0.146,0.843,0.262,1.271,0.35c-1.872,1.66-3.99,3.058-6.265,4.146c-3.329,1.623-7.063,2.527-10.787,2.438
				c-7.432-0.042-14.763-3.021-19.802-8.187l-0.005-0.005c-0.584-0.585-1.519-0.695-2.231-0.221
				c-0.813,0.542-1.034,1.643-0.491,2.455l0.065,0.1c5.834,8.752,14.522,15.668,24.381,19.661c2.463,1.008,4.996,1.841,7.574,2.5
				c2.581,0.648,5.209,1.097,7.85,1.39c5.283,0.575,10.633,0.495,15.887-0.25c5.247-0.783,10.403-2.193,15.271-4.291
				c1.22-0.519,2.422-1.074,3.604-1.666c1.182-0.599,2.357-1.212,3.426-2.013c2.148-1.59,3.99-3.538,6.063-5.101
				c7.942-5.795,14.33-13.819,17.991-23.339c2.101-0.203,4.208-0.641,6.226-1.443c2.569-1.008,4.934-2.667,6.692-4.758l0.121-0.145
				c0.312-0.375,0.455-0.886,0.345-1.398C135.445,72.854,134.57,72.288,133.682,72.479z M127.131,76.177
				c-2.084,0.598-4.322,0.748-6.574,0.608c-1.002-0.063-1.957,0.562-2.273,1.562l-0.088,0.274
				c-1.145,4.642-3.202,9.049-5.983,12.978c-2.776,3.934-6.239,7.4-10.135,10.313c-3.925,2.88-8.209,5.263-12.687,7.268
				c-4.498,1.967-9.259,3.393-14.133,4.237c-9.729,1.716-20.044,0.993-29.295-2.684c-5.512-2.087-10.583-5.236-14.955-9.154
				c3.73,1.431,7.729,2.109,11.745,2.146c2.063,0.017,4.157-0.093,6.188-0.565c2.034-0.448,3.987-1.214,5.858-2.097
				c3.748-1.782,7.034-4.434,9.602-7.562l0.158-0.192c0.278-0.345,0.402-0.807,0.298-1.271c-0.181-0.807-0.98-1.313-1.786-1.133
				l-0.007,0.002c-1.217,0.168-2.462,0.063-3.56-0.34c-1.092-0.387-2.042-1.118-2.428-1.917c-0.377-0.786-0.258-1.509,0.403-2.321
				c0.661-0.796,1.771-1.465,2.962-1.97c0.635-0.271,1.057-0.925,0.997-1.648c-0.074-0.904-0.868-1.785-1.773-1.711l-0.054-0.202
				h-0.005c-0.635,0-1.259,0.115-1.865,0.02c-0.606-0.075-1.198-0.077-1.771-0.221c-1.146-0.272-2.221-0.606-3.187-1.153
				c-0.989-0.498-1.852-1.159-2.639-1.915c-0.395-0.379-0.754-0.781-1.088-1.215c-0.027-0.033-0.051-0.063-0.078-0.098
				c0.322-0.291,0.671-0.557,1.087-0.793c1.026-0.586,2.325-0.982,3.667-1.287l0.33-0.072c0.443-0.102,0.791-0.55,0.833-1.026
				c0.053-0.593-0.386-1.238-0.978-1.238h-0.003c-2.758-1-5.396-2.041-7.303-3.837c-0.951-0.894-1.698-1.876-2.21-2.997
				c-0.222-0.476-0.394-0.956-0.537-1.467c0.316-0.086,0.634-0.167,0.949-0.242c0.527-0.125,1.052-0.229,1.558-0.312
				c0.501-0.082,1.001-0.13,1.364-0.132l0.404-0.002c0.687-0.009,1.337-0.197,1.628-0.868c0.394-0.909-0.024-2.145-0.934-2.145
				h-0.002c-0.673-1-1.299-0.762-1.933-1.072c-0.604-0.355-1.192-0.846-1.757-1.257c-1.113-0.845-2.068-1.92-2.868-3.021
				c-0.732-1.146-1.346-2.388-1.609-3.665c-0.044-0.223-0.072-0.459-0.102-0.681c2.349,0.757,4.685,1.541,7.005,2.373
				c3.304,1.199,6.614,2.401,9.784,3.91c0.792,0.379,1.587,0.748,2.368,1.146l2.315,1.252c1.523,0.841,3.091,1.725,4.534,2.589
				c1.334,0.831,2.624,1.911,3.874,3.052c1.24,1.162,2.416,2.435,3.593,3.714c0.205,0.221,0.464,0.413,0.756,0.545
				c1.168,0.522,2.723,0.002,3.246-1.164l0.303-0.265v-0.001l0.906-3.921c0.383-1.296,0.716-2.571,1.141-3.844
				c0.842-2.55,1.836-5.008,2.963-7.408c1.158-2.384,2.517-4.646,4.135-6.694c0.832-1.005,1.713-1.951,2.67-2.815
				c0.098-0.083,0.197-0.154,0.296-0.235l-0.032,0.056c-0.096,0.182,0.068,0.409,0.243,0.527c0.187,0.128,0.68,0.08,0.68-0.105
				V42.81c1-1.022,2.804-1.728,4.406-2.241c0.926-0.291,1.815-0.511,2.763-0.669c-0.189,0.26-0.43,0.516-0.682,0.753
				c-0.776,0.736-1.775,1.347-2.813,1.813l-0.104,0.043c-0.403,0.183-0.604,0.647-0.445,1.066c0.165,0.438,0.65,0.657,1.086,0.492
				l0,0l2.52-0.753c0.826-0.243,1.65-0.477,2.477-0.683c0.415-0.104,0.831-0.201,1.244-0.29c-0.4,0.212-0.816,0.408-1.244,0.593
				c-0.801,0.345-1.636,0.646-2.482,0.928l-1.287,0.407l-0.657,0.197c-0.238,0.075-0.415,0.119-0.765,0.25
				c-0.472,0.181-0.787,0.656-0.738,1.185c0.059,0.634,0.619,1.1,1.253,1.041l0.034-0.004h0.002c1.393,0.059,2.74,0.258,4.064,0.526
				c1.32,0.295,2.596,0.738,3.853,1.229c1.26,0.496,2.417,1.209,3.603,1.877c0.596,0.334,1.211,0.647,1.832,0.977
				c0.616,0.336,1.213,0.711,1.801,1.111c1.178,0.803,2.071,1.932,2.896,3.074c0.836,1.141,1.521,2.383,2.114,3.651
				c0.559,1.289,0.99,2.623,1.313,3.964c0.086,0.334,0.149,0.68,0.189,1.002l0.076,0.538l0.055,0.501
				c0.081,0.709,0.14,1.428,0.156,2.153c0.016,0.597,0.35,1.164,0.918,1.45l0.597,0.3l0.002,0.001
				c1.478,0.454,2.821,0.524,4.106,0.5c1.285-0.034,2.517-0.189,3.72-0.418c0.551-0.105,1.093-0.231,1.633-0.37
				c-0.344,0.25-0.698,0.487-1.071,0.699c-1.97,1.125-4.277,1.75-6.635,2.008l-0.072,0.009c-0.406,0.046-0.771,0.312-0.926,0.721
				c-0.219,0.578,0.074,1.225,0.654,1.442l0,0c2.165,0.963,4.351,1.427,6.578,1.759c0.344,0.048,0.695,0.054,1.041,0.092
				C127.986,75.898,127.564,76.056,127.131,76.177z"/>
		</g>
	</g>
</g>
</svg>
