<svg id="Layer_1" data-name="Layer 1" xmlns="http://www.w3.org/2000/svg" viewBox="0 0 185.03 137.68"><defs><style>.cls-1{fill:#222;}.cls-2{fill:#ec008c;fill-rule:evenodd;}</style></defs><title>Untitled-9</title><path class="cls-1" d="M36.7,0.68H35.63a0.65,0.65,0,0,0-.68.38L19.14,34.12,3.26,1.06A0.75,0.75,0,0,0,2.58.68h-1a0.4,0.4,0,0,0-.46.46V53.42a0.4,0.4,0,0,0,.46.46H2.42a0.4,0.4,0,0,0,.46-0.46V4.33L18.31,36.25a0.92,0.92,0,0,0,1.67,0L35.4,4.33V53.42a0.4,0.4,0,0,0,.46.46H36.7a0.4,0.4,0,0,0,.46-0.46V1.14A0.4,0.4,0,0,0,36.7.68Zm54.8,0H90.66a0.4,0.4,0,0,0-.46.46v36q0,8.28-3,12.08T77,53q-7.22,0-10.26-3.8t-3-12.08v-36A0.4,0.4,0,0,0,63.22.68H62.39a0.4,0.4,0,0,0-.46.46V37.31q0,8.89,3.53,13.11T77,54.64q7.9,0,11.44-4.22t3.53-13.11V1.14A0.4,0.4,0,0,0,91.49.68Zm35.19,24.77q-2.36-1.37-3.31-2t-2.7-2A10,10,0,0,1,118.25,19a16.36,16.36,0,0,1-1.33-3,12.33,12.33,0,0,1-.65-4.07q0-10.26,11.7-10.26A25.24,25.24,0,0,1,136.56,3a0.38,0.38,0,0,0,.61-0.3l0.15-.68a0.56,0.56,0,0,0-.46-0.61A24.59,24.59,0,0,0,128,0q-13.45,0-13.45,11.93a14.1,14.1,0,0,0,.68,4.48,15.76,15.76,0,0,0,1.52,3.38,12.77,12.77,0,0,0,2.58,2.81,25,25,0,0,0,2.93,2.2l3.46,2.09,0.42,0.27,0.49,0.27q2.2,1.29,3.38,2.05a36.33,36.33,0,0,1,2.93,2.17,12,12,0,0,1,2.58,2.7A15.42,15.42,0,0,1,137,37.58a12.59,12.59,0,0,1,.68,4.22A10.81,10.81,0,0,1,134.59,50q-3.12,3-9.5,3a29.2,29.2,0,0,1-10-1.44,0.38,0.38,0,0,0-.61.3l-0.15.68a0.55,0.55,0,0,0,.38.61,31.15,31.15,0,0,0,10.41,1.52q7.22,0,10.79-3.46t3.57-9.38a14.09,14.09,0,0,0-4.26-10.49A50.68,50.68,0,0,0,126.68,25.46ZM183.3,0.68H157.16a0.4,0.4,0,0,0-.46.46V1.9a0.4,0.4,0,0,0,.46.46h12.23V53.42a0.4,0.4,0,0,0,.46.46h0.84a0.4,0.4,0,0,0,.46-0.46V2.36H183.3a0.4,0.4,0,0,0,.46-0.46V1.14A0.4,0.4,0,0,0,183.3.68ZM29.7,90.25q0-9.12-4.14-12.84T11.7,73.68H1.59a0.4,0.4,0,0,0-.46.46v52.28a0.4,0.4,0,0,0,.46.46H2.42a0.4,0.4,0,0,0,.46-0.46V106.74H13.29L27.12,126.5a0.82,0.82,0,0,0,.76.38h0.91q0.76,0,.3-0.61L15.27,106.66q7.75-.61,11.09-4.41T29.7,90.25ZM11.92,105.07h-9V75.36H11.7q8.89,0,12.54,3.27t3.65,11.63q0,8.28-3.65,11.55T11.92,105.07Zm64,20.14H54.79V100.43H75.15a0.4,0.4,0,0,0,.46-0.46V99.22a0.4,0.4,0,0,0-.46-0.46H54.79V75.36h21a0.4,0.4,0,0,0,.46-0.46V74.14a0.4,0.4,0,0,0-.46-0.46H53.5a0.4,0.4,0,0,0-.46.46v52.28a0.4,0.4,0,0,0,.46.46H75.91a0.37,0.37,0,0,0,.46-0.38v-0.84A0.4,0.4,0,0,0,75.91,125.2Zm38.15-51.06a0.6,0.6,0,0,0-.61-0.46h-0.91a0.6,0.6,0,0,0-.61.46l-16.72,52.2q-0.08.53,0.3,0.53h1a0.56,0.56,0,0,0,.53-0.46l5.32-16.57h21.35L129,126.42a0.49,0.49,0,0,0,.53.46h0.91q0.46,0,.38-0.53Zm-11.25,34L112.92,76.5h0.15l10.18,31.69H102.82Zm74.86-29.1a15.68,15.68,0,0,0-6.42-4.18,27.41,27.41,0,0,0-8.7-1.22h-9.88a0.4,0.4,0,0,0-.46.46v52.28a0.4,0.4,0,0,0,.46.46h9.88a27.41,27.41,0,0,0,8.7-1.22,15.68,15.68,0,0,0,6.42-4.18,18.48,18.48,0,0,0,4.18-8.24,52.48,52.48,0,0,0,1.37-13,52.48,52.48,0,0,0-1.37-13A18.48,18.48,0,0,0,177.67,79.08Zm2.43,33.44a17,17,0,0,1-3.76,7.67,14.33,14.33,0,0,1-5.81,3.88,24.39,24.39,0,0,1-8,1.14H154V75.36h8.59a24.39,24.39,0,0,1,8,1.14,14.33,14.33,0,0,1,5.81,3.88A17,17,0,0,1,180.11,88a52.13,52.13,0,0,1,1.22,12.23A52.13,52.13,0,0,1,180.11,112.51Z"/><path class="cls-2" d="M1,62.68H185v2H1v-2Z"/><path class="cls-2" d="M0,135.68H185v2H0v-2Z"/></svg>