<?xml version="1.0" encoding="utf-8"?>
<!-- Generator: Adobe Illustrator 16.0.3, SVG Export Plug-In . SVG Version: 6.00 Build 0)  -->
<!DOCTYPE svg PUBLIC "-//W3C//DTD SVG 1.1//EN" "http://www.w3.org/Graphics/SVG/1.1/DTD/svg11.dtd">
<svg version="1.1" id="Layer_1" xmlns="http://www.w3.org/2000/svg" xmlns:xlink="http://www.w3.org/1999/xlink" x="0px" y="0px"
	 width="500px" height="106.704px" viewBox="0 0 500 106.704" enable-background="new 0 0 500 106.704" xml:space="preserve">
<path fill="#B6956A" d="M310.164,38.058l5.092,47.401h12.869l11.571-80.636h-12.775l-5.184,46.012h-0.647l-5.276-46.012h-11.389
	l-5.554,46.012h-0.648l-4.907-46.012h-13.424l11.572,80.636h12.868l5.185-47.401H310.164z M37.245,38.058l5.092,47.401h12.868
	L66.777,4.823H54.001l-5.184,46.012h-0.648L42.892,4.823H31.504L25.95,50.834h-0.648L20.395,4.823H6.971l11.572,80.636h12.869
	l5.184-47.401H37.245z M101.309,84.254h11.572V50.741c0-7.684,1.944-10.832,4.722-10.832c3.519,0,3.519,4.445,3.519,10.462v33.883
	h11.572V50.741c0-7.684,1.944-10.832,4.721-10.832c3.519,0,3.519,4.445,3.519,10.462v33.883h11.572V48.797
	c0-12.591-1.574-20.83-10.832-20.83c-5.833,0-8.239,2.87-9.998,7.313h-0.371c-1.389-4.536-3.981-7.313-8.887-7.313
	c-5.462,0-7.869,2.87-9.536,7.035h-0.37v-5.832h-11.202V84.254z M63.537,56.667c0,19.164,4.907,28.792,17.404,28.792
	c12.498,0,17.405-9.628,17.405-28.792s-4.907-28.699-17.405-28.699C68.443,27.968,63.537,37.502,63.537,56.667 M409.224,84.254
	h11.571V68.61l2.685-4.908l6.389,20.552h12.498l-11.573-33.976l11.573-21.107h-12.313l-9.259,19.626V13.062h-11.571V84.254z
	 M394.873,66.11c0,5.092-1.388,9.165-4.722,9.165c-4.258,0-6.017-6.203-6.017-15.09h22.033c0-1.481,0.092-3.333,0.092-4.721
	c0-16.109-2.869-27.496-16.571-27.496c-12.59,0-17.313,12.405-17.313,28.791c0,19.072,5.741,28.7,17.313,28.7
	c9.258,0,15.09-5.647,16.295-17.313L394.873,66.11z M178.148,66.11c0,5.092-1.389,9.165-4.721,9.165
	c-4.259,0-6.018-6.203-6.018-15.09h22.033c0-1.481,0.093-3.333,0.093-4.721c0-16.109-2.87-27.496-16.571-27.496
	c-12.591,0-17.313,12.405-17.313,28.791c0,19.072,5.74,28.7,17.313,28.7c9.257,0,15.09-5.647,16.293-17.313L178.148,66.11z
	 M358.584,66.11c0,5.092-1.39,9.165-4.724,9.165c-4.257,0-6.017-6.203-6.017-15.09h22.033c0-1.481,0.093-3.333,0.093-4.721
	c0-16.109-2.869-27.496-16.572-27.496c-12.59,0-17.312,12.405-17.312,28.791c0,19.072,5.739,28.7,17.312,28.7
	c9.259,0,15.092-5.647,16.296-17.313L358.584,66.11z M456.531,29.171l11.479,53.047c0.463,2.036,0.833,3.979,0.833,5.461
	c0,3.796-2.037,5.463-5.647,5.463c-1.389,0-3.147-0.184-3.889-0.463l-1.943,10.091c2.406,0.463,4.259,0.556,6.018,0.556
	c10.368,0,14.071-5.276,16.016-13.979l13.424-60.175h-11.942l-4.073,24.348c-0.557,3.333-1.297,6.851-1.667,10.091h-0.646
	c-0.279-3.147-0.926-6.573-1.39-9.906l-3.703-24.533H456.531z M224.53,49.445c0-12.591-1.573-21.478-10.646-21.478
	c-5.833,0-8.146,2.87-9.905,7.313h-0.371v-6.11h-11.202v55.083h11.573V50.741c0-7.684,2.036-10.832,5.184-10.832
	c3.796,0,3.796,4.445,3.796,10.462v33.883h11.572V49.445z M264.246,43.335c-0.278-9.813-4.258-15.367-14.072-15.367
	c-8.054,0-15.368,4.535-15.368,14.998c0,9.442,5.832,13.608,11.016,17.404c4.074,3.055,7.776,5.833,7.776,10.554
	c0,2.408-1.203,4.629-3.98,4.629c-4.074,0-4.722-3.981-4.814-8.518l-10.924,1.853c0.278,10.646,5.462,16.571,15.184,16.571
	c8.053,0,15.738-3.796,15.738-15.368c0-9.166-6.018-13.701-11.203-17.683c-3.703-2.962-7.498-6.11-7.498-10.091
	c0-2.314,1.296-4.443,3.795-4.443c3.611,0,3.611,4.907,3.703,7.406L264.246,43.335z M443.386,84.254h11.571V13.062h-11.571V84.254z
	 M75.479,56.667c0-13.332,1.204-18.423,5.462-18.423c4.259,0,5.463,5.091,5.463,18.423c0,13.331-1.204,18.516-5.463,18.516
	C76.683,75.182,75.479,69.998,75.479,56.667 M226.011,13.155v10.369h4.537c-0.093,3.332-1.667,4.813-4.537,4.906v6.018
	c9.166-0.278,11.572-7.221,11.572-14.72v-6.572H226.011z M167.501,51.39c0.186-5.277,0.833-13.239,5.555-13.239
	c4.444,0,4.722,7.684,4.722,13.239H167.501z M384.228,51.39c0.185-5.277,0.834-13.239,5.556-13.239
	c4.442,0,4.721,7.684,4.721,13.239H384.228z M347.937,51.39c0.185-5.277,0.833-13.239,5.555-13.239
	c4.443,0,4.721,7.684,4.721,13.239H347.937z M80.386,15.007v8.146h-2.315v-8.146h-3.055v-1.852h8.518v1.852H80.386z M92.328,23.153
	v-3.981H88.07v3.981h-2.315v-9.998h2.315v4.166h4.258v-4.166h2.315v9.998H92.328z M97.698,23.153v-9.998h7.314v1.852h-5v2.314h4.536
	v1.851h-4.536v2.129h5.185v1.852H97.698z M117.602,23.153l-0.648-1.852v0.092h-3.888v-0.092l-0.648,1.852h-2.315l3.889-9.998h2.222
	l3.889,9.998H117.602z M115.01,16.025l-1.296,3.61h2.685L115.01,16.025z M125.749,23.338c-2.87,0-4.166-1.574-4.166-3.425v-6.758
	h2.314v6.665c0,0.926,0.555,1.573,1.852,1.573s1.944-0.647,1.944-1.573v-6.665h2.222v6.758
	C129.915,21.765,128.619,23.338,125.749,23.338 M136.303,23.338c-1.481,0-2.685-0.277-3.981-0.925l0.741-1.76
	c0.833,0.371,1.666,0.833,3.147,0.833c1.296,0,2.222-0.463,2.222-1.296c0-0.926-0.833-1.018-2.129-1.204
	c-0.37,0-0.647-0.092-1.018-0.092c-1.574-0.278-2.592-1.019-2.592-2.685c0-2.038,1.759-3.148,3.981-3.148
	c1.389,0,2.592,0.185,3.703,0.833l-0.833,1.666c-1.019-0.463-1.759-0.648-2.777-0.648c-1.111,0-1.852,0.463-1.852,1.111
	c0,0.833,1.019,0.925,2.128,1.11c0.186,0,0.648,0.093,0.833,0.093c1.852,0.371,2.777,1.111,2.777,2.87
	C140.654,22.227,138.803,23.338,136.303,23.338 M147.412,15.007v8.146h-2.314v-8.146h-3.055v-1.852h8.424v1.852H147.412z
	 M158.429,23.153l-1.852-3.703h-1.481v3.703h-2.314v-9.998h4.629c2.777,0,3.425,1.48,3.425,2.87v0.648
	c0,1.204-0.741,2.129-1.944,2.5l2.129,3.981H158.429z M158.615,16.025c0-0.556-0.463-1.018-1.574-1.018h-1.944v2.684h1.852
	c1.111,0,1.667-0.369,1.667-1.11V16.025z M169.815,23.153l-0.647-1.852v0.092h-3.889v-0.092l-0.648,1.852h-2.314l3.888-9.998h2.222
	l3.888,9.998H169.815z M167.225,16.025l-1.297,3.61h2.685L167.225,16.025z M174.26,23.153v-9.998h2.314v8.146h4.814v1.852H174.26z
	 M183.703,13.155h2.314v9.998h-2.314V13.155z M195.553,23.153l-0.741-1.852v0.092h-3.888v-0.092l-0.648,1.852h-2.314l3.888-9.998
	h2.315l3.795,9.998H195.553z M192.869,16.025l-1.297,3.61h2.685L192.869,16.025z M206.57,23.153l-4.536-6.11v6.11h-2.13v-9.998h2.13
	l4.536,6.202v-6.202h2.037v9.998H206.57z"/>
</svg>
