<?xml version="1.0" encoding="utf-8"?>
<!-- Generator: Adobe Illustrator 16.0.0, SVG Export Plug-In . SVG Version: 6.00 Build 0)  -->
<!DOCTYPE svg PUBLIC "-//W3C//DTD SVG 1.1//EN" "http://www.w3.org/Graphics/SVG/1.1/DTD/svg11.dtd">
<svg version="1.1" id="Layer_1" xmlns="http://www.w3.org/2000/svg" xmlns:xlink="http://www.w3.org/1999/xlink" x="0px" y="0px"
	 width="628.515px" height="145.575px" viewBox="0 0 628.515 145.575" enable-background="new 0 0 628.515 145.575"
	 xml:space="preserve">
<g class="mobile-hide">
	<path fill="#FF2C71" d="M121.66,19.146h1.932l3.708,9.654h-2.188l-0.639-1.812h-3.779l-0.625,1.812h-2.018L121.66,19.146z
		 M123.904,25.35l-0.81-2.305c-0.298-0.826-0.426-1.449-0.512-1.667h-0.028c-0.071,0.232-0.227,0.884-0.497,1.667l-0.81,2.305
		H123.904z"/>
	<path fill="#FF2C71" d="M127.913,25.06v-5.914h2.003v5.74c0,1.652,0.582,2.406,2.074,2.406c1.407,0,1.989-0.869,1.989-2.275v-5.871
		h1.847v5.726c0,2.639-1.293,4.103-3.878,4.103C129.206,28.974,127.913,27.582,127.913,25.06z"/>
	<path fill="#FF2C71" d="M136.837,28.017l0.853-1.42c0.213,0.159,0.938,0.725,2.031,0.725c0.952,0,1.506-0.493,1.506-1.116
		c0-0.855-1.009-1.102-2.117-1.667c-1.165-0.58-2.032-1.319-2.032-2.885c0-1.652,1.364-2.682,3.055-2.682
		c1.548,0,2.372,0.507,2.77,0.812l-0.81,1.436c-0.327-0.218-1.037-0.595-1.847-0.595c-0.767,0-1.264,0.348-1.264,1
		c0,0.754,0.753,1.001,1.748,1.465c1.25,0.579,2.429,1.231,2.429,3.015c0,1.754-1.293,2.87-3.396,2.87
		C138.229,28.974,137.249,28.365,136.837,28.017z"/>
	<path fill="#FF2C71" d="M146.414,20.827h-2.614v-1.682h7.231v1.682h-2.6V28.8h-2.017V20.827z"/>
	<path fill="#FF2C71" d="M152.283,19.146h3.154c2.216,0,3.495,0.972,3.495,2.783c0,1.58-1.051,2.377-2.202,2.595v0.029
		c0.256,0.188,0.597,0.565,1.108,1.377l1.847,2.87h-2.202l-1.733-2.754c-0.739-1.116-0.895-1.218-1.335-1.218h-0.128V28.8h-2.003
		V19.146z M155.379,23.378c1.065,0,1.563-0.492,1.563-1.333c0-0.885-0.498-1.334-1.648-1.334h-1.009v2.667H155.379z"/>
	<path fill="#FF2C71" d="M164.005,19.146h1.932l3.708,9.654h-2.188l-0.639-1.812h-3.779l-0.625,1.812h-2.018L164.005,19.146z
		 M166.25,25.35l-0.81-2.305c-0.298-0.826-0.426-1.449-0.512-1.667H164.9c-0.071,0.232-0.227,0.884-0.497,1.667l-0.81,2.305H166.25z
		"/>
	<path fill="#FF2C71" d="M170.784,19.146h2.017v8.002h3.523V28.8h-5.541V19.146z"/>
	<path fill="#FF2C71" d="M177.732,19.146h2.003V28.8h-2.003V19.146z"/>
	<path fill="#FF2C71" d="M184.765,19.146h1.932l3.708,9.654h-2.188l-0.639-1.812h-3.779l-0.625,1.812h-2.018L184.765,19.146z
		 M187.01,25.35l-0.81-2.305c-0.298-0.826-0.426-1.449-0.512-1.667h-0.028c-0.071,0.232-0.227,0.884-0.497,1.667l-0.81,2.305H187.01
		z"/>
	<path fill="#FF2C71" d="M192.61,20.291c0,1.102-0.938,2.29-1.89,3.131l-0.653-0.608c0.398-0.406,0.767-0.841,0.767-1.378
		c0-0.565-0.483-0.71-0.483-1.405c0-0.624,0.497-1.059,1.094-1.059C192.155,18.972,192.61,19.493,192.61,20.291z"/>
	<path fill="#FF2C71" d="M193.377,28.017l0.853-1.42c0.213,0.159,0.938,0.725,2.031,0.725c0.952,0,1.506-0.493,1.506-1.116
		c0-0.855-1.009-1.102-2.117-1.667c-1.165-0.58-2.031-1.319-2.031-2.885c0-1.652,1.363-2.682,3.054-2.682
		c1.548,0,2.372,0.507,2.77,0.812l-0.81,1.436c-0.327-0.218-1.037-0.595-1.847-0.595c-0.767,0-1.264,0.348-1.264,1
		c0,0.754,0.753,1.001,1.748,1.465c1.25,0.579,2.429,1.231,2.429,3.015c0,1.754-1.293,2.87-3.396,2.87
		C194.77,28.974,193.79,28.365,193.377,28.017z"/>
</g>
<g class="mobile-hide">
	<path fill="#FF2C71" d="M204.405,19.146h2.017l3.41,5.001c0.568,0.826,0.909,1.464,0.994,1.624h0.028
		c-0.014-0.131-0.057-0.783-0.057-1.522v-5.103h1.818V28.8h-1.833l-3.679-5.363c-0.512-0.725-0.796-1.262-0.909-1.45h-0.029
		c0.014,0.131,0.057,0.682,0.057,1.291V28.8h-1.818V19.146z"/>
	<path fill="#FF2C71" d="M214.963,23.987c0-2.624,1.719-5.016,4.887-5.016s4.873,2.362,4.873,4.957c0,2.624-1.662,5.045-4.83,5.045
		C216.725,28.974,214.963,26.597,214.963,23.987z M222.605,23.987c0-1.798-0.824-3.363-2.713-3.363
		c-1.904,0-2.799,1.508-2.799,3.305c0,1.813,0.867,3.393,2.756,3.393C221.753,27.321,222.605,25.784,222.605,23.987z"/>
	<path fill="#FF2C71" d="M225.819,27.698c0-0.696,0.568-1.232,1.264-1.232c0.696,0,1.25,0.536,1.25,1.232
		c0,0.695-0.554,1.246-1.25,1.246C226.388,28.944,225.819,28.394,225.819,27.698z"/>
</g>
<polygon class="mobile-hide" fill="#FF2C71" points="231.219,20.841 229.401,21.393 229.003,19.87 231.646,19.146 233.108,19.146 233.108,28.8 
	231.219,28.8 "/>
<g class="mobile-hide">
	<path fill="#FF2C71" d="M237.202,19.146h2.131l1.193,5.045c0.185,0.768,0.341,1.739,0.341,1.769h0.028
		c0.014-0.029,0.213-1.059,0.398-1.827l1.292-4.986h1.975l1.264,4.958c0.199,0.797,0.37,1.812,0.384,1.841h0.028
		c0.014-0.029,0.142-1,0.341-1.783l1.222-5.016h1.917l-2.585,9.654h-1.847l-1.364-5.349c-0.199-0.783-0.384-1.769-0.384-1.798
		h-0.028c-0.014,0.029-0.213,1-0.426,1.798l-1.491,5.349h-1.847L237.202,19.146z"/>
	<path fill="#FF2C71" d="M250.715,19.146h5.455v1.682h-3.48v2.174h3.068v1.595h-3.068v2.522h3.58V28.8h-5.554V19.146z"/>
	<path fill="#FF2C71" d="M257.55,19.146h5.455v1.682h-3.48v2.174h3.068v1.595h-3.068v2.522h3.58V28.8h-5.554V19.146z"/>
	<path fill="#FF2C71" d="M264.371,19.146h1.989v4.204l3.225-4.204h2.216l-3.48,4.479l3.637,5.175h-2.373l-3.225-4.624V28.8h-1.989
		V19.146z"/>
	<path fill="#FF2C71" d="M272.939,19.146h2.017v8.002h3.523V28.8h-5.541V19.146z"/>
	<path fill="#FF2C71" d="M280.499,25.161l-3.14-6.016h2.23l2.003,4.103h0.014l1.989-4.103h1.946l-3.04,6.016V28.8h-2.003V25.161z"/>
</g>
<g class="mobile-hide">
	<path fill="#FF2C71" d="M289.992,19.146h1.946l1.904,5.958c0.227,0.695,0.397,1.392,0.483,1.667h0.028
		c0.071-0.261,0.27-0.972,0.498-1.667l1.96-5.958h1.932l1.307,9.654h-2.046l-0.611-4.986c-0.085-0.711-0.142-1.218-0.156-1.406
		h-0.028c-0.042,0.218-0.185,0.739-0.383,1.377L295.22,28.8h-1.975l-1.605-5.001c-0.185-0.609-0.327-1.188-0.383-1.392h-0.028
		c-0.014,0.218-0.057,0.782-0.128,1.421l-0.611,4.972h-1.804L289.992,19.146z"/>
	<path fill="#FF2C71" d="M304.187,19.146h1.932l3.708,9.654h-2.188L307,26.988h-3.779l-0.625,1.812h-2.018L304.187,19.146z
		 M306.432,25.35l-0.81-2.305c-0.298-0.826-0.426-1.449-0.512-1.667h-0.028c-0.071,0.232-0.227,0.884-0.497,1.667l-0.81,2.305
		H306.432z"/>
	<path fill="#FF2C71" d="M309.929,23.958c0-2.624,1.875-4.986,5.156-4.986c1.42,0,2.373,0.318,3.111,0.87l-0.895,1.521
		c-0.583-0.435-1.279-0.695-2.26-0.695c-2.018,0-2.982,1.392-2.982,3.232c0,1.855,0.866,3.406,2.855,3.406
		c0.767,0,1.35-0.159,1.676-0.377v-1.913h-1.748v-1.58h3.666v4.609c-0.668,0.464-1.762,0.928-3.58,0.928
		C311.676,28.974,309.929,26.567,309.929,23.958z"/>
	<path fill="#FF2C71" d="M323.072,19.146h1.932l3.708,9.654h-2.188l-0.64-1.812h-3.778l-0.625,1.812h-2.018L323.072,19.146z
		 M325.316,25.35l-0.809-2.305c-0.299-0.826-0.427-1.449-0.512-1.667h-0.029c-0.07,0.232-0.227,0.884-0.496,1.667l-0.811,2.305
		H325.316z"/>
	<path fill="#FF2C71" d="M329.695,27.466l4.332-6.653h-4.147v-1.667h6.577v1.305l-4.375,6.683h4.503V28.8h-6.89V27.466z"/>
	<path fill="#FF2C71" d="M337.993,19.146h2.003V28.8h-2.003V19.146z"/>
	<path fill="#FF2C71" d="M341.66,19.146h2.017l3.409,5.001c0.568,0.826,0.91,1.464,0.994,1.624h0.029
		c-0.015-0.131-0.057-0.783-0.057-1.522v-5.103h1.818V28.8h-1.833l-3.679-5.363c-0.512-0.725-0.797-1.262-0.91-1.45h-0.028
		c0.015,0.131,0.058,0.682,0.058,1.291V28.8h-1.818V19.146z"/>
	<path fill="#FF2C71" d="M351.378,19.146h5.455v1.682h-3.48v2.174h3.068v1.595h-3.068v2.522h3.58V28.8h-5.555V19.146z"/>
</g>
<g>
	<defs>
		<rect id="SVGID_1_" width="628.515" height="145.575"/>
	</defs>
	<clipPath id="SVGID_2_">
		<use xlink:href="#SVGID_1_"  overflow="visible"/>
	</clipPath>
	<path clip-path="url(#SVGID_2_)" fill="#FF2C71" d="M619.515,37.944h-22.613l-10.836,30.431c-2.82,6.876-5.867,18.8-5.867,18.8
		c-0.072-5.121-0.234-7.636-0.568-10.899l-5.598-38.444h-21.654l11.623,53.726c1.148,5.853,4.406,16.542,2.994,22.225l-0.17,0.396
		c-4.301,8.658-7.947,10.5-21.83,14.012l6.018,16.385c15.797-1.838,26.383-8.607,36.324-30.992L619.515,37.944z M531.398,82.127
		l-1.465,13.168c-0.9,1.171-3.617,2.487-5.543,2.487c-3.855,0-5.842-2.926-5.355-7.314
		C519.523,86.078,522.019,82.127,531.398,82.127 M541.966,116.508l14.426-14.191c-4.252-3.365-4.195-8.485-3.496-14.776
		l3.152-26.042c0.617-5.559,0.797-8.339,0.271-11.704c-1.449-8.924-9.777-13.752-22.369-13.752c-10.047,0-20.09,4.024-28.57,9.141
		c3.096,7.771,2.842,7.957,6.016,15.77c5.49-3.914,11.055-6.33,17.662-6.33c4.883,0,5.104,2.634,4.617,7.022l-0.521,4.682
		c-0.627-0.146-2.811-0.146-3.709-0.146c-18.502,0-30.563,10.241-32.156,24.578c-1.496,13.46,3.564,24.579,20.01,24.579
		c7.838,0,13.721-3.219,17.273-6.291C535.339,111.389,538.884,115.338,541.966,116.508 M482.318,60.924
		c-3.129,26.318-8.297,31.765-15.281,32.432h-7.244l7.035-65.544h6.666C481.931,28.218,485.875,32.327,482.318,60.924
		 M504.25,61.019c2.26-20.359,1.695-39.022-7.91-46.939C490.425,8.823,482.658,8,477.089,8h-28.545l-11.473,105.436h29.357
		c10.908,0,17.871-4.178,23.77-11.321C498.634,92.009,502.632,75.573,504.25,61.019 M423.796,88.418
		c1.318-11.85-2.477-19.165-13.48-22.091l-7.742-2.048c-5.082-1.317-6.35-3.365-6.057-5.999c0.275-2.487,2.713-4.242,6.076-4.242
		c4.232,0,9.283,1.609,15.193,5.56l8.48-15.8c-5.867-3.22-11.838-7.755-24.539-7.755c-16.063,0-27.535,10.241-29.258,25.749
		c-1.188,10.681,2.715,18.142,12.771,20.628l8.115,2.049c6.172,1.609,8.158,2.779,7.703,6.876c-0.311,2.779-3.498,5.706-7.359,5.706
		c-6.35,0-16.076-6.583-19.969-9.656l-9.645,18.434c9.047,5.999,17.619,9.51,26.834,9.51
		C408.851,115.338,421.976,104.805,423.796,88.418 M384.425,29.482c0.99-8.92-2.377-14.272-9.014-14.272
		c-5.068,0-9.51,4.304-10.139,9.971c-0.352,3.147-0.135,5.352,1.705,7.87c1.529,1.993,2.912,1.993,2.631,4.513
		c-0.232,2.099-2.885,4.407-7.15,5.457l5.705,6.716c4.553-1.154,8.797-4.512,10.932-7.136
		C381.785,39.138,383.841,34.729,384.425,29.482 M355.603,113.436l6.295-56.619c1.154-10.387-0.775-20.774-16.322-20.774
		c-8.736,0-15.166,3.512-19.941,7.168c0.133-2.34-0.186-5.267-0.504-7.021l-20.997,3.95c0.776,8.047,0.251,16.238-0.757,25.31
		l-5.335,47.987h22.356l5.789-52.083c3.426-3.073,6.143-4.389,7.813-4.389c3.211,0,5.525,0,4.613,8.192l-5.367,48.279H355.603z
		 M273.643,82.127l-1.464,13.168c-0.901,1.171-3.617,2.487-5.544,2.487c-3.855,0-5.843-2.926-5.355-7.314
		C261.768,86.078,264.263,82.127,273.643,82.127 M284.21,116.508l14.426-14.191c-4.251-3.365-4.196-8.485-3.497-14.776l3.152-26.042
		c0.619-5.559,0.799-8.339,0.274-11.704c-1.449-8.924-9.778-13.752-22.37-13.752c-10.472,0-21.216,4.573-29.891,9.98
		c2.457,6.355,2.572,6.569,6.347,15.65c5.816-4.335,11.647-7.051,18.652-7.051c4.882,0,5.104,2.634,4.616,7.022l-0.521,4.682
		c-0.626-0.146-2.81-0.146-3.71-0.146c-18.502,0-30.561,10.241-32.155,24.578c-1.497,13.46,3.563,24.579,20.009,24.579
		c7.838,0,13.721-3.219,17.274-6.291C277.584,111.389,281.128,115.338,284.21,116.508 M238.3,113.436l6.115-55.008
		c2.098-18.873-6.249-22.385-15.5-22.385c-7.709,0-14.057,2.779-19.926,8.192c-2.933-4.827-6.927-8.192-13.994-8.192
		c-5.653,0-11.744,2.779-16.89,7.461c0.18-2.779-0.122-4.682-0.472-7.314l-20.997,3.95c0.776,8.047,0.251,16.238-0.758,25.31
		l-5.334,47.987h21.714l6.099-54.863c1.978-1.608,5.465-2.926,7.52-2.926c4.24,0,4.383,1.023,3.278,10.973l-5.205,46.816h20.943
		l6.05-54.423c2.492-1.609,6.108-2.927,7.521-2.927c3.855,0,4.689,0.585,3.567,10.681l-5.189,46.669H238.3z M126.729,53.745
		c5.268,0,6.596,4.243,4.92,19.313c-2,17.995-4.386,24.432-9.654,24.432c-6.296,0-6.351-6.437-4.725-21.066
		C119.352,57.695,122.104,53.745,126.729,53.745 M129.597,36.043c-19.402,0-33.815,16.386-36.433,39.94
		c-2.781,25.017,7.317,39.355,26.333,39.355c15.804,0,32.909-11.704,36.226-41.55C158.731,46.724,145.915,36.043,129.597,36.043
		 M115.649,8.142H92.201l-9.329,34.676c-2.643,9.164-7.103,26.647-8.496,35.002H74.26c0.81-11.455,0.189-19.773-0.177-26.916
		L72,8.142H52.083L42.19,45.513c-3.748,13.881-6.443,24.895-7.747,32.441h-0.116c0.274-3.504,0.596-11.957-0.881-33.115
		l-2.41-36.697H9l9.973,105.306l22.63-0.012l7.319-27.224c3.336-12.264,6.47-24.797,7.227-29.514h0.116
		c-0.311,5.93,0.182,18.194,0.664,29.514l1.151,27.224h22.163L115.649,8.142z"/>
</g>
</svg>
