<?xml version="1.0" encoding="utf-8"?>
<!-- Generator: Adobe Illustrator 21.1.0, SVG Export Plug-In . SVG Version: 6.00 Build 0)  -->
<svg version="1.1" id="Layer_1" xmlns="http://www.w3.org/2000/svg" xmlns:xlink="http://www.w3.org/1999/xlink" x="0px" y="0px"
	 viewBox="0 0 85 18" style="enable-background:new 0 0 85 18;" xml:space="preserve">
<style type="text/css">
	.st0{fill:#FFFFFF;}
</style>
<title>AWW-logo</title>
<desc>Created with Sketch.</desc>
<g id="Page-1">
	<g id="AWW-logo">
		<path id="Shape" class="st0" d="M52.6,5.8l0.9,8.2h2.2l2-14h-2.2l-0.9,8h-0.1l-0.9-8h-2l-1,8h-0.1l-0.9-8h-2.3l2,14h2.2l0.9-8.2
			H52.6z M5.3,5.8L6.1,14h2.2l2-14H8.2L7.3,8H7.2L6.2,0h-2l-1,8H3.2L2.3,0H0l2,14h2.2l0.9-8.2H5.3z M16.4,13.8h2V8
			c0-1.3,0.3-1.9,0.8-1.9c0.6,0,0.6,0.8,0.6,1.8v5.9h2V8c0-1.3,0.3-1.9,0.8-1.9c0.6,0,0.6,0.8,0.6,1.8v5.9h2V7.6
			C25.3,5.4,25,4,23.4,4c-1,0-1.4,0.5-1.7,1.3h-0.1C21.3,4.5,20.9,4,20,4c-0.9,0-1.4,0.5-1.7,1.2h-0.1v-1h-1.9L16.4,13.8L16.4,13.8z
			 M9.8,9c0,3.3,0.9,5,3,5s3-1.7,3-5s-0.9-5-3-5S9.8,5.7,9.8,9z M69.8,13.8h2v-2.7l0.5-0.9l1.1,3.6h2.2l-2-5.9l2-3.7h-2.1l-1.6,3.4
			V1.4h-2V13.8z M67.3,10.6c0,0.9-0.2,1.6-0.8,1.6c-0.7,0-1-1.1-1-2.6h3.8c0-0.3,0-0.6,0-0.8C69.3,6,68.8,4,66.4,4c-2.2,0-3,2.2-3,5
			c0,3.3,1,5,3,5c1.6,0,2.6-1,2.8-3L67.3,10.6z M29.7,10.6c0,0.9-0.2,1.6-0.8,1.6c-0.7,0-1-1.1-1-2.6h3.8c0-0.3,0-0.6,0-0.8
			C31.7,6,31.2,4,28.8,4c-2.2,0-3,2.2-3,5c0,3.3,1,5,3,5c1.6,0,2.6-1,2.8-3L29.7,10.6z M61,10.6c0,0.9-0.2,1.6-0.8,1.6
			c-0.7,0-1-1.1-1-2.6H63c0-0.3,0-0.6,0-0.8C63,6,62.5,4,60.1,4c-2.2,0-3,2.2-3,5c0,3.3,1,5,3,5c1.6,0,2.6-1,2.8-3L61,10.6z M78,4.2
			l2,9.2c0.1,0.4,0.1,0.7,0.1,0.9c0,0.7-0.4,0.9-1,0.9c-0.2,0-0.5,0-0.7-0.1L78.2,17c0.4,0.1,0.7,0.1,1,0.1c1.8,0,2.4-0.9,2.8-2.4
			l2.3-10.4h-2.1l-0.7,4.2c-0.1,0.6-0.2,1.2-0.3,1.8h-0.1c0-0.5-0.2-1.1-0.2-1.7l-0.6-4.3H78z M37.8,7.7c0-2.2-0.3-3.7-1.8-3.7
			c-1,0-1.4,0.5-1.7,1.3h-0.1V4.2h-1.9v9.6h2V8c0-1.3,0.4-1.9,0.9-1.9c0.7,0,0.7,0.8,0.7,1.8v5.9h2V7.7z M44.7,6.7
			C44.6,5,43.9,4,42.2,4c-1.4,0-2.7,0.8-2.7,2.6c0,1.6,1,2.4,1.9,3c0.7,0.5,1.3,1,1.3,1.8c0,0.4-0.2,0.8-0.7,0.8
			c-0.7,0-0.8-0.7-0.8-1.5l-1.9,0.3c0,1.8,0.9,2.9,2.6,2.9c1.4,0,2.7-0.7,2.7-2.7c0-1.6-1-2.4-1.9-3.1c-0.6-0.5-1.3-1.1-1.3-1.8
			c0-0.4,0.2-0.8,0.7-0.8c0.6,0,0.6,0.9,0.6,1.3L44.7,6.7z M75.8,13.8h2V1.4h-2V13.8z M11.9,9c0-2.3,0.2-3.2,0.9-3.2
			c0.7,0,0.9,0.9,0.9,3.2s-0.2,3.2-0.9,3.2C12.1,12.2,11.9,11.3,11.9,9z M38,1.4v1.8h0.8c0,0.6-0.3,0.8-0.8,0.9v1c1.6,0,2-1.3,2-2.6
			V1.4H38z M27.9,8.1c0-0.9,0.1-2.3,1-2.3c0.8,0,0.8,1.3,0.8,2.3H27.9z M65.5,8.1c0-0.9,0.1-2.3,1-2.3c0.8,0,0.8,1.3,0.8,2.3H65.5z
			 M59.2,8.1c0-0.9,0.1-2.3,1-2.3c0.8,0,0.8,1.3,0.8,2.3H59.2z M12.7,1.8v1.4h-0.4V1.8h-0.5V1.4h1.5v0.3L12.7,1.8L12.7,1.8z
			 M14.8,3.2V2.5h-0.7v0.7h-0.4V1.4h0.4v0.7h0.7V1.4h0.4v1.7L14.8,3.2L14.8,3.2z M15.8,3.2V1.4H17v0.3h-0.9v0.4h0.8v0.3h-0.8v0.4
			h0.9v0.3L15.8,3.2L15.8,3.2z M19.2,3.2l-0.1-0.3v0h-0.7v0l-0.1,0.3h-0.4l0.7-1.7H19l0.7,1.7L19.2,3.2L19.2,3.2z M18.8,1.9
			l-0.2,0.6H19L18.8,1.9z M20.6,3.2c-0.5,0-0.7-0.3-0.7-0.6V1.4h0.4v1.2c0,0.2,0.1,0.3,0.3,0.3c0.2,0,0.3-0.1,0.3-0.3V1.4h0.4l0,1.2
			C21.3,2.9,21.1,3.2,20.6,3.2z M22.5,3.2c-0.3,0-0.5,0-0.7-0.2l0.1-0.3c0.1,0.1,0.3,0.1,0.5,0.1c0.2,0,0.4-0.1,0.4-0.2
			c0-0.2-0.1-0.2-0.4-0.2c-0.1,0-0.1,0-0.2,0c-0.3,0-0.4-0.2-0.4-0.5c0-0.4,0.3-0.5,0.7-0.5c0.2,0,0.4,0,0.6,0.1L23,1.9
			c-0.2-0.1-0.3-0.1-0.5-0.1c-0.2,0-0.3,0.1-0.3,0.2c0,0.1,0.2,0.2,0.4,0.2c0,0,0.1,0,0.1,0c0.3,0.1,0.5,0.2,0.5,0.5
			C23.2,3,22.9,3.2,22.5,3.2z M24.4,1.8v1.4H24V1.8h-0.5V1.4h1.5v0.3L24.4,1.8L24.4,1.8z M26.3,3.2L26,2.5h-0.3v0.6h-0.4V1.4h0.8
			c0.5,0,0.6,0.3,0.6,0.5v0.1c0,0.2-0.1,0.4-0.3,0.4l0.4,0.7L26.3,3.2L26.3,3.2z M26.3,1.9c0-0.1-0.1-0.2-0.3-0.2h-0.3v0.5H26
			C26.2,2.2,26.3,2.2,26.3,1.9L26.3,1.9z M28.3,3.2l-0.1-0.3v0h-0.7v0l-0.1,0.3H27l0.7-1.7H28l0.7,1.7L28.3,3.2L28.3,3.2z M27.8,1.9
			l-0.2,0.6h0.5L27.8,1.9z M29,3.2V1.4h0.4v1.4h0.8v0.3L29,3.2L29,3.2z M30.7,1.4h0.4v1.7h-0.4V1.4z M32.7,3.2l-0.1-0.3v0h-0.7v0
			l-0.1,0.3h-0.4l0.7-1.7h0.4l0.7,1.7L32.7,3.2L32.7,3.2z M32.3,1.9L32,2.6h0.5L32.3,1.9z M34.7,3.2l-0.8-1.1v1.1h-0.4V1.4h0.4
			l0.8,1.1V1.4H35v1.7L34.7,3.2L34.7,3.2z"/>
	</g>
</g>
</svg>
