<svg xmlns="http://www.w3.org/2000/svg" width="322.3" height="107.67" viewBox="0 0 322.3 107.67"><title>Bounty_White_notag</title><path d="M147.56,33.18l-.05,42.46c-1,.14-2.09.26-3.34.36s-2.45.15-3.56.15q-5.45,0-7.42-3.35t-2-10.88l0-28.75-15.58,0,0,30.64a44,44,0,0,0,1.14,10.35,20.57,20.57,0,0,0,3.86,8.11A17.71,17.71,0,0,0,128,87.54a31.13,31.13,0,0,0,11.66,1.89,83.23,83.23,0,0,0,13.17-1,88.36,88.36,0,0,0,10.25-2.13l.06-53.12Z" fill="#fff"/><path d="M259.75,74.49a26.51,26.51,0,0,1-4.81,1.29,29.57,29.57,0,0,1-5.13.47c-3.45,0-6.75-1-7.89-2.9a15.33,15.33,0,0,1-1.7-7.77V46.43h19.53V33.59H240.22V17.94s-2.08,2.61-7.06,2.61A11.25,11.25,0,0,1,225.79,18V65.79a43.47,43.47,0,0,0,1,9.63,17.69,17.69,0,0,0,3.47,7.4,16.37,16.37,0,0,0,6.63,4.77,27.54,27.54,0,0,0,10.45,1.71,36.31,36.31,0,0,0,8.39-.83,43.8,43.8,0,0,0,6.22-2Z" fill="#fff"/><path d="M107.81,48.72a26.46,26.46,0,0,0-5.53-9.1,25,25,0,0,0-8.51-5.87,28.16,28.16,0,0,0-10.93-2.1A27.67,27.67,0,0,0,72,33.73a25.17,25.17,0,0,0-8.58,5.85,26.78,26.78,0,0,0-5.66,9.09,32.78,32.78,0,0,0-2.05,11.81,33.91,33.91,0,0,0,2,11.87,26.88,26.88,0,0,0,5.54,9.21,24.37,24.37,0,0,0,8.51,5.92,28.05,28.05,0,0,0,11,2.1A28.36,28.36,0,0,0,93.92,87.5a24.45,24.45,0,0,0,8.53-5.9,25.63,25.63,0,0,0,5.44-9.19,35.91,35.91,0,0,0,1.9-11.87A33.77,33.77,0,0,0,107.81,48.72ZM91,72a9.35,9.35,0,0,1-8.22,4.23A9.47,9.47,0,0,1,74.54,72q-2.92-4.23-2.92-11.45t2.94-11.34A9.53,9.53,0,0,1,82.83,45,9.39,9.39,0,0,1,91,49.17q2.88,4.14,2.87,11.35T91,72Z" fill="#fff"/><path d="M214.1,39a17.58,17.58,0,0,0-7.37-5.18A32.07,32.07,0,0,0,195.07,32a83.45,83.45,0,0,0-13.18,1,88.36,88.36,0,0,0-10.25,2.13l0,53.12,15.58,0,0-42.46c1-.13,2.1-.26,3.35-.36s2.44-.15,3.56-.15q5.43,0,7.42,3.14t2,10.67l0,29.17,15.58,0,0-31.06A42.56,42.56,0,0,0,218,47,20.47,20.47,0,0,0,214.1,39Z" fill="#fff"/><path d="M306.19,33.35q-1.06,4.08-2.38,8.83t-2.74,9.62q-1.41,4.86-2.89,9.46c-1,3.07-1.94,5.85-2.85,8.36-1-2.51-2-5.3-3.09-8.37s-2.14-6.22-3.19-9.46-2-6.45-3-9.63-1.77-6.11-2.46-8.83l-16.52,0a290.79,290.79,0,0,0,10,29.24q5.31,13,10.64,23.48a18.11,18.11,0,0,1-3.82,6.22,8.72,8.72,0,0,1-6.44,2.24,24,24,0,0,1-4-.32A26.21,26.21,0,0,1,269.22,93l-2.73,12.44a29.44,29.44,0,0,0,5.07,1.52,31.07,31.07,0,0,0,6.76.69,26.91,26.91,0,0,0,7.7-1,16.94,16.94,0,0,0,5.92-3.13,25,25,0,0,0,4.82-5.43,61.1,61.1,0,0,0,4.41-8q6.09-13.05,11.24-27t9.89-29.79Z" fill="#fff"/><path d="M48.58,50.82a25.14,25.14,0,0,0-4.43-8.73,19.44,19.44,0,0,0-7.25-5.6,24.11,24.11,0,0,0-10-2,27.08,27.08,0,0,0-5.85.6,31.81,31.81,0,0,0-5.65,1.71l-.47-20s-2,2.5-7.11,2.5A13.76,13.76,0,0,1,.32,17.09l0,69.83c1.34.41,3.29.8,5,1.17s3.58.69,5.5,1,3.86.49,5.85.66,3.88.26,5.69.26a32.84,32.84,0,0,0,11.7-2,23.68,23.68,0,0,0,8.68-5.59,24.26,24.26,0,0,0,5.41-8.77,33.61,33.61,0,0,0,1.87-11.49A39.43,39.43,0,0,0,48.58,50.82ZM32.09,73.46q-3.23,4.35-9.54,4.34a21.49,21.49,0,0,1-3.83-.36,14.06,14.06,0,0,1-3.4-1l0-26.26a9,9,0,0,1,4.28-2.55,20.52,20.52,0,0,1,4.72-.62q11,0,11,14.92Q35.29,69.13,32.09,73.46Z" fill="#fff"/><path d="M252.87,16.82a5.67,5.67,0,1,0,5.66,5.68A5.68,5.68,0,0,0,252.87,16.82Z" fill="#fff"/><path d="M233.27,1.2A7.8,7.8,0,1,0,241.06,9,7.79,7.79,0,0,0,233.27,1.2Z" fill="#fff"/><path d="M7.8,0a7.8,7.8,0,1,0,7.79,7.8A7.81,7.81,0,0,0,7.8,0Z" fill="#fff"/></svg>