<?xml version="1.0" encoding="utf-8"?>
<!-- Generator: Adobe Illustrator 21.1.0, SVG Export Plug-In . SVG Version: 6.00 Build 0)  -->
<svg version="1.1" id="Layer_1" xmlns="http://www.w3.org/2000/svg" xmlns:xlink="http://www.w3.org/1999/xlink" x="0px" y="0px"
	 viewBox="0 0 481 151" style="enable-background:new 0 0 481 151;" xml:space="preserve">
<style type="text/css">
	.st0{fill:#FFFFFF;}
</style>
<title>Empire</title>
<desc>Created with Sketch.</desc>
<g id="Page-1">
	<g id="Empire">
		<path id="Shape" class="st0" d="M372.6,91.3c0,0,31.3-9.5,30.4-39.8c-0.7-15.4-6.3-27-23.6-37.1C360.5,3.5,322.7,1.7,322.7,1.7
			l0.1,122.5H349V100l33.3,24.8l22.1-9.3L372.6,91.3z M350.8,76.6V27.5c5.2,0.8,10.4,2.3,15.2,4.5c8.1,3.9,13.3,11.5,13.3,19.2
			c0,9.9-4,16-13.1,19.8C361.2,73.1,356.1,75,350.8,76.6z"/>
		<polygon id="Path" class="st0" points="0.2,1.9 67.3,1.9 69.8,22.5 25.8,22.5 25.8,45.2 58.8,45.2 58.8,65.5 26,65.5 26,104.1 
			70,104.1 66.6,124.2 0,124.2 		"/>
		<polygon id="Path_1_" class="st0" points="410.8,1.9 477.9,1.9 480.4,22.5 436.4,22.5 436.4,44.8 469.4,44.8 469.4,65.1 
			436.6,65.1 436.6,104.1 480.6,104.1 477.2,124.2 410.6,124.2 		"/>
		<rect id="Rectangle" x="287.5" y="1.7" class="st0" width="26" height="122.6"/>
		<polygon id="Path_2_" class="st0" points="75.4,124.2 83.3,0.3 135.9,83.8 186.3,0 194.2,123.9 168.2,124.2 165.5,81.2 
			135.3,126.7 103.9,80.6 101.5,124.1 		"/>
		<path id="Shape_1_" class="st0" d="M281.1,51.7c-0.5-14.9-6.5-27.3-22.6-37.2c-19-11.8-57.3-12.8-57.3-12.8v122.4h26.1V99.8
			c0,0,20.7-4.9,35.3-14.6C275.9,76.3,281.5,65.9,281.1,51.7z M247.7,69.3c-6.3,3.8-14.5,6.3-18.6,7.4V27.4c4,0.6,12.7,2.3,19.2,7.1
			c6.2,4.6,9.4,10.6,9.4,17.9C257.6,60,254.6,65.2,247.7,69.3z"/>
		<polygon id="Path_3_" class="st0" points="5.3,135.6 0,135.6 0,132.9 13.4,132.9 13.4,135.6 8.2,135.6 8.2,150.3 5.3,150.3 		"/>
		<polygon id="Path_4_" class="st0" points="16.2,132.9 19.1,132.9 19.1,140.1 27,140.1 27,132.9 29.9,132.9 29.9,150.3 27,150.3 
			27,142.8 19.1,142.8 19.1,150.3 16.2,150.3 		"/>
		<polygon id="Path_5_" class="st0" points="33.9,132.9 44.4,132.9 44.4,135.6 36.8,135.6 36.8,140.3 42.8,140.3 42.8,142.9 
			36.8,142.9 36.8,147.7 44.5,147.7 44.5,150.3 33.9,150.3 		"/>
		<polygon id="Path_6_" class="st0" points="52.8,132.9 55.8,132.9 60,144.1 63.7,133.3 64.4,133.3 68.1,144.2 72.3,132.9 
			75.2,132.9 68.5,150.5 67.8,150.5 64,139.7 60.2,150.5 59.5,150.5 		"/>
		<path id="Shape_2_" class="st0" d="M76.2,141.6c0-5.4,3.5-9,8-9s8,3.6,8,9s-3.5,9-8,9S76.2,147,76.2,141.6z M89.2,141.6
			c0-3.8-2.1-6.3-5-6.3s-5,2.5-5,6.3c0,3.8,2,6.3,5,6.3S89.2,145.4,89.2,141.6L89.2,141.6z"/>
		<path id="Shape_3_" class="st0" d="M108.7,150.3h-3.3l-3.6-5.6c-0.7,0.1-1.4,0.1-2.1,0.1h-1.3v5.5h-2.9v-17.4h3.4
			c5.9,0,8.8,1.9,8.8,6c0.1,2.2-1.1,4.2-3.1,5L108.7,150.3z M99.7,142.3c3.8,0,5.2-1.1,5.2-3.3s-1.4-3.3-5.2-3.3h-1.3v6.7H99.7z"/>
		<polygon id="Path_7_" class="st0" points="111.6,132.9 114.5,132.9 114.5,147.7 122,147.7 122,150.3 111.6,150.3 		"/>
		<path id="Shape_4_" class="st0" d="M124.8,132.9h3c6.4,0,10.4,2.6,10.4,8.7c0,6.1-4,8.7-10.4,8.7h-3V132.9z M129.2,147.7
			c4.1,0,6.1-2.1,6.1-6s-2.1-6.1-6.1-6.1h-1.4v12.1H129.2z"/>
		<polygon id="Path_8_" class="st0" points="142.4,132.9 145.5,132.9 143.3,139.7 141.3,139.7 		"/>
		<path id="Path_9_" class="st0" d="M147.5,149.2l0.9-2.5c1.7,0.7,3.6,1.1,5.5,1.2c2.2,0,3.4-0.7,3.4-2.2c0-1.5-1.8-2.2-3.7-3
			c-2.7-1-5.5-2.1-5.5-5.4s2.6-4.7,6.2-4.7c1.7,0,3.4,0.3,4.9,0.9l-0.8,2.6c-1.4-0.5-2.9-0.8-4.4-0.8c-1.8,0-3,0.6-3,1.9
			c0,1.5,1.7,2.2,3.7,2.9c2.7,1.1,5.5,2.1,5.5,5.5c0,2.9-1.9,4.9-6.7,4.9C151.4,150.5,149.4,150.1,147.5,149.2z"/>
		<path id="Shape_5_" class="st0" d="M170,132.9h3.8c5,0,7.9,1.1,7.9,4.5c0,1.8-1.2,3.3-2.9,3.8c1.9,0.4,3.6,1.7,3.6,4.2
			c0,3.2-2.6,4.9-8.3,4.9H170V132.9z M174.8,140.1c2.9,0,4-0.8,4-2.3c0-1.6-1.5-2.2-4.4-2.2h-1.7v4.6H174.8z M174.5,147.8
			c3.7,0,5-0.9,5-2.6c0-1.7-1.7-2.6-4.8-2.6h-2v5.2H174.5z"/>
		<polygon id="Path_10_" class="st0" points="185.7,132.9 188.6,132.9 188.6,150.3 185.7,150.3 		"/>
		<path id="Path_11_" class="st0" d="M192,141.6c0-6,4.1-9,8.8-9c1.4,0,2.7,0.2,4,0.7l-0.8,2.6c-1-0.3-2-0.5-3.1-0.5
			c-3.6,0-6,2.3-6,6.3c0,4,2.4,6.3,5.6,6.3c0.6,0,1.3-0.1,1.9-0.3V142h2.8v7.8c-1.5,0.5-3.1,0.8-4.7,0.8
			C196.1,150.6,192,147.6,192,141.6z"/>
		<path id="Path_12_" class="st0" d="M208.3,141.6c0-6,4.1-9,8.8-9c1.4,0,2.7,0.2,4,0.7l-0.8,2.6c-1-0.3-2-0.5-3.1-0.5
			c-3.6,0-6,2.3-6,6.3c0,4,2.4,6.3,5.6,6.3c0.6,0,1.3-0.1,1.9-0.3V142h2.8v7.8c-1.5,0.5-3.1,0.8-4.7,0.8
			C212.3,150.6,208.3,147.6,208.3,141.6z"/>
		<polygon id="Path_13_" class="st0" points="225.4,132.9 235.9,132.9 235.9,135.6 228.3,135.6 228.3,140.3 234.3,140.3 
			234.3,142.9 228.3,142.9 228.3,147.7 236,147.7 236,150.3 225.4,150.3 		"/>
		<path id="Path_14_" class="st0" d="M238.1,149.2l0.9-2.5c1.7,0.7,3.6,1.1,5.5,1.2c2.2,0,3.4-0.7,3.4-2.2c0-1.5-1.8-2.2-3.7-3
			c-2.7-1-5.5-2.1-5.5-5.4s2.6-4.7,6.2-4.7c1.7,0,3.4,0.3,4.9,0.9l-0.8,2.6c-1.4-0.5-2.9-0.8-4.4-0.8c-1.8,0-3,0.6-3,1.9
			c0,1.5,1.7,2.2,3.7,2.9c2.7,1.1,5.5,2.1,5.5,5.5c0,2.9-1.9,4.9-6.7,4.9C242.1,150.6,240,150.1,238.1,149.2z"/>
		<polygon id="Path_15_" class="st0" points="257.6,135.6 252.4,135.6 252.4,132.9 265.8,132.9 265.8,135.6 260.5,135.6 
			260.5,150.3 257.6,150.3 		"/>
		<polygon id="Path_16_" class="st0" points="275.9,132.6 276.9,132.6 283.5,145 290.2,132.6 291.2,132.6 292.5,150.3 289.6,150.3 
			288.9,140.2 283.8,149.7 283.2,149.7 278.1,140.2 277.4,150.3 274.7,150.3 		"/>
		<path id="Shape_6_" class="st0" d="M295.1,141.6c0-5.4,3.5-9,8-9s8,3.6,8,9s-3.5,9-8,9S295.1,147,295.1,141.6z M308.1,141.6
			c0-3.8-2.1-6.3-5-6.3c-3,0-5,2.5-5,6.3c0,3.8,2,6.3,5,6.3S308.1,145.4,308.1,141.6L308.1,141.6z"/>
		<polygon id="Path_17_" class="st0" points="311.9,132.9 315,132.9 319.9,144.9 324.7,132.9 327.6,132.9 320.3,150.5 319.3,150.5 
					"/>
		<polygon id="Path_18_" class="st0" points="330.1,132.9 333.1,132.9 333.1,150.3 330.1,150.3 		"/>
		<polygon id="Path_19_" class="st0" points="337.2,132.9 347.6,132.9 347.6,135.6 340.1,135.6 340.1,140.3 346.1,140.3 
			346.1,142.9 340.1,142.9 340.1,147.7 347.8,147.7 347.8,150.3 337.2,150.3 		"/>
		<polygon id="Path_20_" class="st0" points="358.5,132.6 359.5,132.6 366.1,145 372.8,132.6 373.8,132.6 375,150.3 372.1,150.3 
			371.4,140.2 366.3,149.7 365.7,149.7 360.6,140.2 359.9,150.3 357.2,150.3 		"/>
		<path id="Shape_7_" class="st0" d="M379.9,150.3h-2.9l7.3-17.6h0.9l7.4,17.6h-3.1l-1.3-3.1h-7.3L379.9,150.3z M384.7,138.3
			l-2.6,6.5h5.3L384.7,138.3z"/>
		<path id="Path_21_" class="st0" d="M393.5,141.6c0-6,4.1-9,8.8-9c1.4,0,2.7,0.2,4,0.7l-0.8,2.6c-1-0.3-2-0.5-3.1-0.5
			c-3.6,0-6,2.3-6,6.3c0,4,2.4,6.3,5.6,6.3c0.6,0,1.3-0.1,1.9-0.3V142h2.8v7.8c-1.5,0.5-3.1,0.8-4.7,0.8
			C397.5,150.6,393.5,147.6,393.5,141.6z"/>
		<path id="Shape_8_" class="st0" d="M411.7,150.3h-2.9l7.3-17.6h0.9l7.4,17.6h-3.1l-1.3-3.1h-7.3L411.7,150.3z M416.5,138.3
			l-2.6,6.5h5.3L416.5,138.3z"/>
		<polygon id="Path_22_" class="st0" points="425.9,149.8 434.1,135.6 426.7,135.6 426.7,132.9 438.7,132.9 438.7,133.3 
			430.3,147.7 438.7,147.7 438.7,150.3 425.8,150.3 		"/>
		<polygon id="Path_23_" class="st0" points="442,132.9 444.9,132.9 444.9,150.3 442,150.3 		"/>
		<polygon id="Path_24_" class="st0" points="451.8,139 451.8,150.3 449,150.3 449,132.7 450,132.7 459.9,144 459.9,132.9 
			462.7,132.9 462.7,150.4 461.9,150.4 		"/>
		<polygon id="Path_25_" class="st0" points="466.6,132.9 477.1,132.9 477.1,135.6 469.5,135.6 469.5,140.3 475.5,140.3 
			475.5,142.9 469.5,142.9 469.5,147.7 477.2,147.7 477.2,150.3 466.6,150.3 		"/>
	</g>
</g>
</svg>
