<?xml version="1.0" encoding="utf-8"?>
<!-- Generator: Adobe Illustrator 21.1.0, SVG Export Plug-In . SVG Version: 6.00 Build 0)  -->
<svg version="1.1" id="Layer_1" xmlns="http://www.w3.org/2000/svg" xmlns:xlink="http://www.w3.org/1999/xlink" x="0px" y="0px"
	 viewBox="0 0 94 16" style="enable-background:new 0 0 94 16;" xml:space="preserve">
<style type="text/css">
	.st0{fill:#FFFFFF;}
</style>
<title>MB-logo</title>
<desc>Created with Sketch.</desc>
<g id="Page-1">
	<g id="MB-logo">
		<path id="Shape" class="st0" d="M87.8,15.8c1.6,0,2.4-0.8,3.1-2.9l3-8.8h-3l-1.6,5.4l-1.6-5.4h-3l3.2,8.8
			c-0.2,0.3-0.4,0.4-0.7,0.4c-0.3,0-0.8-0.2-1.3-0.5L85.2,15C86,15.5,86.8,15.8,87.8,15.8z M81.2,10.6c-0.9,0-1.7-0.8-1.7-2v0
			c0-1.2,0.7-2,1.7-2c0.9,0,1.7,0.8,1.7,2v0C82.8,9.8,82.1,10.6,81.2,10.6z M82,13.3c1.9,0,3.6-1.8,3.6-4.7v0c0-2.9-1.7-4.7-3.6-4.7
			c-1.2,0-1.9,0.6-2.5,1.4V1h-2.9v12.1h2.9V12C80.1,12.7,80.8,13.3,82,13.3z M72.1,11.3c-0.6,0-1-0.4-1-1v0c0-0.7,0.5-1.1,1.3-1.1
			c0.4,0,0.8,0.1,1.1,0.2v0.4C73.5,10.7,72.9,11.3,72.1,11.3z M71,13.3c1.1,0,1.9-0.5,2.4-1.1v0.9h2.9V7.9c0-1.3-0.3-2.2-0.9-2.9
			c-0.7-0.7-1.7-1.1-3.1-1.1c-1.4,0-2.4,0.3-3.3,0.7l0.6,2.2c0.7-0.3,1.4-0.5,2.3-0.5c1.1,0,1.6,0.5,1.6,1.5V8
			c-0.5-0.2-1.2-0.3-2-0.3c-1.9,0-3.2,1-3.2,2.8v0C68.3,12.3,69.5,13.3,71,13.3z M61.5,10.5V8.3h2.2c1,0,1.4,0.4,1.4,1v0
			c0,0.7-0.5,1.1-1.4,1.1H61.5z M61.5,5.9V3.6h1.9c0.9,0,1.3,0.4,1.3,1v0c0,0.7-0.5,1.2-1.4,1.2L61.5,5.9z M58.7,13.1h5.5
			c2.5,0,4-1.2,4-3.2v0c0-1.6-0.8-2.6-2.1-3.1C67,6.3,67.7,5.3,67.7,4v0c0-0.8-0.3-1.4-0.7-1.9c-0.6-0.7-1.6-1-2.9-1h-5.4L58.7,13.1
			L58.7,13.1z M44.2,13.1h2.9v-2.8c0-2.1,0.9-3,2.4-3h0.2V3.9c-1.4-0.1-2.1,0.7-2.6,2V4.1h-2.9L44.2,13.1L44.2,13.1z M38.5,7.8
			c0.2-1,0.7-1.6,1.4-1.6c0.8,0,1.3,0.6,1.4,1.6H38.5z M40.2,13.3c1.6,0,2.8-0.7,3.6-1.8L42.2,10c-0.6,0.6-1.1,0.9-1.8,0.9
			c-0.9,0-1.6-0.5-1.8-1.5h5.5c0-0.2,0-0.5,0-0.6c0-2.7-1.3-4.9-4.1-4.9c-2.4,0-4.1,2.1-4.1,4.7v0C35.8,11.4,37.6,13.3,40.2,13.3z
			 M27.5,13.1h2.9V8.2c0-1,0.5-1.5,1.2-1.5c0.7,0,1.2,0.5,1.2,1.5v4.9h2.9V7.2c0-2-1.1-3.3-2.8-3.3c-1.2,0-1.9,0.7-2.5,1.4V1h-2.9
			L27.5,13.1L27.5,13.1L27.5,13.1L27.5,13.1z M25.1,13.3c0.8,0,1.5-0.2,2-0.5v-2.5c-0.4,0.2-0.7,0.3-1.1,0.3c-0.5,0-0.8-0.3-0.8-0.9
			v-3h1.9V4.1h-1.9V1.4l-2.9,0.7v2h-1v2.5h1v3.7C22.4,12.4,23.4,13.3,25.1,13.3z M17.1,10.6c-1,0-1.7-0.9-1.7-2v0c0-1.1,0.7-2,1.7-2
			c1,0,1.8,0.9,1.8,2v0C18.8,9.7,18.1,10.6,17.1,10.6z M17,13.3c2.6,0,4.5-2.1,4.5-4.7v0c0-2.6-1.9-4.7-4.5-4.7
			c-2.6,0-4.5,2.1-4.5,4.7v0C12.5,11.2,14.4,13.3,17,13.3z M1,13.1h2.9V6.4l2.7,4.5h0.1l2.7-4.6v6.7h2.9V1H9.1L6.6,5.9L4.1,1H1V13.1
			z"/>
		<path id="Path" class="st0" d="M56.5,6.3l1.1-1.4l-0.4-0.3l-2.4,3.2l0.4,0.3l1-1.3c1,0.6,1.6,1.5,1.6,2.7c0,1.9-1.7,3.3-3.9,3.3
			c-2.2,0-3.9-1.4-3.9-3.3c0-1.7,1.4-3,3.3-3.3l0.3-0.7c-0.1,0-0.1,0-0.2,0c-1.1-0.1-1.9-1-1.9-2c0-1.3,0.9-2.1,2.1-2.1
			c1.1,0,1.9,0.8,2.1,1.6l0.5-0.3c-0.3-1-1.4-1.9-2.6-1.9c-1.5,0-2.8,1-2.8,2.6c0,0.9,0.5,1.9,1.5,2.3c-1.7,0.6-2.9,2-2.9,3.7
			c0,2.2,2,4,4.5,4c2.5,0,4.5-1.8,4.5-4C58.3,8.2,57.6,7,56.5,6.3"/>
	</g>
</g>
</svg>
