<?xml version="1.0" encoding="utf-8"?>
<!-- Generator: Adobe Illustrator 21.1.0, SVG Export Plug-In . SVG Version: 6.00 Build 0)  -->
<svg version="1.1" id="Layer_1" xmlns="http://www.w3.org/2000/svg" xmlns:xlink="http://www.w3.org/1999/xlink" x="0px" y="0px"
	 viewBox="0 0 51 20" style="enable-background:new 0 0 51 20;" xml:space="preserve">
<style type="text/css">
	.st0{fill:#FFFFFF;}
</style>
<title>NTL-logo</title>
<desc>Created with Sketch.</desc>
<g id="Page-1">
	<g id="NTL-logo">
		<polygon id="Path" class="st0" points="21.3,15.7 20.1,15.7 20.1,15.4 22.8,15.4 22.8,15.7 21.6,15.7 21.6,18.7 21.3,18.7 		"/>
		<path id="Shape" class="st0" d="M23.8,17c0-0.2,0-0.5,0.1-0.7c0.1-0.2,0.2-0.4,0.4-0.5c0.2-0.2,0.3-0.3,0.5-0.3
			c0.2-0.1,0.5-0.1,0.7-0.1c0.2,0,0.5,0,0.7,0.1c0.2,0.1,0.4,0.2,0.5,0.3c0.2,0.1,0.3,0.3,0.4,0.5c0.2,0.4,0.2,0.9,0,1.3
			c-0.1,0.2-0.2,0.4-0.4,0.5c-0.2,0.1-0.3,0.3-0.5,0.3c-0.2,0.1-0.5,0.1-0.7,0.1c-0.2,0-0.5,0-0.7-0.1c-0.2-0.1-0.4-0.2-0.5-0.3
			c-0.2-0.1-0.3-0.3-0.4-0.5C23.8,17.4,23.8,17.2,23.8,17z M24.1,17c0,0.2,0,0.4,0.1,0.5c0.1,0.2,0.2,0.3,0.3,0.4
			c0.1,0.1,0.3,0.2,0.5,0.3c0.2,0.1,0.4,0.1,0.6,0.1c0.2,0,0.4,0,0.6-0.1c0.2-0.1,0.3-0.2,0.4-0.3c0.5-0.5,0.5-1.4,0-1.9
			c-0.1-0.1-0.3-0.2-0.4-0.3c-0.2-0.1-0.4-0.1-0.6-0.1c-0.2,0-0.4,0-0.6,0.1c-0.2,0.1-0.3,0.2-0.5,0.3c-0.1,0.1-0.2,0.3-0.3,0.4
			C24.1,16.6,24.1,16.8,24.1,17z"/>
		<polygon id="Path_1_" class="st0" points="30.7,15.4 31,15.4 31,18.4 32.6,18.4 32.6,18.6 30.6,18.6 		"/>
		<path id="Shape_1_" class="st0" d="M33.9,17c0-0.2,0-0.4,0.1-0.7c0.1-0.2,0.2-0.4,0.4-0.5c0.2-0.2,0.3-0.3,0.5-0.3
			c0.2-0.1,0.5-0.1,0.7-0.1c0.2,0,0.5,0,0.7,0.1c0.2,0.1,0.4,0.2,0.5,0.3c0.1,0.1,0.3,0.3,0.3,0.5c0.2,0.4,0.2,0.9,0,1.3
			c-0.1,0.2-0.2,0.4-0.3,0.5c-0.2,0.1-0.3,0.3-0.5,0.3c-0.2,0.1-0.5,0.1-0.7,0.1c-0.2,0-0.5,0-0.7-0.1c-0.2-0.1-0.4-0.2-0.5-0.3
			c-0.2-0.1-0.3-0.3-0.4-0.5C33.9,17.4,33.9,17.2,33.9,17z M34.2,17c0,0.2,0,0.4,0.1,0.5c0.1,0.2,0.2,0.3,0.3,0.4
			c0.1,0.1,0.3,0.2,0.4,0.3c0.4,0.1,0.8,0.1,1.2,0c0.2-0.1,0.3-0.2,0.4-0.3c0.1-0.1,0.2-0.3,0.3-0.4c0-0.2,0.1-0.4,0-0.5
			c0-0.2,0-0.4-0.1-0.5c-0.1-0.2-0.2-0.3-0.3-0.4c-0.1-0.1-0.3-0.2-0.4-0.3c-0.4-0.1-0.8-0.1-1.2,0c-0.2,0.1-0.3,0.2-0.4,0.3
			c-0.1,0.1-0.2,0.3-0.3,0.4C34.2,16.6,34.2,16.8,34.2,17z"/>
		<polygon id="Path_2_" class="st0" points="38.6,15.4 38.9,15.4 40.1,18.2 41.2,15.4 41.5,15.4 40.2,18.6 39.9,18.6 		"/>
		<polygon id="Path_3_" class="st0" points="42.9,15.4 45.1,15.4 45.1,15.6 43.3,15.6 43.3,16.8 45,16.8 45,17.1 43.3,17.1 
			43.3,18.4 45.2,18.4 45.2,18.6 42.9,18.6 		"/>
		<path id="Path_4_" class="st0" d="M50.1,0c0,0-0.3,1-1.8,5.1l-3.2,8.8h-1l-4-8.9L37,13.9h-1c-2.5-5.6-5.4-11.9-5.4-11.9
			c-0.7-1.4-1.5-1.5-2-1.5V0h5.8l1.1,2.6l2.9,6.2l1.5-4.2c-0.4-1-1.2-2.6-1.2-2.6c-0.7-1.4-1.1-1.5-1.6-1.5V0h5.4l1.2,2.6l2.8,6.2
			c0,0,1.6-3.5,1.6-5.9c0-0.5-0.1-0.9-0.3-1.3c-0.4-0.7-1.1-1.1-1.9-1.1V0H50.1z"/>
		<path id="Shape_2_" class="st0" d="M23,0c-4.7,0-7,3.1-7,6.9s2.4,6.9,7,6.9s7-3.1,7-6.9S27.7,0,23,0z M23,13.4
			c-1.3,0-2.4-2.9-2.4-6.5c0-2.6,0.4-4.8,1.3-5.9c0.3-0.4,0.7-0.6,1.2-0.6c0.4,0,0.9,0.2,1.1,0.5c0.8,1,1.3,3.4,1.3,6
			C25.5,10.5,24.4,13.4,23,13.4z"/>
		<path id="Path_5_" class="st0" d="M15.6,17.8c-1.3-1.5-1.2-5-1.2-5V3.7C14.4,2,13,0,10.1,0c-1.7,0.1-3.3,1.1-4,2.7V0
			C4.2,0.9,2.1,1.3,0,1.2v0.2c1.1,0.4,1.4,0.9,1.4,1.9v7.2c0,1.5,0,2.8-1.1,3.1v0.2h6.9v-0.2c-1-0.3-1.1-1.5-1.1-3.1V2.8
			c0.4-0.5,1-0.9,1.7-0.9c0.6,0,1.1,0.2,1.5,0.6c0.4,0.4,0.5,1,0.5,1.5v8c0,1.5,0.3,2.9,0.9,4.3c1.1,2.1,3.2,3.4,5.6,3.4
			c1.1,0.1,2.2-0.3,3.1-1C18,19.2,16.5,18.8,15.6,17.8z"/>
	</g>
</g>
</svg>
