<?xml version="1.0" encoding="utf-8"?>
<!-- Generator: Adobe Illustrator 21.1.0, SVG Export Plug-In . SVG Version: 6.00 Build 0)  -->
<svg version="1.1" id="Layer_1" xmlns="http://www.w3.org/2000/svg" xmlns:xlink="http://www.w3.org/1999/xlink" x="0px" y="0px"
	 viewBox="0 0 27.7 27.7" style="enable-background:new 0 0 27.7 27.7;" xml:space="preserve">
<style type="text/css">
	.st0{fill:#FFFFFF;}
</style>
<title>NW-logo</title>
<path class="st0" d="M8.1,0H5.9C3-0.2,0.4,1.9,0.1,4.8l0,0v0.1C0,5.2,0,5.5,0,5.8v21.9L3.8,23h17.9c5.9,0,5.9-5.8,5.9-5.8V0H8.1z
	 M10.9,18c0,0.4-0.3,0.7-0.7,0.7H8.3c-0.4,0-0.8-0.3-0.9-0.7l-1.6-5.1c0-0.1,0-0.2-0.1-0.3c0,0-0.1,0.1-0.1,0.3v5.8H3.1
	c-0.4,0-0.7-0.3-0.7-0.7c0,0,0,0,0,0l0,0V5.2c0-0.4,0.3-0.7,0.7-0.7h1.7c0.4,0,0.8,0.3,1,0.7l1.7,5c0,0.2,0.1,0.3,0.1,0.3
	s0.1-0.1,0.1-0.3V4.5h2.4c0.4,0,0.7,0.3,0.7,0.7c0,0,0,0,0,0l0,0V18z M24.5,18c-0.1,0.4-0.4,0.7-0.8,0.7h-3.3
	c-0.4,0-0.8-0.3-0.9-0.7c-0.4-2.4-0.8-4.7-1-6.8c-0.2,1.2-0.5,3.7-1.1,7.5h-4c-0.4,0-0.8-0.3-0.8-0.7L11.2,5.2
	c-0.1-0.3,0.2-0.7,0.5-0.7h2.4c0.4,0,0.7,0.3,0.8,0.7l0.6,8.3c0,0.2,0,0.3,0.1,0.3c0-0.1,0.1-0.2,0.1-0.3c0.3-3.1,0.6-6.1,1-9.1h3.2
	c0.4,0,0.7,0.3,0.8,0.7c0.1,0.8,0.2,2.1,0.3,4l0.4,4.7c0,0.1,0,0.2,0.1,0.3c0-0.1,0.1-0.2,0.1-0.3c0.3-3.8,0.6-6.9,1-9.4h3
	c0.4,0,0.7,0.3,0.7,0.7c0,0,0,0,0,0c0,0,0,0,0,0.1L24.5,18z"/>
</svg>
