<?xml version="1.0" encoding="utf-8"?>
<!-- Generator: Adobe Illustrator 21.1.0, SVG Export Plug-In . SVG Version: 6.00 Build 0)  -->
<svg version="1.1" id="Layer_1" xmlns="http://www.w3.org/2000/svg" xmlns:xlink="http://www.w3.org/1999/xlink" x="0px" y="0px"
	 viewBox="0 0 33 19.6" style="enable-background:new 0 0 33 19.6;" xml:space="preserve">
<style type="text/css">
	.st0{fill:#FFFFFF;}
</style>
<title>OK-logo</title>
<polygon class="st0" points="9.2,15 9.2,15 8.7,16.5 9.6,16.5 9.2,15 "/>
<path class="st0" d="M8,10.5c1.9,0,3.6-1.4,3.9-3.3c0.1-1.5-0.9-2.8-2.4-2.9c-0.2,0-0.3,0-0.5,0c-1.8,0-3.4,1.2-3.9,2.9
	c-0.3,1.5,0.6,2.9,2,3.2C7.5,10.5,7.7,10.5,8,10.5z"/>
<polygon class="st0" points="17.7,15 17.6,15 17.2,16.5 18.1,16.5 17.7,15 "/>
<path class="st0" d="M0,0v19.6h33V0H0z M27.9,1.6h3v7.5h-3V1.6z M19.8,1.6L19,6.3l0,0l4.5-4.7h3.9l-5.6,5.3l4.2,6h-4L18.8,8l0,0
	L18,12.9h-3.1l1.9-11.3L19.8,1.6z M2,7.2c0.6-3.3,4.1-5.7,7.6-5.7s6.2,2.3,5.6,5.7c-0.7,3.6-3.9,6.2-7.7,6.1
	C3.7,13.3,1.4,10.7,2,7.2z M6.8,18.1H5.7v-3.3l0,0l-1,3.3H4l-1-3.4l0,0v3.3H2v-4.4h1.5l0.9,2.9l0,0l0.9-2.9h1.5L6.8,18.1z
	 M10.2,18.1L10,17.4H8.4l-0.2,0.6H6.9l1.8-4.4h0.9l1.8,4.4H10.2z M13.4,18.2c-1.3,0-2.4-1-2.4-2.3c0,0,0,0,0-0.1
	c0-1.3,1.1-2.3,2.4-2.3c0,0,0,0,0.1,0c1,0,1.9,0.6,2.3,1.6h-1.3c-0.2-0.4-0.6-0.6-1-0.6c-0.7,0.1-1.3,0.7-1.2,1.4
	c0.1,0.6,0.6,1.1,1.2,1.2c0.5,0.1,1-0.2,1.1-0.7h-1.4v-0.9h2.7c0,0.1,0,0.1,0,0.2C15.9,17.1,14.8,18.1,13.4,18.2
	C13.5,18.2,13.5,18.2,13.4,18.2L13.4,18.2z M18.7,18.1l-0.2-0.6h-1.6l-0.2,0.6h-1.3l1.8-4.4h0.9l1.8,4.4H18.7z M23,14.6l-1.5,2.5H23
	v1h-2.9v-0.8l1.6-2.7h-1.6v-1H23V14.6z M24.4,18.1h-1.2v-4.4h1.2L24.4,18.1z M28.4,18.1h-1l-1.7-2.7l0,0v2.7h-1.1v-4.4h1l1.8,2.8
	l0,0v-2.8h1.1L28.4,18.1z M31.2,14.6h-1.4v0.7h1.4v1h-1.4v0.8h1.4v1h-2.5v-4.4h2.5L31.2,14.6z M29.4,13.2c-1,0-1.7-0.9-1.7-1.8
	s0.9-1.7,1.8-1.7c0.9,0,1.7,0.8,1.7,1.8C31.3,12.4,30.4,13.2,29.4,13.2C29.4,13.2,29.4,13.2,29.4,13.2L29.4,13.2z"/>
</svg>
