<?xml version="1.0" encoding="UTF-8"?>
<svg width="41px" height="19px" viewBox="0 0 41 19" version="1.1" xmlns="http://www.w3.org/2000/svg" xmlns:xlink="http://www.w3.org/1999/xlink">
    <!-- Generator: Sketch 52.6 (67491) - http://www.bohemiancoding.com/sketch -->
    <title>SHOP-logo</title>
    <desc>Created with Sketch.</desc>
    <g id="Page-1" stroke="none" stroke-width="1" fill="none" fill-rule="evenodd">
        <g id="SHOP-logo" fill="#E1146E">
            <g id="Group" transform="translate(10.000000, 0.000000)">
                <polygon id="Path" points="0.445 0.691 3.767 0.691 3.767 5.968 6.412 5.968 6.412 0.691 9.733 0.691 9.733 14.789 6.412 14.789 6.412 8.762 3.767 8.762 3.767 14.789 0.445 14.789"></polygon>
                <path d="M15.638,15.066 C11.27,15.066 10.68,12.224 10.68,7.734 C10.68,3.244 11.27,0.401 15.638,0.401 C20.339,0.401 20.598,3.825 20.598,7.734 C20.598,11.656 20.339,15.066 15.638,15.066 Z M15.619,12.854 C16.965,12.854 17.154,11.605 17.154,7.733 C17.154,3.864 16.955,2.616 15.619,2.616 C14.311,2.616 14.124,3.864 14.124,7.733 C14.124,11.604 14.313,12.854 15.619,12.854 Z" id="Shape" fill-rule="nonzero"></path>
                <path d="M21.546,0.691 L26.685,0.691 C30.175,0.691 30.854,3.215 30.854,4.981 C30.854,7.506 29.647,9.293 26.335,9.293 L24.867,9.293 L24.867,14.791 L21.546,14.791 L21.546,0.691 Z M24.867,6.828 L25.774,6.828 C27.1,6.828 27.41,6 27.41,5.052 C27.41,3.966 27.051,3.138 25.715,3.138 L24.866,3.138 L24.867,6.828 Z" id="Shape" fill-rule="nonzero"></path>
            </g>
            <path d="M3.53,10.498 L3.53,10.987 C3.53,12.053 3.831,12.865 4.977,12.865 C6.144,12.865 6.473,11.995 6.473,11.19 C6.473,8.146 0.406,9.841 0.406,4.576 C0.406,2.32 1.614,0.424 5.026,0.424 C8.348,0.424 9.525,2.1 9.525,4.275 L9.525,4.616 L6.325,4.616 C6.325,3.945 6.246,3.449 6.047,3.139 C5.846,2.797 5.537,2.647 5.038,2.647 C4.212,2.647 3.712,3.136 3.712,4.165 C3.712,7.106 9.777,5.631 9.777,10.598 C9.777,13.802 8.002,15.078 4.959,15.078 C2.544,15.078 0.319,14.349 0.319,11.405 L0.319,10.5 L3.53,10.5 L3.53,10.498 Z" id="Path"></path>
            <g id="Group" transform="translate(0.000000, 15.000000)">
                <polygon id="Path" points="0.399 3.119 0.399 1.153 0 1.153 0 0.844 1.177 0.844 1.177 1.153 0.778 1.153 0.778 3.119"></polygon>
                <polygon id="Path" points="1.417 3.119 1.417 0.846 1.796 0.846 1.796 3.119"></polygon>
                <polygon id="Path" points="2.085 3.119 2.085 0.846 2.464 0.846 2.464 2.811 3.034 2.811 3.034 3.121"></polygon>
                <polygon id="Path" points="3.9 3.119 3.9 2.223 3.381 0.846 3.79 0.846 4.098 1.715 4.348 0.846 4.757 0.846 4.288 2.233 4.288 3.133 3.9 3.133"></polygon>
                <path d="M6.065,2.602 C6.065,2.791 6.015,2.93 5.926,3.02 C5.826,3.112 5.676,3.151 5.466,3.151 C5.258,3.151 5.107,3.112 5.007,3.02 C4.907,2.93 4.868,2.791 4.868,2.602 L4.868,1.356 C4.868,1.168 4.917,1.028 5.007,0.936 C5.107,0.846 5.257,0.805 5.466,0.805 C5.676,0.805 5.826,0.846 5.926,0.936 C6.026,1.028 6.065,1.166 6.065,1.356 L6.065,2.602 Z M5.249,2.602 C5.249,2.752 5.318,2.832 5.468,2.832 C5.618,2.832 5.687,2.752 5.687,2.602 L5.687,1.356 C5.687,1.207 5.619,1.127 5.468,1.127 C5.317,1.127 5.249,1.205 5.249,1.356 L5.249,2.602 Z" id="Shape" fill-rule="nonzero"></path>
                <path d="M6.345,0.846 L6.724,0.846 L6.724,2.612 C6.724,2.762 6.794,2.842 6.944,2.842 C7.094,2.842 7.164,2.762 7.164,2.612 L7.164,0.846 L7.543,0.846 L7.543,2.612 C7.543,2.801 7.492,2.944 7.402,3.033 C7.302,3.121 7.152,3.162 6.955,3.162 C6.747,3.162 6.596,3.121 6.496,3.033 C6.395,2.94 6.355,2.803 6.355,2.612 L6.355,0.846 L6.345,0.846 Z" id="Path"></path>
                <path d="M8.201,3.119 L8.201,0.846 L8.86,0.846 C9.06,0.846 9.2,0.897 9.291,1.006 C9.36,1.094 9.4,1.223 9.4,1.395 L9.4,2.582 C9.4,2.76 9.359,2.901 9.28,2.981 C9.19,3.082 9.051,3.121 8.86,3.121 L8.201,3.119 Z M8.579,2.823 L8.799,2.823 C8.948,2.823 9.018,2.732 9.018,2.562 L9.018,1.384 C9.018,1.224 8.947,1.144 8.799,1.144 L8.579,1.144 L8.579,2.823 Z" id="Shape" fill-rule="nonzero"></path>
                <path d="M9.677,3.119 L9.677,0.846 L10.366,0.846 C10.554,0.846 10.683,0.889 10.755,0.977 C10.825,1.065 10.865,1.225 10.865,1.463 C10.865,1.664 10.844,1.805 10.795,1.873 C10.755,1.932 10.685,1.973 10.594,2.004 C10.695,2.024 10.765,2.074 10.804,2.123 C10.843,2.184 10.864,2.274 10.864,2.393 L10.864,2.914 C10.864,2.992 10.874,3.061 10.903,3.123 L10.524,3.123 C10.495,3.071 10.484,3.002 10.484,2.914 L10.484,2.375 C10.484,2.313 10.484,2.272 10.474,2.254 C10.453,2.176 10.384,2.125 10.273,2.125 L10.053,2.125 L10.053,3.123 L9.677,3.123 L9.677,3.119 Z M10.056,1.823 L10.276,1.823 C10.355,1.823 10.405,1.804 10.445,1.765 C10.475,1.724 10.497,1.654 10.497,1.564 L10.497,1.445 C10.497,1.325 10.486,1.245 10.456,1.206 C10.426,1.167 10.368,1.144 10.287,1.144 L10.068,1.144 L10.068,1.823 L10.056,1.823 Z" id="Shape" fill-rule="nonzero"></path>
                <path d="M12.341,2.602 C12.341,2.791 12.292,2.93 12.202,3.02 C12.101,3.112 11.952,3.151 11.743,3.151 C11.533,3.151 11.383,3.112 11.284,3.02 C11.183,2.93 11.144,2.791 11.144,2.602 L11.144,1.356 C11.144,1.168 11.193,1.028 11.284,0.936 C11.384,0.846 11.534,0.805 11.743,0.805 C11.951,0.805 12.101,0.846 12.202,0.936 C12.301,1.028 12.341,1.166 12.341,1.356 L12.341,2.602 Z M11.523,2.602 C11.523,2.752 11.593,2.832 11.744,2.832 C11.893,2.832 11.963,2.752 11.963,2.602 L11.963,1.356 C11.963,1.207 11.892,1.127 11.744,1.127 C11.595,1.127 11.523,1.205 11.523,1.356 L11.523,2.602 Z" id="Shape" fill-rule="nonzero"></path>
                <path d="M12.62,3.119 L12.62,0.846 L13.267,0.846 C13.506,0.846 13.666,0.916 13.736,1.047 C13.775,1.117 13.806,1.254 13.806,1.455 C13.806,1.594 13.806,1.694 13.806,1.752 C13.797,1.924 13.756,2.043 13.677,2.123 C13.598,2.203 13.477,2.231 13.308,2.231 L13,2.231 L13,3.131 L12.62,3.131 L12.62,3.119 Z M13,1.912 L13.219,1.912 C13.289,1.912 13.348,1.893 13.379,1.85 C13.408,1.811 13.429,1.744 13.429,1.643 L13.429,1.496 C13.429,1.393 13.418,1.313 13.408,1.264 C13.387,1.184 13.329,1.145 13.219,1.145 L13,1.145 L13,1.912 Z" id="Shape" fill-rule="nonzero"></path>
            </g>
        </g>
    </g>
</svg>