<?xml version="1.0" encoding="utf-8"?>
<!-- Generator: Adobe Illustrator 21.1.0, SVG Export Plug-In . SVG Version: 6.00 Build 0)  -->
<svg version="1.1" id="Layer_1" xmlns="http://www.w3.org/2000/svg" xmlns:xlink="http://www.w3.org/1999/xlink" x="0px" y="0px"
	 viewBox="0 0 42.3 15.1" style="enable-background:new 0 0 42.3 15.1;" xml:space="preserve">
<style type="text/css">
	.st0{fill:#FFFFFF;}
</style>
<title>T5-logo</title>
<polygon class="st0" points="22.4,13.8 20.5,8.9 20.3,8.5 23.7,4.7 24,4.4 21.1,4.4 18.6,7.5 18.3,7.8 19.3,1.6 19.4,1.2 17,1.2 
	15,13.8 15.1,13.8 17.4,13.8 18.1,9.3 18.2,9.6 19.7,13.8 19.7,13.8 22.4,13.8 "/>
<path class="st0" d="M15.6,4.4h-2.4l-0.2,1c-0.4-0.9-1.2-1.4-2.2-1.4C8.7,4,6.5,6,6,9.1c-0.2,1-0.1,2,0.3,3c0.4,1.3,1.7,2.1,3,2.1
	c1,0,2-0.5,2.6-1.3l-0.1,0.6l-0.1,0.4h2.4l1.5-9.1L15.6,4.4z M12.4,9.2c-0.1,0.4-0.3,0.8-0.5,1.2c-0.4,0.6-1.1,1-1.9,1
	c-0.6,0-1.2-0.3-1.4-0.9C8.4,10,8.4,9.5,8.4,9.1l0,0c0.1-1.3,1.1-2.3,2.4-2.4c0.8,0,1.5,0.6,1.6,1.4l0,0C12.5,8.4,12.5,8.8,12.4,9.2
	z"/>
<path class="st0" d="M30,5.5c-0.6-1-1.6-1.5-2.8-1.5c-2.5,0-4.6,2.4-5,5.1c-0.2,1-0.1,2,0.3,2.9c0.5,1.3,1.8,2.1,3.2,2.1
	c0.9,0,1.7-0.3,2.4-0.9c0.7-0.5,1.3-1.2,1.8-2c0.1-0.1,0.1-0.2,0.2-0.4h-2.5c-0.3,0.5-1,0.9-1.6,0.9c-0.6,0-1.2-0.3-1.4-0.8
	c-0.1-0.3-0.2-0.5-0.2-0.8h6c0.3-1.1,0.4-2.3,0.1-3.4C30.4,6.3,30.2,5.9,30,5.5z M25.1,7.9h-0.3c0.3-0.9,1.1-1.5,2-1.5
	c0.8-0.1,1.4,0.4,1.6,1.2c0,0.1,0,0.2,0,0.3L25.1,7.9z"/>
<polygon class="st0" points="8.3,4.1 8.7,1.6 8.7,1.2 1.8,1.2 1.3,4.1 1.5,4.1 3.5,4.1 3.4,4.4 1.9,13.8 2.1,13.8 4.7,13.8 6.2,4.1 
	"/>
<path class="st0" d="M40.7,4.1l0.5-2.7h-6.8l-2.4,7l2.5,0.6c0.4-0.7,1-1.1,1.8-1.1c0.7-0.1,1.4,0.5,1.4,1.2c0,0.1,0,0.3,0,0.4
	c-0.2,0.9-1,1.6-2,1.6c-0.5,0-1-0.3-1.3-0.8h-3.2c0,2,1.4,3.6,4.1,3.6c2.7,0,5-1.9,5.6-4.5c0.5-1.8-0.6-3.6-2.3-4.1
	c-0.3-0.1-0.7-0.1-1-0.1c-0.6,0-1.2,0.1-1.7,0.4l0.6-1.7L40.7,4.1z"/>
<path class="st0" d="M12.4,8c-0.1-0.8-0.8-1.3-1.6-1.3C9.5,6.8,8.6,7.8,8.4,9.1l0,0c-0.1,0.5,0,1,0.2,1.4c0.2,0.6,0.8,1,1.4,0.9
	c0.8,0,1.5-0.4,1.9-1c0.3-0.4,0.4-0.8,0.5-1.2C12.5,8.9,12.5,8.4,12.4,8L12.4,8z"/>
<path class="st0" d="M26.9,6.4c-0.9,0-1.7,0.6-2,1.5h3.6c0-0.1,0-0.2,0-0.3C28.3,6.8,27.6,6.3,26.9,6.4z"/>
<path class="st0" d="M0,0v15h42.3V0H0z M2.1,13.8H1.9l1.5-9.4L3.5,4H1.3l0.4-2.8h7L8.7,1.6L8.3,4H6.2l-1.5,9.8H2.1z M11.9,13.8h-0.2
	l0.1-0.4l0.1-0.6c-0.6,0.9-1.6,1.4-2.6,1.3c-1.3,0-2.6-0.8-3-2.1c-0.4-1-0.4-2-0.3-3c0.5-3,2.7-5,4.9-5c0.9-0.1,1.8,0.5,2.2,1.3
	l0.2-1h2.4l-0.1,0.4l-1.5,9.1L11.9,13.8z M19.7,13.8l-1.5-4.2l-0.1-0.4l-0.7,4.5H15l2-12.6h2.4l-0.1,0.4l-1,6.2l0.2-0.3l2.6-3.1H24
	l-0.3,0.4l-3.4,3.8l0.1,0.4l2,4.9L19.7,13.8L19.7,13.8z M30.5,10.1h-6c0,0.3,0,0.6,0.2,0.8c0.3,0.5,0.8,0.8,1.4,0.8
	c0.6,0,1.3-0.3,1.6-0.9h2.5c-0.1,0.1-0.1,0.2-0.2,0.4c-0.5,0.8-1.1,1.5-1.8,2c-0.7,0.5-1.5,0.8-2.4,0.9c-1.4,0-2.6-0.8-3.2-2.1
	c-0.4-0.9-0.5-1.9-0.3-2.9c0.4-2.6,2.6-5.1,5-5.1c1.1,0,2.2,0.5,2.8,1.5c0.2,0.4,0.4,0.7,0.5,1.1C30.8,7.8,30.8,9,30.5,10.1z
	 M37.5,5.4c1.8-0.1,3.4,1.3,3.5,3.2c0,0.3,0,0.7-0.1,1c-0.6,2.6-2.9,4.5-5.6,4.5c-2.7,0-4-1.6-4-3.6h3.2c0.3,0.5,0.8,0.8,1.3,0.8
	c1,0,1.8-0.7,2-1.6C37.9,9,37.5,8.2,36.8,8c-0.2,0-0.3-0.1-0.5,0c-0.8,0-1.5,0.4-1.8,1.1L32,8.5l2.4-7h6.8l-0.5,2.7h-4.4l-0.6,1.7
	C36.2,5.5,36.8,5.4,37.5,5.4L37.5,5.4z"/>
<polygon class="st0" points="34.3,1.5 34.3,1.5 34.4,1.5 "/>
</svg>
