<?xml version="1.0" encoding="utf-8"?>
<!-- Generator: Adobe Illustrator 21.1.0, SVG Export Plug-In . SVG Version: 6.00 Build 0)  -->
<svg version="1.1" xmlns="http://www.w3.org/2000/svg" xmlns:xlink="http://www.w3.org/1999/xlink" x="0px" y="0px"
	 viewBox="0 0 26 25" style="enable-background:new 0 0 26 25;" xml:space="preserve">
<style type="text/css">
	.st0{fill:#FFFFFF;}
</style>
<g id="Layer_2">
</g>
<g id="Layer_1">
	<title>TVWEEK-logo</title>
	<path class="st0" d="M26,3.2C26,1.4,24.5,0,22.7,0c0,0,0,0,0,0H3.3C1.5,0,0,1.4,0,3.2c0,0,0,0,0,0l0,0v18.6C0,23.6,1.5,25,3.3,25
		c0,0,0,0,0,0h19.4c1.8,0,3.3-1.4,3.3-3.2c0,0,0,0,0,0V3.2z M15.8,2.9l1.6,5.4c0.2,0.6,0.3,1.2,0.3,1.8h0.1c0-0.6,0.1-1.2,0.3-1.8
		l1.6-5.4h4.6l-4.7,11.9h-3.7L11.3,2.9H15.8z M4,22.7l-1.9-6.4h2l0.7,3.9l0,0c0-0.4,0.1-0.8,0.2-1.2l0.6-2.7h1.4l0.7,3.9l0,0
		c0-0.4,0.1-0.8,0.2-1.1l0.5-2.7h2l-1.9,6.4H6.8l-0.6-3.5H6.2c0,0.3,0,0.7-0.1,1l-0.5,2.5L4,22.7z M13.8,18.7v1.7h-1.5V21H14v1.8
		h-3.6v-6.5h3.5V18h-1.6v0.6L13.8,18.7z M17.8,18.7v1.7h-1.5V21H18v1.8h-3.6v-6.5h3.5V18h-1.6v0.6L17.8,18.7z M20.6,20.8
		c-0.1-0.2-0.2-0.5-0.3-0.8l0,0v2.7h-1.9v-6.4h1.8v2.8l0,0c0.1-0.3,0.1-0.5,0.3-0.7l0.9-2.1h2.1l-1.6,3.1l1.8,3.3h-2.2L20.6,20.8z
		 M1.9,2.9h9.2v3.9L8.7,6.7v8.2H4.3V6.7L1.9,6.8L1.9,2.9z"/>
</g>
</svg>
