<?xml version="1.0" encoding="UTF-8"?>
<svg width="79px" height="18px" viewBox="0 0 79 18" version="1.1" xmlns="http://www.w3.org/2000/svg" xmlns:xlink="http://www.w3.org/1999/xlink">
    <!-- Generator: Sketch 52.6 (67491) - http://www.bohemiancoding.com/sketch -->
    <title>WD-logo</title>
    <desc>Created with Sketch.</desc>
    <g id="Page-1" stroke="none" stroke-width="1" fill="none" fill-rule="evenodd">
        <g id="WD-logo" fill="#FFFFFF" fill-rule="nonzero">
            <path d="M79.021,4.077 L76.121,4.077 L74.733,7.976 C74.372,8.857 73.98,10.384 73.98,10.384 C73.971,9.727 73.954,9.406 73.909,8.987 L73.19,4.063 L70.416,4.063 L71.904,10.946 C72.052,11.697 72.469,13.067 72.29,13.794 L72.269,13.846 C71.717,14.955 71.249,15.191 69.467,15.644 L70.241,17.74 C72.266,17.503 73.62,16.636 74.895,13.77 L79.021,4.077 Z M67.726,9.735 L67.538,11.424 C67.422,11.574 67.075,11.742 66.828,11.742 C66.334,11.742 66.08,11.365 66.143,10.804 C66.203,10.242 66.525,9.735 67.726,9.735 Z M69.081,14.14 L70.93,12.326 C70.385,11.892 70.393,11.238 70.483,10.431 L70.885,7.095 C70.964,6.384 70.989,6.026 70.919,5.595 C70.735,4.453 69.665,3.834 68.053,3.834 C66.768,3.834 65.478,4.35 64.391,5.006 C64.787,6.001 64.754,6.026 65.162,7.024 C65.867,6.524 66.578,6.214 67.425,6.214 C68.053,6.214 68.078,6.551 68.018,7.114 L67.951,7.714 C67.869,7.696 67.59,7.696 67.475,7.696 C65.103,7.696 63.556,9.007 63.351,10.844 C63.162,12.568 63.807,13.992 65.915,13.992 C66.921,13.992 67.676,13.58 68.131,13.183 C68.232,13.483 68.686,13.992 69.081,14.14 Z M61.435,7.021 C61.035,10.393 60.372,11.09 59.478,11.175 L58.547,11.175 L59.448,2.778 L60.302,2.778 C61.386,2.83 61.89,3.356 61.435,7.021 Z M64.246,7.033 C64.536,4.424 64.464,2.034 63.233,1.019 C62.476,0.345 61.479,0.239 60.764,0.239 L57.105,0.239 L55.635,13.749 L59.399,13.749 C60.796,13.749 61.689,13.214 62.444,12.298 C63.526,11.002 64.037,8.898 64.246,7.033 Z M53.936,10.543 C54.105,9.025 53.617,8.086 52.207,7.713 L51.217,7.451 C50.564,7.282 50.402,7.019 50.438,6.681 C50.475,6.362 50.787,6.137 51.219,6.137 C51.762,6.137 52.406,6.344 53.165,6.85 L54.251,4.825 C53.501,4.414 52.735,3.832 51.107,3.832 C49.046,3.832 47.576,5.143 47.356,7.13 C47.203,8.499 47.702,9.454 48.994,9.774 L50.034,10.035 C50.825,10.241 51.082,10.392 51.022,10.917 C50.981,11.273 50.572,11.648 50.078,11.648 C49.264,11.648 48.016,10.805 47.517,10.41 L46.281,12.772 C47.441,13.541 48.541,13.992 49.721,13.992 C52.02,13.992 53.7,12.642 53.936,10.543 Z M48.887,2.992 C49.015,1.849 48.583,1.162 47.733,1.162 C47.084,1.162 46.515,1.713 46.432,2.44 C46.388,2.844 46.412,3.126 46.651,3.448 C46.848,3.704 47.025,3.704 46.989,4.027 C46.959,4.294 46.62,4.593 46.072,4.726 L46.804,5.586 C47.388,5.438 47.929,5.008 48.202,4.671 C48.55,4.229 48.812,3.664 48.887,2.992 Z M45.192,13.749 L46,6.494 C46.148,5.165 45.899,3.833 43.907,3.833 C42.788,3.833 41.965,4.284 41.35,4.751 C41.369,4.452 41.327,4.076 41.286,3.85 L38.594,4.355 C38.695,5.386 38.627,6.436 38.498,7.6 L37.815,13.747 L40.679,13.747 L41.422,7.076 C41.861,6.682 42.21,6.513 42.423,6.513 C42.836,6.513 43.13,6.513 43.014,7.563 L42.324,13.747 L45.192,13.747 L45.192,13.749 Z M34.688,9.735 L34.501,11.424 C34.387,11.574 34.037,11.742 33.791,11.742 C33.296,11.742 33.042,11.365 33.105,10.804 C33.165,10.242 33.486,9.735 34.688,9.735 Z M36.042,14.14 L37.892,12.326 C37.347,11.892 37.354,11.238 37.445,10.431 L37.849,7.095 C37.928,6.384 37.952,6.026 37.884,5.595 C37.7,4.453 36.631,3.834 35.015,3.834 C33.673,3.834 32.296,4.419 31.184,5.112 C31.499,5.924 31.513,5.953 31.997,7.117 C32.744,6.562 33.488,6.212 34.388,6.212 C35.014,6.212 35.043,6.55 34.98,7.112 L34.912,7.712 C34.832,7.694 34.552,7.694 34.437,7.694 C32.063,7.694 30.518,9.005 30.314,10.841 C30.122,12.566 30.771,13.989 32.878,13.989 C33.882,13.989 34.636,13.579 35.092,13.182 C35.196,13.483 35.648,13.992 36.042,14.14 Z M30.159,13.749 L30.943,6.701 C31.211,4.283 30.141,3.833 28.955,3.833 C27.967,3.833 27.154,4.189 26.4,4.88 C26.025,4.262 25.513,3.833 24.607,3.833 C23.883,3.833 23.103,4.189 22.444,4.789 C22.467,4.433 22.427,4.189 22.382,3.852 L19.692,4.357 C19.792,5.388 19.724,6.438 19.594,7.602 L18.912,13.749 L21.696,13.749 L22.478,6.721 C22.731,6.514 23.177,6.346 23.442,6.346 C23.986,6.346 24.002,6.478 23.861,7.753 L23.194,13.752 L25.88,13.752 L26.656,6.78 C26.973,6.574 27.439,6.405 27.619,6.405 C28.113,6.405 28.221,6.481 28.076,7.774 L27.411,13.752 L30.159,13.752 L30.159,13.749 Z M15.855,6.1 C16.532,6.1 16.704,6.644 16.487,8.575 C16.23,10.88 15.924,11.708 15.25,11.708 C14.442,11.708 14.436,10.88 14.645,9.006 C14.912,6.605 15.265,6.1 15.855,6.1 Z M16.227,3.833 C13.739,3.833 11.892,5.932 11.557,8.95 C11.2,12.154 12.495,13.992 14.933,13.992 C16.959,13.992 19.151,12.493 19.575,8.671 C19.959,5.202 18.315,3.833 16.227,3.833 Z M14.438,0.257 L11.432,0.257 L10.238,4.701 C9.898,5.874 9.327,8.113 9.148,9.185 L9.132,9.185 C9.236,7.716 9.158,6.65 9.11,5.736 L8.843,0.257 L6.289,0.257 L5.022,5.047 C4.543,6.826 4.196,8.236 4.03,9.203 L4.014,9.203 C4.049,8.754 4.091,7.672 3.9,4.961 L3.593,0.257 L0.767,0.257 L2.046,13.749 L4.946,13.749 L5.883,10.26 C6.31,8.689 6.713,7.084 6.809,6.478 L6.826,6.478 C6.785,7.238 6.85,8.809 6.911,10.26 L7.059,13.749 L9.9,13.749 L14.438,0.257 Z" id="path-1"></path>
        </g>
    </g>
</svg>