<?xml version="1.0" encoding="UTF-8"?>
<svg width="34px" height="21px" viewBox="0 0 34 21" version="1.1" xmlns="http://www.w3.org/2000/svg" xmlns:xlink="http://www.w3.org/1999/xlink">
    <!-- Generator: Sketch 52.6 (67491) - http://www.bohemiancoding.com/sketch -->
    <title>YOURS-logo</title>
    <desc>Created with Sketch.</desc>
    <g id="Page-1" stroke="none" stroke-width="1" fill="none" fill-rule="evenodd">
        <g id="YOURS-logo">
            <rect id="Rectangle" fill="#E03D96" x="0.981" y="0.099" width="33" height="20"></rect>
            <g id="Group" transform="translate(2.000000, 3.000000)" fill="#FFFFFF">
                <path d="M18.759,11.539 L18.71,11.537 C18.281,12.533 17.638,12.979 16.792,12.979 C15.589,12.979 14.871,11.84 14.871,9.595 L14.87,3.89 C14.911,3.868 14.937,3.852 14.974,3.842 C16.096,3.503 17.007,3.824 17.12,3.861 C17.147,3.868 17.188,3.883 17.188,3.883 L17.188,9.278 C17.188,9.865 17.396,10.595 17.925,10.595 C18.341,10.595 18.736,10.38 18.736,8.939 C18.736,8.939 18.736,3.933 18.736,3.898 C19.379,3.576 20.233,3.615 20.948,3.848 C20.977,3.862 21.048,3.903 21.048,3.903 L21.048,12.981 C20.071,12.967 19.563,12.983 18.763,12.983 L18.759,11.539 Z" id="Path"></path>
                <path d="M24.039,5.63 L24.143,5.289 L24.214,5.06 C24.304,4.742 24.598,3.695 25.44,3.695 C25.937,3.695 26.399,4.056 26.722,4.447 L26.115,7.063 C25.964,6.992 25.556,6.771 25.208,6.793 C24.679,6.828 24.041,7.185 24.041,9.001 L24.041,12.986 C24.041,12.986 22.226,12.986 21.738,12.98 C21.738,12.98 21.726,12.907 21.726,12.862 C21.726,11.73 21.726,3.907 21.726,3.907 C21.726,3.907 21.72,3.913 21.76,3.9 C22.338,3.65 23.271,3.646 24,3.899 C24.043,3.91 24.043,3.91 24.043,3.91 L24.043,5.63 L24.039,5.63 Z M24.039,8.999 L24.039,10.901 L24.039,13 L24.039,8.999 Z" id="Shape" fill-rule="nonzero"></path>
                <path d="M8.192,10.488 C8.166,9.693 8.181,9.56 8.181,6.194 C8.181,4.56 9.76,3.511 11.254,3.511 C12.449,3.511 14.275,4.423 14.275,6.147 C14.275,7.28 14.296,10.204 14.275,10.646 C14.209,12.185 12.657,13.143 11.254,13.143 C9.854,13.146 8.239,12.122 8.192,10.488 Z M10.428,8.219 C10.445,9.711 10.313,10.722 11.278,10.709 C12.297,10.698 12.125,9.671 12.125,8.219 C12.125,6.658 12.314,5.881 11.298,5.881 C10.26,5.88 10.41,6.839 10.428,8.219 Z" id="Shape" fill-rule="nonzero"></path>
                <path d="M6.487,13.013 L3.909,13.008 L3.909,8.23 L0.727,1.811 C0.727,1.811 1.201,1.085 1.875,0.959 C2.687,0.805 3.398,1.105 3.398,1.105 C4.056,2.747 5.181,5.123 5.181,5.123 C5.181,5.123 6.332,2.711 6.993,1.068 C6.993,1.068 7.701,0.771 8.517,0.923 C9.191,1.049 9.665,1.777 9.665,1.777 L6.484,8.196 L6.487,13.013 Z" id="Path"></path>
                <path d="M25.568,9.845 L24.895,10.961 C24.895,10.961 24.505,11.64 24.873,12.157 C24.873,12.157 25.362,12.963 26.75,13.069 C26.75,13.069 28.054,13.207 28.929,12.488 C28.929,12.488 29.745,11.906 30.008,10.807 C30.008,10.807 30.304,9.67 29.787,8.64 C29.787,8.64 29.55,8.148 29.057,7.627 C28.562,7.107 28.127,6.755 28.053,6.12 C28.053,6.12 27.967,5.594 28.406,5.399 C28.406,5.399 28.936,5.181 29.441,5.781 C29.441,5.781 30.269,4.538 29.431,3.943 C29.431,3.943 28.613,3.36 27.497,3.774 C27.497,3.774 26.38,4.145 26.033,5.789 C26.033,5.789 25.797,6.79 26.195,7.663 C26.195,7.663 26.471,8.159 26.866,8.628 C27.475,9.347 27.553,9.482 27.591,9.665 C27.591,9.665 27.753,10.116 27.427,10.543 C27.427,10.543 27.196,10.804 26.785,10.78 C26.785,10.78 26.238,10.743 25.931,10.347 L25.568,9.845 Z" id="Path"></path>
            </g>
        </g>
    </g>
</svg>