<svg xmlns="http://www.w3.org/2000/svg" xmlns:xlink="http://www.w3.org/1999/xlink" preserveAspectRatio="xMidYMid" width="122" height="28" viewBox="0 0 122 28">
  <defs>
    <style>

      .cls-2 {
        fill: #ec008c;
      }
    </style>
  </defs>
  <path d="M112.473,15.872 C112.473,15.872 112.473,27.568 112.473,27.568 C112.473,27.568 102.460,27.568 102.460,27.568 C102.460,27.568 102.460,15.872 102.460,15.872 C102.460,15.872 92.735,0.432 92.735,0.432 C92.735,0.432 104.233,0.432 104.233,0.432 C104.233,0.432 107.349,7.522 107.349,7.522 C107.349,7.522 107.645,7.522 107.645,7.522 C107.942,6.658 108.202,5.795 108.573,4.967 C108.573,4.967 110.576,0.432 110.576,0.432 C110.576,0.432 122.000,0.432 122.000,0.432 C122.000,0.432 112.473,15.872 112.473,15.872 ZM99.369,27.568 C99.369,27.568 80.626,27.568 80.626,27.568 C80.626,27.568 80.626,0.432 80.626,0.432 C80.626,0.432 90.813,0.432 90.813,0.432 C90.813,0.432 90.813,18.882 90.813,18.882 C90.813,18.882 99.369,18.882 99.369,18.882 C99.369,18.882 99.369,27.568 99.369,27.568 ZM60.239,0.432 C60.239,0.432 70.434,0.432 70.434,0.432 C70.434,0.432 70.434,18.882 70.434,18.882 C70.434,18.882 78.981,18.882 78.981,18.882 C78.981,18.882 78.981,27.568 78.981,27.568 C78.981,27.568 60.239,27.568 60.239,27.568 C60.239,27.568 60.239,0.432 60.239,0.432 ZM43.560,28.000 C35.029,28.000 28.093,22.782 28.093,14.072 C28.093,5.543 35.066,-0.000 43.560,-0.000 C52.054,-0.000 59.027,5.543 59.027,14.072 C59.027,22.782 52.091,28.000 43.560,28.000 ZM43.560,8.926 C40.333,8.926 38.330,11.337 38.330,14.216 C38.330,17.311 40.481,19.435 43.560,19.435 C46.638,19.435 48.790,17.311 48.790,14.216 C48.790,11.337 46.787,8.926 43.560,8.926 ZM12.871,27.568 C12.871,27.568 -0.000,27.568 -0.000,27.568 C-0.000,27.568 -0.000,0.432 -0.000,0.432 C-0.000,0.432 10.348,0.432 10.348,0.432 C19.733,0.432 26.928,4.427 26.928,14.396 C26.928,22.458 21.068,27.568 12.871,27.568 ZM10.794,8.926 C10.794,8.926 10.192,8.926 10.192,8.926 C10.192,8.926 10.192,19.435 10.192,19.435 C10.192,19.435 10.794,19.435 10.794,19.435 C14.169,19.435 16.765,17.923 16.765,14.360 C16.765,10.545 14.503,8.926 10.794,8.926 Z" id="path-1" class="cls-2" fill-rule="evenodd"/>
</svg>
