<svg xmlns="http://www.w3.org/2000/svg" preserveAspectRatio="xMidYMid" width="264" height="27" viewBox="0 0 264 27"><defs><style>.cls-2 { fill: #222222; }</style></defs><path d="M258.452 10.057c.21.335.45.688.717 1.06l.773 1.074c.42.593.856 1.21 1.305 1.848.45.64.86 1.29 1.233 1.948.374.66.675 1.313.904 1.962.23.65.344 1.27.344 1.86 0 2.102-.554 3.74-1.663 4.913-1.11 1.175-2.686 1.762-4.73 1.762-.48-.02-.966-.067-1.463-.143-.44-.077-.908-.192-1.405-.345-.497-.153-.975-.372-1.434-.658-.65-.4-1.16-.735-1.534-1.003-.374-.267-.66-.486-.86-.658-.202-.172-.336-.3-.402-.387-.068-.087-.12-.14-.158-.158v-4.268c.554.153 1.08.277 1.577.373.44.095.874.18 1.305.257.43.077.76.115.99.115.476 0 .906-.144 1.29-.43.38-.287.572-.793.572-1.52 0-.36-.215-.858-.645-1.488-.43-.63-.933-1.327-1.506-2.09-.44-.573-.89-1.18-1.348-1.82-.458-.64-.874-1.293-1.247-1.96-.374-.67-.68-1.352-.918-2.05-.24-.696-.36-1.397-.36-2.104 0-.63.087-1.303.26-2.02.17-.715.482-1.378.93-1.99.45-.61 1.062-1.116 1.836-1.517.774-.4 1.754-.6 2.94-.6.23 0 .534.01.917.028.382.02.788.048 1.218.086l1.305.114c.44.04.822.086 1.147.144l2.78 2.377V7.12c-.534-.02-1.04-.048-1.518-.086-.402-.038-.79-.067-1.162-.086-.373-.02-.626-.03-.76-.03-.19 0-.4.03-.63.087-.23.058-.445.148-.646.272-.2.124-.37.286-.502.486-.134.2-.2.454-.2.76 0 .152.07.362.214.63.143.267.32.568.53.9zm-4.1-4.94c.19-.305.425-.55.703-.73.277-.18.573-.315.89-.4.314-.087.605-.13.873-.13.134 0 .35.01.645.03l.903.056c.344.02.717.038 1.12.057V1.136c-.23-.038-.513-.07-.847-.1-.336-.03-.68-.057-1.033-.086-.354-.03-.698-.047-1.033-.057-.334-.01-.607-.015-.817-.015-1.013 0-1.85.172-2.51.516-.658.344-1.18.778-1.56 1.303-.384.525-.652 1.098-.804 1.718-.154.62-.23 1.2-.23 1.733 0 .726.148 1.46.445 2.205.296.745.67 1.48 1.118 2.206.45.724.932 1.426 1.448 2.104.516.678 1 1.322 1.448 1.933.45.61.822 1.174 1.118 1.69.296.515.445.973.445 1.374 0 .517-.077.95-.23 1.304-.153.354-.354.645-.602.874-.248.23-.54.39-.874.487-.336.096-.675.143-1.02.143-.267 0-.578-.024-.93-.072-.355-.047-.685-.1-.99-.157-.364-.077-.727-.163-1.09-.26v2.607c.382.21.78.368 1.19.473.41.105.79.186 1.133.243.4.076.802.115 1.204.115 1.796 0 3.183-.52 4.157-1.56.975-1.04 1.463-2.488 1.463-4.34 0-.63-.148-1.298-.445-2.005-.296-.706-.67-1.417-1.118-2.133-.45-.716-.932-1.427-1.448-2.134-.516-.706-1-1.37-1.448-1.99-.45-.62-.822-1.19-1.118-1.705-.297-.514-.445-.953-.445-1.316 0-.44.096-.81.287-1.117zm-23.14 18.845V.306h9.693l2.78 2.377v4.44h-4.615v2.806h1.003l2.782 2.376v4.44h-3.785v2.576h1.835l2.78 2.378v4.467h-9.518l-2.954-2.205zm8.833-3.78h-4.617V13.68h3.785v-2.892h-3.785v-6.73h4.617V1.164h-7.972v21.938h7.972v-2.92zm-23.54 3.78V.306h5.103l2.78 2.377v23.484h-4.93l-2.954-2.205zm4.243-22.797h-3.384v21.938h3.384V1.165zm-17.605 23.227v1.775h-4.932l-2.953-2.205V.306h5.878c.9 0 1.76.196 2.58.587.823.39 1.568.864 2.238 1.417l2.18 1.747c.534.44.964.96 1.29 1.56.324.603.486 1.295.486 2.078v5.413c0 .706-.187 1.384-.56 2.033-.372.65-.817 1.223-1.333 1.72.19.706.397 1.465.616 2.276l.66 2.435c.22.812.44 1.614.66 2.406.22.792.415 1.523.587 2.19h-5.16l-2.237-1.774zm2.55-11.685c.384-.592.575-1.222.575-1.89V5.403c0-.67-.148-1.265-.444-1.79-.297-.525-.69-.97-1.176-1.332-.488-.363-1.037-.64-1.65-.83-.61-.19-1.232-.287-1.863-.287h-5.017v21.938h3.383v-8.02h1.52l2.094 8.02h3.555l-2.38-8.82c.554-.46 1.022-.984 1.404-1.576zm-4.558-.573H199.5V4.057h1.635c.325 0 .603.058.832.172.23.114.41.27.545.472.133.2.23.43.286.687.058.257.087.52.087.787v3.866c0 .554-.13 1.04-.388 1.46-.258.42-.712.63-1.362.63zM176.39 23.962V.306h9.692l2.782 2.377v4.44h-4.617v2.806h1.004l2.782 2.376v4.44h-3.785v2.576h1.835l2.782 2.378v4.467h-9.52l-2.953-2.205zm8.832-3.78h-4.616V13.68h3.785v-2.892h-3.784v-6.73h4.616V1.164h-7.97v21.938h7.97v-2.92zm-27.096 3.78V.306h5.104l2.78 2.377v16.64h1.837l2.78 2.377v4.467h-9.547l-2.954-2.205zm8.86-3.78h-4.616V1.165h-3.383v21.938h8v-2.92zm-27.124 3.78V.306h5.104l2.78 2.377v16.64h1.836l2.78 2.377v4.467h-9.547l-2.953-2.205zm8.86-3.78h-4.617V1.165h-3.383v21.938h8v-2.92zm-22.508 3.78l-.373-2.835c-.095.84-.205 1.7-.33 2.577-.123.878-.224 1.7-.3 2.463h-5.018l-2.953-2.205L120.965.306h6.71l2.78 2.377 3.73 23.484h-5.02l-2.952-2.205zm.716-22.797h-5.218l-3.47 21.938h3.413l.745-5.93h3.842l.746 5.93h3.412l-3.47-21.938zm-2.61 3.207l1.463 9.91h-2.896l1.434-9.91zm-15.51 21.223c-.517.286-1.08.505-1.693.658-.612.153-1.194.23-1.75.23-.42 0-.854-.04-1.303-.115-.45-.077-.946-.225-1.49-.444-.546-.22-1.158-.54-1.836-.96-.68-.42-1.448-.973-2.31-1.66-.65-.382-1.18-.87-1.59-1.46-.41-.593-.616-1.32-.616-2.178V5.746c0-1.106.186-2.027.56-2.763.37-.734.86-1.32 1.46-1.76.603-.44 1.277-.755 2.023-.946.745-.19 1.49-.286 2.236-.286.976 0 1.908.197 2.797.588.89.39 1.706.883 2.45 1.475l2.152 1.69c.496.4.897.897 1.203 1.49.306.59.46 1.307.46 2.147v1.288H106.6l-2.034-1.603c-.173.114-.292.272-.36.472-.066.2-.1.415-.1.645v1.66h4.675l2.782 2.378v13.947h-2.036l-.717-.572zm-.89-14.893h-4.817v2.892h1.434v4.783c0 .268-.03.53-.086.788-.057.258-.162.482-.315.673-.153.19-.363.344-.63.458-.268.115-.603.172-1.004.172-.4 0-.735-.057-1.003-.172-.267-.114-.478-.267-.63-.458-.154-.19-.258-.415-.316-.673-.056-.258-.085-.52-.085-.788V5.89c0-.267.03-.53.086-.787.06-.258.163-.482.317-.673.152-.19.363-.344.63-.458.268-.115.603-.172 1.004-.172.67 0 1.172.138 1.506.415.335.277.502.74.502 1.39h3.412v-.517c0-.763-.162-1.417-.487-1.96-.325-.546-.746-.985-1.262-1.32-.515-.333-1.093-.576-1.733-.73-.64-.152-1.286-.228-1.936-.228-.63 0-1.27.08-1.92.243-.65.163-1.233.43-1.75.802-.515.372-.936.874-1.26 1.504-.326.63-.488 1.412-.488 2.347v13.92c0 .668.162 1.24.487 1.717.324.478.745.865 1.26 1.16.517.297 1.1.516 1.75.66.65.142 1.29.214 1.92.214.69 0 1.363-.1 2.023-.3.66-.2 1.247-.56 1.763-1.075l.745 1.06h.89v-12.4zm-40.113 13.26V.306H77.5l2.78 2.377v4.44h-4.616v2.806h1.003l2.782 2.376v4.44h-3.786v2.576H77.5l2.78 2.378v4.467h-9.52l-2.953-2.205zm8.832-3.78H72.02V13.68h3.785v-2.892h-3.785v-6.73h4.617V1.164h-7.973v21.938h7.972v-2.92zm-22.194 4.21v1.775h-4.932l-2.953-2.205V.306h5.88c.897 0 1.757.196 2.58.587.82.39 1.567.864 2.236 1.417l2.18 1.747c.534.44.964.96 1.29 1.56.324.603.487 1.295.487 2.078v5.413c0 .706-.187 1.384-.56 2.033-.372.65-.817 1.223-1.333 1.72.19.706.397 1.465.617 2.276l.66 2.435c.22.812.44 1.614.66 2.406.218.792.415 1.523.587 2.19h-5.162l-2.236-1.774zm2.552-11.685c.382-.592.573-1.222.573-1.89V5.403c0-.67-.147-1.265-.443-1.79-.297-.525-.688-.97-1.176-1.332-.486-.363-1.036-.64-1.647-.83-.612-.19-1.233-.287-1.864-.287h-5.02v21.938h3.384v-8.02h1.52l2.093 8.02h3.556l-2.38-8.82c.554-.46 1.022-.984 1.405-1.576zm-4.56-.573h-1.634V4.057h1.635c.324 0 .6.058.83.172.23.114.41.27.545.472.134.2.23.43.287.687.057.257.086.52.086.787v3.866c0 .554-.13 1.04-.387 1.46-.257.42-.712.63-1.36.63zM38.16 25.15c-.555.43-1.186.76-1.893.99-.707.228-1.424.342-2.15.342-.746 0-1.477-.12-2.194-.358-.717-.24-1.362-.577-1.935-1.016-.9-.67-1.65-1.265-2.25-1.79-.603-.525-1.09-1.012-1.464-1.46-.372-.45-.635-.89-.788-1.318-.153-.43-.23-.883-.23-1.36V5.116c0-.802.173-1.518.517-2.148.344-.63.798-1.165 1.362-1.605.563-.44 1.204-.773 1.92-1.002.718-.23 1.45-.344 2.194-.344.898 0 1.767.18 2.61.543.84.363 1.576.85 2.206 1.46.765.708 1.4 1.333 1.907 1.877.506.544.913 1.04 1.22 1.49.304.448.52.868.644 1.26.124.39.186.778.186 1.16v13.66c0 .784-.172 1.485-.516 2.105-.344.62-.793 1.146-1.347 1.576zM36.382 5.118c0-.668-.148-1.265-.445-1.79-.296-.525-.688-.97-1.175-1.332-.488-.362-1.037-.64-1.65-.83-.61-.19-1.232-.287-1.863-.287-.632 0-1.258.096-1.88.287-.62.19-1.17.468-1.648.83-.478.363-.865.807-1.16 1.332-.297.525-.445 1.122-.445 1.79V19.18c0 .668.148 1.264.444 1.79.297.525.684.968 1.162 1.33.478.364 1.028.64 1.65.832.62.19 1.246.286 1.877.286.63 0 1.25-.096 1.863-.286.612-.19 1.16-.468 1.65-.83.486-.364.878-.807 1.174-1.333.297-.526.445-1.122.445-1.79V5.116zm-5.133 15.35c-.67-.037-1.13-.257-1.377-.658-.25-.402-.373-.88-.373-1.433V5.92c0-.555.124-1.032.373-1.433.248-.4.707-.62 1.376-.66.668.04 1.127.26 1.376.66.248.4.372.878.372 1.432v12.457c0 .554-.124 1.03-.372 1.432-.25.4-.708.62-1.377.658zm-20.416 3.495v-3.15H9.86l-1.98-1.575v6.93H2.95l-2.954-2.205V.306h4.73l2.81 2.377 1.377 3.723 2.35-6.1h4.675l2.78 2.377v23.484h-4.93l-2.954-2.205zm4.244-22.797h-3.212l-3.9 10.167L4.154 1.165H.856v21.938H4.24V10.158l3.268 7.59h.918l3.268-7.59v12.945h3.384V1.165z" id="path-1" class="cls-2" fill-rule="evenodd"/></svg>