<?xml version="1.0" encoding="UTF-8"?>
<svg width="103px" height="25px" viewBox="0 0 103 25" version="1.1" xmlns="http://www.w3.org/2000/svg" xmlns:xlink="http://www.w3.org/1999/xlink">
    <!-- Generator: Sketch 52.6 (67491) - http://www.bohemiancoding.com/sketch -->
    <title>DOLLY-logo</title>
    <desc>Created with Sketch.</desc>
    <defs>
        <rect id="path-1" x="0.906" y="0.37" width="101.464" height="24"></rect>
        <rect id="path-3" x="0.906" y="0.37" width="101.464" height="24"></rect>
        <rect id="path-5" x="0.906" y="0.37" width="101.464" height="24"></rect>
        <rect id="path-7" x="0.906" y="0.37" width="101.464" height="24"></rect>
        <rect id="path-9" x="0.906" y="0.37" width="101.464" height="24"></rect>
    </defs>
    <g id="Page-1" stroke="none" stroke-width="1" fill="none" fill-rule="evenodd">
        <g id="DOLLY-logo">
            <g id="Clipped">
                <mask id="mask-2" fill="white">
                    <use xlink:href="#path-1"></use>
                </mask>
                <g id="SVGID_1_"></g>
                <path d="M9.358,17.028 L9.883,17.028 C12.69,17.028 14.849,15.732 14.849,12.678 C14.849,9.408 12.967,8.02 9.883,8.02 L9.358,8.02 L9.358,17.028 Z M0.906,0.74 L9.512,0.74 C17.317,0.74 23.302,4.164 23.302,12.709 C23.302,19.619 18.428,24 11.611,24 L0.906,24 L0.906,0.74 Z" id="Shape" fill="#EC008C" fill-rule="nonzero" mask="url(#mask-2)"></path>
            </g>
            <g id="Clipped">
                <mask id="mask-4" fill="white">
                    <use xlink:href="#path-3"></use>
                </mask>
                <g id="SVGID_3_"></g>
                <path d="M32.784,12.555 C32.784,15.208 34.573,17.029 37.134,17.029 C39.694,17.029 41.484,15.209 41.484,12.555 C41.484,10.087 39.818,8.021 37.134,8.021 C34.45,8.021 32.784,10.087 32.784,12.555 Z M49.997,12.432 C49.997,19.898 44.228,24.37 37.133,24.37 C30.038,24.37 24.269,19.897 24.269,12.432 C24.269,5.121 30.069,0.37 37.133,0.37 C44.198,0.37 49.997,5.121 49.997,12.432 Z" id="Shape" fill="#EC008C" fill-rule="nonzero" mask="url(#mask-4)"></path>
            </g>
            <g id="Clipped">
                <mask id="mask-6" fill="white">
                    <use xlink:href="#path-5"></use>
                </mask>
                <g id="SVGID_5_"></g>
                <polygon id="Path" fill="#EC008C" mask="url(#mask-6)" points="51.052 0.74 59.504 0.74 59.504 16.534 66.599 16.534 66.599 24 51.052 24"></polygon>
            </g>
            <g id="Clipped">
                <mask id="mask-8" fill="white">
                    <use xlink:href="#path-7"></use>
                </mask>
                <g id="SVGID_7_"></g>
                <polygon id="Path" fill="#EC008C" mask="url(#mask-8)" points="68.055 0.74 76.507 0.74 76.507 16.534 83.603 16.534 83.603 24 68.055 24"></polygon>
            </g>
            <g id="Clipped">
                <mask id="mask-10" fill="white">
                    <use xlink:href="#path-9"></use>
                </mask>
                <g id="SVGID_9_"></g>
                <path d="M87.594,0.74 L90.185,6.817 L90.432,6.817 C90.679,6.076 90.895,5.337 91.203,4.627 L92.868,0.74 L102.37,0.74 L94.411,13.973 L94.411,24 L86.143,24 L86.143,13.974 L78.03,0.74 L87.594,0.74 Z" id="Path" fill="#EC008C" mask="url(#mask-10)"></path>
            </g>
        </g>
    </g>
</svg>