<?xml version="1.0" encoding="UTF-8"?>
<svg width="76px" height="31px" viewBox="0 0 76 31" version="1.1" xmlns="http://www.w3.org/2000/svg" xmlns:xlink="http://www.w3.org/1999/xlink">
    <!-- Generator: Sketch 52.6 (67491) - http://www.bohemiancoding.com/sketch -->
    <title>ELLE-logo-redtext</title>
    <desc>Created with Sketch.</desc>
    <defs>
        <rect id="path-1" x="0.974" y="0.94" width="74.168" height="30"></rect>
        <rect id="path-3" x="0.974" y="0.94" width="74.168" height="30"></rect>
    </defs>
    <g id="Page-1" stroke="none" stroke-width="1" fill="none" fill-rule="evenodd">
        <g id="ELLE-logo-redtext">
            <g id="Clipped">
                <mask id="mask-2" fill="white">
                    <use xlink:href="#path-1"></use>
                </mask>
                <g id="SVGID_1_"></g>
                <path d="M74.923,18.886 C74.923,24.471 72.539,25.068 69.809,25.068 L69.809,24.252 L69.809,14.432 L69.809,12.958 C72.381,12.958 72.633,14.745 72.633,17.382 L72.851,17.382 L72.851,8.219 L72.633,8.219 C72.633,10.855 72.381,12.737 69.809,12.737 L69.809,11.795 L69.809,1.349 C72.539,1.349 74.734,1.788 74.734,7.498 L74.953,7.498 L74.953,0.94 L65.165,0.94 L65.165,1.159 L66.921,1.159 L66.921,25.256 L65.165,25.256 L65.165,25.476 L75.141,25.476 L75.141,18.886 L74.923,18.886 Z M48.442,10.415 L48.442,1.159 L50.2,1.159 L50.2,0.94 L43.799,0.94 L43.799,1.159 L45.556,1.159 L45.556,25.256 L43.799,25.256 L43.799,25.476 L53.777,25.476 L53.777,18.886 L53.557,18.886 C53.557,24.471 51.173,25.256 48.442,25.256 L48.442,10.415 Z M27.077,10.415 L27.077,1.159 L28.834,1.159 L28.834,0.94 L22.434,0.94 L22.434,1.159 L24.191,1.159 L24.191,25.256 L22.434,25.256 L22.434,25.476 L32.411,25.476 L32.411,18.886 L32.19,18.886 C32.19,24.471 29.806,25.256 27.076,25.256 L27.076,10.415 L27.077,10.415 Z M10.888,18.949 C10.888,24.533 8.441,25.13 5.711,25.13 L5.711,24.315 L5.711,14.494 L5.711,13.082 C8.283,13.082 8.597,14.808 8.597,17.443 L8.942,17.443 L8.942,8.282 L8.597,8.282 C8.597,10.917 8.283,12.737 5.711,12.737 L5.711,11.858 L5.711,1.316 C8.441,1.316 10.669,1.755 10.669,7.465 L11.013,7.465 L11.013,0.971 L0.974,0.971 L0.974,1.316 L2.824,1.316 L2.824,25.13 L0.974,25.13 L0.974,25.476 L11.233,25.476 L11.233,18.95 L10.888,18.95 L10.888,18.949 Z" id="Shape" fill="#E3001B" fill-rule="nonzero" mask="url(#mask-2)"></path>
            </g>
            <g id="Clipped">
                <mask id="mask-4" fill="white">
                    <use xlink:href="#path-3"></use>
                </mask>
                <g id="SVGID_3_"></g>
                <path d="M72.022,30.856 L72.45,29.984 L74.242,29.984 L74.681,30.856 L75.12,30.856 L73.515,27.615 L73.179,27.615 L71.59,30.856 L72.022,30.856 Z M73.346,28.169 L74.061,29.606 L72.636,29.606 L73.346,28.169 Z M65.33,27.598 L64.922,27.598 L64.922,30.856 L65.33,30.856 L65.33,27.598 Z M58.654,30.856 L58.654,30.483 L56.537,30.483 L56.537,27.615 L56.135,27.615 L56.135,30.856 L58.654,30.856 Z M46.893,30.856 L47.32,29.984 L49.112,29.984 L49.551,30.856 L49.991,30.856 L48.385,27.615 L48.048,27.615 L46.46,30.856 L46.893,30.856 Z M48.215,28.169 L48.931,29.606 L47.506,29.606 L48.215,28.169 Z M38.064,30.856 L38.064,29.436 L39.322,29.436 L40.134,30.856 L40.578,30.856 L39.767,29.43 C40.228,29.353 40.536,28.98 40.536,28.516 C40.536,27.957 40.152,27.614 39.521,27.614 L37.662,27.614 L37.662,30.855 L38.064,30.855 L38.064,30.856 Z M38.064,27.988 L39.514,27.988 C39.899,27.988 40.116,28.187 40.116,28.529 C40.116,28.873 39.906,29.059 39.497,29.059 L38.065,29.059 L38.064,27.988 Z M30.126,30.856 L30.126,27.988 L31.491,27.988 L31.491,27.615 L28.359,27.615 L28.359,27.988 L29.724,27.988 L29.724,30.856 L30.126,30.856 Z M19.49,30.37 C19.989,30.754 20.529,30.94 21.178,30.94 C21.606,30.94 21.949,30.844 22.214,30.652 C22.478,30.454 22.61,30.207 22.61,29.9 C22.61,29.388 22.196,29.01 21.54,28.938 C21.426,28.925 21.269,28.914 21.065,28.902 C20.626,28.872 20.337,28.812 20.205,28.71 C20.102,28.632 20.049,28.535 20.049,28.421 C20.049,28.138 20.403,27.921 20.891,27.921 C21.354,27.921 21.799,28.089 22.202,28.408 L22.435,28.071 C21.96,27.729 21.431,27.543 20.884,27.543 C20.51,27.543 20.21,27.627 19.975,27.795 C19.741,27.963 19.627,28.18 19.627,28.439 C19.627,28.729 19.783,28.962 20.089,29.106 C20.281,29.197 20.643,29.257 21.178,29.294 L21.425,29.312 C21.901,29.354 22.183,29.571 22.183,29.89 C22.183,30.292 21.773,30.569 21.173,30.569 C20.692,30.569 20.18,30.377 19.724,30.022 L19.49,30.37 Z M10.578,27.615 L10.578,29.823 C10.578,30.623 10.955,30.941 11.913,30.941 C12.87,30.941 13.247,30.624 13.247,29.823 L13.247,27.615 L12.845,27.615 L12.845,29.714 C12.845,30.052 12.779,30.28 12.652,30.394 C12.526,30.508 12.279,30.562 11.912,30.562 C11.544,30.562 11.292,30.507 11.166,30.394 C11.04,30.281 10.979,30.052 10.979,29.714 L10.979,27.615 L10.578,27.615 Z M1.406,30.856 L1.833,29.984 L3.625,29.984 L4.064,30.856 L4.503,30.856 L2.898,27.615 L2.561,27.615 L0.974,30.856 L1.406,30.856 Z M2.729,28.169 L3.445,29.606 L2.02,29.606 L2.729,28.169 Z" id="Shape" fill="#E3001B" fill-rule="nonzero" mask="url(#mask-4)"></path>
            </g>
        </g>
    </g>
</svg>