<?xml version="1.0" encoding="UTF-8" standalone="no"?>
<!-- Generator: Adobe Illustrator 16.0.3, SVG Export Plug-In . SVG Version: 6.00 Build 0)  -->
<!DOCTYPE svg  PUBLIC '-//W3C//DTD SVG 1.1//EN'  'http://www.w3.org/Graphics/SVG/1.1/DTD/svg11.dtd'>
<svg xmlns="http://www.w3.org/2000/svg" xml:space="preserve" height="35.281px" width="90.313px" version="1.1" y="0px" x="0px" xmlns:xlink="http://www.w3.org/1999/xlink" viewBox="1.521 1.594 90.313 35.281" enable-background="new 1.521 1.594 90.313 35.281">
<g id="to_love">
	<g fill="#777">
		<path d="m24.907 30.568h-1.629c-0.11 0-0.19-0.09-0.19-0.189v-0.561c0-0.102 0.08-0.189 0.19-0.189h4.299c0.109 0 0.189 0.09 0.189 0.189v0.561c0 0.1-0.08 0.189-0.189 0.189h-1.63v5.867c0 0.1-0.09 0.188-0.19 0.188h-0.658c-0.102 0-0.19-0.09-0.19-0.188l-0.002-5.867z"/>
		<path d="m32.827 29.529c1.998 0 3.598 1.605 3.598 3.605 0 1.998-1.6 3.59-3.598 3.59-2 0-3.589-1.592-3.589-3.59 0-1.999 1.589-3.605 3.589-3.605zm0 6.198c1.428 0 2.598-1.16 2.598-2.59 0-1.42-1.168-2.607-2.598-2.607-1.42 0-2.59 1.188-2.59 2.607 0 1.429 1.17 2.59 2.59 2.59z"/>
		<path d="m42.059 29.818c0-0.102 0.08-0.189 0.189-0.189h0.66c0.1 0 0.189 0.09 0.189 0.189v5.877h2.707c0.108 0 0.188 0.09 0.188 0.188v0.553c0 0.1-0.08 0.188-0.188 0.188h-3.558c-0.109 0-0.189-0.09-0.189-0.188l0.002-6.618z"/>
		<path d="m51.057 29.529c2 0 3.598 1.605 3.598 3.605 0 1.998-1.598 3.59-3.598 3.59-1.998 0-3.59-1.592-3.59-3.59 0-1.999 1.592-3.605 3.59-3.605zm0 6.198c1.43 0 2.6-1.16 2.6-2.59 0-1.42-1.17-2.607-2.6-2.607-1.42 0-2.59 1.188-2.59 2.607 0 1.429 1.17 2.59 2.59 2.59z"/>
		<path d="m56.108 29.889c-0.061-0.131 0.02-0.26 0.17-0.26h0.709c0.08 0 0.15 0.061 0.17 0.109l2.2 4.947h0.061l2.199-4.947c0.021-0.051 0.08-0.109 0.17-0.109h0.709c0.15 0 0.23 0.129 0.17 0.26l-3.066 6.729c-0.031 0.059-0.092 0.107-0.172 0.107h-0.1c-0.07 0-0.141-0.051-0.17-0.107l-3.05-6.729z"/>
		<path d="m64.679 29.818c0-0.102 0.078-0.189 0.189-0.189h3.998c0.107 0 0.188 0.09 0.188 0.189v0.561c0 0.1-0.08 0.189-0.188 0.189h-3.158v2.039h2.668c0.102 0 0.188 0.09 0.188 0.188v0.561c0 0.109-0.09 0.189-0.188 0.189h-2.668v2.146h3.158c0.107 0 0.188 0.092 0.188 0.189v0.551c0 0.102-0.08 0.189-0.188 0.189h-3.998c-0.111 0-0.189-0.09-0.189-0.189v-6.613z"/>
	</g>
			<path d="m9.141 33.063c-0.008 0.023-0.006 0.015 0 0zm5.221 0.08c0-0.004 0.002 0.017 0 0zm-0.004 0.002c-0.022-0.012-0.046-0.014-0.069-0.01 0.004 0.021 0.045 0.014 0.058 0.021-0.026-0.006 0.005-0.011 0.011-0.011-0.018-0.006-0.018-0.006 0 0-0.023-0.012-0.011 0.001 0 0zm-7.719-0.407c0.009-0.019 0.002-0.004 0 0zm11.867 0.219c-0.672-0.699-1.531-0.414-2.424-0.477-0.988-0.07-2.076 0.201-3.044 0.012 0 0.051-1.891 0.047-2.078 0.031-0.213-0.092-0.452 0.01-0.668 0.012-0.331 0.002-0.656-0.027-0.986-0.01-0.372 0.018-0.739 0.021-1.109 0.008-0.281-0.014-0.675-0.109-0.944-0.002 0.016 0.012 0.032 0.021 0.048 0.033-0.106 0.008-0.214-0.02-0.318 0.006-0.069 0.004-0.16 0.008-0.216-0.037 0.072 0.051-0.086 0.045-0.112 0.01-0.022 0.02-0.046 0.035-0.071 0.051-0.039 0.012-0.076-0.016-0.113 0.014 0.045 0 0.104 0.066 0.129 0.098-0.038-0.01 0.025 0.031 0.034 0.035 0.002-0.008 0.343 0.059 0.355 0.107 0.026 0.02 0.187 0.043 0.183 0.035 0.026 0.02 0.005-0.004 0.001-0.008 0.055-0.023 0.113 0.047 0.167 0.035-0.025-0.104 0.129-0.039 0.188-0.031-0.018-0.025-0.037-0.051-0.055-0.076 0.052 0.023 0.121 0.061 0.176 0.07 0.016 0.002 0.142 0.01 0.049 0.006 0.032 0.012 0.063 0.025 0.093 0.043 0.007-0.047 0.232 0.018 0.186 0.057 0.059-0.066 0.203-0.01 0.274 0.006-0.008-0.006 0.323 0.08 0.269 0.051 0.015-0.068 0.562-0.045 0.503 0.047 0.021-0.023 0.033-0.031 0.063-0.041 0.029 0.035 0.121 0.045 0.057-0.068 0.04-0.02 0.216 0.012 0.215 0.012 0.035-0.006 0.321 0.045 0.329 0.027 0.031 0.02 0.103 0.02 0.125 0.029-0.042-0.08 0.076-0.016 0.065 0.043 0.023-0.047 0.142 0.002 0.188-0.029-0.052 0.023-0.065 0.016-0.039-0.029 0.031-0.002 0.061-0.004 0.091-0.006 0.024-0.014 0.204-0.035 0.196 0.043 0.02-0.041 0.234-0.035 0.241 0.027 0.009-0.035 0.205-0.047 0.195 0.01 0.638 0.053 1.382 0.104 2.023 0.043 0.054 0.006 0.062-0.006 0.023-0.035 0.072 0.025 0.232 0.027 0.287 0.066-0.011-0.014-0.021-0.029-0.032-0.045 0.012 0.002 0.117-0.004 0.059 0.02 0.283-0.074 0.574 0.047 0.857-0.021-0.007 0.01 0.434 0.053 0.445 0.025 0.019-0.008 0.037-0.02 0.054-0.033-0.032 0.025-0.017 0.033 0.047 0.025 0.421 0.061 0.847 0.02 1.269 0.053-0.041-0.025-0.031-0.033 0.031-0.02 0.245 0.002 0.493-0.018 0.716 0.006 0.361-0.02 0.718 0.008 1.079-0.004 0.175-0.006 0.41 0.041 0.576-0.031-0.007 0.002 0.438-0.301 0.26-0.207-0.035 0.049-0.014 0.055 0.063 0.014-0.061-0.064-0.144 0.08 0 0zm-10.975-0.076s0.018 0.027 0 0zm-0.961-0.307c-0.033-0.002 0.059 0.026 0 0-0.011-0.002 0.007 0.002 0 0z" fill="#777"/>
			<path d="m84.193 33.063c0.006 0.015 0.008 0.023 0 0zm-5.221 0.08c-0.002 0.017 0-0.004 0 0zm0.004 0.002c0.018-0.006 0.018-0.006 0 0 0.006 0 0.037 0.006 0.012 0.012 0.012-0.008 0.053 0 0.057-0.021-0.024-0.005-0.047-0.003-0.069 0.009 0.01 0.001 0.022-0.012 0 0zm7.719-0.407c-0.002-0.004-0.01-0.019 0 0zm-11.867 0.219c0.076 0.041 0.098 0.035 0.063-0.016-0.178-0.094 0.268 0.209 0.26 0.207 0.166 0.072 0.402 0.025 0.576 0.031 0.361 0.012 0.719-0.016 1.08 0.004 0.223-0.023 0.471-0.004 0.717-0.006 0.061-0.014 0.07-0.006 0.029 0.02 0.424-0.033 0.85 0.008 1.27-0.053 0.064 0.008 0.08 0 0.047-0.025 0.018 0.014 0.035 0.025 0.055 0.033 0.01 0.027 0.451-0.016 0.445-0.025 0.283 0.068 0.574-0.053 0.857 0.021-0.059-0.023 0.047-0.018 0.059-0.02-0.012 0.016-0.021 0.031-0.033 0.045 0.055-0.039 0.217-0.041 0.287-0.066-0.037 0.029-0.029 0.041 0.023 0.035 0.643 0.061 1.387 0.01 2.023-0.043-0.01-0.057 0.186-0.045 0.195-0.01 0.006-0.063 0.221-0.068 0.24-0.027-0.008-0.078 0.172-0.057 0.195-0.043 0.031 0.002 0.061 0.004 0.092 0.006 0.027 0.045 0.014 0.053-0.039 0.029 0.047 0.031 0.166-0.018 0.189 0.029-0.012-0.059 0.107-0.123 0.064-0.043 0.023-0.01 0.094-0.01 0.125-0.029 0.008 0.018 0.295-0.033 0.33-0.027-0.002 0 0.174-0.031 0.215-0.012-0.064 0.113 0.027 0.104 0.057 0.068 0.029 0.01 0.041 0.018 0.063 0.041-0.059-0.092 0.488-0.115 0.502-0.047-0.055 0.029 0.277-0.057 0.27-0.051 0.07-0.016 0.215-0.072 0.273-0.006-0.045-0.039 0.18-0.104 0.186-0.057 0.031-0.018 0.061-0.031 0.094-0.043-0.094 0.004 0.033-0.004 0.049-0.006 0.055-0.01 0.123-0.047 0.176-0.07-0.018 0.025-0.037 0.051-0.055 0.076 0.059-0.008 0.213-0.072 0.188 0.031 0.055 0.012 0.113-0.059 0.168-0.035-0.006 0.004-0.025 0.027 0 0.008-0.004 0.008 0.156-0.016 0.184-0.035 0.012-0.049 0.354-0.115 0.355-0.107 0.008-0.004 0.07-0.045 0.033-0.035 0.025-0.031 0.084-0.098 0.129-0.098-0.035-0.029-0.074-0.002-0.111-0.014-0.025-0.016-0.051-0.031-0.072-0.051-0.025 0.035-0.184 0.041-0.111-0.01-0.057 0.045-0.146 0.041-0.217 0.037-0.104-0.025-0.211 0.002-0.318-0.006 0.018-0.012 0.033-0.021 0.049-0.033-0.27-0.107-0.664-0.012-0.945 0.002-0.369 0.014-0.736 0.01-1.109-0.008-0.328-0.018-0.654 0.012-0.984 0.01-0.217-0.002-0.457-0.104-0.67-0.012-0.186 0.016-2.076 0.02-2.076-0.031-0.969 0.189-2.057-0.082-3.045-0.012-0.896 0.065-1.755-0.22-2.427 0.479 0.144 0.08 0.06-0.064 0 0zm10.974-0.076c-0.017 0.027 0 0 0 0zm0.961-0.307c-0.058 0.026 0.033-0.002 0 0-0.006 0.002 0.012-0.002 0 0z" fill="#777"/>
</g>
<g id="food" fill="#F6626E">
	<path d="m1.707 2.562c0-0.264 0.211-0.503 0.503-0.503h10.967c0.292 0 0.503 0.239 0.503 0.503v2.888c0 0.265-0.211 0.504-0.503 0.504h-7.338v3.814h6.041c0.265 0 0.503 0.239 0.503 0.504v2.889c0 0.264-0.238 0.502-0.503 0.502h-6.041v6.437c0 0.267-0.238 0.506-0.503 0.506h-3.126c-0.292 0-0.503-0.239-0.503-0.506v-17.538z"/>
	<path d="m30.435 1.794c5.299 0 9.538 4.265 9.538 9.564s-4.239 9.511-9.538 9.511c-5.298 0-9.511-4.212-9.511-9.511s4.213-9.564 9.511-9.564zm0 14.835c2.915 0 5.299-2.382 5.299-5.271 0-2.915-2.384-5.325-5.299-5.325-2.888 0-5.271 2.41-5.271 5.325 0 2.889 2.383 5.271 5.271 5.271z"/>
	<path d="m56.992 1.794c5.299 0 9.537 4.265 9.537 9.564s-4.238 9.511-9.537 9.511-9.512-4.212-9.512-9.511 4.213-9.564 9.512-9.564zm0 14.835c2.914 0 5.299-2.382 5.299-5.271 0-2.915-2.385-5.325-5.299-5.325-2.889 0-5.271 2.41-5.271 5.325-0.001 2.889 2.382 5.271 5.271 5.271z"/>
	<path d="m75.388 2.562c0-0.264 0.213-0.503 0.477-0.503h6.465c5.113 0 9.297 4.16 9.297 9.248 0 5.14-4.184 9.299-9.297 9.299h-6.465c-0.264 0-0.477-0.239-0.477-0.506v-17.538zm6.676 14.122c2.992 0 5.166-2.359 5.166-5.378 0-2.995-2.174-5.353-5.166-5.353h-2.545v10.73h2.545z"/>
</g>
<g id="bottom_texture" fill="#fff">
	<g opacity=".4">
		<path d="m4.272 3.063c0.027 0.097 0.061 0.193 0.096 0.302-0.098 0.069-0.18 0.127-0.305 0.213 0.404 0.379 0.782 0.143 1.178 0.104-0.059-0.161-0.132-0.281-0.141-0.407-0.012-0.136 0.106-0.264 0.061-0.421h-0.881c-0.021 0.062-0.029 0.132-0.008 0.209z"/>
		<path d="m4.009 5.348c0.034-0.095-0.047-0.162-0.128-0.194-0.112-0.046-0.258-0.133-0.339-0.093-0.257 0.12-0.566-0.041-0.792 0.172-0.021 0.02-0.023 0.057-0.035 0.087 0.009 0.016 0.015 0.039 0.027 0.044 0.352 0.161 0.731 0.176 1.108 0.162 0.057-0.002 0.132-0.106 0.159-0.178z"/>
		<path d="m4.467 13.584c-0.207-0.015-0.417-0.023-0.625-0.016-0.055 0.002-0.138 0.059-0.154 0.11-0.035 0.103 0.059 0.182 0.137 0.178 0.344-0.015 0.7 0.308 1.037-0.047 0.035-0.036 0.108-0.036 0.184-0.034v-0.248c-0.207 0.081-0.257 0.081-0.579 0.057z"/>
		<path d="m5.849 11.472c0.254-0.096 0.5-0.126 0.766-0.02 0.1-0.212 0-0.28-0.104-0.274-0.401 0.023-0.797 0.001-1.194-0.061-0.055-0.008-0.125 0.047-0.183 0.085-0.055 0.035-0.047 0.157 0.011 0.178 0.228 0.088 0.465 0.184 0.704 0.092z"/>
		<path d="m6.223 2.956c0.133 0.025 0.264 0.06 0.396 0.09 0.141-0.035 0.282-0.052 0.403-0.11 0.025-0.013 0.046-0.046 0.061-0.082h-1.164c0.029 0.127 0.195 0.081 0.304 0.102z"/>
		<path d="m4.828 9.419c-0.255-0.042-0.514-0.077-0.769-0.072-0.103 0.002-0.209 0.105-0.303 0.175-0.054 0.04-0.004 0.197 0.063 0.22 0.048 0.016 0.102 0.033 0.149 0.025 0.322-0.048 0.642-0.103 0.997-0.162-0.048-0.065-0.084-0.176-0.137-0.186z"/>
		<path d="m4.32 11.899c-0.156-0.006-0.257 0.085-0.309 0.234 0.093 0.15 0.23 0.136 0.366 0.09 0.268-0.088 0.529-0.136 0.808-0.022 0.106 0.042 0.238 0.031 0.359 0.029 0.057 0 0.146-0.002 0.117-0.146-0.134-0.027-0.28-0.069-0.429-0.089-0.151-0.019-0.304-0.016-0.455-0.032-0.153-0.017-0.303-0.057-0.457-0.064z"/>
		<path d="m7.889 3.004c0.222 0.006 0.447-0.033 0.668-0.065 0.022-0.003 0.046-0.049 0.054-0.085h-0.926c0.024 0.108 0.121 0.148 0.204 0.15z"/>
		<path d="m12.382 4.141c-0.11 0.037-0.22 0.1-0.203 0.276 0.231 0.153 0.432 0.018 0.707-0.053v-0.133c-0.22-0.116-0.358-0.14-0.504-0.09z"/>
		<path d="m2.708 11.071c-0.069 0.005-0.138 0.002-0.208-0.002v0.214c0.097-0.035 0.17-0.097 0.208-0.212z"/>
		<path d="m4.885 7.041c-0.19-0.301-0.259-0.302-0.87 0h0.448 0.422z"/>
		<path d="m4.514 16.414c0.135-0.038 0.271-0.068 0.399-0.117 0.033-0.013 0.065-0.087 0.058-0.126-0.006-0.041-0.056-0.095-0.097-0.107-0.16-0.044-0.312-0.003-0.438 0.104-0.031 0.026-0.048 0.096-0.036 0.136 0.013 0.04 0.067 0.068 0.114 0.11z"/>
		<path d="m10.484 12.869h0.217c-0.029-0.04-0.063-0.083-0.098-0.138-0.048 0.059-0.087 0.1-0.119 0.138z"/>
		<path d="m8.098 12.229c0.123 0.025 0.217-0.049 0.217-0.182-0.04-0.031-0.096-0.107-0.158-0.113-0.117-0.01-0.216 0.09-0.192 0.178 0.014 0.051 0.081 0.108 0.133 0.117z"/>
		<path d="m4.899 4.484c0.228 0.067 0.384 0.233 0.641-0.006-0.33-0.092-0.33-0.092-0.641 0.006z"/>
		<path d="m9.835 4.327c-0.113-0.003-0.192 0.051-0.2 0.219 0.136 0.087 0.255 0.095 0.395-0.01-0.045-0.099-0.059-0.208-0.195-0.209z"/>
		<path d="m12.887 5.142v-0.072c-0.018 0.007-0.035 0.014-0.053 0.021 0.014 0.029 0.036 0.031 0.053 0.051z"/>
		<path d="m4.826 12.802c-0.043 0.019-0.08 0.051-0.136 0.085 0.054 0.041 0.088 0.083 0.132 0.099 0.086 0.033 0.16 0.008 0.222-0.046v-0.07h0.051c0.005-0.023 0.014-0.048 0.004-0.062-0.084-0.114-0.182-0.045-0.273-0.006z"/>
		<path d="m2.669 17.852c-0.058-0.019-0.113-0.047-0.169-0.049v0.168c0.038 0.005 0.082-0.001 0.118-0.016 0.021-0.009 0.028-0.051 0.051-0.103z"/>
		<path d="m3.119 9.331c-0.049 0.013-0.114 0.078-0.118 0.124-0.003 0.044 0.065 0.092 0.121 0.162 0.067-0.061 0.131-0.093 0.148-0.142 0.027-0.076-0.066-0.166-0.151-0.144z"/>
		<path d="m5.762 4.452c-0.001 0.044 0.093 0.136 0.115 0.128 0.067-0.025 0.12-0.088 0.2-0.155-0.066-0.05-0.097-0.094-0.134-0.098-0.093-0.014-0.179 0.025-0.181 0.125z"/>
		<path d="m4.106 12.896c0.028 0.033 0.052 0.074 0.087 0.099 0.009 0.007 0.076-0.037 0.074-0.047-0.01-0.04-0.038-0.073-0.057-0.108-0.048 0.024-0.076 0.039-0.104 0.056z"/>
		<path d="m4.524 19.612c0.001 0.02 0.059 0.054 0.074 0.046 0.035-0.015 0.059-0.054 0.088-0.084-0.033-0.027-0.065-0.057-0.119-0.104-0.022 0.064-0.046 0.104-0.043 0.142z"/>
		<path d="m12.263 5.128c0.003 0.009 0.006 0.02 0.01 0.031h0.149c-0.013-0.034-0.023-0.065-0.032-0.065-0.043 0.003-0.084 0.021-0.127 0.034z"/>
		<path d="m6.393 12.05c0.023 0.031 0.047 0.063 0.07 0.094 0.021-0.018 0.043-0.036 0.064-0.053-0.015-0.022-0.027-0.06-0.047-0.063-0.026-0.007-0.058 0.015-0.087 0.022z"/>
		<path d="m6.019 11.958c-0.033 0-0.082 0.05-0.092 0.087-0.006 0.024 0.04 0.063 0.068 0.106 0.053-0.046 0.088-0.079 0.122-0.11-0.033-0.03-0.066-0.083-0.098-0.083z"/>
		<path d="m11.017 5.08c-0.026-0.003-0.058 0.021-0.086 0.035 0.012 0.015 0.023 0.029 0.034 0.044h0.09c0.004-0.004 0.007-0.008 0.011-0.012-0.016-0.024-0.031-0.065-0.049-0.067z"/>
		<path d="m2.796 12.942c-0.003 0.009 0.016 0.027 0.025 0.04 0.035-0.027 0.069-0.055 0.104-0.081-0.02-0.019-0.042-0.037-0.08-0.072-0.02 0.043-0.038 0.076-0.049 0.113z"/>
		<path d="m9.247 3.639c0.014 0.005 0.027 0.01 0.041 0.016 0.012-0.009 0.026-0.018 0.04-0.026-0.01-0.013-0.021-0.026-0.032-0.037-0.017 0.015-0.033 0.031-0.049 0.047z"/>
		<path d="m6.934 3.607c0.001 0.012 0 0.03 0.006 0.035 0.01 0.005 0.026 0.005 0.039 0.007-0.001-0.016-0.004-0.035-0.007-0.053-0.013 0.005-0.025 0.008-0.038 0.011z"/>
		<path d="m3.085 7.777c0.002-0.007-0.023-0.02-0.035-0.031-0.012 0.011-0.037 0.024-0.035 0.031 0.006 0.026 0.021 0.051 0.033 0.076 0.013-0.025 0.029-0.049 0.037-0.076z"/>
	</g>
	<g opacity=".4">
		<path d="m24.22 14.505c-0.054 0.009-0.098 0.073-0.156 0.122 0.31 0.186 0.579 0.248 0.856 0.226 0.175-0.013 0.351-0.034 0.525-0.053-0.1-0.145-0.192-0.295-0.28-0.449-0.316 0.044-0.632 0.095-0.945 0.154z"/>
		<path d="m24.709 13.706c0.062 0.098 0.089 0.204 0.147 0.224 0.033 0.012 0.069 0.017 0.104 0.024-0.043-0.089-0.088-0.177-0.126-0.269-0.036 0.007-0.075 0.015-0.125 0.021z"/>
		<path d="m24.099 16.381c-0.04-0.275-0.313-0.345-0.408-0.541 0.042-0.494 0.042-0.494-0.411-0.591-0.018-0.004-0.035-0.006-0.05-0.012-0.228-0.101-0.416-0.046-0.589 0.048 0.216 0.435 0.472 0.849 0.761 1.243 0.043 0.017 0.087 0.032 0.13 0.056 0.199 0.111 0.436 0.005 0.567-0.203z"/>
		<path d="m25.205 16.912c-0.306 0.041-0.522-0.064-0.78-0.003-0.226 0.052-0.478-0.031-0.722 0.021 0.117 0.142 0.245 0.275 0.371 0.41 0.261-0.002 0.522-0.004 0.784-0.012 0.212-0.006 0.294-0.142 0.347-0.416z"/>
		<path d="m28.082 16.988c-0.016 0-0.039 0.005-0.046 0.018-0.029 0.038-0.076 0.083-0.073 0.123 0.004 0.039 0.067 0.106 0.09 0.102 0.171-0.04 0.329-0.036 0.493 0.044 0.067 0.032 0.173 0.019 0.251-0.009 0.045-0.014 0.09-0.024 0.136-0.036-0.24-0.062-0.474-0.136-0.702-0.225-0.049-0.006-0.1-0.014-0.149-0.017z"/>
		<path d="m37.664 12.157c0.109 0.214 0.218 0.428 0.329 0.645-0.26 0.235-0.108 0.485-0.049 0.725 0.004 0.021 0.084 0.021 0.152 0.035 0.045-0.329 0.021-0.645 0.172-0.944 0.082-0.167 0.106-0.406-0.073-0.598-0.178-0.002-0.37-0.029-0.531 0.137z"/>
		<path d="m21.935 10.311c-0.027-0.223 0.066-0.402 0.181-0.564-0.035-0.125-0.109-0.202-0.201-0.244-0.066 0.315-0.12 0.635-0.152 0.959 0.002 0 0.004 0.003 0.006 0.004 0.092 0.019 0.177-0.066 0.166-0.155z"/>
		<path d="m26.726 17.898c-0.01-0.081-0.108-0.146-0.197-0.123-0.064 0.02-0.121 0.064-0.187 0.082-0.063 0.02-0.147 0.047-0.192 0.02-0.244-0.151-0.548-0.004-0.792-0.172-0.05-0.035-0.172 0.008-0.246 0.047-0.048 0.024-0.084 0.103-0.095 0.162-0.005 0.037 0.045 0.112 0.081 0.119 0.268 0.055 0.539 0.156 0.813 0.063 0.187-0.063 0.362-0.115 0.516-0.031h0.14c0.091-0.005 0.169-0.085 0.159-0.167z"/>
		<path d="m25.448 16.134c-0.093 0.024-0.128 0.107-0.078 0.188 0.212 0.06 0.406 0.127 0.605 0.168 0.167 0.034 0.333 0.022 0.462-0.203-0.262 0.053-0.45-0.031-0.642-0.167-0.075-0.055-0.232-0.013-0.347 0.014z"/>
		<path d="m22.832 14.735c0.023-0.02 0.046-0.052 0.048-0.081 0.001-0.03-0.019-0.083-0.038-0.086-0.186-0.038-0.368-0.132-0.559-0.107 0.043 0.115 0.083 0.23 0.131 0.343 0.108-0.008 0.216-0.017 0.324-0.027 0.032-0.004 0.069-0.019 0.094-0.042z"/>
		<path d="m27.301 18.514c-0.199 0.024-0.395 0.073-0.715 0.136 0.335 0.109 0.551 0.185 0.771 0.244 0.103 0.03 0.187-0.089 0.158-0.202-0.027-0.114-0.101-0.192-0.214-0.178z"/>
		<path d="m26.903 17.117c-0.328-0.328-0.328-0.328-0.65-0.121 0.162 0.347 0.232 0.364 0.65 0.121z"/>
		<path d="m38.381 7.695c-0.021-0.045-0.042-0.089-0.063-0.133-0.008 0.008-0.017 0.018-0.026 0.024 0.029 0.034 0.062 0.079 0.089 0.109z"/>
		<path d="m23.358 14.432c-0.082 0.027-0.14 0.133-0.198 0.21-0.012 0.015 0.01 0.065 0.028 0.089 0.068 0.096 0.166 0.121 0.273 0.083 0.12-0.041 0.205-0.167 0.193-0.274-0.005-0.016-0.006-0.044-0.016-0.048-0.094-0.025-0.201-0.083-0.28-0.06z"/>
		<path d="m35.08 16.367c0.171 0.191 0.262 0.19 0.643-0.009-0.153-0.188-0.265-0.186-0.643 0.009z"/>
		<path d="m22.376 13.683c-0.098 0.006-0.163 0.062-0.165 0.159 0 0.121 0.121 0.257 0.207 0.257 0.097 0 0.221-0.135 0.226-0.242 0.004-0.103-0.117-0.183-0.268-0.174z"/>
		<path d="m34.18 16.376c0.038 0.01 0.098-0.059 0.166-0.104-0.055-0.059-0.098-0.103-0.146-0.153-0.066 0.052-0.134 0.102-0.203 0.151 0.057 0.042 0.116 0.085 0.183 0.106z"/>
		<path d="m35.352 6.824c0.126 0.004 0.225-0.066 0.205-0.175-0.014-0.072-0.078-0.135-0.106-0.182-0.173-0.004-0.316 0.114-0.291 0.21 0.024 0.092 0.094 0.143 0.192 0.147z"/>
		<path d="m36.627 17.032c-0.097 0.001-0.196 0.04-0.29 0.074-0.019 0.006-0.034 0.06-0.028 0.088 0.004 0.03 0.029 0.063 0.056 0.077 0.044 0.025 0.095 0.034 0.135 0.047 0.061-0.015 0.11-0.026 0.16-0.04 0.068-0.018 0.146-0.046 0.113-0.131-0.022-0.051-0.097-0.116-0.146-0.115z"/>
		<path d="m26.28 4.931c0.104-0.01 0.198-0.13 0.16-0.217-0.022-0.052-0.089-0.085-0.115-0.106-0.16 0.005-0.255 0.092-0.232 0.188 0.023 0.092 0.087 0.145 0.187 0.135z"/>
		<path d="m35.933 13.958c0.077-0.023 0.133-0.075 0.123-0.158-0.002-0.014-0.016-0.027-0.026-0.041-0.03 0.068-0.066 0.133-0.097 0.199z"/>
		<path d="m37.481 6.631c-0.028 0.083 0.079 0.186 0.195 0.176 0.046-0.004 0.097-0.044 0.179-0.096-0.013-0.021-0.024-0.042-0.038-0.063-0.093-0.044-0.164-0.081-0.231-0.098-0.027-0.007-0.093 0.044-0.105 0.081z"/>
		<path d="m24.84 7.24c0.057 0 0.112-0.044 0.15-0.062 0.009-0.135-0.08-0.219-0.21-0.212-0.054 0.004-0.132 0.056-0.149 0.104-0.027 0.083 0.077 0.17 0.209 0.17z"/>
		<path d="m37.652 16.305c0.004-0.006 0.008-0.011 0.012-0.016-0.01 0.004-0.018 0.007-0.028 0.011 0.007 0.002 0.011 0.003 0.016 0.005z"/>
		<path d="m25.467 4.763c0.127 0.001 0.21-0.083 0.188-0.205-0.078-0.021-0.168-0.045-0.288-0.077-0.038 0.171-0.058 0.281 0.1 0.282z"/>
		<path d="m25.087 6.371c0.066-0.022 0.118-0.091 0.216-0.178-0.098-0.05-0.153-0.103-0.203-0.1-0.088 0.007-0.176 0.059-0.147 0.166 0.013 0.049 0.103 0.124 0.134 0.112z"/>
		<path d="m27.129 3.981c0.04-0.011 0.065-0.099 0.082-0.155 0.006-0.019-0.034-0.05-0.065-0.094-0.086 0.025-0.179 0.056-0.301 0.091 0.081 0.181 0.189 0.188 0.284 0.158z"/>
		<path d="m27.957 18.788c0.001 0.041 0.058 0.118 0.073 0.114 0.071-0.019 0.136-0.06 0.221-0.102-0.051-0.066-0.071-0.119-0.108-0.136-0.071-0.032-0.189 0.047-0.186 0.124z"/>
		<path d="m35.854 6.013c0.074-0.002 0.145-0.04 0.258-0.076-0.08-0.064-0.113-0.11-0.153-0.119-0.09-0.02-0.178 0.001-0.202 0.103-0.005 0.024 0.065 0.095 0.097 0.092z"/>
		<path d="m27.803 17.861c-0.042 0.007-0.111 0.091-0.104 0.13 0.018 0.107 0.121 0.1 0.197 0.079 0.051-0.014 0.091-0.072 0.188-0.155-0.136-0.029-0.212-0.066-0.281-0.054z"/>
		<path d="m32.552 17.116c0.005 0.047 0.077 0.086 0.133 0.142 0.046-0.054 0.091-0.082 0.102-0.12 0.022-0.081-0.037-0.148-0.104-0.146-0.021 0.008-0.042 0.015-0.063 0.023-0.037 0.029-0.07 0.069-0.068 0.101z"/>
		<path d="m23.358 13.927c0.042 0.002 0.083-0.038 0.164-0.079-0.067-0.058-0.107-0.112-0.159-0.133-0.039-0.014-0.109 0.004-0.139 0.034-0.047 0.045 0.044 0.176 0.134 0.178z"/>
		<path d="m28.09 5.704c0.084 0.021 0.179-0.085 0.148-0.161-0.015-0.038-0.071-0.058-0.135-0.107-0.042 0.063-0.091 0.111-0.102 0.167-0.006 0.028 0.051 0.093 0.089 0.101z"/>
		<path d="m25.953 18.625c-0.074-0.016-0.164 0.075-0.147 0.136 0.042 0.026 0.084 0.05 0.126 0.076 0.046-0.016 0.089-0.058 0.151-0.104-0.063-0.057-0.093-0.101-0.13-0.108z"/>
		<path d="m27.608 19.465c-0.035 0.049-0.074 0.085-0.078 0.117 0.047 0.016 0.093 0.034 0.14 0.049 0.015-0.014 0.028-0.028 0.028-0.042 0.001-0.036-0.049-0.071-0.09-0.124z"/>
		<path d="m26.894 5.521c0.017 0.04 0.025 0.102 0.053 0.112 0.036 0.016 0.088-0.013 0.136-0.021-0.021-0.047-0.029-0.097-0.047-0.1-0.045-0.01-0.095 0.005-0.142 0.009z"/>
		<path d="m30.376 18.733c0.013 0.039 0.044 0.071 0.068 0.105 0.031-0.025 0.062-0.05 0.093-0.077-0.03-0.032-0.06-0.066-0.089-0.097-0.031 0.028-0.076 0.058-0.072 0.069z"/>
		<path d="m30.59 17.873c0.013 0.037 0.021 0.1 0.039 0.103 0.04 0.007 0.084-0.017 0.13-0.027-0.019-0.042-0.029-0.091-0.046-0.094-0.039-0.008-0.081 0.011-0.123 0.018z"/>
		<path d="m27.347 17.078c0.002-0.03-0.056-0.089-0.082-0.087-0.037 0.003-0.071 0.052-0.123 0.097 0.049 0.035 0.087 0.081 0.116 0.077 0.036-0.007 0.086-0.056 0.089-0.087z"/>
		<path d="m35.424 15.406c-0.021-0.008-0.055 0.017-0.083 0.028 0.022 0.034 0.046 0.069 0.07 0.103 0.021-0.018 0.043-0.039 0.065-0.056-0.017-0.026-0.028-0.066-0.052-0.075z"/>
		<path d="m24.669 6.153c-0.027-0.039-0.069-0.068-0.108-0.102-0.024 0.04-0.062 0.088-0.056 0.094 0.034 0.034 0.077 0.06 0.119 0.087 0.016-0.026 0.052-0.068 0.045-0.079z"/>
		<path d="m28.153 4.688c-0.022-0.02-0.043-0.038-0.066-0.057-0.026 0.016-0.07 0.029-0.074 0.05-0.005 0.023 0.024 0.055 0.038 0.083 0.034-0.025 0.068-0.05 0.102-0.076z"/>
		<path d="m38.333 11.341c0.01 0.013 0.026 0.037 0.03 0.035 0.024-0.01 0.045-0.028 0.069-0.042-0.01-0.015-0.022-0.025-0.032-0.036-0.023 0.015-0.045 0.029-0.067 0.043z"/>
		<path d="m30.885 18.79c0.018 0.024 0.041 0.045 0.062 0.068 0.016-0.023 0.031-0.045 0.047-0.068-0.027-0.011-0.054-0.024-0.082-0.03-0.008-0.002-0.03 0.028-0.027 0.03z"/>
		<polygon points="36.244 5.864 36.208 5.863 36.226 5.9"/>
	</g>
	<g opacity=".4">
		<path d="m61.939 16.937c-0.486-0.032-0.959 0.143-1.451 0.111-0.107-0.008-0.221 0.079-0.355 0.134 0.049 0.091 0.061 0.143 0.08 0.146 0.152 0.019 0.311 0.058 0.457 0.037 0.346-0.051 0.682-0.087 1.027 0.009 0.264 0.072 0.764-0.049 1.072-0.222-0.043-0.035-0.074-0.087-0.115-0.095-0.237-0.047-0.475-0.105-0.715-0.12z"/>
		<path d="m50.55 13.556c-0.08-0.019-0.182-0.023-0.254 0.005-0.248 0.101-0.507 0.122-0.769 0.147-0.052 0.006-0.096 0.064-0.162 0.108 0.078 0.052 0.118 0.103 0.164 0.106 0.468 0.034 0.939 0.122 1.404 0.015 0.178-0.04 0.336-0.036 0.512 0.007 0.023 0.006 0.048 0.005 0.071 0.009-0.042-0.089-0.087-0.177-0.125-0.268-0.281-0.02-0.562-0.06-0.841-0.129z"/>
		<path d="m51.519 14.388c-0.275-0.093-0.465 0.101-0.674 0.164-0.617-0.176-0.656-0.168-0.817 0.159 0.671 0.053 1.33 0.095 1.984 0.104-0.113-0.163-0.219-0.331-0.316-0.505-0.067 0.046-0.132 0.092-0.177 0.078z"/>
		<path d="m63.765 15.404c-0.49-0.065-0.98-0.135-1.535 0.038 0.324 0.276 0.639 0.251 0.945 0.203 0.178-0.028 0.338-0.031 0.504 0.045 0.162 0.073 0.273 0.026 0.281-0.085 0.01-0.141-0.101-0.188-0.195-0.201z"/>
		<path d="m60.609 17.814c0.025 0.236 0.064 0.291 0.219 0.287 0.277-0.003 0.555-0.016 0.832-0.03 0.068-0.003 0.137-0.028 0.201-0.051 0.105-0.038 0.113-0.117 0.027-0.3-0.416 0.127-0.855-0.014-1.279 0.094z"/>
		<path d="m48.994 13.096c0.042-0.147-0.031-0.195-0.115-0.219-0.063-0.02-0.136-0.02-0.203-0.009-0.088 0.012-0.175 0.012-0.263 0.017 0.015 0.087 0.026 0.174 0.044 0.26 0.182 0.009 0.367-0.008 0.537-0.049z"/>
		<path d="m53.796 19.479c0.201 0.078 0.402 0.153 0.609 0.216-0.005-0.042-0.016-0.085-0.021-0.128-0.199-0.084-0.391-0.102-0.588-0.088z"/>
		<path d="m49.038 10.219c-0.092-0.014-0.168 0.042-0.183 0.14-0.016 0.096 0.075 0.231 0.158 0.239s0.172 0.012 0.254-0.004c0.201-0.037 0.397-0.086 0.689-0.15-0.337-0.196-0.635-0.185-0.918-0.225z"/>
		<path d="m64.009 16.063c0.006 0.206 0.04 0.313 0.106 0.367 0.07-0.099 0.144-0.196 0.21-0.297-0.106-0.002-0.212-0.013-0.316-0.07z"/>
		<path d="m62.88 14.677c0.209 0.254 0.477 0.136 0.723 0.111 0.055-0.006 0.121-0.108 0.141-0.179 0.01-0.04-0.059-0.119-0.109-0.15-0.121-0.08-0.26-0.081-0.398-0.046-0.154 0.038-0.296 0.098-0.357 0.264z"/>
		<path d="m53.986 6.045c-0.041-0.111-0.158-0.1-0.268-0.084-0.135 0.021-0.27 0.025-0.404 0.048-0.146 0.025-0.242 0.104-0.23 0.296 0.149 0.008 0.3 0.017 0.459 0.025 0.143-0.101 0.292-0.193 0.443-0.281 0-0.001 0.001-0.003 0-0.004z"/>
		<path d="m62.078 7.101c0.041-0.008 0.08-0.104 0.092-0.163 0.004-0.033-0.049-0.095-0.088-0.111-0.262-0.1-0.514-0.076-0.746 0.083-0.023 0.016-0.029 0.061-0.039 0.093 0.01 0.013 0.016 0.032 0.029 0.04 0.238 0.183 0.498 0.102 0.752 0.058z"/>
		<path d="m56.566 3.68c0.035 0.004 0.072 0.004 0.105 0.003 0.127-0.007 0.217-0.113 0.213-0.242-0.002-0.129-0.105-0.238-0.23-0.227-0.102 0.011-0.203 0.047-0.301 0.069-0.064 0.29-0.018 0.37 0.213 0.397z"/>
		<path d="m63.21 16.132c-0.057 0.031-0.098 0.14-0.1 0.213 0 0.084 0.059 0.154 0.164 0.162 0.129 0.01 0.242-0.013 0.328-0.114 0.029-0.037 0.039-0.089 0.057-0.13-0.025-0.038-0.039-0.072-0.064-0.093-0.117-0.094-0.262-0.1-0.385-0.038z"/>
		<path d="m55.322 5.458c-0.24-0.208-0.451-0.198-0.656-0.189-0.043 0.003-0.082 0.073-0.154 0.138 0.158 0.082 0.285 0.146 0.407 0.208 0.112-0.042 0.225-0.083 0.34-0.118 0.021-0.014 0.038-0.024 0.063-0.039z"/>
		<path d="m63.3 8.925c0.113 0.016 0.238 0.009 0.352-0.014 0.045-0.011 0.092-0.087 0.104-0.143 0.008-0.029-0.051-0.102-0.086-0.109-0.166-0.026-0.336-0.061-0.498 0.025-0.022 0.121 0.003 0.223 0.128 0.241z"/>
		<path d="m50.88 9.646c-0.016-0.032-0.025-0.072-0.051-0.089-0.096-0.064-0.199-0.122-0.355-0.217-0.061 0.118-0.145 0.222-0.123 0.257 0.049 0.076 0.146 0.136 0.236 0.163 0.112 0.033 0.243 0.042 0.293-0.114z"/>
		<path d="m59.484 5.765c-0.008 0-0.016 0.002-0.023 0.003 0.056 0.025 0.109 0.053 0.164 0.079-0.032-0.045-0.083-0.087-0.141-0.082z"/>
		<path d="m52.487 18.834c0.037 0.022 0.074 0.045 0.111 0.067 0.195 0.002 0.373-0.017 0.544-0.119-0.441-0.139-0.494-0.142-0.655 0.052z"/>
		<path d="m55.066 19.5c-0.096-0.014-0.207-0.041-0.264 0.083-0.035 0.076 0.045 0.164 0.182 0.19 0.064 0.013 0.135 0.013 0.199 0.005 0.021-0.004 0.039-0.047 0.061-0.073 0.019-0.089-0.057-0.189-0.178-0.205z"/>
		<path d="m53.619 5.518c0.025-0.016 0.035-0.057 0.053-0.084-0.004-0.018-0.004-0.037-0.012-0.049-0.066-0.09-0.26-0.14-0.367-0.082-0.027 0.015-0.045 0.101-0.027 0.131 0.069 0.127 0.222 0.162 0.353 0.084z"/>
		<path d="m51.953 17.196c0.002 0.053 0.061 0.102 0.094 0.156 0.129-0.088 0.225-0.156 0.422-0.292-0.197-0.026-0.281-0.052-0.363-0.045-0.101 0.007-0.159 0.086-0.153 0.181z"/>
		<path d="m49.744 7.173c0.072 0.03 0.203-0.057 0.184-0.113-0.022-0.069-0.079-0.127-0.107-0.166-0.114-0.018-0.215 0.068-0.196 0.145 0.014 0.052 0.068 0.112 0.119 0.134z"/>
		<path d="m55.808 5.296c-0.041-0.015-0.107-0.006-0.141 0.022s-0.044 0.056-0.046 0.084c0.085-0.02 0.17-0.039 0.256-0.056-0.02-0.019-0.038-0.04-0.069-0.05z"/>
		<path d="m50.041 11.349c0.04-0.001 0.116-0.054 0.112-0.071-0.016-0.071-0.056-0.137-0.096-0.225-0.066 0.056-0.116 0.078-0.135 0.117-0.036 0.073 0.036 0.182 0.119 0.179z"/>
		<path d="m63.595 13.927c-0.045-0.041-0.084-0.094-0.137-0.117-0.041-0.017-0.1-0.001-0.145 0.017-0.021 0.009-0.045 0.05-0.045 0.078-0.002 0.026 0.018 0.067 0.039 0.08 0.043 0.024 0.094 0.033 0.172 0.057 0.034-0.034 0.077-0.075 0.116-0.115z"/>
		<path d="m55.796 17.942c-0.01 0.024 0.006 0.07 0.025 0.09 0.086 0.08 0.154 0.018 0.219-0.037 0.023-0.02 0.033-0.056 0.064-0.119-0.033-0.029-0.045-0.044-0.061-0.048-0.092-0.032-0.217 0.021-0.247 0.114z"/>
		<path d="m55.142 3.843c0.025 0.005 0.074-0.014 0.084-0.035 0.012-0.021 0-0.073-0.02-0.089-0.037-0.031-0.088-0.048-0.127-0.07-0.039 0.02-0.082 0.026-0.098 0.05-0.012 0.015 0 0.069 0.02 0.082 0.041 0.031 0.092 0.052 0.141 0.062z"/>
		<path d="m62.732 7.037c0.057 0.009 0.117-0.018 0.176-0.03 0.02-0.031 0.037-0.063 0.057-0.094-0.051-0.017-0.1-0.035-0.152-0.048-0.076-0.025-0.143-0.004-0.158 0.075-0.007 0.027 0.044 0.094 0.077 0.097z"/>
		<path d="m59.722 18.761c0.031 0.027 0.092 0.043 0.127 0.03 0.039-0.012 0.063-0.064 0.105-0.113-0.061-0.019-0.105-0.045-0.148-0.045-0.074 0.001-0.129 0.089-0.084 0.128z"/>
		<path d="m62.335 7.941c0.053-0.008 0.096-0.059 0.158-0.102-0.066-0.056-0.121-0.122-0.137-0.113-0.049 0.027-0.092 0.076-0.117 0.128-0.005 0.011 0.071 0.093 0.096 0.087z"/>
		<path d="m57.449 18.759c0.02 0.039 0.039 0.078 0.059 0.115 0.023-0.021 0.045-0.044 0.068-0.065-0.012-0.03-0.023-0.061-0.039-0.09-0.03 0.014-0.059 0.028-0.088 0.04z"/>
		<path d="m61.193 16.383c0.031-0.013 0.063-0.025 0.09-0.038-0.01-0.031-0.02-0.063-0.033-0.093-0.027 0.013-0.074 0.018-0.08 0.038-0.01 0.026 0.015 0.061 0.023 0.093z"/>
		<path d="m56.925 18.834c-0.002 0.005 0.029 0.032 0.031 0.03 0.021-0.012 0.041-0.031 0.061-0.047-0.017-0.019-0.039-0.036-0.057-0.057-0.011 0.026-0.027 0.049-0.035 0.074z"/>
		<path d="m61.626 6.043c-0.012-0.004-0.025-0.01-0.037-0.015-0.012 0.008-0.025 0.014-0.031 0.025-0.002 0.007 0.012 0.02 0.02 0.03 0.015-0.014 0.031-0.027 0.048-0.04z"/>
		<polygon points="52.689 5.334 52.656 5.333 52.671 5.372"/>
		<path d="m62.181 14.705c0.014-0.01 0.027-0.019 0.041-0.028-0.012-0.013-0.021-0.025-0.031-0.037-0.02 0.017-0.035 0.032-0.051 0.049 0.014 0.005 0.027 0.01 0.041 0.016z"/>
		<path d="m49.537 14.586c0.014 0.005 0.029 0.013 0.044 0.013 0.004 0 0.01-0.022 0.014-0.032-0.014-0.005-0.027-0.012-0.044-0.012-0.004 0-0.009 0.02-0.014 0.031z"/>
		<path d="m58.509 17.906c0.006 0.018 0.01 0.035 0.012 0.053 0.012-0.005 0.025-0.009 0.039-0.013-0.004-0.012-0.002-0.029-0.008-0.033-0.011-0.006-0.027-0.005-0.043-0.007z"/>
		<path d="m63.658 7.805c0.002-0.004-0.021-0.017-0.031-0.027-0.016 0.023-0.031 0.047-0.043 0.073 0 0.003 0.023 0.018 0.035 0.027 0.013-0.024 0.029-0.046 0.039-0.073z"/>
	</g>
	<g opacity=".4">
		<path d="m81.77 17.478c-0.007 0.024-0.009 0.052-0.019 0.075-0.061 0.151-0.18 0.278-0.283 0.436 0.178 0.138 0.369 0.157 0.555 0.179 0.346 0.041 0.697-0.02 1.037 0.099 0.057 0.021 0.137-0.006 0.199-0.031 0.143-0.057 0.281-0.126 0.422-0.192-0.037-0.177-0.166-0.226-0.314-0.222-0.102 0.001-0.201 0.035-0.303 0.065-0.271 0.087-0.479-0.055-0.658-0.218-0.076-0.068-0.08-0.136-0.064-0.205-0.093 0.004-0.184 0.014-0.277 0.014h-0.295z"/>
		<path d="m87.185 14.647c-0.019-0.005-0.03-0.017-0.047-0.023-0.042 0.071-0.082 0.144-0.127 0.212 0.062-0.048 0.12-0.107 0.174-0.189z"/>
		<path d="m76.31 19.617c-0.045-0.008-0.085-0.018-0.129-0.027v0.221h0.051c0.009-0.007 0.021-0.012 0.025-0.019 0.034-0.047 0.035-0.116 0.053-0.175z"/>
		<path d="m77.808 4.907c0.156 0.024 0.309 0.032 0.48 0.048 0.16-0.011 0.334-0.011 0.502-0.041 0.055-0.007 0.133-0.097 0.129-0.138-0.012-0.077-0.059-0.176-0.121-0.21-0.088-0.046-0.201-0.049-0.305-0.053-0.242-0.01-0.484 0.013-0.703 0.124-0.049 0.023-0.076 0.111-0.082 0.171-0.003 0.03 0.061 0.092 0.1 0.099z"/>
		<path d="m82.621 2.896c0.031-0.009 0.063-0.015 0.095-0.022-0.112-0.005-0.223-0.017-0.336-0.017 0.013 0.018 0.027 0.035 0.042 0.04 0.062 0.017 0.138 0.017 0.199-0.001z"/>
		<path d="m85.81 18.596c-0.311-0.052-0.611-0.02-0.896 0.125-0.025 0.013-0.047 0.054-0.049 0.084 0 0.028 0.02 0.078 0.041 0.086 0.207 0.071 0.416 0.134 0.648 0.207 0.098-0.041 0.223-0.066 0.311-0.135 0.055-0.041 0.08-0.15 0.074-0.228-0.006-0.049-0.076-0.129-0.129-0.139z"/>
		<path d="m89.078 15.431c-0.123-0.044-0.176 0.051-0.18 0.327 0.184-0.026 0.32-0.064 0.453-0.06 0.076 0.003 0.153 0.015 0.23 0.03 0.062-0.101 0.126-0.199 0.184-0.303-0.226 0.058-0.449 0.091-0.687 0.006z"/>
		<path d="m87.699 5.405c0.133 0.12 0.273 0.207 0.465 0.143 0.092-0.031 0.195-0.045 0.287-0.096-0.138-0.142-0.282-0.276-0.43-0.409-0.19-0.014-0.261 0.083-0.322 0.362z"/>
		<path d="m77.851 4.106c0.078 0.051 0.178 0.1 0.271 0.102 0.17 0.003 0.34-0.027 0.51-0.047 0.076-0.011 0.129-0.123 0.102-0.205-0.035-0.112-0.113-0.176-0.223-0.179-0.207-0.008-0.41-0.002-0.654-0.002-0.063 0.252-0.072 0.288-0.006 0.331z"/>
		<path d="m87.51 4.618c-0.073-0.057-0.147-0.112-0.224-0.166-0.003 0.003-0.007 0.004-0.01 0.008 0.076 0.094 0.155 0.136 0.234 0.158z"/>
		<path d="m77.714 18.741c-0.158-0.055-0.326-0.105-0.494-0.111-0.156-0.005-0.285 0.092-0.359 0.278 0.27 0.208 0.557 0.215 0.859 0.09 0.09-0.038 0.092-0.224-0.006-0.257z"/>
		<path d="m78.091 5.61c0.004-0.053-0.049-0.144-0.096-0.16-0.131-0.045-0.27-0.058-0.336-0.071-0.16 0-0.25-0.016-0.332 0.005-0.061 0.016-0.115 0.074-0.145 0.127-0.01 0.021 0.037 0.1 0.076 0.122 0.219 0.133 0.461 0.171 0.705 0.114 0.056-0.012 0.124-0.087 0.128-0.137z"/>
		<path d="m85.714 4.588c0.203 0.014 0.408 0.021 0.611 0.016 0.168-0.005 0.332-0.042 0.48-0.151-0.027-0.108-0.059-0.191-0.166-0.182-0.098 0.008-0.211 0.086-0.291 0.058-0.277-0.097-0.494 0.035-0.721 0.146 0.031 0.043 0.056 0.111 0.087 0.113z"/>
		<path d="m80.148 5.075c0.211 0.026 0.42 0.016 0.586-0.229-0.291-0.247-0.541-0.141-0.791-0.063-0.012 0.185 0.072 0.275 0.205 0.292z"/>
		<path d="m76.941 4.924c0.01-0.228-0.117-0.3-0.242-0.342-0.105-0.036-0.232-0.029-0.348-0.018-0.1 0.011-0.156 0.172-0.084 0.244 0.068 0.069 0.158 0.14 0.25 0.15 0.131 0.017 0.268-0.018 0.424-0.034z"/>
		<path d="m81.902 19.585c-0.225-0.022-0.449-0.042-0.674-0.059-0.031 0-0.068 0.021-0.096 0.042-0.025 0.021-0.049 0.053-0.053 0.082-0.002 0.029 0.016 0.081 0.039 0.088 0.073 0.028 0.149 0.05 0.225 0.072h0.481c0.063-0.033 0.124-0.063 0.188-0.125-0.063-0.059-0.087-0.096-0.11-0.1z"/>
		<path d="m77.304 3.213c0.117 0.005 0.232-0.011 0.34-0.018 0.07-0.142 0.026-0.245-0.04-0.342h-0.322c-0.039 0.041-0.082 0.081-0.106 0.13-0.048 0.099 0.023 0.224 0.128 0.23z"/>
		<path d="m86.667 5.121c-0.188-0.044-0.373-0.044-0.555 0.031-0.076 0.034-0.082 0.169-0.01 0.219 0.158 0.106 0.326 0.143 0.494 0.045 0.063-0.038 0.098-0.127 0.141-0.184-0.034-0.057-0.046-0.105-0.07-0.111z"/>
		<path d="m85.722 16.28c0.127 0.226 0.199 0.276 0.35 0.227 0.145-0.046 0.287-0.109 0.428-0.167-0.25-0.106-0.51-0.198-0.778-0.06z"/>
		<path d="m78.605 17.119c0.051 0.097 0.087 0.156 0.121 0.198v-0.314c-0.043 0.034-0.083 0.075-0.121 0.116z"/>
		<path d="m76.839 3.118c-0.209-0.223-0.427-0.188-0.658-0.073v0.094c0.269 0.18 0.442 0.175 0.658-0.021z"/>
		<path d="m78.214 16.228c-0.055-0.012-0.162 0.031-0.17 0.063-0.016 0.072-0.006 0.178 0.039 0.226 0.115 0.118 0.205 0.095 0.432-0.063-0.035-0.165-0.174-0.2-0.301-0.226z"/>
		<path d="m84.212 19.594c-0.054-0.002-0.104 0.012-0.15 0.038 0.051-0.011 0.1-0.028 0.15-0.038z"/>
		<path d="m89.16 16.316c-0.003 0.009 0.001 0.023 0.001 0.035 0.027-0.037 0.056-0.072 0.082-0.109-0.033 0.01-0.076 0.044-0.083 0.074z"/>
		<path d="m87.98 12.068c-0.012 0.104-0.027 0.207-0.043 0.309 0.072 0.031 0.132 0.018 0.211-0.038 0.123-0.085 0.127-0.195 0.01-0.313-0.058 0.016-0.118 0.028-0.178 0.042z"/>
		<path d="m77.179 13.134c0.148 0.002 0.295-0.013 0.441-0.021-0.119-0.209-0.27-0.259-0.439-0.196-0.037 0.014-0.08 0.074-0.082 0.112-0.002 0.037 0.051 0.105 0.08 0.105z"/>
		<path d="m87.964 6.253c0.1 0.051 0.23-0.053 0.258-0.221-0.027-0.029-0.064-0.096-0.115-0.114-0.111-0.036-0.268 0.076-0.256 0.183 0.006 0.056 0.061 0.126 0.113 0.152z"/>
		<path d="m82.685 18.803c-0.027 0.095 0.137 0.211 0.252 0.198 0.072-0.009 0.174-0.131 0.139-0.188-0.049-0.078-0.129-0.134-0.219-0.219-0.078 0.087-0.154 0.14-0.172 0.209z"/>
		<path d="m78.304 6.611c0.068-0.003 0.139-0.018 0.197-0.046 0.031-0.015 0.047-0.067 0.078-0.115-0.148-0.046-0.275-0.084-0.404-0.123-0.06 0.235-0.035 0.293 0.129 0.284z"/>
		<path d="m80.58 3.229c0.023-0.015 0.027-0.059 0.041-0.088-0.004-0.015-0.002-0.036-0.014-0.045-0.107-0.109-0.307-0.097-0.416 0.03-0.012 0.016-0.01 0.074 0.006 0.088 0.101 0.086 0.26 0.092 0.383 0.015z"/>
		<path d="m77.41 11.358c0.086 0.114 0.191 0.144 0.311 0.038 0.014-0.133-0.07-0.192-0.176-0.221-0.039-0.009-0.109 0.013-0.131 0.045-0.024 0.032-0.028 0.108-0.004 0.138z"/>
		<path d="m76.273 15.458c-0.019-0.037-0.052-0.066-0.092-0.098v0.223c0.068-0.028 0.116-0.08 0.092-0.125z"/>
		<path d="m77.501 15.363c-0.063-0.012-0.133 0.007-0.197 0.028-0.023 0.009-0.057 0.059-0.049 0.082 0.012 0.041 0.041 0.086 0.076 0.113 0.021 0.021 0.064 0.014 0.098 0.021 0.035-0.007 0.068-0.014 0.1-0.021 0.068-0.015 0.15-0.038 0.123-0.119-0.016-0.048-0.094-0.092-0.151-0.104z"/>
		<path d="m79.765 19.58c-0.02-0.01-0.088 0.048-0.096 0.084-0.019 0.07 0.051 0.126 0.139 0.146h0.101c0.03-0.017 0.063-0.042 0.12-0.077-0.108-0.066-0.18-0.121-0.264-0.153z"/>
		<path d="m89.117 13.897c-0.098-0.042-0.158-0.094-0.209-0.084-0.053 0.012-0.117 0.071-0.137 0.124-0.025 0.06 0.111 0.151 0.182 0.116 0.052-0.025 0.088-0.081 0.164-0.156z"/>
		<path d="m86.517 15.543c0.018 0.113 0.113 0.105 0.195 0.074 0.045-0.016 0.08-0.052 0.158-0.105-0.084-0.051-0.141-0.117-0.201-0.121-0.037-0.003-0.073 0.013-0.102 0.035-0.006 0.006-0.012 0.013-0.018 0.02-0.021 0.026-0.039 0.057-0.032 0.097z"/>
		<path d="m77.685 7.274c0.008-0.023-0.045-0.07-0.086-0.131-0.061 0.055-0.135 0.095-0.137 0.136 0 0.042 0.07 0.085 0.113 0.128 0.038-0.043 0.089-0.082 0.11-0.133z"/>
		<path d="m81.628 18.675c-0.014 0.05-0.045 0.104-0.037 0.15 0.012 0.059 0.049 0.121 0.092 0.162 0.014 0.016 0.123-0.034 0.123-0.041-0.018-0.074-0.047-0.146-0.07-0.216-0.037-0.019-0.07-0.037-0.108-0.055z"/>
		<path d="m76.333 13.939c0.117 0.113 0.242 0.074 0.434 0.035-0.178-0.091-0.293-0.139-0.434-0.035z"/>
		<path d="m77.199 13.955c0.061-0.01 0.113-0.049 0.172-0.076-0.029-0.053-0.037-0.095-0.063-0.108-0.088-0.047-0.217 0.004-0.248 0.092-0.006 0.016-0.002 0.046 0.006 0.049 0.043 0.018 0.092 0.05 0.133 0.043z"/>
		<path d="m84.355 3.715c0.037-0.02 0.057-0.068 0.096-0.119-0.059-0.032-0.104-0.075-0.141-0.068-0.041 0.007-0.09 0.054-0.104 0.094-0.019 0.056 0.092 0.125 0.149 0.093z"/>
		<path d="m82.23 19.664c-0.033 0.067 0.021 0.134 0.096 0.134 0.072 0 0.145-0.029 0.301-0.066-0.129-0.076-0.18-0.126-0.23-0.129-0.058-0.005-0.146 0.02-0.167 0.061z"/>
		<path d="m77.056 18.078c0.031 0 0.064-0.052 0.117-0.098-0.061-0.033-0.109-0.079-0.137-0.07-0.053 0.022-0.094 0.072-0.141 0.112 0.054 0.019 0.108 0.054 0.161 0.056z"/>
		<path d="m81.269 3.08c-0.105-0.084-0.213-0.106-0.303 0.015-0.018 0.021 0.014 0.118 0.041 0.125 0.127 0.042 0.227 0.005 0.262-0.14z"/>
		<path d="m77.13 19.646c0.027 0.051 0.076 0.094 0.137 0.161 0.043-0.063 0.094-0.114 0.086-0.128-0.031-0.047-0.08-0.093-0.133-0.119-0.012-0.007-0.095 0.076-0.09 0.086z"/>
		<path d="m79.435 3.916c-0.078-0.06-0.123-0.104-0.174-0.124-0.014-0.005-0.086 0.068-0.08 0.098 0.01 0.057 0.053 0.105 0.084 0.158 0.045-0.035 0.092-0.072 0.17-0.132z"/>
		<path d="m86.337 6.057c0.014 0.079 0.084 0.097 0.152 0.072 0.039-0.015 0.068-0.054 0.137-0.113-0.094-0.026-0.15-0.055-0.209-0.051-0.031 0.002-0.085 0.066-0.08 0.092z"/>
		<path d="m87.308 17.237c-0.035 0.044 0.041 0.122 0.123 0.108 0.039-0.006 0.076-0.042 0.137-0.08-0.061-0.039-0.094-0.083-0.133-0.083-0.043-0.003-0.098 0.022-0.127 0.055z"/>
		<path d="m87.705 14.813c0.045 0.021 0.086 0.062 0.129 0.063 0.037 0.001 0.078-0.039 0.17-0.094-0.107-0.03-0.162-0.058-0.219-0.057-0.028 0-0.053 0.055-0.08 0.088z"/>
		<path d="m85.619 4.482c0.002-0.002 0.008-0.004 0.01-0.006-0.002-0.001-0.002-0.004-0.002-0.006-0.006 0.003-0.012 0.006-0.018 0.01 0.002 0.001 0.006 0.002 0.008 0.004 0 0 0-0.002 0.002-0.002z"/>
		<path d="m85.609 4.48c-0.072-0.025-0.143-0.059-0.217-0.07-0.023-0.003-0.055 0.063-0.082 0.096 0.035 0.028 0.078 0.083 0.102 0.076 0.07-0.023 0.132-0.065 0.197-0.102z"/>
		<path d="m83.197 19.621c0.023 0.036 0.043 0.072 0.063 0.112 0.025-0.021 0.047-0.04 0.072-0.057-0.016-0.027-0.025-0.068-0.047-0.077-0.02-0.008-0.055 0.013-0.088 0.022z"/>
		<path d="m86.228 18.045c0.021 0.042 0.035 0.098 0.07 0.116 0.021 0.013 0.074-0.031 0.145-0.063-0.063-0.048-0.094-0.081-0.131-0.092-0.023-0.007-0.057 0.024-0.084 0.039z"/>
		<path d="m90.794 11.447c0.011-0.001 0.022-0.003 0.034-0.005 0.001-0.046 0.007-0.09 0.007-0.136v-0.002c-0.023 0.019-0.053 0.041-0.066 0.062-0.008 0.017 0.022 0.083 0.025 0.081z"/>
		<path d="m87.822 15.515c0.041 0.018 0.076 0.041 0.117 0.048 0.01 0.001 0.043-0.061 0.039-0.065-0.033-0.032-0.07-0.057-0.109-0.082-0.014 0.028-0.028 0.056-0.047 0.099z"/>
		<path d="m88.634 6.887c0.006 0.013 0.016 0.04 0.021 0.04 0.033-0.002 0.063-0.012 0.094-0.017-0.012-0.022-0.023-0.044-0.033-0.066-0.027 0.013-0.054 0.028-0.082 0.043z"/>
		<path d="m88.853 12.2c-0.01-0.022-0.045-0.034-0.068-0.049-0.01 0.029-0.029 0.061-0.023 0.085 0.006 0.018 0.045 0.029 0.07 0.041 0.009-0.027 0.027-0.057 0.021-0.077z"/>
		<path d="m77.316 12.116c-0.018 0.02-0.035 0.04-0.049 0.063-0.002 0.006 0.023 0.036 0.031 0.034 0.025-0.007 0.049-0.023 0.072-0.038-0.017-0.019-0.035-0.041-0.054-0.059z"/>
		<path d="m80.242 3.958c0.018 0.038 0.041 0.073 0.063 0.11 0.02-0.019 0.043-0.037 0.078-0.067-0.041-0.029-0.078-0.055-0.115-0.083-0.009 0.014-0.032 0.033-0.026 0.04z"/>
		<path d="m85.488 18.127c-0.012-0.004-0.029 0.014-0.043 0.021 0.029 0.035 0.059 0.068 0.088 0.101 0.018-0.019 0.035-0.038 0.07-0.075-0.043-0.019-0.076-0.037-0.115-0.047z"/>
		<path d="m87.232 18.004c0.006 0.014 0.014 0.026 0.021 0.04 0.014-0.003 0.029-0.006 0.045-0.008-0.01-0.015-0.014-0.034-0.025-0.041-0.008-0.006-0.027 0.005-0.041 0.009z"/>
		<polygon points="79.394 4.681 79.363 4.665 79.361 4.692"/>
		<polygon points="88.347 15.546 88.353 15.514 88.316 15.525"/>
		<path d="m87.083 16.399c-0.002 0.005 0.02 0.027 0.029 0.029 0.014 0.001 0.039-0.017 0.037-0.021-0.004-0.025-0.016-0.05-0.025-0.075-0.015 0.022-0.033 0.044-0.041 0.067z"/>
	</g>
</g>
</svg>
