<?xml version="1.0" encoding="UTF-8"?>
<svg width="91px" height="36px" viewBox="0 0 91 36" version="1.1" xmlns="http://www.w3.org/2000/svg" xmlns:xlink="http://www.w3.org/1999/xlink">
    <!-- Generator: Sketch 52.6 (67491) - http://www.bohemiancoding.com/sketch -->
    <title>FTL-logo</title>
    <desc>Created with Sketch.</desc>
    <g id="Page-1" stroke="none" stroke-width="1" fill="none" fill-rule="evenodd">
        <g id="FTL-logo">
            <g id="to_love" transform="translate(5.000000, 28.000000)" fill="#777777">
                <g id="Group" transform="translate(17.000000, 0.000000)">
                    <path d="M1.907,1.568 L0.278,1.568 C0.168,1.568 0.088,1.478 0.088,1.379 L0.088,0.818 C0.088,0.716 0.168,0.629 0.278,0.629 L4.577,0.629 C4.686,0.629 4.766,0.719 4.766,0.818 L4.766,1.379 C4.766,1.479 4.686,1.568 4.577,1.568 L2.947,1.568 L2.947,7.435 C2.947,7.535 2.857,7.623 2.757,7.623 L2.099,7.623 C1.997,7.623 1.909,7.533 1.909,7.435 L1.907,1.568 Z" id="Path"></path>
                    <path d="M9.827,0.529 C11.825,0.529 13.425,2.134 13.425,4.134 C13.425,6.132 11.825,7.724 9.827,7.724 C7.827,7.724 6.238,6.132 6.238,4.134 C6.238,2.135 7.827,0.529 9.827,0.529 Z M9.827,6.727 C11.255,6.727 12.425,5.567 12.425,4.137 C12.425,2.717 11.257,1.53 9.827,1.53 C8.407,1.53 7.237,2.718 7.237,4.137 C7.237,5.566 8.407,6.727 9.827,6.727 Z" id="Shape" fill-rule="nonzero"></path>
                    <path d="M19.059,0.818 C19.059,0.716 19.139,0.629 19.248,0.629 L19.908,0.629 C20.008,0.629 20.097,0.719 20.097,0.818 L20.097,6.695 L22.804,6.695 C22.912,6.695 22.992,6.785 22.992,6.883 L22.992,7.436 C22.992,7.536 22.912,7.624 22.804,7.624 L19.246,7.624 C19.137,7.624 19.057,7.534 19.057,7.436 L19.059,0.818 Z" id="Path"></path>
                    <path d="M28.057,0.529 C30.057,0.529 31.655,2.134 31.655,4.134 C31.655,6.132 30.057,7.724 28.057,7.724 C26.059,7.724 24.467,6.132 24.467,4.134 C24.467,2.135 26.059,0.529 28.057,0.529 Z M28.057,6.727 C29.487,6.727 30.657,5.567 30.657,4.137 C30.657,2.717 29.487,1.53 28.057,1.53 C26.637,1.53 25.467,2.718 25.467,4.137 C25.467,5.566 26.637,6.727 28.057,6.727 Z" id="Shape" fill-rule="nonzero"></path>
                    <path d="M33.108,0.889 C33.047,0.758 33.128,0.629 33.278,0.629 L33.987,0.629 C34.067,0.629 34.137,0.69 34.157,0.738 L36.357,5.685 L36.418,5.685 L38.617,0.738 C38.638,0.687 38.697,0.629 38.787,0.629 L39.496,0.629 C39.646,0.629 39.726,0.758 39.666,0.889 L36.6,7.618 C36.569,7.677 36.508,7.725 36.428,7.725 L36.328,7.725 C36.258,7.725 36.187,7.674 36.158,7.618 L33.108,0.889 Z" id="Path"></path>
                    <path d="M41.679,0.818 C41.679,0.716 41.757,0.629 41.868,0.629 L45.866,0.629 C45.973,0.629 46.054,0.719 46.054,0.818 L46.054,1.379 C46.054,1.479 45.974,1.568 45.866,1.568 L42.708,1.568 L42.708,3.607 L45.376,3.607 C45.478,3.607 45.564,3.697 45.564,3.795 L45.564,4.356 C45.564,4.465 45.474,4.545 45.376,4.545 L42.708,4.545 L42.708,6.691 L45.866,6.691 C45.973,6.691 46.054,6.783 46.054,6.88 L46.054,7.431 C46.054,7.533 45.974,7.62 45.866,7.62 L41.868,7.62 C41.757,7.62 41.679,7.53 41.679,7.431 L41.679,0.818 Z" id="Path"></path>
                </g>
                <path d="M12.506,3.957 C11.834,3.258 10.975,3.543 10.082,3.48 C9.094,3.41 8.006,3.681 7.038,3.492 C7.038,3.543 5.147,3.539 4.96,3.523 C4.747,3.431 4.508,3.533 4.292,3.535 C3.961,3.537 3.636,3.508 3.306,3.525 C2.934,3.543 2.567,3.546 2.197,3.533 C1.916,3.519 1.522,3.424 1.253,3.531 C1.269,3.543 1.285,3.552 1.301,3.564 C1.195,3.572 1.087,3.544 0.983,3.57 C0.914,3.574 0.823,3.578 0.767,3.533 C0.839,3.584 0.681,3.578 0.655,3.543 C0.633,3.563 0.609,3.578 0.584,3.594 C0.545,3.606 0.508,3.578 0.471,3.608 C0.516,3.608 0.575,3.674 0.6,3.706 C0.562,3.696 0.625,3.737 0.634,3.741 C0.636,3.733 0.977,3.8 0.989,3.848 C1.015,3.868 1.176,3.891 1.172,3.883 C1.198,3.903 1.177,3.879 1.173,3.875 C1.228,3.852 1.286,3.922 1.34,3.91 C1.315,3.806 1.469,3.871 1.528,3.879 C1.51,3.854 1.491,3.828 1.473,3.803 C1.525,3.826 1.594,3.864 1.649,3.873 C1.665,3.875 1.791,3.883 1.698,3.879 C1.73,3.891 1.761,3.904 1.791,3.922 C1.798,3.875 2.023,3.94 1.977,3.979 C2.036,3.913 2.18,3.969 2.251,3.985 C2.243,3.979 2.574,4.065 2.52,4.036 C2.535,3.968 3.082,3.991 3.023,4.083 C3.044,4.06 3.056,4.052 3.086,4.042 C3.115,4.077 3.207,4.087 3.143,3.974 C3.183,3.954 3.359,3.986 3.358,3.986 C3.393,3.98 3.679,4.031 3.687,4.013 C3.718,4.033 3.79,4.033 3.812,4.042 C3.77,3.962 3.888,4.026 3.877,4.085 C3.9,4.038 4.019,4.087 4.065,4.056 C4.013,4.079 4,4.072 4.026,4.027 C4.057,4.025 4.087,4.023 4.117,4.021 C4.141,4.007 4.321,3.986 4.313,4.064 C4.333,4.023 4.547,4.029 4.554,4.091 C4.563,4.056 4.759,4.044 4.749,4.101 C5.387,4.154 6.131,4.205 6.772,4.144 C6.826,4.15 6.834,4.138 6.795,4.109 C6.867,4.134 7.027,4.136 7.082,4.175 C7.071,4.161 7.061,4.146 7.05,4.13 C7.062,4.132 7.167,4.126 7.109,4.15 C7.392,4.076 7.683,4.197 7.966,4.129 C7.959,4.139 8.4,4.182 8.411,4.154 C8.43,4.146 8.448,4.134 8.465,4.121 C8.433,4.146 8.448,4.154 8.512,4.146 C8.933,4.207 9.359,4.166 9.781,4.199 C9.74,4.174 9.75,4.166 9.812,4.179 C10.057,4.181 10.305,4.161 10.528,4.185 C10.889,4.165 11.246,4.193 11.607,4.181 C11.782,4.175 12.017,4.222 12.183,4.15 C12.176,4.152 12.621,3.849 12.443,3.943 C12.408,3.992 12.429,3.998 12.506,3.957 C12.445,3.893 12.362,4.037 12.506,3.957 Z" id="Shape" fill-rule="nonzero"></path>
                <path d="M68.828,3.957 C68.904,3.998 68.926,3.992 68.891,3.941 C68.713,3.847 69.159,4.15 69.151,4.148 C69.317,4.22 69.553,4.173 69.727,4.179 C70.088,4.191 70.446,4.163 70.807,4.183 C71.03,4.16 71.278,4.179 71.524,4.177 C71.585,4.163 71.594,4.171 71.553,4.197 C71.977,4.164 72.403,4.205 72.823,4.144 C72.887,4.152 72.903,4.144 72.87,4.119 C72.888,4.133 72.905,4.144 72.925,4.152 C72.935,4.179 73.376,4.136 73.37,4.127 C73.653,4.195 73.944,4.074 74.227,4.148 C74.168,4.125 74.274,4.13 74.286,4.128 C74.274,4.144 74.265,4.159 74.253,4.173 C74.308,4.134 74.47,4.132 74.54,4.107 C74.503,4.136 74.511,4.148 74.563,4.142 C75.206,4.203 75.95,4.152 76.586,4.099 C76.576,4.042 76.772,4.054 76.781,4.089 C76.787,4.026 77.002,4.021 77.021,4.062 C77.013,3.984 77.193,4.005 77.216,4.019 C77.247,4.021 77.277,4.023 77.308,4.025 C77.335,4.07 77.322,4.078 77.269,4.054 C77.316,4.085 77.435,4.036 77.458,4.083 C77.446,4.024 77.565,3.96 77.522,4.04 C77.545,4.03 77.616,4.03 77.647,4.011 C77.655,4.029 77.942,3.978 77.977,3.984 C77.975,3.984 78.151,3.953 78.192,3.972 C78.128,4.085 78.219,4.076 78.249,4.04 C78.278,4.05 78.29,4.058 78.312,4.081 C78.253,3.989 78.8,3.966 78.814,4.034 C78.759,4.063 79.091,3.977 79.084,3.983 C79.154,3.967 79.299,3.911 79.357,3.977 C79.312,3.938 79.537,3.873 79.543,3.92 C79.574,3.902 79.604,3.889 79.637,3.877 C79.543,3.881 79.67,3.873 79.686,3.871 C79.741,3.861 79.809,3.824 79.862,3.801 C79.844,3.826 79.825,3.852 79.807,3.877 C79.866,3.869 80.02,3.805 79.995,3.908 C80.05,3.92 80.108,3.849 80.163,3.873 C80.157,3.877 80.138,3.9 80.163,3.881 C80.159,3.889 80.319,3.865 80.347,3.846 C80.359,3.797 80.701,3.731 80.702,3.739 C80.71,3.735 80.772,3.694 80.735,3.704 C80.76,3.673 80.819,3.606 80.864,3.606 C80.829,3.577 80.79,3.604 80.753,3.592 C80.728,3.576 80.702,3.561 80.681,3.541 C80.656,3.576 80.497,3.582 80.57,3.531 C80.513,3.576 80.424,3.572 80.353,3.568 C80.249,3.543 80.142,3.57 80.035,3.562 C80.053,3.55 80.068,3.541 80.084,3.529 C79.814,3.422 79.42,3.517 79.139,3.531 C78.77,3.545 78.403,3.541 78.03,3.523 C77.702,3.505 77.376,3.535 77.046,3.533 C76.829,3.531 76.589,3.429 76.376,3.521 C76.19,3.537 74.3,3.541 74.3,3.49 C73.331,3.679 72.243,3.408 71.255,3.478 C70.359,3.543 69.5,3.258 68.828,3.957 C68.972,4.037 68.888,3.893 68.828,3.957 Z" id="Shape" fill-rule="nonzero"></path>
            </g>
            <g id="food" fill="#F6626E">
                <path d="M0.707,1.562 C0.707,1.298 0.918,1.059 1.21,1.059 L12.177,1.059 C12.469,1.059 12.68,1.298 12.68,1.562 L12.68,4.45 C12.68,4.715 12.469,4.954 12.177,4.954 L4.839,4.954 L4.839,8.768 L10.88,8.768 C11.145,8.768 11.383,9.007 11.383,9.272 L11.383,12.161 C11.383,12.425 11.145,12.663 10.88,12.663 L4.839,12.663 L4.839,19.1 C4.839,19.367 4.601,19.606 4.336,19.606 L1.21,19.606 C0.918,19.606 0.707,19.367 0.707,19.1 L0.707,1.562 Z" id="Path"></path>
                <path d="M29.435,0.794 C34.734,0.794 38.973,5.059 38.973,10.358 C38.973,15.657 34.734,19.869 29.435,19.869 C24.137,19.869 19.924,15.657 19.924,10.358 C19.924,5.059 24.137,0.794 29.435,0.794 Z M29.435,15.629 C32.35,15.629 34.734,13.247 34.734,10.358 C34.734,7.443 32.35,5.033 29.435,5.033 C26.547,5.033 24.164,7.443 24.164,10.358 C24.164,13.247 26.547,15.629 29.435,15.629 Z" id="Shape" fill-rule="nonzero"></path>
                <path d="M55.992,0.794 C61.291,0.794 65.529,5.059 65.529,10.358 C65.529,15.657 61.291,19.869 55.992,19.869 C50.693,19.869 46.48,15.657 46.48,10.358 C46.48,5.059 50.693,0.794 55.992,0.794 Z M55.992,15.629 C58.906,15.629 61.291,13.247 61.291,10.358 C61.291,7.443 58.906,5.033 55.992,5.033 C53.103,5.033 50.721,7.443 50.721,10.358 C50.72,13.247 53.103,15.629 55.992,15.629 Z" id="Shape" fill-rule="nonzero"></path>
                <path d="M74.388,1.562 C74.388,1.298 74.601,1.059 74.865,1.059 L81.33,1.059 C86.443,1.059 90.627,5.219 90.627,10.307 C90.627,15.447 86.443,19.606 81.33,19.606 L74.865,19.606 C74.601,19.606 74.388,19.367 74.388,19.1 L74.388,1.562 Z M81.064,15.684 C84.056,15.684 86.23,13.325 86.23,10.306 C86.23,7.311 84.056,4.953 81.064,4.953 L78.519,4.953 L78.519,15.683 L81.064,15.683 L81.064,15.684 Z" id="Shape" fill-rule="nonzero"></path>
            </g>
            <g id="bottom_texture" transform="translate(1.000000, 1.000000)" fill="#FFFFFF" opacity="0.4">
                <g id="Group">
                    <path d="M2.272,1.063 C2.299,1.16 2.333,1.256 2.368,1.365 C2.27,1.434 2.188,1.492 2.063,1.578 C2.467,1.957 2.845,1.721 3.241,1.682 C3.182,1.521 3.109,1.401 3.1,1.275 C3.088,1.139 3.206,1.011 3.161,0.854 L2.28,0.854 C2.259,0.916 2.251,0.986 2.272,1.063 Z" id="Path"></path>
                    <path d="M2.009,3.348 C2.043,3.253 1.962,3.186 1.881,3.154 C1.769,3.108 1.623,3.021 1.542,3.061 C1.285,3.181 0.976,3.02 0.75,3.233 C0.729,3.253 0.727,3.29 0.715,3.32 C0.724,3.336 0.73,3.359 0.742,3.364 C1.094,3.525 1.473,3.54 1.85,3.526 C1.907,3.524 1.982,3.42 2.009,3.348 Z" id="Path"></path>
                    <path d="M2.467,11.584 C2.26,11.569 2.05,11.561 1.842,11.568 C1.787,11.57 1.704,11.627 1.688,11.678 C1.653,11.781 1.747,11.86 1.825,11.856 C2.169,11.841 2.525,12.164 2.862,11.809 C2.897,11.773 2.97,11.773 3.046,11.775 L3.046,11.527 C2.839,11.608 2.789,11.608 2.467,11.584 Z" id="Path"></path>
                    <path d="M3.849,9.472 C4.103,9.376 4.349,9.346 4.615,9.452 C4.715,9.24 4.615,9.172 4.511,9.178 C4.11,9.201 3.714,9.179 3.317,9.117 C3.262,9.109 3.192,9.164 3.134,9.202 C3.079,9.237 3.087,9.359 3.145,9.38 C3.373,9.468 3.61,9.564 3.849,9.472 Z" id="Path"></path>
                    <path d="M4.223,0.956 C4.356,0.981 4.487,1.016 4.619,1.046 C4.76,1.011 4.901,0.994 5.022,0.936 C5.047,0.923 5.068,0.89 5.083,0.854 L3.919,0.854 C3.948,0.981 4.114,0.935 4.223,0.956 Z" id="Path"></path>
                    <path d="M2.828,7.419 C2.573,7.377 2.314,7.342 2.059,7.347 C1.956,7.349 1.85,7.452 1.756,7.522 C1.702,7.562 1.752,7.719 1.819,7.742 C1.867,7.758 1.921,7.775 1.968,7.767 C2.29,7.719 2.61,7.664 2.965,7.605 C2.917,7.54 2.881,7.429 2.828,7.419 Z" id="Path"></path>
                    <path d="M2.32,9.899 C2.164,9.893 2.063,9.984 2.011,10.133 C2.104,10.283 2.241,10.269 2.377,10.223 C2.645,10.135 2.906,10.087 3.185,10.201 C3.291,10.243 3.423,10.232 3.544,10.23 C3.601,10.23 3.69,10.228 3.661,10.084 C3.527,10.057 3.381,10.015 3.232,9.995 C3.081,9.976 2.928,9.979 2.777,9.963 C2.624,9.946 2.474,9.906 2.32,9.899 Z" id="Path"></path>
                    <path d="M5.889,1.004 C6.111,1.01 6.336,0.971 6.557,0.939 C6.579,0.936 6.603,0.89 6.611,0.854 L5.685,0.854 C5.709,0.962 5.806,1.002 5.889,1.004 Z" id="Path"></path>
                    <path d="M10.382,2.141 C10.272,2.178 10.162,2.241 10.179,2.417 C10.41,2.57 10.611,2.435 10.886,2.364 L10.886,2.231 C10.666,2.115 10.528,2.091 10.382,2.141 Z" id="Path"></path>
                    <path d="M0.708,9.071 C0.639,9.076 0.57,9.073 0.5,9.069 L0.5,9.283 C0.597,9.248 0.67,9.186 0.708,9.071 Z" id="Path"></path>
                    <path d="M2.885,5.041 C2.695,4.74 2.626,4.739 2.015,5.041 L2.463,5.041 L2.885,5.041 Z" id="Path"></path>
                    <path d="M2.514,14.414 C2.649,14.376 2.785,14.346 2.913,14.297 C2.946,14.284 2.978,14.21 2.971,14.171 C2.965,14.13 2.915,14.076 2.874,14.064 C2.714,14.02 2.562,14.061 2.436,14.168 C2.405,14.194 2.388,14.264 2.4,14.304 C2.413,14.344 2.467,14.372 2.514,14.414 Z" id="Path"></path>
                    <path d="M8.484,10.869 L8.701,10.869 C8.672,10.829 8.638,10.786 8.603,10.731 C8.555,10.79 8.516,10.831 8.484,10.869 Z" id="Path"></path>
                    <path d="M6.098,10.229 C6.221,10.254 6.315,10.18 6.315,10.047 C6.275,10.016 6.219,9.94 6.157,9.934 C6.04,9.924 5.941,10.024 5.965,10.112 C5.979,10.163 6.046,10.22 6.098,10.229 Z" id="Path"></path>
                    <path d="M2.899,2.484 C3.127,2.551 3.283,2.717 3.54,2.478 C3.21,2.386 3.21,2.386 2.899,2.484 Z" id="Path"></path>
                    <path d="M7.835,2.327 C7.722,2.324 7.643,2.378 7.635,2.546 C7.771,2.633 7.89,2.641 8.03,2.536 C7.985,2.437 7.971,2.328 7.835,2.327 Z" id="Path"></path>
                    <path d="M10.887,3.142 L10.887,3.07 C10.869,3.077 10.852,3.084 10.834,3.091 C10.848,3.12 10.87,3.122 10.887,3.142 Z" id="Path"></path>
                    <path d="M2.826,10.802 C2.783,10.821 2.746,10.853 2.69,10.887 C2.744,10.928 2.778,10.97 2.822,10.986 C2.908,11.019 2.982,10.994 3.044,10.94 L3.044,10.87 L3.095,10.87 C3.1,10.847 3.109,10.822 3.099,10.808 C3.015,10.694 2.917,10.763 2.826,10.802 Z" id="Path"></path>
                    <path d="M0.669,15.852 C0.611,15.833 0.556,15.805 0.5,15.803 L0.5,15.971 C0.538,15.976 0.582,15.97 0.618,15.955 C0.639,15.946 0.646,15.904 0.669,15.852 Z" id="Path"></path>
                    <path d="M1.119,7.331 C1.07,7.344 1.005,7.409 1.001,7.455 C0.998,7.499 1.066,7.547 1.122,7.617 C1.189,7.556 1.253,7.524 1.27,7.475 C1.297,7.399 1.204,7.309 1.119,7.331 Z" id="Path"></path>
                    <path d="M3.762,2.452 C3.761,2.496 3.855,2.588 3.877,2.58 C3.944,2.555 3.997,2.492 4.077,2.425 C4.011,2.375 3.98,2.331 3.943,2.327 C3.85,2.313 3.764,2.352 3.762,2.452 Z" id="Path"></path>
                    <path d="M2.106,10.896 C2.134,10.929 2.158,10.97 2.193,10.995 C2.202,11.002 2.269,10.958 2.267,10.948 C2.257,10.908 2.229,10.875 2.21,10.84 C2.162,10.864 2.134,10.879 2.106,10.896 Z" id="Path"></path>
                    <path d="M2.524,17.612 C2.525,17.632 2.583,17.666 2.598,17.658 C2.633,17.643 2.657,17.604 2.686,17.574 C2.653,17.547 2.621,17.517 2.567,17.47 C2.545,17.534 2.521,17.574 2.524,17.612 Z" id="Path"></path>
                    <path d="M10.263,3.128 C10.266,3.137 10.269,3.148 10.273,3.159 L10.422,3.159 C10.409,3.125 10.399,3.094 10.39,3.094 C10.347,3.097 10.306,3.115 10.263,3.128 Z" id="Path"></path>
                    <path d="M4.393,10.05 C4.416,10.081 4.44,10.113 4.463,10.144 C4.484,10.126 4.506,10.108 4.527,10.091 C4.512,10.069 4.5,10.031 4.48,10.028 C4.454,10.021 4.422,10.043 4.393,10.05 Z" id="Path"></path>
                    <path d="M4.019,9.958 C3.986,9.958 3.937,10.008 3.927,10.045 C3.921,10.069 3.967,10.108 3.995,10.151 C4.048,10.105 4.083,10.072 4.117,10.041 C4.084,10.011 4.051,9.958 4.019,9.958 Z" id="Path"></path>
                    <path d="M9.017,3.08 C8.991,3.077 8.959,3.101 8.931,3.115 C8.943,3.13 8.954,3.144 8.965,3.159 L9.055,3.159 C9.059,3.155 9.062,3.151 9.066,3.147 C9.05,3.123 9.035,3.082 9.017,3.08 Z" id="Path"></path>
                    <path d="M0.796,10.942 C0.793,10.951 0.812,10.969 0.821,10.982 C0.856,10.955 0.89,10.927 0.925,10.901 C0.905,10.882 0.883,10.864 0.845,10.829 C0.825,10.872 0.807,10.905 0.796,10.942 Z" id="Path"></path>
                    <path d="M7.247,1.639 C7.261,1.644 7.274,1.649 7.288,1.655 C7.3,1.646 7.314,1.637 7.328,1.629 C7.318,1.616 7.307,1.603 7.296,1.592 C7.279,1.607 7.263,1.623 7.247,1.639 Z" id="Path"></path>
                    <path d="M4.934,1.607 C4.935,1.619 4.934,1.637 4.94,1.642 C4.95,1.647 4.966,1.647 4.979,1.649 C4.978,1.633 4.975,1.614 4.972,1.596 C4.959,1.601 4.947,1.604 4.934,1.607 Z" id="Path"></path>
                    <path d="M1.085,5.777 C1.087,5.77 1.062,5.757 1.05,5.746 C1.038,5.757 1.013,5.77 1.015,5.777 C1.021,5.803 1.036,5.828 1.048,5.853 C1.061,5.828 1.077,5.804 1.085,5.777 Z" id="Path"></path>
                </g>
                <g id="Group" transform="translate(19.000000, 1.000000)">
                    <path d="M3.22,11.505 C3.166,11.514 3.122,11.578 3.064,11.627 C3.374,11.813 3.643,11.875 3.92,11.853 C4.095,11.84 4.271,11.819 4.445,11.8 C4.345,11.655 4.253,11.505 4.165,11.351 C3.849,11.395 3.533,11.446 3.22,11.505 Z" id="Path"></path>
                    <path d="M3.709,10.706 C3.771,10.804 3.798,10.91 3.856,10.93 C3.889,10.942 3.925,10.947 3.96,10.954 C3.917,10.865 3.872,10.777 3.834,10.685 C3.798,10.692 3.759,10.7 3.709,10.706 Z" id="Path"></path>
                    <path d="M3.099,13.381 C3.059,13.106 2.786,13.036 2.691,12.84 C2.733,12.346 2.733,12.346 2.28,12.249 C2.262,12.245 2.245,12.243 2.23,12.237 C2.002,12.136 1.814,12.191 1.641,12.285 C1.857,12.72 2.113,13.134 2.402,13.528 C2.445,13.545 2.489,13.56 2.532,13.584 C2.731,13.695 2.968,13.589 3.099,13.381 Z" id="Path"></path>
                    <path d="M4.205,13.912 C3.899,13.953 3.683,13.848 3.425,13.909 C3.199,13.961 2.947,13.878 2.703,13.93 C2.82,14.072 2.948,14.205 3.074,14.34 C3.335,14.338 3.596,14.336 3.858,14.328 C4.07,14.322 4.152,14.186 4.205,13.912 Z" id="Path"></path>
                    <path d="M7.082,13.988 C7.066,13.988 7.043,13.993 7.036,14.006 C7.007,14.044 6.96,14.089 6.963,14.129 C6.967,14.168 7.03,14.235 7.053,14.231 C7.224,14.191 7.382,14.195 7.546,14.275 C7.613,14.307 7.719,14.294 7.797,14.266 C7.842,14.252 7.887,14.242 7.933,14.23 C7.693,14.168 7.459,14.094 7.231,14.005 C7.182,13.999 7.131,13.991 7.082,13.988 Z" id="Path"></path>
                    <path d="M16.664,9.157 C16.773,9.371 16.882,9.585 16.993,9.802 C16.733,10.037 16.885,10.287 16.944,10.527 C16.948,10.548 17.028,10.548 17.096,10.562 C17.141,10.233 17.117,9.917 17.268,9.618 C17.35,9.451 17.374,9.212 17.195,9.02 C17.017,9.018 16.825,8.991 16.664,9.157 Z" id="Path"></path>
                    <path d="M0.935,7.311 C0.908,7.088 1.001,6.909 1.116,6.747 C1.081,6.622 1.007,6.545 0.915,6.503 C0.849,6.818 0.795,7.138 0.763,7.462 C0.765,7.462 0.767,7.465 0.769,7.466 C0.861,7.485 0.946,7.4 0.935,7.311 Z" id="Path"></path>
                    <path d="M5.726,14.898 C5.716,14.817 5.618,14.752 5.529,14.775 C5.465,14.795 5.408,14.839 5.342,14.857 C5.279,14.877 5.195,14.904 5.15,14.877 C4.906,14.726 4.602,14.873 4.358,14.705 C4.308,14.67 4.186,14.713 4.112,14.752 C4.064,14.776 4.028,14.855 4.017,14.914 C4.012,14.951 4.062,15.026 4.098,15.033 C4.366,15.088 4.637,15.189 4.911,15.096 C5.098,15.033 5.273,14.981 5.427,15.065 L5.567,15.065 C5.658,15.06 5.736,14.98 5.726,14.898 Z" id="Path"></path>
                    <path d="M4.448,13.134 C4.355,13.158 4.32,13.241 4.37,13.322 C4.582,13.382 4.776,13.449 4.975,13.49 C5.142,13.524 5.308,13.512 5.437,13.287 C5.175,13.34 4.987,13.256 4.795,13.12 C4.72,13.065 4.563,13.107 4.448,13.134 Z" id="Path"></path>
                    <path d="M1.832,11.735 C1.855,11.715 1.878,11.683 1.88,11.654 C1.881,11.624 1.861,11.571 1.842,11.568 C1.656,11.53 1.474,11.436 1.283,11.461 C1.326,11.576 1.366,11.691 1.414,11.804 C1.522,11.796 1.63,11.787 1.738,11.777 C1.77,11.773 1.807,11.758 1.832,11.735 Z" id="Path"></path>
                    <path d="M6.301,15.514 C6.102,15.538 5.906,15.587 5.586,15.65 C5.921,15.759 6.137,15.835 6.357,15.894 C6.46,15.924 6.544,15.805 6.515,15.692 C6.488,15.578 6.414,15.5 6.301,15.514 Z" id="Path"></path>
                    <path d="M5.903,14.117 C5.575,13.789 5.575,13.789 5.253,13.996 C5.415,14.343 5.485,14.36 5.903,14.117 Z" id="Path"></path>
                    <path d="M17.381,4.695 C17.36,4.65 17.339,4.606 17.318,4.562 C17.31,4.57 17.301,4.58 17.292,4.586 C17.321,4.62 17.354,4.665 17.381,4.695 Z" id="Path"></path>
                    <path d="M2.358,11.432 C2.276,11.459 2.218,11.565 2.16,11.642 C2.148,11.657 2.17,11.707 2.188,11.731 C2.256,11.827 2.354,11.852 2.461,11.814 C2.581,11.773 2.666,11.647 2.654,11.54 C2.649,11.524 2.648,11.496 2.638,11.492 C2.544,11.467 2.437,11.409 2.358,11.432 Z" id="Path"></path>
                    <path d="M14.08,13.367 C14.251,13.558 14.342,13.557 14.723,13.358 C14.57,13.17 14.458,13.172 14.08,13.367 Z" id="Path"></path>
                    <path d="M1.376,10.683 C1.278,10.689 1.213,10.745 1.211,10.842 C1.211,10.963 1.332,11.099 1.418,11.099 C1.515,11.099 1.639,10.964 1.644,10.857 C1.648,10.754 1.527,10.674 1.376,10.683 Z" id="Path"></path>
                    <path d="M13.18,13.376 C13.218,13.386 13.278,13.317 13.346,13.272 C13.291,13.213 13.248,13.169 13.2,13.119 C13.134,13.171 13.066,13.221 12.997,13.27 C13.054,13.312 13.113,13.355 13.18,13.376 Z" id="Path"></path>
                    <path d="M14.352,3.824 C14.478,3.828 14.577,3.758 14.557,3.649 C14.543,3.577 14.479,3.514 14.451,3.467 C14.278,3.463 14.135,3.581 14.16,3.677 C14.184,3.769 14.254,3.82 14.352,3.824 Z" id="Path"></path>
                    <path d="M15.627,14.032 C15.53,14.033 15.431,14.072 15.337,14.106 C15.318,14.112 15.303,14.166 15.309,14.194 C15.313,14.224 15.338,14.257 15.365,14.271 C15.409,14.296 15.46,14.305 15.5,14.318 C15.561,14.303 15.61,14.292 15.66,14.278 C15.728,14.26 15.806,14.232 15.773,14.147 C15.751,14.096 15.676,14.031 15.627,14.032 Z" id="Path"></path>
                    <path d="M5.28,1.931 C5.384,1.921 5.478,1.801 5.44,1.714 C5.418,1.662 5.351,1.629 5.325,1.608 C5.165,1.613 5.07,1.7 5.093,1.796 C5.116,1.888 5.18,1.941 5.28,1.931 Z" id="Path"></path>
                    <path d="M14.933,10.958 C15.01,10.935 15.066,10.883 15.056,10.8 C15.054,10.786 15.04,10.773 15.03,10.759 C15,10.827 14.964,10.892 14.933,10.958 Z" id="Path"></path>
                    <path d="M16.481,3.631 C16.453,3.714 16.56,3.817 16.676,3.807 C16.722,3.803 16.773,3.763 16.855,3.711 C16.842,3.69 16.831,3.669 16.817,3.648 C16.724,3.604 16.653,3.567 16.586,3.55 C16.559,3.543 16.493,3.594 16.481,3.631 Z" id="Path"></path>
                    <path d="M3.84,4.24 C3.897,4.24 3.952,4.196 3.99,4.178 C3.999,4.043 3.91,3.959 3.78,3.966 C3.726,3.97 3.648,4.022 3.631,4.07 C3.604,4.153 3.708,4.24 3.84,4.24 Z" id="Path"></path>
                    <path d="M16.652,13.305 C16.656,13.299 16.66,13.294 16.664,13.289 C16.654,13.293 16.646,13.296 16.636,13.3 C16.643,13.302 16.647,13.303 16.652,13.305 Z" id="Path"></path>
                    <path d="M4.467,1.763 C4.594,1.764 4.677,1.68 4.655,1.558 C4.577,1.537 4.487,1.513 4.367,1.481 C4.329,1.652 4.309,1.762 4.467,1.763 Z" id="Path"></path>
                    <path d="M4.087,3.371 C4.153,3.349 4.205,3.28 4.303,3.193 C4.205,3.143 4.15,3.09 4.1,3.093 C4.012,3.1 3.924,3.152 3.953,3.259 C3.966,3.308 4.056,3.383 4.087,3.371 Z" id="Path"></path>
                    <path d="M6.129,0.981 C6.169,0.97 6.194,0.882 6.211,0.826 C6.217,0.807 6.177,0.776 6.146,0.732 C6.06,0.757 5.967,0.788 5.845,0.823 C5.926,1.004 6.034,1.011 6.129,0.981 Z" id="Path"></path>
                    <path d="M6.957,15.788 C6.958,15.829 7.015,15.906 7.03,15.902 C7.101,15.883 7.166,15.842 7.251,15.8 C7.2,15.734 7.18,15.681 7.143,15.664 C7.072,15.632 6.954,15.711 6.957,15.788 Z" id="Path"></path>
                    <path d="M14.854,3.013 C14.928,3.011 14.999,2.973 15.112,2.937 C15.032,2.873 14.999,2.827 14.959,2.818 C14.869,2.798 14.781,2.819 14.757,2.921 C14.752,2.945 14.822,3.016 14.854,3.013 Z" id="Path"></path>
                    <path d="M6.803,14.861 C6.761,14.868 6.692,14.952 6.699,14.991 C6.717,15.098 6.82,15.091 6.896,15.07 C6.947,15.056 6.987,14.998 7.084,14.915 C6.948,14.886 6.872,14.849 6.803,14.861 Z" id="Path"></path>
                    <path d="M11.552,14.116 C11.557,14.163 11.629,14.202 11.685,14.258 C11.731,14.204 11.776,14.176 11.787,14.138 C11.809,14.057 11.75,13.99 11.683,13.992 C11.662,14 11.641,14.007 11.62,14.015 C11.583,14.044 11.55,14.084 11.552,14.116 Z" id="Path"></path>
                    <path d="M2.358,10.927 C2.4,10.929 2.441,10.889 2.522,10.848 C2.455,10.79 2.415,10.736 2.363,10.715 C2.324,10.701 2.254,10.719 2.224,10.749 C2.177,10.794 2.268,10.925 2.358,10.927 Z" id="Path"></path>
                    <path d="M7.09,2.704 C7.174,2.725 7.269,2.619 7.238,2.543 C7.223,2.505 7.167,2.485 7.103,2.436 C7.061,2.499 7.012,2.547 7.001,2.603 C6.995,2.631 7.052,2.696 7.09,2.704 Z" id="Path"></path>
                    <path d="M4.953,15.625 C4.879,15.609 4.789,15.7 4.806,15.761 C4.848,15.787 4.89,15.811 4.932,15.837 C4.978,15.821 5.021,15.779 5.083,15.733 C5.02,15.676 4.99,15.632 4.953,15.625 Z" id="Path"></path>
                    <path d="M6.608,16.465 C6.573,16.514 6.534,16.55 6.53,16.582 C6.577,16.598 6.623,16.616 6.67,16.631 C6.685,16.617 6.698,16.603 6.698,16.589 C6.699,16.553 6.649,16.518 6.608,16.465 Z" id="Path"></path>
                    <path d="M5.894,2.521 C5.911,2.561 5.919,2.623 5.947,2.633 C5.983,2.649 6.035,2.62 6.083,2.612 C6.062,2.565 6.054,2.515 6.036,2.512 C5.991,2.502 5.941,2.517 5.894,2.521 Z" id="Path"></path>
                    <path d="M9.376,15.733 C9.389,15.772 9.42,15.804 9.444,15.838 C9.475,15.813 9.506,15.788 9.537,15.761 C9.507,15.729 9.477,15.695 9.448,15.664 C9.417,15.692 9.372,15.722 9.376,15.733 Z" id="Path"></path>
                    <path d="M9.59,14.873 C9.603,14.91 9.611,14.973 9.629,14.976 C9.669,14.983 9.713,14.959 9.759,14.949 C9.74,14.907 9.73,14.858 9.713,14.855 C9.674,14.847 9.632,14.866 9.59,14.873 Z" id="Path"></path>
                    <path d="M6.347,14.078 C6.349,14.048 6.291,13.989 6.265,13.991 C6.228,13.994 6.194,14.043 6.142,14.088 C6.191,14.123 6.229,14.169 6.258,14.165 C6.294,14.158 6.344,14.109 6.347,14.078 Z" id="Path"></path>
                    <path d="M14.424,12.406 C14.403,12.398 14.369,12.423 14.341,12.434 C14.363,12.468 14.387,12.503 14.411,12.537 C14.432,12.519 14.454,12.498 14.476,12.481 C14.459,12.455 14.448,12.415 14.424,12.406 Z" id="Path"></path>
                    <path d="M3.669,3.153 C3.642,3.114 3.6,3.085 3.561,3.051 C3.537,3.091 3.499,3.139 3.505,3.145 C3.539,3.179 3.582,3.205 3.624,3.232 C3.64,3.206 3.676,3.164 3.669,3.153 Z" id="Path"></path>
                    <path d="M7.153,1.688 C7.131,1.668 7.11,1.65 7.087,1.631 C7.061,1.647 7.017,1.66 7.013,1.681 C7.008,1.704 7.037,1.736 7.051,1.764 C7.085,1.739 7.119,1.714 7.153,1.688 Z" id="Path"></path>
                    <path d="M17.333,8.341 C17.343,8.354 17.359,8.378 17.363,8.376 C17.387,8.366 17.408,8.348 17.432,8.334 C17.422,8.319 17.41,8.309 17.4,8.298 C17.377,8.313 17.355,8.327 17.333,8.341 Z" id="Path"></path>
                    <path d="M9.885,15.79 C9.903,15.814 9.926,15.835 9.947,15.858 C9.963,15.835 9.978,15.813 9.994,15.79 C9.967,15.779 9.94,15.766 9.912,15.76 C9.904,15.758 9.882,15.788 9.885,15.79 Z" id="Path"></path>
                    <polygon id="Path" points="15.244 2.864 15.208 2.863 15.226 2.9"></polygon>
                </g>
                <g id="Group" transform="translate(46.000000, 0.000000)">
                    <path d="M13.939,14.937 C13.453,14.905 12.98,15.08 12.488,15.048 C12.381,15.04 12.267,15.127 12.133,15.182 C12.182,15.273 12.194,15.325 12.213,15.328 C12.365,15.347 12.524,15.386 12.67,15.365 C13.016,15.314 13.352,15.278 13.697,15.374 C13.961,15.446 14.461,15.325 14.769,15.152 C14.726,15.117 14.695,15.065 14.654,15.057 C14.417,15.01 14.179,14.952 13.939,14.937 Z" id="Path"></path>
                    <path d="M2.55,11.556 C2.47,11.537 2.368,11.533 2.296,11.561 C2.048,11.662 1.789,11.683 1.527,11.708 C1.475,11.714 1.431,11.772 1.365,11.816 C1.443,11.868 1.483,11.919 1.529,11.922 C1.997,11.956 2.468,12.044 2.933,11.937 C3.111,11.897 3.269,11.901 3.445,11.944 C3.468,11.95 3.493,11.949 3.516,11.953 C3.474,11.864 3.429,11.776 3.391,11.685 C3.11,11.665 2.829,11.625 2.55,11.556 Z" id="Path"></path>
                    <path d="M3.519,12.388 C3.244,12.295 3.054,12.489 2.845,12.552 C2.228,12.376 2.189,12.384 2.028,12.711 C2.699,12.764 3.358,12.806 4.012,12.815 C3.899,12.652 3.793,12.484 3.696,12.31 C3.629,12.356 3.564,12.402 3.519,12.388 Z" id="Path"></path>
                    <path d="M15.765,13.404 C15.275,13.339 14.785,13.269 14.23,13.442 C14.554,13.718 14.869,13.693 15.175,13.645 C15.353,13.617 15.513,13.614 15.679,13.69 C15.841,13.763 15.952,13.716 15.96,13.605 C15.97,13.464 15.859,13.417 15.765,13.404 Z" id="Path"></path>
                    <path d="M12.609,15.814 C12.634,16.05 12.673,16.105 12.828,16.101 C13.105,16.098 13.383,16.085 13.66,16.071 C13.728,16.068 13.797,16.043 13.861,16.02 C13.966,15.982 13.974,15.903 13.888,15.72 C13.472,15.847 13.033,15.706 12.609,15.814 Z" id="Path"></path>
                    <path d="M0.994,11.096 C1.036,10.949 0.963,10.901 0.879,10.877 C0.816,10.857 0.743,10.857 0.676,10.868 C0.588,10.88 0.501,10.88 0.413,10.885 C0.428,10.972 0.439,11.059 0.457,11.145 C0.639,11.154 0.824,11.137 0.994,11.096 Z" id="Path"></path>
                    <path d="M5.796,17.479 C5.997,17.557 6.198,17.632 6.405,17.695 C6.4,17.653 6.389,17.61 6.384,17.567 C6.185,17.483 5.993,17.465 5.796,17.479 Z" id="Path"></path>
                    <path d="M1.038,8.219 C0.946,8.205 0.87,8.261 0.855,8.359 C0.839,8.455 0.93,8.59 1.013,8.598 C1.096,8.606 1.185,8.61 1.267,8.594 C1.468,8.557 1.664,8.508 1.956,8.444 C1.619,8.248 1.321,8.259 1.038,8.219 Z" id="Path"></path>
                    <path d="M16.009,14.063 C16.015,14.269 16.049,14.376 16.115,14.43 C16.185,14.331 16.259,14.234 16.325,14.133 C16.219,14.131 16.113,14.12 16.009,14.063 Z" id="Path"></path>
                    <path d="M14.88,12.677 C15.089,12.931 15.357,12.813 15.603,12.788 C15.658,12.782 15.724,12.68 15.744,12.609 C15.754,12.569 15.685,12.49 15.635,12.459 C15.514,12.379 15.375,12.378 15.237,12.413 C15.083,12.451 14.941,12.511 14.88,12.677 Z" id="Path"></path>
                    <path d="M5.986,4.045 C5.945,3.934 5.828,3.945 5.718,3.961 C5.583,3.982 5.448,3.986 5.314,4.009 C5.168,4.034 5.072,4.113 5.084,4.305 C5.233,4.313 5.384,4.322 5.543,4.33 C5.686,4.229 5.835,4.137 5.986,4.049 C5.986,4.048 5.987,4.046 5.986,4.045 Z" id="Path"></path>
                    <path d="M14.078,5.101 C14.119,5.093 14.158,4.997 14.17,4.938 C14.174,4.905 14.121,4.843 14.082,4.827 C13.82,4.727 13.568,4.751 13.336,4.91 C13.313,4.926 13.307,4.971 13.297,5.003 C13.307,5.016 13.313,5.035 13.326,5.043 C13.564,5.226 13.824,5.145 14.078,5.101 Z" id="Path"></path>
                    <path d="M8.566,1.68 C8.601,1.684 8.638,1.684 8.671,1.683 C8.798,1.676 8.888,1.57 8.884,1.441 C8.882,1.312 8.779,1.203 8.654,1.214 C8.552,1.225 8.451,1.261 8.353,1.283 C8.289,1.573 8.335,1.653 8.566,1.68 Z" id="Path"></path>
                    <path d="M15.21,14.132 C15.153,14.163 15.112,14.272 15.11,14.345 C15.11,14.429 15.169,14.499 15.274,14.507 C15.403,14.517 15.516,14.494 15.602,14.393 C15.631,14.356 15.641,14.304 15.659,14.263 C15.634,14.225 15.62,14.191 15.595,14.17 C15.478,14.076 15.333,14.07 15.21,14.132 Z" id="Path"></path>
                    <path d="M7.322,3.458 C7.082,3.25 6.871,3.26 6.666,3.269 C6.623,3.272 6.584,3.342 6.512,3.407 C6.67,3.489 6.797,3.553 6.919,3.615 C7.031,3.573 7.144,3.532 7.259,3.497 C7.28,3.483 7.297,3.473 7.322,3.458 Z" id="Path"></path>
                    <path d="M15.3,6.925 C15.413,6.941 15.538,6.934 15.652,6.911 C15.697,6.9 15.744,6.824 15.756,6.768 C15.764,6.739 15.705,6.666 15.67,6.659 C15.504,6.633 15.334,6.598 15.172,6.684 C15.15,6.805 15.175,6.907 15.3,6.925 Z" id="Path"></path>
                    <path d="M2.88,7.646 C2.864,7.614 2.855,7.574 2.829,7.557 C2.733,7.493 2.63,7.435 2.474,7.34 C2.413,7.458 2.329,7.562 2.351,7.597 C2.4,7.673 2.497,7.733 2.587,7.76 C2.699,7.793 2.83,7.802 2.88,7.646 Z" id="Path"></path>
                    <path d="M11.484,3.765 C11.476,3.765 11.468,3.767 11.461,3.768 C11.517,3.793 11.57,3.821 11.625,3.847 C11.593,3.802 11.542,3.76 11.484,3.765 Z" id="Path"></path>
                    <path d="M4.487,16.834 C4.524,16.856 4.561,16.879 4.598,16.901 C4.793,16.903 4.971,16.884 5.142,16.782 C4.701,16.643 4.648,16.64 4.487,16.834 Z" id="Path"></path>
                    <path d="M7.066,17.5 C6.97,17.486 6.859,17.459 6.802,17.583 C6.767,17.659 6.847,17.747 6.984,17.773 C7.048,17.786 7.119,17.786 7.183,17.778 C7.204,17.774 7.222,17.731 7.244,17.705 C7.263,17.616 7.187,17.516 7.066,17.5 Z" id="Path"></path>
                    <path d="M5.619,3.518 C5.644,3.502 5.654,3.461 5.672,3.434 C5.668,3.416 5.668,3.397 5.66,3.385 C5.594,3.295 5.4,3.245 5.293,3.303 C5.266,3.318 5.248,3.404 5.266,3.434 C5.335,3.561 5.488,3.596 5.619,3.518 Z" id="Path"></path>
                    <path d="M3.953,15.196 C3.955,15.249 4.014,15.298 4.047,15.352 C4.176,15.264 4.272,15.196 4.469,15.06 C4.272,15.034 4.188,15.008 4.106,15.015 C4.005,15.022 3.947,15.101 3.953,15.196 Z" id="Path"></path>
                    <path d="M1.744,5.173 C1.816,5.203 1.947,5.116 1.928,5.06 C1.906,4.991 1.849,4.933 1.821,4.894 C1.707,4.876 1.606,4.962 1.625,5.039 C1.639,5.091 1.693,5.151 1.744,5.173 Z" id="Path"></path>
                    <path d="M7.808,3.296 C7.767,3.281 7.701,3.29 7.667,3.318 C7.633,3.346 7.623,3.374 7.621,3.402 C7.706,3.382 7.791,3.363 7.877,3.346 C7.857,3.327 7.839,3.306 7.808,3.296 Z" id="Path"></path>
                    <path d="M2.041,9.349 C2.081,9.348 2.157,9.295 2.153,9.278 C2.137,9.207 2.097,9.141 2.057,9.053 C1.991,9.109 1.941,9.131 1.922,9.17 C1.886,9.243 1.958,9.352 2.041,9.349 Z" id="Path"></path>
                    <path d="M15.595,11.927 C15.55,11.886 15.511,11.833 15.458,11.81 C15.417,11.793 15.358,11.809 15.313,11.827 C15.292,11.836 15.268,11.877 15.268,11.905 C15.266,11.931 15.286,11.972 15.307,11.985 C15.35,12.009 15.401,12.018 15.479,12.042 C15.513,12.008 15.556,11.967 15.595,11.927 Z" id="Path"></path>
                    <path d="M7.796,15.942 C7.786,15.966 7.802,16.012 7.821,16.032 C7.907,16.112 7.975,16.05 8.04,15.995 C8.063,15.975 8.073,15.939 8.104,15.876 C8.071,15.847 8.059,15.832 8.043,15.828 C7.951,15.796 7.826,15.849 7.796,15.942 Z" id="Path"></path>
                    <path d="M7.142,1.843 C7.167,1.848 7.216,1.829 7.226,1.808 C7.238,1.787 7.226,1.735 7.206,1.719 C7.169,1.688 7.118,1.671 7.079,1.649 C7.04,1.669 6.997,1.675 6.981,1.699 C6.969,1.714 6.981,1.768 7.001,1.781 C7.042,1.812 7.093,1.833 7.142,1.843 Z" id="Path"></path>
                    <path d="M14.732,5.037 C14.789,5.046 14.849,5.019 14.908,5.007 C14.928,4.976 14.945,4.944 14.965,4.913 C14.914,4.896 14.865,4.878 14.813,4.865 C14.737,4.84 14.67,4.861 14.655,4.94 C14.648,4.967 14.699,5.034 14.732,5.037 Z" id="Path"></path>
                    <path d="M11.722,16.761 C11.753,16.788 11.814,16.804 11.849,16.791 C11.888,16.779 11.912,16.727 11.954,16.678 C11.893,16.659 11.849,16.633 11.806,16.633 C11.732,16.634 11.677,16.722 11.722,16.761 Z" id="Path"></path>
                    <path d="M14.335,5.941 C14.388,5.933 14.431,5.882 14.493,5.839 C14.427,5.783 14.372,5.717 14.356,5.726 C14.307,5.753 14.264,5.802 14.239,5.854 C14.234,5.865 14.31,5.947 14.335,5.941 Z" id="Path"></path>
                    <path d="M9.449,16.759 C9.469,16.798 9.488,16.837 9.508,16.874 C9.531,16.853 9.553,16.83 9.576,16.809 C9.564,16.779 9.553,16.748 9.537,16.719 C9.507,16.733 9.478,16.747 9.449,16.759 Z" id="Path"></path>
                    <path d="M13.193,14.383 C13.224,14.37 13.256,14.358 13.283,14.345 C13.273,14.314 13.263,14.282 13.25,14.252 C13.223,14.265 13.176,14.27 13.17,14.29 C13.16,14.316 13.185,14.351 13.193,14.383 Z" id="Path"></path>
                    <path d="M8.925,16.834 C8.923,16.839 8.954,16.866 8.956,16.864 C8.977,16.852 8.997,16.833 9.017,16.817 C9,16.798 8.978,16.781 8.96,16.76 C8.949,16.786 8.933,16.809 8.925,16.834 Z" id="Path"></path>
                    <path d="M13.626,4.043 C13.614,4.039 13.601,4.033 13.589,4.028 C13.577,4.036 13.564,4.042 13.558,4.053 C13.556,4.06 13.57,4.073 13.578,4.083 C13.593,4.069 13.609,4.056 13.626,4.043 Z" id="Path"></path>
                    <polygon id="Path" points="4.689 3.334 4.656 3.333 4.671 3.372"></polygon>
                    <path d="M14.181,12.705 C14.195,12.695 14.208,12.686 14.222,12.677 C14.21,12.664 14.201,12.652 14.191,12.64 C14.171,12.657 14.156,12.672 14.14,12.689 C14.154,12.694 14.167,12.699 14.181,12.705 Z" id="Path"></path>
                    <path d="M1.537,12.586 C1.551,12.591 1.566,12.599 1.581,12.599 C1.585,12.599 1.591,12.577 1.595,12.567 C1.581,12.562 1.568,12.555 1.551,12.555 C1.547,12.555 1.542,12.575 1.537,12.586 Z" id="Path"></path>
                    <path d="M10.509,15.906 C10.515,15.924 10.519,15.941 10.521,15.959 C10.533,15.954 10.546,15.95 10.56,15.946 C10.556,15.934 10.558,15.917 10.552,15.913 C10.541,15.907 10.525,15.908 10.509,15.906 Z" id="Path"></path>
                    <path d="M15.658,5.805 C15.66,5.801 15.637,5.788 15.627,5.778 C15.611,5.801 15.596,5.825 15.584,5.851 C15.584,5.854 15.607,5.869 15.619,5.878 C15.632,5.854 15.648,5.832 15.658,5.805 Z" id="Path"></path>
                </g>
                <g id="Group" transform="translate(73.000000, 0.000000)">
                    <path d="M6.77,15.478 C6.763,15.502 6.761,15.53 6.751,15.553 C6.69,15.704 6.571,15.831 6.468,15.989 C6.646,16.127 6.837,16.146 7.023,16.168 C7.369,16.209 7.72,16.148 8.06,16.267 C8.117,16.288 8.197,16.261 8.259,16.236 C8.402,16.179 8.54,16.11 8.681,16.044 C8.644,15.867 8.515,15.818 8.367,15.822 C8.265,15.823 8.166,15.857 8.064,15.887 C7.793,15.974 7.585,15.832 7.406,15.669 C7.33,15.601 7.326,15.533 7.342,15.464 C7.249,15.468 7.158,15.478 7.065,15.478 L6.77,15.478 Z" id="Path"></path>
                    <path d="M12.185,12.647 C12.166,12.642 12.155,12.63 12.138,12.624 C12.096,12.695 12.056,12.768 12.011,12.836 C12.073,12.788 12.131,12.729 12.185,12.647 Z" id="Path"></path>
                    <path d="M1.31,17.617 C1.265,17.609 1.225,17.599 1.181,17.59 L1.181,17.811 L1.232,17.811 C1.241,17.804 1.253,17.799 1.257,17.792 C1.291,17.745 1.292,17.676 1.31,17.617 Z" id="Path"></path>
                    <path d="M2.808,2.907 C2.964,2.931 3.117,2.939 3.288,2.955 C3.448,2.944 3.622,2.944 3.79,2.914 C3.845,2.907 3.923,2.817 3.919,2.776 C3.907,2.699 3.86,2.6 3.798,2.566 C3.71,2.52 3.597,2.517 3.493,2.513 C3.251,2.503 3.009,2.526 2.79,2.637 C2.741,2.66 2.714,2.748 2.708,2.808 C2.705,2.838 2.769,2.9 2.808,2.907 Z" id="Path"></path>
                    <path d="M7.621,0.896 C7.652,0.887 7.684,0.881 7.716,0.874 C7.604,0.869 7.493,0.857 7.38,0.857 C7.393,0.875 7.407,0.892 7.422,0.897 C7.484,0.914 7.56,0.914 7.621,0.896 Z" id="Path"></path>
                    <path d="M10.81,16.596 C10.499,16.544 10.199,16.576 9.914,16.721 C9.889,16.734 9.867,16.775 9.865,16.805 C9.865,16.833 9.885,16.883 9.906,16.891 C10.113,16.962 10.322,17.025 10.554,17.098 C10.652,17.057 10.777,17.032 10.865,16.963 C10.92,16.922 10.945,16.813 10.939,16.735 C10.933,16.686 10.863,16.606 10.81,16.596 Z" id="Path"></path>
                    <path d="M14.078,13.431 C13.955,13.387 13.902,13.482 13.898,13.758 C14.082,13.732 14.218,13.694 14.351,13.698 C14.427,13.701 14.504,13.713 14.581,13.728 C14.643,13.627 14.707,13.529 14.765,13.425 C14.539,13.483 14.316,13.516 14.078,13.431 Z" id="Path"></path>
                    <path d="M12.699,3.405 C12.832,3.525 12.972,3.612 13.164,3.548 C13.256,3.517 13.359,3.503 13.451,3.452 C13.313,3.31 13.169,3.176 13.021,3.043 C12.831,3.029 12.76,3.126 12.699,3.405 Z" id="Path"></path>
                    <path d="M2.851,2.106 C2.929,2.157 3.029,2.206 3.122,2.208 C3.292,2.211 3.462,2.181 3.632,2.161 C3.708,2.15 3.761,2.038 3.734,1.956 C3.699,1.844 3.621,1.78 3.511,1.777 C3.304,1.769 3.101,1.775 2.857,1.775 C2.794,2.027 2.785,2.063 2.851,2.106 Z" id="Path"></path>
                    <path d="M12.51,2.618 C12.437,2.561 12.363,2.506 12.286,2.452 C12.283,2.455 12.279,2.456 12.276,2.46 C12.352,2.554 12.431,2.596 12.51,2.618 Z" id="Path"></path>
                    <path d="M2.714,16.741 C2.556,16.686 2.388,16.636 2.22,16.63 C2.064,16.625 1.935,16.722 1.861,16.908 C2.131,17.116 2.418,17.123 2.72,16.998 C2.81,16.96 2.812,16.774 2.714,16.741 Z" id="Path"></path>
                    <path d="M3.091,3.61 C3.095,3.557 3.042,3.466 2.995,3.45 C2.864,3.405 2.725,3.392 2.659,3.379 C2.499,3.379 2.409,3.363 2.327,3.384 C2.266,3.4 2.212,3.458 2.182,3.511 C2.172,3.532 2.219,3.611 2.258,3.633 C2.477,3.766 2.719,3.804 2.963,3.747 C3.019,3.735 3.087,3.66 3.091,3.61 Z" id="Path"></path>
                    <path d="M10.714,2.588 C10.917,2.602 11.122,2.609 11.325,2.604 C11.493,2.599 11.657,2.562 11.805,2.453 C11.778,2.345 11.746,2.262 11.639,2.271 C11.541,2.279 11.428,2.357 11.348,2.329 C11.071,2.232 10.854,2.364 10.627,2.475 C10.658,2.518 10.683,2.586 10.714,2.588 Z" id="Path"></path>
                    <path d="M5.148,3.075 C5.359,3.101 5.568,3.091 5.734,2.846 C5.443,2.599 5.193,2.705 4.943,2.783 C4.931,2.968 5.015,3.058 5.148,3.075 Z" id="Path"></path>
                    <path d="M1.941,2.924 C1.951,2.696 1.824,2.624 1.699,2.582 C1.594,2.546 1.467,2.553 1.351,2.564 C1.251,2.575 1.195,2.736 1.267,2.808 C1.335,2.877 1.425,2.948 1.517,2.958 C1.648,2.975 1.785,2.94 1.941,2.924 Z" id="Path"></path>
                    <path d="M6.902,17.585 C6.677,17.563 6.453,17.543 6.228,17.526 C6.197,17.526 6.16,17.547 6.132,17.568 C6.107,17.589 6.083,17.621 6.079,17.65 C6.077,17.679 6.095,17.731 6.118,17.738 C6.191,17.766 6.267,17.788 6.343,17.81 L6.824,17.81 C6.887,17.777 6.948,17.747 7.012,17.685 C6.949,17.626 6.925,17.589 6.902,17.585 Z" id="Path"></path>
                    <path d="M2.304,1.213 C2.421,1.218 2.536,1.202 2.644,1.195 C2.714,1.053 2.67,0.95 2.604,0.853 L2.282,0.853 C2.243,0.894 2.2,0.934 2.176,0.983 C2.128,1.082 2.199,1.207 2.304,1.213 Z" id="Path"></path>
                    <path d="M11.667,3.121 C11.479,3.077 11.294,3.077 11.112,3.152 C11.036,3.186 11.03,3.321 11.102,3.371 C11.26,3.477 11.428,3.514 11.596,3.416 C11.659,3.378 11.694,3.289 11.737,3.232 C11.703,3.175 11.691,3.127 11.667,3.121 Z" id="Path"></path>
                    <path d="M10.722,14.28 C10.849,14.506 10.921,14.556 11.072,14.507 C11.217,14.461 11.359,14.398 11.5,14.34 C11.25,14.234 10.99,14.142 10.722,14.28 Z" id="Path"></path>
                    <path d="M3.605,15.119 C3.656,15.216 3.692,15.275 3.726,15.317 L3.726,15.003 C3.683,15.037 3.643,15.078 3.605,15.119 Z" id="Path"></path>
                    <path d="M1.839,1.118 C1.63,0.895 1.412,0.93 1.181,1.045 L1.181,1.139 C1.45,1.319 1.623,1.314 1.839,1.118 Z" id="Path"></path>
                    <path d="M3.214,14.228 C3.159,14.216 3.052,14.259 3.044,14.291 C3.028,14.363 3.038,14.469 3.083,14.517 C3.198,14.635 3.288,14.612 3.515,14.454 C3.48,14.289 3.341,14.254 3.214,14.228 Z" id="Path"></path>
                    <path d="M9.212,17.594 C9.158,17.592 9.108,17.606 9.062,17.632 C9.113,17.621 9.162,17.604 9.212,17.594 Z" id="Path"></path>
                    <path d="M14.16,14.316 C14.157,14.325 14.161,14.339 14.161,14.351 C14.188,14.314 14.217,14.279 14.243,14.242 C14.21,14.252 14.167,14.286 14.16,14.316 Z" id="Path"></path>
                    <path d="M12.98,10.068 C12.968,10.172 12.953,10.275 12.937,10.377 C13.009,10.408 13.069,10.395 13.148,10.339 C13.271,10.254 13.275,10.144 13.158,10.026 C13.1,10.042 13.04,10.054 12.98,10.068 Z" id="Path"></path>
                    <path d="M2.179,11.134 C2.327,11.136 2.474,11.121 2.62,11.113 C2.501,10.904 2.35,10.854 2.181,10.917 C2.144,10.931 2.101,10.991 2.099,11.029 C2.097,11.066 2.15,11.134 2.179,11.134 Z" id="Path"></path>
                    <path d="M12.964,4.253 C13.064,4.304 13.194,4.2 13.222,4.032 C13.195,4.003 13.158,3.936 13.107,3.918 C12.996,3.882 12.839,3.994 12.851,4.101 C12.857,4.157 12.912,4.227 12.964,4.253 Z" id="Path"></path>
                    <path d="M7.685,16.803 C7.658,16.898 7.822,17.014 7.937,17.001 C8.009,16.992 8.111,16.87 8.076,16.813 C8.027,16.735 7.947,16.679 7.857,16.594 C7.779,16.681 7.703,16.734 7.685,16.803 Z" id="Path"></path>
                    <path d="M3.304,4.611 C3.372,4.608 3.443,4.593 3.501,4.565 C3.532,4.55 3.548,4.498 3.579,4.45 C3.431,4.404 3.304,4.366 3.175,4.327 C3.115,4.562 3.14,4.62 3.304,4.611 Z" id="Path"></path>
                    <path d="M5.58,1.229 C5.603,1.214 5.607,1.17 5.621,1.141 C5.617,1.126 5.619,1.105 5.607,1.096 C5.5,0.987 5.3,0.999 5.191,1.126 C5.179,1.142 5.181,1.2 5.197,1.214 C5.298,1.3 5.457,1.306 5.58,1.229 Z" id="Path"></path>
                    <path d="M2.41,9.358 C2.496,9.472 2.601,9.502 2.721,9.396 C2.735,9.263 2.651,9.204 2.545,9.175 C2.506,9.166 2.436,9.188 2.414,9.22 C2.39,9.252 2.386,9.328 2.41,9.358 Z" id="Path"></path>
                    <path d="M1.273,13.458 C1.254,13.421 1.221,13.392 1.181,13.36 L1.181,13.583 C1.249,13.555 1.297,13.503 1.273,13.458 Z" id="Path"></path>
                    <path d="M2.501,13.363 C2.438,13.351 2.368,13.37 2.304,13.391 C2.281,13.4 2.247,13.45 2.255,13.473 C2.267,13.514 2.296,13.559 2.331,13.586 C2.352,13.607 2.395,13.6 2.429,13.607 C2.464,13.6 2.497,13.593 2.529,13.586 C2.597,13.571 2.679,13.548 2.652,13.467 C2.636,13.419 2.558,13.375 2.501,13.363 Z" id="Path"></path>
                    <path d="M4.765,17.58 C4.745,17.57 4.677,17.628 4.669,17.664 C4.65,17.734 4.72,17.79 4.808,17.81 L4.909,17.81 C4.939,17.793 4.972,17.768 5.029,17.733 C4.921,17.667 4.849,17.612 4.765,17.58 Z" id="Path"></path>
                    <path d="M14.117,11.897 C14.019,11.855 13.959,11.803 13.908,11.813 C13.855,11.825 13.791,11.884 13.771,11.937 C13.746,11.997 13.882,12.088 13.953,12.053 C14.005,12.028 14.041,11.972 14.117,11.897 Z" id="Path"></path>
                    <path d="M11.517,13.543 C11.535,13.656 11.63,13.648 11.712,13.617 C11.757,13.601 11.792,13.565 11.87,13.512 C11.786,13.461 11.729,13.395 11.669,13.391 C11.632,13.388 11.596,13.404 11.567,13.426 C11.561,13.432 11.555,13.439 11.549,13.446 C11.528,13.472 11.51,13.503 11.517,13.543 Z" id="Path"></path>
                    <path d="M2.685,5.274 C2.693,5.251 2.64,5.204 2.599,5.143 C2.538,5.198 2.464,5.238 2.462,5.279 C2.462,5.321 2.532,5.364 2.575,5.407 C2.613,5.364 2.664,5.325 2.685,5.274 Z" id="Path"></path>
                    <path d="M6.628,16.675 C6.614,16.725 6.583,16.779 6.591,16.825 C6.603,16.884 6.64,16.946 6.683,16.987 C6.697,17.003 6.806,16.953 6.806,16.946 C6.788,16.872 6.759,16.8 6.736,16.73 C6.699,16.711 6.666,16.693 6.628,16.675 Z" id="Path"></path>
                    <path d="M1.333,11.939 C1.45,12.052 1.575,12.013 1.767,11.974 C1.589,11.883 1.474,11.835 1.333,11.939 Z" id="Path"></path>
                    <path d="M2.199,11.955 C2.26,11.945 2.312,11.906 2.371,11.879 C2.342,11.826 2.334,11.784 2.308,11.771 C2.22,11.724 2.091,11.775 2.06,11.863 C2.054,11.879 2.058,11.909 2.066,11.912 C2.109,11.93 2.158,11.962 2.199,11.955 Z" id="Path"></path>
                    <path d="M9.355,1.715 C9.392,1.695 9.412,1.647 9.451,1.596 C9.392,1.564 9.347,1.521 9.31,1.528 C9.269,1.535 9.22,1.582 9.206,1.622 C9.187,1.678 9.298,1.747 9.355,1.715 Z" id="Path"></path>
                    <path d="M7.23,17.664 C7.197,17.731 7.251,17.798 7.326,17.798 C7.398,17.798 7.471,17.769 7.627,17.732 C7.498,17.656 7.447,17.606 7.397,17.603 C7.339,17.598 7.251,17.623 7.23,17.664 Z" id="Path"></path>
                    <path d="M2.056,16.078 C2.087,16.078 2.12,16.026 2.173,15.98 C2.112,15.947 2.064,15.901 2.036,15.91 C1.983,15.932 1.942,15.982 1.895,16.022 C1.949,16.041 2.003,16.076 2.056,16.078 Z" id="Path"></path>
                    <path d="M6.269,1.08 C6.164,0.996 6.056,0.974 5.966,1.095 C5.948,1.116 5.98,1.213 6.007,1.22 C6.134,1.262 6.234,1.225 6.269,1.08 Z" id="Path"></path>
                    <path d="M2.13,17.646 C2.157,17.697 2.206,17.74 2.267,17.807 C2.31,17.744 2.361,17.693 2.353,17.679 C2.322,17.632 2.273,17.586 2.22,17.56 C2.208,17.553 2.125,17.636 2.13,17.646 Z" id="Path"></path>
                    <path d="M4.435,1.916 C4.357,1.856 4.312,1.812 4.261,1.792 C4.247,1.787 4.175,1.86 4.181,1.89 C4.191,1.947 4.234,1.995 4.265,2.048 C4.31,2.013 4.357,1.976 4.435,1.916 Z" id="Path"></path>
                    <path d="M11.337,4.057 C11.351,4.136 11.421,4.154 11.489,4.129 C11.528,4.114 11.557,4.075 11.626,4.016 C11.532,3.99 11.476,3.961 11.417,3.965 C11.386,3.967 11.332,4.031 11.337,4.057 Z" id="Path"></path>
                    <path d="M12.308,15.237 C12.273,15.281 12.349,15.359 12.431,15.345 C12.47,15.339 12.507,15.303 12.568,15.265 C12.507,15.226 12.474,15.182 12.435,15.182 C12.392,15.179 12.337,15.204 12.308,15.237 Z" id="Path"></path>
                    <path d="M12.705,12.813 C12.75,12.834 12.791,12.875 12.834,12.876 C12.871,12.877 12.912,12.837 13.004,12.782 C12.897,12.752 12.842,12.724 12.785,12.725 C12.757,12.725 12.732,12.78 12.705,12.813 Z" id="Path"></path>
                    <path d="M10.619,2.482 C10.621,2.48 10.627,2.478 10.629,2.476 C10.627,2.475 10.627,2.472 10.627,2.47 C10.621,2.473 10.615,2.476 10.609,2.48 C10.611,2.481 10.615,2.482 10.617,2.484 C10.617,2.484 10.617,2.482 10.619,2.482 Z" id="Path"></path>
                    <path d="M10.609,2.48 C10.537,2.455 10.466,2.421 10.392,2.41 C10.369,2.407 10.337,2.473 10.31,2.506 C10.345,2.534 10.388,2.589 10.412,2.582 C10.482,2.559 10.544,2.517 10.609,2.48 Z" id="Path"></path>
                    <path d="M8.197,17.621 C8.22,17.657 8.24,17.693 8.26,17.733 C8.285,17.712 8.307,17.693 8.332,17.676 C8.316,17.649 8.307,17.608 8.285,17.599 C8.265,17.591 8.23,17.612 8.197,17.621 Z" id="Path"></path>
                    <path d="M11.228,16.045 C11.249,16.087 11.263,16.143 11.298,16.161 C11.319,16.174 11.372,16.13 11.443,16.098 C11.38,16.05 11.349,16.017 11.312,16.006 C11.289,15.999 11.255,16.03 11.228,16.045 Z" id="Path"></path>
                    <path d="M15.794,9.447 C15.805,9.446 15.816,9.444 15.828,9.442 C15.829,9.396 15.835,9.352 15.835,9.306 L15.835,9.304 C15.812,9.323 15.782,9.345 15.769,9.366 C15.761,9.383 15.791,9.449 15.794,9.447 Z" id="Path"></path>
                    <path d="M12.822,13.515 C12.863,13.533 12.898,13.556 12.939,13.563 C12.949,13.564 12.982,13.502 12.978,13.498 C12.945,13.466 12.908,13.441 12.869,13.416 C12.855,13.444 12.841,13.472 12.822,13.515 Z" id="Path"></path>
                    <path d="M13.634,4.887 C13.64,4.9 13.65,4.927 13.655,4.927 C13.688,4.925 13.718,4.915 13.749,4.91 C13.737,4.888 13.726,4.866 13.716,4.844 C13.689,4.857 13.662,4.872 13.634,4.887 Z" id="Path"></path>
                    <path d="M13.853,10.2 C13.843,10.178 13.808,10.166 13.785,10.151 C13.775,10.18 13.756,10.212 13.762,10.236 C13.768,10.254 13.807,10.265 13.832,10.277 C13.841,10.25 13.859,10.22 13.853,10.2 Z" id="Path"></path>
                    <path d="M2.316,10.116 C2.298,10.136 2.281,10.156 2.267,10.179 C2.265,10.185 2.29,10.215 2.298,10.213 C2.323,10.206 2.347,10.19 2.37,10.175 C2.353,10.156 2.335,10.134 2.316,10.116 Z" id="Path"></path>
                    <path d="M5.242,1.958 C5.26,1.996 5.283,2.031 5.305,2.068 C5.325,2.049 5.348,2.031 5.383,2.001 C5.342,1.972 5.305,1.946 5.268,1.918 C5.259,1.932 5.236,1.951 5.242,1.958 Z" id="Path"></path>
                    <path d="M10.488,16.127 C10.476,16.123 10.459,16.141 10.445,16.148 C10.474,16.183 10.504,16.216 10.533,16.249 C10.551,16.23 10.568,16.211 10.603,16.174 C10.56,16.155 10.527,16.137 10.488,16.127 Z" id="Path"></path>
                    <path d="M12.232,16.004 C12.238,16.018 12.246,16.03 12.253,16.044 C12.267,16.041 12.282,16.038 12.298,16.036 C12.288,16.021 12.284,16.002 12.273,15.995 C12.265,15.989 12.246,16 12.232,16.004 Z" id="Path"></path>
                    <polygon id="Path" points="4.394 2.681 4.363 2.665 4.361 2.692"></polygon>
                    <polygon id="Path" points="13.347 13.546 13.353 13.514 13.316 13.525"></polygon>
                    <path d="M12.083,14.399 C12.081,14.404 12.103,14.426 12.112,14.428 C12.126,14.429 12.151,14.411 12.149,14.407 C12.145,14.382 12.133,14.357 12.124,14.332 C12.109,14.354 12.091,14.376 12.083,14.399 Z" id="Path"></path>
                </g>
            </g>
        </g>
    </g>
</svg>