<?xml version="1.0" encoding="UTF-8"?>
<svg width="510px" height="94px" viewBox="0 0 510 94" version="1.1" xmlns="http://www.w3.org/2000/svg" xmlns:xlink="http://www.w3.org/1999/xlink">
    <!-- Generator: Sketch 52.6 (67491) - http://www.bohemiancoding.com/sketch -->
    <title>GH-logo</title>
    <desc>Created with Sketch.</desc>
    <g id="Page-1" stroke="none" stroke-width="1" fill="none" fill-rule="evenodd">
        <g id="GH-logo" transform="translate(1.000000, 0.000000)">
            <g id="g10" transform="translate(254.666660, 47.040001) scale(-1, 1) rotate(-180.000000) translate(-254.666660, -47.040001) translate(-0.000000, 0.373336)">
                <g id="g12" transform="translate(0.266667, 1.200000)">
                    <path d="M246.159994,55.3650653 L246.159994,89.8849311 L229.507994,89.8849311 L229.507994,1.54062663 L246.159994,1.54062663 L246.159994,40.375999 L273.59066,40.375999 L273.59066,1.54062663 L290.242659,1.54062663 L290.242659,89.8849311 L273.59066,89.8849311 L273.59066,55.3650653 L246.159994,55.3650653 Z M308.599992,39.922399 C308.813326,46.7354655 311.695992,54.116132 318.847992,54.116132 C326.425325,54.116132 329.093325,47.0754655 329.093325,39.922399 L308.599992,39.922399 Z M344.571991,29.3625326 C344.998658,58.8854652 333.470658,66.4931983 318.421325,66.4931983 C300.915992,66.4931983 292.162659,50.2557321 292.162659,33.3363992 C292.162659,16.5302663 301.022659,0.179173329 318.421325,0.179173329 C329.734658,0.179173329 341.154658,7.33229315 344.571991,19.9379995 L329.947992,22.7759994 C328.773325,17.4395996 325.678659,12.5567997 320.022659,12.5567997 C311.910659,12.5567997 307.533326,21.6401328 308.066659,29.3625326 L344.571991,29.3625326 Z M384.489324,1.54062663 L399.861323,1.54062663 C397.938657,5.74374652 397.725323,10.2843731 397.725323,14.8270663 L397.725323,46.3953322 C397.725323,58.3177319 390.361324,66.4931983 374.243991,66.4931983 C361.754658,66.4931983 353.214658,62.1781318 349.693325,48.6655988 L364.850658,46.1671988 C365.703991,51.731732 369.331991,54.116132 374.350657,54.116132 C380.21999,54.116132 382.994657,50.9359987 381.92799,42.0797323 C369.225324,40.6030657 347.025325,36.9697324 347.025325,19.0291995 C347.025325,7.67343981 355.455991,0.179173329 365.811991,0.179173329 C373.389324,0.179173329 376.911991,2.90417326 382.782657,7.33229315 L384.489324,1.54062663 Z M381.92799,20.8458661 C378.938657,16.6437329 374.455991,12.5567997 367.945324,12.5567997 C364.209324,12.5567997 362.501324,15.6213329 362.501324,19.3687995 C362.501324,28.6806659 375.417324,29.3625326 381.92799,30.6114659 L381.92799,20.8458661 Z M417.685323,89.8849311 L401.886657,89.8849311 L401.886657,1.54062663 L417.685323,1.54062663 L417.685323,89.8849311 Z M442.873322,81.0281313 L427.077323,81.0281313 L427.077323,65.130265 L419.71199,65.130265 L419.71199,51.1639987 L427.077323,51.1639987 L427.077323,19.9379995 C427.077323,6.08385318 435.189322,0.179173329 445.009322,0.179173329 C448.425322,0.179173329 451.839989,1.08645331 455.150655,2.10833328 L455.150655,14.9406663 C453.227989,13.691733 451.519989,12.5567997 448.851989,12.5567997 C443.727989,12.5567997 442.873322,15.7349329 442.873322,18.8015995 L442.873322,51.1639987 L455.150655,51.1639987 L455.150655,65.130265 L442.873322,65.130265 L442.873322,81.0281313 Z M474.894655,89.8849311 L459.095989,89.8849311 L459.095989,1.54062663 L474.894655,1.54062663 L474.894655,46.0535988 C477.882655,49.4609321 481.511988,52.9802653 486.101321,52.9802653 C492.933321,52.9802653 492.613321,44.9182655 492.613321,39.808799 L492.613321,1.54062663 L508.410654,1.54062663 L508.410654,46.6213322 C508.410654,62.2917318 499.230654,66.4931983 492.718654,66.4931983 C486.101321,66.4931983 479.910655,62.9734651 474.894655,58.5442652 L474.894655,89.8849311 Z" id="path14" fill="#CCE533" fill-rule="nonzero"></path>
                    <path d="M48.9177321,31.9046659 C49.5583988,21.9119995 47.2098655,14.0770663 34.2947991,14.0770663 C19.9917328,14.0770663 17.1087996,34.2890658 17.1087996,45.6442655 C17.1087996,56.9989319 18.4302662,77.1093314 34.2947991,77.2119981 C44.6478656,77.2802647 48.5973321,69.9447983 49.9849321,61.4281318 L64.9281317,63.8130651 C63.2207984,80.6182647 50.6250654,91.1802644 34.2947991,91.1802644 C10.5983997,91.1802644 0.0307333326,67.901065 0.0307333326,45.6442655 C0.0307333326,23.3885327 10.5983997,0.109895997 34.2947991,0.109895997 C39.844799,0.109895997 46.9958655,2.15417328 51.692132,7.71822647 L53.293732,1.47343996 L64.9281317,1.47343996 L64.9281317,45.8723989 L34.5083991,45.8723989 L34.5083991,31.9046659 L48.9177321,31.9046659 Z M92.3587977,0.109895997 C109.756797,0.109895997 118.616664,16.4625329 118.616664,33.2677325 C118.616664,50.1863987 109.863597,66.4245317 92.3587977,66.4245317 C74.8535981,66.4245317 66.1005317,50.1863987 66.1005317,33.2677325 C66.1005317,16.4625329 74.9603981,0.109895997 92.3587977,0.109895997 Z M92.3587977,12.4874664 C83.8197312,12.4874664 82.3254646,25.3187994 82.3254646,33.2677325 C82.3254646,41.2166656 83.8197312,54.047332 92.3587977,54.047332 C100.897864,54.047332 102.391731,41.2166656 102.391731,33.2677325 C102.391731,25.3187994 100.897864,12.4874664 92.3587977,12.4874664 Z M145.19333,0.109895997 C162.591996,0.109895997 171.451996,16.4625329 171.451996,33.2677325 C171.451996,50.1863987 162.698663,66.4245317 145.19333,66.4245317 C127.687997,66.4245317 118.935464,50.1863987 118.935464,33.2677325 C118.935464,16.4625329 127.794663,0.109895997 145.19333,0.109895997 Z M145.19333,12.4874664 C136.654663,12.4874664 135.159997,25.3187994 135.159997,33.2677325 C135.159997,41.2166656 136.654663,54.047332 145.19333,54.047332 C153.731996,54.047332 155.226663,41.2166656 155.226663,33.2677325 C155.226663,25.3187994 153.731996,12.4874664 145.19333,12.4874664 Z M213.611995,1.47343996 L226.314661,1.47343996 L226.314661,89.5635978 L210.515995,89.8171978 L210.515995,58.8161319 C206.034662,63.0182651 202.190662,66.4245317 195.786662,66.4245317 C187.139995,66.4245317 173.903996,58.3625319 173.903996,34.8573325 C173.903996,8.05885313 185.005329,0.109895997 197.067995,0.109895997 C203.685328,0.109895997 207.421328,2.26874661 212.223995,6.80885316 L213.611995,1.47343996 Z M210.515995,46.2125322 L210.515995,21.6854661 C208.061328,17.7114662 204.966662,14.4171996 200.269328,14.4171996 C190.769329,14.4171996 189.382662,26.6811993 189.382662,34.2890658 C189.382662,41.3297323 191.197329,53.138532 199.949328,53.138532 C204.538662,53.138532 207.741328,49.7327988 210.515995,46.2125322 Z" id="path16" fill="#6FCDA2" fill-rule="nonzero"></path>
                    <path d="M48.9177321,31.9046659 C49.5583988,21.9119995 47.2098655,14.0770663 34.2947991,14.0770663 C19.9917328,14.0770663 17.1087996,34.2890658 17.1087996,45.6442655 C17.1087996,56.9989319 18.4302662,77.1093314 34.2947991,77.2119981 C44.6478656,77.2802647 48.5973321,69.9447983 49.9849321,61.4281318 L64.9281317,63.8130651 C63.2207984,80.6182647 50.6250654,91.1802644 34.2947991,91.1802644 C10.5983997,91.1802644 0.0307333326,67.901065 0.0307333326,45.6442655 C0.0307333326,23.3885327 10.5983997,0.109895997 34.2947991,0.109895997 C39.844799,0.109895997 46.9958655,2.15417328 51.692132,7.71822647 L53.293732,1.47343996 L64.9281317,1.47343996 L64.9281317,45.8723989 L34.5083991,45.8723989 L34.5083991,31.9046659 L48.9177321,31.9046659 Z M92.3587977,0.109895997 C109.756797,0.109895997 118.616664,16.4625329 118.616664,33.2677325 C118.616664,50.1863987 109.863597,66.4245317 92.3587977,66.4245317 C74.8535981,66.4245317 66.1005317,50.1863987 66.1005317,33.2677325 C66.1005317,16.4625329 74.9603981,0.109895997 92.3587977,0.109895997 Z M92.3587977,12.4874664 C83.8197312,12.4874664 82.3254646,25.3187994 82.3254646,33.2677325 C82.3254646,41.2166656 83.8197312,54.047332 92.3587977,54.047332 C100.897864,54.047332 102.391731,41.2166656 102.391731,33.2677325 C102.391731,25.3187994 100.897864,12.4874664 92.3587977,12.4874664 Z M145.19333,0.109895997 C162.591996,0.109895997 171.451996,16.4625329 171.451996,33.2677325 C171.451996,50.1863987 162.698663,66.4245317 145.19333,66.4245317 C127.687997,66.4245317 118.935464,50.1863987 118.935464,33.2677325 C118.935464,16.4625329 127.794663,0.109895997 145.19333,0.109895997 Z M145.19333,12.4874664 C136.654663,12.4874664 135.159997,25.3187994 135.159997,33.2677325 C135.159997,41.2166656 136.654663,54.047332 145.19333,54.047332 C153.731996,54.047332 155.226663,41.2166656 155.226663,33.2677325 C155.226663,25.3187994 153.731996,12.4874664 145.19333,12.4874664 Z M213.611995,1.47343996 L226.314661,1.47343996 L226.314661,89.5635978 L210.515995,89.8171978 L210.515995,58.8161319 C206.034662,63.0182651 202.190662,66.4245317 195.786662,66.4245317 C187.139995,66.4245317 173.903996,58.3625319 173.903996,34.8573325 C173.903996,8.05885313 185.005329,0.109895997 197.067995,0.109895997 C203.685328,0.109895997 207.421328,2.26874661 212.223995,6.80885316 L213.611995,1.47343996 Z M210.515995,46.2125322 L210.515995,21.6854661 C208.061328,17.7114662 204.966662,14.4171996 200.269328,14.4171996 C190.769329,14.4171996 189.382662,26.6811993 189.382662,34.2890658 C189.382662,41.3297323 191.197329,53.138532 199.949328,53.138532 C204.538662,53.138532 207.741328,49.7327988 210.515995,46.2125322 Z" id="path18" stroke="#6FCDA2" stroke-width="1.3333333"></path>
                </g>
            </g>
        </g>
    </g>
</svg>