<?xml version="1.0" encoding="utf-8"?>
<!-- Generator: Adobe Illustrator 16.0.0, SVG Export Plug-In . SVG Version: 6.00 Build 0)  -->
<!DOCTYPE svg PUBLIC "-//W3C//DTD SVG 1.0//EN" "http://www.w3.org/TR/2001/REC-SVG-20010904/DTD/svg10.dtd">
<svg version="1.0" id="Layer_1" xmlns="http://www.w3.org/2000/svg" xmlns:xlink="http://www.w3.org/1999/xlink" x="0px" y="0px"
	 width="612px" height="188.908px" viewBox="0 0 612 188.908" enable-background="new 0 0 612 188.908" xml:space="preserve">
<g>
	<style>
		path {
			fill: #999999
		}
	</style>
	<path d="M536.77,179.572"/>
	<path d="M536.77,179.572"/>
	<path d="M474.914,80.085c13.133,0,18.598,13,18.742,28.401h2.744V50.284h-2.744c-0.584,14.601-5.609,26.551-18.742,26.551"/>
	<path d="M475.027,151.979h16.814c12.607,0,20.1-1.051,21.158-41.512h3.236v44.32h-65.502v-2.809h6.982l-0.023-4.033l0.039-135.344
		h-6.982V9.595h61.301v36.313h-2.611c-1.396-18.821-3.59-33.307-17.584-33.307l-16.811-0.003v136.498L475.027,151.979
		L475.027,151.979z M103.615,52.556V11.591h-3.686c0.007,2.998-0.554,4.216-2.4,4.216C93.941,15.807,86.948,9,78.644,9
		c-17.53,0-38.419,29.353-38.419,74.482c0,41.368,18.249,73.752,38.338,73.752c12.611,0,16.77-11.738,23.331-11.738
		c1.641,0,1.859,1.246,1.859,4.455h3.062v-46.854h7.013v-3.376H82.152v3.376H93.06v8.498c0,24.301-1.915,42.279-14.421,42.279
		c-15.378,0-17.292-15.99-17.292-64.788c0-33.738-0.621-76.537,17.321-76.479c11.787-0.202,17.885,13.843,21.369,39.948H103.615
		 M159.302,9.233c-17.631,0-38.442,28.866-38.442,74.249c0,41.368,18.248,73.62,38.442,73.62c20.399,0,38.339-34.061,38.339-74.218
		C197.641,37.094,178.266,9.233,159.302,9.233L159.302,9.233z M159.302,153.789c-15.376,0-19.799-14.199-19.799-70.028
		c0-42.171,0.628-71.484,19.799-71.484c20.604,0,19.618,31.848,19.618,69.399C178.92,123.445,179.496,153.789,159.302,153.789
		 M198.113,11.591l0.004,1.034h9.492l0.037,95.557c0,23.898,3.794,49.084,30.55,49.084c24.602,0,24.602-35.627,24.602-48.684V12.625
		h9.532V9.676h-20.501v2.949h7.129v95.939c0,11.648-1.65,45.049-19.617,45.049c-15.272,0-14.727-24.145-14.727-49.045V12.625h7.328
		V9.676h-33.829 M279.469,9.676v2.906h7.689l0.006,139.361h-7.691l-0.004,2.93h33.724v-2.93h-9.429v-71.65h6.765
		c13.646,0,13.572,19.982,14.086,41.869c0.311,14.059,0.539,32.709,15.541,34.059c6.566,0.527,9.094-1.865,11.994-7.314
		l-2.045-2.018c-1.666,2.654-3.469,6.277-5.836,6.229c-4.816-0.1-4.285-5.85-5.617-39.385c-0.43-30.543-1.287-31.968-22.477-36.616
		l0.262,0.233c11.621-0.765,21.785-10.611,21.785-32.097c0-26.71-11.061-35.658-26.191-35.577 M303.764,77.869l0.079-65.287
		c1.998,0,4.825,0,5.042,0c10.252,0,13.459,11.383,13.459,34.878c0,14.66-2.074,29.799-14.375,29.799h-4.205 M354.875,11.591
		l0.018,1.034h7.461v139.318h-7.461l-0.018,2.973h20.504l-0.021-2.973h-9.41V14.401h0.209l25.529,140.515h3.547l23.102-140.515
		h0.205l-0.037,137.542h-9.33l0.012,2.973h33.627l0.033-2.973l-7.965-0.008l0.039-139.311h7.717l0.014-2.949l-27.539-0.029
		l-16.029,93.386h-0.16L381.922,9.676h-27.047"/>
	<path d="M536.77,188.502"/>
	<path d="M536.77,188.502"/>
	<path d="M562.998,12.543l2.566-0.044c10.148,0,15.885-1.642,18.662,33.359h2.451V9.595h-64.275v36.263h2.414
		c2.938-35.337,8.355-33.359,18.502-33.359h2.105l-0.025,139.479h-7.936v2.877h33.725v-2.877l-8.189,0.033V12.543"/>
	<path d="M565.209,185.787c0,0-0.15,1.625-1.127,1.625c-0.988,0-0.869-1.557-0.869-1.557s0.1-3.551,0.1-7.385
		c0-3.82-5.156-4.49-4.967-4.49c2.055,0,5.146-1.885,5.146-6.381c0-4.492-2.713-7.049-5.613-7.049
		c-2.375,0-11.482,0.023-11.482,0.023l0.01,0.822h1.746v26.162h-1.686v0.857l8.916,0.01l0.012-0.867l-1.697,0.012v-13.031
		c0,0,1.127,0,1.896,0c2.523,0,2.313,3.43,2.313,3.43s0,5.195,0,6.607c0,1.418,1.406,4.332,4.281,4.332
		c3.51,0,3.359-3.121,3.359-3.121H565.209L565.209,185.787z M555.523,173.203c-0.428,0-1.826,0.012-1.826,0.012v-11.818
		c0,0,1.188,0,2.035,0c0.838,0,2.594,0.215,2.594,6.369C558.326,171.182,557.629,173.203,555.523,173.203"/>
	<path d="M543.494,180.129c0,2.6-1.037,7.477-5.863,7.477c-0.629,0-2.537,0-2.537,0v-13.09c0,0,1.018,0.033,2.477,0.033
		s2.854,1.055,2.854,4.889h0.514v-10.674c0,0-0.559-0.031-0.559,0c0,2.709-0.449,4.461-2.928,4.461c-1.52,0-2.357-0.037-2.357-0.037
		v-11.791c0,0,1.529,0,3.037,0c4.943,0,4.746,6.533,4.746,6.533h0.59v-7.336h-15.678v0.803h1.689v26.209h-1.689v0.836h16.246v-8.338
		C544.035,180.104,543.494,180.094,543.494,180.129"/>
	<path d="M524.047,180.135c0,6.541-4.5,7.484-5.459,7.484s-2.141,0-2.141,0v-26.223h1.631v-0.785h-8.938v0.785l1.68-0.006v26.229
		h-1.68v0.822h15.406v-8.307C524.547,180.135,524.047,180.102,524.047,180.135"/>
	<path d="M505.566,180.105c0,6.535-4.498,7.502-5.457,7.502s-2.137,0-2.137,0v-26.211h1.629v-0.803h-8.934v0.809l1.678-0.006v26.211
		h-1.678v0.799h15.396v-8.301C506.064,180.105,505.566,180.08,505.566,180.105"/>
	<path d="M481.285,187.598c-1.117,0-3.074,0-3.074,0v-13.119c0,0,1.178,0.027,2.404,0.027c3.088,0,2.988,3.891,2.988,4.926
		c0,0.035,0.549,0.027,0.549,0.027l-0.041-10.699c0,0-0.508-0.041-0.508,0.002c0,3.24-0.857,4.459-2.988,4.459
		c-1.516,0-2.416,0-2.416,0v-11.793c0,0,1.469-0.031,3.086-0.031c4.715,0,4.846,5.963,4.846,6.496c0,0.035,0.559-0.004,0.559-0.004
		v-7.295h-15.672l-0.027,0.803h1.646v26.201h-1.748v0.836h16.301v-8.301h-0.559C486.631,186.631,482.416,187.598,481.285,187.598"/>
	<path d="M464.957,160.594v0.803h1.502l-3.908,17.641l-4.018-17.641h0.912v-0.803h-7.744v0.803h1.131l6.473,27.035h2.248
		c0,0,5.771-24.666,5.912-25.289c0.096-0.426,0.438-1.746,0.438-1.746l1.188-0.006v-0.797H464.957"/>
	<path d="M446.029,160.551l-2.176,0.043c0,0-5.189,22.654-5.619,24.531c-0.234,1.049-0.637,2.451-0.637,2.451
		s-0.857-0.004-1.23-0.004v0.84h4.043l-0.004-0.836c-0.91,0-1.668,0-1.668,0l1.855-8.141h4.422l2.002,8.141h-1.408v0.791h8.074
		v-0.791h-1.049L446.029,160.551L446.029,160.551z M440.941,178.365l1.896-8.943l1.863,8.943H440.941"/>
	<path d="M433.787,185.781c0,0-0.129,1.621-1.117,1.621c-0.979,0-0.867-1.559-0.867-1.559s0.098-3.553,0.098-7.381
		s-5.156-4.494-4.967-4.494c2.055,0,5.148-1.883,5.148-6.379c0-4.498-2.715-6.996-5.617-6.996c-0.031,0-11.43-0.031-11.43-0.031
		l0.016,0.697h1.686v26.307h-1.686v0.836l8.818,0.016l0.031-0.852h-1.615v-13.152c0,0,1.117,0,1.895,0
		c2.523,0,2.314,3.541,2.314,3.541s0,5.203,0,6.621c0,1.412,1.396,4.324,4.279,4.324c3.512,0,3.373-3.119,3.373-3.119H433.787
		L433.787,185.781z M424.109,173.176c-0.428,0-1.824-0.037-1.824-0.037V161.26c0,0,1.186,0,2.033,0c0.84,0,2.596,0.336,2.596,6.496
		C426.914,171.17,426.205,173.176,424.109,173.176"/>
	<path d="M394.609,169.199h0.695c0-5.287,2.539-7.877,5.273-7.877v26.254h-1.688v0.83h8.854v-0.83h-1.615c0,0-0.07-26.209,0-26.209
		c5.549,0,5.271,7.873,5.271,7.873h0.625v-8.666h-17.416V169.199"/>
	<path d="M30.407,150.08l-6.221,2.471v1.576l6.221,2.463v-1.549l-1.269-0.447v-2.5l1.269-0.457V150.08L30.407,150.08z
		 M28.131,152.439v1.799l-2.527-0.904L28.131,152.439L28.131,152.439z M28.019,134.033h-3.833v1.371h3.88
		c0.728,0,1.408,0.588,1.408,1.463c0,0.869-0.681,1.455-1.408,1.455h-3.88v1.371h3.833c1.399,0,2.574-1.109,2.574-2.826
		C30.593,135.143,29.418,134.033,28.019,134.033L28.019,134.033z M28.588,117.922c-1.259,0-1.762,0.941-2.005,2.379
		c-0.149,0.857-0.345,1.23-0.755,1.23c-0.541,0-0.774-0.514-0.774-1.064c0-0.596,0.308-1.26,0.69-1.576l-0.811-0.773
		c-0.457,0.42-0.933,1.166-0.933,2.461c0,1.418,0.904,2.426,1.912,2.426c0.867,0,1.651-0.484,1.931-2.201
		c0.158-0.971,0.438-1.416,0.886-1.416c0.55,0,0.812,0.559,0.812,1.238c0,0.803-0.606,1.502-0.896,1.707l0.905,0.793
		c0.457-0.43,1.044-1.203,1.044-2.547C30.593,119.143,29.931,117.922,28.588,117.922L28.588,117.922z M25.287,102.611h-1.101v4.672
		h1.101v-1.66h5.12v-1.342h-5.12V102.611L25.287,102.611z M30.407,86.733l-2.472,1.464c-0.093-0.317-0.513-1.417-1.846-1.417
		c-1.091,0-1.903,0.876-1.903,2.098v2.919h6.221v-1.343h-2.35v-0.877l2.35-1.277V86.733L30.407,86.733z M26.126,88.151
		c0.522,0,0.905,0.419,0.905,0.839c0.075,0.065,0,1.464,0,1.464h-1.8V88.99C25.231,88.57,25.623,88.151,26.126,88.151L26.126,88.151
		z M30.407,69.819l-6.221,2.472v1.576l6.221,2.462v-1.548l-1.269-0.448v-2.499l1.269-0.457V69.819L30.407,69.819z M28.131,72.179
		v1.8l-2.527-0.905L28.131,72.179L28.131,72.179z M30.407,55.181h-1.101v2.63h-5.12v1.343h6.221V55.181L30.407,55.181z
		 M30.407,43.014h-6.221v1.343h6.221V43.014L30.407,43.014z M30.407,25.867l-6.221,2.471v1.576l6.221,2.462v-1.548l-1.269-0.447
		v-2.5l1.269-0.457V25.867L30.407,25.867z M28.131,28.226v1.8l-2.527-0.904L28.131,28.226L28.131,28.226z M30.407,9.597h-6.221
		v1.342h4.048l-4.048,2.873v1.389h6.221v-1.333h-4.234l4.234-3.003V9.597"/>
</g>
</svg>
