<?xml version="1.0" encoding="UTF-8"?>
<svg width="102px" height="26px" viewBox="0 0 102 26" version="1.1" xmlns="http://www.w3.org/2000/svg" xmlns:xlink="http://www.w3.org/1999/xlink">
    <!-- Generator: Sketch 52.6 (67491) - http://www.bohemiancoding.com/sketch -->
    <title>HB-logo</title>
    <desc>Created with Sketch.</desc>
    <g id="Page-1" stroke="none" stroke-width="1" fill="none" fill-rule="evenodd">
        <g id="HB-logo" fill="#999999">
            <g id="Group" transform="translate(61.000000, 1.000000)">
                <path d="M2.482,2.852 C2.482,2.861 2.49,2.865 2.506,2.865 L2.843,2.865 C2.851,2.865 2.851,2.918 2.843,2.918 L1.694,2.918 C1.686,2.918 1.686,2.865 1.694,2.865 L1.994,2.865 C2.011,2.865 2.017,2.861 2.017,2.852 L2.017,1.688 L0.919,1.688 L0.919,2.852 C0.919,2.861 0.927,2.865 0.943,2.865 L1.243,2.865 C1.251,2.865 1.251,2.918 1.243,2.918 L0.093,2.918 C0.086,2.918 0.086,2.865 0.093,2.865 L0.43,2.865 C0.447,2.865 0.454,2.861 0.454,2.852 L0.454,0.567 C0.454,0.558 0.447,0.554 0.43,0.554 L0.093,0.554 C0.086,0.554 0.086,0.501 0.093,0.501 L1.243,0.501 C1.251,0.501 1.251,0.554 1.243,0.554 L0.943,0.554 C0.927,0.554 0.919,0.558 0.919,0.567 L0.919,1.633 L2.017,1.633 L2.017,0.567 C2.017,0.558 2.01,0.554 1.994,0.554 L1.694,0.554 C1.686,0.554 1.686,0.501 1.694,0.501 L2.843,0.501 C2.852,0.501 2.852,0.554 2.843,0.554 L2.507,0.554 C2.491,0.554 2.483,0.558 2.483,0.567 L2.483,2.852 L2.482,2.852 Z" id="Path"></path>
                <path d="M5.675,1.86 C5.57,1.86 5.498,1.81 5.498,1.728 C5.498,1.654 5.543,1.656 5.543,1.602 C5.543,1.546 5.507,1.521 5.449,1.521 C5.391,1.521 5.286,1.54 5.206,1.783 L5.206,2.852 C5.206,2.861 5.213,2.865 5.23,2.865 L5.436,2.865 C5.444,2.865 5.444,2.918 5.436,2.918 L4.627,2.918 C4.618,2.918 4.618,2.865 4.627,2.865 L4.833,2.865 C4.849,2.865 4.857,2.861 4.857,2.852 L4.857,1.532 C4.857,1.523 4.849,1.519 4.833,1.519 L4.627,1.519 C4.618,1.519 4.618,1.466 4.627,1.466 L5.195,1.466 C5.203,1.466 5.206,1.47 5.206,1.475 L5.206,1.701 C5.266,1.514 5.397,1.435 5.552,1.435 C5.739,1.435 5.862,1.534 5.862,1.686 C5.863,1.783 5.788,1.86 5.675,1.86 Z" id="Path"></path>
                <path d="M8.903,1.568 C8.982,1.657 9.007,1.796 9.014,2.073 L8.324,2.073 C8.333,1.796 8.367,1.657 8.468,1.568 C8.535,1.508 8.614,1.49 8.712,1.49 C8.795,1.49 8.85,1.508 8.903,1.568 Z M8.711,2.949 C8.974,2.949 9.185,2.821 9.328,2.626 C9.331,2.62 9.289,2.588 9.287,2.592 C9.155,2.78 8.977,2.896 8.711,2.896 C8.613,2.896 8.534,2.877 8.467,2.817 C8.356,2.718 8.322,2.603 8.322,2.193 C8.322,2.163 8.322,2.154 8.322,2.127 L9.357,2.127 C9.363,2.127 9.367,2.125 9.367,2.117 C9.367,1.842 9.177,1.436 8.71,1.436 C8.278,1.436 7.954,1.774 7.954,2.193 C7.956,2.609 8.28,2.949 8.711,2.949 Z" id="Shape" fill-rule="nonzero"></path>
                <path d="M3.125,1.731 C3.125,1.61 3.276,1.435 3.569,1.435 C4.001,1.435 4.213,1.625 4.213,2.052 L4.213,2.745 C4.213,2.826 4.253,2.86 4.31,2.86 C4.377,2.86 4.43,2.805 4.444,2.772 C4.446,2.765 4.483,2.8 4.479,2.807 C4.457,2.868 4.347,2.949 4.207,2.949 C4.047,2.949 3.908,2.856 3.883,2.728 C3.832,2.873 3.692,2.949 3.492,2.949 C3.159,2.949 2.945,2.833 2.945,2.592 C2.945,2.235 3.326,2.152 3.473,2.14 C3.679,2.123 3.864,2.109 3.864,2.036 L3.864,1.837 C3.864,1.594 3.757,1.49 3.57,1.49 C3.476,1.49 3.419,1.533 3.419,1.633 C3.419,1.69 3.449,1.709 3.449,1.764 C3.449,1.826 3.399,1.886 3.281,1.886 C3.168,1.886 3.125,1.808 3.125,1.731 Z M3.56,2.882 C3.745,2.882 3.865,2.75 3.865,2.624 L3.865,2.12 C3.78,2.17 3.653,2.17 3.544,2.189 C3.42,2.211 3.288,2.277 3.288,2.591 C3.287,2.83 3.443,2.882 3.56,2.882 Z" id="Shape" fill-rule="nonzero"></path>
                <path d="M7.703,2.201 C7.703,2.579 7.383,2.949 6.938,2.949 C6.802,2.949 6.698,2.863 6.619,2.781 L6.619,3.907 C6.619,3.915 6.627,3.92 6.643,3.92 L6.848,3.92 C6.857,3.92 6.857,3.974 6.848,3.974 L6.04,3.974 C6.032,3.974 6.032,3.92 6.04,3.92 L6.246,3.92 C6.262,3.92 6.27,3.915 6.27,3.907 L6.27,1.533 C6.27,1.524 6.262,1.52 6.246,1.52 L6.04,1.52 C6.032,1.52 6.032,1.467 6.04,1.467 L6.609,1.467 C6.617,1.467 6.619,1.471 6.619,1.477 L6.619,1.606 C6.699,1.523 6.803,1.436 6.938,1.436 C7.383,1.436 7.703,1.823 7.703,2.201 Z M7.176,1.566 C7.113,1.507 7.029,1.489 6.938,1.489 C6.813,1.489 6.698,1.571 6.619,1.665 L6.619,2.68 C6.667,2.801 6.805,2.893 6.938,2.893 C7.028,2.893 7.113,2.875 7.176,2.816 C7.28,2.72 7.35,2.55 7.35,2.201 C7.35,1.852 7.28,1.663 7.176,1.566 Z" id="Shape" fill-rule="nonzero"></path>
                <path d="M12.12,1.478 C12.158,1.478 12.179,1.461 12.183,1.445 C12.185,1.44 12.242,1.441 12.242,1.445 L12.242,1.806 C12.242,1.813 12.183,1.813 12.183,1.806 C12.183,1.596 11.995,1.49 11.818,1.49 C11.633,1.49 11.545,1.573 11.545,1.703 C11.545,1.87 11.665,1.956 11.94,2.033 C12.226,2.113 12.415,2.253 12.415,2.472 C12.415,2.747 12.192,2.949 11.835,2.949 C11.622,2.949 11.53,2.849 11.42,2.849 C11.351,2.849 11.314,2.896 11.305,2.923 C11.302,2.931 11.246,2.93 11.246,2.923 L11.266,2.444 C11.266,2.438 11.325,2.438 11.325,2.444 C11.316,2.696 11.55,2.896 11.835,2.896 C12.049,2.896 12.171,2.797 12.171,2.615 C12.171,2.431 12.027,2.359 11.764,2.279 C11.509,2.201 11.328,2.097 11.328,1.871 C11.328,1.603 11.589,1.436 11.819,1.436 C11.968,1.436 11.981,1.478 12.12,1.478 Z" id="Path"></path>
                <path d="M11.052,0.972 C11.052,0.874 11.135,0.795 11.238,0.795 C11.348,0.795 11.431,0.875 11.431,0.993 C11.431,1.167 11.273,1.371 11.058,1.499 C11.052,1.503 11.018,1.464 11.023,1.461 C11.179,1.371 11.291,1.259 11.357,1.102 C11.328,1.134 11.29,1.148 11.238,1.148 C11.135,1.149 11.052,1.069 11.052,0.972 Z" id="Path"></path>
                <path d="M10.586,1.86 C10.48,1.86 10.408,1.81 10.408,1.728 C10.408,1.654 10.453,1.656 10.453,1.602 C10.453,1.546 10.417,1.521 10.36,1.521 C10.301,1.521 10.196,1.54 10.116,1.783 L10.116,2.852 C10.116,2.861 10.124,2.865 10.14,2.865 L10.347,2.865 C10.355,2.865 10.355,2.918 10.347,2.918 L9.537,2.918 C9.529,2.918 9.529,2.865 9.537,2.865 L9.744,2.865 C9.76,2.865 9.768,2.861 9.768,2.852 L9.768,1.532 C9.768,1.523 9.76,1.519 9.744,1.519 L9.537,1.519 C9.529,1.519 9.529,1.466 9.537,1.466 L10.106,1.466 C10.115,1.466 10.116,1.47 10.116,1.475 L10.116,1.701 C10.177,1.514 10.307,1.435 10.463,1.435 C10.65,1.435 10.773,1.534 10.773,1.686 C10.773,1.783 10.699,1.86 10.586,1.86 Z" id="Path"></path>
            </g>
            <g id="Group">
                <path d="M23.563,6.61 L26.694,18.021 L20.63,18.021 L23.563,6.61 Z M18.885,24.171 C18.69,24.955 18.662,25.034 18.464,25.034 L16.233,25.034 L16.233,25.187 L21.289,25.187 L21.289,25.034 L18.975,25.034 C18.825,25.034 18.85,24.928 19.033,24.211 L20.588,18.172 L26.744,18.172 L28.624,25.033 L26.12,25.033 L26.12,25.186 L34.533,25.186 L34.533,25.033 L31.917,25.033 L24.941,0.838 L24.899,0.838 L18.885,24.171 Z" id="Shape" fill-rule="nonzero"></path>
                <path d="M39.295,24.914 C39.27,24.969 39.299,25.035 39.417,25.035 L44.939,25.036 C46.639,25.036 48.834,22.522 48.834,14.42 L48.834,13.576 L48.987,13.576 L48.987,25.189 L35.802,25.189 L45.791,1.774 C45.815,1.719 45.787,1.654 45.669,1.654 L39.806,1.655 C38.267,1.655 36.033,4.465 36.033,12.271 L36.033,13.115 L35.88,13.115 L35.88,1.502 L49.295,1.502 L39.295,24.914 Z" id="Path"></path>
                <path d="M89.702,1.656 L91.78,1.656 C94.98,1.656 95.885,4.09 95.885,7.309 C95.885,10.324 94.981,12.962 91.78,12.962 L89.702,12.962 L89.702,1.656 Z M89.702,13.116 L91.626,13.116 C93.332,13.116 95.845,13.85 95.845,16.834 L95.845,22.236 C95.845,24.446 97.066,25.84 99.219,25.84 C101.48,25.84 101.445,23.555 101.445,21.907 L101.445,20.171 L101.292,20.171 L101.292,21.907 C101.292,23.782 101.07,25.408 99.966,25.408 C98.989,25.408 98.778,24.803 98.778,22.26 L98.778,16.834 C98.778,14.323 96.743,13.403 93.601,13.039 C97.516,12.573 98.989,10.073 98.989,7.31 C98.989,3.222 97.101,1.503 92.24,1.503 L84.532,1.502 L84.532,1.655 L86.556,1.655 C86.702,1.655 86.771,1.696 86.771,1.779 L86.771,24.91 C86.771,24.993 86.703,25.035 86.556,25.035 L84.532,25.035 L84.532,25.188 L91.618,25.188 L91.618,25.035 L89.917,25.035 C89.77,25.035 89.702,24.993 89.702,24.91 L89.702,13.116 Z" id="Shape" fill-rule="nonzero"></path>
                <path d="M89.917,1.655 C89.77,1.655 89.702,1.696 89.702,1.779" id="Path"></path>
                <path d="M7.589,12.887 C11.198,12.887 12.628,15.346 12.628,19.076 C12.628,22.295 11.351,25.035 8.356,25.035 L6.348,25.034 C6.201,25.034 6.133,24.992 6.133,24.909 L6.133,12.884 L7.589,12.887 Z M0.962,1.501 L0.962,1.654 L2.986,1.654 C3.132,1.654 3.2,1.695 3.2,1.778 L3.2,24.91 C3.2,24.993 3.132,25.035 2.986,25.035 L0.962,25.035 L0.962,25.188 L8.509,25.189 C13.37,25.189 15.964,23.164 15.964,19.076 C15.964,16.246 14.431,13.366 9.592,12.791 C13.702,12.407 15.12,9.825 15.12,7.309 C15.12,3.63 12.91,1.502 8.048,1.502 L0.962,1.501 Z M7.589,1.656 C10.789,1.656 12.092,4.09 12.092,7.309 C12.092,10.324 10.788,12.732 7.589,12.732 L6.133,12.732 L6.133,1.655 L7.589,1.655 L7.589,1.656 Z" id="Shape" fill-rule="nonzero"></path>
                <path d="M57.428,6.61 L60.56,18.021 L54.496,18.021 L57.428,6.61 Z M52.752,24.171 C52.555,24.955 52.528,25.034 52.331,25.034 L50.098,25.034 L50.098,25.187 L55.154,25.187 L55.154,25.034 L52.84,25.034 C52.69,25.034 52.715,24.928 52.897,24.211 L54.453,18.172 L60.609,18.172 L62.487,25.033 L59.986,25.033 L59.986,25.186 L68.399,25.186 L68.399,25.033 L65.783,25.033 L58.806,0.838 L58.764,0.838 L52.752,24.171 Z" id="Shape" fill-rule="nonzero"></path>
                <path d="M73.985,6.61 L77.117,18.021 L71.053,18.021 L73.985,6.61 Z M69.309,24.171 C69.114,24.955 69.086,25.034 68.888,25.034 L66.655,25.034 L66.655,25.187 L71.711,25.187 L71.711,25.034 L69.397,25.034 C69.248,25.034 69.272,24.928 69.454,24.211 L71.01,18.172 L77.166,18.172 L79.044,25.033 L76.544,25.033 L76.544,25.186 L84.957,25.186 L84.957,25.033 L82.34,25.033 L75.364,0.838 L75.322,0.838 L69.309,24.171 Z" id="Shape" fill-rule="nonzero"></path>
            </g>
        </g>
    </g>
</svg>