<?xml version="1.0" encoding="UTF-8"?>
<svg width="58px" height="20px" viewBox="0 0 58 20" version="1.1" xmlns="http://www.w3.org/2000/svg" xmlns:xlink="http://www.w3.org/1999/xlink">
    <!-- Generator: Sketch 52.6 (67491) - http://www.bohemiancoding.com/sketch -->
    <title>Homes To Love (2)</title>
    <desc>Created with Sketch.</desc>
    <g id="Page-1" stroke="none" stroke-width="1" fill="none" fill-rule="evenodd">
        <g id="Homes-To-Love-(2)" fill="#7CBFB1">
            <path d="M53.58,15.49 C52.2105329,15.5669773 50.8465746,15.2623369 49.64,14.61 L49.64,11.8 L49.92,11.8 C50.32,13.25 51.57,15.2 53.58,15.2 C55.14,15.2 55.45,13.32 53.78,12.2 L51.57,10.86 C49.46,9.54 48.91,7.57 50.18,6 C50.18,6 51,5 53.34,5 C54.5741355,4.91839839 55.8096091,5.13803814 56.94,5.64 L56.94,7.94 L56.65,7.94 C56.3027726,6.38498767 54.9331572,5.27191659 53.34,5.25 C51.92,5.25 51.28,6.8 53.19,8.01 L55.4,9.39 C57.4,10.6 57.95,12.79 56.81,14.3 C56.81,14.3 56,15.49 53.58,15.49 Z" id="Path"></path>
            <polygon id="Path" points="28.15 17.14 26.94 17.14 26.94 16.88 29.68 16.88 29.68 17.14 28.48 17.14 28.48 20 28.15 20"></polygon>
            <path d="M31.57,18.43 C31.571579,18.2167347 31.6157785,18.0059371 31.7,17.81 C31.7873345,17.6220867 31.9094897,17.4524267 32.06,17.31 C32.2183386,17.1652273 32.4058914,17.0561056 32.61,16.99 C33.0617783,16.8400841 33.5504254,16.8435995 34,17 C34.2041086,17.0661056 34.3916614,17.1752273 34.55,17.32 C34.7005103,17.4624267 34.8226655,17.6320867 34.91,17.82 C35.0830209,18.2187049 35.0830209,18.6712951 34.91,19.07 C34.8251462,19.2593538 34.7026632,19.429469 34.55,19.57 C34.3916614,19.7147727 34.2041086,19.8238944 34,19.89 C33.5401933,20.0500327 33.0398067,20.0500327 32.58,19.89 C32.3758914,19.8238944 32.1883386,19.7147727 32.03,19.57 C31.8773368,19.429469 31.7548538,19.2593538 31.67,19.07 C31.5936516,18.8656447 31.5596297,18.6479051 31.57,18.43 Z M31.89,18.43 C31.882168,18.6259444 31.9198182,18.8210407 32,19 C32.0659731,19.1588807 32.1648022,19.3020125 32.29,19.42 C32.4188227,19.543706 32.5721082,19.6390836 32.74,19.7 C33.1220272,19.8333728 33.5379728,19.8333728 33.92,19.7 C34.0878918,19.6390836 34.2411773,19.543706 34.37,19.42 C34.4951978,19.3020125 34.5940269,19.1588807 34.66,19 C34.7295002,18.8356185 34.7635741,18.6584343 34.76,18.48 C34.7627655,18.3048715 34.7286959,18.1311165 34.66,17.97 C34.5940269,17.8111193 34.4951978,17.6679875 34.37,17.55 C34.2411773,17.426294 34.0878918,17.3309164 33.92,17.27 C33.5379728,17.1366272 33.1220272,17.1366272 32.74,17.27 C32.5721082,17.3309164 32.4188227,17.426294 32.29,17.55 C32.1648022,17.6679875 32.0659731,17.8111193 32,17.97 C31.9343943,18.1149361 31.8970595,18.2710637 31.89,18.43 Z" id="Shape" fill-rule="nonzero"></path>
            <polygon id="Path" points="39.71 16.87 40 16.87 40 19.73 41.65 19.73 41.65 20 39.65 20"></polygon>
            <path d="M43.79,18.43 C43.7867743,18.2162457 43.8311821,18.0044548 43.92,17.81 C44.0001387,17.620537 44.1194111,17.4501479 44.27,17.31 C44.4298985,17.1673633 44.6169775,17.0585173 44.82,16.99 C45.0478905,16.9090272 45.2881567,16.8684188 45.53,16.87 C45.7719776,16.8667156 46.0125424,16.9073744 46.24,16.99 C46.4450399,17.0540057 46.6330267,17.1633798 46.79,17.31 C46.9405103,17.4524267 47.0626655,17.6220867 47.15,17.81 C47.3230209,18.2087049 47.3230209,18.6612951 47.15,19.06 C47.0651462,19.2493538 46.9426632,19.419469 46.79,19.56 C46.6330267,19.7066202 46.4450399,19.8159943 46.24,19.88 C46.0125424,19.9626256 45.7719776,20.0032844 45.53,20 C45.2881567,20.0015812 45.0478905,19.9609728 44.82,19.88 C44.6169775,19.8114827 44.4298985,19.7026367 44.27,19.56 C44.1172207,19.4217714 43.9975856,19.2508642 43.92,19.06 C43.8300439,18.8623821 43.7856174,18.6470846 43.79,18.43 Z M44.1,18.43 C44.1013587,18.6079797 44.1352494,18.784211 44.2,18.95 C44.2659731,19.1088807 44.3648022,19.2520125 44.49,19.37 C44.6188227,19.493706 44.7721082,19.5890836 44.94,19.65 C45.129802,19.7156584 45.3291629,19.7494484 45.53,19.75 C45.7340874,19.7492803 45.936711,19.7155097 46.13,19.65 C46.2956259,19.5845039 46.4480698,19.4896499 46.58,19.37 C46.7022939,19.2516338 46.797775,19.1084121 46.86,18.95 C46.9295002,18.7856185 46.9635741,18.6084343 46.96,18.43 C46.9627655,18.2548715 46.9286959,18.0811165 46.86,17.92 C46.797775,17.7615879 46.7022939,17.6183662 46.58,17.5 C46.4480698,17.3803501 46.2956259,17.2854961 46.13,17.22 C45.9379856,17.1495438 45.7344859,17.1156272 45.53,17.12 C45.3287767,17.1156905 45.1285648,17.1496247 44.94,17.22 C44.7721082,17.2809164 44.6188227,17.376294 44.49,17.5 C44.3648022,17.6179875 44.2659731,17.7611193 44.2,17.92 C44.1362242,18.0825902 44.1023468,18.2553649 44.1,18.43 Z" id="Shape" fill-rule="nonzero"></path>
            <polygon id="Path" points="49.24 16.87 49.6 16.87 50.74 19.62 51.89 16.87 52.24 16.87 50.9 20 50.56 20"></polygon>
            <polygon id="Path" points="54.59 16.87 56.76 16.87 56.76 17.13 54.92 17.13 54.92 18.25 56.64 18.25 56.64 18.51 54.92 18.51 54.92 19.73 56.84 19.73 56.84 20 54.59 20"></polygon>
            <path d="M42.55,10 C42.55,12.74 43.49,13.91 45.1,14.15 C47.43,14.51 49.16,12.41 48.72,13.15 C47.6899868,14.667505 45.9415361,15.5360412 44.11,15.44 C41.2947099,15.3636482 39.065131,13.0359679 39.11,10.22 C39.0695887,8.80775223 39.6191303,7.44246807 40.6266509,6.45202415 C41.6341714,5.46158022 43.0086493,4.93545541 44.42,5 C47.18,5 49,6.26 49,10 L42.55,10 Z M46.1,9.71 C46.1,6.95 45.51,5.22 44.42,5.22 C43.33,5.22 42.55,7.61 42.55,9.71 L46.1,9.71 Z" id="Shape" fill-rule="nonzero"></path>
            <path d="M38.45,12.85 L38.45,8.36 C38.45,5.68 37.17,4.96 35.45,4.96 C34.0242598,5.02952669 32.7845737,5.96028144 32.32,7.31 C32.2428075,6.59658638 31.8806538,5.94462217 31.3157565,5.50211933 C30.7508593,5.05961649 30.0311426,4.86411553 29.32,4.96 C27.9850549,5.06868859 26.8249177,5.91945582 26.32,7.16 L26.32,5 C24.9460981,5.70192281 23.4104063,6.02631614 21.87,5.94 L21.87,6.12 C22.69,6.45 22.87,6.77 22.87,7.55 L22.87,13 C22.87,14.16 22.87,15.11 22.09,15.36 L22.09,15.53 L27.09,15.53 L27.09,15.36 C26.36,15.14 26.26,14.23 26.26,13 L26.26,7.88 C26.4494705,7.1843237 27.0357898,6.66883497 27.75,6.57 C28.65,6.57 29.05,7.17 29.05,8.45 L29.05,12.85 C29.05,13.99 29,15.07 28.15,15.32 L28.15,15.49 L33.25,15.49 L33.25,15.32 C32.47,15.12 32.33,14.08 32.33,12.85 L32.33,8 C32.4347488,7.22043391 33.0663646,6.61790566 33.85,6.55 C34.75,6.55 35.17,7.15 35.17,8.43 L35.17,12.83 C35.17,13.97 35.17,15.05 34.28,15.3 L34.28,15.47 L39.37,15.47 L39.37,15.3 C38.58,15.12 38.45,14.08 38.45,12.85 Z" id="Path"></path>
            <path d="M16.72,5 C15.2879657,4.89736207 13.8809088,5.41525974 12.8571354,6.42181076 C11.8333621,7.42836177 11.2916697,8.8264306 11.37,10.26 C11.2886821,11.6952575 11.8290566,13.0960772 12.8531928,14.1048992 C13.8773289,15.1137211 15.2861305,15.6329309 16.72,15.53 C18.1521988,15.6299134 19.558243,15.1093642 20.5800973,14.100905 C21.6019516,13.0924458 22.1410076,11.6933924 22.06,10.26 C22.1380243,8.82829556 21.5976521,7.43199005 20.5761592,6.4258004 C19.5546662,5.41961075 18.1503637,4.90037514 16.72,5 Z M16.72,15.21 C15.72,15.21 14.87,12.99 14.87,10.26 C14.87,7.53 15.7,5.32 16.72,5.32 C17.74,5.32 18.57,7.53 18.57,10.26 C18.57,12.99 17.78,15.17 16.76,15.17 L16.72,15.21 Z" id="Shape" fill-rule="nonzero"></path>
            <path d="M11.49,18.46 C10.57,17.35 10.63,14.7 10.63,14.7 L10.63,7.77 C10.5970543,6.98399924 10.2461968,6.24510914 9.65790468,5.72281133 C9.06961257,5.20051353 8.29437112,4.93962983 7.51,5 C6.26931172,5.07832809 5.18034678,5.8533921 4.7,7 L4.7,0 C3.24720275,0.73709086 1.6270311,1.08180823 0,1 L0,1.17 C1,1.48 1.23,1.86 1.23,2.46 L1.23,13 C1.23,14.06 1.18,15 0.28,15.27 L0.28,15.45 L5.67,15.45 L5.67,15.27 C4.82,15.09 4.67,14.14 4.67,13 L4.67,7 C4.96501914,6.63122792 5.40788351,6.41162575 5.88,6.4 C6.58,6.4 7.26,6.84 7.26,7.98 L7.26,14.1 C7.25037696,15.2220299 7.46808601,16.3343871 7.9,17.37 C8.63098668,18.9277239 10.1797942,19.9383208 11.9,19.98 C12.7135794,20.0371722 13.5163191,19.7671925 14.13,19.23 C13.1780285,19.6187775 12.0836956,19.2995971 11.49,18.46 Z" id="Path"></path>
        </g>
    </g>
</svg>