<?xml version="1.0" encoding="UTF-8" standalone="no"?>
<svg
   xmlns:dc="http://purl.org/dc/elements/1.1/"
   xmlns:cc="http://creativecommons.org/ns#"
   xmlns:rdf="http://www.w3.org/1999/02/22-rdf-syntax-ns#"
   xmlns:svg="http://www.w3.org/2000/svg"
   xmlns="http://www.w3.org/2000/svg"
   viewBox="0 0 1139.5067 127.34667"
   height="127.34667"
   width="1139.5067"
   xml:space="preserve"
   id="svg2"
   version="1.1"><metadata
     id="metadata8"><rdf:RDF><cc:Work
         rdf:about=""><dc:format>image/svg+xml</dc:format><dc:type
           rdf:resource="http://purl.org/dc/dcmitype/StillImage" /></cc:Work></rdf:RDF></metadata><defs
     id="defs6" /><g
     transform="matrix(1.3333333,0,0,-1.3333333,0,127.34667)"
     id="g10"><g
       transform="scale(0.1)"
       id="g12"><path
         id="path14"
         style="fill:#777;fill-opacity:1;fill-rule:nonzero;stroke:none"
         d="M 4798.29,25.3477 V 555.914 h -188.08 v 44.871 H 5036.4 V 555.914 H 4848.32 V 25.3477 h -50.03" /><path
         id="path16"
         style="fill:#777;fill-opacity:1;fill-rule:nonzero;stroke:none"
         d="m 5684.36,312.637 c 0,145.789 -89.72,252.769 -227.75,252.769 -138.9,0 -227.77,-106.98 -227.77,-252.769 0,-144.946 88.87,-252.7893 227.77,-252.7893 138.03,0 227.75,107.8433 227.75,252.7893 z m -507.27,0 c 0,168.226 110.43,297.629 279.52,297.629 168.23,0 279.52,-129.403 279.52,-297.629 0,-168.231 -111.29,-297.6487 -279.52,-297.6487 -169.09,0 -279.52,129.4177 -279.52,297.6487" /><path
         id="path18"
         style="fill:#777;fill-opacity:1;fill-rule:nonzero;stroke:none"
         d="M 6275.43,25.3477 V 600.785 h 50.05 V 70.2031 h 278.65 V 25.3477 h -328.7" /><path
         id="path20"
         style="fill:#777;fill-opacity:1;fill-rule:nonzero;stroke:none"
         d="m 7259.85,312.637 c 0,145.789 -89.72,252.769 -227.76,252.769 -138.89,0 -227.76,-106.98 -227.76,-252.769 0,-144.946 88.87,-252.7893 227.76,-252.7893 138.04,0 227.76,107.8433 227.76,252.7893 z m -507.27,0 c 0,168.226 110.43,297.629 279.51,297.629 168.23,0 279.52,-129.403 279.52,-297.629 0,-168.231 -111.29,-297.6487 -279.52,-297.6487 -169.08,0 -279.51,129.4177 -279.51,297.6487" /><path
         id="path22"
         style="fill:#777;fill-opacity:1;fill-rule:nonzero;stroke:none"
         d="M 7696.47,25.3477 7460.95,600.785 h 56.94 L 7727.52,80.5625 7936.3,600.785 h 56.95 L 7757.72,25.3477 h -61.25" /><path
         id="path24"
         style="fill:#777;fill-opacity:1;fill-rule:nonzero;stroke:none"
         d="M 8181.38,25.3477 V 600.785 h 364.94 V 555.914 H 8230.56 V 342.828 h 309.72 V 297.969 H 8230.56 V 70.2031 h 315.76 V 25.3477 h -364.94" /><path
         id="path26"
         style="fill:#51bf51;fill-opacity:1;fill-rule:nonzero;stroke:none"
         d="m 385,461.66 c 20.68,14.426 40.422,21.629 59.23,21.629 45.59,0 68.403,-29.07 68.403,-87.195 V 183.848 c 0,-39.657 -7.301,-64.207 -21.86,-73.66 -14.582,-9.473 -31.269,-14.8755 -50.074,-16.2349 V 22.3047 h 392.762 v 71.6484 c -37.145,0 -61.352,6.3129 -72.633,18.9299 -11.277,12.605 -16.918,36.269 -16.918,70.965 v 188.593 c 0,52.266 -5.89,92.825 -17.633,121.661 -11.754,28.839 -34.797,53.398 -69.097,73.679 -34.321,20.278 -75.93,30.422 -124.813,30.422 -39.957,0 -77.558,-8.113 -112.816,-24.344 -35.258,-16.222 -68.16,-40.785 -98.723,-73.664 V 955.09 L 0,901.691 v -71.652 c 39.9492,0 65.4609,-6.543 76.5078,-19.598 11.043,-13.07 16.5742,-36.496 16.5742,-70.304 V 183.848 c 0,-33.789 -5.4101,-57.227 -16.2226,-70.282 C 66.0391,100.48 40.4297,93.9531 0,93.9531 V 22.3047 h 392.758 v 71.6484 c -27.27,0.4532 -46.078,7.5389 -56.41,21.3009 -10.348,13.738 -15.52,36.601 -15.52,68.594 v 212.246 c 22.094,29.289 43.485,51.133 64.172,65.566 M 945.629,77.3945 C 1014.73,25.7891 1097.23,0 1193.12,0 c 98.25,0 181.92,27.1406 251.03,81.4531 69.1,54.3009 103.65,127.1799 103.65,218.6559 0,96.434 -35.26,170.223 -105.77,221.375 -70.51,51.133 -153.25,76.719 -248.2,76.719 -97.31,0 -180.28,-26.355 -248.908,-79.09 -68.645,-52.726 -102.953,-125.5 -102.953,-218.324 0,-97.34 34.551,-171.797 103.66,-223.3945 M 1116.27,482.949 c 21.61,25.91 47.7,38.867 78.26,38.867 38.54,0 66.75,-15.203 84.62,-45.625 17.86,-30.41 26.79,-88.437 26.79,-174.05 0,-94.192 -9.99,-155.696 -29.97,-184.532 -19.98,-28.8395 -46.65,-43.2535 -80.03,-43.2535 -41.37,0 -70.4,17.2383 -87.08,51.7105 -16.69,34.461 -25.03,94.969 -25.03,181.485 0,91.023 10.81,149.48 32.44,175.398 m 855.36,-18.586 c 24.91,15.317 50.06,22.992 75.45,22.992 29.14,0 50.88,-9.367 65.22,-28.07 14.34,-18.687 21.51,-46.746 21.51,-84.148 V 182.5 c 0,-33.348 -5.41,-56.328 -16.22,-68.934 -10.82,-12.636 -33.61,-19.1597 -68.4,-19.6129 V 22.3047 h 401.22 v 71.6484 c -36.21,0 -59.94,6.4299 -71.22,19.2699 -11.28,12.843 -16.92,35.929 -16.92,69.277 v 212.922 c 21.15,31.543 43.95,55.191 68.39,70.965 24.44,15.769 50.53,23.664 78.27,23.664 29.62,0 51.71,-9.453 66.28,-28.391 14.57,-18.926 21.86,-47.312 21.86,-85.168 V 182.5 c 0,-32.898 -5.29,-55.879 -15.86,-68.934 -10.58,-13.086 -33.97,-19.6129 -70.16,-19.6129 V 22.3047 h 417.43 v 71.6484 c -44.67,0 -72.98,5.9688 -84.97,17.9219 -11.99,11.926 -17.98,35.48 -17.98,70.625 v 178.449 c 0,41.453 -2.94,73.106 -8.81,94.957 -5.89,21.867 -17.75,43.711 -35.61,65.578 -17.87,21.844 -43.96,40.098 -78.27,54.746 -34.32,14.637 -72.4,21.973 -114.23,21.973 -50.77,0 -96.14,-9.805 -136.09,-29.402 -39.96,-19.61 -74.74,-49.238 -104.36,-88.891 -15.51,39.653 -40.54,69.281 -75.09,88.891 -34.55,19.597 -78.62,29.402 -132.21,29.402 -48.9,0 -93.67,-8.574 -134.33,-25.691 -40.66,-17.129 -76.97,-43.039 -108.94,-77.727 0,38.75 -4,68.039 -11.98,87.863 L 1573.94,533.313 V 461.66 c 41.84,0 68.4,-6.418 79.68,-19.258 11.28,-12.851 16.93,-36.406 16.93,-70.644 V 182.5 c 0,-32.441 -5.18,-55.32 -15.52,-68.613 -10.34,-13.282 -35.73,-19.9339 -76.15,-19.9339 h -18.33 V 22.3047 h 425.18 v 71.6484 c -36.2,0 -59.93,6.3129 -71.21,18.9299 -11.29,12.605 -16.93,35.816 -16.93,69.617 v 212.922 c 24.44,30.644 49.12,53.621 74.04,68.941 M 3570.9,305.52 c 0,98.23 -29.03,171.57 -87.08,220.015 -58.07,48.442 -132.46,72.668 -223.17,72.668 -90.26,0 -167.47,-26.355 -231.64,-79.09 -64.16,-52.726 -96.25,-125.285 -96.25,-217.648 0,-92.383 33.15,-165.711 99.43,-220.0119 C 3098.47,27.1406 3178.15,0 3271.22,0 c 60.64,0 115.99,12.0625 166.06,36.1602 50.06,24.1054 88.49,54.6406 115.28,91.5938 l -65.57,37.851 c -46.54,-54.074 -97.55,-81.1128 -153.01,-81.1128 -52.18,0 -91.32,18.4688 -117.4,55.4298 -26.09,36.941 -39.14,92.148 -39.14,165.598 z m -372.31,180.468 c 14.57,24.785 36.43,37.188 65.58,37.188 57.82,0 88.14,-49.809 90.96,-149.387 h -178.39 c 0,50.02 7.28,87.422 21.85,112.199 M 3698.58,0 c 6.1,16.2227 15.51,28.8281 28.21,37.8516 C 3794,12.6172 3858.4,0 3919.99,0 c 80.39,0 147.83,18.6992 202.37,56.1055 54.52,37.3906 81.79,85.6055 81.79,144.6485 0,36.504 -10.47,68.609 -31.38,96.316 -20.92,27.715 -49.6,48.77 -86.03,63.203 -36.43,14.415 -90.84,28.606 -163.23,42.579 -69.57,13.066 -113.29,23.878 -131.15,32.453 -18.33,8.543 -27.5,21.843 -27.5,39.883 0,17.117 11.28,31.191 33.86,42.234 22.56,11.035 51.46,16.562 86.71,16.562 108.12,0 180.28,-34.472 216.48,-103.418 h 56.41 l -6.35,167.637 h -58.52 c -6.59,-13.086 -15.52,-24.797 -26.8,-35.156 -64.41,23.43 -127.62,35.156 -189.67,35.156 -80.39,0 -144.55,-17.469 -192.5,-52.39 -47.95,-34.922 -71.92,-80.547 -71.92,-136.868 0,-37.851 11.74,-71.55 35.25,-101.054 23.5,-29.524 54.53,-51.368 93.08,-65.567 38.54,-14.187 98.24,-29.179 179.1,-44.953 52.18,-10.367 85.78,-19.383 100.83,-27.039 14.58,-8.113 21.86,-19.598 21.86,-34.473 0,-17.129 -13.4,-32.441 -40.19,-45.9567 -26.8,-13.5234 -60.64,-20.2851 -101.54,-20.2851 -97.78,0 -165,38.0778 -201.66,114.2308 h -69.11 L 3635.12,0 h 63.46" /></g></g></svg>