<svg xmlns="http://www.w3.org/2000/svg" width="671" height="122" viewBox="0 0 671 122">
  <defs>
    <style>
      .cls-1 {
        fill: #ec008c;
        fill-rule: evenodd;
      }
    </style>
  </defs>
  <path id="cosmo_logo" data-name="cosmo logo" class="cls-1" d="M1279.37,208.687l-22.94-71.051h-0.32v71.051h-37.59l-3.14-26.067h-17.31l-2.96,26.067h-17.97l13.93-99.228h-18.25v99.228h-21.45V109.459h-18.46V91.313h58.37V107.98l2.34-16.667h31l13.34,107.968V91.313h20.95l19.63,61.981h0.33V91.313H1296V208.687h-16.63Zm-72.07-99.228h-0.32l-6.77,56.034h13.35Zm-99.42-18.146h21.44V208.687h-21.44V91.313Zm-52.26,0h21.44v99.225h27.36v18.149h-48.8V91.313Zm-31.85,119.681c-21.43,0-31.292-19.247-31.292-61.084q0-5.52.229-10.474c-3.19,14.627-12.392,22.268-27.1,22.268h-8.573v46.983H935.593V161.98c-1.811,33.467-11.746,49.014-31.028,49.014-21.432,0-31.293-19.247-31.293-61.084,0-18.89,1.991-32.748,6.167-42.911a36.126,36.126,0,0,1,3.171-6.141c5.3-8.2,12.195-11.859,22.376-11.859,18.878,0,28.8,15.822,30.607,49.136V91.313h21.443c25.139,0,36.591,10.58,36.922,34.147A76.89,76.89,0,0,1,998.645,107a35.847,35.847,0,0,1,3.175-6.141c5.3-8.2,12.19-11.859,22.37-11.859,21,0,30.92,19.57,30.92,61.02C1055.11,191.761,1045.22,210.994,1023.77,210.994ZM912.486,137.636c0-13.757-.768-21.415-2.637-26.284-1.077-2.807-2.827-4.2-5.274-4.2a4.718,4.718,0,0,0-3.486,1.363c-3.147,3.4-4.4,11.726-4.4,29.121v24.722c0,13.764.768,21.4,2.637,26.283,1.073,2.8,2.831,4.206,5.257,4.206,5.834,0,7.907-7.988,7.907-30.489V137.636ZM968.7,112.157c-1.859-1.95-4.584-2.7-9.848-2.7H957.2v35.123h1.812c9.841,0,13.517-4.8,13.517-17.64C972.531,119.493,971.352,114.943,968.7,112.157Zm62.992,25.479c0-13.757-.77-21.415-2.63-26.284-1.08-2.807-2.83-4.2-5.28-4.2a4.7,4.7,0,0,0-3.48,1.363c-3.15,3.4-4.41,11.726-4.41,29.121v24.722c0,13.764.77,21.4,2.64,26.283,1.07,2.8,2.83,4.206,5.25,4.206,5.84,0,7.91-7.988,7.91-30.489V137.636ZM854.14,208.687V122.644h-0.329l-14.5,86.043H827.448l-14.333-86.043h-0.33v86.043H796.95v-13.03c-4.782,9.621-14.006,15.337-26.03,15.337-7.521,0-13.919-2.362-18.109-6.68a32.433,32.433,0,0,1-7.9-15.367,56.559,56.559,0,0,1-1.1-8.536q-0.123-1.9-.272-5.7h19.132c0.05,5.431.111,6.607,0.461,8.75,0.072,0.436.191,0.975,0.361,1.618a20.63,20.63,0,0,0,1.145,3.269,7.655,7.655,0,0,0,7.252,4.5c5.63,0,9.572-4.638,9.572-11.257a17.168,17.168,0,0,0-3.748-10.657c-2.78-3.628-4.792-5.551-12.046-11.5-11.292-9.264-15.7-14.164-19.512-21.718a30.563,30.563,0,0,1-2.03-5.217q0.7,8,.7,17.522c0,41.742-9.885,60.975-31.334,60.975-17.22,0-26.969-12.429-30.136-39.014-0.16,4.684-.362,7.363-0.726,10.249q-0.265,2.1-.629,3.932a50.622,50.622,0,0,1-3.86,11.58c-4.428,8.74-12.094,13.253-22.523,13.253-20.973,0-30.613-18.72-30.613-59.439C625,109.772,635.372,89,656.236,89c7.1,0,13.477,2.49,17.65,6.9,3.762,3.973,6.5,9.942,7.887,17.191a80.1,80.1,0,0,1,1.21,11.839c0.052,1.222.1,2.86,0.155,4.895,0.969-9.159,2.7-16.669,5.224-22.823a36.126,36.126,0,0,1,3.171-6.141c5.3-8.2,12.195-11.859,22.376-11.859,15.224,0,24.621,10.291,28.638,31.747C742.592,101.5,753.614,89,770.574,89c12.936,0,21.768,7.389,25.118,21.016a55.934,55.934,0,0,1,1.258,7.911V91.313h28.52l9.559,60.178h0.33l10.048-60.178h27.865V208.687H854.14ZM664.082,133.861c-0.176-8.792-.285-11.364-0.594-14.232-0.106-.961-0.228-1.838-0.368-2.624a32.846,32.846,0,0,0-1.834-6.214c-1.149-2.433-2.834-3.639-5.094-3.639-2.416,0-4.112,1.4-5.247,4.333a45.161,45.161,0,0,0-2.405,11.675Q647.571,134.7,647.432,150l-0.018,3.494c0.079,15.156.249,19.862,0.952,26.044q0.291,2.564.7,4.729a21.837,21.837,0,0,0,1.587,5.274,5.433,5.433,0,0,0,5.406,3.309c3.952,0,6.239-2.684,7.687-9.017a63.33,63.33,0,0,0,1.348-11.343c0.092-1.869.167-3.718,0.215-5.24l0.067-2.253,17.378,0.788q-0.556-7.314-.556-15.872c0-6.076.207-11.629,0.625-16.708Zm57.327,3.775c0-13.757-.768-21.415-2.637-26.284-1.078-2.807-2.827-4.2-5.274-4.2a4.718,4.718,0,0,0-3.486,1.363c-3.147,3.4-4.4,11.726-4.4,29.121v24.722c0,13.764.768,21.4,2.637,26.283q1.609,4.2,5.257,4.206c5.834,0,7.907-7.988,7.907-30.489V137.636ZM796.95,124.79H778.327a72.318,72.318,0,0,0-.244-7.233q-0.091-.867-0.224-1.611a22.555,22.555,0,0,0-1.417-4.6,7.068,7.068,0,0,0-6.627-4.194c-4.9,0-8.155,4.084-8.148,10.217a17.362,17.362,0,0,0,3.656,10.681c2.732,3.636,4.669,5.518,11.944,11.617,11.312,9.484,15.817,14.6,19.683,22.352V124.79Z" transform="translate(-625 -89)"/>
</svg>
