<svg xmlns="http://www.w3.org/2000/svg" preserveAspectRatio="xMidYMid" width="103" height="21" viewBox="0 0 103 21"><defs><style>.cls-2 { fill: #ec008c; }</style></defs><path d="M99.8 5.404v15.114h-3.89l-2.344-1.75V5.358L91.29 3.655v-3.66h8.602l2.207 1.887v3.524h-2.3zM99.21.677h-7.237v2.295h2.275v15.114h2.663V2.972h2.3V.677zM85.92 15.96l.808 2.353c.265.773.512 1.508.74 2.205h-4.165l-2.322-1.75-.272-.75-.82 2.5h-4.163l-2.367-1.75 3.14-9.205c-.485-1.56-.993-3.155-1.524-4.784-.53-1.63-1.04-3.224-1.525-4.785h4.346l2.23 1.886.114.48.705-2.365h4.346l2.186 1.886-3.027 9.5c.242.698.496 1.437.762 2.217.265.78.535 1.568.808 2.364zM84.258.678h-2.912L79.32 7.7 77.295.677h-2.913l2.845 8.91-2.913 8.5h2.844l2.14-6.478 2.184 6.476h2.845l-2.913-8.5 2.844-8.91zm-24.736 18.09V-.004h7.692L69.42 1.88v3.524H65.76V7.63h.796l2.208 1.888v3.522h-3.004v2.046h1.456l2.207 1.886v3.546h-7.554l-2.344-1.75zm7.01-3h-3.664V10.61h3.003V8.312H62.87v-5.34h3.663V.676h-6.325v17.41h6.326v-2.32zm-18.57 3l-.318-.59v2.34h-3.937l-2.344-1.75V-.004h4.3l2.208 1.864V-.006h4.03l2.207 1.886V20.52H50.17l-2.208-1.75zM51.217.678h-2.663v11.09L45.164.678h-3.118v17.41h2.708V7.97l3.572 10.114h2.89V.676zm-23.985 12.42c-.425.34-.903.603-1.434.784-.53.183-1.085.274-1.66.274h-.707v6.364h-3.936l-2.344-1.75V-.005h4.71c.73 0 1.397.156 2.004.466.606.312 1.175.687 1.706 1.126l1.684 1.34c.425.35.774.762 1.047 1.24.274.477.448 1.02.524 1.624v4.455c-.076.606-.254 1.148-.534 1.625-.28.477-.634.886-1.058 1.227zM25.934 4.04c-.06-.514-.212-.98-.455-1.397-.244-.417-.55-.773-.922-1.068-.372-.296-.79-.52-1.252-.67-.463-.152-.944-.228-1.445-.228h-4.027v17.41h2.708V11.72h1.32c.502 0 .983-.08 1.446-.238.463-.16.88-.383 1.252-.67.37-.288.678-.64.92-1.058.244-.416.396-.882.456-1.397V4.04zm-4.12 5.34h-1.273V2.973h1.275c.258 0 .478.05.66.148.182.1.33.227.444.386.113.16.193.34.238.546.046.204.068.413.068.625v3.045c0 .425-.102.807-.307 1.148-.206.34-.574.51-1.105.51zm-11.57 10.33c-.448.342-.952.603-1.513.785-.56.182-1.13.273-1.706.273-.592 0-1.176-.095-1.752-.284-.577-.19-1.085-.46-1.525-.807-.728-.515-1.335-.98-1.82-1.398-.486-.417-.87-.808-1.15-1.17-.28-.365-.482-.717-.603-1.058-.12-.34-.182-.7-.182-1.08V-.005h4.05l1.434 1.273V-.005h4.05l2.208 1.886v14.91c0 .622-.136 1.18-.41 1.67-.272.493-.633.91-1.08 1.25zM8.844.678H6.16v13.66c0 .44-.103.817-.308 1.135-.205.318-.573.493-1.104.523-.53-.03-.895-.205-1.092-.523-.197-.318-.296-.696-.296-1.136V.676H.675v14.296c0 .53.117 1.004.352 1.42.236.418.547.77.934 1.058.387.288.823.507 1.31.66.484.15.978.226 1.478.226s.998-.076 1.49-.227c.494-.153.934-.376 1.32-.672.387-.295.698-.648.934-1.057.235-.408.352-.877.352-1.408V.677z" id="path-1" class="cls-2" fill-rule="evenodd"/></svg>