<svg id="Layer_1" xmlns="http://www.w3.org/2000/svg" viewBox="0 0 2259.6 1174.2"><style>.st0{fill:#E40589;} .st1{fill:#EC018C;} .st2{fill:#EB018C;} .st3{fill:#ED018D;} .st4{fill:#B52078;} .st5{fill:#E00687;} .st6{fill:#EB018B;} .st7{fill:#DC0986;} .st8{fill:#EC018B;} .st9{fill:#E20588;} .st10{fill:#D70B84;} .st11{fill:#E7038A;} .st12{fill:#EA018B;} .st13{fill:#D40E83;} .st14{fill:#C0197C;} .st15{fill:#E9018B;} .st16{fill:#CF1182;} .st17{fill:#DB0986;} .st18{fill:#C4167D;} .st19{fill:#C9147F;} .st20{fill:#E10688;} .st21{fill:#C3177D;} .st22{fill:#B91D7A;} .st23{fill:#E40489;} .st24{fill:#C8147F;} .st25{fill:#E6038A;} .st26{fill:#D60D84;} .st27{fill:#D20E82;} .st28{fill:#D60C84;} .st29{fill:#D01082;} .st30{fill:#CA1480;} .st31{fill:#B81D79;} .st32{fill:#D70C84;} .st33{fill:#E50489;} .st34{fill:#CB1280;} .st35{fill:#BA1D7A;} .st36{fill:#DD0987;} .st37{fill:#D50D84;} .st38{fill:#D90A85;} .st39{fill:#DA0A85;} .st40{fill:#D30E83;} .st41{fill:#DE0887;} .st42{fill:#CE1181;} .st43{fill:#CF1081;} .st44{fill:#C1187C;} .st45{fill:#B71F79;} .st46{fill:#C6167E;} .st47{fill:#C4177E;} .st48{fill:#EB008B;} .st49{fill:#B32077;} .st50{fill:#DF0787;} .st51{fill:#BC1C7B;} .st52{fill:#C7157F;} .st53{fill:#BE1A7B;} .st54{fill:#E20689;}</style><path class="st0" d="M0 0h2259.6v1174.1H0z"/><path class="st1" d="M2146.6 0l113 195.7V0z"/><path class="st2" d="M2259.6 195.7L2146.6 0l-113 195.7z"/><path class="st3" d="M1920.6 0l113 195.7L2146.6 0z"/><path class="st4" d="M2033.6 195.7L1920.6 0l-113 195.7z"/><path class="st5" d="M1694.7 0l112.9 195.7L1920.6 0z"/><path class="st6" d="M1807.6 195.7L1694.7 0l-113 195.7z"/><path class="st7" d="M1468.7 0l113 195.7L1694.7 0z"/><path class="st8" d="M1581.7 195.7L1468.7 0l-113 195.7z"/><path class="st9" d="M1242.7 0l113 195.7L1468.7 0z"/><path class="st10" d="M1355.7 195.7L1242.7 0l-112.9 195.7z"/><path class="st11" d="M1016.8 0l113 195.7L1242.7 0z"/><path class="st12" d="M1129.8 195.7L1016.8 0l-113 195.7z"/><path class="st13" d="M790.8 0l113 195.7L1016.8 0z"/><path class="st14" d="M903.8 195.7L790.8 0 677.9 195.7z"/><path class="st15" d="M564.9 0l113 195.7L790.8 0z"/><path class="st16" d="M677.9 195.7L564.9 0l-113 195.7z"/><path class="st1" d="M338.9 0l113 195.7L564.9 0z"/><path class="st17" d="M451.9 195.7L338.9 0l-113 195.7z"/><path class="st1" d="M113 0l112.9 195.7L338.9 0z"/><path class="st18" d="M2259.6 391.4V195.7l-113 195.7z"/><path class="st13" d="M2033.6 195.7l113 195.7 113-195.7z"/><path class="st7" d="M2146.6 391.4l-113-195.7-113 195.7z"/><path class="st19" d="M1807.6 195.7l113 195.7 113-195.7z"/><path class="st9" d="M1920.6 391.4l-113-195.7-112.9 195.7z"/><path class="st20" d="M1581.7 195.7l113 195.7 112.9-195.7z"/><path class="st15" d="M1694.7 391.4l-113-195.7-113 195.7z"/><path class="st1" d="M1355.7 195.7l113 195.7 113-195.7z"/><path class="st13" d="M1468.7 391.4l-113-195.7-113 195.7z"/><path class="st6" d="M1129.8 195.7l112.9 195.7 113-195.7z"/><path class="st1" d="M1242.7 391.4l-112.9-195.7-113 195.7z"/><path class="st21" d="M903.8 195.7l113 195.7 113-195.7z"/><path class="st22" d="M1016.8 391.4l-113-195.7-113 195.7z"/><path class="st1" d="M677.9 195.7l112.9 195.7 113-195.7z"/><path class="st1" d="M790.8 391.4L677.9 195.7l-113 195.7z"/><path class="st1" d="M451.9 195.7l113 195.7 113-195.7z"/><path class="st23" d="M564.9 391.4l-113-195.7-113 195.7z"/><path class="st24" d="M225.9 195.7l113 195.7 113-195.7z"/><path class="st17" d="M338.9 391.4l-113-195.7-113 195.7z"/><path class="st25" d="M2146.6 391.4l113 195.7V391.4z"/><path class="st26" d="M2259.6 587.1l-113-195.7-113 195.7z"/><path class="st1" d="M1920.6 391.4l113 195.7 113-195.7zM2033.6 587.1l-113-195.7-113 195.7z"/><path class="st27" d="M1694.7 391.4l112.9 195.7 113-195.7z"/><path class="st1" d="M1807.6 587.1l-112.9-195.7-113 195.7z"/><path class="st28" d="M1468.7 391.4l113 195.7 113-195.7z"/><path class="st6" d="M1581.7 587.1l-113-195.7-113 195.7z"/><path class="st3" d="M1242.7 391.4l113 195.7 113-195.7z"/><path class="st29" d="M1355.7 587.1l-113-195.7-112.9 195.7z"/><path class="st1" d="M1016.8 391.4l113 195.7 112.9-195.7z"/><path class="st23" d="M1129.8 587.1l-113-195.7-113 195.7z"/><path class="st1" d="M790.8 391.4l113 195.7 113-195.7z"/><path class="st30" d="M903.8 587.1l-113-195.7-113 195.7z"/><path class="st1" d="M564.9 391.4l112.9 195.7 113-195.7zM677.8 587.1L564.9 391.4l-113 195.7z"/><path class="st31" d="M338.9 391.4l113 195.7 113-195.7z"/><path class="st32" d="M451.9 587.1l-113-195.7-113 195.7z"/><path class="st33" d="M112.9 391.4l113 195.7 113-195.7z"/><path class="st1" d="M2259.6 782.8V587.1l-113 195.7z"/><path class="st34" d="M2033.6 587.1l113 195.7 113-195.7z"/><path class="st8" d="M2146.6 782.8l-113-195.7-113 195.7z"/><path class="st35" d="M1807.6 587.1l113 195.7 113-195.7z"/><path class="st36" d="M1920.6 782.8l-113-195.7-112.9 195.7z"/><path class="st37" d="M1581.7 587.1l113 195.7 112.9-195.7z"/><path class="st38" d="M1694.7 782.8l-113-195.7-113 195.7z"/><path class="st39" d="M1355.7 587.1l113 195.7 113-195.7z"/><path class="st1" d="M903.8 587.1l113 195.7 113-195.7z"/><path class="st40" d="M1016.8 782.8l-113-195.7-113 195.7z"/><path class="st1" d="M677.8 587.1l113 195.7 113-195.7z"/><path class="st41" d="M790.8 782.8l-113-195.7-112.9 195.7z"/><path class="st33" d="M451.9 587.1l113 195.7 112.9-195.7z"/><path class="st28" d="M564.9 782.8l-113-195.7-113 195.7z"/><path class="st42" d="M225.9 587.1l113 195.7 113-195.7z"/><path class="st43" d="M338.9 782.8l-113-195.7L113 782.8z"/><path class="st44" d="M2146.6 782.8l113 195.6V782.8z"/><path class="st5" d="M2259.6 978.4l-113-195.6-113 195.6z"/><path class="st1" d="M1920.6 782.8l113 195.6 113-195.6z"/><path class="st12" d="M2033.6 978.4l-113-195.6-113 195.6z"/><path class="st38" d="M1694.7 782.8l112.9 195.6 113-195.6z"/><path class="st43" d="M1807.6 978.4l-112.9-195.6-113 195.6z"/><path class="st45" d="M1468.7 782.8l113 195.6 113-195.6z"/><path class="st1" d="M1129.8 978.4l112.9 195.7 113-195.7z"/><path class="st7" d="M1468.7 1174.1l-113-195.7-113 195.7z"/><path class="st1" d="M1355.7 978.4l113 195.7 113-195.7z"/><path class="st13" d="M1694.7 1174.1l-113-195.7-113 195.7z"/><path class="st2" d="M1129.8 978.4l-113-195.6-113 195.6z"/><path class="st1" d="M790.8 782.8l113 195.6 113-195.6z"/><path class="st20" d="M903.8 978.4l-113-195.6-113 195.6z"/><path class="st46" d="M564.9 782.8l112.9 195.6 113-195.6z"/><path class="st47" d="M677.8 978.4L564.9 782.8l-113 195.6z"/><path class="st48" d="M338.9 782.8l113 195.6 113-195.6z"/><path class="st13" d="M451.9 978.4l-113-195.6-113 195.6z"/><path class="st49" d="M113 782.8l112.9 195.6 113-195.6z"/><path class="st13" d="M2259.6 1174.2V978.4l-113 195.8z"/><path class="st1" d="M2033.6 978.4l113 195.8 113-195.8zM2146.6 1174.2l-113-195.8-113 195.7z"/><path class="st50" d="M1807.6 978.4l113 195.7 113-195.7z"/><path class="st21" d="M1920.6 1174.1l-113-195.7-112.9 195.7z"/><path class="st1" d="M1581.7 978.4l113 195.7 112.9-195.7z"/><path class="st2" d="M1016.8 782.7l113 195.7 112.9-195.7z"/><path class="st16" d="M1355.7 978.4l-113-195.7-112.9 195.7z"/><path class="st1" d="M1242.7 782.7l113 195.7 113-195.7zM1581.7 978.4l-113-195.7-113 195.7z"/><path class="st12" d="M1242.7 1174.2l-112.9-195.8-113 195.8z"/><path class="st26" d="M903.8 978.4l113 195.8 113-195.8z"/><path class="st7" d="M1016.8 1174.2l-113-195.8-113 195.7z"/><path class="st33" d="M677.8 978.4l113 195.7 113-195.7z"/><path class="st51" d="M790.8 1174.1l-113-195.7-112.9 195.8z"/><path class="st1" d="M451.9 978.4l113 195.8 112.9-195.8zM564.9 1174.2l-113-195.8-113 195.8z"/><path class="st52" d="M225.9 978.4l113 195.8 113-195.8z"/><path class="st10" d="M338.9 1174.2l-113-195.8L113 1174.1z"/><path class="st1" d="M1242.7 782.7l-112.9-195.6-113 195.6z"/><path class="st21" d="M1129.8 587.1l112.9 195.6 113-195.6z"/><path class="st53" d="M1468.7 782.7l-113-195.6-113 195.6zM225.9 195.7L113 0 0 195.7z"/><path class="st0" d="M0 0v195.7L113 0z"/><path class="st54" d="M0 195.7l113 195.7 112.9-195.7z"/><path class="st1" d="M113 391.4L0 195.7v195.7z"/><path class="st12" d="M225.9 587.1L113 391.4 0 587.1z"/><path class="st52" d="M0 391.4v195.7l113-195.7z"/><path class="st10" d="M0 587.1l113 195.7 112.9-195.7z"/><path class="st24" d="M113 782.8L0 587.1v195.7z"/><path class="st5" d="M225.9 978.4L113 782.8 0 978.4z"/><path class="st35" d="M0 782.8v195.6l113-195.6z"/><path class="st14" d="M0 978.4l113 195.8 112.9-195.8z"/><path class="st1" d="M113 1174.2L0 978.4v195.7z"/></svg>