<svg xmlns="http://www.w3.org/2000/svg" width="111.076" height="111.077"><path fill="#E32084" d="M59.59 33.07c-.43-.7-1.4-2.5-2.1-2.5-.57 0-2.1 1.53-2.38 1.94-.98 1.13-1.53 2.53-2.1 3.22-.27.42-.4 1.12-.13 1.4.97-.28 1.52-1.4 2.22-2.1.56-.83 1.12-1.95 2.1-2.36 1.53.97 2.1 3.06 3.48 4.18 1.82-.84-.42-2.93-1.12-3.77M45.63 39.07c-.7-2.37-2.1-4.6-2.23-6.97 2.1-.56 4.88 1.67 6.56-.14-.98-.84-2.5-.7-3.77-.98-1.4-.14-2.66-.42-3.92-.56-.42.28-.7.7-.7.98 0 2.5 1.96 6.14 2.8 8.37.4 0 .83-.14 1.25-.7M85.96 39.77c-2.37-1.25-4.33-2.65-6.98-3.5-.7 2.1-1.1 5.46-1.4 7.27-.14.42.28.98.7.84.98.7 1.4-4.75 1.68-6 1.8.7 3.76 2.23 5.86 2.65.28-.14.28-.98.14-1.26M64.33 36.42c-.42.42-.14 1.12.14 1.4 1.8 0 3.9-.56 5.44-.14 0 .83-.55 1.67-1.1 2.65-.15.42-1.26 2.65 0 2.65.55 0 1.25-1.95 1.53-2.5.7-1.55 1.67-2.94.84-4.48-2.1 0-4.9.28-6.84.42M23.17 45.63c.97.56 3.62.56 5.44.7.43 0 1.54.42 2.1.28 2.37-.55.14-3.9-.42-4.88-.83-1.1-1.67-2.1-2.1-3.07-.13-.28-.4-1.25-.83-1.4-1.67-.27-.56 1.82-.14 2.66 1 1.82 2.66 3.36 2.94 5.17-1.95.56-7.53-2.1-6.97.56M38.52 35.17c.7-1.4-.84-4.33-1.54-6.14-.28-.56-.7-1.68-1.25-1.96-1.68.56-3.07 2.8-4.47 4.2-.7.83-1.95 1.38-.84 2.36 2.24-.98 2.93-3.5 5.17-4.46.55 1.4 1.1 3.62 1.66 5.16.14.56.56.7 1.26.84M76.9 28.2c-.43-.57-1.13-1.27-1.7-1.82-.68-.56-2.36-2.24-2.64-.84-.28 1.12 1.12 1.53 1.68 2.1.83.7 1.4 1.25 1.67 2.08-1.94.14-4.45-.27-6.4 0-.3.28-.7.98-.3 1.4 2.53.28 5.46 0 8.1.42 1.54-.84.43-2.37-.4-3.35M57.63 43.68c-1.67.28-2.8 2.1-4.6 2.37-.28-.7-.56-1.53-.7-2.65-.14-.84-.28-2.5-1.12-2.93-.27 0-.7.7-.7.98.15.83.57 1.95 1 3.35.13.83.7 2.93 1.25 3.06.42.14.83-.4 1.25-.7.98-.55 5.3-1.95 3.63-3.48M44.8 45.9c-1.12-.4-3.35.57-5.87 1 .14-1.4.28-3.36.56-5.04.13-.4-.3-.55-.43-.7-.4-.13-.83.42-.97 1.12-.28.84-.42 1.82-.42 2.8-.14 1.25-.28 2.78 0 3.48 1.1 0 3.35-.7 4.6-.97 1.26-.3 2.8-.43 2.52-1.7M62.8 20.66c0-.84 0-2.1-.56-2.65-1.12.14-.98 1.96-.84 3.35 0 1.4.56 2.8.28 3.63-2.37-.56-4.33-2.37-7.12-2.93-.42.28-.83.98-.42 1.4 2.93.97 5.3 2.5 8.24 3.5 1.53-1.27.56-4.06.4-6.3M40.33 18c2.23.98 4.9 1.54 6.56 3.07-.57.7-1.82 1.26-2.94 1.82-.98.4-2.93.82-1.96 2.22.56.14 1.12-.28 1.54-.56 1.4-.7 2.5-1.25 3.77-2.1.7-.4 1.82-.97 1.68-1.8-.14-.84-1.95-1.4-2.65-1.82-2.1-.98-3.77-1.53-5.72-2.37-.4.14-.7.98-.27 1.53M22.9 33.35c.82.14 3.06.56 3.2-.14.27-.83-1.82-.96-2.52-1.1-1.1-.28-2.23-.42-2.78-.98.83-2.23 2.8-4.47 3.62-6.84-.14-.28-.83-.84-1.25-.56-1.4 2.65-3.2 5.03-4.2 7.68-.13 1.8 2.24 1.53 3.92 1.95M10.2 41.58c.4-2.23-1-4.46-.57-6.27 1.68.28 5.16 2.94 5.86.42-1.26-.4-2.38-.7-3.5-1.1-.97-.43-2.1-1.13-3.5-1.13-.26.13-.4.4-.68.7.14 2.92.97 5.3 1.25 7.94.56 0 .84-.42 1.12-.56M84.56 0H80.8c.83.7 1.53 1.26 2.5 1.54.56-.28.98-.84 1.27-1.54M65.6 2.24c1.1.28 2.22-.56 3.62-1.12C70.31.7 72.02.56 72.7 0h-3.76c-.7.28-1.4.56-2.24.56 0-.14 0-.42 0-.56h-1.1c0 .98-.15 1.82 0 2.24M43.12 0h-1.8c.96.84 2.36 2.66 3.47 2.52.97 0 1.4-1.4 1.67-2.52h-1.4c-.14.28-.28.56-.56.84-.4-.14-.96-.42-1.38-.84M7.68 14.37c-.14.28-.56 1.12 0 1.4 1.95-.28 5.44.14 6.7-.42 1.4-.7.42-2.23-.14-3.2-.56-.57-.84-1-1.4-1.68-.28-.42-2.1-3.07-2.65-3.07-.3 0-.84.56-.84.98 0 .55 1.67 2.37 1.95 2.65.84.97 1.82 1.8 1.82 2.8-1.4.54-3.9-.02-5.44.54M94.33 46.75c1.53-.98.14-3.2-.28-4.74-.14-.4 0-.83-.42-1.25-1.95.7-.14 3.07-.14 4.47-1.82.83-6 0-5.45 2.5.56.3.98-.13 1.67-.27 1.54-.42 3.63-.14 4.6-.7M15.35 27.2c1.12-.13.28-4.17.28-6-.14-.55-.28-1.24-.7-1.52-1.8.28-3.62 1.53-5.16 2.23-.97.43-2.93 1-1.67 2.24 2.1-.56 4.04-1.95 6-2.65.7 1.8 0 5 1.25 5.7M35.87 4.05c.4 0 .83-.42.83-.84 0-.4-1.1-.82-1.53-1.24C34.6 1.4 34.05.7 33.35 0H31.4c.42.42.98.98 1.54 1.68.55.56 1.95 2.5 2.93 2.37M25.82 12.14c-1.4-.14-3.77.28-5.3-.28.28-.83.56-1.95.97-2.93.4-.98 1.53-1.8 1.1-2.8-.7-.13-.97.85-1.24 1.4-.98 1.68-1.82 3.9-2.66 5.73.14.14.14.14.28.28 2.23-.14 6.56 1.4 6.84-1.4M48.28 4.75c-1.25 0-1.53 2.1-2.23 3.5-.83 1.66-1.8 3.2-1.8 4.45 2.36.28 4.87.56 7.52.56.28-.28.84-.84.56-1.4-1.4-.28-3.63-.27-5.44-.56-.3 0-.85.28-1.13-.27.28-1.12.84-2.1 1.4-3.2.42-1 1.25-1.97 1.1-3.08M18.28 44.23c-.55-1.4-.7-2.8-1.4-3.76-1.95.27-.7 2.23-.27 3.76.43 1.12.98 2.1.84 2.94-1.1-.3-2.8-.56-4.32-.98-1.1-.3-2.5-.57-2.1.96 1 .56 2.24.28 3.64.7 1.1.42 2.5 1.26 3.62 1.12 2.1-.28.42-3.5 0-4.75M62.94 12.28c.97-1.1 1.8-1.95 2.65-3.07.27-.54.82-1.24.7-1.94-1.27 0-1.55 1.4-2.1 2.23-.7.97-1.4 1.8-2.38 2.36-.84-.55-1.26-1.4-2.1-2.37-.4-.43-1.4-2.38-2.1-2.38-.13 0-1.24.7-.82 1.25.7.84 1.25 1.68 2.37 2.8.7.83 1.67 2.5 2.37 2.5.42 0 .84-.7 1.4-1.4M32.52 7.12c.56 1.25 3.62.98 4.46 1.95-.83 1.4-4.46 2.1-4.04 4.2 2.5-1 3.9-2.8 6.14-3.92.14-.42.55-.7.55-1.1-.97-1-2.8-1-4.46-1.4-.56-.15-1.54-1.13-2.23-1-.28.15-.7.85-.42 1.27M71.6 6.14c-.3.28-.43.7-.3 1.26 1.82.56 5.03-.7 6.3.56-.43.98-1.27 1.67-1.83 2.5-.7.85-1.95 1.54-1.4 2.8 1.12 0 1.4-1.25 2.1-1.95 1.12-1.4 2.8-2.78 3.07-4.6-.28-.56-.84-.4-1.4-.42-2.1-.28-4.32-.7-6.55-.14M27.77 18.42c-.7.84-2.37 2.37-1.8 3.35 2.08 1.12 4.3 2.1 6.55 2.93.4-.14.55-.56.7-1.1-1.68-1.27-4.05-1.7-5.73-2.95.7-1.25 1.53-2.23 2.5-3.06.84-.85 2.24-1.7 2.1-3.1-.98.02-1.26.85-1.82 1.27-.83.7-1.53 1.67-2.5 2.65M27.22 6c1.53-.14 1.67-1.95 2.1-3.5.27-.82.4-1.8.55-2.5h-1.4c-.42 1.96-.7 4.05-1.4 5.72 0 .14 0 .14.15.28M2.65 95.86c.98-.28.84-.84.7-1.4-.98.15-2.1.57-3.35 1v1.24c.84-.28 1.8-.56 2.65-.84M.84 47.58c.56-.97 1.67-1.67 1.54-2.8-.7-.27-1.12.57-1.54 1.13-.28.43-.56 1-.84 1.4v1.82c.28-.56.56-1.12.84-1.54"/><path fill="#E32084" d="M5.72 111.07c.84-.98 1.4-2.1 1.54-3.5-.7.15-1.12 1-1.54 1.55-.42.56-.84 1.25-1.25 1.95H5.7zM5.17 53.02c.4-.28.7-.55.7-1.25-1.54-.84-4.2-.56-5.87-.98v1.53c1.68.14 3.5.42 5.17.7M4.75 89.17c.7-.42.7-.84 0-1.12-1.54-.14-3.2.42-4.75.56v1.26c1.68-.14 3.2-.42 4.75-.7M.56 68.8c-.28 0-.42 0-.56.13v1.8c.42-.68.84-1.24.56-1.94M1.26 105.35c1.25-.84 0-1.8-.7-2.5-.14-.3-.42-.43-.56-.7v2.22c.42.42.7.84 1.26.98M111.07 23.73v-.56c0 .14 0 .42 0 .56"/><path fill="#E32084" d="M101.87 0c0 .15-.15.3-.15.42-.55.84-1.53 1.96-1.1 2.8 2.5.14 5 .27 7.25.7.27-.3.7-.84.55-1.26-1.53-.98-4.6-.28-6.28-1.12.28-.56.56-.98.84-1.53h-1.1zM109.12 64.6c.14 0 .14.15.28.15.27.14.97 0 1.67-.28v-1.25c-.97.13-1.8.4-1.95 1.4M109.53 88.47c-.13-.98.3-1.95.57-3.07.27-1.1.83-2.93-.15-3.2-.97.13-.97 1.8-1.4 3.2-.27 1.82-1.1 3.9-.27 4.75.84-.14 1.8-.14 2.8-.28V88.6c-.57 0-1.12 0-1.55-.13M106.05 105.9c-.98-.12-1.26 1-1.68 1.7-.84 1.1-1.67 2.22-2.5 3.48h1.1c.28-.7.7-1.26 1.26-1.96.7-.97 2.1-1.95 1.8-3.2M110.8 56.52c-1.68.42-.7 1.4 0 2.23.13.14.13.28.27.28v-1.95c-.14-.28-.28-.42-.28-.56M82.9 25.12c.82.98 1.1 2.1 1.66 2.93 2.37-1.25-1.1-4.18-1.8-5.58 1.24-1.12 6.13-.14 5.85-2.65-2.36.28-5 .98-7.52 1.4-1.4 1.25.83 2.8 1.8 3.9M100.75 14.52c1.12-1.8 2.23-3.77 2.65-5.86-1.68-.56-4.74-.42-6.84-.28-.28.28-.42.56-.42 1.1 1.12 1 4.47-.12 5.73.85-.28.98-.84 1.96-1.4 2.93-.56.84-1.67 1.96-.84 2.93.7-.3.84-1.12 1.12-1.68M88.47 5.73c-1.67.7-.42 2.5.14 4.04.43.98 1 2.1 1 2.93-1.55.14-5.74-1.95-5.17.7.7.28 1.25.14 1.95.28 1.53.28 4.88 1.95 5.16-.28 0-1.12-1.8-4.32-2.23-5.58-.27-.84-.27-1.54-.83-2.1M76.75 14.24c-.98.14-1.26 1.53-1.54 2.5-.4 1.13-.55 2.38-1.1 3.22-.84-.14-1.54-.98-2.37-1.68-1.26-.97-2.93-2.8-3.63-.7.7.84 1.8 1.4 3.07 2.38.98.7 2.23 1.95 3.2 1.8 1.4-.13 1.68-4.45 2.1-5.7.14-.57.84-1.26.28-1.82M103.96 25.82c.7-1.26 1.4-2.65 1.25-3.9-1.24.13-1.38 1.67-1.66 2.64-.56 1.12-.84 2.1-1.95 2.52-.7-.42-1.55-1.26-2.67-2.24-.4-.4-2.37-2.1-2.93-1.95-.56.13-.83.7-.55 1.24.97.84 1.95 1.4 2.93 2.24.55.55 2.23 2.37 3.06 2.37 1.12-.14 2.1-2.23 2.52-2.93M95.17 33.63c0-1.8-.98-2.93-2.1-4.04-.7-.7-1.53-1.4-2.37-1.83-.55 1.12.56 1.82 1.26 2.52.7.68 1.67 1.24 1.95 2.22-1.94 1.1-4.45 1.8-6.4 2.8-.3.55-.15 1.1.27 1.24 1.4 0 2.65-.83 3.77-1.25 1.25-.55 2.65-.7 3.63-1.67M56.66 3.5c.42-.43.97-.98 1.53-1.54.4-.28 1.4-1.26 1.4-1.68 0-.14 0-.14-.15-.28H56.1c.42.14.7.42 1.12.7-.28.7-.98 1.12-1.54 1.68-.56.55-.98 1.4-1.4 1.95-.55.56-1.53 1.26-.7 2.1 1.54-.43 1.96-1.82 3.08-2.94M4.05 30.98c.28-.42.98-.7.7-1.26-.42-.28-1.12.14-1.82.28-.55.28-1.25.42-1.95.56-.28.14-.7.14-.98.28v1.25c1.26-.43 2.8-.7 4.05-1.12M2.65 39.35c.42-.14.84-.42.98-.98-1.25-1.25-2.5-2.5-3.62-3.62v2.23c.84.98 1.82 1.95 2.65 2.37M3.5 11.16c.4-.28.83-.55.83-1.4C3.08 9.5 1.4 9.5 0 9.22v1.55c1.12.28 2.24.4 3.5.4"/><path fill="#E32084" d="M0 5.16c.15-.42.3-.97.3-1.4-.15 0-.3 0-.3 0v1.4zM17.87 2.38c.7-.42.42-1.12.27-1.82 0-.14 0-.42-.13-.56h-1.8c.27 1.68.7 3.07 1.67 2.38M2.24 4.05c2.37.56 5.44 1.1 7.95 1.25.27-.28.27-.83.13-1.1-1.8-.85-4.88-.57-6.56-1.55C4.33 1.82 5.03.85 5.73 0H4.47c-.7.98-2.8 2.8-2.23 4.05M90.15 0H88.9c0 .98-.15 1.82-.43 2.52.14.14 0 .42.28.28 1.1-.14 1.4-1.4 1.4-2.8M30.42 110.1c.28.28.7.7.97.97h1.95c-.98-1.25-1.96-2.5-3.2-3.2-.43.13-.7.4-1 .55-.27.84-.4 1.82-.7 2.65h1.4c.15-.4.3-.7.57-.97M37.67 107.86c-.14.14-.14.14-.14.28.98.98 2.24 1.68 3.63 2.94h1.96c-.42-.43-.98-.98-1.68-1.54-.97-.84-2.93-2.8-3.77-1.68M11.3 100.05c.14-1.12-.83-1.26-1.25-.14-.28.56-.28 1.26-.28 1.96-.14.14-.42 2.23-.56 2.23-1.1-.28-1.94-.98-3.06-1.82-.7-.56-1.4-1.4-2.1-1.53-.55-.15-1.4.13-1.1.83.27.56 1.52 1.12 1.94 1.54 1.4 1.1 2.93 2.1 4.47 2.8.98.4 1.53-1.96 1.8-3.92 0-.56.15-1.25.15-1.95M16.47 104.93c-.98.28-.84 1.53-.7 2.1 0 .55.14 2.37.42 4.04H18c-.28-1.25-.7-2.65-.7-3.9 2.37.4 4.05 1.95 6.7 2.5.42-.27.7-.4.7-1.1-2.37-1.26-3.5-1.68-5.3-2.66-.56-.27-2.24-1.25-2.93-.97M27.5 67.12c1.1 1.1 2.08 2.5 3.2 3.63.42.55.98 1.53 1.54 1.67.55.14 1.25-.14 1.25-.7 0-.55-1.13-1.25-1.4-1.67-.98-.98-1.82-1.68-2.24-2.93.98-.42 2.1-.28 3.07-.42.56-.14 2.24-.28 2.38-.98 0-.14 0-.14 0-.28-.4-.7-3.06-.13-3.62 0-1.54.14-4.47 0-4.2 1.68M65.72 108.56c0 .7-.14 1.68-.14 2.5h1.12c-.14-2.08.56-4.6.42-5.85-1.12.15-1.26 1.97-1.4 3.36M45.07 111.07h1.4c0-.28.14-.55.13-.83.42-1.54.98-2.93.7-4.2-1.95.57-1.67 3.22-2.23 5.03M78.56 71.03c-.14-.56-1.4-.84-1.8-1.12-1.4-.55-2.94-.97-4.06-1.94.84-.98 1.95-1.26 2.93-2.1.56-.4 2.1-1.25 2.23-2.23 0-.28-.13-.42-.27-.56-.57-.4-3.22 1.82-3.64 2.1-.84.83-3.63 2.23-3.2 3.62.13.27 1.8.97 2.22 1.1.7.43 1.54.85 2.37 1.13.56.28 1.68.98 2.23.98.56.15 1.26-.4.98-.97M44.23 61.54c-1.53.28-.7 3.35-.55 5.02.13 1.12 0 2.65.7 3.07 1.95-.42-.15-4.6.7-6.14 1.4.13 3.06 1.67 4.32 2.08 1.1.42 1.95.28 1.95-.97-1.26-.4-2.1-.97-3.35-1.53-.83-.55-2.5-1.67-3.77-1.53M68.1 61.68c-1.26-.14-1.4 1.26-1.82 2.23-.42 1-.7 2.1-1.4 2.66-.97-.56-1.53-.83-2.5-1.53-.42-.42-1.82-1.96-2.38-1.96-.28 0-1.25.7-.84 1.26.7.84 1.68 1.4 2.8 2.23.83.56 2.23 1.82 2.65 1.96 1.12 0 1.96-2.1 2.38-3.08.56-1.25 1.26-2.64 1.12-3.76M70.75 49.82c-.28.42 0 1.12.42 1.26 1.95-.15 4.18-.98 6-.56-.42 1.1-.84 1.95-1.54 3.07-.14.27-2.1 3.2-.28 3.06.56 0 .56-.98.98-1.54.28-.56.84-1.53 1.4-2.5.83-1.55 1.95-2.8.97-4.06-2.37.42-5.44.7-7.95 1.26M53.58 108.42c-.97-.56-3.07-1.53-2.65.14 1.4 1.12 3.5 1.68 5.16 2.52h3.34c-.4-.28-1.1-.57-1.53-.84-1.67-.84-2.78-1.12-4.32-1.82M57.35 68.66c-.83-.14-.84.83-1.12 1.53-.83 2.08-2.65 4.46-2.23 6.83.98.42 2.1-.14 3.35-.28 1.68-.14 3.77 0 4.9-.84-.02-.27-.02-.55-.3-.83-1.8-.14-3.48.15-5.02.28-.55.14-.83.14-1.53 0 .7-2.23 3.5-4.74 1.95-6.7M6.56 76.33c.56.42 1.67.84 3.07 1.4 1.12.55 2.1 1.25 2.8 1.25 1.8-.14.7-2.65.4-4.2-.13-1.24-.13-2.5-.55-3.48-2.37.42 0 4.33-.7 5.72-1.53-.4-2.65-1.25-4.18-1.67-.42.14-.84.42-.84.98M85.95 105.36c-.7.13-.98.83-1.25 1.4-.28.83-.7 3.9-1.4 4.04-.84.27-2.5-1.68-3.07-2.23-.42-.43-2.23-2.52-3.07-2.38-.4 0-.83.83-.55 1.25 1.12 1.12 2.24 1.95 3.2 2.8.43.27.7.55 1 .83h3.76c.14-.56.42-1.26.56-1.82.4-1.25 1.1-2.65.83-3.9M110.8 47.73c-.7 1.25-2.38 3.35-1.96 4.32.84 0 1.54.14 2.23.28V50.8c-.28-.14-.56-.14-.7-.28.14-.56.42-.98.7-1.4v-1.8c-.14.13-.14.27-.28.4M110.37 70.2c-.97 1.67-1.8 3.9-2.5 5.7 0 .15.13.15.13.3.84 0 1.96.13 3.07.27V74.8c-.56 0-1.1 0-1.53-.14.27-.98.55-2.1.97-3.07.15-.3.43-.57.57-.85v-1.8c-.28.4-.42.83-.7 1.24M107.58 32.66c0 .98.98 1.67 1.82 2.37.42.56 1.12 1.26 1.67 1.95v-2.23c-.55-.7-1.1-1.4-1.67-2.1.42-.27 1.1-.4 1.67-.55v-1.25c-1.53.4-3.06.7-3.48 1.8M110.23 95.73c-1.67.55-4.88.83-4.18 2.8.97 1.8 2.65 3.06 3.9 4.6.42.4.7.97 1.12 1.25v-2.23c-1.26-1.26-2.93-2.65-3.35-4.2.98-.4 2.1-.97 3.35-1.24v-1.25c-.28 0-.56.14-.84.28M110.1 5.17c-.7 1.53-1.96 3.35-2.23 4.74 0 .15.14.3.14.43 1.12 0 2.1.28 3.07.42V9.22c-.7-.14-1.25-.28-1.67-.56.28-1.26 1.25-2.37 1.67-3.5v-1.4c-.7 0-.7.85-.97 1.4M108 16.9c-.27.27-.55.97-.14 1.4.84.26 2.1.13 3.22.26v-1.4c-1.12-.13-2.24-.27-3.08-.27M.42 24.28c1.68-1.67 2.8-3.9 3.63-6.42-.28-.56-.98-.42-1.67-.42-.7 0-1.54-.14-2.38-.28v1.4s.14.14.28.14c.42 0 1.96.14 2.1.7.13.7-.98 1.8-1.54 2.37-.28.42-.7.84-.84 1.4v.55c0 .14.14.42.42.56M97.26 109.82c-1.82-.98-3.64-2.23-5.3-3.5-.42-.4-1.4-1.24-1.96-1.24-1.12.14-.98 2.37-.98 3.62-.14.84-.14 1.68-.14 2.38h1.26c.14-1.26 0-2.8.42-3.77.84.43 1.67 1.27 2.8 1.96 1.1.84 3.62 2.8 3.9.56M101.3 50.38c0-.28-.13-1.12-.55-1.26-.84.7-1.26 2.1-1.82 3.5-.7 1.67-2.1 3.76-.97 5 2.8-.4 6.14.3 8.37-.54.28-.42.14-1.26-.28-1.4-1.8.28-5.16.84-6.98 0 .28-1.67 2.1-3.63 2.24-5.3M1.12 64.33c1.1-.14 2.37-.28 3.07-.42 1.52-.7.7-1.8-.15-2.92C2.8 59.44.98 58.48 0 57.08V59c1.12 1.26 2.8 2.38 3.07 3.5-.83.55-2.1.4-3.07.7v1.25c.28 0 .7-.14 1.12-.14M106.33 38.52c-.7-1.12-1.26-2.23-2.1-2.65-1.8 1.4 1.96 3.62 1.82 5.16-1.82.84-6.7-.84-6.28 1.8 2.1.43 4.9-.26 7.4-.13 1.67-1.1 0-2.93-.84-4.18M3.77 74.8c-.98-.15-2.5.13-3.77 0v1.67c1.82.14 3.63 0 3.77-1.68M73.25 109.82c-1.67 0-2.93.7-4.32 1.25h3.77c.42-.27.56-.7.55-1.25M59.58 81.2c-.14.3-.55 1-.14 1.27.84.28 2.24.28 3.5.42 1.25.13 2.5.27 3.48.4.56 0 1.26.3 1.54.15.97-.28 1.1-2.38 1.4-3.77.13-.7.7-3.63-.3-3.9-.96-.15-.96 2.36-1.1 3.2-.14 1.12-.14 2.23-.56 2.93-2.5.15-5.3-.7-7.82-.7M91.68 69.08c-.14-.56-1.12-1.12-1.54-1.4-1.25-1.12-2.1-1.8-3.34-2.65-.57-.42-1.12-.84-1.82-.98-.42.14-.42.7-.56.98.7.84 1.82 1.4 2.65 2.1.98.55 2.1 1.25 2.5 2.36-.68.97-4.3 1.4-5 2.5-.3.3-.3.98.13 1.12 1.26-.42 3.07-1.4 4.46-1.95.98-.42 2.5-.84 2.52-2.1M102.7 78.15c-1.68-1.12-5.45-.28-7.4-.98.14-2.23 1.96-4.05 2.1-6.14-1.12 0-1.54 1.8-2.1 3.07-.56 1.53-1.53 3.2-1.25 4.33 2.1.83 5.72.55 8.23.7.14-.3.42-.57.42-.98M89.3 82.2c-.14 0-.55.7-.55.97.13.42.83.98 1.4 1.4 1.66 1.1 3.76 2.1 4.18 3.76-.84.42-2.1.28-3.35.56-1.68.4-4.2.55-3.35 2.08 1.95-.13 4.2-.83 6-1.1.7 0 1.53 0 2.1-.3 1.4-.83-.15-2.5-.7-3.34-.7-.7-1.54-1.4-2.8-2.1-.4-.27-2.23-2.1-2.93-1.95M79.26 79.12c1.25-.7 2.93-1.12 4.6-1.53.84-.3 2.23-.57 1.54-1.83-1.54.28-3.9 1.26-5.72 1.67-1.4.43-2.8 0-2.65 1.54 1.1 1.53 3.06 3.5 4.6 4.9 1.12.96 2.1 2.22 2.65.4-1.53-1.8-3.77-3.07-5.02-5.16M104.37 91.96c-.7-.7-1.53-1.4-2.23-2.1-.84-.83-1.95-1.25-2.23-2.23 2.1-1.25 6.15-.83 6.57-3.2-.84-.15-1.8.4-2.93.83-.98.28-2.23.56-3.07.7-1.54.28-3.35.28-2.65 1.95.83.7 1.53 1.7 2.8 2.66.96.98 3.2 3.9 3.75 1.4M98.5 65.45c1.97-.98 5.6-.14 7.27-1.26 0-.7 0-1.26-.42-1.4-2.37.84-6.42.14-8.5 1.25.27 1.96 2.22 3.9 3.06 5.45.43.55.43 1.25 1.12 1.53.42-2.37-1.8-3.77-2.5-5.58M51.2 57.5c-.13-1.4-.83-2.52-1.1-3.78-.14-.56 0-1.4-.56-1.8-2.1.4.28 3.48-.28 4.73-.7-.14-1.68-.55-2.65-.83-.97-.28-2.23-.7-2.92-.56-.42 0-1.4.83-.56 1.4.98.27 2.23.4 3.5.83 1.94.4 3.76 1.8 4.6 0M90 57.63c.98-.97 3.35-2.8 1.54-3.76-.84.7-1.4 1.53-2.1 2.23-.7.7-.97 1.25-1.95 2.1-.57-.85-1-2.1-1.4-2.94-.42-.98-.84-2.5-1.96-2.37-.28.13-.42.55-.28.7.42.96.84 1.94 1.54 3.34.28.7 1.1 2.93 1.8 3.06.7 0 2.24-1.8 2.8-2.37M9.35 55.96c-.7 1.25-1.4 2.37-2.1 3.34 0 .14 0 .28 0 .28 1 .84 2.8.98 3.92 1.12.55.14 2.8.84 3.2.14.42-.7-.83-.98-1.25-1.12-1.26-.28-2.65-.4-3.77-.97.98-1.12 1.26-2.1 1.8-2.93.3-.42 1.13-1.68.57-2.24-.14 0-.14-.14-.14-.14-.97-.55-1.95 1.96-2.23 2.52M19.68 54.7c-.28 2.1-.56 2.65-.84 4.05 0 .13.14.14.14.27.14 0 .14 0 .28 0 1.95.98 1.1-4.04 2.23-6.14.83.42 1.1 1.26 1.94 2.1.42.42 1.68 1.8 2.38 1.8.42 0 .83-.55.83-.97-.13-.26-.97-.82-1.4-1.24-.55-.56-.83-.7-1.25-1.26-.4-.56-1.67-2.65-2.5-2.65-1.27.14-1.54 2.8-1.82 4.05M62.5 92.1c.57-.56.15-.84-.55-.98-.27 0-4.6.83-4.6.56.7-2.1 2.5-5.44 1.4-5.58-1.26 0-1.4 1.8-1.96 3.07-.57 1.4-1.4 3.06-1.12 4.04.13.3 4.04-.54 4.46-.54.7-.14 1.95 0 2.37-.56M33.2 51.63c-.13 0-.27 0-.27-.14-.7-.15-.83 1.25-.83 1.8-.28 1.26-.56 2.66-.84 3.9 0 .85-.56 2.1.42 2.66 1.1.56 2.8-.42 3.9-.56.84-.14 4.2-.27 3.2-1.67-.27-.42-1.52 0-2.08 0-1.68.42-2.93.42-4.05.84.42-1.4.14-1.82.42-3.07.28-.7.84-3.07.14-3.77M64.6 54.7c.57-1.53 2.38-3.77.85-4.88-2.24.56-4.47 1.1-6.7 1.53-.56.14-1.12 0-1.54.42 0 .56.3.84.7.98 2.24 0 4.33-1.12 6.15-.84 0 .7-.42 1.7-.98 2.52-.42.84-1.1 1.82-1.12 2.5 0 .57.42 1 .84 1 .7 0 1.53-2.52 1.8-3.22M69.2 92.52c1.4-2.1 2.24-4.75 3.92-6.42.83.97 1.25 2.1 1.8 3.2.7 1.26 1 2.52 2.38 2.52 0-1.4-1.1-2.65-1.95-4.33-.56-1.26-1.4-4.05-2.93-3.64-.98 1.54-2.23 3.9-3.35 5.87-.56 1.1-1.67 2.65.14 2.78M30.28 95.03c.56-.56.98-1.26 1.53-1.82.7-1.24 1.55-2.5 1.83-3.75-.98-.84-3.9-.98-5.72-1.26-.83-.15-2.08-.43-2.08.82 1.67.84 4.46.7 6.27 1.26-.7 1.26-1.82 2.5-2.66 3.63-.55.85-.28 1.96.84 1.13M18.98 67.26c-.98.55-2.65 1.53-2.93 2.65.84.43 1.95.85 3.2 1.55.57.4 3.22 1.25 3.36.27.15-.97-3.48-1.95-4.18-2.5.56-.56 1.26-.84 2.1-1.26.55-.42 1.4-.7 1.8-1.26.3-.42.3-.84 0-.98-.13-.14-.27-.14-.7-.13-.83.26-1.94 1.1-2.64 1.66M18.28 89.3c-2.23-1.67-5.3-2.65-7.95-3.9-.56.28-.7.83-.42 1.1 1.13 1.4 5.17 1.83 6.15 3.36-.7.7-2.1 1.12-3.2 1.54-1.13.27-2.94.56-2.38 2.1 1.67-.15 3.2-1.12 4.88-1.82 1.4-.56 3.07-.7 2.93-2.38M51.9 84.7c.15-1.4-.55-2.65-1.1-4.18-.3-.7-.98-3.35-1.68-3.5-.42 0-.84.43-.98.84 0 .84.7 2.1 1.12 3.07.42.98.97 1.82.7 2.65-1.82 0-4.75-3.2-5.45-.83 0 .14.15.28.3.28 1.53.55 5.57 3.07 7.1 1.67M21.77 82.75c.84.83 2.8.56 3.9.83.84.15 4.05 1.12 3.63-.4-.14-.43-1.4-.57-2.1-.7-1.52-.3-2.64-.3-3.9-.7.7-1.4.84-1.82 1.4-2.66.42-.7 1.95-2.65 1.4-3.5-.14-.13-.14-.13-.14-.27-.56-.28-1.26.98-1.4 1.4-.7 1.12-1.53 2.23-2.1 3.5-.4.68-1.4 1.66-.7 2.5M37.4 83.72c-.56-2.37-1.96-4.6-2.1-6.97 1.96-.56 4.9 1.8 6.42-.14-.83-.83-2.37-.7-3.63-.83-1.4-.28-2.8-.56-4.05-.7-.42.28-.7.7-.7.98 0 2.5 2.1 6.14 2.93 8.37.42 0 .84-.14 1.12-.7M35.44 96.14c-.7.84-1.4 2.1-1.95 3.63-.3 1.26-.85 2.5-1.13 3.77-.14 1.1.56 1.26 1.54 1.1 1.82-.26 3.5-1.1 5.3-1.66.57-.14 2.1-.42 2.24-1.26 0-1.1-1.8-.42-2.65-.27-1.68.7-3.08 1.25-4.47 1.4 0-.85.42-1.82.7-2.8.4-1.53 1.67-3.07.4-3.9M87.77 95.17c-.28-.84-1.68-.56-2.65-.56-1.82 0-4.6.3-6.56 1 0 1.1.98 2.36 1.67 3.9.56 1.4 1.54 4.6 3.07 3.62-.4-2.5-1.8-4.46-2.8-6.56 2.66-.14 7.55.14 7.27-1.4M101.86 97.68c0-.56.28-1.1-.28-1.4-1.95.7.14 4.6-.7 6.56-1.1-.28-2.1-.97-3.48-1.95-1.12-.7-4.33-3.08-3.77-.43 2.8 1.26 4.88 3.2 7.8 4.47 1.55-1.4.57-5.03.43-7.26M67.54 99.07c-.42.56-1.54 1.4-1.54 1.96 0 1.4 5.3 1.67 6 2.5.14 0 .14-.13.14-.13.14 0 .14 0 .14-.14 0-1.53-2.93-1.54-4.05-2.37.56-.85 1.26-1.7 2.38-2.8.7-.84 3.9-3.07 1.54-3.9-1.4 1.53-3.2 3.34-4.6 4.87M48.28 93.07c.84-.28 2.23-.4 2.1-1.4-1.12-.4-2.1-.13-4.2.42-1.4.42-4.18.42-4.18 1.8 1.12 1.13 1.8 2.38 3.07 3.5.7.83 1.26 1.95 2.1 1.95.4 0 .83-.42.83-.84 0-.54-1.54-1.66-1.95-2.08-.84-.7-1.82-1.67-1.96-2.5 1.53-.43 2.78-.57 4.18-.85M52.74 100.75v.14c.84.83 1.96 1.24 3.35 2.08 1.1.7 2.23 1.95 3.2 1.82 1.26-.14 1.4-1.82 1.54-3.35.14-1.12.42-2.65 0-3.2-1.82 0-.98 3.48-1.82 4.73-1.8 0-4.6-3.9-6.28-2.23M24.14 97.82c.28 1.25 1.12 2.8.98 4.04-1.4-.13-3.2-1.25-4.6-.97-.3.27-.7.82-.3 1.1.7.42 1.55.56 2.4.7 1.8.42 3.75 1.4 4.03-.56.14-1.4-.4-2.8-.83-4.32-.42-.84-.7-3.77-1.4-3.77-1.26 0-.56 2.93-.28 3.77"/></svg>