<?xml version="1.0" encoding="utf-8"?>
<!-- Generator: Adobe Illustrator 16.0.3, SVG Export Plug-In . SVG Version: 6.00 Build 0)  -->
<!DOCTYPE svg PUBLIC "-//W3C//DTD SVG 1.1//EN" "http://www.w3.org/Graphics/SVG/1.1/DTD/svg11.dtd">
<svg version="1.1" id="Layer_1" xmlns="http://www.w3.org/2000/svg" xmlns:xlink="http://www.w3.org/1999/xlink" x="0px" y="0px"
	 width="159px" height="159px" viewBox="0 0 159 159" enable-background="new 0 0 159 159" xml:space="preserve">
<rect fill="#221C2C" width="159" height="159"/>
<g>
	<path fill="#2F2939" d="M68.318,48.937c0,0.399,0,0.799,0,0.999c0.2,5.194,8.39,5.394,8.39,0.399
		C76.708,45.341,69.117,43.343,68.318,48.937z"/>
	<path fill="#2F2939" d="M71.115,33.355c0.2,7.591,12.186,5.993,9.389-1.199c-0.799-2.397-4.794-4.195-7.791-2.996
		C71.914,30.758,70.916,31.557,71.115,33.355z"/>
	<path fill="#2F2939" d="M65.921,59.724c-2.197,1.598-3.596,4.994-2.797,8.589c3.596,3.996,10.987,0.999,9.189-5.993
		C71.315,60.522,68.318,59.324,65.921,59.724z"/>
	<path fill="#2F2939" d="M76.109,12.78c-0.799,1.998-1.998,3.795-1.598,5.993c0.999,5.993,11.786,5.793,9.189-2.797
		C83.5,12.78,80.504,10.582,76.109,12.78z"/>
	<path fill="#2F2939" d="M54.135,37.95c1.199,4.794,10.587,2.996,8.79-2.198c-0.799-2.597-4.195-3.396-6.392-2.397
		C54.734,33.954,53.536,35.552,54.135,37.95z"/>
	<path fill="#2F2939" d="M78.906,71.709c-1.798,0.4-3.196,1.998-2.997,4.794c0.6,5.194,9.389,4.994,8.19-1.998
		C82.701,72.508,80.703,71.509,78.906,71.709z"/>
	<path fill="#2F2939" d="M91.091,20.371c-0.799,1.398-1.997,2.397-1.598,4.395c0.6,5.793,10.786,5.593,10.188-0.599
		C99.48,21.169,95.086,18.972,91.091,20.371z"/>
	<path fill="#2F2939" d="M61.726,19.571c4.595-2.796,0.6-10.787-5.593-9.588C51.738,14.577,56.932,22.368,61.726,19.571z"/>
	<path fill="#2F2939" d="M93.289,76.304c-0.4,0-0.801,0.2-0.999,0.399c-2.397,1.199-2.797,5.193-1.998,7.591
		c0.999,3.196,5.595,3.995,7.392,1.199C99.682,82.496,98.282,75.504,93.289,76.304z"/>
	<path fill="#2F2939" d="M98.882,66.116c0.601,3.996,5.793,4.994,7.99,1.598c2.797-4.395,0-9.189-5.793-8.79
		C99.082,60.922,98.682,63.719,98.882,66.116z"/>
	<path fill="#2F2939" d="M114.663,31.357c0.799-5.793-2.797-7.591-7.392-7.991C100.88,28.161,111.066,39.748,114.663,31.357z"/>
	<path fill="#2F2939" d="M87.296,43.743c0.399,5.593,8.789,6.192,9.988,0.999c0.399-1.798-0.2-3.795-1.397-5.593
		c-0.601-1.598-2.798-2.597-6.193-1.198C88.295,39.148,87.096,41.545,87.296,43.743z"/>
	<path fill="#2F2939" d="M85.298,56.328c-2.995,0.599-4.993,7.99-1.997,10.787c0.998,0.799,3.396,1.798,5.395,1.198
		c2.597-0.599,4.193-3.795,3.795-6.991C92.09,58.525,87.895,55.729,85.298,56.328z"/>
	<path fill="#2F2939" d="M73.712,153.411c2.597,0.601,5.394-1.599,4.994-4.993c-0.2-3.195-3.396-4.195-6.592-4.596
		C66.92,146.021,69.517,152.413,73.712,153.411z"/>
	<path fill="#2F2939" d="M74.711,112.061c-4.595,1.998-2.198,11.787,3.596,9.789C83.898,119.852,80.104,109.863,74.711,112.061z"/>
	<path fill="#2F2939" d="M50.14,52.532c1.199,5.593,12.385,4.794,10.587-2.397c-0.799-2.796-4.595-3.396-8.19-3.396
		C50.739,48.337,49.741,50.334,50.14,52.532z"/>
	<path fill="#2F2939" d="M88.494,132.438c2.996,0.998,5.793-1.599,5.793-4.795c0-3.596-2.996-4.795-6.592-5.394
		C84.299,124.445,85.1,131.438,88.494,132.438z"/>
	<path fill="#2F2939" d="M72.313,135.033c6.393-1.598,0.2-7.99-2.996-7.592C64.124,128.042,67.52,136.031,72.313,135.033z"/>
	<path fill="#2F2939" d="M86.896,96.879c-3.196-5.793-11.188-4.595-9.589,3.796C80.305,107.268,87.096,103.671,86.896,96.879z"/>
	<path fill="#2F2939" d="M55.334,129.641c1.598-0.6,2.996-2.996,2.597-5.395c-0.399-2.396-4.195-4.193-6.392-3.596
		C46.744,121.85,50.54,131.038,55.334,129.641z"/>
	<path fill="#2F2939" d="M50.34,79.1c3.196,4.595,10.987,1.199,9.988-5.393c-1.199-2.597-4.994-4.595-8.989-2.997
		C49.541,72.708,48.742,76.903,50.34,79.1z"/>
	<path fill="#2F2939" d="M72.913,88.488c0.2-1.997,0.399-3.395-0.2-4.793c-1.797-1-3.196-2.397-6.392-2.198
		C62.126,86.691,69.317,93.684,72.913,88.488z"/>
	<path fill="#2F2939" d="M61.726,112.061c6.592-1.397,5.594-12.584-2.597-10.985C53.536,102.072,54.734,113.659,61.726,112.061z"/>
	<path fill="#2F2939" d="M59.129,144.422c0.2-3.596-2.597-5.193-6.792-5.193c-1.598,1.199-2.796,3.196-2.397,5.395
		C50.739,150.016,58.73,150.216,59.129,144.422z"/>
	<path fill="#2F2939" d="M93.089,146.818c6.394-1.598,0.399-7.989-2.797-7.59C84.898,139.828,88.494,148.018,93.089,146.818z"/>
	<path fill="#2F2939" d="M42.949,43.743c0.2-4.195-3.596-5.394-7.191-6.193c-1.798,1.398-2.797,3.396-2.597,5.394
		C33.56,48.137,42.35,49.735,42.949,43.743z"/>
	<path fill="#2F2939" d="M45.346,58.525c-0.999-2.597-3.396-3.596-6.792-3.995C29.964,59.724,44.747,68.913,45.346,58.525z"/>
	<path fill="#2F2939" d="M25.17,97.678c0.799,6.393,12.186,6.393,10.787-2.597C32.96,89.688,24.371,90.887,25.17,97.678z"/>
	<path fill="#2F2939" d="M31.762,7.187c-0.2,0.399-0.799,2.996-0.6,4.195c0.4,1.398,2.397,2.597,4.395,2.597
		c4.195,0,6.192-3.795,4.794-6.992C38.554,2.392,32.361,5.788,31.762,7.187z"/>
	<path fill="#2F2939" d="M25.569,25.165c-1.598,0.799-2.796,2.397-2.197,4.794c1.199,4.595,10.388,2.997,8.79-2.197
		C31.163,25.165,27.967,24.366,25.569,25.165z"/>
	<path fill="#2F2939" d="M43.148,78.701c-0.599-2.397-6.592-5.593-9.588-4.195c-2.397,1.199-2.198,6.792,0,8.391
		C38.554,85.293,43.947,83.495,43.148,78.701z"/>
	<path fill="#2F2939" d="M49.141,24.366c-0.799-2.997-3.795-3.596-5.993-2.597c-1.998,0.999-3.196,2.997-2.197,5.793
		C42.949,32.956,50.54,29.16,49.141,24.366z"/>
	<path fill="#2F2939" d="M4.994,61.721c2.796-0.6,4.994-2.997,4.395-6.393c-0.2-1.598-0.399-2.597-1.998-3.795
		c-0.999-0.799-3.196-1.398-4.195-1.598c-1.398-0.399-2.397-0.2-3.196,0.399v10.188C1.199,61.521,2.997,62.121,4.994,61.721z"/>
	<path fill="#2F2939" d="M10.188,102.072c3.196,0.8,6.592-1.598,6.592-4.993s-5.593-6.192-8.789-4.795
		c-0.6,0.2-0.999,0.6-1.398,1.198C4.994,96.08,7.191,101.475,10.188,102.072z"/>
	<path fill="#2F2939" d="M1.798,29.759c-0.599,0-1.199,0-1.798,0v9.788c0.799,0.2,1.798,0.4,2.797,0.2
		C8.79,38.549,5.993,30.358,1.798,29.759z"/>
	<path fill="#2F2939" d="M7.791,77.702C8.19,72.908,3.396,70.511,0,71.31v8.989C3.396,81.896,7.591,82.297,7.791,77.702z"/>
	<path fill="#2F2939" d="M102.078,4.19c-1.998,1.798-2.598,6.392-0.799,8.79c3.795,3.995,10.986,0.2,9.188-4.994
		C109.469,5.388,106.072,4.19,102.078,4.19z"/>
	<path fill="#2F2939" d="M0,108.865v6.99c1.398-0.998,2.397-2.597,1.998-4.793C1.798,110.063,0.999,109.266,0,108.865z"/>
	<path fill="#2F2939" d="M31.563,129.24c-3.196,3.994,1.998,8.789,5.394,7.591C44.147,134.634,35.757,123.848,31.563,129.24z"/>
	<path fill="#2F2939" d="M37.156,151.214c-0.4-2.196-3.596-3.995-6.792-3.396c-1.199,1.598-0.799,3.396-0.999,5.793
		C31.163,159.205,38.554,157.207,37.156,151.214z"/>
	<path fill="#2F2939" d="M53.336,93.482c-0.6-3.396-4.195-4.194-6.592-2.797c-1.199,0.799-2.197,2.397-1.598,4.596
		C46.345,100.075,54.535,99.875,53.336,93.482z"/>
	<path fill="#2F2939" d="M19.776,50.734c-3.196,0.599-4.594,6.592-2.197,8.989c3.396,3.396,10.587,0,8.39-5.993
		C24.171,52.333,22.773,50.334,19.776,50.734z"/>
	<path fill="#2F2939" d="M47.343,110.063c-0.599-2.597-3.795-3.596-7.791-3.396c-1.998,1.998-1.398,6.192,0.399,8.392
		C43.947,117.854,48.542,114.658,47.343,110.063z"/>
	<path fill="#2F2939" d="M26.168,120.451c4.595,1.398,6.592-4.395,6.193-6.594c-0.399-3.195-5.394-5.192-8.19-3.795
		c-0.799,0.399-1.198,1-1.598,1.599C20.975,114.857,22.773,119.452,26.168,120.451z"/>
	<path fill="#2F2939" d="M12.984,41.945c3.196,1.998,7.591-0.6,7.391-4.395c0-3.596-4.994-5.993-8.39-3.995
		C10.987,36.751,10.787,40.546,12.984,41.945z"/>
	<path fill="#2F2939" d="M23.172,142.824c-0.599-2.797-4.395-4.596-8.39-3.797c-0.999,2.599-1.798,4.195-0.999,6.193
		C15.382,150.615,24.371,149.416,23.172,142.824z"/>
	<path fill="#2F2939" d="M14.982,74.306c-0.799,1.398-0.999,3.396-0.799,5.793c1.598,2.996,6.992,3.396,7.791-0.4
		C22.973,75.504,19.577,72.309,14.982,74.306z"/>
	<path fill="#2F2939" d="M18.578,20.77c3.196-2.197,2.397-9.588-1.198-10.188C8.39,8.584,11.786,23.567,18.578,20.77z"/>
	<path fill="#2F2939" d="M16.181,122.648c0.399-4.596-5.194-6.192-9.189-4.396C3.995,124.445,15.582,129.439,16.181,122.648z"/>
	<path fill="#2F2939" d="M0,19.971c1.398-0.799,2.597-2.597,2.397-5.394C1.798,13.379,0.999,12.58,0,11.98V19.971z"/>
	<path fill="#2F2939" d="M15.382,3.191c0.599,4.395,10.188,4.994,7.591-2.397c-0.399-0.2-0.799-0.399-1.199-0.799h-5.593
		C15.582,0.994,15.182,1.993,15.382,3.191z"/>
	<path fill="#2F2939" d="M134.04,7.386c2.996-0.999,3.196-4.395,1.997-7.391h-8.59C127.447,3.99,130.045,8.984,134.04,7.386z"/>
	<path fill="#2F2939" d="M150.818,6.986c3.396-0.799,3.597-4.195,2.397-6.992h-7.989C143.828,3.391,145.227,8.185,150.818,6.986z"/>
	<path fill="#2F2939" d="M89.493,6.986c2.196-1.398,3.596-3.396,3.596-6.992h-9.788C82.502,3.79,83.898,7.786,89.493,6.986z"/>
	<path fill="#2F2939" d="M46.544,1.792c3.995,4.195,6.792,1.398,6.792-1.798h-6.992C46.544,0.594,46.544,1.193,46.544,1.792z"/>
	<path fill="#2F2939" d="M63.524,0.794c0.4,3.795,9.189,7.591,8.59-0.399c0,0,0-0.2-0.2-0.4h-8.39
		C63.524,0.194,63.524,0.395,63.524,0.794z"/>
	<path fill="#2F2939" d="M111.667,2.192c0.998,5.793,9.588,4.195,8.59-1.798c0-0.2,0-0.2,0-0.4h-8.59
		C111.667,0.794,111.467,1.393,111.667,2.192z"/>
	<path fill="#2F2939" d="M156.014,78.701c0.799,0.6,1.799,1.199,2.996,1.598V71.31C156.413,71.909,154.615,74.306,156.014,78.701z"
		/>
	<path fill="#2F2939" d="M100.279,104.471c-1.997-1.998-2.596-4.596-6.791-3.597c-3.196,2.397-1.398,9.39,2.396,9.987
		C98.882,111.262,100.279,108.465,100.279,104.471z"/>
	<path fill="#2F2939" d="M151.619,16.175c0.398,3.596,4.595,5.394,7.391,3.796V11.98C155.813,10.183,150.818,11.581,151.619,16.175z
		"/>
	<path fill="#2F2939" d="M159.01,39.547v-9.788C155.215,30.958,155.414,37.75,159.01,39.547z"/>
	<path fill="#2F2939" d="M156.813,55.928c0.201,1.998,1,3.595,2.197,4.594V50.334C157.412,51.333,156.613,53.531,156.813,55.928z"/>
	<path fill="#2F2939" d="M145.826,123.048c-5.395,0.601-1.799,8.789,2.796,7.591C155.016,129.24,148.822,122.648,145.826,123.048z"
		/>
	<path fill="#2F2939" d="M93.089,157.807c-1.599-1.998-3.396-3.994-7.392-3.396c-1.198,0.999-1.997,2.797-2.396,4.595h9.788
		C93.089,158.605,93.089,158.206,93.089,157.807z"/>
	<path fill="#2F2939" d="M130.645,154.811c-1.998,0.199-2.996,1.998-3.195,4.194h8.589
		C135.039,156.607,132.841,154.609,130.645,154.811z"/>
	<path fill="#2F2939" d="M112.865,155.409c-0.2,1.397-0.799,2.397-1.198,3.596h8.59C119.657,156.208,116.66,154.609,112.865,155.409
		z"/>
	<path fill="#2F2939" d="M149.223,156.009c-1.998,0-3.396,1.397-3.996,2.996h7.99C152.418,157.207,150.818,156.009,149.223,156.009z
		"/>
	<path fill="#2F2939" d="M159.01,135.232c-0.799-0.199-1.798,0-2.796,0.199c-2.397,3.396-0.601,9.391,2.796,9.988l0,0V135.232z"/>
	<path fill="#2F2939" d="M63.524,159.005h8.39C70.116,155.809,63.324,153.813,63.524,159.005z"/>
	<path fill="#2F2939" d="M5.394,155.01c-1.998,0.399-2.797,2.197-2.797,3.995h7.791C9.988,156.809,8.19,154.609,5.394,155.01z"/>
	<path fill="#2F2939" d="M5.194,141.025c-0.2-2.996-2.197-5.394-5.194-5.793v10.188C2.997,146.021,5.394,144.422,5.194,141.025z"/>
	<path fill="#2F2939" d="M46.944,154.211c-1.398,1.398-0.999,2.996-0.599,4.794h6.992C53.336,156.408,51.539,153.611,46.944,154.211
		z"/>
	<path fill="#2F2939" d="M7.991,4.789c2.197-0.799,2.796-2.796,2.397-4.794H2.597C2.397,2.991,4.595,6.188,7.991,4.789z"/>
	<path fill="#2F2939" d="M17.18,157.605c-0.4,0.601-0.6,1-0.999,1.398h5.593C20.775,158.206,19.577,157.207,17.18,157.605z"/>
	<path fill="#2F2939" d="M159.01,115.656v-6.791c-1.798-0.801-4.193-0.999-6.191-0.801c-1.398,1.398-1.998,3.996-1.598,5.595
		C152.218,116.855,156.413,117.454,159.01,115.656z"/>
	<path fill="#2F2939" d="M140.232,101.475c-3.396,0.998-4.994,4.594-4.994,7.59c0.398,3.797,3.796,6.992,6.791,4.795
		c1.599-1.397,2.598-2.396,2.798-5.992C145.025,105.068,143.43,102.872,140.232,101.475z"/>
	<path fill="#2F2939" d="M146.625,59.324c-1.6,1.598-3.396,2.597-3.195,5.393c0.6,6.393,10.387,5.194,9.188-1.398
		C152.218,61.122,150.221,59.724,146.625,59.324z"/>
	<path fill="#2F2939" d="M138.834,90.887c4.994-1.199,3.995-8.391,0.398-9.988C132.242,77.502,131.443,92.284,138.834,90.887z"/>
	<path fill="#2F2939" d="M142.43,17.174c-2.797,0.2-3.596,6.393-1.996,8.79c1.996,3.795,6.99,1.798,7.59-2.197
		C146.625,21.169,145.826,16.775,142.43,17.174z"/>
	<path fill="#2F2939" d="M145.826,38.149c-5.794,0.399-2.797,13.983,3.396,11.586C154.814,47.738,150.818,37.75,145.826,38.149z"/>
	<path fill="#2F2939" d="M150.818,85.094c-3.396,0.399-5.192,7.79-3.994,10.786c2.197,5.194,12.186-4.396,6.792-9.588
		C152.618,85.293,151.619,84.895,150.818,85.094z"/>
	<path fill="#2F2939" d="M108.471,152.014c-1.199-2.996-4.994-5.992-8.391-3.396C94.088,156.809,107.871,162.4,108.471,152.014z"/>
	<path fill="#2F2939" d="M117.26,45.341c-0.398-2.198-3.994-4.195-6.592-3.196c-2.396,0.999-4.395,5.793-3.195,8.39
		C111.066,56.328,118.259,50.734,117.26,45.341z"/>
	<path fill="#2F2939" d="M99.682,140.428c0.199,0.998,1.998,3.195,2.996,3.395c5.395,1,6.393-7.19,2.598-9.787
		C102.078,134.634,98.682,136.632,99.682,140.428z"/>
	<path fill="#2F2939" d="M104.675,115.656c-1.598,2.996-1.397,3.396-1.598,5.193c-0.2,2.598,1.997,4.994,3.995,4.994
		C113.664,125.846,112.466,112.66,104.675,115.656z"/>
	<path fill="#2F2939" d="M112.865,93.084c-0.399-2.598-3.196-4.396-6.992-4.195c-1.198,1.398-1.797,3.596-2.197,5.793
		C105.074,100.675,114.063,99.676,112.865,93.084z"/>
	<path fill="#2F2939" d="M139.633,149.416c3.596,2.598,9.189-0.398,8.391-4.193c-0.398-2.599-6.592-5.195-9.389-2.798
		c-0.8,0.601-0.6,1.997-1.398,2.798C138.436,146.62,138.234,148.418,139.633,149.416z"/>
	<path fill="#2F2939" d="M120.057,75.705c-0.998-0.4-2.396-0.2-3.994-0.4c-3.196,1.998-2.797,10.587,0.799,11.585
		C122.854,88.289,124.852,78.301,120.057,75.705z"/>
	<path fill="#2F2939" d="M117.061,135.633c5.193,1.198,6.192-6.99,2.598-9.589c-3.396,0.601-6.594,2.599-5.793,6.192
		C114.063,133.436,115.861,135.434,117.061,135.633z"/>
	<path fill="#2F2939" d="M127.848,146.42c0.6-2.396-1.798-7.591-4.994-6.191c-0.398,0.199-0.799,0.398-1.199,0.799
		c-1.996,1.397-2.596,4.793-1.797,6.99C121.654,152.213,127.048,150.216,127.848,146.42z"/>
	<path fill="#2F2939" d="M139.633,128.241c-0.998-2.796-4.992-5.992-8.39-3.396C125.45,133.036,139.232,138.829,139.633,128.241z"/>
	<path fill="#2F2939" d="M131.044,114.857c-0.399-2.598-6.792-5.193-9.39-2.996c-0.799,0.799-0.6,2.197-1.397,2.996
		c0.998,1.397,0.998,3.195,2.396,4.195C126.05,121.648,131.643,118.652,131.044,114.857z"/>
	<path fill="#2F2939" d="M116.66,64.717c0,0.2,0,0.6,0,0.999c0.199,4.994,8.391,5.394,8.391,0.2
		C125.051,61.122,117.46,59.124,116.66,64.717z"/>
	<path fill="#2F2939" d="M123.652,103.271c2.996-4.795-1.799-7.99-5.193-6.992c-1.799,0.4-3.195,1.998-2.797,4.994
		C116.262,105.469,121.654,106.667,123.652,103.271z"/>
	<path fill="#2F2939" d="M131.643,29.56c-6.99-3.396-7.789,11.586-0.398,9.988C136.236,38.549,135.238,31.158,131.643,29.56z"/>
	<path fill="#2F2939" d="M128.445,45.94c-1.598,1.398-3.195,3.396-2.396,6.393c1.398,6.592,11.785,2.796,9.188-3.396
		C134.439,46.939,132.242,45.94,128.445,45.94z"/>
	<path fill="#2F2939" d="M124.65,11.781c-1.598,1.398-3.195,3.196-2.396,6.392c1.398,6.592,11.786,2.797,9.189-3.396
		C130.645,12.78,128.445,11.781,124.65,11.781z"/>
	<path fill="#2F2939" d="M138.834,71.509c0.799-2.197,0-4.395-1.997-6.792C128.047,62.72,131.843,77.902,138.834,71.509z"/>
</g>
</svg>
