<?xml version="1.0" encoding="utf-8"?>
<!-- Generator: Adobe Illustrator 21.1.0, SVG Export Plug-In . SVG Version: 6.00 Build 0)  -->
<svg version="1.1" id="Layer_1" xmlns="http://www.w3.org/2000/svg" xmlns:xlink="http://www.w3.org/1999/xlink" x="0px" y="0px"
	 viewBox="0 0 79 24" style="enable-background:new 0 0 79 24;" xml:space="preserve">
<style type="text/css">
	.st0{fill:#FFFFFF;}
</style>
<title>GHC-logo</title>
<desc>Created with Sketch.</desc>
<g id="Page-1">
	<g id="GHC-logo">
		<g id="Layer-1">
			<path id="path0" class="st0" d="M65.1,13.6c-0.1,0-0.1,0.1-0.1,0.2c0,0.1,0,0.1-0.1,0.1s-0.1,0.1-0.1,0.2c0,0.3-0.1,0.3-0.2-0.1
				l0-0.3h-0.5c-0.8,0-0.9,0.2-0.8,1.6c0.1,2.1,0.1,2.7,0.2,2.7c0,0,0.1,0.1,0.1,0.1s0,0.1-0.1,0.1c0,0-0.1,0.1-0.1,0.2
				c0,0.1,0,0.2-0.1,0.2s-0.1,0-0.1,0.1c0,0.1-1.1,1.2-1.2,1.2c-0.1,0-0.1,0-0.1,0.1s-0.1,0.1-0.2,0.1c-0.2,0-0.2-0.1-0.1-0.3
				c0.2-0.2,0.3-0.3,0.4-0.4c0.3-0.3,0.5-0.6,0.5-1.1c0.1-0.6,0-0.7-0.6-0.7c-0.3,0-0.5,0-0.5,0.1c0,0-0.1,0.1-0.2,0.1
				c-0.1,0-0.2,0.1-0.2,0.2c0,0.1-0.1,0.2-0.1,0.2s-0.1,0.1-0.1,0.2c0,0.1-0.1,0-0.1-0.3c0-0.5,0-0.5-0.3-0.5c-0.2,0-0.2,0-0.2,0.1
				c0,0.1,0,0.1-0.1,0.1c0,0-0.1,0.1-0.1,0.2c0,0.1,0,0.2,0.1,0.2c0.1,0,0.1,0,0,0.1c-0.1,0-0.1,0.3-0.1,0.6l0,0.5l-0.2-0.1
				c-0.1-0.1-0.2-0.2-0.2-0.3c0-0.1-0.1-0.2-0.1-0.2c0,0-0.1,0-0.1-0.1c0-0.4-0.6-0.6-0.6-0.2c0,0.1,0,0.3-0.1,0.3
				c0,0-0.1,0.2-0.1,0.5c0,0.3-0.1,0.5-0.1,0.5c0,0-0.1,0.1-0.1,0.1c0,0.1,0,0.2-0.1,0.2c-0.1,0.1-0.2-0.4-0.2-1.1
				c0-0.3,0-0.6-0.1-0.6c0,0-0.1-0.2-0.1-0.4c0-0.5-0.2-0.6-0.5-0.3c-0.1,0.1-0.2,0.7,0,0.7c0,0,0.1,0.5,0.1,1c0,0.5,0.1,1,0.1,1
				c0,0,0.1,0.2,0.1,0.3c0.1,0.5,0.7,0.7,0.8,0.3c0-0.1,0.1-0.2,0.1-0.2c0,0,0.1-0.2,0.1-0.4c0-0.2,0.1-0.4,0.1-0.4
				c0,0,0.1-0.1,0.1-0.2c0-0.1,0.1-0.2,0.1-0.2c0.1,0,0.1,0,0.1,0.1c0,0.1,0.1,0.1,0.2,0.2c0.1,0.1,0.2,0.2,0.2,0.2
				c0,0.1,0.1,0.1,0.1,0.1c0.1,0,0.1,0,0.1,0.1c0,0.1,0.4,0.1,0.4-0.1c0-0.1,0.1-0.1,0.1-0.1s0.1-0.1,0.1-0.2s0-0.2,0.1-0.2
				s0.1,0.1,0.1,0.2c0,0.8,1.3,1.2,1.9,0.5c0.2-0.2,0.3-0.3,0.4-0.4c0.1,0,0.1-0.1,0.2-0.2c0.2-0.2,0.3-0.3,0.3-0.2
				c0,0.1,0,0.1,0.1,0.1c0,0,0.1,0.2,0.1,0.4s0,0.4,0.1,0.4c0,0,0.1,0.2,0.1,0.4c0,0.5,0.2,0.6,0.5,0.6h0.2l-0.1-0.6
				c0-0.3-0.1-0.6-0.1-0.6c0,0-0.1-0.2-0.1-0.3c0-0.2,0-0.3-0.1-0.3c-0.1,0-0.1-1.8,0-1.8c0.1,0,0.1-0.1,0.1-0.2
				c0-0.1,0-0.2,0.1-0.3c0,0,0.1-0.4,0.1-0.8c0.1-1.1,0.2-0.9,0.2,0.3c0,0.6,0,1,0.1,1c0,0,0.1,0.2,0.1,0.3c0,0.2,0,0.3-0.1,0.3
				s-0.1,0.1-0.1,0.2c0,0.1,0,0.2-0.1,0.2c-0.1,0-0.1,0.5,0,0.6c0,0,0.1,0,0.2,0c0.1-0.1,0.1-0.1,0.1,0c0,0.1,0,0.1,0.1,0.1
				c0,0,0.1,0.1,0.1,0.3c0,0.2,0,0.3,0.1,0.3c0,0,0.1,0.2,0.1,0.5c0,0.6,0.1,0.7,0.5,0.8l0.2,0.1l-0.1-0.7c0-0.4-0.1-0.7-0.1-0.7
				c0,0-0.1-0.2-0.1-0.4c0-0.2,0-0.4-0.1-0.4c-0.1,0-0.1-1.3,0-1.3c0.1,0,0.1-0.2,0.1-0.3c0-0.2,0-0.3,0.1-0.3c0,0,0.1-0.1,0.1-0.2
				c0-0.1,0,0,0,0.2c0,0.2,0,0.4,0.1,0.4c0,0,0.1,0.2,0.1,0.4c0,0.2,0,0.4,0.1,0.4s0.1,0.4,0.1,0.8c0,0.4,0.1,0.8,0.1,0.9
				c0.1,0.1,0.5,0.1,0.5,0c0-0.1,0.1-0.1,0.2-0.1c0.1,0,0.2,0,0.2-0.1c0,0,0.1-0.1,0.2-0.1c0.2,0,0.7-0.4,0.7-0.6c0,0,0-0.1,0.1-0.1
				c0,0,0.1-0.1,0.1-0.3c0.1-0.4,0.2-0.3,0.2,0.1c0,0.4,0,0.5,0.5,0.9c0.1,0.1,1.1,0.1,1.1,0c0,0,0-0.1,0.1-0.1
				c0.1,0,0.6-0.5,0.6-0.6c0-0.1,0.2-0.3,0.3-0.3c0,0,0.1,0.2,0.1,0.4l0,0.4l0.3,0l0.3,0L72,19.5c0-0.2-0.1-0.5-0.1-0.5
				c0,0-0.1-0.4-0.1-0.9c0-0.5-0.1-0.9-0.1-0.9c0,0-0.1-0.1-0.1-0.2c0-0.2,0-0.2-0.2-0.2H71l0,0.9c0,0.7,0,0.9-0.1,1
				c-0.1,0.1-0.3,0.2-0.4,0.4c-0.4,0.3-0.6,0.5-0.8,0.5c-0.2,0-0.2,0,0.2-0.4c0.2-0.2,0.4-0.4,0.4-0.5c0-0.1,0.1-0.2,0.1-0.2
				c0,0,0.1-0.1,0.1-0.2c0-0.1,0-0.2,0.1-0.2c0,0,0.1-0.1,0.1-0.3c0-0.3-0.1-0.5-0.3-0.5c0,0-0.1,0-0.1-0.1S70.1,17,70,17
				c-0.2,0-0.3,0-0.3,0.1s-0.1,0.1-0.1,0.1c-0.3,0-0.7,0.5-0.7,0.9c0,0.1,0,0.2-0.1,0.2c0,0-0.1-0.2-0.1-0.5s0-0.5-0.1-0.5
				c0,0-0.1-0.1-0.1-0.1c0-0.1-0.1-0.1-0.4-0.1c-0.2,0-0.4,0-0.4,0.1s0,0.1-0.1,0.1c-0.1,0-0.5,0.5-0.5,0.6c0,0.1-0.1,0.1-0.1,0.1
				c-0.1,0-0.2-0.1-0.2-0.8c-0.1-0.9-0.2-1.3-0.3-1.3c-0.1,0-0.1-0.2-0.1-0.9c0-0.5,0-0.9-0.1-0.9c0,0-0.1-0.1-0.1-0.2
				C66.1,13.5,65.4,13.3,65.1,13.6 M65.7,14.3c0,0.1,0,0.2,0.1,0.2s0.1,0.2,0.1,0.4s0,0.4-0.1,0.4c0,0-0.1,0.2-0.1,0.5
				c0,0.3,0,0.5-0.1,0.5c0,0-0.1,0.1-0.1,0.3s0-0.2,0-0.9c0-0.7,0-1.3,0-1.4C65.6,14,65.7,14,65.7,14.3 M64.3,15.1
				c0,0.5,0,0.9-0.1,0.9c0,0-0.1,0.2-0.1,0.4c0,0.4,0,0.4,0-0.1c0-0.3,0-0.5-0.1-0.5c0,0-0.1-0.2-0.1-0.4s0-0.4,0.1-0.4
				c0,0,0.1-0.1,0.1-0.3c0-0.3,0-0.4,0.2-0.4C64.2,14.2,64.3,14.6,64.3,15.1 M71,15.6c-0.1,0-0.1,0.1-0.1,0.2c0,0.1,0,0.1-0.1,0.1
				c-0.1,0-0.1,0.2,0,0.3c0.3,0.2,0.7,0,0.7-0.4C71.5,15.6,71.3,15.5,71,15.6 M75.9,16.5c0,0-0.1,0.1-0.2,0.1
				c-0.1,0-0.2,0.1-0.3,0.1c-0.1,0.1-0.1,0.1-0.2,0.1c-0.1,0-0.4,0.3-0.4,0.4c0,0.1-0.1,0.1-0.2,0.2c-0.1,0-0.2,0.1-0.2,0.3
				c0,0.1-0.1,0.3-0.1,0.3c0,0-0.1,0.1-0.1,0.2c0,0.1-0.1,0.2-0.1,0.2c-0.1,0-0.1,0-0.1-0.2c0-0.1,0-0.2-0.1-0.2s-0.1-0.1-0.1-0.3
				c0-0.1,0-0.3-0.1-0.3s-0.1-0.1-0.1-0.2C73.6,17,73,16.9,73,17.1c0,0.1-0.1,0.2-0.2,0.2c-0.1,0-0.1,0.1-0.1,0.2
				c0,0.1,0,0.2-0.1,0.2c0,0-0.1-0.2-0.1-0.5c0-0.5-0.1-0.7-0.4-0.7c-0.2,0-0.2,0-0.2,0.6c0,0.3,0,0.6,0.1,0.6c0,0,0.1,0.3,0.1,0.8
				c0,1.2,0,1.4,0.4,1.4c0.3,0,0.3,0,0.3-0.4c0-0.2,0.1-0.4,0.1-0.4c0,0,0.1-0.1,0.1-0.3c0-0.1,0-0.3,0.1-0.3c0,0,0.1-0.1,0.1-0.3
				c0-0.3,0.1-0.4,0.3-0.4c0,0,0.1,0.2,0.1,0.3c0,0.2,0.1,0.3,0.1,0.3c0,0,0.1,0.1,0.1,0.2c0,0.2,0.2,0.4,0.4,0.6
				c0.1,0.1,1.2,0.2,1.2,0c0-0.1,0.1-0.1,0.1-0.1s0.2-0.1,0.3-0.2C76,18.9,76,18.8,76,19c0,0.1-0.2,0.4-0.6,0.8
				c-0.3,0.3-0.6,0.6-0.6,0.7c0,0-0.1,0.1-0.2,0.2c-0.2,0.2-0.4,0.6-0.4,0.8c0,0.1,0,0.1-0.1,0.2c-0.3,0.2,0,1.5,0.3,1.5
				c0.1,0,0.2,0,0.2,0.1c0,0.1,0.5,0.1,0.6,0c0,0,0.1-0.1,0.3-0.1c0.1,0,0.2-0.1,0.2-0.1c0,0,0-0.1,0.1-0.1c0.2,0,0.5-0.4,0.5-0.6
				c0-0.1,0-0.1,0.1-0.1c0.2,0,0.3-0.5,0.3-1.6c0-0.8,0-1.1,0.1-1.1c0.1,0,0.1-0.1,0.1-0.1c0-0.1,0.1-0.2,0.2-0.3
				c0.1-0.1,0.2-0.3,0.2-0.3c0-0.1,0-0.1,0.1-0.1s0.1-0.1,0.1-0.1c0-0.2-0.4-0.2-0.4,0c-0.2,0.4-0.3,0.2-0.3-0.5
				c0-0.4,0-0.7,0.1-0.7c0.1,0,0.1-0.6,0-0.7C76.5,16.4,75.9,16.3,75.9,16.5 M76,17.4c0,0.2-0.1,0.3-0.1,0.3c0,0-0.1,0.1-0.1,0.1
				c0,0.1,0,0.1-0.1,0.1s-0.1,0.1-0.1,0.1c0,0.1-0.6,0.8-0.8,0.8c-0.1,0,0-0.5,0.1-0.6c0,0,0.1-0.1,0.1-0.2C75,18,75,18,75,18
				s0.1,0,0.1-0.1c0-0.1,0.6-0.7,0.8-0.7C76,17.1,76,17.2,76,17.4 M54.2,17.3c-0.3,0.1-0.3,1,0,1.3c0.1,0.1,0.2,0.2,0.2,0.3
				c0,0,0,0.1,0.1,0.2c0.1,0.1,0.1,0.3,0.1,0.8c-0.1,1.1,0,1.1,0.5,1.1c0.3,0,0.5,0,0.5-0.1c0-0.2,0.4-0.1,0.6,0.1
				c0.1,0.1,0.3,0.2,0.3,0.2c0.1,0,0.1,0,0.1,0.1s0.1,0.1,0.3,0.1c0.4,0,0.5-0.3,0.1-0.4c-0.1,0-0.4-0.2-0.7-0.7
				c-0.1-0.1-0.1-0.3,0-0.3c0,0,0.1-0.1,0.1-0.2c0-0.1,0.1-0.3,0.1-0.4c0.1-0.2,0.2-0.6,0-0.6c0,0-0.1-0.1-0.1-0.1
				c0-0.3-0.4-0.1-0.4,0.2c0,0.2-0.1,0.3-0.1,0.3s-0.1,0.1-0.1,0.1s0,0.1-0.1,0.1c0,0-0.1-0.1-0.1-0.1s-0.1-0.1-0.1-0.1
				s-0.1-0.1-0.1-0.2c0-0.1,0-0.2,0.1-0.2c0,0,0.1-0.1,0.1-0.3c0-0.2,0.1-0.3,0.1-0.4c0.1-0.2,0.1-0.5,0-0.5c0,0-0.1,0-0.1-0.1
				C55.7,17.3,54.8,17.2,54.2,17.3 M54.8,17.6c0,0,0.1,0.1,0.2,0.1c0.2,0.1,0.3,0.4,0.1,0.6c0,0.1-0.1,0.2-0.1,0.3
				c0,0.1-0.4-0.1-0.4-0.4c0-0.1-0.1-0.2-0.1-0.2c0,0,0-0.1,0.1-0.2C54.7,17.6,54.8,17.5,54.8,17.6 M68.2,17.9c0,0.2,0,0.3-0.1,0.3
				s-0.1,0.1-0.1,0.2c0,0.1,0,0.2-0.1,0.2c0,0-0.1,0-0.1,0.1c0,0.1-0.6,0.7-0.7,0.7c0,0,0-0.1,0-0.3c0-0.1,0-0.3,0.1-0.3
				c0,0,0.1-0.1,0.1-0.2s0-0.2,0.1-0.2c0,0,0.1-0.1,0.1-0.3C67.6,17.7,68.2,17.4,68.2,17.9 M69.9,17.9c0,0.3-0.3,0.7-0.4,0.6
				c-0.1-0.1,0.1-0.5,0.1-0.5c0,0,0.1,0,0.1-0.1c0-0.1,0.2-0.3,0.2-0.3C70,17.6,70,17.7,69.9,17.9 M62,18.7c-0.1,0-0.1,0.1-0.1,0.2
				s0,0.1-0.1,0.1s-0.1,0.1-0.1,0.1c0,0.1-0.1,0.1-0.1,0.1c-0.1,0,0-0.5,0.1-0.5c0,0,0.1-0.1,0.1-0.1c0,0,0.1-0.2,0.2-0.3l0.2-0.2
				l0,0.2C62.1,18.5,62,18.6,62,18.7 M55.3,20.1c0.2,0.2,0.2,0.2,0.1,0.4c-0.1,0.3-0.3,0.1-0.3-0.2C55.1,19.9,55.1,19.8,55.3,20.1
				 M76,20.9c0,0.5-0.1,0.9-0.1,0.9c0,0-0.1,0.2-0.2,0.3c-0.1,0.3-0.5,0.6-0.6,0.6c-0.1,0-0.1,0-0.1,0.1c0,0.1-0.1,0-0.2-0.1
				c-0.2-0.2-0.2-0.6-0.1-0.7c0,0,0.1-0.2,0.1-0.3c0-0.2,0.1-0.3,0.1-0.3c0,0,0.1,0,0.1-0.1c0,0,0.1-0.2,0.3-0.3
				c0.1-0.1,0.3-0.3,0.3-0.4c0-0.1,0.1-0.2,0.2-0.2c0.1,0,0.2-0.1,0.2-0.1s0-0.1,0-0.1C76,20.1,76,20.4,76,20.9"/>
			<path id="path1" class="st0" d="M64,13.7c0.1,0,0.3,0,0.4,0c0.1,0,0,0-0.2,0S63.9,13.7,64,13.7"/>
			<path id="path2" class="st0" d="M27.1,8.9c0,0.2,0,0.2,0,0.1c0-0.1,0-0.2,0-0.3C27.1,8.7,27.1,8.8,27.1,8.9"/>
			<path id="path3" class="st0" d="M35.7,7.4v6.3h1.4h1.4V11V8.2h1.9h1.9V11v2.7h1.4h1.4V7.4V1.1h-1.4h-1.4v2.4v2.4h-1.9h-1.9V3.5
				V1.1h-1.4h-1.4V7.4 M61.8,7.4v6.3l0.8,0c0.4,0,1,0,1.3,0l0.5,0v-3.4V6.7h0.6h0.6v2.6c0,1.4,0,2.6,0.1,2.6s0.1,0.1,0.1,0.3
				c0,0.2,0.1,0.3,0.1,0.3c0,0,0.1,0,0.1,0.1c0,0.2,0.6,0.8,1,0.9c0.2,0.1,0.4,0.2,0.4,0.2c0.2,0.1,1.9,0.1,2,0c0,0,0.1-0.1,0.2-0.1
				c0.4,0,0.4-0.1,0.4-1.2c0-1.1,0-1.1-0.5-0.8c-0.3,0.2-0.9,0.3-0.9,0.1c0,0-0.1-0.1-0.1-0.1c-0.1,0-0.1-0.1-0.1-0.1
				c0-0.1,0-0.1-0.1-0.1c-0.1,0-0.1-0.8-0.1-2.4V6.7h0.9h0.9V5.6V4.5h-0.9h-0.9V3.4V2.3H67h-1.3v1.1v1.1h-0.6h-0.6V2.8V1.1h-1.3
				h-1.3V7.4 M70.5,7.4v6.3h1.3h1.3v-3.2V7.4L73.5,7c0.2-0.2,0.4-0.3,0.5-0.3c0.1,0,0.1,0,0.1-0.1c0.1-0.3,1.2-0.1,1.2,0.2
				c0,0,0,0.1,0.1,0.1c0.1,0,0.1,0.8,0.1,3.4l0,3.3h1.3h1.3V9.9c0-2.1,0-3.8-0.1-3.8c0,0-0.1-0.1-0.1-0.3c0-0.2-0.1-0.3-0.1-0.3
				c0,0-0.1-0.1-0.1-0.1c0-0.1-0.4-0.5-0.5-0.5c0,0-0.1-0.1-0.1-0.1c0-0.1-0.1-0.2-0.3-0.2c-0.1,0-0.3-0.1-0.3-0.1
				c0,0-0.1-0.1-0.2-0.1s-0.3,0-0.3-0.1c0,0-0.2-0.1-0.4-0.1c-0.2,0-0.4,0-0.4,0.1c0,0-0.2,0.1-0.3,0.1s-0.3,0-0.3,0.1
				s-0.1,0.1-0.3,0.1c-0.2,0-0.3,0.1-0.3,0.1c0,0-0.1,0.1-0.3,0.2c-0.2,0.1-0.3,0.2-0.3,0.2c0,0-0.1,0.1-0.2,0.1
				c-0.2,0-0.2-0.1-0.2-2v-2h-1.3h-1.3V7.4 M48.8,4.3c0,0-0.2,0.1-0.3,0.1c-0.3,0-1,0.2-1.2,0.4c-0.1,0.1-0.2,0.1-0.3,0.1
				C47.1,4.9,47,5,47,5c0,0.1-0.1,0.1-0.2,0.2c-0.1,0-0.2,0.1-0.2,0.2c0,0-0.1,0.2-0.3,0.3C46.1,5.8,46,6,46,6.1
				c0,0.1-0.1,0.2-0.1,0.2c-0.1,0.1-0.3,0.6-0.3,0.7c0,0.1,0,0.2-0.1,0.2c0,0-0.1,0.1-0.1,0.3c0,0.2,0,0.3-0.1,0.4
				c-0.2,0.2,0,2.9,0.2,2.9c0,0,0.1,0.1,0.1,0.3c0,0.3,0.4,1,0.5,1c0,0,0.1,0.1,0.1,0.1c0,0.1,0.9,1,1.1,1c0.1,0,0.1,0,0.1,0.1
				c0,0,0.1,0.1,0.2,0.1c0.1,0,0.2,0.1,0.2,0.1c0,0,0.1,0.1,0.2,0.1s0.2,0,0.2,0.1c0,0,0.5,0.1,1.1,0.1c0.6,0,1,0,1-0.1
				c0,0,0.1-0.1,0.2-0.1s0.2,0,0.2-0.1c0,0,0.1-0.1,0.3-0.1c0.2,0,0.3-0.1,0.3-0.1s0.1-0.1,0.2-0.1s0.3-0.2,0.5-0.3
				c0.2-0.1,0.3-0.3,0.4-0.3c0,0,0.1,0,0.1-0.1s0.1-0.2,0.2-0.3c0.1-0.1,0.2-0.2,0.2-0.3s0.1-0.1,0.2-0.2c0.1-0.1,0.2-0.3,0.2-0.4
				c0-0.1,0.1-0.2,0.1-0.2c0.1,0,0.1-0.2,0-0.3c-0.1-0.1-0.3-0.1-0.5-0.1c-0.2,0-0.4,0-0.4-0.1c0,0-0.3-0.1-0.6-0.1
				s-0.6-0.1-0.7-0.1c-0.2-0.1-0.3,0-0.4,0.3c0,0.2-0.1,0.4-0.2,0.5c-0.1,0.1-0.2,0.2-0.2,0.2c0,0-0.1,0.1-0.3,0.2
				c-0.3,0.2-0.9,0.3-0.9,0.1c0,0-0.1-0.1-0.2-0.1c-0.2,0-0.9-0.6-0.9-0.7c0,0,0-0.1-0.1-0.1c0,0-0.1-0.2-0.1-0.5
				c0-0.2-0.1-0.5-0.1-0.5c-0.3-0.2,0.2-0.2,2.7-0.2h2.8V9c0-0.4,0-0.7-0.1-0.7S53.3,8,53.2,7.6c0-0.4-0.1-0.7-0.1-0.7
				S53,6.8,53,6.7s0-0.2-0.1-0.2s-0.1,0-0.1-0.1C52.9,6,52,5,51.4,4.7c-0.4-0.2-0.9-0.3-1.2-0.3c-0.2,0-0.3,0-0.4-0.1
				c0,0-0.2-0.1-0.5-0.1S48.9,4.3,48.8,4.3 M57.2,4.3c0,0-0.2,0.1-0.5,0.1s-0.4,0-0.5,0.1c0,0-0.2,0.1-0.4,0.1
				c-0.2,0-0.3,0.1-0.3,0.1c0,0-0.1,0.1-0.1,0.1c-0.1,0-0.1,0-0.1,0.1c0,0-0.1,0.1-0.1,0.1c-0.1,0-0.2,0-0.6,0.6
				C54.2,6,54,6.3,54,6.7l0,0.4l0.4,0c0.2,0,0.5,0,0.6,0c0.1,0,0.3,0,0.3,0.1c0,0,0.2,0.1,0.4,0.1c0.2,0,0.4,0,0.4,0.1
				c0,0.2,0.4,0,0.4-0.1c0-0.1,0.1-0.2,0.1-0.2c0,0,0.1-0.1,0.1-0.1c0-0.3,0.6-0.6,1.1-0.6c0.7,0,1.1,0.3,1.1,1
				c0,0.4-0.1,0.5-0.9,0.5c-0.6,0-1,0.1-1.3,0.3c-0.1,0-0.2,0.1-0.3,0.1c-0.2,0-0.9,0.2-0.9,0.3c0,0-0.1,0.1-0.2,0.1
				c-0.1,0-0.2,0.1-0.2,0.1c0,0,0,0.1-0.1,0.1c-0.1,0-1.1,0.9-1.1,1c0,0.1,0,0.1-0.1,0.1c-0.1,0-0.1,0.3-0.1,1.1
				c0,1.1,0.1,1.3,0.3,1.6c0.1,0.1,0.1,0.1,0.1,0.2s0.1,0.2,0.2,0.2c0.1,0.1,0.3,0.2,0.3,0.3c0.1,0.1,0.2,0.1,0.4,0.2
				c0.1,0,0.2,0.1,0.2,0.1c0,0,0.1,0.1,0.2,0.1c0.3,0.1,2.1,0.1,2.1,0c0,0,0.1-0.1,0.2-0.1s0.2,0,0.2-0.1c0,0,0.1-0.1,0.2-0.1
				c0.2-0.1,0.7-0.4,0.8-0.5c0.1-0.1,0.2,0,0.2,0.1c0,0.1,0,0.2,0.1,0.2c0,0,0.1,0.1,0.1,0.2v0.2h1.2h1.2v-0.2c0-0.1,0-0.3-0.1-0.3
				c-0.1-0.1-0.1-0.9-0.1-3.3c0-1.9-0.1-3.2-0.1-3.3c0,0-0.1-0.1-0.1-0.2c0-0.2-0.3-0.7-0.3-0.7c0,0-0.1,0-0.1-0.1
				c0-0.1-0.5-0.6-0.7-0.6c-0.1,0-0.1,0-0.1-0.1c0,0,0-0.1-0.1-0.1s-0.2,0-0.2-0.1c0,0-0.2-0.1-0.4-0.1c-0.2,0-0.4-0.1-0.4-0.1
				S59,4.4,58.8,4.4c-0.2,0-0.4,0-0.4-0.1C58.3,4.2,57.3,4.2,57.2,4.3 M49.9,6.4c0.4,0.2,0.8,0.9,0.8,1.3v0.3h-1.4h-1.4L48,7.7
				c0-0.2,0.1-0.4,0.1-0.4c0,0,0.1-0.1,0.2-0.3C48.6,6.4,49.3,6.2,49.9,6.4 M58.8,10.3c0,0.4,0,0.6-0.1,0.6c0,0-0.2,0.1-0.3,0.3
				c-0.3,0.3-0.6,0.4-0.7,0.4c0,0-0.1,0-0.1,0.1c0,0-0.1,0.1-0.1,0.1s-0.1,0-0.1,0.1c0,0.2-0.8,0.1-1-0.1c-0.2-0.2-0.3-0.5-0.3-0.7
				c0-0.2,0.4-0.8,0.6-0.9c0.1,0,0.2-0.1,0.2-0.1c0,0,0.1-0.1,0.2-0.1c0.1,0,0.2,0,0.2-0.1c0,0,0.2-0.1,0.5-0.1
				c0.3,0,0.5-0.1,0.5-0.1s0.1-0.1,0.3-0.1h0.3V10.3"/>
			<path id="path4" class="st0" d="M4.8,0.9C4.6,0.9,4.5,1,4.5,1S4.4,1.1,4.3,1.1c-0.1,0-0.2,0-0.2,0.1S3.9,1.2,3.8,1.3
				c-0.2,0-0.3,0.1-0.3,0.1c0,0-0.1,0.1-0.3,0.2C2.9,1.8,1.7,2.9,1.7,3.1c0,0.1-0.1,0.2-0.1,0.2C1.5,3.3,1.3,3.8,1.3,3.9
				C1.3,4,1.2,4,1.2,4C1.1,4,0.9,4.7,0.9,4.9c0,0.1,0,0.2-0.1,0.2c0,0-0.1,0.4-0.1,0.9c0,0.5-0.1,0.8-0.1,0.8c-0.1,0-0.1,1,0,1
				c0,0,0.1,0.4,0.1,0.9c0,0.5,0.1,0.9,0.1,0.9c0.1,0,0.2,0.5,0.3,0.9c0,0.1,0.1,0.2,0.1,0.2c0,0,0.2,0.3,0.3,0.5
				c0.1,0.3,0.3,0.5,0.3,0.5c0,0,0.1,0,0.1,0.1c0,0.1,0.2,0.3,0.5,0.6c0.2,0.2,0.8,0.7,1,0.7c0.1,0,0.2,0.1,0.3,0.2
				c0.1,0.1,0.3,0.1,0.4,0.1c0.1,0,0.2,0,0.2,0.1s0.1,0.1,0.2,0.1c0.1,0,0.2,0,0.2,0.1c0,0,0.4,0.1,1.1,0.1s1.1,0,1.1-0.1
				c0,0,0.1-0.1,0.2-0.1s0.2,0,0.2-0.1s0.1-0.1,0.2-0.1c0.1,0,0.4-0.1,0.6-0.3L8.5,13l0,0.2c0.1,0.5,0,0.5,1.1,0.5l1,0l0-1.8
				c0-1,0-1.6,0.1-1.5c0,0.2,0.1,0.3,0.1,0.3c0,0,0.1,0.1,0.1,0.3c0,0.1,0,0.2,0.1,0.2c0,0,0.1,0.1,0.1,0.3c0,0.1,0.1,0.3,0.1,0.3
				c0,0,0.1,0.1,0.2,0.2c0.3,0.7,1.4,1.6,1.8,1.6c0.1,0,0.2,0,0.2,0.1s0.1,0.1,0.2,0.1s0.2,0,0.2,0.1c0,0,0.4,0.1,1,0.1
				c0.6,0,1,0,1.1-0.1c0,0,0.1-0.1,0.2-0.1c0.1,0,0.2,0,0.2-0.1s0.1-0.1,0.2-0.1c0.1,0,0.2-0.1,0.3-0.1s0.2-0.1,0.2-0.1
				c0.1,0,1-0.9,1.2-1.2c0.4-0.6,0.4-0.7,0.5-1.1c0-0.2,0.1-0.3,0.1-0.3s0.1-0.1,0.1-0.1c0-0.1,0-0.1,0.1-0.1c0,0,0.1,0.1,0.1,0.2
				c0,0.2,0.2,0.8,0.3,0.9c0,0,0.1,0.1,0.1,0.2c0.2,0.6,1.1,1.4,1.9,1.7c0.2,0.1,0.4,0.1,0.5,0.2c0.3,0.1,2.1,0.1,2.1,0
				c0,0,0.2-0.1,0.3-0.1s0.2,0,0.2-0.1c0,0,0.1-0.1,0.2-0.1c0.4-0.1,1.4-1,1.4-1.2c0-0.1,0-0.1,0.1-0.1c0.1,0,0.5-0.9,0.5-1.1
				c0-0.1,0-0.2,0.1-0.2c0,0,0.1-0.1,0.1-0.3s0-0.2,0.1-0.3C27,10.4,27,9.9,27,9.1c0-0.8,0-1.3-0.1-1.3c0,0-0.1-0.2-0.1-0.3
				s0-0.2-0.1-0.2s-0.1-0.1-0.1-0.2c0-0.5-1.1-2-1.8-2.2c-0.1-0.1-0.3-0.1-0.3-0.2c0,0-0.1-0.1-0.3-0.1c-0.2,0-0.3-0.1-0.3-0.1
				s-0.2-0.1-0.4-0.1c-0.2,0-0.5,0-0.6-0.1c-0.1-0.1-0.2-0.1-0.3,0c-0.1,0.1-0.3,0.1-0.5,0.1s-0.4,0-0.4,0.1s-0.1,0.1-0.3,0.1
				c-0.2,0-0.3,0.1-0.3,0.1s-0.1,0.1-0.3,0.2c-0.1,0.1-0.4,0.2-0.5,0.3C19.8,5.7,19.6,6,19.6,6c0,0,0,0.1-0.1,0.1s-0.1,0-0.1,0.1
				c0,0.1-0.1,0.3-0.2,0.5C19.1,6.9,19,7.2,19,7.4c0,0.3-0.2,0.5-0.2,0.2c0-0.1,0-0.2-0.1-0.2c0,0-0.1-0.2-0.1-0.4s-0.1-0.4-0.1-0.4
				c0,0-0.1-0.1-0.1-0.2c-0.1-0.4-1-1.4-1.5-1.6c-0.2-0.1-0.3-0.2-0.3-0.2c0,0-0.1-0.1-0.3-0.1c-0.2,0-0.3-0.1-0.3-0.1
				c0-0.1-0.8-0.1-1.2-0.1c-0.4,0-1.1,0.1-1.2,0.2c0,0-0.1,0.1-0.2,0.1c-0.2,0-0.7,0.2-0.8,0.4c-0.1,0.1-0.2,0.1-0.2,0.1
				c-0.1,0-0.7,0.6-0.7,0.7c0,0-0.1,0.1-0.2,0.2c-0.1,0.1-0.2,0.3-0.2,0.3c0,0.1,0,0.2-0.1,0.2s-0.1,0.1-0.1,0.3
				c0,0.1-0.1,0.3-0.1,0.3s-0.1,0.1-0.1,0.2c0,0.1,0,0.2-0.1,0.2s-0.1,0.1-0.1,0.3c0,0.2,0,0.2,0-0.1l0-0.4H8.3H5.9v1.1v1.1h1.1H8
				l0,0.7c0,0.4-0.1,0.7-0.1,0.7c0,0-0.1,0.1-0.1,0.1c0,0.1-0.4,0.5-0.5,0.5c-0.1,0-0.1,0-0.1,0.1c-0.1,0.2-1.6,0.2-2,0
				C4.3,11.1,3.7,10,3.5,8.7c0-0.2-0.1-0.4-0.1-0.4S3.4,7.9,3.4,7.2c0-0.7,0-1.1,0.1-1.1c0,0,0.1-0.2,0.1-0.4c0-0.2,0-0.4,0.1-0.4
				c0,0,0.1-0.2,0.1-0.4c0.2-1.2,1.7-2.2,2.8-1.8c0.2,0.1,0.3,0.1,0.4,0.1c0.3,0,1,1,1,1.3c0,0.1,0,0.1,0.1,0.1c0,0,0.1,0.1,0.1,0.3
				v0.3l0.8-0.1c0.4,0,0.8-0.1,0.9-0.1C9.9,5,10.1,5,10.3,5c0.5,0,0.6-0.4,0.2-1.3c-0.2-0.6-0.3-0.8-0.4-0.8c0,0-0.1,0-0.1-0.1
				c0-0.1-0.8-1-0.9-1c0,0-0.1,0-0.1-0.1c0-0.1-0.6-0.5-0.9-0.5c-0.1,0-0.3-0.1-0.3-0.1c0,0-0.1-0.1-0.2-0.1c-0.1,0-0.2,0-0.3-0.1
				C7.3,0.9,5.4,0.9,4.8,0.9 M32.7,3.1l0,2L32.5,5c-0.1-0.1-0.2-0.2-0.3-0.2c0,0-0.1,0-0.1-0.1c0,0-0.1-0.1-0.2-0.1
				c-0.1,0-0.3-0.1-0.3-0.1c0,0-0.2-0.1-0.3-0.1c-0.1,0-0.4,0-0.5-0.1c-0.2-0.1-0.2-0.1-0.3,0c-0.1,0-0.2,0.1-0.4,0.1
				s-0.3,0-0.3,0.1s-0.1,0.1-0.3,0.1c-0.2,0-0.3,0.1-0.3,0.1c0,0-0.1,0.1-0.3,0.2C28.6,5.1,28,5.6,28,5.8c0,0.1,0,0.1-0.1,0.1
				c0,0-0.1,0.1-0.1,0.2c0,0.1-0.1,0.2-0.1,0.2c0,0-0.1,0.1-0.1,0.1s0,0.2-0.1,0.2c0,0-0.1,0.3-0.1,0.5c0,0.2-0.1,0.4-0.1,0.4
				c0,0-0.1,0.2-0.1,0.5c0,0.3,0,0.5-0.1,0.6c0,0,0,0.2,0,0.4c0,0.2,0.1,0.7,0.1,1c0,0.3,0,0.6,0.1,0.6c0,0,0.1,0.2,0.1,0.4
				c0,0.2,0.1,0.5,0.1,0.5c0,0,0.1,0.2,0.1,0.3c0,0.1,0,0.2,0.1,0.2c0,0,0.1,0.1,0.2,0.3c0.1,0.4,1,1.2,1.3,1.3
				c0.1,0,0.2,0.1,0.2,0.1c0,0,0.1,0.1,0.2,0.1c0.1,0,0.2,0,0.2,0.1c0.2,0.3,2.2,0,2.9-0.5c0.2-0.2,0.4-0.1,0.4,0.2
				c0,0.2,0,0.2,1.1,0.1l1.1,0l0-6.3l0-6.3h-1.4h-1.4L32.7,3.1 M15.3,6.5c0.3,0.2,0.5,0.4,0.5,0.5c0,0.1,0,0.1,0.1,0.1
				c0,0,0.1,0.2,0.1,0.3s0.1,0.4,0.1,0.4c0.1,0.1,0.1,2.5,0,2.5c0,0-0.1,0.2-0.1,0.4c0,0.2-0.1,0.4-0.1,0.4c0,0-0.1,0-0.1,0.1
				c0,0.2-0.6,0.6-1,0.6c-0.2,0-0.3,0-0.3-0.1c0,0,0-0.1-0.1-0.1c-0.1,0-0.5-0.4-0.6-0.6c0-0.1-0.1-0.2-0.1-0.2c0,0-0.1-0.1-0.1-0.2
				s0-0.3-0.1-0.3c-0.1-0.1-0.1-2.6,0-2.6c0,0,0.1-0.1,0.1-0.2c0-0.1,0-0.2,0.1-0.2c0,0,0.1-0.1,0.1-0.3c0-0.1,0.1-0.3,0.1-0.3
				c0,0,0.2-0.1,0.3-0.2C14.5,6.3,15,6.3,15.3,6.5 M23.4,6.5c0,0.1,0.1,0.1,0.2,0.1s0.2,0.1,0.2,0.2c0.1,0.1,0.1,0.2,0.2,0.2
				c0,0,0.1,0.1,0.1,0.3c0,0.2,0.1,0.3,0.1,0.3c0.1,0.1,0.1,2.9,0,3.1c0,0.1-0.1,0.2-0.1,0.4c-0.3,1.1-1.9,1.1-2.2,0
				c0-0.1-0.1-0.2-0.1-0.3c0,0-0.1-0.2-0.1-0.3s0-0.3-0.1-0.3c0,0-0.1-0.4-0.1-1c0-0.6,0-1,0.1-1c0,0,0.1-0.2,0.1-0.3
				c0-0.1,0-0.3,0.1-0.3c0,0,0.1-0.2,0.1-0.3c0-0.1,0.1-0.3,0.1-0.3s0.1-0.1,0.1-0.2c0-0.1,0.2-0.2,0.3-0.2c0.1,0,0.2-0.1,0.2-0.1
				C22.5,6.3,23.3,6.3,23.4,6.5 M32.1,6.7c0.1,0.1,0.3,0.2,0.4,0.3l0.2,0.2V9c0,1.8-0.1,2.3-0.4,2.3c0,0-0.2,0.1-0.2,0.2
				c-0.6,0.6-2-0.1-2-0.9c0-0.1,0-0.1-0.1-0.2c-0.1,0-0.1-0.4-0.1-1.3s0-1.3,0.1-1.3c0.1,0,0.1-0.1,0.1-0.2
				C30.1,6.8,31.5,6.2,32.1,6.7"/>
		</g>
	</g>
</g>
</svg>
