<?xml version="1.0" encoding="utf-8"?>
<!-- Generator: Adobe Illustrator 21.1.0, SVG Export Plug-In . SVG Version: 6.00 Build 0)  -->
<svg version="1.1" id="Layer_1" xmlns="http://www.w3.org/2000/svg" xmlns:xlink="http://www.w3.org/1999/xlink" x="0px" y="0px"
	 viewBox="0 0 515.3 180.1" style="enable-background:new 0 0 515.3 180.1;" xml:space="preserve">
<style type="text/css">
	.st0{fill:#FFFFFF;}
</style>
<g>
	<path class="st0" d="M5.7,176.7c10.7,0,11.9-6.7,11.9-16.6v-44.9c0-9.9-1.2-16.6-11.9-16.6v-1.2l42.3-4v16.2
		c8.1-8.5,19.4-16.2,32.8-16.2c13.4,0,24.9,7.7,24.9,27.1v39.5c0,9.9,1.2,16.6,11.9,16.6v1.2H64.4v-1.2c8.3,0,9.9-6.7,9.9-16.6V117
		c0-9.7-4.3-13.6-10.5-13.6c-5.9,0-10.9,3.4-14.8,7.1v49.6c0,9.9,1.6,16.6,9.9,16.6v1.2H5.7V176.7z M234.2,137.2
		c0-23.5,14.4-43.7,42.1-43.7c9.3,0,15.4,2.4,19.6,4.5V72.1c0-8.1,1.8-15,4.7-20.8C265.2,35,226.7,6.9,191.5,6.9
		c-22.1,0-37.4,11.3-37.4,31.4c0,8.1,2.6,21,14.6,31.6c-24.5-1.8-42.7-16.2-42.7-35c0-18.4,17.2-35,49-35
		c44.3,0,88.8,31.8,126.5,49.4c8.7-14.6,25.9-21.7,41.9-21.7c16.2,0,22.7,7.1,22.7,17c0,11.1-8.3,18-24.1,18
		c-4.9,0-9.9-0.6-14.8-1.8v99.2c0,9.9,1.2,16.6,11.9,16.6v1.2h-42.3v-10.5c-5.5,6.5-14,12.6-26.7,12.6
		C247.3,180.1,234.2,159.5,234.2,137.2z M126.1,156.7c0-16.8,15.6-23.1,34.8-23.1c7.3,0,15.4,1,21.5,2.6v-20.8
		c0-11.3-2.4-21-15.2-21c-8.3,0-13.4,4.1-16.8,8.7c5.3,2.6,8.7,8.3,8.7,14c0,8.1-6.5,14.4-15,14.4c-9.3,0-14.2-7.7-14.2-14.8
		c0-13,15.8-23.3,39.1-23.3c20.8,0,44.9,8.3,44.9,32v42.3c0,3.8,2,5.5,5.1,5.5c4.9,0,9.5-4.9,12.6-9.7l1,0.6
		c-5.5,7.9-12.3,15.6-26.1,15.6c-12.3,0-19.4-6.1-22.3-13.8c-5.3,7.3-14,14-29.1,14C138,180.1,126.1,171.4,126.1,156.7z M182.4,166
		v-28.3c-3-0.8-6.5-1.6-9.5-1.6c-10.3,0-14.6,7.1-14.6,19c0,9.7,3,18.4,11.5,18.4C173.9,173.5,178.3,171.4,182.4,166z M295.9,166.4
		V105c-2.6-5.3-6.9-9.7-12.5-9.7C270,95.3,267,121.2,267,136c0,20.8,5.9,35.8,17.6,35.8C289.4,171.8,293.1,169.2,295.9,166.4z
		 M342.1,61.1c15.2,0,22.1-7.5,22.1-16.4c0-8.3-5.9-15.2-17.2-15.2c-15.2,0-19.2,12.3-19.8,29.6C332.4,60.5,337.4,61.1,342.1,61.1z
		 M344.9,176.7c10.7,0,11.9-6.7,11.9-16.6v-44.9c0-9.9-1.2-16.6-11.9-16.6v-1.2l43.3-4v66.6c0,9.9,1.2,16.6,11.9,16.6v1.2h-55.1
		V176.7L344.9,176.7z M354,66.2c0-10.1,8.1-17.2,18.2-17.2c10.1,0,18.2,7.1,18.2,17.2c0,10.3-8.1,17.4-18.2,17.4
		C362.1,83.6,354,76.5,354,66.2z M408.7,156.7c0-16.8,15.6-23.1,34.8-23.1c7.3,0,15.4,1,21.5,2.6v-20.8c0-11.3-2.4-21-15.2-21
		c-8.3,0-13.4,4.1-16.8,8.7c5.3,2.6,8.7,8.3,8.7,14c0,8.1-6.5,14.4-15,14.4c-9.3,0-14.2-7.7-14.2-14.8c0-13,15.8-23.3,39.1-23.3
		c20.8,0,44.9,8.3,44.9,32v42.3c0,3.8,2,5.5,5.1,5.5c4.9,0,9.5-4.9,12.7-9.7l1,0.6c-5.5,7.9-12.3,15.6-26.1,15.6
		c-12.3,0-19.4-6.1-22.3-13.8c-5.3,7.3-14,14-29.1,14C420.6,180.1,408.7,171.4,408.7,156.7z M465.1,166v-28.3
		c-3-0.8-6.5-1.6-9.5-1.6c-10.3,0-14.6,7.1-14.6,19c0,9.7,3,18.4,11.5,18.4C456.6,173.5,460.9,171.4,465.1,166z"/>
</g>
</svg>
