<?xml version="1.0" encoding="utf-8"?>
<!-- Generator: Adobe Illustrator 21.1.0, SVG Export Plug-In . SVG Version: 6.00 Build 0)  -->
<svg version="1.1" id="Layer_1" xmlns="http://www.w3.org/2000/svg" xmlns:xlink="http://www.w3.org/1999/xlink" x="0px" y="0px"
	 viewBox="0 0 509.9 223.9" style="enable-background:new 0 0 509.9 223.9;" xml:space="preserve">
<style type="text/css">
	.st0{fill:#FFFFFF;}
	.st1{fill:#FFFFFF;stroke:#004CFF;stroke-width:0.5;stroke-miterlimit:3;}
</style>
<polygon class="st0" points="369.9,212.5 369.1,216.7 370.8,216.7 369.9,212.5 "/>
<polygon class="st0" points="405.8,212.5 405,216.7 406.6,216.7 405.8,212.5 "/>
<path class="st0" d="M340.2,207.2v16.7h141.6v-16.7H340.2z M354.8,220.3h-2.1v-7.4h0l-1.5,7.4h-1.7l-1.5-7.4h0v7.4h-2h0v-9.5h3.3
	l1.2,6.2h0l1.1-6.2h3.2V220.3z M371.4,220.3l-0.3-1.8h-2.3l-0.3,1.8h-2.3l2.4-9.5h2.8l2.4,9.5H371.4z M391,220.3h-1.5l-0.1-0.9h0
	c-0.3,0.9-1.2,1.1-2.1,1.1c-2.4,0-2.8-1.8-2.8-4.7c0-3.1,0.2-5.1,3.4-5.1c2.9,0,3,2,3,3.1h-2.2c0-0.6-0.1-1.6-0.9-1.6
	c-0.9,0-1,0.9-1,3.5c0,2.6,0.1,3.4,1,3.4c0.8,0,1-0.7,1-2v-0.3h-1.1v-1.5h3.1V220.3z M407.3,220.3l-0.3-1.8h-2.3l-0.3,1.8H402
	l2.4-9.5h2.8l2.4,9.5H407.3z M426.3,212.3l-3.3,6.1h3.3v1.8h-5.8h0h0v-1.6l3.2-6h-3v-1.8h5.5V212.3z M440.1,220.3h-2.2v-9.5h2.2
	V220.3z M458.5,220.3H456l-2-6.6h0v6.6h-2h0v-9.5h2.6l1.8,6.2h0v-6.2h2.1V220.3z M476.1,220.3h-5.6h0h0v-9.5h5.5v1.8h-3.3v1.9h3.1
	v1.8h-3.1v2.2h3.4V220.3z"/>
<path class="st1" d="M110.3,200.4h2.4V19.8c0-11.6,1.5-15.2,9.7-15.2h8.2V0H91.3v4.5h8.7c8.2,0,9.7,3.7,9.7,15.2v127.6h-0.4L39.1,0
	H0v4.5h17.9v173.6c0,13.5-3,16.1-11.5,16.1H0v4.5h39.8v-4.5h-7.4c-8.6,0-11.5-2.5-11.5-16.1V13.6h0.4L110.3,200.4L110.3,200.4z
	 M159.4,194.2h-16.4v4.5h108.5v-57.9h-3c0,48-14.5,53.4-44.6,53.4h-25.5V99.9h13.8c19.5,0,21.4,13,21.4,34.4h3V59.3h-3
	c0,18.3-1.9,36.1-21.2,36.1h-14V4.5h29.2c19.7,0,33.9,11,33.9,43.5h3l-2.2-48h-99.2v4.5h16.4L159.4,194.2L159.4,194.2z M309.6,4.5
	h15.6V0h-54.5v4.5h16.2l36.3,96.3l-33.7,79c-5.6,13.3-11.9,14.4-20.8,14.4H264v4.5h43.7v-4.5h-9.3c-4.7,0-7.3-1.7-7.3-5.1
	c0-2.3,0.2-3.4,6.5-18.3l27.3-64.9l32.4,88.4h-16.9v4.5h54.1v-4.5h-15.1L336.9,78.8l23.8-57c5.2-12.4,8.7-17.2,16.6-17.2h6.1V0
	h-40.4v4.5h5.8c8.9,0,10.8,2.5,10.8,7.3c0,2.3-0.6,4.2-2.6,9L334.9,74L309.6,4.5L309.6,4.5z M443.5,194.2h-19.2v4.5h57.3v-4.5h-19.2
	V4.5h4.1c32.9,0,40.4,7.6,40.4,53.9h3V0H396.1v58.4h3c0-46.3,7.4-53.9,40.6-53.9h3.9L443.5,194.2L443.5,194.2z"/>
<path class="st0" d="M110.3,200.4h2.4V19.8c0-11.6,1.5-15.2,9.7-15.2h8.2V0H91.3v4.5h8.7c8.2,0,9.7,3.7,9.7,15.2v127.6h-0.4L39.1,0
	H0v4.5h17.9v173.6c0,13.5-3,16.1-11.5,16.1H0v4.5h39.8v-4.5h-7.4c-8.6,0-11.5-2.5-11.5-16.1V13.6h0.4L110.3,200.4L110.3,200.4z
	 M159.4,194.2h-16.4v4.5h108.5v-57.9h-3c0,48-14.5,53.4-44.6,53.4h-25.5V99.9h13.8c19.5,0,21.4,13,21.4,34.4h3V59.3h-3
	c0,18.3-1.9,36.1-21.2,36.1h-14V4.5h29.2c19.7,0,33.9,11,33.9,43.5h3l-2.2-48h-99.2v4.5h16.4L159.4,194.2L159.4,194.2z M309.6,4.5
	h15.6V0h-54.5v4.5h16.2l36.3,96.3l-33.7,79c-5.6,13.3-11.9,14.4-20.8,14.4H264v4.5h43.7v-4.5h-9.3c-4.7,0-7.3-1.7-7.3-5.1
	c0-2.3,0.2-3.4,6.5-18.3l27.3-64.9l32.4,88.4h-16.9v4.5h54.1v-4.5h-15.1L336.9,78.8l23.8-57c5.2-12.4,8.7-17.2,16.6-17.2h6.1V0
	h-40.4v4.5h5.8c8.9,0,10.8,2.5,10.8,7.3c0,2.3-0.6,4.2-2.6,9L334.9,74L309.6,4.5L309.6,4.5z M443.5,194.2h-19.2v4.5h57.3v-4.5h-19.2
	V4.5h4.1c32.9,0,40.4,7.6,40.4,53.9h3V0H396.1v58.4h3c0-46.3,7.4-53.9,40.6-53.9h3.9L443.5,194.2L443.5,194.2z"/>
</svg>
