<?xml version="1.0" encoding="utf-8"?>
<!-- Generator: Adobe Illustrator 21.1.0, SVG Export Plug-In . SVG Version: 6.00 Build 0)  -->
<svg version="1.1" id="Layer_1" xmlns="http://www.w3.org/2000/svg" xmlns:xlink="http://www.w3.org/1999/xlink" x="0px" y="0px"
	 viewBox="0 0 576 125" style="enable-background:new 0 0 576 125;" xml:space="preserve">
<style type="text/css">
	.st0{filter:url(#Adobe_OpacityMaskFilter);}
	.st1{fill:#FFFFFF;}
	.st2{mask:url(#mask-2);fill:#FFFFFF;}
	.st3{filter:url(#Adobe_OpacityMaskFilter_1_);}
	.st4{mask:url(#mask-4);fill:#FFFFFF;}
	.st5{filter:url(#Adobe_OpacityMaskFilter_2_);}
	.st6{mask:url(#mask-6);fill:#FFFFFF;}
	.st7{filter:url(#Adobe_OpacityMaskFilter_3_);}
	.st8{mask:url(#mask-8);fill:#FFFFFF;}
	.st9{filter:url(#Adobe_OpacityMaskFilter_4_);}
	.st10{mask:url(#mask-10);fill:#FFFFFF;}
	.st11{filter:url(#Adobe_OpacityMaskFilter_5_);}
	.st12{mask:url(#mask-12);fill:#FFFFFF;}
	.st13{filter:url(#Adobe_OpacityMaskFilter_6_);}
	.st14{mask:url(#mask-14);fill:#FFFFFF;}
	.st15{filter:url(#Adobe_OpacityMaskFilter_7_);}
	.st16{mask:url(#mask-16);fill:#FFFFFF;}
	.st17{filter:url(#Adobe_OpacityMaskFilter_8_);}
	.st18{mask:url(#mask-18);fill:#FFFFFF;}
	.st19{filter:url(#Adobe_OpacityMaskFilter_9_);}
	.st20{mask:url(#mask-20);fill:#FFFFFF;}
	.st21{filter:url(#Adobe_OpacityMaskFilter_10_);}
	.st22{mask:url(#mask-22);fill:#FFFFFF;}
</style>
<title>NZAWW-logo</title>
<desc>Created with Sketch.</desc>
<g id="Page-1">
	<g id="NZAWW-logo" transform="translate(-9.000000, -7.000000)">
		<g id="Group">
			<g id="Clipped">
				<g id="SVGID_1_">
				</g>
				<defs>
					<filter id="Adobe_OpacityMaskFilter" filterUnits="userSpaceOnUse" x="10.5" y="115.3" width="183.1" height="12.1">
						<feColorMatrix  type="matrix" values="1 0 0 0 0  0 1 0 0 0  0 0 1 0 0  0 0 0 1 0"/>
					</filter>
				</defs>
				<mask maskUnits="userSpaceOnUse" x="10.5" y="115.3" width="183.1" height="12.1" id="mask-2">
					<g class="st0">
						<rect id="path-1" class="st1" width="594" height="132.1"/>
					</g>
				</mask>
				<path id="Shape" class="st2" d="M184.2,127.1h3v-6.3h0l3.2,6.3h3.1v-11.5h-3v6.2h0l-3-6.2h-3.3V127.1z M175.4,121.4
					c0-2.6,1.3-3.2,2.1-3.2c0.8,0,2.1,0.6,2.1,3.2c0,2.6-1.3,3.2-2.1,3.2C176.6,124.5,175.4,123.9,175.4,121.4z M172.2,121.4
					c0,3.5,2.1,6,5.3,6c3.2,0,5.3-2.5,5.3-6c0-3.5-2.1-6-5.3-6C174.3,115.3,172.2,117.8,172.2,121.4z M167.5,127.1h3.2v-11.5h-3.2
					V127.1z M160.1,127.1h3.2v-8.6h2.9v-3h-9v3h2.9V127.1z M152.7,127.1h3.2v-11.5h-3.2V127.1z M144.4,118.6h1c2.3,0,2.5,2,2.5,2.7
					c0,1.1-0.3,2.9-2.3,2.9h-1.3V118.6z M141.2,127.1h4.6c3.6,0,5.3-2.2,5.3-5.8c0-2.9-1.2-5.8-4.7-5.8h-5.2V127.1z M130.8,127.1
					h8.8v-3H134v-1.4h4.9V120H134v-1.4h5.4v-3h-8.6V127.1z M117.1,118.6h1c2.3,0,2.5,2,2.5,2.7c0,1.1-0.3,2.9-2.3,2.9h-1.3V118.6z
					 M113.9,127.1h4.6c3.6,0,5.3-2.2,5.3-5.8c0-2.9-1.2-5.8-4.7-5.8h-5.2V127.1z M102.7,127.1h3v-6.3h0l3.2,6.3h3.1v-11.5h-3v6.2h0
					l-3-6.2h-3.3V127.1z M91.1,127.1h3.2l0.5-1.6h3.3l0.4,1.6h3.3l-3.8-11.5H95L91.1,127.1z M95.5,123l1-3.6h0l0.9,3.6H95.5z
					 M82.8,127.1h7.8v-3H86v-8.6h-3.2V127.1z M71.2,127.1h3.2l0.5-1.6h3.3l0.4,1.6h3.3l-3.8-11.5H75L71.2,127.1z M75.6,123l1-3.6h0
					l0.9,3.6H75.6z M61.8,127.1h8.8v-3H65v-1.4h4.9V120H65v-1.4h5.4v-3h-8.6V127.1z M51.2,127.1h9.3v-3h-5.1l4.9-6v-2.6h-8.8v3H56
					l-4.8,5.8V127.1z M45.3,115.6h-3.2l-1.3,7.2h0l-1.2-7.2h-2.8l-1.3,7.1h0l-1.3-7.1h-3.1l2.8,11.5H37l1.1-7h0l1.1,7h3.1
					L45.3,115.6z M21.6,127.1h8.8v-3h-5.6v-1.4h4.9V120h-4.9v-1.4h5.4v-3h-8.6L21.6,127.1L21.6,127.1z M10.5,127.1h3v-6.3h0l3.2,6.3
					h3.1v-11.5h-3v6.2h0l-3-6.2h-3.3V127.1z"/>
			</g>
			<g id="Clipped_1_">
				<g id="SVGID_2_">
				</g>
				<defs>
					<filter id="Adobe_OpacityMaskFilter_1_" filterUnits="userSpaceOnUse" x="85.2" y="7.5" width="166.3" height="18.5">
						<feColorMatrix  type="matrix" values="1 0 0 0 0  0 1 0 0 0  0 0 1 0 0  0 0 0 1 0"/>
					</filter>
				</defs>
				<mask maskUnits="userSpaceOnUse" x="85.2" y="7.5" width="166.3" height="18.5" id="mask-4">
					<g class="st3">
						<rect id="path-3" class="st1" width="594" height="132.1"/>
					</g>
				</mask>
				<path id="Shape_1_" class="st4" d="M239.9,25.6h3.7V16h0l3.9,9.6h3.9V8h-3.7v9.4h0L244,8h-4.1V25.6z M225.6,25.6h4l0.6-2.5h4.1
					l0.5,2.5h4.1L234.2,8h-3.9L225.6,25.6z M231,19.3l1.2-5.4h0l1.2,5.4H231z M220.6,25.6h4V8h-4V25.6z M209.4,25.6h9.7v-4.5h-5.7V8
					h-4V25.6z M195,25.6h4l0.6-2.5h4.1l0.5,2.5h4.1L203.6,8h-3.9L195,25.6z M200.4,19.3l1.2-5.4h0l1.2,5.4H200.4z M186.3,12.2h1.9
					c1.5,0,2,0.6,2,1.8c0,1.6-1,1.8-1.7,1.8h-2.1V12.2z M182.3,25.6h4v-6.1h2.1c1.6,0,1.7,1.8,1.8,3.4c0.1,0.9,0.1,1.8,0.3,2.7h4
					c-0.4-0.8-0.4-2.9-0.4-3.8c-0.1-2.2-0.8-3.8-1.9-4.4c1.3-0.7,1.9-2.6,1.9-4.4c0-3.3-1.9-5-4.2-5h-7.6V25.6z M173.1,25.6h4V12.5
					h3.6V8h-11.2v4.5h3.6V25.6z M157.1,19.7c0,5.6,4.2,6.3,5.7,6.3c2.9,0,5.9-1.5,5.9-6.1c0-3.2-1.8-4.4-3.6-5.1
					c-1.8-0.7-3.7-1-3.7-2.2c0-1,0.9-1.2,1.4-1.2c0.4,0,0.8,0.1,1.2,0.4c0.3,0.3,0.5,0.7,0.5,1.4h3.7c-0.1-4.3-2.6-5.8-5.4-5.8
					c-2.6,0-5.2,1.8-5.2,5.8c0,3.6,2.3,4.3,4.4,5.1c2.2,0.9,2.8,1.1,2.8,2c0,1.3-1,1.6-1.6,1.6c-0.7,0-1.6-0.2-1.9-1.3
					c-0.1-0.3-0.1-0.7-0.1-1.2H157.1z M155.7,8h-4v9.6c0,1.8,0,4-1.9,4c-1.9,0-1.9-2.2-1.9-4V8h-4v10.8c0,4.9,1.9,7.2,5.9,7.2
					s5.9-2.3,5.9-7.2V8z M130.4,25.6h4l0.6-2.5h4.1l0.5,2.5h4.1L139,8h-3.9L130.4,25.6z M135.8,19.3l1.2-5.4h0l1.2,5.4H135.8z
					 M111.9,25.6h10.8v-4.5h-6.9v-2.2h6.1v-4.2h-6.1v-2.2h6.7V8h-10.7V25.6z M98,25.6h4v-7h3.7v7h4V8h-4v6.1H102V8h-4V25.6z
					 M88.8,25.6h4V12.5h3.6V8H85.2v4.5h3.6V25.6z"/>
			</g>
			<g id="Clipped_2_">
				<g id="SVGID_3_">
				</g>
				<defs>
					<filter id="Adobe_OpacityMaskFilter_2_" filterUnits="userSpaceOnUse" x="76.1" y="38.8" width="38.6" height="71.9">
						<feColorMatrix  type="matrix" values="1 0 0 0 0  0 1 0 0 0  0 0 1 0 0  0 0 0 1 0"/>
					</filter>
				</defs>
				<mask maskUnits="userSpaceOnUse" x="76.1" y="38.8" width="38.6" height="71.9" id="mask-6">
					<g class="st5">
						<rect id="path-5" class="st1" width="594" height="132.1"/>
					</g>
				</mask>
				<path id="Shape_2_" class="st6" d="M95.5,57.8c-5.1,0-5.8,9.6-5.8,16.9c0,7.3,0.7,17,5.8,17c5.1,0,5.8-9.8,5.8-17
					C101.3,67.4,100.6,57.8,95.5,57.8 M95.5,110.7c-13.3,0-19.3-17-19.3-36c0-19,6-35.9,19.3-35.9s19.3,16.9,19.3,35.9
					C114.8,93.6,108.8,110.7,95.5,110.7"/>
			</g>
			<g id="Clipped_3_">
				<g id="SVGID_4_">
				</g>
				<defs>
					<filter id="Adobe_OpacityMaskFilter_3_" filterUnits="userSpaceOnUse" x="118.2" y="38.8" width="58.5" height="70.2">
						<feColorMatrix  type="matrix" values="1 0 0 0 0  0 1 0 0 0  0 0 1 0 0  0 0 0 1 0"/>
					</filter>
				</defs>
				<mask maskUnits="userSpaceOnUse" x="118.2" y="38.8" width="58.5" height="70.2" id="mask-8">
					<g class="st7">
						<rect id="path-7" class="st1" width="594" height="132.1"/>
					</g>
				</mask>
				<path id="Path" class="st8" d="M118.2,40.5h13v9.1h0.1c2.7-7.9,6.7-10.8,11.6-10.8c3.8,0,7.9,3.8,9.6,10.7
					c0.5-0.8,3.3-10.7,12.1-10.7c9.1,0,12.1,12.1,12.1,23.2v47h-13.5V71.9c0-6.5-0.3-12.3-4.4-12.3c-3.4,0-4.6,5.1-4.6,12.3V109
					h-13.5V71.9c0-6.5-0.3-12.3-4.4-12.3c-3.4,0-4.6,5.1-4.6,12.3V109h-13.5L118.2,40.5L118.2,40.5z"/>
			</g>
			<g id="Clipped_4_">
				<g id="SVGID_5_">
				</g>
				<defs>
					<filter id="Adobe_OpacityMaskFilter_4_" filterUnits="userSpaceOnUse" x="180.1" y="38.8" width="38.8" height="71.9">
						<feColorMatrix  type="matrix" values="1 0 0 0 0  0 1 0 0 0  0 0 1 0 0  0 0 0 1 0"/>
					</filter>
				</defs>
				<mask maskUnits="userSpaceOnUse" x="180.1" y="38.8" width="38.8" height="71.9" id="mask-10">
					<g class="st9">
						<rect id="path-9" class="st1" width="594" height="132.1"/>
					</g>
				</mask>
				<path id="Shape_3_" class="st10" d="M205.9,67c0-6.3-2.5-11.5-5.9-11.5c-4,0-6.3,4.1-7,11.5H205.9z M193,80.6
					c0.3,7.8,2.7,13.3,6.9,13.3c2.2,0,4.6-1.6,5.7-4.9h12.6c-2.7,14.8-10.2,21.6-18.2,21.6c-11.3,0-19.9-12.9-19.9-35.8
					c0-19.9,7.5-36.2,18.7-36.2c14.1,0,20.1,15.2,20.1,41.8L193,80.6L193,80.6z"/>
			</g>
			<g id="Clipped_5_">
				<g id="SVGID_6_">
				</g>
				<defs>
					<filter id="Adobe_OpacityMaskFilter_5_" filterUnits="userSpaceOnUse" x="223.1" y="38.8" width="36.8" height="70.2">
						<feColorMatrix  type="matrix" values="1 0 0 0 0  0 1 0 0 0  0 0 1 0 0  0 0 0 1 0"/>
					</filter>
				</defs>
				<mask maskUnits="userSpaceOnUse" x="223.1" y="38.8" width="36.8" height="70.2" id="mask-12">
					<g class="st11">
						<rect id="path-11" class="st1" width="594" height="132.1"/>
					</g>
				</mask>
				<path id="Path_1_" class="st12" d="M223.1,40.5h13v8.7h0.1c2.5-6.9,6.1-10.4,11.5-10.4c6.3,0,12.1,7.5,12.1,23.2v47h-13.5V73.1
					c0-7.9-0.5-13.5-4.4-13.5c-2.3,0-5.4,2.2-5.4,13.2V109h-13.5L223.1,40.5L223.1,40.5z"/>
			</g>
			<g id="Clipped_6_">
				<g id="SVGID_7_">
				</g>
				<defs>
					<filter id="Adobe_OpacityMaskFilter_6_" filterUnits="userSpaceOnUse" x="264.3" y="7.9" width="13.9" height="35.8">
						<feColorMatrix  type="matrix" values="1 0 0 0 0  0 1 0 0 0  0 0 1 0 0  0 0 0 1 0"/>
					</filter>
				</defs>
				<mask maskUnits="userSpaceOnUse" x="264.3" y="7.9" width="13.9" height="35.8" id="mask-14">
					<g class="st13">
						<rect id="path-13" class="st1" width="594" height="132.1"/>
					</g>
				</mask>
				<path id="Path_2_" class="st14" d="M264.3,7.9h13.9v14.8c0,8.9-2.2,17.1-8.2,19.8c-2.4,1.1-4.5,1.1-5.8,1.1v-8.2
					c3.3-0.4,5.8-4.3,6-8.9h-6V7.9z"/>
			</g>
			<g id="Clipped_7_">
				<g id="SVGID_8_">
				</g>
				<defs>
					<filter id="Adobe_OpacityMaskFilter_7_" filterUnits="userSpaceOnUse" x="276.2" y="38.8" width="35.7" height="71.9">
						<feColorMatrix  type="matrix" values="1 0 0 0 0  0 1 0 0 0  0 0 1 0 0  0 0 0 1 0"/>
					</filter>
				</defs>
				<mask maskUnits="userSpaceOnUse" x="276.2" y="38.8" width="35.7" height="71.9" id="mask-16">
					<g class="st15">
						<rect id="path-15" class="st1" width="594" height="132.1"/>
					</g>
				</mask>
				<path id="Path_3_" class="st16" d="M298.6,60.4c-0.1-2.2-0.7-4-1.6-5.1c-0.8-1.3-1.9-2-3-2c-1.9,0-4.1,0.8-4.1,5.3
					c0,2,0.8,2.9,1.6,3.6c2.3,1.8,7.4,2.4,11.9,5.3c4.5,2.8,8.5,7.9,8.5,19.1c0,19-9.4,24.1-18,24.1c-8.3,0-17.5-6.5-17.7-24.1h12.9
					c0.1,2.4,0.6,4.4,1.6,6.1c0.7,1.2,2,2,3.6,2c1.8,0,4.6-1.3,4.6-5.3s-1.2-5.1-7.4-7.3c-10.3-3.4-14.5-9.8-14.5-21.5
					c0-17.3,9.6-21.8,16.7-21.8c7.6,0,16.9,4.1,17.2,21.6H298.6z"/>
			</g>
		</g>
		<polygon id="Path_4_" class="st1" points="376.8,109 371.2,47.5 371.1,47.5 365.6,109 349.9,109 335.7,8 351.5,8 357.8,70.4 
			358,70.4 364.3,8 378.5,8 384.6,71.2 384.7,71.2 391.2,8 407.1,8 392.5,109 		"/>
		<g id="Group_1_">
			<g id="Clipped_8_">
				<g id="SVGID_9_">
				</g>
				<defs>
					<filter id="Adobe_OpacityMaskFilter_8_" filterUnits="userSpaceOnUse" x="402.3" y="38.8" width="38.8" height="71.9">
						<feColorMatrix  type="matrix" values="1 0 0 0 0  0 1 0 0 0  0 0 1 0 0  0 0 0 1 0"/>
					</filter>
				</defs>
				<mask maskUnits="userSpaceOnUse" x="402.3" y="38.8" width="38.8" height="71.9" id="mask-18">
					<g class="st17">
						<rect id="path-17" class="st1" width="594" height="132.1"/>
					</g>
				</mask>
				<path id="Shape_4_" class="st18" d="M428.1,67c0-6.3-2.5-11.5-5.9-11.5c-4,0-6.3,4.1-7,11.5H428.1z M415.2,80.6
					c0.3,7.8,2.7,13.3,6.9,13.3c2.2,0,4.6-1.6,5.7-4.9h12.6c-2.7,14.8-10.2,21.6-18.2,21.6c-11.3,0-19.9-12.9-19.9-35.8
					c0-19.9,7.5-36.2,18.7-36.2c14.1,0,20.1,15.2,20.1,41.8L415.2,80.6L415.2,80.6z"/>
			</g>
			<g id="Clipped_9_">
				<g id="SVGID_10_">
				</g>
				<defs>
					<filter id="Adobe_OpacityMaskFilter_9_" filterUnits="userSpaceOnUse" x="443.6" y="38.8" width="38.8" height="71.9">
						<feColorMatrix  type="matrix" values="1 0 0 0 0  0 1 0 0 0  0 0 1 0 0  0 0 0 1 0"/>
					</filter>
				</defs>
				<mask maskUnits="userSpaceOnUse" x="443.6" y="38.8" width="38.8" height="71.9" id="mask-20">
					<g class="st19">
						<rect id="path-19" class="st1" width="594" height="132.1"/>
					</g>
				</mask>
				<path id="Shape_5_" class="st20" d="M469.5,67c0-6.3-2.5-11.5-5.9-11.5c-4,0-6.3,4.1-7,11.5H469.5z M456.5,80.6
					c0.3,7.8,2.7,13.3,6.9,13.3c2.2,0,4.6-1.6,5.7-4.9h12.6c-2.7,14.8-10.2,21.6-18.2,21.6c-11.3,0-19.9-12.9-19.9-35.8
					c0-19.9,7.5-36.2,18.7-36.2c14.1,0,20.1,15.2,20.1,41.8L456.5,80.6L456.5,80.6z"/>
			</g>
		</g>
		<polygon id="Path_5_" class="st1" points="509.1,109 501.9,84.1 499.5,89.2 499.5,109 486,109 486,14.7 499.5,14.7 499.5,60.3 
			508.1,40.5 523.4,40.5 510.8,66.3 525.4,109 		"/>
		<rect id="Rectangle" x="528" y="14.7" class="st1" width="13.5" height="94.2"/>
		<g id="Clipped_10_">
			<g id="SVGID_11_">
			</g>
			<defs>
				<filter id="Adobe_OpacityMaskFilter_10_" filterUnits="userSpaceOnUse" x="545" y="40.5" width="40" height="90.7">
					<feColorMatrix  type="matrix" values="1 0 0 0 0  0 1 0 0 0  0 0 1 0 0  0 0 0 1 0"/>
				</filter>
			</defs>
			<mask maskUnits="userSpaceOnUse" x="545" y="40.5" width="40" height="90.7" id="mask-22">
				<g class="st21">
					<rect id="path-21" class="st1" width="594" height="132.1"/>
				</g>
			</mask>
			<path id="Path_6_" class="st22" d="M573.3,103.7c-1.1,6.1-2.3,13.9-4.4,19c-3.5,8.6-9,8.4-14.3,8.4h-6.1v-20.8h3.1
				c1.4,0,3.1,0.3,4.1-0.7c0.8-0.8,1.3-2.1,1.3-5.1c0-3.3-5.2-28.5-5.9-32.5l-6-31.5h14.5l5.7,39.3h0.1l5.7-39.3h14L573.3,103.7z"/>
		</g>
		<polygon id="Path_7_" class="st1" points="50.2,109 44.5,47.5 44.4,47.5 38.9,109 23.2,109 9,8 24.8,8 31.1,70.4 31.3,70.4 
			37.6,8 51.8,8 57.9,71.2 58.1,71.2 64.6,8 80.4,8 65.8,109 		"/>
	</g>
</g>
</svg>
