<?xml version="1.0" encoding="utf-8"?>
<!-- Generator: Adobe Illustrator 21.1.0, SVG Export Plug-In . SVG Version: 6.00 Build 0)  -->
<svg version="1.1" id="Layer_1" xmlns="http://www.w3.org/2000/svg" xmlns:xlink="http://www.w3.org/1999/xlink" x="0px" y="0px"
	 viewBox="0 0 557.4 114.7" style="enable-background:new 0 0 557.4 114.7;" xml:space="preserve">
<style type="text/css">
	.st0{fill:#FFFFFF;}
</style>
<g>
	<g>
		<path class="st0" d="M524,114.7h14.4l18.9-81.6h-13.2l-7.4,41.6h-0.2l-7-41.6H516l13.3,59.6L524,114.7z M503.8,92.4h13.7V7.8
			h-13.7V92.4z M477.9,92.4V60.1h0.2l12.7,32.2h15.4l-15.4-32.8l13.9-26.4h-14.3l-12.3,25h-0.2V7.8h-13.7v84.6L477.9,92.4
			L477.9,92.4z M464.1,65.4c0.5-19-1.6-33.4-20-33.4c-18.1,0-20,13.8-20,30c0,18.5,2.3,31.5,20,31.5c6.4,0,11.3-2.1,14.5-5.7
			c3.3-3.6,5.1-8.9,5.2-15.3h-13.9c0,4.9-1,10.5-5.8,10.5c-6,0-6.2-10.5-6.2-17.6C437.9,65.4,464.1,65.4,464.1,65.4z M437.9,56.2
			c0-5-0.1-13.9,6.2-13.9c6.5,0,6.3,8.2,6.3,13.9H437.9z M424.6,65.4c0.5-19-1.6-33.4-20-33.4c-18.1,0-20,13.8-20,30
			c0,18.5,2.3,31.5,20,31.5c6.4,0,11.3-2.1,14.5-5.7c3.3-3.6,5.1-8.9,5.2-15.3h-13.9c0,4.9-1,10.5-5.8,10.5c-6,0-6.2-10.5-6.2-17.6
			C398.4,65.4,424.6,65.4,424.6,65.4z M398.4,56.2c0-5-0.1-13.9,6.2-13.9c6.5,0,6.3,8.2,6.3,13.9H398.4z M320.3,92.4H337l12.8-65
			h0.2l11.5,65h17l16.3-88.8h-15.1l-9.2,62.4h-0.2l-11-62.4h-18.2l-11.6,62.4h-0.2l-9.6-62.4H304L320.3,92.4z M264.9,73.4
			c-0.8,16.5,7.2,20.2,19.1,20.2c11.4,0,18.4-7.7,18.4-18c0-19-24.1-18.5-24.1-27.9c0-4,1.7-6.3,4.7-6.3c1.5,0,2.6,0.2,3.5,1.3
			c1,1.1,1.4,3.5,1.4,7.6h13.4c0.8-12.8-7.7-18.2-17-18.2c-8.8,0-19.3,3.9-19.3,16.6c0,18.9,24.1,16.1,24.1,28.6
			c0,4-2.3,6.1-5.1,6.1s-4.2-0.9-5-2.8c-0.7-1.9-0.8-4.5-0.7-7.1L264.9,73.4L264.9,73.4z M255.3,31.8h9.3l7.1-23.1h-13L255.3,31.8z
			 M236.2,33.2h-13.7v59.2h13.7V51.6c0-5.3,0.8-9.4,5.1-9.4c4.4,0,5.1,4.1,5.1,9.4v40.8h13.7V44.9c0-8.2-5.7-12.9-12.2-12.9
			c-2.5,0-4.8,0.5-6.7,1.6c-1.8,1.1-3.5,2.8-4.9,5.5h-0.2V33.2z M219.9,51.8c0-10.8-2.2-19.8-19.6-19.8c-5.2,0-9.7,1.1-12.8,3.9
			c-3.2,2.7-5.1,7.3-5.1,14.4h13.4c0-4.7,0.4-9,5.1-9c5,0,5.5,3.6,5.5,8.7v4.6c-12.7-0.2-25.3,0.6-25.3,20.2
			c0,10.3,3.5,18.9,13,18.9c5.9,0,9.9-2.9,12.8-9h0.2l0.6,7.9h12.7c-0.3-3.6-0.7-7.4-0.7-11L219.9,51.8L219.9,51.8z M206.5,63.8
			c0,6.4,1.3,19.6-6.8,19.6c-4.5,0-5.1-5.2-5.1-9.4C194.7,63.4,199.7,64.1,206.5,63.8 M134.2,33.2h-13.7v59.2h13.7V51.6
			c0-5.3,0.8-9.4,5.1-9.4c4.4,0,5.1,4.1,5.1,9.4v40.8h13.4V51.6c0-5.3,0.8-9.4,5.1-9.4s5.1,4.1,5.1,9.4v40.8h13.7V44.9
			c0-8.2-5.7-12.9-12.2-12.9c-5.6,0-9.5,2.3-12.7,7.5c-2.2-4.7-6.1-7.5-11-7.5c-5.1,0-8.8,1.9-11.6,7.2h-0.2L134.2,33.2L134.2,33.2z
			 M100.6,93.5c17.7,0,20-13,20-31.5c0-16.2-1.9-30-20-30c-18.1,0-20,13.8-20,30C80.6,80.5,82.9,93.5,100.6,93.5 M100.6,83
			c-5.1,0-6.3-3.9-6.3-21.9c0-12.3,0.5-18.5,6.3-18.5s6.3,6.2,6.3,18.5C106.9,79.1,105.7,83,100.6,83 M16.3,92.4H33l12.8-65H46
			l11.5,65h17L90.9,3.5H75.8l-9.2,62.4h-0.2l-11-62.4H37.2L25.6,65.9h-0.2L15.8,3.5H0L16.3,92.4z"/>
	</g>
	<g>
		<path class="st0" d="M240,11.8h0.5c0.8,0,1.3,0.3,1.7,0.9c0.4,0.6,0.5,1.5,0.5,2.9c0,1.3-0.1,2.3-0.5,2.9
			c-0.3,0.6-0.8,0.9-1.7,0.9H240V11.8z M234.8,22.5h6.6c4.1,0,6.7-2.6,6.7-6.7c0-4.1-1.7-7-7-7h-6.3V22.5z M219.4,22.5h4.3v-8.4h0
			l2.8,8.4h6.3V8.7h-4.3V17h0l-2.8-8.3h-6.3V22.5z M203.3,22.5h5.1l0.5-2.2h3.8l0.5,2.2h5.5l-4.3-13.7h-6.8L203.3,22.5z M209.6,16.9
			l1.2-5.2h0l1.1,5.2H209.6z M192.8,22.5h10.1v-3.7H198v-10h-5.3L192.8,22.5L192.8,22.5z M176.7,22.5h5.1l0.5-2.2h3.8l0.5,2.2h5.5
			l-4.3-13.7h-6.8L176.7,22.5z M183,16.9l1.2-5.2h0l1.1,5.2H183z M165.9,22.5h10.3v-3.6H171v-1.5h4.7v-3.6H171v-1.5h5.1V8.7h-10.1
			V22.5z M152.6,22.5h11.8v-3.6h-5.7l5.6-6.8V8.7h-11.5v3.6h5.4l-5.6,6.8V22.5z M129.1,22.5h5.7l1.2-8.9h0l1.2,8.9h5.7L146,8.7h-4.7
			l-1.1,8.6h0l-1.2-8.6h-5.5l-1.2,8.6h0L131,8.7h-4.7L129.1,22.5z M114.2,22.5h10.3v-3.6h-5.2v-1.5h4.7v-3.6h-4.7v-1.5h5.1V8.7
			h-10.1V22.5z M98.8,22.5h4.3v-8.4h0l2.8,8.4h6.3V8.7h-4.3V17h0l-2.8-8.3h-6.3V22.5z"/>
	</g>
</g>
</svg>
