<?xml version="1.0" encoding="utf-8"?>
<!-- Generator: Adobe Illustrator 21.1.0, SVG Export Plug-In . SVG Version: 6.00 Build 0)  -->
<svg version="1.1" id="Layer_1" xmlns="http://www.w3.org/2000/svg" xmlns:xlink="http://www.w3.org/1999/xlink" x="0px" y="0px"
	 viewBox="0 0 427 231" style="enable-background:new 0 0 427 231;" xml:space="preserve">
<style type="text/css">
	.st0{fill:#FFFFFF;}
</style>
<title>SIMPLY-logo</title>
<desc>Created with Sketch.</desc>
<g id="Page-1">
	<g id="SIMPLY-logo" transform="translate(-16.000000, -159.000000)">
		<g id="Group" transform="translate(16.000000, 159.000000)">
			<path id="Shape" class="st0" d="M300.9,166.6c0,27.8,7.2,41.1,16.5,50c13.5,12.7,32.7,13.5,39.2,13.5c11.2,0,25.5-1.9,39.2-14.1
				c15.2-13.5,17.5-36.3,17.5-56.8v-20.3c0-29.6,0-35,0.4-41.1c0.4-6.7,1.9-9.7,7-10.8c2.3-0.4,3.4-0.6,4.8-0.6
				c0.8,0,1.5-0.4,1.5-1.1c0-1.1-1-1.5-3-1.5c-5.7,0-14.6,0.6-16,0.6c-1.1,0-11.6-0.6-20.1-0.6c-2.1,0-3,0.4-3,1.5
				c0,0.8,0.8,1.1,1.5,1.1c1.7,0,4.9,0.2,6.5,0.6c6.3,1.3,7.8,4.4,8.2,10.8c0.4,6.1,0.4,11.4,0.4,41.1v23.8c0,19.6-2.3,35.7-11,46.6
				c-6.8,8.2-18.2,13.7-29.8,13.7c-10.8,0-19.4-1.7-28.7-10.5c-8.2-7.8-14.3-19.6-14.3-46.9v-26.6c0-29.6,0-35,0.4-41.1
				c0.4-6.7,1.9-10.1,7-10.8c2.3-0.4,3.4-0.6,4.8-0.6c0.8,0,1.5-0.4,1.5-1.1c0-1.1-1-1.5-3-1.5c-5.7,0-17.1,0.6-18.8,0.6
				c-1.7,0-13.3-0.6-21.9-0.6c-2.1,0-3,0.4-3,1.5c0,0.8,0.8,1.1,1.5,1.1c1.7,0,4.9,0.2,6.5,0.6c6.3,1.3,7.8,4.4,8.2,10.8
				c0.4,6.1,0.4,11.4,0.4,41.1V166.6z M143.9,150.1c0-41.6,23.8-62.5,55.5-62.5c30,0,57.8,24.5,57.8,70.1
				c0,55.3-35.4,65.2-52.5,65.2C170.5,222.9,143.9,194.4,143.9,150.1z M125.8,155.4c0,34.2,21.7,74.7,73.7,74.7
				c45.8,0,75.8-35.2,75.8-77.7c0-44.3-31.9-71.3-74.7-71.3C148.2,81.1,125.8,124.6,125.8,155.4z M61.3,194.6c0,3,0,11-0.6,19
				c-0.4,5.5-2.1,9.7-5.9,10.5c-1.7,0.4-4,0.8-5.7,0.8c-1.1,0-1.5,0.6-1.5,1.1c0,1.1,1,1.5,3,1.5c5.7,0,17.7-0.6,18.6-0.6
				c1,0,12.9,0.6,23.4,0.6c2.1,0,3-0.6,3-1.5c0-0.6-0.4-1.1-1.5-1.1c-1.7,0-5.9-0.4-8.6-0.8c-5.7-0.8-7.4-4.9-7.8-10.5
				c-0.6-8-0.6-16-0.6-19v-16.3c0-6.3,0-12.2,2.9-19c3.4-8.2,30-52.8,36.3-60.4c4.2-5.1,6.3-7.4,10.1-9.7c3-1.9,6.7-2.7,8.7-2.7
				c1.5,0,2.5-0.6,2.5-1.5c0-0.8-1.1-1.1-2.5-1.1c-3.6,0-17.3,0.6-18.4,0.6c-1.5,0-7.6-0.6-12.5-0.6c-1.9,0-3,0.4-3,1.1
				c0,1,1.1,1.3,2.9,1.9c2.3,0.6,3,2.7,3,5.3c0,2.5-0.8,5.7-3.2,9.7c-3.8,6.3-27.9,47.9-31.6,55.9c-3.4-5.5-31.9-54.5-35-60.1
				c-1.5-2.9-2.5-5.1-2.5-7.4c0-1.5,0.9-2.7,2.5-3.4c1.7-0.8,2.9-0.9,2.9-1.7c0-0.8-0.4-1.3-2.5-1.3c-7.4,0-14.6,0.6-16,0.6
				c-0.9,0-15.2-0.6-18.8-0.6c-1.7,0-2.5,0.6-2.5,1.3c0,1,1,1.3,1.9,1.3c1.7,0,5.3,1.1,8.2,3c3.4,2.3,8.2,7,12.9,14.1
				c6.7,9.9,32.1,51.7,33.5,54.7c2.5,5.5,4.4,9.7,4.4,20V194.6z"/>
			<path id="Shape_1_" class="st0" d="M399.7,34.9c0,0.9,0,3.4-0.2,5.8c-0.1,1.7-0.6,2.9-1.8,3.2c-0.5,0.1-1.2,0.2-1.7,0.2
				c-0.3,0-0.5,0.2-0.5,0.3c0,0.3,0.3,0.5,0.9,0.5c1.7,0,5.4-0.2,5.7-0.2s3.9,0.2,7.1,0.2c0.6,0,0.9-0.2,0.9-0.5
				c0-0.2-0.1-0.3-0.5-0.3c-0.5,0-1.8-0.1-2.6-0.2c-1.7-0.2-2.3-1.5-2.4-3.2c-0.2-2.4-0.2-4.9-0.2-5.8v-5c0-1.9,0-3.7,0.9-5.8
				c1-2.5,9.1-16.1,11-18.4c1.3-1.6,1.9-2.3,3.1-2.9c0.9-0.6,2-0.8,2.7-0.8c0.5,0,0.8-0.2,0.8-0.5c0-0.2-0.3-0.3-0.8-0.3
				c-1.1,0-5.3,0.2-5.6,0.2c-0.5,0-2.3-0.2-3.8-0.2c-0.6,0-0.9,0.1-0.9,0.3c0,0.3,0.3,0.4,0.9,0.6c0.7,0.2,0.9,0.8,0.9,1.6
				c0,0.8-0.2,1.7-1,2.9c-1.2,1.9-8.5,14.6-9.6,17c-1-1.7-9.7-16.6-10.6-18.3c-0.5-0.9-0.8-1.6-0.8-2.3c0-0.5,0.3-0.8,0.8-1
				c0.5-0.2,0.9-0.3,0.9-0.5c0-0.2-0.1-0.4-0.8-0.4c-2.3,0-4.4,0.2-4.9,0.2c-0.3,0-4.6-0.2-5.7-0.2c-0.5,0-0.8,0.2-0.8,0.4
				c0,0.3,0.3,0.4,0.6,0.4c0.5,0,1.6,0.3,2.5,0.9c1,0.7,2.5,2.1,3.9,4.3c2,3,9.8,15.7,10.2,16.6c0.8,1.7,1.3,2.9,1.3,6.1L399.7,34.9
				L399.7,34.9z M328.5,18c0-9,0-10.6,0.1-12.5c0.1-2,0.6-3,2.3-3.3c0.7-0.1,1.5-0.2,1.9-0.2c0.2,0,0.5-0.1,0.5-0.3
				c0-0.3-0.3-0.5-0.9-0.5c-1.7,0-6,0.2-6.2,0.2s-3.9-0.2-6.5-0.2c-0.6,0-0.9,0.1-0.9,0.5c0,0.2,0.2,0.3,0.5,0.3
				c0.5,0,1.5,0.1,2,0.2c1.9,0.4,2.4,1.3,2.5,3.3c0.1,1.8,0.1,3.5,0.1,12.5v10.2c0,5.5,0,10.1-0.3,12.5c-0.2,1.7-0.5,2.9-1.7,3.2
				c-0.5,0.1-1.2,0.2-1.7,0.2c-0.3,0-0.5,0.2-0.5,0.3c0,0.3,0.3,0.5,0.9,0.5c0.9,0,2.1-0.1,3.3-0.1c1.2,0,2.1-0.1,2.4-0.1
				c1.7,0,3.5,0.1,5.9,0.2c2.4,0.1,5.4,0.2,9.6,0.2c3.1,0,3.2-0.2,3.6-1.6c0.5-1.7,0.9-5.1,0.9-5.8c0-0.6-0.1-0.9-0.3-0.9
				c-0.3,0-0.5,0.3-0.5,0.8c-0.2,1.1-0.8,2.5-1.5,3.5c-1.4,1.7-3.9,1.7-7,1.7c-4.5,0-6-0.4-6.9-1.3c-1-1-1.3-4.7-1.3-13.2L328.5,18
				L328.5,18z M250,28.2c0,5.5,0,10.1-0.3,12.5c-0.2,1.7-0.5,2.9-1.7,3.2c-0.5,0.1-1.2,0.2-1.7,0.2c-0.3,0-0.5,0.2-0.5,0.3
				c0,0.3,0.3,0.5,0.9,0.5c1.7,0,5.4-0.2,5.5-0.2c0.3,0,3.9,0.2,7.1,0.2c0.6,0,0.9-0.2,0.9-0.5c0-0.2-0.1-0.3-0.5-0.3
				c-0.5,0-1.8-0.1-2.6-0.2c-1.7-0.2-2.1-1.5-2.3-3.2c-0.3-2.4-0.3-7-0.3-12.5V4.4c0-0.6,0.1-1,0.5-1.1c0.5-0.2,1.5-0.3,2.5-0.3
				c1.3,0,4.9-0.2,7.9,2.9c3.1,3.1,3.2,7,3.2,8.9c0,5.3-4.4,9.4-10,9.4c-1.2,0-1.6,0.1-1.6,0.5c0,0.3,0.3,0.4,0.6,0.4
				c0.3,0.1,0.9,0.1,1.2,0.1c8.2,0,14.2-5.6,14.2-13.8c0-3.1-1.6-5.7-2.9-6.9c-0.9-0.9-3.5-3.3-10.8-3.3c-2.7,0-6,0.2-7.3,0.2
				c-0.5,0-3.9-0.2-6.5-0.2c-0.6,0-0.9,0.1-0.9,0.5c0,0.2,0.2,0.3,0.5,0.3c0.5,0,1.5,0.1,2,0.2c1.9,0.4,2.4,1.3,2.5,3.3
				C250,7.4,250,9,250,18L250,28.2L250,28.2z M190.9,2c-0.1-1.1-0.3-1.6-0.7-1.6c-0.4,0-0.6,0.4-0.9,0.9l-17,36.3L154.7,1.3
				c-0.3-0.6-0.5-0.9-0.9-0.9s-0.6,0.4-0.6,1L149,39.2c-0.2,2.2-0.4,4.5-2.3,4.8c-0.9,0.2-1.3,0.2-1.7,0.2c-0.3,0-0.6,0.1-0.6,0.3
				c0,0.4,0.4,0.5,1,0.5c1.6,0,4.3-0.2,4.9-0.2c0.5,0,3.2,0.2,5.4,0.2c0.7,0,1-0.1,1-0.5c0-0.2-0.2-0.3-0.5-0.3
				c-0.3,0-1.2-0.1-2.2-0.3c-0.9-0.2-1.5-0.9-1.5-1.8c0-1,0-2,0.1-2.9l2.3-26.8h0.2c0.6,1.6,7.1,15.4,7.6,16.5
				c0.3,0.6,5.3,10.6,6.8,13.4c1.1,2.1,1.4,2.7,1.8,2.7c0.5,0,0.7-0.5,1.9-3.1l14.2-30.1h0.2l2.8,29.8c0.1,1,0.1,2-0.2,2.1
				c-0.3,0.1-0.4,0.2-0.4,0.4c0,0.3,0.3,0.5,1.6,0.6c2.1,0.2,8.4,0.3,9.7,0.3c0.7,0,1.2-0.2,1.2-0.5c0-0.2-0.2-0.3-0.5-0.3
				c-0.6,0-2.1,0-3.8-0.5c-2.5-0.8-2.9-4-3.1-6.1L190.9,2z M92.6,18c0-9,0-10.6,0.1-12.5c0.1-2,0.6-3,2.1-3.3c0.7-0.1,1-0.2,1.4-0.2
				c0.2,0,0.5-0.1,0.5-0.3c0-0.3-0.3-0.5-0.9-0.5c-1.7,0-5.4,0.2-5.7,0.2s-3.9-0.2-5.8-0.2c-0.6,0-0.9,0.1-0.9,0.5
				c0,0.2,0.2,0.3,0.5,0.3c0.4,0,1.2,0.1,1.8,0.2c1.3,0.3,1.9,1.3,2,3.2C87.7,7.4,87.7,9,87.7,18v10.2c0,5.5,0,10.1-0.3,12.5
				c-0.2,1.7-0.5,2.9-1.7,3.2c-0.5,0.1-1.2,0.2-1.7,0.2c-0.3,0-0.5,0.2-0.5,0.3c0,0.3,0.3,0.5,0.9,0.5c1.7,0,5.4-0.2,5.7-0.2
				s3.9,0.2,7.1,0.2c0.6,0,0.9-0.2,0.9-0.5c0-0.2-0.1-0.3-0.5-0.3c-0.5,0-1.8-0.1-2.6-0.2c-1.7-0.2-2.1-1.5-2.3-3.2
				c-0.3-2.4-0.3-7-0.3-12.5V18z M21.4,45.7c3.1,0,6.2-0.7,8.7-2.4c4-2.8,4.9-7.2,4.9-9.6c0-4.6-1.6-8.2-8.4-13.6L25,18.9
				c-5.5-4.3-7.1-6.4-7.1-9.7c0-4.2,3.1-6.7,7.1-6.7c5.3,0,6.9,2.4,7.2,3.1s0.7,2.2,0.8,2.9c0.1,0.5,0.1,0.8,0.5,0.8
				c0.3,0,0.4-0.4,0.4-1.3c0-3.9,0.2-5.8,0.2-6.1S34,1.3,33.5,1.3c-0.5,0-0.9-0.1-2-0.3c-1.4-0.3-3.1-0.6-5.4-0.6
				c-7.3,0-12,4.2-12,10.4c0,3.9,1.4,7.5,7.5,12.5l2.6,2.1c5,4.1,6.6,6.4,6.6,10.4c0,3.7-2.7,7.7-8.3,7.7c-3.9,0-7.7-1.6-8.6-5.9
				c-0.2-0.8-0.2-1.6-0.2-2.1c0-0.5-0.1-0.6-0.4-0.6c-0.3,0-0.4,0.3-0.5,0.9c-0.1,0.9-0.3,3.2-0.3,6.1c0,1.6,0.1,1.8,0.9,2.2
				C16,45.3,18.7,45.7,21.4,45.7z"/>
		</g>
	</g>
</g>
</svg>
