<svg id="Layer_2" xmlns="http://www.w3.org/2000/svg" viewBox="0 0 564 131"><style>.st0{fill-rule:evenodd;clip-rule:evenodd;fill:#222222;} .st1{fill:#FFFFFF;} .st2{fill-rule:evenodd;clip-rule:evenodd;fill:#FE52AB;}</style><path class="st0" d="M0 31.6l269.1-19.3 6.1 85.7L6.1 117.4 0 31.6z"/><path class="st1" d="M38.7 45.3l-20.2 1.4 3.8 53.4 25.1-1.8c16-1.1 26.7-12 25.6-27.9C71.6 50.8 57 44 38.7 45.3zm3.5 37.3l-1.2.1L39.6 62l1.2-.1c7.2-.5 11.9 2.4 12.4 9.9.4 7-4.4 10.3-11 10.8zm61.2-42.8C86.9 41 74 52.9 75.2 69.6c1.2 17.1 15.5 26.4 32.1 25.2 16.6-1.2 29.4-12.4 28.2-29.5-1.1-16.7-15.5-26.7-32.1-25.5zm-5.9 42.5l-2-27.8 26.6 12.2-24.6 15.6zm61-9.1l-2.6-36.3-19.9 1.5 3.8 53.4 36.6-2.6-1.3-17.2-16.6 1.2zm39.7-2.8l-2.6-36.3-19.9 1.4 3.8 53.4 36.6-2.6-1.2-17.1-16.7 1.2zm58.3-40.6l-22.3 1.6-3.3 9.2c-.6 1.7-1 3.4-1.5 5.2h-.6l-7.1-13.5-22.4 1.6 21.1 29 1.6 23 19.5-1.4-1.6-23 16.6-31.7z"/><path class="st2" d="M278.5 0L564 15.1 557.9 131l-285.5-15.1L278.5 0z"/><path class="st1" d="M318.6 82.8l-8.8-65.2-16.4-.9 14 82.9 20.1 1.1c1.7-6.1 3.6-12.6 5.4-19.4 1.9-6.9 3.8-13.8 5.7-20.9 1.9-7.1 3.8-14 5.7-21 1.9-6.9 3.7-13.5 5.6-19.8l-16.3-.9-15 64.1zm36.7 19.3l15.7.9 4.3-82-15.7-.8-4.3 81.9zM427.6 29c-2-1.8-4.4-3.2-7.1-4.3-2.7-1-5.5-1.6-8.4-1.8l-22-1.2-4.3 82 22 1.2c2.9.2 5.8-.1 8.5-.9 2.8-.7 5.2-1.9 7.5-3.6 2.2-1.6 4.1-3.6 5.7-5.9 1.5-2.3 2.6-5 3.1-8.2l2.2-42.5c-.2-3-.9-5.8-2.2-8.4-1.2-2.4-2.9-4.6-5-6.4zm-10.3 52.8c-.1 2.6-.9 4.9-2.2 6.8-1.3 1.9-3.5 2.8-6.5 2.7l-6.4-.3 2.9-54.8 6.4.3c1.5.1 2.8.4 3.8 1s1.8 1.4 2.4 2.3c.6 1 1 2.1 1.2 3.3.2 1.2.3 2.5.2 3.7l-1.8 35zm27.3 25.1l37.1 2 .7-13.6-21.5-1.3 1-19.5 17.6.9.7-13.5-17.6-.9 1.1-21.8 21.5 1.1.7-13.5-37.1-2-4.2 82.1zm98-67c-1.3-2.5-3-4.7-5.1-6.5-2.2-1.8-4.7-3.2-7.5-4.3-2.8-1-5.7-1.6-8.6-1.8-2.9-.2-5.9.1-8.8.9-2.9.7-5.6 1.9-7.9 3.5-2.3 1.6-4.2 3.6-5.7 5.9-1.5 2.4-2.3 5.1-2.5 8.3l-2.4 45.2c-.2 3.1.4 5.9 1.6 8.5 1.2 2.5 2.9 4.7 5.1 6.5 2.1 1.8 4.6 3.2 7.5 4.3 2.8 1 5.7 1.6 8.7 1.8 2.9.2 5.8-.1 8.7-.9 2.9-.7 5.5-1.9 7.9-3.5 2.4-1.6 4.3-3.6 5.8-5.9 1.5-2.4 2.3-5.1 2.5-8.3l2.4-45.2c.1-3.1-.4-5.9-1.7-8.5zM526.3 89c-.1 2.6-.8 4.8-2.1 6.6-1.3 1.8-3.4 2.7-6.6 2.7-3.1-.3-5.2-1.5-6.2-3.4-1.1-1.9-1.5-4.2-1.4-6.8l2-37.7c.1-2.6.8-4.8 2.1-6.6 1.3-1.8 3.4-2.7 6.6-2.7 3.1.3 5.2 1.5 6.2 3.4 1.1 1.9 1.5 4.2 1.4 6.8l-2 37.7z"/></svg>