<svg xmlns="http://www.w3.org/2000/svg" width="142" height="28" preserveAspectRatio="xMidYMid"><defs><style>.cls-2 { fill: #ffffff; }</style></defs><path id="path-1" fill-rule="evenodd" d="M140.73 24.68c-.37.66-.84 1.2-1.4 1.66-.6.45-1.24.8-1.95 1.05-.72.23-1.47.36-2.25.36 0 0-5.9 0-5.9 0s-3.18-2.37-3.18-2.37 0-25.4 0-25.4 6 0 6 0c1 0 1.9.2 2.74.61.83.42 1.6.93 2.33 1.52 0 0 2.22 1.85 2.22 1.85.55.47 1 1.02 1.38 1.66.37.63.6 1.36.7 2.18 0 0 0 14.67 0 14.67-.1.82-.33 1.56-.7 2.2zm-3.2-19.24c-.08-.7-.3-1.33-.62-1.9-.3-.55-.72-1.03-1.22-1.42-.5-.4-1.05-.7-1.67-.9-.62-.2-1.27-.3-1.95-.3 0 0-5.08 0-5.08 0s0 23.55 0 23.55 5.08 0 5.08 0c.68 0 1.33-.1 1.96-.3.63-.2 1.2-.52 1.68-.92.5-.4.9-.87 1.23-1.43.34-.55.55-1.18.63-1.9 0 0 0-14.48 0-14.48zm-5.48 15.9s-1.48 0-1.48 0 0-17.3 0-17.3 1.48 0 1.48 0c.35 0 .65.05.9.17.24.13.44.3.58.52.14.2.25.46.3.74.07.27.1.55.1.84 0 0 0 12.76 0 12.76 0 .6-.14 1.12-.42 1.58-.26.46-.75.7-1.45.7zm-26.25 4.05s0-25.4 0-25.4 10.4 0 10.4 0 3 2.55 3 2.55 0 4.77 0 4.77-4.97 0-4.97 0 0 3 0 3 1.08 0 1.08 0 3 2.56 3 2.56 0 4.76 0 4.76-4.07 0-4.07 0 0 2.77 0 2.77 1.97 0 1.97 0 3 2.56 3 2.56 0 4.8 0 4.8-10.23 0-10.23 0-3.17-2.37-3.17-2.37zm9.48-4.07s-4.95 0-4.95 0 0-6.97 0-6.97 4.06 0 4.06 0 0-3.1 0-3.1-4.08 0-4.08 0 0-7.23 0-7.23 4.96 0 4.96 0 0-3.1 0-3.1-8.56 0-8.56 0 0 23.54 0 23.54 8.56 0 8.56 0 0-3.14 0-3.14zm-19.3 6.43s-5.26 0-5.26 0-3.17-2.37-3.17-2.37 0-18.14 0-18.14-3.08-2.3-3.08-2.3 0-4.96 0-4.96S96.1 0 96.1 0s3 2.55 3 2.55 0 4.77 0 4.77-3.12 0-3.12 0 0 20.44 0 20.44zM95.18.92s-9.78 0-9.78 0 0 3.1 0 3.1 3.07 0 3.07 0 0 20.45 0 20.45 3.6 0 3.6 0 0-20.44 0-20.44 3.1 0 3.1 0 0-3.1 0-3.1zM71.68 25.4s-.4-3.05-.4-3.05c-.1.9-.23 1.82-.36 2.76-.14.96-.24 1.84-.33 2.66 0 0-5.4 0-5.4 0s-3.16-2.37-3.16-2.37 4-25.4 4-25.4 7.2 0 7.2 0 3 2.55 3 2.55 4 25.2 4 25.2-5.4 0-5.4 0-3.17-2.36-3.17-2.36zM72.43.9s-5.6 0-5.6 0-3.72 23.55-3.72 23.55 3.66 0 3.66 0 .8-6.36.8-6.36 4.12 0 4.12 0 .8 6.37.8 6.37 3.66 0 3.66 0S72.44.92 72.44.92zm-2.8 3.45S71.2 15 71.2 15s-3.1 0-3.1 0 1.54-10.63 1.54-10.63zm-26.6 21.02s0-25.4 0-25.4 5.5 0 5.5 0 2.97 2.55 2.97 2.55 0 17.86 0 17.86 1.98 0 1.98 0 3 2.56 3 2.56 0 4.8 0 4.8-10.26 0-10.26 0-3.17-2.37-3.17-2.37zm9.52-4.07s-4.96 0-4.96 0 0-20.4 0-20.4-3.63 0-3.63 0 0 23.54 0 23.54 8.6 0 8.6 0 0-3.14 0-3.14zM22.8 25.4s0-25.4 0-25.4 10.4 0 10.4 0 3 2.55 3 2.55 0 4.77 0 4.77-4.97 0-4.97 0 0 3 0 3 1.08 0 1.08 0 3 2.56 3 2.56 0 4.76 0 4.76-4.07 0-4.07 0 0 2.77 0 2.77 1.97 0 1.97 0 3 2.56 3 2.56 0 4.8 0 4.8-10.23 0-10.23 0-3.17-2.37-3.17-2.37zm9.48-4.07s-4.96 0-4.96 0 0-6.97 0-6.97 4.07 0 4.07 0 0-3.1 0-3.1-4.07 0-4.07 0 0-7.23 0-7.23 4.95 0 4.95 0 0-3.1 0-3.1-8.56 0-8.56 0 0 23.54 0 23.54 8.56 0 8.56 0 0-3.14 0-3.14zM8.46 25.85s0 1.9 0 1.9-5.3 0-5.3 0S0 25.4 0 25.4 0 0 0 0s6.3 0 6.3 0c.97 0 1.9.2 2.77.63.9.42 1.7.93 2.4 1.52 0 0 2.34 1.88 2.34 1.88.6.47 1.05 1.03 1.4 1.67.35.65.52 1.4.52 2.23 0 0 0 5.8 0 5.8 0 .77-.2 1.5-.6 2.2-.4.7-.87 1.3-1.43 1.84.2.76.42 1.57.65 2.44.24.88.47 1.75.7 2.62.25.88.48 1.73.72 2.6.23.84.45 1.62.63 2.34 0 0-5.54 0-5.54 0s-2.4-1.9-2.4-1.9zM11.2 13.3c.4-.63.6-1.3.6-2.02 0 0 0-5.8 0-5.8 0-.73-.15-1.37-.46-1.93-.32-.56-.74-1.04-1.26-1.43-.53-.4-1.12-.7-1.77-.9-.65-.2-1.32-.3-2-.3 0 0-5.38 0-5.38 0s0 23.55 0 23.55 3.63 0 3.63 0 0-8.6 0-8.6 1.63 0 1.63 0 2.25 8.6 2.25 8.6 3.8 0 3.8 0S9.7 15 9.7 15c.6-.5 1.1-1.05 1.5-1.7zm-4.9-.6s-1.75 0-1.75 0 0-8.67 0-8.67 1.76 0 1.76 0c.35 0 .65.06.9.18.24.13.44.3.58.52.15.2.25.46.3.74.07.27.1.55.1.84 0 0 0 4.15 0 4.15 0 .6-.14 1.12-.4 1.57-.3.45-.78.68-1.47.68z" class="cls-2"/></svg>