<?xml version="1.0" standalone="no"?>
<!DOCTYPE svg PUBLIC "-//W3C//DTD SVG 1.1//EN" "http://www.w3.org/Graphics/SVG/1.1/DTD/svg11.dtd" >
<svg xmlns="http://www.w3.org/2000/svg" xmlns:xlink="http://www.w3.org/1999/xlink" version="1.1">
<metadata></metadata>
<defs>
<font id="amsi_pro_narwblack" horiz-adv-x="1122" >
<font-face units-per-em="2048" ascent="1536" descent="-512" />
<missing-glyph horiz-adv-x="473" />
<glyph unicode="&#xfb01;" horiz-adv-x="1159" d="M1057 1012v-959q0 -53 -53 -53h-205q-54 0 -54 53v756h-290v-758q0 -51 -54 -51h-196q-53 0 -53 51v758h-74q-51 0 -51 51v154q0 28 12 40.5t39 12.5h74v84q0 165 70.5 237t226.5 72q94 0 147 -16q24 -7 35.5 -18.5t11.5 -34.5v-117q0 -27 -12 -39t-35 -10q-8 0 -30 1 t-31 1q-42 0 -61 -22.5t-19 -78.5v-59h549q53 0 53 -55zM1057 1393v-144q0 -51 -53 -51h-205q-54 0 -54 51v144q0 53 54 53h205q53 0 53 -53z" />
<glyph unicode="&#xfb02;" horiz-adv-x="1161" d="M1057 1360v-1307q0 -53 -51 -53h-205q-53 0 -53 53v1164q-70 8 -132 8q-88 0 -124.5 -27t-36.5 -92v-39h100q53 0 53 -55v-150q0 -53 -53 -53h-100v-758q0 -51 -54 -51h-196q-53 0 -53 51v758h-74q-51 0 -51 51v154q0 53 51 53h74v39q0 134 42.5 210t144.5 112t284 36 q99 0 208.5 -12.5t172.5 -28.5q28 -8 40.5 -21.5t12.5 -41.5z" />
<glyph unicode="&#xfb03;" horiz-adv-x="1755" d="M1653 1012v-959q0 -53 -54 -53h-204q-52 0 -52 53v756h-290v-758q0 -51 -54 -51h-198q-53 0 -53 51v758h-293v-758q0 -51 -54 -51h-196q-53 0 -53 51v758h-74q-51 0 -51 51v154q0 53 51 53h74v86q0 165 70 236t229 71q94 0 141 -16q47 -14 47 -53v-117q0 -28 -11 -39.5 t-36 -9.5q-8 0 -28 1t-29 1q-41 0 -60.5 -22t-19.5 -77v-61h293v86q0 165 71 236t230 71q87 0 143 -16q24 -7 35.5 -18.5t11.5 -34.5v-117q0 -27 -12 -39t-37 -10q-8 0 -27 1t-30 1q-43 0 -61.5 -22t-18.5 -77v-61h546q54 0 54 -55zM1653 1393v-144q0 -51 -54 -51h-204 q-54 0 -54 51v144q0 53 54 53h204q54 0 54 -53z" />
<glyph unicode="&#xfb04;" horiz-adv-x="1757" d="M1053 809v-758q0 -51 -54 -51h-198q-53 0 -53 51v758h-293v-758q0 -51 -54 -51h-196q-53 0 -53 51v758h-74q-51 0 -51 51v154q0 53 51 53h74v86q0 165 70 236t229 71q85 0 141 -16q47 -14 47 -53v-117q0 -27 -11.5 -39t-35.5 -10q-8 0 -28 1t-29 1q-41 0 -60.5 -22 t-19.5 -77v-61h293v39q0 100 22.5 166t77.5 110t145 63t228 19q95 0 203 -13t175 -28q29 -8 41.5 -21.5t12.5 -41.5v-1307q0 -53 -51 -53h-205q-54 0 -54 53v1164q-70 8 -129 8q-89 0 -125 -27t-36 -92v-39h98q53 0 53 -55v-150q0 -53 -53 -53h-98z" />
<glyph horiz-adv-x="0" />
<glyph horiz-adv-x="682" />
<glyph unicode=" "  horiz-adv-x="473" />
<glyph unicode="&#x09;" horiz-adv-x="473" />
<glyph unicode="&#xa0;" horiz-adv-x="473" />
<glyph unicode="!" horiz-adv-x="575" d="M125 55v215q0 54 57 54h211q58 0 58 -54v-215q0 -55 -56 -55h-215q-55 0 -55 55zM360 455h-145q-52 0 -55 53l-54 881q-3 57 56 57h252q58 0 55 -57l-53 -881q-3 -53 -56 -53z" />
<glyph unicode="&#x22;" horiz-adv-x="768" d="M322 1272l-62 -363h-106l-62 363q-10 65 -10 123q0 52 29 77t96 25q69 0 98 -25t29 -77q0 -45 -12 -123zM674 1272l-62 -363h-106l-62 363q-12 78 -12 123q0 52 29 77t98 25t98 -25t29 -77q0 -45 -12 -123z" />
<glyph unicode="#" horiz-adv-x="1177" d="M1075 1370l-84 -315h105q51 0 51 -54v-67q0 -53 -51 -53h-152l-86 -318h109q53 0 53 -53v-68q0 -53 -53 -53h-154l-96 -362q-15 -52 -66 -37l-78 20q-50 14 -38 66l83 313h-237l-96 -362q-11 -50 -64 -37l-80 20q-52 15 -37 66l84 313h-104q-53 0 -53 53v68q0 53 53 53 h149l84 318h-106q-53 0 -53 53v67q0 54 53 54h154l98 364q11 50 63 37l80 -18q51 -14 39 -68l-86 -315h236l98 364q14 49 65 37l78 -18q53 -14 39 -68zM512 881l-84 -318h238l82 318h-236z" />
<glyph unicode="$" horiz-adv-x="1069" d="M639 1589v-125q146 -11 260 -51q29 -11 39 -26.5t4 -45.5l-31 -155q-13 -59 -73 -39q-107 35 -232 35q-194 0 -194 -123q0 -32 17 -61t53.5 -56.5t69 -46.5t87.5 -47q54 -28 85.5 -45.5t75.5 -46t70 -51.5t56 -57.5t45.5 -70t26 -81.5t10.5 -99q0 -178 -97.5 -276.5 t-265.5 -126.5v-137q0 -52 -49 -52h-86q-51 0 -51 52v125q-96 3 -189 21t-147 40q-32 13 -42.5 27t-4.5 45l33 157q13 58 73 37q132 -45 252 -45q238 0 238 137q0 26 -11.5 49t-26 39t-50.5 39t-61 36t-81 42q-48 24 -77 40t-72.5 43.5t-70 51t-57.5 59.5t-48.5 73.5 t-29 87.5t-11.5 106q0 349 379 393v129q0 51 49 51h86q49 0 49 -51z" />
<glyph unicode="%" horiz-adv-x="1746" d="M1337 1395l-700 -1350q-13 -23 -28.5 -34t-41.5 -11h-129q-26 0 -33 14t5 37l700 1350q12 24 27.5 34.5t42.5 10.5h129q26 0 33 -14t-5 -37zM55 1032q0 205 84 316.5t246 111.5q164 0 248 -111.5t84 -316.5q0 -204 -84 -315t-248 -111q-162 0 -246 111t-84 315zM485 1032 q0 125 -23.5 178.5t-76.5 53.5q-52 0 -76 -54t-24 -178t24 -177.5t76 -53.5q53 0 76.5 53t23.5 178zM1030 414q0 204 84.5 316t247.5 112q162 0 246 -112t84 -316t-84 -316t-246 -112q-163 0 -247.5 112t-84.5 316zM1462 414q0 123 -24 177t-76 54q-53 0 -76.5 -53.5 t-23.5 -177.5q0 -125 23.5 -178.5t76.5 -53.5q52 0 76 54t24 178z" />
<glyph unicode="&#x26;" horiz-adv-x="1329" d="M1241 621q0 -200 -111 -359l158 -207q15 -20 8 -37.5t-30 -17.5h-222q-36 0 -59 29l-45 59q-147 -106 -350 -106q-153 0 -268.5 47.5t-184.5 150t-69 250.5q0 159 79.5 270.5t217.5 159.5l-31 43q-48 71 -71 132t-23 130q0 142 99 222.5t306 80.5q125 0 240 -36 q30 -11 42.5 -27.5t8.5 -44.5l-18 -121q-9 -60 -72 -43q-90 21 -148 21q-163 0 -163 -97q0 -38 18 -72.5t55 -82.5l348 -469q27 76 27 141q0 22 -8 58.5t-8 54.5q0 24 13 33.5t40 9.5h160q38 0 49 -45q12 -62 12 -127zM629 252q96 0 155 43l-272 364q-125 -61 -125 -204 q0 -92 61 -147.5t181 -55.5z" />
<glyph unicode="'" horiz-adv-x="415" d="M322 1272l-62 -363h-106l-62 363q-10 65 -10 123q0 52 29 77t96 25q69 0 98 -25t29 -77q0 -45 -12 -123z" />
<glyph unicode="(" horiz-adv-x="679" d="M104 612q0 235 80 451t207 373q22 30 62 30h145q28 0 35.5 -19t-6.5 -38q-97 -162 -156 -373t-59 -424q0 -216 58.5 -426t156.5 -368q14 -19 6.5 -38.5t-35.5 -19.5h-145q-40 0 -62 29q-127 157 -207 372.5t-80 450.5z" />
<glyph unicode=")" horiz-adv-x="679" d="M575 612q0 -235 -79.5 -451t-206.5 -372q-22 -29 -62 -29h-147q-26 0 -33.5 19.5t4.5 38.5q98 160 157.5 370t59.5 424t-59.5 424.5t-157.5 372.5q-12 19 -4.5 38t33.5 19h147q39 0 62 -30q127 -156 206.5 -372.5t79.5 -451.5z" />
<glyph unicode="*" horiz-adv-x="821" d="M412 727q-51 0 -70.5 19t-19.5 63q0 29 17.5 100t20.5 99q-23 -17 -75.5 -68t-77.5 -66q-36 -23 -64.5 -15t-52.5 52q-20 33 -20 58q0 34 47 61q25 14 95 34t97 32q-27 12 -97 32t-95 35q-47 27 -47 62q0 24 20 57q25 44 53 52.5t64 -13.5q26 -16 78 -67.5t75 -69.5 q-3 28 -20.5 99.5t-17.5 100.5q0 46 19 65t71 19q51 0 69.5 -19t18.5 -65q0 -28 -17 -98.5t-20 -101.5q18 14 72 67t81 68q36 23 63.5 14.5t53.5 -51.5q19 -40 19 -57q0 -37 -47 -64q-25 -15 -96.5 -34t-96.5 -29q29 -14 99 -34t94 -34q49 -28 49 -61q0 -18 -21 -58 q-26 -44 -53.5 -52t-63.5 15q-26 15 -79 66.5t-74 67.5q4 -29 22.5 -99.5t18.5 -99.5q0 -44 -20.5 -63t-71.5 -19z" />
<glyph unicode="+" d="M977 590h-272v-307q0 -54 -54 -54h-178q-55 0 -55 54v307h-273q-53 0 -53 53v150q0 51 53 51h273v299q0 53 55 53h178q54 0 54 -53v-299h272q55 0 55 -51v-150q0 -53 -55 -53z" />
<glyph unicode="," horiz-adv-x="479" d="M381 10l-109 -221q-16 -33 -49 -33h-71q-21 0 -28 14.5t1 34.5l72 195h-58q-55 0 -55 55v207q0 55 59 55h195q57 0 57 -55v-184q0 -41 -14 -68z" />
<glyph unicode="-" horiz-adv-x="694" d="M573 455h-454q-51 0 -51 53v149q0 52 51 52h454q54 0 54 -52v-149q0 -53 -54 -53z" />
<glyph unicode="." horiz-adv-x="479" d="M84 55v207q0 55 59 55h195q57 0 57 -55v-207q0 -55 -55 -55h-201q-55 0 -55 55z" />
<glyph unicode="/" horiz-adv-x="825" d="M20 63l486 1334q17 49 67 49h189q33 0 43.5 -18.5t-0.5 -47.5l-486 -1331q-8 -25 -22.5 -37t-44.5 -12h-189q-33 0 -44 17.5t1 45.5z" />
<glyph unicode="0" horiz-adv-x="1212" d="M606 1468q124 0 219 -41t164 -128.5t105 -232t36 -343.5q0 -389 -135 -566t-389 -177q-125 0 -220 41t-164 128.5t-104.5 231.5t-35.5 342q0 199 35.5 343.5t104.5 232t164 128.5t220 41zM606 266q99 0 146 103.5t47 353.5t-47 354.5t-146 104.5t-145.5 -104.5 t-46.5 -354.5t46.5 -353.5t145.5 -103.5z" />
<glyph unicode="1" horiz-adv-x="915" d="M418 57v1039l-191 -142q-38 -24 -63 4l-107 125q-28 32 4 60l334 280q30 23 76 23h215q57 0 57 -57v-1332q0 -57 -57 -57h-211q-30 0 -43.5 13.5t-13.5 43.5z" />
<glyph unicode="2" horiz-adv-x="1120" d="M379 1038q0 -24 5 -56t5 -44q0 -47 -51 -47h-193q-25 0 -37.5 15t-17.5 44q-8 41 -8 101q0 194 117.5 305.5t345.5 111.5q127 0 222 -33.5t149.5 -93.5t81 -135t26.5 -166q0 -94 -32 -190t-81.5 -175.5t-118 -157.5t-132 -135t-132.5 -108h449q57 0 57 -55v-164 q0 -55 -57 -55h-844q-29 0 -42 13t-13 42v133q0 26 9.5 40.5t31.5 29.5q80 54 155.5 114.5t154 139t136.5 158t94.5 170.5t36.5 176t-36 131.5t-123 46.5q-83 0 -120.5 -45t-37.5 -111z" />
<glyph unicode="3" horiz-adv-x="1060" d="M336 874h121q88 0 132 38t44 124q0 158 -203 158q-30 0 -61 -3t-52 -6t-49.5 -10t-40 -10t-37 -11t-28.5 -9q-56 -17 -66 35l-30 153q-6 27 2 41t34 25q166 67 381 67q99 0 180 -19.5t147 -60.5t103 -114.5t37 -173.5q0 -242 -182 -320q96 -33 155.5 -117.5t59.5 -232.5 q0 -448 -510 -448q-116 0 -220 20.5t-167 46.5q-26 9 -35.5 23t-3.5 41l31 161q12 54 67 35q154 -49 281 -49q122 0 177.5 45t55.5 146q0 87 -46.5 126t-145.5 39h-131q-57 0 -57 56v151q0 53 57 53z" />
<glyph unicode="4" horiz-adv-x="1185" d="M922 0h-209q-58 0 -58 57v236h-544q-56 0 -56 55v158q0 41 23 72l557 831q23 37 67 37h220q57 0 57 -57v-832h123q53 0 53 -55v-154q0 -29 -12.5 -42t-40.5 -13h-123v-236q0 -57 -57 -57zM657 1067l-342 -510h342v510z" />
<glyph unicode="5" horiz-adv-x="1083" d="M1010 475q0 -495 -543 -495q-113 0 -212.5 20t-162.5 47q-26 11 -34.5 25.5t-2.5 42.5l31 159q9 52 68 35q161 -51 284 -51q129 0 188.5 50.5t59.5 166.5q0 102 -49 151.5t-162 49.5q-77 0 -151 -19.5t-91 -19.5q-8 0 -32 8l-76 27q-18 7 -23.5 18.5t-3.5 36.5 q12 122 23.5 335t11.5 324q0 32 13.5 46t43.5 14h687q55 0 55 -55v-164q0 -56 -55 -56h-476q-10 -176 -18 -278q79 27 190 27q437 0 437 -445z" />
<glyph unicode="6" horiz-adv-x="1163" d="M872 1169q-136 29 -188 29q-152 0 -217.5 -82t-71.5 -260q90 111 283 111q105 0 185.5 -36t129.5 -100t74 -148t25 -185q0 -237 -128 -377.5t-350 -140.5q-532 0 -532 702q0 199 29 341.5t95 244t177.5 151t271.5 49.5q140 0 260 -41q27 -9 36.5 -22t6.5 -39l-20 -158 q-6 -51 -66 -39zM608 252q90 0 138.5 64t48.5 180q0 104 -47 165.5t-144 61.5q-92 0 -143 -56.5t-51 -172.5q0 -63 18.5 -115.5t64.5 -89.5t115 -37z" />
<glyph unicode="7" horiz-adv-x="1038" d="M223 55q20 283 141 602t271 514h-522q-56 0 -56 58v160q0 57 56 57h809q57 0 57 -57v-142q0 -14 -4.5 -28.5t-9 -22.5t-13 -21t-10.5 -16q-93 -146 -172.5 -316.5t-141 -386t-67.5 -401.5q-2 -28 -15.5 -41.5t-43.5 -13.5h-223q-28 0 -42.5 14.5t-13.5 40.5z" />
<glyph unicode="8" horiz-adv-x="1163" d="M582 -20q-252 0 -381 107t-129 294q0 273 260 369q-110 45 -170 131t-60 206q0 187 125.5 284t354.5 97q230 0 354.5 -97t124.5 -284q0 -120 -59 -206t-168 -131q258 -97 258 -369q0 -187 -128.5 -294t-381.5 -107zM582 1227q-164 0 -164 -150q0 -85 39.5 -136.5 t124.5 -86.5q86 35 126 87t40 136q0 150 -166 150zM582 639q-187 -68 -187 -233q0 -81 48 -125.5t139 -44.5q92 0 139 44.5t47 125.5q0 166 -186 233z" />
<glyph unicode="9" horiz-adv-x="1163" d="M293 276q132 -28 188 -28q151 0 216 79.5t73 256.5q-91 -105 -285 -105q-106 0 -186 36t-129 100t-73.5 148t-24.5 185q0 238 126.5 378t350.5 140q144 0 247.5 -49.5t164.5 -144t89.5 -220t28.5 -288.5q0 -200 -28.5 -341.5t-94 -243t-176 -150.5t-270.5 -49 q-74 0 -147.5 11.5t-114.5 26.5q-26 9 -36 23t-7 41l22 156q5 26 20 35t46 3zM553 1194q-90 0 -137 -63.5t-47 -180.5q0 -104 46.5 -165.5t141.5 -61.5q195 0 195 227q0 67 -18 119.5t-64.5 88.5t-116.5 36z" />
<glyph unicode=":" horiz-adv-x="546" d="M119 55v207q0 55 57 55h195q57 0 57 -55v-207q0 -55 -55 -55h-199q-55 0 -55 55zM119 846v207q0 55 57 55h195q57 0 57 -55v-207q0 -55 -55 -55h-199q-55 0 -55 55z" />
<glyph unicode=";" horiz-adv-x="546" d="M119 846v207q0 55 57 55h195q57 0 57 -55v-207q0 -55 -55 -55h-199q-55 0 -55 55zM414 10l-107 -221q-8 -18 -18 -25.5t-31 -7.5h-74q-20 0 -27 14.5t1 34.5l73 195h-57q-55 0 -55 55v207q0 55 57 55h195q57 0 57 -55v-184q0 -41 -14 -68z" />
<glyph unicode="&#x3c;" d="M113 715q0 28 24 47l639 561q40 40 76 -2l109 -121q31 -40 -5 -76l-471 -409l471 -412q39 -34 5 -74l-109 -123q-36 -39 -76 -4l-639 566q-24 21 -24 47z" />
<glyph unicode="=" d="M944 821h-766q-27 0 -39 12.5t-12 40.5v142q0 53 51 53h766q53 0 53 -53v-142q0 -53 -53 -53zM944 367h-766q-27 0 -39 12t-12 39v143q0 27 12 39t39 12h766q53 0 53 -51v-143q0 -51 -53 -51z" />
<glyph unicode="&#x3e;" d="M1010 715q0 -27 -25 -47l-641 -566q-39 -36 -76 4l-104 123q-19 22 -17.5 38.5t21.5 35.5l471 412l-471 409q-39 36 -4 76l104 121q37 40 76 4l641 -563q25 -20 25 -47z" />
<glyph unicode="?" horiz-adv-x="948" d="M299 55v215q0 54 57 54h209q58 0 58 -54v-215q0 -55 -56 -55h-213q-55 0 -55 55zM612 543v-35q0 -28 -13 -40.5t-42 -12.5h-180q-29 0 -42 12.5t-13 40.5v37q0 50 23 102t56 97.5t65.5 91.5t55.5 102t23 111q0 70 -37.5 104.5t-126.5 34.5q-25 0 -49.5 -2.5t-42 -5 t-39.5 -8t-32.5 -9t-31 -10t-26.5 -8.5q-57 -18 -66 35l-33 161q-6 25 3.5 39t35.5 25q129 61 342 61q212 0 319 -88t107 -260q0 -89 -26.5 -166.5t-64 -130t-75 -97.5t-64 -91t-26.5 -90z" />
<glyph unicode="@" horiz-adv-x="1767" d="M1004 481l34 254q-43 13 -88 13q-112 0 -165.5 -89t-53.5 -223q0 -162 113 -162q66 0 105.5 50.5t54.5 156.5zM1294 -45q32 9 37 -27l10 -69q3 -26 -26 -35q-66 -22 -177.5 -39.5t-219.5 -17.5q-398 0 -603.5 160t-205.5 511q0 249 101 433.5t286.5 282t435.5 97.5 q365 0 548 -164.5t183 -459.5q0 -252 -114.5 -406.5t-305.5 -154.5h-125q-47 0 -61 38l-27 95q-38 -62 -102.5 -99t-143.5 -37q-141 0 -225 91t-84 258q0 112 26.5 205.5t82.5 170.5t154.5 120.5t232.5 43.5q84 0 164 -18t129 -41q37 -16 32 -53l-86 -621h41 q119 0 182.5 106.5t63.5 303.5q0 243 -133.5 359t-433.5 116q-306 0 -480 -173.5t-174 -494.5q0 -284 153.5 -405t488.5 -121q192 0 376 45z" />
<glyph unicode="A" horiz-adv-x="1220" d="M477 563h266l-129 557h-6zM463 1446h297q35 0 50.5 -13.5t23.5 -43.5l352 -1323q8 -29 -5 -47.5t-42 -18.5h-224q-30 0 -44.5 13t-20.5 40l-57 228h-365l-57 -228q-12 -53 -64 -53h-225q-29 0 -42 18.5t-5 47.5l352 1323q8 30 24 43.5t52 13.5z" />
<glyph unicode="B" horiz-adv-x="1212" d="M432 868h168q98 0 140 37t42 121q0 83 -40 116.5t-140 33.5h-170v-308zM637 0h-471q-57 0 -57 57v1332q0 57 57 57h446q252 0 373 -84t121 -289q0 -124 -49 -198t-127 -105q96 -30 155.5 -116.5t59.5 -229.5q0 -222 -131.5 -323t-376.5 -101zM432 270h182 q112 0 157.5 38.5t45.5 133.5q0 93 -45.5 132.5t-153.5 39.5h-186v-344z" />
<glyph unicode="C" horiz-adv-x="1077" d="M725 272q81 0 178 33q32 10 48 0.5t24 -39.5l39 -153q7 -28 -3.5 -43.5t-39.5 -28.5q-52 -25 -133.5 -43t-169.5 -18q-149 0 -256.5 38.5t-184 125.5t-114 231t-37.5 350q0 205 36.5 348.5t111.5 230t181 125.5t254 39q158 0 297 -61q30 -13 41 -28t4 -44l-38 -153 q-12 -56 -72 -37q-99 29 -174 29q-114 0 -179 -41.5t-95.5 -138.5t-30.5 -269q0 -174 31.5 -272t98.5 -139.5t183 -41.5z" />
<glyph unicode="D" horiz-adv-x="1218" d="M537 0h-371q-57 0 -57 57v1332q0 57 57 57h366q157 0 268.5 -37t190 -120.5t116.5 -221.5t38 -336q0 -205 -37 -346t-115 -226t-188.5 -122t-267.5 -37zM524 1151h-86v-858h90q75 0 125 19t87 67.5t54 134.5t17 217q0 126 -17 208t-54.5 128.5t-88.5 65t-127 18.5z" />
<glyph unicode="E" horiz-adv-x="1015" d="M856 598h-422v-309h453q57 0 57 -58v-174q0 -57 -57 -57h-721q-57 0 -57 57v1332q0 57 57 57h713q57 0 57 -57v-175q0 -57 -57 -57h-445v-283h422q55 0 55 -57v-164q0 -55 -55 -55z" />
<glyph unicode="F" horiz-adv-x="983" d="M850 557h-414v-498q0 -59 -59 -59h-209q-59 0 -59 59v1327q0 60 59 60h700q58 0 58 -57v-175q0 -57 -58 -57h-432v-315h414q57 0 57 -58v-172q0 -55 -57 -55z" />
<glyph unicode="G" horiz-adv-x="1222" d="M694 883h377q55 0 55 -58v-686q0 -55 -49 -80q-59 -35 -164.5 -57t-232.5 -22q-151 0 -259.5 37.5t-187.5 123t-118 231t-39 353.5q0 207 39.5 350.5t121.5 230t197.5 124.5t278.5 38q199 0 329 -67q28 -13 38.5 -28.5t4.5 -43.5l-32 -155q-11 -53 -80 -35 q-107 35 -215 35q-134 0 -207.5 -41t-106 -136.5t-32.5 -271.5t33 -276.5t98 -141.5t176 -41q65 0 112 19v340h-137q-57 0 -57 55v145q0 58 57 58z" />
<glyph unicode="H" horiz-adv-x="1230" d="M793 57v531h-355v-531q0 -57 -57 -57h-215q-57 0 -57 57v1332q0 57 57 57h215q57 0 57 -57v-504h355v504q0 57 59 57h215q57 0 57 -57v-1332q0 -57 -57 -57h-215q-59 0 -59 57z" />
<glyph unicode="I" horiz-adv-x="565" d="M119 57v1332q0 57 55 57h217q58 0 58 -57v-1332q0 -57 -58 -57h-217q-55 0 -55 57z" />
<glyph unicode="J" horiz-adv-x="845" d="M414 469v920q0 57 57 57h215q57 0 57 -57v-963q0 -234 -102.5 -338t-312.5 -104q-138 0 -246 49q-30 13 -41.5 28.5t-5.5 44.5l33 162q12 56 63 41q80 -26 135 -26q75 0 111.5 43t36.5 143z" />
<glyph unicode="K" horiz-adv-x="1159" d="M438 926l318 469q18 26 35 38.5t45 12.5h237q32 0 41.5 -23t-8.5 -49l-404 -590l420 -712q16 -28 6 -50t-41 -22h-241q-47 0 -78 53l-330 568v-564q0 -57 -57 -57h-215q-57 0 -57 57v1332q0 57 57 57h215q57 0 57 -57v-463z" />
<glyph unicode="L" horiz-adv-x="958" d="M438 1389v-1090h398q57 0 57 -57v-185q0 -57 -57 -57h-670q-57 0 -57 57v1332q0 57 57 57h215q57 0 57 -57z" />
<glyph unicode="M" horiz-adv-x="1456" d="M729 340q-37 0 -53 37l-246 483v-803q0 -57 -57 -57h-207q-57 0 -57 57v1332q0 57 57 57h196q53 0 70 -39l297 -584l295 584q17 39 70 39h196q58 0 58 -57v-1332q0 -57 -58 -57h-207q-55 0 -55 57v803l-248 -483q-16 -37 -51 -37z" />
<glyph unicode="N" horiz-adv-x="1253" d="M1145 1389v-1332q0 -57 -58 -57h-200q-53 0 -72 43l-387 782v-768q0 -57 -57 -57h-205q-57 0 -57 57v1332q0 57 57 57h199q30 0 46 -9.5t27 -31.5l387 -784v768q0 57 58 57h204q58 0 58 -57z" />
<glyph unicode="O" horiz-adv-x="1259" d="M631 1468q135 0 234.5 -39t172.5 -125.5t109.5 -231.5t36.5 -349t-36.5 -348.5t-109.5 -230.5t-173 -125t-236 -39q-108 0 -192.5 24t-153 78.5t-114 140t-69.5 211t-24 289.5q0 204 36.5 349t109.5 231.5t173 125.5t236 39zM631 268q77 0 123.5 41t70 141t23.5 273 t-23.5 273t-70 141t-123.5 41q-78 0 -125 -41t-70.5 -141t-23.5 -273t23.5 -273t70.5 -141t125 -41z" />
<glyph unicode="P" horiz-adv-x="1175" d="M436 690h121q119 0 165 50t46 184t-45.5 183.5t-165.5 49.5h-121v-467zM379 0h-213q-57 0 -57 57v1332q0 57 57 57h393q144 0 243 -26.5t167.5 -87t100.5 -161t32 -247.5q0 -146 -32 -246t-100.5 -161t-168 -87.5t-242.5 -26.5h-123v-346q0 -57 -57 -57z" />
<glyph unicode="Q" horiz-adv-x="1257" d="M891 70q53 -17 108 -17q18 0 42 4t32 4q24 0 34.5 -10t10.5 -35v-145q0 -34 -13.5 -47.5t-51.5 -13.5q-123 0 -253 46t-241 142q-241 19 -362 191.5t-121 541.5q0 161 24 285t69 209t113.5 139.5t153.5 79t193 24.5t193 -24.5t153.5 -79t113.5 -139.5t69 -209t24 -285 q0 -259 -77 -425t-214 -236zM629 283q77 0 123.5 41t70 139.5t23.5 267.5q0 247 -51 347t-166 100q-116 0 -166.5 -99.5t-50.5 -347.5q0 -250 50 -349t167 -99z" />
<glyph unicode="R" horiz-adv-x="1183" d="M436 731h135q120 0 165.5 48t45.5 165q0 122 -46 167.5t-167 45.5h-133v-426zM166 1446h407q285 0 414 -114t129 -388q0 -347 -264 -438l250 -434q18 -29 8 -50.5t-43 -21.5h-223q-31 0 -48.5 10.5t-31.5 36.5l-221 410h-107v-400q0 -57 -57 -57h-213q-57 0 -57 57v1332 q0 57 57 57z" />
<glyph unicode="S" horiz-adv-x="1030" d="M971 393q0 -107 -38 -188t-106 -129.5t-155 -72t-193 -23.5q-104 0 -203.5 17t-160.5 42q-31 13 -42 28t-5 44l32 157q13 61 74 39q118 -43 242 -43q219 0 219 135q0 59 -46 100t-165 107q-62 31 -105 56.5t-92 66.5t-78.5 85.5t-49 109.5t-19.5 143q0 205 116 302 t359 97q184 0 313 -51q30 -11 40.5 -25.5t4.5 -43.5l-32 -158q-12 -54 -72 -37q-99 31 -215 31q-94 0 -136 -28t-42 -93q0 -62 51.5 -110t150.5 -101q52 -29 83.5 -47.5t73.5 -47t67 -52.5t52.5 -58t42 -70t24.5 -82.5t10 -99.5z" />
<glyph unicode="T" horiz-adv-x="997" d="M43 1206v183q0 57 57 57h795q57 0 57 -57v-183q0 -59 -57 -59h-231v-1090q0 -57 -58 -57h-215q-57 0 -57 57v1090h-234q-57 0 -57 59z" />
<glyph unicode="U" horiz-adv-x="1214" d="M608 -20q-258 0 -382 119.5t-124 373.5v916q0 57 58 57h215q57 0 57 -57v-879q0 -123 40.5 -178.5t135.5 -55.5q94 0 134 55t40 177v881q0 57 58 57h215q57 0 57 -57v-916q0 -254 -124 -373.5t-380 -119.5z" />
<glyph unicode="V" horiz-adv-x="1206" d="M754 0h-301q-31 0 -48 14.5t-26 46.5l-340 1319q-8 30 4 48t41 18h233q30 0 45 -13t21 -42l162 -744l55 -305h6l56 305l161 744q6 29 21 42t45 13h233q29 0 41 -18t4 -48l-340 -1319q-8 -33 -24.5 -47t-48.5 -14z" />
<glyph unicode="W" horiz-adv-x="1851" d="M825 1446h201q58 0 68 -53l125 -654l59 -331h6l57 329l123 654q12 55 66 55h229q29 0 41 -17.5t6 -48.5l-295 -1319q-8 -33 -24.5 -47t-48.5 -14h-262q-32 0 -49 14.5t-25 46.5l-115 523l-59 317h-4l-60 -317l-114 -523q-11 -61 -74 -61h-262q-59 0 -74 61l-295 1319 q-6 31 6 48.5t41 17.5h230q53 0 65 -55l123 -654l57 -329h6l58 331l127 654q10 53 67 53z" />
<glyph unicode="X" horiz-adv-x="1181" d="M590 451l-201 -400q-26 -51 -78 -51h-229q-30 0 -40.5 22.5t3.5 47.5l358 663l-350 643q-13 25 -3 47.5t40 22.5h234q31 0 47.5 -12t29.5 -39l191 -383l190 383q12 27 29.5 39t48.5 12h232q31 0 41 -22.5t-5 -47.5l-350 -643l359 -663q14 -26 3.5 -48t-40.5 -22h-230 q-30 0 -47 12.5t-30 38.5z" />
<glyph unicode="Y" horiz-adv-x="1185" d="M758 539v-482q0 -57 -58 -57h-215q-57 0 -57 57v482l-389 837q-13 23 -2 46.5t43 23.5h227q55 0 76 -53l147 -377l60 -197h6l61 197l148 377q21 53 74 53h227q33 0 43.5 -23.5t-2.5 -46.5z" />
<glyph unicode="Z" horiz-adv-x="1081" d="M80 57v174q0 42 29 91l501 825h-452q-58 0 -58 59v183q0 57 58 57h770q57 0 57 -57v-175q0 -43 -29 -88l-499 -829h485q57 0 57 -55v-185q0 -57 -57 -57h-807q-55 0 -55 57z" />
<glyph unicode="[" horiz-adv-x="679" d="M618 -41v-131q0 -53 -53 -53h-362q-53 0 -53 53v1565q0 53 53 53h362q53 0 53 -53v-131q0 -54 -53 -54h-127v-1196h127q53 0 53 -53z" />
<glyph unicode="\" horiz-adv-x="825" d="M319 1397l486 -1334q12 -28 1 -45.5t-44 -17.5h-189q-50 0 -67 49l-486 1331q-23 66 43 66h189q30 0 44.5 -12t22.5 -37z" />
<glyph unicode="]" horiz-adv-x="679" d="M61 -172v131q0 53 56 53h125v1196h-125q-56 0 -56 54v131q0 53 56 53h362q53 0 53 -53v-1565q0 -53 -53 -53h-362q-56 0 -56 53z" />
<glyph unicode="^" d="M473 1446h176q30 0 45.5 -10t26.5 -33l305 -627q13 -29 2.5 -48t-39.5 -19h-176q-49 0 -70 47l-182 383l-182 -383q-21 -47 -70 -47h-176q-30 0 -41 19t4 48l305 627q22 43 72 43z" />
<glyph unicode="_" horiz-adv-x="968" d="M885 -242h-801q-53 0 -53 54v65q0 53 53 53h801q53 0 53 -53v-65q0 -54 -53 -54z" />
<glyph unicode="`" horiz-adv-x="651" d="M424 1421l70 -166q8 -19 -0.5 -31t-30.5 -12h-125q-43 0 -72 29l-153 160q-16 17 -10.5 37t30.5 20h234q41 0 57 -37z" />
<glyph unicode="a" horiz-adv-x="1024" d="M930 770v-717q0 -53 -53 -53h-164q-52 0 -58 45l-8 72q-89 -131 -291 -131q-139 0 -222 84t-83 245q0 91 28 156.5t74.5 105.5t123.5 63.5t159 32.5t197 11v59q0 70 -40 102t-128 32q-106 0 -252 -48q-57 -16 -66 37l-22 140q-9 47 37 63q63 26 159 42.5t189 16.5 q220 0 320 -87t100 -271zM633 397v109q-154 -5 -219.5 -38t-65.5 -132q0 -62 29.5 -97.5t87.5 -35.5q85 0 126.5 53t41.5 141z" />
<glyph unicode="b" horiz-adv-x="1132" d="M408 555q0 -169 43.5 -244t132.5 -75q87 0 126.5 73t39.5 246t-39.5 246t-126.5 73q-89 0 -132.5 -75t-43.5 -244zM401 117l-8 -72q-6 -45 -57 -45h-182q-54 0 -54 53v1340q0 53 54 53h202q56 0 56 -53v-387q31 54 106 89t162 35q385 0 385 -575q0 -299 -98 -437 t-289 -138q-89 0 -166 38.5t-111 98.5z" />
<glyph unicode="c" horiz-adv-x="888" d="M66 557q0 291 123 432t354 141q71 0 141 -15t109 -34q26 -12 34 -26t2 -39l-32 -146q-11 -45 -68 -30q-81 22 -137 22q-109 0 -160 -70t-51 -235q0 -168 51 -238.5t160 -70.5q69 0 145 26q56 20 68 -30l33 -146q6 -25 -3 -38.5t-36 -28.5q-36 -21 -107.5 -36t-140.5 -15 q-485 0 -485 577z" />
<glyph unicode="d" horiz-adv-x="1132" d="M725 555q0 169 -43.5 244t-132.5 75q-88 0 -127 -72.5t-39 -246.5t39 -246.5t127 -72.5q89 0 132.5 75t43.5 244zM739 45l-8 72q-34 -60 -111 -98.5t-165 -38.5q-192 0 -289.5 138t-97.5 437q0 575 387 575q86 0 160.5 -35t105.5 -89v387q0 53 53 53h205q53 0 53 -53 v-1340q0 -53 -53 -53h-182q-52 0 -58 45z" />
<glyph unicode="e" horiz-adv-x="1038" d="M623 217q118 0 219 43q26 9 44.5 -1t22.5 -36l23 -121q4 -26 -6 -41t-35 -26q-128 -55 -295 -55q-268 0 -399 140.5t-131 436.5q0 288 118.5 430.5t347.5 142.5q223 0 332 -135t109 -389v-112q0 -58 -60 -58h-542q12 -112 73.5 -165.5t178.5 -53.5zM535 899 q-83 0 -123 -61.5t-47 -204.5h323v20q0 246 -153 246z" />
<glyph unicode="f" horiz-adv-x="684" d="M455 1067h145q53 0 53 -55v-150q0 -53 -53 -53h-145v-758q0 -51 -54 -51h-196q-53 0 -53 51v758h-74q-51 0 -51 51v154q0 53 51 53h74v78q0 172 73.5 243.5t237.5 71.5q91 0 147 -16q23 -6 34 -18t11 -35v-125q0 -57 -49 -54q-40 5 -59 5q-52 0 -72 -23t-20 -82v-45z" />
<glyph unicode="g" horiz-adv-x="1081" d="M684 629q0 262 -156 262q-76 0 -111.5 -63.5t-35.5 -200.5t35.5 -201t111.5 -64q156 0 156 267zM985 1055v-881q0 -420 -479 -420q-220 0 -324 49q-26 11 -35.5 25t-5.5 41l21 129q9 54 67 37q119 -39 242 -39q112 0 165.5 46t53.5 142v70q-32 -59 -98 -91t-156 -32 q-180 0 -273 119.5t-93 376.5q0 501 364 501q89 0 157.5 -38t102.5 -97l6 72q3 45 60 45h172q53 0 53 -55z" />
<glyph unicode="h" horiz-adv-x="1091" d="M997 754v-701q0 -53 -53 -53h-203q-53 0 -53 53v633q0 86 -27 127t-94 41q-155 0 -155 -207v-594q0 -53 -56 -53h-202q-54 0 -54 53v1340q0 53 54 53h202q56 0 56 -53v-389q36 52 104.5 89t167.5 37q159 0 236 -98t77 -278z" />
<glyph unicode="i" horiz-adv-x="516" d="M414 1055v-1002q0 -53 -54 -53h-204q-54 0 -54 53v1002q0 55 54 55h204q54 0 54 -55zM416 1389v-125q0 -54 -54 -54h-210q-52 0 -52 54v125q0 55 52 55h210q54 0 54 -55z" />
<glyph unicode="j" horiz-adv-x="555" d="M143 125v930q0 55 54 55h202q54 0 54 -55v-977q0 -174 -66.5 -245t-226.5 -71q-86 0 -135 15q-25 6 -36.5 17.5t-11.5 35.5v152q0 50 50 47q7 0 24 -1t25 -1q36 0 51.5 21t15.5 77zM457 1389v-125q0 -54 -54 -54h-210q-54 0 -54 54v125q0 55 54 55h210q54 0 54 -55z" />
<glyph unicode="k" horiz-adv-x="1015" d="M956 0h-225q-52 0 -76 43l-243 403v-393q0 -53 -56 -53h-202q-54 0 -54 53v1340q0 53 54 53h202q56 0 56 -53v-639l231 315q26 41 76 41h223q32 0 40 -22.5t-11 -47.5l-328 -428l346 -544q16 -26 6.5 -47t-39.5 -21z" />
<glyph unicode="l" horiz-adv-x="516" d="M414 1393v-1340q0 -53 -54 -53h-204q-54 0 -54 53v1340q0 53 54 53h204q54 0 54 -53z" />
<glyph unicode="m" horiz-adv-x="1619" d="M965 662v-609q0 -53 -54 -53h-198q-54 0 -54 53v639q0 82 -24.5 123t-83.5 41q-73 0 -110.5 -54t-37.5 -149v-600q0 -53 -53 -53h-200q-54 0 -54 53v1002q0 55 54 55h182q53 0 59 -45l10 -74q36 58 105 98.5t166 40.5q187 0 252 -153q46 68 124 110.5t181 42.5 q297 0 297 -366v-711q0 -53 -51 -53h-201q-55 0 -55 53v639q0 83 -24.5 123.5t-86.5 40.5q-70 0 -106.5 -53t-36.5 -141z" />
<glyph unicode="n" horiz-adv-x="1083" d="M989 754v-701q0 -53 -53 -53h-203q-53 0 -53 53v635q0 84 -27.5 125t-93.5 41q-153 0 -153 -207v-594q0 -53 -56 -53h-203q-53 0 -53 53v1002q0 55 53 55h183q53 0 59 -45l10 -74q37 59 108 99t171 40q311 0 311 -376z" />
<glyph unicode="o" horiz-adv-x="1085" d="M543 -20q-477 0 -477 575t477 575t477 -575t-477 -575zM543 233q84 0 121.5 73.5t37.5 248.5t-37.5 248.5t-121.5 73.5q-86 0 -124 -73.5t-38 -248.5t38 -248.5t124 -73.5z" />
<glyph unicode="p" horiz-adv-x="1128" d="M403 555q0 -169 44 -244t131 -75q88 0 126.5 72.5t38.5 246.5t-38.5 246.5t-126.5 72.5q-87 0 -131 -75t-44 -244zM389 1065l8 -74q33 59 110.5 99t164.5 40q192 0 290.5 -138.5t98.5 -436.5q0 -575 -387 -575q-87 0 -161.5 34t-106.5 90v-276q0 -53 -54 -53h-202 q-54 0 -54 53v1227q0 55 54 55h180q53 0 59 -45z" />
<glyph unicode="q" horiz-adv-x="1128" d="M725 555q0 169 -43.5 244t-132.5 75q-87 0 -126.5 -73t-39.5 -246t39.5 -246t126.5 -73q89 0 132.5 75t43.5 244zM731 991l8 74q6 45 58 45h182q53 0 53 -55v-1227q0 -53 -53 -53h-205q-53 0 -53 53v276q-32 -57 -106 -90.5t-162 -33.5q-192 0 -288.5 140t-96.5 435 q0 297 99 436t290 139q87 0 164 -40t110 -99z" />
<glyph unicode="r" horiz-adv-x="745" d="M150 1110h186q28 0 40 -12t15 -39l10 -115q30 71 96.5 123.5t155.5 52.5q31 0 42.5 -12t11.5 -41v-231q0 -27 -11 -37.5t-34 -10.5q-10 0 -32 3.5t-38 3.5q-86 0 -136 -66t-50 -174v-502q0 -53 -54 -53h-202q-54 0 -54 53v1002q0 55 54 55z" />
<glyph unicode="s" horiz-adv-x="860" d="M811 305q0 -325 -418 -325q-176 0 -299 45q-25 8 -34.5 21.5t-6.5 39.5l21 137q6 52 63 35q91 -31 207 -31q164 0 164 90q0 43 -39 71t-137 71q-118 51 -163 84q-107 79 -117 231q-1 17 -1 35q0 164 98.5 242.5t296.5 78.5q159 0 277 -40q25 -8 34 -21.5t5 -40.5 l-21 -135q-6 -52 -59 -37q-97 27 -182 27q-75 0 -110.5 -19t-35.5 -67q0 -18 9.5 -34.5t22 -28.5t41.5 -28t49.5 -25.5t64.5 -29.5q67 -29 111 -56t83 -67t57.5 -95t18.5 -128z" />
<glyph unicode="t" horiz-adv-x="698" d="M598 809h-152v-438q0 -71 20.5 -96t78.5 -25q9 0 27.5 2t27.5 2q23 2 35.5 -10.5t13.5 -38.5l6 -146q1 -25 -10 -36.5t-35 -18.5q-63 -18 -149 -18q-174 0 -246 75t-72 263v485h-73q-52 0 -52 51v154q0 53 52 53h75v236q0 51 54 51h192q55 0 55 -51v-236h152q53 0 53 -55 v-150q0 -53 -53 -53z" />
<glyph unicode="u" horiz-adv-x="1075" d="M90 340v715q0 55 53 55h203q53 0 53 -55v-635q0 -83 26.5 -125.5t92.5 -42.5q74 0 113 53t39 148v602q0 55 53 55h203q53 0 53 -55v-1002q0 -53 -53 -53h-183q-53 0 -59 45l-8 74q-88 -139 -266 -139q-162 0 -241 89t-79 271z" />
<glyph unicode="v" horiz-adv-x="997" d="M618 0h-239q-53 0 -68 49l-282 1000q-8 28 3 44.5t38 16.5h213q28 0 42.5 -13t20.5 -40l105 -486l45 -233h6l47 233l104 486q10 53 62 53h215q27 0 38 -16.5t3 -44.5l-285 -1000q-15 -49 -68 -49z" />
<glyph unicode="w" horiz-adv-x="1542" d="M690 1110h162q47 0 57 -49l109 -490l39 -223h4l35 223l92 486q9 53 61 53h215q26 0 36.5 -16.5t4.5 -44.5l-237 -994q-12 -55 -68 -55h-213q-55 0 -69 55l-95 389l-49 256h-6l-49 -256l-94 -389q-14 -55 -70 -55h-213q-56 0 -68 55l-237 994q-6 28 4.5 44.5t36.5 16.5 h215q52 0 61 -53l92 -486l35 -223h4l39 223l109 490q5 24 17.5 36.5t39.5 12.5z" />
<glyph unicode="x" horiz-adv-x="1003" d="M362 1067l142 -272l139 272q19 43 74 43h209q27 0 34.5 -19t-6.5 -44l-286 -484l297 -502q14 -23 5.5 -42t-34.5 -19h-219q-56 0 -74 41l-143 283l-144 -283q-21 -41 -73 -41h-217q-26 0 -33.5 18t6.5 43l295 502l-287 484q-14 25 -6.5 44t33.5 19h215q54 0 73 -43z" />
<glyph unicode="y" horiz-adv-x="995" d="M967 1049l-248 -961q-24 -93 -50 -150.5t-70 -100t-109 -60t-162 -17.5q-119 0 -197 21q-25 8 -35.5 19.5t-9.5 33.5l8 143q1 26 12.5 37t36.5 11q13 0 45 -4.5t56 -4.5q61 0 80 34.5t-2 88.5l-289 910q-9 28 1 44.5t38 16.5h215q49 0 61 -53l119 -490l49 -239h6l41 239 l88 490q9 53 62 53h211q28 0 39.5 -16.5t3.5 -44.5z" />
<glyph unicode="z" horiz-adv-x="927" d="M850 1055v-119q0 -35 -27 -74l-389 -596h371q53 0 53 -53v-160q0 -53 -53 -53h-684q-51 0 -51 53v119q0 38 20 70l395 602h-348q-28 0 -40.5 12t-12.5 39v160q0 55 53 55h658q55 0 55 -55z" />
<glyph unicode="{" horiz-adv-x="679" d="M37 532v156q0 53 53 53h23q47 0 67.5 66t20.5 231q0 168 27 254t89.5 120t184.5 34h86q53 0 53 -53v-129q0 -54 -53 -54h-27q-46 0 -61 -47.5t-15 -173.5q0 -176 -40 -265t-128 -114q88 -25 128 -114t40 -265q0 -126 15 -173.5t61 -47.5h27q53 0 53 -53v-129 q0 -53 -53 -53h-86q-61 0 -104.5 7t-78.5 25.5t-56.5 47t-36 75.5t-20 107t-5.5 145q0 165 -20.5 231t-67.5 66h-23q-53 0 -53 53z" />
<glyph unicode="|" horiz-adv-x="614" d="M449 1434v-1606q0 -53 -54 -53h-176q-53 0 -53 53v1606q0 53 53 53h176q54 0 54 -53z" />
<glyph unicode="}" horiz-adv-x="679" d="M641 688v-156q0 -53 -51 -53h-25q-45 0 -65.5 -66t-20.5 -231q0 -85 -5.5 -145t-20 -107t-36 -75.5t-56.5 -47t-78.5 -25.5t-104.5 -7h-86q-55 0 -55 53v129q0 53 55 53h25q47 0 61.5 46.5t14.5 174.5q0 176 40.5 265t128.5 114q-88 25 -128.5 114t-40.5 265 q0 128 -14.5 174.5t-61.5 46.5h-25q-55 0 -55 54v129q0 53 55 53h86q122 0 184.5 -34t89.5 -120t27 -254q0 -165 20.5 -231t65.5 -66h25q51 0 51 -53z" />
<glyph unicode="~" d="M315 936q98 0 203 -51l105 -49q67 -31 106 -31q58 0 84 61l14 37q6 19 23 24t39 -5l115 -56q20 -9 27.5 -24t4.5 -43q-11 -122 -68 -195.5t-161 -73.5q-91 0 -203 50l-102 51q-67 31 -107 31q-60 0 -86 -64l-12 -35q-6 -19 -24 -24t-40 6l-112 55q-21 9 -28.5 23t-6.5 41 q11 124 68.5 198t160.5 74z" />
<glyph unicode="&#xa1;" horiz-adv-x="569" d="M446 1053v-213q0 -56 -57 -56h-209q-57 0 -57 56v213q0 57 53 57h215q55 0 55 -57zM211 655h145q55 0 58 -53l49 -809q3 -57 -55 -57h-248q-57 0 -54 57l50 809q3 53 55 53z" />
<glyph unicode="&#xa2;" horiz-adv-x="925" d="M70 555q0 517 403 569v129q0 52 49 52h86q51 0 51 -52v-129q103 -14 166 -45q25 -11 33 -24t2 -39l-33 -146q-12 -50 -67 -32q-84 24 -148 24q-117 0 -172 -70.5t-55 -236.5q0 -168 55 -237.5t174 -69.5q80 0 154 24q56 18 68 -30l32 -144q6 -25 -2 -40t-32 -27 q-60 -32 -175 -45v-129q0 -52 -51 -52h-86q-49 0 -49 52v131q-403 48 -403 567z" />
<glyph unicode="&#xa3;" horiz-adv-x="1187" d="M264 647h-158q-43 0 -43 43v74q0 22 10 31.5t33 9.5h91q-64 147 -64 246q0 91 28 165t85.5 131.5t153.5 89t223 31.5q223 0 337.5 -99t114.5 -284q0 -50 -9.5 -78t-37.5 -28h-186q-26 0 -37.5 9.5t-11.5 31.5q0 9 2 27.5t2 31.5q0 56 -40.5 88.5t-121.5 32.5 q-184 0 -184 -170q0 -72 53 -225h276q43 0 43 -41v-74q0 -43 -43 -43h-229q24 -74 24 -129q0 -77 -36.5 -142t-102.5 -110q58 17 115 17q45 0 112 -15.5t105 -15.5q97 0 104 127q3 47 60 47h147q29 0 44.5 -14.5t15.5 -53.5q0 -182 -62 -278t-207 -96q-85 0 -207.5 31.5 t-193.5 31.5q-125 0 -219 -49q-48 -21 -66 4l-112 162q-25 36 10 59q207 141 207 299q0 52 -25 125z" />
<glyph unicode="&#xa4;" horiz-adv-x="1150" d="M143 256l88 88q-53 95 -53 238q0 140 53 235l-88 88q-31 31 0 62l47 47q32 28 60 0l78 -80q99 80 247 80q150 0 246 -80l80 80q28 28 60 0l49 -47q15 -14 15 -31.5t-15 -30.5l-92 -90q55 -99 55 -233q0 -142 -55 -236l92 -90q31 -31 0 -59l-49 -47q-30 -30 -60 0l-80 79 q-91 -82 -246 -82q-152 0 -247 82l-78 -79q-30 -30 -60 0l-47 47q-31 31 0 59zM741 582q0 110 -44 166.5t-122 56.5q-80 0 -123.5 -56.5t-43.5 -166.5t44.5 -167t122.5 -57t122 57t44 167z" />
<glyph unicode="&#xa5;" horiz-adv-x="1175" d="M754 336v-279q0 -57 -58 -57h-215q-59 0 -59 57v279h-264q-41 0 -41 43v72q0 43 41 43h264v30l-51 115h-213q-41 0 -41 45v70q0 23 9.5 33t31.5 10h143l-266 579q-12 25 -1.5 47.5t42.5 22.5h227q55 0 74 -53l209 -559h6l209 559q16 53 73 53h226q32 0 42.5 -22.5 t-1.5 -47.5l-267 -579h144q43 0 43 -43v-70q0 -45 -43 -45h-213l-51 -115v-30h264q43 0 43 -43v-72q0 -43 -43 -43h-264z" />
<glyph unicode="&#xa6;" horiz-adv-x="614" d="M449 1434v-582q0 -53 -54 -53h-176q-53 0 -53 53v582q0 53 53 53h176q54 0 54 -53zM449 410v-582q0 -53 -54 -53h-176q-53 0 -53 53v582q0 53 53 53h176q54 0 54 -53z" />
<glyph unicode="&#xa7;" horiz-adv-x="1200" d="M104 655q0 84 42 150.5t120 95.5q-56 48 -85 101.5t-29 125.5q0 175 112 257.5t350 82.5q176 0 322 -43q29 -9 39.5 -24t7.5 -45l-14 -144q-6 -52 -70 -36q-115 28 -235 28q-104 0 -148.5 -24.5t-44.5 -79.5q0 -17 6 -32t20.5 -28t28 -23t39.5 -22t43.5 -19.5t52.5 -21.5 t54 -22q79 -32 128 -55t102 -56t82 -67t48 -81.5t19 -105.5q0 -161 -162 -239q123 -91 123 -226q0 -170 -134.5 -256t-385.5 -86q-204 0 -334 41q-29 9 -39.5 25t-7.5 45l12 143q6 54 72 39q111 -30 266 -30q231 0 231 104q0 21 -11 40t-26.5 31.5t-43.5 27t-49.5 23.5 t-59 23t-58.5 23q-64 26 -97.5 40t-81.5 37.5t-72.5 41t-54.5 44.5t-43.5 54t-23.5 63.5t-10 79.5zM485 770q-43 -12 -66.5 -40t-23.5 -66q0 -25 14.5 -47.5t36.5 -39.5t65.5 -37.5t82.5 -36t106 -40.5q7 -3 11 -4q42 12 66 39t24 61q1 26 -14.5 50t-38 42t-68.5 40 t-85.5 37.5t-109.5 41.5z" />
<glyph unicode="&#xa8;" horiz-adv-x="651" d="M268 1384v-120q0 -52 -51 -52h-170q-51 0 -51 52v120q0 52 51 52h170q51 0 51 -52zM655 1384v-120q0 -52 -51 -52h-170q-51 0 -51 52v120q0 52 51 52h170q51 0 51 -52z" />
<glyph unicode="&#xa9;" horiz-adv-x="1624" d="M883 498q60 0 114 20q41 12 50 -24l26 -105q4 -21 -1.5 -31t-24.5 -18q-34 -16 -90.5 -27.5t-106.5 -11.5q-189 0 -286.5 101.5t-98.5 330.5q1 228 98 329t285 101q94 0 192 -39q19 -8 25 -18.5t2 -30.5l-27 -104q-9 -40 -49 -25q-59 19 -110 19q-90 0 -133 -53t-43 -179 q0 -128 43.5 -181.5t134.5 -53.5zM266 723q0 -126 32 -230.5t96.5 -185t171.5 -125.5t247 -45t246 45t170.5 125.5t96.5 185t32 230.5t-32 230.5t-96.5 185t-170.5 125.5t-246 45t-247 -45t-171.5 -125.5t-96.5 -185t-32 -230.5zM94 723q0 123 28.5 233.5t87 204t143 162 t202.5 107t258 38.5t258 -38.5t202.5 -107t143 -162t87 -204t28.5 -233.5t-28.5 -233t-87 -203.5t-143 -161.5t-202.5 -106.5t-258 -38.5t-258 38.5t-202.5 106.5t-143 161.5t-87 203.5t-28.5 233z" />
<glyph unicode="&#xaa;" horiz-adv-x="823" d="M506 1317v84q-119 -2 -171 -29t-52 -100q0 -103 88 -103q67 0 101 40.5t34 107.5zM518 1044l-6 43q-72 -94 -225 -94q-111 0 -178.5 65.5t-67.5 190.5q0 63 15 110.5t46.5 79t69.5 52.5t95 32t111 15.5t128 5.5v53q0 54 -30 76.5t-99 22.5q-84 0 -203 -39q-49 -13 -57 33 l-21 108q-4 20 4 31.5t29 19.5q123 49 277 49q177 0 259.5 -68.5t82.5 -211.5v-565q0 -47 -50 -47h-129q-45 0 -51 38z" />
<glyph unicode="&#xab;" horiz-adv-x="968" d="M53 594q0 11 8 24l140 287q9 21 22.5 30t40.5 9h172q27 0 36 -14t-3 -39l-147 -297l147 -297q11 -23 2 -38t-35 -15h-172q-27 0 -40.5 9t-22.5 30l-140 286q-8 13 -8 25zM471 594q0 9 6 24l139 287q9 21 23 30t41 9h174q25 0 34 -14t-3 -39l-148 -297l148 -297 q12 -25 3 -39t-34 -14h-174q-27 0 -41 9t-23 30l-139 286q-6 15 -6 25z" />
<glyph unicode="&#xac;" horiz-adv-x="1150" d="M1020 799v-514q0 -56 -53 -56h-195q-53 0 -53 54v309h-567q-54 0 -54 53v154q0 53 54 53h815q53 0 53 -53z" />
<glyph unicode="&#xad;" horiz-adv-x="692" d="M573 455h-454q-51 0 -51 53v149q0 52 51 52h454q54 0 54 -52v-149q0 -53 -54 -53z" />
<glyph unicode="&#xae;" horiz-adv-x="876" d="M410 1120h34q34 0 47 11t13 40t-13 40.5t-47 11.5h-34v-103zM438 1468q167 0 258.5 -103.5t91.5 -256.5t-91.5 -256.5t-258.5 -103.5q-166 0 -258 103.5t-92 256.5t92 256.5t258 103.5zM438 825q133 0 200 78t67 205q0 126 -67 204.5t-200 78.5t-199.5 -78.5 t-66.5 -204.5q0 -127 66.5 -205t199.5 -78zM299 934v358q0 23 23 23h129q81 0 122 -34t41 -110q0 -95 -75 -122l69 -113q5 -9 0.5 -17t-14.5 -8h-72q-16 0 -26 17l-60 104h-26v-98q0 -23 -23 -23h-65q-23 0 -23 23z" />
<glyph unicode="&#xaf;" horiz-adv-x="651" d="M606 1223h-561q-49 0 -49 49v84q0 49 49 49h561q49 0 49 -49v-84q0 -49 -49 -49z" />
<glyph unicode="&#xb0;" horiz-adv-x="735" d="M369 1008q65 0 104 41.5t39 111.5q0 69 -39.5 111.5t-103.5 42.5q-66 0 -106 -42.5t-40 -111.5q0 -70 40 -111.5t106 -41.5zM369 858q-136 0 -221 84.5t-85 218.5t85 217.5t221 83.5q135 0 219 -83.5t84 -217.5t-84 -218.5t-219 -84.5z" />
<glyph unicode="&#xb1;" d="M977 684h-272v-291q0 -51 -54 -51h-178q-55 0 -55 51v291h-273q-53 0 -53 53v150q0 51 53 51h273v283q0 53 55 53h178q54 0 54 -53v-283h272q55 0 55 -51v-150q0 -53 -55 -53zM977 0h-832q-53 0 -53 53v103q0 53 53 53h832q55 0 55 -53v-103q0 -53 -55 -53z" />
<glyph unicode="&#xb2;" horiz-adv-x="770" d="M281 1628q0 -9 4 -55q-3 -37 -43 -37h-123q-39 0 -45 43q-6 24 -6 55q0 124 79.5 194t233.5 70q152 0 227.5 -71.5t75.5 -188.5q0 -71 -27 -139.5t-73.5 -124.5t-92.5 -98t-100 -80h262q43 0 43 -45v-100q0 -45 -43 -45h-530q-43 0 -43 45v90q0 16 7 25.5t24 21.5 q342 238 342 432q0 90 -86 90t-86 -82z" />
<glyph unicode="&#xb3;" horiz-adv-x="770" d="M342 1368h-86q-45 0 -45 45v84q0 45 45 45h80q50 0 75 20t25 68q0 82 -129 82q-70 0 -155 -31q-45 -14 -54 25l-20 104q-3 18 2.5 28t23.5 17q92 43 246 43q314 0 314 -229q0 -74 -32.5 -122.5t-82.5 -67.5q129 -51 129 -213q0 -137 -85.5 -205t-240.5 -68 q-78 0 -147.5 13.5t-106.5 29.5q-21 10 -27.5 19t-2.5 28l20 105q9 41 55 24q91 -28 174 -28q67 0 99.5 22t32.5 74q0 47 -26 67.5t-81 20.5z" />
<glyph unicode="&#xb4;" horiz-adv-x="651" d="M158 1255l69 166q16 37 58 37h233q25 0 31 -20t-10 -37l-156 -160q-25 -29 -70 -29h-125q-21 0 -29.5 12t-0.5 31z" />
<glyph unicode="&#xb5;" horiz-adv-x="1077" d="M985 1055v-721q0 -182 -75 -268t-236 -86q-100 0 -168.5 39.5t-104.5 97.5l5 -291q0 -51 -56 -51h-200q-54 0 -54 53v1227q0 55 54 55h202q54 0 54 -55v-598q0 -97 39 -151t114 -54q67 0 92 40t25 124v639q0 55 53 55h203q53 0 53 -55z" />
<glyph unicode="&#xb6;" horiz-adv-x="1064" d="M973 1282h-66q-58 0 -81 -25t-23 -90v-1151q0 -131 -50 -191.5t-171 -60.5q-85 0 -138 21q-30 10 -30 45v70q0 32 39 32q11 0 36.5 -3t40.5 -3q42 0 60 25t18 88v500h-57q-218 0 -344.5 115t-126.5 339q0 225 124.5 339t344.5 114h424q49 0 49 -49v-68q0 -25 -11.5 -36 t-37.5 -11z" />
<glyph unicode="&#xb7;" horiz-adv-x="479" d="M84 461v207q0 55 59 55h195q57 0 57 -55v-207q0 -55 -55 -55h-201q-55 0 -55 55z" />
<glyph unicode="&#xb8;" horiz-adv-x="651" d="M217 25h102q97 -24 163.5 -77.5t66.5 -129.5q0 -73 -53 -111.5t-154 -38.5q-57 0 -104 13q-29 10 -29 34v74q0 27 29 27h65q72 0 72 55q0 84 -158 154z" />
<glyph unicode="&#xb9;" horiz-adv-x="770" d="M334 1636l-109 -77q-36 -22 -61 6l-60 75q-25 31 7 56l211 174q22 16 61 16h133q49 0 49 -47v-786q0 -47 -49 -47h-135q-47 0 -47 47v583z" />
<glyph unicode="&#xba;" horiz-adv-x="862" d="M430 1694q-67 0 -97 -57.5t-30 -190.5t30 -190.5t97 -57.5t97 57.5t30 190.5t-30 190.5t-97 57.5zM430 993q-379 0 -379 453q0 455 379 455q381 0 381 -455q0 -453 -381 -453z" />
<glyph unicode="&#xbb;" horiz-adv-x="968" d="M915 594q0 -10 -6 -25l-141 -286q-9 -21 -22.5 -30t-38.5 -9h-175q-25 0 -33.5 14t3.5 39l145 297l-145 297q-12 25 -3.5 39t33.5 14h175q25 0 38.5 -9t22.5 -30l141 -287q6 -15 6 -24zM500 594q0 -12 -8 -25l-140 -286q-9 -21 -22.5 -30t-38.5 -9h-174q-25 0 -34 14 t3 39l145 297l-145 297q-12 25 -3 39t34 14h174q25 0 38.5 -9t22.5 -30l140 -287q8 -13 8 -24z" />
<glyph unicode="&#xbc;" horiz-adv-x="1804" d="M1397 1395l-701 -1350q-13 -24 -28 -34.5t-41 -10.5h-129q-26 0 -33.5 14t4.5 37l700 1350q12 24 27.5 34.5t42.5 10.5h129q26 0 33.5 -14t-4.5 -37zM334 1196l-109 -78q-36 -22 -61 6l-60 76q-24 31 7 55l211 175q22 16 61 16h133q49 0 49 -47v-787q0 -47 -49 -47h-135 q-47 0 -47 47v584zM1440 627l-187 -269h187v269zM1724 174h-57v-127q0 -47 -47 -47h-133q-47 0 -47 47v127h-328q-43 0 -43 43v102q0 31 16 50l345 483q19 29 51 29h139q47 0 47 -47v-476h57q48 0 48 -45v-92q0 -47 -48 -47z" />
<glyph unicode="&#xbd;" horiz-adv-x="1804" d="M1333 1395l-700 -1350q-13 -23 -28.5 -34t-41.5 -11h-129q-26 0 -33 14t5 37l700 1350q12 24 27.5 34.5t42.5 10.5h129q26 0 33 -14t-5 -37zM334 1196l-109 -78q-36 -22 -61 6l-60 76q-24 31 7 55l211 175q22 16 61 16h133q49 0 49 -47v-787q0 -47 -49 -47h-135 q-47 0 -47 47v584zM1319 623q0 82 86 82t86 -91q0 -194 -342 -432q-17 -12 -24 -21.5t-7 -25.5v-90q0 -45 43 -45h531q43 0 43 45v100q0 45 -43 45h-262q53 37 99.5 79.5t92.5 99t73 125t27 139.5q0 117 -75.5 188.5t-227.5 71.5q-154 0 -233.5 -70t-79.5 -194q0 -32 6 -56 q6 -43 45 -43h123q40 0 43 37q-4 46 -4 56z" />
<glyph unicode="&#xbe;" horiz-adv-x="1804" d="M1421 1395l-700 -1350q-13 -23 -28.5 -34t-41.5 -11h-129q-26 0 -33 14t5 37l700 1350q12 24 27.5 34.5t42.5 10.5h129q26 0 33 -14t-5 -37zM1440 627l-187 -269h187v269zM1724 174h-57v-127q0 -47 -47 -47h-133q-47 0 -47 47v127h-328q-43 0 -43 43v102q0 31 16 50 l345 483q19 29 51 29h139q47 0 47 -47v-476h57q48 0 48 -45v-92q0 -47 -48 -47zM342 928h-86q-45 0 -45 45v84q0 45 45 45h80q50 0 75 20t25 68q0 82 -129 82q-70 0 -155 -31q-45 -14 -54 25l-20 104q-3 18 2.5 28t23.5 17q92 43 246 43q314 0 314 -229q0 -74 -32.5 -123 t-82.5 -68q129 -51 129 -213q0 -137 -85.5 -204.5t-240.5 -67.5q-78 0 -147.5 13.5t-106.5 29.5q-21 10 -27.5 19t-2.5 28l20 105q9 41 55 24q94 -29 174 -29q67 0 99.5 22.5t32.5 74.5q0 47 -26 67.5t-81 20.5z" />
<glyph unicode="&#xbf;" horiz-adv-x="888" d="M633 1053v-215q0 -54 -58 -54h-210q-58 0 -58 56v213q0 57 55 57h216q55 0 55 -57zM317 600v-18q0 -46 -26 -92.5t-63 -89t-73.5 -90.5t-62.5 -116.5t-26 -146.5q0 -328 413 -328q201 0 340 60q26 11 34.5 24.5t4.5 40.5l-33 162q-9 51 -65 33l-16 -5q-15 -6 -17 -6.5 t-17 -5t-19.5 -5.5t-18.5 -5t-22 -5t-22 -3.5t-25 -3t-25.5 -1.5t-28.5 -1q-87 0 -122.5 29t-35.5 92q0 47 23 94.5t55.5 88.5t64.5 83t55 93.5t23 103.5v18q0 55 -57 55h-180q-58 0 -58 -55z" />
<glyph unicode="&#xc0;" horiz-adv-x="1220" d="M477 563h266l-129 557h-6zM463 1446h297q35 0 50.5 -13.5t23.5 -43.5l352 -1323q8 -29 -5 -47.5t-42 -18.5h-224q-30 0 -44.5 13t-20.5 40l-57 228h-365l-57 -228q-12 -53 -64 -53h-225q-29 0 -42 18.5t-5 47.5l352 1323q8 30 24 43.5t52 13.5zM641 1745l70 -166 q8 -19 0 -31t-31 -12h-123q-43 0 -72 29l-155 161q-16 15 -10.5 36.5t30.5 21.5h234q43 0 57 -39z" />
<glyph unicode="&#xc1;" horiz-adv-x="1220" d="M477 563h266l-129 557h-6zM463 1446h297q35 0 50.5 -13.5t23.5 -43.5l352 -1323q8 -29 -5 -47.5t-42 -18.5h-224q-30 0 -44.5 13t-20.5 40l-57 228h-365l-57 -228q-12 -53 -64 -53h-225q-29 0 -42 18.5t-5 47.5l352 1323q8 30 24 43.5t52 13.5zM512 1579l70 166 q14 39 57 39h233q25 0 31 -21.5t-10 -36.5l-156 -161q-25 -29 -71 -29h-123q-23 0 -31 12t0 31z" />
<glyph unicode="&#xc2;" horiz-adv-x="1220" d="M477 563h266l-129 557h-6zM463 1446h297q35 0 50.5 -13.5t23.5 -43.5l352 -1323q8 -29 -5 -47.5t-42 -18.5h-224q-30 0 -44.5 13t-20.5 40l-57 228h-365l-57 -228q-12 -53 -64 -53h-225q-29 0 -42 18.5t-5 47.5l352 1323q8 30 24 43.5t52 13.5zM715 1567l-105 92 l-104 -92q-31 -31 -66 -31h-110q-25 0 -31.5 17t10.5 34l168 180q29 29 72 29h123q40 0 69 -29l170 -180q17 -17 11 -34t-31 -17h-111q-16 0 -28 4.5t-19 10t-18 16.5z" />
<glyph unicode="&#xc3;" horiz-adv-x="1220" d="M477 563h266l-129 557h-6zM463 1446h297q35 0 50.5 -13.5t23.5 -43.5l352 -1323q8 -29 -5 -47.5t-42 -18.5h-224q-30 0 -44.5 13t-20.5 40l-57 228h-365l-57 -228q-12 -53 -64 -53h-225q-29 0 -42 18.5t-5 47.5l352 1323q8 30 24 43.5t52 13.5zM948 1696 q0 -166 -151 -166q-84 0 -160 31l-70 28q-53 20 -86 17.5t-41 -27.5l-4 -12q-6 -19 -15.5 -26t-29.5 -7h-69q-27 0 -38.5 14.5t-11.5 53.5q0 170 154 170q74 0 158 -31l69 -29q54 -24 88.5 -21.5t38.5 31.5l2 13q4 18 15 25t32 7h70q25 0 37 -16t12 -55z" />
<glyph unicode="&#xc4;" horiz-adv-x="1220" d="M477 563h266l-129 557h-6zM463 1446h297q35 0 50.5 -13.5t23.5 -43.5l352 -1323q8 -29 -5 -47.5t-42 -18.5h-224q-30 0 -44.5 13t-20.5 40l-57 228h-365l-57 -228q-12 -53 -64 -53h-225q-29 0 -42 18.5t-5 47.5l352 1323q8 30 24 43.5t52 13.5zM551 1706v-119 q0 -51 -53 -51h-172q-52 0 -52 51v119q0 51 52 51h172q53 0 53 -51zM946 1706v-119q0 -51 -51 -51h-172q-27 0 -39 12t-12 39v119q0 27 12 39t39 12h172q51 0 51 -51z" />
<glyph unicode="&#xc5;" horiz-adv-x="1220" d="M385 1536q0 94 62 150.5t163 56.5q102 0 164 -56.5t62 -150.5q0 -59 -25 -104q13 -13 23 -43l352 -1323q8 -29 -5 -47.5t-42 -18.5h-224q-30 0 -44.5 13t-20.5 40l-57 228h-365l-57 -228q-12 -53 -64 -53h-225q-29 0 -42 18.5t-5 47.5l352 1323q7 29 23 43 q-25 45 -25 104zM477 563h266l-129 557h-6zM518 1536q0 -41 24.5 -65.5t67.5 -24.5h8q38 2 61 26t23 64t-25.5 64t-66.5 24q-42 0 -67 -24t-25 -64z" />
<glyph unicode="&#xc6;" horiz-adv-x="1593" d="M1432 598h-383v-307h415q58 0 58 -58v-176q0 -57 -58 -57h-680q-57 0 -57 57v224h-299l-70 -228q-15 -53 -67 -53h-228q-29 0 -41.5 18.5t-3.5 47.5l424 1323q10 30 25.5 43.5t50.5 13.5h938q55 0 55 -57v-177q0 -57 -55 -57h-407v-281h383q57 0 57 -57v-164 q0 -55 -57 -55zM494 561h231v596h-55z" />
<glyph unicode="&#xc7;" horiz-adv-x="1077" d="M725 272q81 0 178 33q32 10 48 0.5t24 -39.5l39 -153q7 -28 -3.5 -43.5t-39.5 -28.5q-112 -55 -275 -61q117 -67 117 -173q0 -75 -55.5 -116t-159.5 -41q-74 0 -111 12q-28 10 -28 39v76q0 26 30 26h70q76 0 76 60q0 64 -92 125q-157 21 -258.5 100t-155 236.5 t-53.5 400.5q0 205 36.5 348.5t111.5 230t181 125.5t254 39q158 0 297 -61q30 -13 41 -28t4 -44l-38 -153q-12 -56 -72 -37q-99 29 -174 29q-114 0 -179 -41.5t-95.5 -138.5t-30.5 -269q0 -174 31.5 -272t98.5 -139.5t183 -41.5z" />
<glyph unicode="&#xc8;" horiz-adv-x="1015" d="M856 598h-422v-309h453q57 0 57 -58v-174q0 -57 -57 -57h-721q-57 0 -57 57v1332q0 57 57 57h713q57 0 57 -57v-175q0 -57 -57 -57h-445v-283h422q55 0 55 -57v-164q0 -55 -55 -55zM596 1745l70 -166q8 -19 0 -31t-31 -12h-123q-43 0 -72 29l-155 161q-16 15 -10.5 36.5 t30.5 21.5h234q43 0 57 -39z" />
<glyph unicode="&#xc9;" horiz-adv-x="1015" d="M856 598h-422v-309h453q57 0 57 -58v-174q0 -57 -57 -57h-721q-57 0 -57 57v1332q0 57 57 57h713q57 0 57 -57v-175q0 -57 -57 -57h-445v-283h422q55 0 55 -57v-164q0 -55 -55 -55zM401 1579l70 166q14 39 57 39h234q25 0 30.5 -21.5t-10.5 -36.5l-155 -161 q-25 -29 -72 -29h-123q-23 0 -31 12t0 31z" />
<glyph unicode="&#xca;" horiz-adv-x="1015" d="M856 598h-422v-309h453q57 0 57 -58v-174q0 -57 -57 -57h-721q-57 0 -57 57v1332q0 57 57 57h713q57 0 57 -57v-175q0 -57 -57 -57h-445v-283h422q55 0 55 -57v-164q0 -55 -55 -55zM635 1567l-105 92l-104 -92q-31 -31 -66 -31h-110q-25 0 -31.5 17t10.5 34l168 180 q29 29 72 29h123q41 0 70 -29l169 -180q17 -17 11 -34t-31 -17h-111q-16 0 -28 4.5t-19 10t-18 16.5z" />
<glyph unicode="&#xcb;" horiz-adv-x="1015" d="M856 598h-422v-309h453q57 0 57 -58v-174q0 -57 -57 -57h-721q-57 0 -57 57v1332q0 57 57 57h713q57 0 57 -57v-175q0 -57 -57 -57h-445v-283h422q55 0 55 -57v-164q0 -55 -55 -55zM469 1706v-119q0 -51 -53 -51h-172q-51 0 -51 51v119q0 51 51 51h172q53 0 53 -51z M864 1706v-119q0 -51 -51 -51h-172q-27 0 -39 12t-12 39v119q0 27 12 39t39 12h172q51 0 51 -51z" />
<glyph unicode="&#xcc;" horiz-adv-x="565" d="M119 57v1332q0 57 55 57h217q58 0 58 -57v-1332q0 -57 -58 -57h-217q-55 0 -55 57zM322 1745l69 -166q8 -19 0 -31t-31 -12h-122q-43 0 -72 29l-156 161q-16 15 -10 36.5t31 21.5h233q44 0 58 -39z" />
<glyph unicode="&#xcd;" horiz-adv-x="565" d="M119 57v1332q0 57 55 57h217q58 0 58 -57v-1332q0 -57 -58 -57h-217q-55 0 -55 57zM180 1579l70 166q14 39 57 39h234q25 0 30.5 -21.5t-10.5 -36.5l-155 -161q-25 -29 -72 -29h-123q-23 0 -31 12t0 31z" />
<glyph unicode="&#xce;" horiz-adv-x="565" d="M119 57v1332q0 57 55 57h217q58 0 58 -57v-1332q0 -57 -58 -57h-217q-55 0 -55 57zM387 1567l-104 92l-105 -92q-31 -31 -65 -31h-111q-25 0 -31 17t11 34l168 180q16 16 30.5 22.5t40.5 6.5h123q41 0 70 -29l170 -180q17 -17 10.5 -34t-31.5 -17h-110q-35 0 -66 31z" />
<glyph unicode="&#xcf;" horiz-adv-x="565" d="M119 57v1332q0 57 55 57h217q58 0 58 -57v-1332q0 -57 -58 -57h-217q-55 0 -55 57zM223 1706v-119q0 -51 -53 -51h-172q-51 0 -51 51v119q0 51 51 51h172q53 0 53 -51zM618 1706v-119q0 -51 -51 -51h-172q-27 0 -39 12t-12 39v119q0 27 12 39t39 12h172q51 0 51 -51z" />
<glyph unicode="&#xd0;" horiz-adv-x="1222" d="M541 0h-371q-57 0 -57 57v578h-56q-45 0 -45 45v88q0 45 45 45h56v576q0 57 57 57h367q157 0 268.5 -37t190 -121.5t116 -224t37.5 -340.5q0 -202 -37 -341t-114.5 -223.5t-188.5 -121.5t-268 -37zM598 635h-156v-342h90q75 0 125 19t87 67t54 132t17 212q0 129 -17 213 t-54.5 131t-88.5 65.5t-127 18.5h-86v-338h156q45 0 45 -45v-88q0 -45 -45 -45z" />
<glyph unicode="&#xd1;" horiz-adv-x="1253" d="M1145 1389v-1332q0 -57 -58 -57h-200q-53 0 -72 43l-387 782v-768q0 -57 -57 -57h-205q-57 0 -57 57v1332q0 57 57 57h199q30 0 46 -9.5t27 -31.5l387 -784v768q0 57 58 57h204q58 0 58 -57zM965 1696q0 -166 -152 -166q-84 0 -160 31l-69 28q-53 20 -86 17.5t-41 -27.5 l-4 -12q-6 -19 -15.5 -26t-29.5 -7h-70q-27 0 -38 14.5t-11 53.5q0 170 153 170q74 0 158 -31l70 -29q54 -24 88.5 -21.5t38.5 31.5l2 13q4 18 15 25t32 7h69q26 0 38 -16t12 -55z" />
<glyph unicode="&#xd2;" horiz-adv-x="1259" d="M631 1468q135 0 234.5 -39t172.5 -125.5t109.5 -231.5t36.5 -349t-36.5 -348.5t-109.5 -230.5t-173 -125t-236 -39q-108 0 -192.5 24t-153 78.5t-114 140t-69.5 211t-24 289.5q0 204 36.5 349t109.5 231.5t173 125.5t236 39zM631 268q77 0 123.5 41t70 141t23.5 273 t-23.5 273t-70 141t-123.5 41q-78 0 -125 -41t-70.5 -141t-23.5 -273t23.5 -273t70.5 -141t125 -41zM668 1745l69 -166q8 -19 0.5 -31t-30.5 -12h-123q-43 0 -72 29l-156 161q-16 15 -10 36.5t31 21.5h233q44 0 58 -39z" />
<glyph unicode="&#xd3;" horiz-adv-x="1259" d="M631 1468q135 0 234.5 -39t172.5 -125.5t109.5 -231.5t36.5 -349t-36.5 -348.5t-109.5 -230.5t-173 -125t-236 -39q-108 0 -192.5 24t-153 78.5t-114 140t-69.5 211t-24 289.5q0 204 36.5 349t109.5 231.5t173 125.5t236 39zM631 268q77 0 123.5 41t70 141t23.5 273 t-23.5 273t-70 141t-123.5 41q-78 0 -125 -41t-70.5 -141t-23.5 -273t23.5 -273t70.5 -141t125 -41zM524 1579l70 166q14 39 57 39h234q25 0 30.5 -21.5t-10.5 -36.5l-155 -161q-25 -29 -72 -29h-123q-23 0 -31 12t0 31z" />
<glyph unicode="&#xd4;" horiz-adv-x="1259" d="M631 1468q135 0 234.5 -39t172.5 -125.5t109.5 -231.5t36.5 -349t-36.5 -348.5t-109.5 -230.5t-173 -125t-236 -39q-108 0 -192.5 24t-153 78.5t-114 140t-69.5 211t-24 289.5q0 204 36.5 349t109.5 231.5t173 125.5t236 39zM631 268q77 0 123.5 41t70 141t23.5 273 t-23.5 273t-70 141t-123.5 41q-78 0 -125 -41t-70.5 -141t-23.5 -273t23.5 -273t70.5 -141t125 -41zM733 1567l-104 92l-105 -92q-31 -31 -65 -31h-111q-25 0 -31 17t11 34l168 180q16 16 30.5 22.5t40.5 6.5h123q41 0 70 -29l170 -180q17 -17 10.5 -34t-31.5 -17h-110 q-35 0 -66 31z" />
<glyph unicode="&#xd5;" horiz-adv-x="1259" d="M631 1468q135 0 234.5 -39t172.5 -125.5t109.5 -231.5t36.5 -349t-36.5 -348.5t-109.5 -230.5t-173 -125t-236 -39q-108 0 -192.5 24t-153 78.5t-114 140t-69.5 211t-24 289.5q0 204 36.5 349t109.5 231.5t173 125.5t236 39zM631 268q77 0 123.5 41t70 141t23.5 273 t-23.5 273t-70 141t-123.5 41q-78 0 -125 -41t-70.5 -141t-23.5 -273t23.5 -273t70.5 -141t125 -41zM967 1696q0 -166 -152 -166q-84 0 -160 31l-69 28q-53 20 -86 17.5t-41 -27.5l-4 -12q-6 -19 -15.5 -26t-29.5 -7h-70q-27 0 -38 14.5t-11 53.5q0 170 153 170 q74 0 158 -31l70 -29q54 -24 88.5 -21.5t38.5 31.5l2 13q4 18 15 25t32 7h70q25 0 37 -16t12 -55z" />
<glyph unicode="&#xd6;" horiz-adv-x="1259" d="M631 1468q135 0 234.5 -39t172.5 -125.5t109.5 -231.5t36.5 -349t-36.5 -348.5t-109.5 -230.5t-173 -125t-236 -39q-108 0 -192.5 24t-153 78.5t-114 140t-69.5 211t-24 289.5q0 204 36.5 349t109.5 231.5t173 125.5t236 39zM631 268q77 0 123.5 41t70 141t23.5 273 t-23.5 273t-70 141t-123.5 41q-78 0 -125 -41t-70.5 -141t-23.5 -273t23.5 -273t70.5 -141t125 -41zM569 1706v-119q0 -51 -53 -51h-172q-51 0 -51 51v119q0 51 51 51h172q53 0 53 -51zM965 1706v-119q0 -51 -52 -51h-172q-27 0 -39 12t-12 39v119q0 27 12 39t39 12h172 q52 0 52 -51z" />
<glyph unicode="&#xd7;" d="M813 270l-252 252l-252 -252q-37 -39 -73 0l-117 117q-37 37 0 74l252 252l-252 252q-37 37 0 73l117 117q36 37 73 0l252 -252l252 252q20 19 37 19t37 -19l117 -117q20 -20 20 -36.5t-20 -36.5l-252 -252l252 -252q19 -20 19 -37t-19 -37l-117 -117q-20 -20 -37 -20 t-37 20z" />
<glyph unicode="&#xd8;" horiz-adv-x="1269" d="M635 1468q211 0 340 -108l49 72q29 42 72 12l61 -43q42 -29 12 -72l-75 -110q98 -191 98 -496q0 -164 -24.5 -289.5t-70 -211t-114.5 -140t-154.5 -78.5t-193.5 -24q-222 0 -342 106l-51 -74q-28 -40 -72 -12l-61 45q-40 27 -13 70l78 112q-96 175 -96 496q0 204 37 349 t110.5 231.5t173.5 125.5t236 39zM635 268q78 0 125.5 41.5t71.5 141t24 270.5q0 82 -12 149l-361 -516q29 -49 63 -67.5t89 -18.5zM414 725q0 -85 10 -147l358 509q-24 49 -59 70t-88 21q-79 0 -126 -41t-71 -140.5t-24 -271.5z" />
<glyph unicode="&#xd9;" horiz-adv-x="1214" d="M608 -20q-258 0 -382 119.5t-124 373.5v916q0 57 58 57h215q57 0 57 -57v-879q0 -123 40.5 -178.5t135.5 -55.5q94 0 134 55t40 177v881q0 57 58 57h215q57 0 57 -57v-916q0 -254 -124 -373.5t-380 -119.5zM655 1745l70 -166q8 -19 0 -31t-31 -12h-123q-42 0 -71 29 l-156 161q-16 15 -10 36.5t31 21.5h233q43 0 57 -39z" />
<glyph unicode="&#xda;" horiz-adv-x="1214" d="M608 -20q-258 0 -382 119.5t-124 373.5v916q0 57 58 57h215q57 0 57 -57v-879q0 -123 40.5 -178.5t135.5 -55.5q94 0 134 55t40 177v881q0 57 58 57h215q57 0 57 -57v-916q0 -254 -124 -373.5t-380 -119.5zM489 1579l70 166q14 39 57 39h234q25 0 30.5 -21.5t-10.5 -36.5 l-155 -161q-25 -29 -72 -29h-123q-23 0 -31 12t0 31z" />
<glyph unicode="&#xdb;" horiz-adv-x="1214" d="M608 -20q-258 0 -382 119.5t-124 373.5v916q0 57 58 57h215q57 0 57 -57v-879q0 -123 40.5 -178.5t135.5 -55.5q94 0 134 55t40 177v881q0 57 58 57h215q57 0 57 -57v-916q0 -254 -124 -373.5t-380 -119.5zM713 1567l-105 92l-104 -92q-31 -31 -66 -31h-110 q-25 0 -31.5 17t10.5 34l168 180q29 29 72 29h123q40 0 69 -29l170 -180q17 -17 11 -34t-31 -17h-111q-16 0 -28 4.5t-19 10t-18 16.5z" />
<glyph unicode="&#xdc;" horiz-adv-x="1214" d="M608 -20q-258 0 -382 119.5t-124 373.5v916q0 57 58 57h215q57 0 57 -57v-879q0 -123 40.5 -178.5t135.5 -55.5q94 0 134 55t40 177v881q0 57 58 57h215q57 0 57 -57v-916q0 -254 -124 -373.5t-380 -119.5zM549 1706v-119q0 -51 -53 -51h-172q-52 0 -52 51v119 q0 51 52 51h172q53 0 53 -51zM944 1706v-119q0 -51 -51 -51h-172q-27 0 -39 12t-12 39v119q0 27 12 39t39 12h172q51 0 51 -51z" />
<glyph unicode="&#xdd;" horiz-adv-x="1185" d="M758 539v-482q0 -57 -58 -57h-215q-57 0 -57 57v482l-389 837q-13 23 -2 46.5t43 23.5h227q55 0 76 -53l147 -377l60 -197h6l61 197l148 377q21 53 74 53h227q33 0 43.5 -23.5t-2.5 -46.5zM483 1579l70 166q14 39 57 39h234q25 0 30.5 -21.5t-10.5 -36.5l-155 -161 q-25 -29 -72 -29h-123q-23 0 -31 12t0 31z" />
<glyph unicode="&#xde;" horiz-adv-x="1163" d="M379 0h-215q-55 0 -55 57v1332q0 57 57 57h213q57 0 57 -57v-111h117q141 0 238 -25.5t165 -84t99.5 -156.5t31.5 -242q0 -143 -31.5 -241t-99.5 -157t-165 -84.5t-238 -25.5h-117v-205q0 -57 -57 -57zM436 545h115q117 0 162 48t45 177q0 127 -45.5 175t-161.5 48h-115 v-448z" />
<glyph unicode="&#xdf;" horiz-adv-x="1163" d="M559 1217q-160 0 -160 -173v-993q0 -51 -53 -51h-190q-56 0 -56 51v1018q0 395 478 395q206 0 320 -85.5t114 -237.5q0 -58 -18 -106.5t-43.5 -79t-51 -55t-43.5 -47t-18 -42.5q0 -26 27.5 -55t66.5 -63t78 -78.5t66.5 -119t27.5 -167.5q0 -189 -103.5 -269t-316.5 -71 q-50 1 -82 6t-54 20t-22 39v154q0 28 12.5 39t41.5 10q107 -8 162 23.5t55 117.5q0 49 -27 93.5t-65.5 78.5t-77 67t-65.5 74t-27 85q0 32 18 63t44 56.5t52 51.5t44 59t18 69q0 54 -37 88.5t-115 34.5z" />
<glyph unicode="&#xe0;" horiz-adv-x="1024" d="M930 770v-717q0 -53 -53 -53h-164q-52 0 -58 45l-8 72q-89 -131 -291 -131q-139 0 -222 84t-83 245q0 91 28 156.5t74.5 105.5t123.5 63.5t159 32.5t197 11v59q0 70 -40 102t-128 32q-106 0 -252 -48q-57 -16 -66 37l-22 140q-9 47 37 63q63 26 159 42.5t189 16.5 q220 0 320 -87t100 -271zM633 397v109q-154 -5 -219.5 -38t-65.5 -132q0 -62 29.5 -97.5t87.5 -35.5q85 0 126.5 53t41.5 141zM575 1421l70 -166q8 -19 -0.5 -31t-30.5 -12h-125q-42 0 -71 29l-154 160q-16 17 -10 37t31 20h233q41 0 57 -37z" />
<glyph unicode="&#xe1;" horiz-adv-x="1024" d="M930 770v-717q0 -53 -53 -53h-164q-52 0 -58 45l-8 72q-89 -131 -291 -131q-139 0 -222 84t-83 245q0 91 28 156.5t74.5 105.5t123.5 63.5t159 32.5t197 11v59q0 70 -40 102t-128 32q-106 0 -252 -48q-57 -16 -66 37l-22 140q-9 47 37 63q63 26 159 42.5t189 16.5 q220 0 320 -87t100 -271zM633 397v109q-154 -5 -219.5 -38t-65.5 -132q0 -62 29.5 -97.5t87.5 -35.5q85 0 126.5 53t41.5 141zM381 1255l70 166q16 37 57 37h233q25 0 31 -20t-10 -37l-156 -160q-25 -29 -69 -29h-125q-22 0 -30.5 12t-0.5 31z" />
<glyph unicode="&#xe2;" horiz-adv-x="1024" d="M930 770v-717q0 -53 -53 -53h-164q-52 0 -58 45l-8 72q-89 -131 -291 -131q-139 0 -222 84t-83 245q0 91 28 156.5t74.5 105.5t123.5 63.5t159 32.5t197 11v59q0 70 -40 102t-128 32q-106 0 -252 -48q-57 -16 -66 37l-22 140q-9 47 37 63q63 26 159 42.5t189 16.5 q220 0 320 -87t100 -271zM633 397v109q-154 -5 -219.5 -38t-65.5 -132q0 -62 29.5 -97.5t87.5 -35.5q85 0 126.5 53t41.5 141zM616 1241l-104 96l-104 -96q-29 -29 -64 -29h-111q-24 0 -31 17.5t9 34.5l168 182q29 29 72 29h122q44 0 70 -29l168 -182q17 -17 11 -34.5 t-31 -17.5h-111q-35 0 -64 29z" />
<glyph unicode="&#xe3;" horiz-adv-x="1024" d="M930 770v-717q0 -53 -53 -53h-164q-52 0 -58 45l-8 72q-89 -131 -291 -131q-139 0 -222 84t-83 245q0 91 28 156.5t74.5 105.5t123.5 63.5t159 32.5t197 11v59q0 70 -40 102t-128 32q-106 0 -252 -48q-57 -16 -66 37l-22 140q-9 47 37 63q63 26 159 42.5t189 16.5 q220 0 320 -87t100 -271zM633 397v109q-154 -5 -219.5 -38t-65.5 -132q0 -62 29.5 -97.5t87.5 -35.5q85 0 126.5 53t41.5 141zM842 1372q0 -164 -146 -164q-84 0 -157 31l-70 27q-107 45 -121 -11l-2 -12q-8 -31 -47 -31h-68q-27 0 -38 14t-11 52q0 168 148 168 q71 0 155 -31l70 -29q112 -44 121 13l2 12q8 31 45 31h70q26 0 37.5 -16t11.5 -54z" />
<glyph unicode="&#xe4;" horiz-adv-x="1024" d="M930 770v-717q0 -53 -53 -53h-164q-52 0 -58 45l-8 72q-89 -131 -291 -131q-139 0 -222 84t-83 245q0 91 28 156.5t74.5 105.5t123.5 63.5t159 32.5t197 11v59q0 70 -40 102t-128 32q-106 0 -252 -48q-57 -16 -66 37l-22 140q-9 47 37 63q63 26 159 42.5t189 16.5 q220 0 320 -87t100 -271zM633 397v109q-154 -5 -219.5 -38t-65.5 -132q0 -62 29.5 -97.5t87.5 -35.5q85 0 126.5 53t41.5 141zM453 1384v-120q0 -52 -52 -52h-170q-51 0 -51 52v120q0 52 51 52h170q52 0 52 -52zM840 1384v-120q0 -52 -52 -52h-170q-51 0 -51 52v120 q0 52 51 52h170q52 0 52 -52z" />
<glyph unicode="&#xe5;" horiz-adv-x="1024" d="M930 770v-717q0 -53 -53 -53h-164q-52 0 -58 45l-8 72q-89 -131 -291 -131q-139 0 -222 84t-83 245q0 91 28 156.5t74.5 105.5t123.5 63.5t159 32.5t197 11v59q0 70 -40 102t-128 32q-106 0 -252 -48q-57 -16 -66 37l-22 140q-9 47 37 63q63 26 159 42.5t189 16.5 q220 0 320 -87t100 -271zM633 397v109q-154 -5 -219.5 -38t-65.5 -132q0 -62 29.5 -97.5t87.5 -35.5q85 0 126.5 53t41.5 141zM520 1315q41 0 67.5 25t26.5 65q0 41 -25.5 64.5t-68.5 23.5q-44 0 -70 -23.5t-26 -64.5q0 -40 26.5 -65t69.5 -25zM520 1614q103 0 165.5 -57.5 t62.5 -151.5q0 -95 -62.5 -152t-165.5 -57t-165 57t-62 152q0 94 62 151.5t165 57.5z" />
<glyph unicode="&#xe6;" horiz-adv-x="1587" d="M1180 217q105 0 215 43q25 9 43 -1t22 -36l23 -123q4 -25 -6 -39.5t-35 -25.5q-50 -23 -130 -39t-161 -16q-143 0 -240.5 47t-142.5 131q-57 -84 -150.5 -128t-205.5 -44q-361 0 -361 325q0 86 27.5 147.5t74 99t124 59t159 29.5t197.5 9v95q0 65 -41 96t-125 31 q-110 0 -256 -48q-57 -16 -66 37l-24 140q-8 45 39 63q66 26 158.5 42.5t183.5 16.5q226 0 303 -124q45 61 122 93.5t173 32.5q211 0 316.5 -129t105.5 -376v-117q0 -31 -14 -44t-46 -13h-528q12 -119 71.5 -176.5t174.5 -57.5zM1092 899q-78 0 -117.5 -58t-46.5 -194h309 v21q0 118 -34 174.5t-111 56.5zM633 403v72q-154 -2 -219.5 -30.5t-65.5 -112.5q0 -127 123 -127q84 0 123 54t39 144z" />
<glyph unicode="&#xe7;" horiz-adv-x="888" d="M66 557q0 291 123 432t354 141q71 0 141 -15t109 -34q26 -12 34 -26t2 -39l-32 -146q-11 -45 -68 -30q-81 22 -137 22q-109 0 -160 -70t-51 -235q0 -168 51 -238.5t160 -70.5q69 0 145 26q56 20 68 -30l33 -146q6 -25 -3 -38.5t-36 -28.5q-33 -19 -97 -33.5t-129 -17.5 q115 -64 115 -162q0 -73 -53 -111.5t-154 -38.5q-57 0 -104 13q-29 10 -29 34v74q0 27 29 27h65q72 0 72 55q0 65 -94 121q-354 70 -354 565z" />
<glyph unicode="&#xe8;" horiz-adv-x="1038" d="M623 217q118 0 219 43q26 9 44.5 -1t22.5 -36l23 -121q4 -26 -6 -41t-35 -26q-128 -55 -295 -55q-268 0 -399 140.5t-131 436.5q0 288 118.5 430.5t347.5 142.5q223 0 332 -135t109 -389v-112q0 -58 -60 -58h-542q12 -112 73.5 -165.5t178.5 -53.5zM535 899 q-83 0 -123 -61.5t-47 -204.5h323v20q0 246 -153 246zM578 1421l69 -166q8 -19 -0.5 -31t-30.5 -12h-124q-43 0 -72 29l-154 160q-16 17 -10 37t31 20h233q42 0 58 -37z" />
<glyph unicode="&#xe9;" horiz-adv-x="1038" d="M623 217q118 0 219 43q26 9 44.5 -1t22.5 -36l23 -121q4 -26 -6 -41t-35 -26q-128 -55 -295 -55q-268 0 -399 140.5t-131 436.5q0 288 118.5 430.5t347.5 142.5q223 0 332 -135t109 -389v-112q0 -58 -60 -58h-542q12 -112 73.5 -165.5t178.5 -53.5zM535 899 q-83 0 -123 -61.5t-47 -204.5h323v20q0 246 -153 246zM397 1255l70 166q16 37 57 37h234q25 0 30.5 -20t-10.5 -37l-155 -160q-25 -29 -70 -29h-125q-22 0 -30.5 12t-0.5 31z" />
<glyph unicode="&#xea;" horiz-adv-x="1038" d="M623 217q118 0 219 43q26 9 44.5 -1t22.5 -36l23 -121q4 -26 -6 -41t-35 -26q-128 -55 -295 -55q-268 0 -399 140.5t-131 436.5q0 288 118.5 430.5t347.5 142.5q223 0 332 -135t109 -389v-112q0 -58 -60 -58h-542q12 -112 73.5 -165.5t178.5 -53.5zM535 899 q-83 0 -123 -61.5t-47 -204.5h323v20q0 246 -153 246zM631 1241l-105 96l-104 -96q-29 -29 -64 -29h-110q-24 0 -31 17.5t8 34.5l168 182q29 29 72 29h123q26 0 40.5 -6.5t28.5 -22.5l168 -182q17 -17 11 -34.5t-31 -17.5h-111q-34 0 -63 29z" />
<glyph unicode="&#xeb;" horiz-adv-x="1038" d="M623 217q118 0 219 43q26 9 44.5 -1t22.5 -36l23 -121q4 -26 -6 -41t-35 -26q-128 -55 -295 -55q-268 0 -399 140.5t-131 436.5q0 288 118.5 430.5t347.5 142.5q223 0 332 -135t109 -389v-112q0 -58 -60 -58h-542q12 -112 73.5 -165.5t178.5 -53.5zM535 899 q-83 0 -123 -61.5t-47 -204.5h323v20q0 246 -153 246zM469 1384v-120q0 -52 -51 -52h-170q-51 0 -51 52v120q0 52 51 52h170q51 0 51 -52zM856 1384v-120q0 -52 -51 -52h-170q-51 0 -51 52v120q0 52 51 52h170q51 0 51 -52z" />
<glyph unicode="&#xec;" horiz-adv-x="518" d="M414 1055v-1002q0 -53 -54 -53h-202q-54 0 -54 53v1002q0 55 54 55h202q54 0 54 -55zM295 1421l70 -166q8 -19 -0.5 -31t-30.5 -12h-125q-43 0 -72 29l-153 160q-16 17 -10.5 37t30.5 20h234q41 0 57 -37z" />
<glyph unicode="&#xed;" horiz-adv-x="518" d="M414 1055v-1002q0 -53 -54 -53h-202q-54 0 -54 53v1002q0 55 54 55h202q54 0 54 -55zM156 1255l69 166q16 37 58 37h233q25 0 31 -20t-10 -37l-156 -160q-25 -29 -70 -29h-125q-21 0 -29.5 12t-0.5 31z" />
<glyph unicode="&#xee;" horiz-adv-x="518" d="M414 1055v-1002q0 -53 -54 -53h-202q-54 0 -54 53v1002q0 55 54 55h202q54 0 54 -55zM365 1241l-105 96l-104 -96q-29 -29 -64 -29h-110q-24 0 -31 17.5t8 34.5l168 182q29 29 72 29h123q26 0 40.5 -6.5t28.5 -22.5l168 -182q17 -17 11 -34.5t-31 -17.5h-111 q-34 0 -63 29z" />
<glyph unicode="&#xef;" horiz-adv-x="518" d="M414 1055v-1002q0 -53 -54 -53h-202q-54 0 -54 53v1002q0 55 54 55h202q54 0 54 -55zM203 1384v-120q0 -52 -51 -52h-170q-52 0 -52 52v120q0 52 52 52h170q51 0 51 -52zM590 1384v-120q0 -52 -51 -52h-170q-52 0 -52 52v120q0 52 52 52h170q51 0 51 -52z" />
<glyph unicode="&#xf0;" horiz-adv-x="1083" d="M934 1190h-80q164 -280 164 -633q0 -296 -121 -436.5t-356 -140.5q-475 0 -475 569q0 284 118 424.5t324 140.5q108 0 160 -41q-19 51 -66 117h-235q-45 0 -45 43v61q0 43 45 43h120q-8 11 -79 68q-14 12 -9.5 28.5t25.5 16.5h197q36 0 61 -25q27 -27 78 -88h174 q43 0 43 -43v-61q0 -43 -43 -43zM541 233q85 0 123 73.5t38 242.5q0 170 -38 245.5t-123 75.5q-84 0 -122 -75t-38 -246q0 -170 38 -243t122 -73z" />
<glyph unicode="&#xf1;" horiz-adv-x="1083" d="M989 754v-701q0 -53 -53 -53h-203q-53 0 -53 53v635q0 84 -27.5 125t-93.5 41q-153 0 -153 -207v-594q0 -53 -56 -53h-203q-53 0 -53 53v1002q0 55 53 55h183q53 0 59 -45l10 -74q37 59 108 99t171 40q311 0 311 -376zM872 1372q0 -164 -145 -164q-85 0 -158 31l-69 27 q-107 45 -121 -11l-2 -12q-8 -31 -47 -31h-68q-27 0 -38 14t-11 52q0 168 147 168q72 0 156 -31l70 -29q112 -44 121 13l2 12q8 31 45 31h69q26 0 37.5 -16t11.5 -54z" />
<glyph unicode="&#xf2;" horiz-adv-x="1085" d="M543 -20q477 0 477 575t-477 575t-477 -575t477 -575zM543 233q-86 0 -124 73.5t-38 248.5t38 248.5t124 73.5q84 0 121.5 -73.5t37.5 -248.5t-37.5 -248.5t-121.5 -73.5zM590 1421l69 -166q8 -19 -0.5 -31t-29.5 -12h-125q-43 0 -72 29l-153 160q-16 17 -10.5 37 t30.5 20h233q42 0 58 -37z" />
<glyph unicode="&#xf3;" horiz-adv-x="1085" d="M543 -20q477 0 477 575t-477 575t-477 -575t477 -575zM543 233q-86 0 -124 73.5t-38 248.5t38 248.5t124 73.5q84 0 121.5 -73.5t37.5 -248.5t-37.5 -248.5t-121.5 -73.5zM424 1255l70 166q16 37 57 37h233q25 0 31 -20t-10 -37l-156 -160q-25 -29 -69 -29h-125 q-22 0 -30.5 12t-0.5 31z" />
<glyph unicode="&#xf4;" horiz-adv-x="1085" d="M543 -20q477 0 477 575t-477 575t-477 -575t477 -575zM543 233q-86 0 -124 73.5t-38 248.5t38 248.5t124 73.5q84 0 121.5 -73.5t37.5 -248.5t-37.5 -248.5t-121.5 -73.5zM647 1241l-104 96l-105 -96q-29 -29 -63 -29h-111q-24 0 -31 17.5t9 34.5l168 182 q16 16 30.5 22.5t40.5 6.5h123q44 0 70 -29l168 -182q17 -17 10.5 -34.5t-31.5 -17.5h-110q-35 0 -64 29z" />
<glyph unicode="&#xf5;" horiz-adv-x="1085" d="M543 -20q-477 0 -477 575t477 575t477 -575t-477 -575zM543 233q84 0 121.5 73.5t37.5 248.5t-37.5 248.5t-121.5 73.5q-86 0 -124 -73.5t-38 -248.5t38 -248.5t124 -73.5zM872 1372q0 -164 -145 -164q-85 0 -158 31l-69 27q-107 45 -121 -11l-2 -12q-8 -31 -47 -31h-68 q-27 0 -38 14t-11 52q0 168 147 168q72 0 156 -31l70 -29q112 -44 121 13l2 12q8 31 45 31h69q26 0 37.5 -16t11.5 -54z" />
<glyph unicode="&#xf6;" horiz-adv-x="1085" d="M543 -20q477 0 477 575t-477 575t-477 -575t477 -575zM543 233q-86 0 -124 73.5t-38 248.5t38 248.5t124 73.5q84 0 121.5 -73.5t37.5 -248.5t-37.5 -248.5t-121.5 -73.5zM485 1384v-120q0 -52 -51 -52h-170q-51 0 -51 52v120q0 52 51 52h170q51 0 51 -52zM872 1384v-120 q0 -52 -51 -52h-170q-51 0 -51 52v120q0 52 51 52h170q51 0 51 -52z" />
<glyph unicode="&#xf7;" d="M961 600h-799q-51 0 -51 53v129q0 52 51 52h799q53 0 53 -52v-129q0 -53 -53 -53zM410 227v191q0 55 57 55h188q58 0 58 -55v-191q0 -55 -56 -55h-192q-55 0 -55 55zM410 1016v190q0 56 57 56h188q58 0 58 -56v-190q0 -55 -56 -55h-192q-55 0 -55 55z" />
<glyph unicode="&#xf8;" horiz-adv-x="1093" d="M547 -20q-178 0 -287 81l-41 -53q-27 -37 -65 -10l-45 37q-36 28 -9 65l52 72q-84 143 -84 383q0 291 123 433t356 142q174 0 287 -81l38 51q30 40 68 10l45 -35q37 -26 8 -65l-53 -74q84 -141 84 -381q0 -291 -122.5 -433t-354.5 -142zM547 877q-86 0 -124 -73t-38 -243 q0 -65 8 -98l264 354q-37 60 -110 60zM547 233q84 0 123 73t39 241q0 59 -9 100l-264 -356q37 -58 111 -58z" />
<glyph unicode="&#xf9;" horiz-adv-x="1075" d="M90 340v715q0 55 53 55h203q53 0 53 -55v-635q0 -83 26.5 -125.5t92.5 -42.5q74 0 113 53t39 148v602q0 55 53 55h203q53 0 53 -55v-1002q0 -53 -53 -53h-183q-53 0 -59 45l-8 74q-88 -139 -266 -139q-162 0 -241 89t-79 271zM588 1421l69 -166q8 -19 -0.5 -31t-29.5 -12 h-125q-43 0 -72 29l-154 160q-16 17 -10 37t31 20h233q42 0 58 -37z" />
<glyph unicode="&#xfa;" horiz-adv-x="1075" d="M90 340v715q0 55 53 55h203q53 0 53 -55v-635q0 -83 26.5 -125.5t92.5 -42.5q74 0 113 53t39 148v602q0 55 53 55h203q53 0 53 -55v-1002q0 -53 -53 -53h-183q-53 0 -59 45l-8 74q-88 -139 -266 -139q-162 0 -241 89t-79 271zM416 1255l69 166q16 37 58 37h233 q25 0 31 -20t-10 -37l-156 -160q-25 -29 -70 -29h-125q-21 0 -29.5 12t-0.5 31z" />
<glyph unicode="&#xfb;" horiz-adv-x="1075" d="M90 340v715q0 55 53 55h203q53 0 53 -55v-635q0 -83 26.5 -125.5t92.5 -42.5q74 0 113 53t39 148v602q0 55 53 55h203q53 0 53 -55v-1002q0 -53 -53 -53h-183q-53 0 -59 45l-8 74q-88 -139 -266 -139q-162 0 -241 89t-79 271zM643 1241l-104 96l-105 -96q-29 -29 -63 -29 h-111q-24 0 -31 17.5t9 34.5l168 182q16 16 30.5 22.5t40.5 6.5h123q44 0 70 -29l168 -182q17 -17 10.5 -34.5t-31.5 -17.5h-110q-35 0 -64 29z" />
<glyph unicode="&#xfc;" horiz-adv-x="1075" d="M90 340v715q0 55 53 55h203q53 0 53 -55v-635q0 -83 26.5 -125.5t92.5 -42.5q74 0 113 53t39 148v602q0 55 53 55h203q53 0 53 -55v-1002q0 -53 -53 -53h-183q-53 0 -59 45l-8 74q-88 -139 -266 -139q-162 0 -241 89t-79 271zM481 1384v-120q0 -52 -51 -52h-170 q-51 0 -51 52v120q0 52 51 52h170q51 0 51 -52zM868 1384v-120q0 -52 -51 -52h-170q-51 0 -51 52v120q0 52 51 52h170q51 0 51 -52z" />
<glyph unicode="&#xfd;" horiz-adv-x="995" d="M967 1049l-248 -961q-24 -93 -50 -150.5t-70 -100t-109 -60t-162 -17.5q-119 0 -197 21q-25 8 -35.5 19.5t-9.5 33.5l8 143q1 26 12.5 37t36.5 11q13 0 45 -4.5t56 -4.5q61 0 80 34.5t-2 88.5l-289 910q-9 28 1 44.5t38 16.5h215q49 0 61 -53l119 -490l49 -239h6l41 239 l88 490q9 53 62 53h211q28 0 39.5 -16.5t3.5 -44.5zM383 1255l70 166q16 37 57 37h233q25 0 31 -20t-10 -37l-156 -160q-25 -29 -69 -29h-125q-22 0 -30.5 12t-0.5 31z" />
<glyph unicode="&#xfe;" horiz-adv-x="1130" d="M152 1446h202q54 0 54 -53v-394q34 58 107.5 94.5t158.5 36.5q192 0 290.5 -138.5t98.5 -436.5q0 -575 -387 -575q-87 0 -161.5 34t-106.5 90v-276q0 -53 -54 -53h-202q-54 0 -54 53v1565q0 53 54 53zM406 555q0 -169 43.5 -244t130.5 -75q88 0 126.5 72.5t38.5 246.5 t-38.5 246.5t-126.5 72.5q-87 0 -130.5 -75t-43.5 -244z" />
<glyph unicode="&#xff;" horiz-adv-x="995" d="M967 1049l-248 -961q-24 -93 -50 -150.5t-70 -100t-109 -60t-162 -17.5q-119 0 -197 21q-25 8 -35.5 19.5t-9.5 33.5l8 143q1 26 12.5 37t36.5 11q13 0 45 -4.5t56 -4.5q61 0 80 34.5t-2 88.5l-289 910q-9 28 1 44.5t38 16.5h215q49 0 61 -53l119 -490l49 -239h6l41 239 l88 490q9 53 62 53h211q28 0 39.5 -16.5t3.5 -44.5zM440 1384v-120q0 -52 -51 -52h-170q-51 0 -51 52v120q0 52 51 52h170q51 0 51 -52zM827 1384v-120q0 -52 -51 -52h-170q-51 0 -51 52v120q0 52 51 52h170q51 0 51 -52z" />
<glyph unicode="&#x152;" horiz-adv-x="1646" d="M1487 598h-389v-307h422q57 0 57 -58v-176q0 -57 -57 -57h-818q-157 0 -267 37t-187 121.5t-113.5 223.5t-36.5 341t37 341t115 223.5t188.5 121.5t266.5 37h804q58 0 58 -57v-177q0 -57 -58 -57h-411v-281h389q57 0 57 -57v-164q0 -55 -57 -55zM772 1151h-59 q-100 0 -158.5 -34t-90.5 -129t-32 -265q0 -103 11 -177t32 -123t55.5 -78t77 -40.5t101.5 -11.5h63v858z" />
<glyph unicode="&#x153;" horiz-adv-x="1644" d="M1237 217q112 0 213 43q26 9 45 -1t23 -36l22 -123q8 -44 -41 -63q-124 -57 -289 -57q-239 0 -358 141q-52 -67 -135 -104t-187 -37q-464 0 -464 575t460 575q216 0 318 -135q107 135 311 135q211 0 317.5 -134.5t106.5 -381.5v-114q0 -30 -14 -43t-45 -13h-527 q10 -116 70.5 -171.5t173.5 -55.5zM537 233q81 0 118 75t37 247t-37 247t-118 75q-83 0 -119.5 -74.5t-36.5 -247.5t36.5 -247.5t119.5 -74.5zM1149 899q-77 0 -116.5 -62t-45.5 -198h307v20q0 240 -145 240z" />
<glyph unicode="&#x178;" horiz-adv-x="1185" d="M758 539v-482q0 -57 -58 -57h-215q-57 0 -57 57v482l-389 837q-13 23 -2 46.5t43 23.5h227q55 0 76 -53l147 -377l60 -197h6l61 197l148 377q21 53 74 53h227q33 0 43.5 -23.5t-2.5 -46.5zM535 1706v-119q0 -51 -54 -51h-172q-51 0 -51 51v119q0 51 51 51h172 q54 0 54 -51zM930 1706v-119q0 -51 -51 -51h-172q-52 0 -52 51v119q0 51 52 51h172q51 0 51 -51z" />
<glyph unicode="&#x2c6;" horiz-adv-x="651" d="M430 1241l-104 96l-105 -96q-29 -29 -63 -29h-111q-24 0 -31 17.5t9 34.5l168 182q16 16 30.5 22.5t40.5 6.5h123q44 0 70 -29l168 -182q17 -17 10.5 -34.5t-31.5 -17.5h-110q-35 0 -64 29z" />
<glyph unicode="&#x2dc;" horiz-adv-x="651" d="M655 1372q0 -164 -145 -164q-85 0 -158 31l-69 27q-107 45 -121 -11l-2 -12q-8 -31 -47 -31h-68q-27 0 -38 14t-11 52q0 168 147 168q72 0 156 -31l70 -29q111 -43 120 13l3 12q8 31 45 31h69q26 0 37.5 -16t11.5 -54z" />
<glyph unicode="&#x2000;" horiz-adv-x="950" />
<glyph unicode="&#x2001;" horiz-adv-x="1901" />
<glyph unicode="&#x2002;" horiz-adv-x="950" />
<glyph unicode="&#x2003;" horiz-adv-x="1901" />
<glyph unicode="&#x2004;" horiz-adv-x="633" />
<glyph unicode="&#x2005;" horiz-adv-x="475" />
<glyph unicode="&#x2006;" horiz-adv-x="316" />
<glyph unicode="&#x2007;" horiz-adv-x="316" />
<glyph unicode="&#x2008;" horiz-adv-x="237" />
<glyph unicode="&#x2009;" horiz-adv-x="380" />
<glyph unicode="&#x200a;" horiz-adv-x="105" />
<glyph unicode="&#x2010;" horiz-adv-x="694" d="M573 455h-454q-51 0 -51 53v149q0 52 51 52h454q54 0 54 -52v-149q0 -53 -54 -53z" />
<glyph unicode="&#x2011;" horiz-adv-x="694" d="M573 455h-454q-51 0 -51 53v149q0 52 51 52h454q54 0 54 -52v-149q0 -53 -54 -53z" />
<glyph unicode="&#x2012;" horiz-adv-x="694" d="M573 455h-454q-51 0 -51 53v149q0 52 51 52h454q54 0 54 -52v-149q0 -53 -54 -53z" />
<glyph unicode="&#x2013;" horiz-adv-x="948" d="M827 455h-708q-51 0 -51 53v149q0 52 53 52h706q54 0 54 -52v-149q0 -53 -54 -53z" />
<glyph unicode="&#x2014;" horiz-adv-x="1374" d="M1253 455h-1134q-51 0 -51 53v149q0 52 53 52h1132q54 0 54 -52v-149q0 -53 -54 -53z" />
<glyph unicode="&#x2018;" horiz-adv-x="475" d="M100 1212l105 211q14 33 49 33h70q40 0 26 -45l-74 -197h62q55 0 55 -55v-196q0 -56 -57 -56h-193q-57 0 -57 56v180q0 40 14 69z" />
<glyph unicode="&#x2019;" horiz-adv-x="475" d="M375 1143l-105 -213q-16 -33 -49 -33h-71q-19 0 -25.5 14t0.5 31l74 197h-64q-55 0 -55 55v197q0 55 57 55h193q59 0 59 -55v-181q0 -35 -14 -67z" />
<glyph unicode="&#x201a;" horiz-adv-x="475" d="M375 4l-105 -213q-16 -33 -49 -33h-71q-19 0 -25.5 14t0.5 31l74 197h-64q-55 0 -55 55v197q0 55 57 55h193q59 0 59 -55v-180q0 -36 -14 -68z" />
<glyph unicode="&#x201c;" horiz-adv-x="884" d="M512 1208l102 211q10 18 20.5 25.5t31.5 7.5h69q20 0 26.5 -12.5t0.5 -32.5l-74 -197h62q55 0 55 -55v-197q0 -55 -57 -55h-193q-57 0 -57 55v181q0 40 14 69zM100 1208l105 211q14 33 49 33h70q40 0 26 -45l-74 -197h62q55 0 55 -55v-197q0 -55 -57 -55h-193 q-57 0 -57 55v181q0 40 14 69z" />
<glyph unicode="&#x201d;" horiz-adv-x="884" d="M375 1143l-105 -213q-16 -33 -49 -33h-71q-20 0 -26.5 14t1.5 31l72 197h-62q-55 0 -55 55v197q0 55 57 55h193q59 0 59 -55v-181q0 -40 -14 -67zM786 1143l-104 -213q-16 -33 -49 -33h-72q-19 0 -26 14t0 31l73 197h-61q-55 0 -55 55v197q0 55 57 55h192q58 0 58 -55 v-181q0 -37 -13 -67z" />
<glyph unicode="&#x201e;" horiz-adv-x="884" d="M375 4l-105 -213q-16 -33 -49 -33h-71q-20 0 -26.5 14t1.5 31l72 197h-62q-55 0 -55 55v197q0 55 57 55h193q59 0 59 -55v-180q0 -41 -14 -68zM786 4l-104 -213q-16 -33 -49 -33h-72q-19 0 -26 14t0 31l73 197h-61q-55 0 -55 55v197q0 55 57 55h192q58 0 58 -55v-180 q0 -38 -13 -68z" />
<glyph unicode="&#x2022;" horiz-adv-x="794" d="M397 262q-129 0 -215 86t-86 217q0 130 86 215.5t215 85.5t215 -85.5t86 -215.5q0 -131 -86 -217t-215 -86z" />
<glyph unicode="&#x2026;" horiz-adv-x="1439" d="M84 55v207q0 55 59 55h195q57 0 57 -55v-207q0 -55 -55 -55h-201q-55 0 -55 55zM565 55v207q0 55 58 55h194q57 0 57 -55v-207q0 -55 -55 -55h-198q-56 0 -56 55zM1044 55v207q0 55 58 55h196q58 0 58 -55v-207q0 -55 -56 -55h-200q-56 0 -56 55z" />
<glyph unicode="&#x202f;" horiz-adv-x="380" />
<glyph unicode="&#x2039;" horiz-adv-x="552" d="M53 594q0 11 8 24l140 287q9 21 22.5 30t40.5 9h172q27 0 36 -14t-3 -39l-147 -297l147 -297q11 -23 2 -38t-35 -15h-172q-27 0 -40.5 9t-22.5 30l-140 286q-8 13 -8 25z" />
<glyph unicode="&#x203a;" horiz-adv-x="552" d="M498 594q0 -15 -4 -23l-142 -288q-9 -21 -22.5 -30t-38.5 -9h-174q-25 0 -34 14t3 39l145 297l-145 297q-12 25 -3 39t34 14h174q25 0 38.5 -9t22.5 -30l140 -287q6 -10 6 -24z" />
<glyph unicode="&#x205f;" horiz-adv-x="475" />
<glyph unicode="&#x20ac;" horiz-adv-x="1171" d="M78 657h96q-4 46 -4 68q0 28 4 68h-96q-43 0 -43 43v71q0 43 43 43h108q77 518 590 518q183 0 307 -63q50 -23 35 -72l-49 -153q-9 -28 -25.5 -36.5t-48.5 1.5q-85 29 -174 29q-239 0 -295 -224h406q46 0 31 -47l-21 -72q-10 -38 -53 -38h-383q-2 -23 -2 -68q0 -48 2 -68 h334q44 0 32 -47l-22 -71q-11 -39 -53 -39h-269q27 -110 97.5 -167t197.5 -57q83 0 174 31q33 9 49 0.5t25 -37.5l51 -153q8 -28 -1 -43t-34 -27q-50 -27 -132 -45t-177 -18q-516 0 -592 516h-108q-43 0 -43 43v71q0 43 43 43z" />
<glyph unicode="&#x2122;" horiz-adv-x="1359" d="M496 1280h-107v-471q0 -37 -37 -37h-119q-36 0 -36 37v471h-107q-37 0 -37 37v92q0 37 37 37h406q36 0 36 -37v-92q0 -37 -36 -37zM946 928q-19 0 -33 24l-112 205v-348q0 -37 -37 -37h-115q-39 0 -39 37v600q0 37 37 37h121q30 0 43 -25l135 -252l135 252q13 25 43 25 h119q37 0 37 -37v-600q0 -37 -37 -37h-115q-36 0 -36 37v348l-113 -205q-14 -24 -33 -24z" />
<glyph unicode="&#x25fc;" horiz-adv-x="1105" d="M0 1106h1106v-1106h-1106v1106z" />
</font>
</defs>
</svg>
