<?xml version="1.0" encoding="utf-8"?>
<!-- Generator: Adobe Illustrator 16.0.0, SVG Export Plug-In . SVG Version: 6.00 Build 0)  -->
<!DOCTYPE svg PUBLIC "-//W3C//DTD SVG 1.1//EN" "http://www.w3.org/Graphics/SVG/1.1/DTD/svg11.dtd">
<svg version="1.1" id="Layer_1" xmlns="http://www.w3.org/2000/svg" xmlns:xlink="http://www.w3.org/1999/xlink" x="0px" y="0px"
	 width="354.898px" height="108.867px" viewBox="0 0 354.898 108.867" enable-background="new 0 0 354.898 108.867"
	 xml:space="preserve">
<g>
	<polyline points="5.71,83.42 6.759,83.42 6.759,84.539 7.96,84.539 7.96,83.541 8.989,83.541 8.989,84.539 10.25,84.539 
		10.25,83.402 11.28,83.402 11.28,85.637 5.71,85.637 5.71,83.42 	"/>
	<path d="M5.71,76.998l2.67-0.473l0,0c0.166-0.032,0.323-0.055,0.411-0.061l0.434-0.036l0.166-0.015l0.157-0.012v-0.02l0,0
		c-0.157-0.02-0.277-0.033-0.355-0.042c-0.401-0.046-0.669-0.082-0.812-0.115l-2.67-0.559v-0.868l3.837-0.701v-0.02l0,0
		c-0.161-0.014-0.211-0.018-0.415-0.037c-0.397-0.031-0.457-0.037-0.752-0.082l-2.67-0.435v-1.155l5.569,1.155v0.956l-2.932,0.577
		l0,0c-0.503,0.063-0.61,0.079-1.017,0.138v0.02l0,0c0.194,0.031,0.333,0.057,0.43,0.068c0.281,0.047,0.475,0.079,0.586,0.107
		l2.932,0.646v0.962L5.71,78.115V76.998"/>
	<polyline points="5.71,56.959 10.25,58.863 10.25,57.117 11.28,57.117 11.28,60.465 6.759,58.617 6.759,60.238 5.71,60.238 
		5.71,56.959 	"/>
	<polyline points="5.71,49.294 6.759,49.294 6.759,50.411 7.96,50.411 7.96,49.437 8.989,49.437 8.989,50.411 10.25,50.411 
		10.25,49.28 11.28,49.28 11.28,51.511 5.71,51.511 5.71,49.294 	"/>
	<path d="M5.71,42.7l5.569,1.289v-1.081L10.352,42.7v-1.118l0.928-0.194v-1.188L5.71,41.546V42.7 M7.996,42.034l1.483-0.277v0.767
		l-1.483-0.231l-0.854-0.121v-0.014L7.996,42.034L7.996,42.034z"/>
	<polyline points="5.71,33.709 10.25,33.709 10.25,32.558 11.28,32.558 11.28,34.807 5.71,34.807 5.71,33.709 	"/>
	<path d="M5.71,26.154l5.569,1.288v-1.1l-0.928-0.188v-1.118l0.928-0.212v-1.169L5.71,24.98V26.154 M7.996,25.471l1.483-0.277v0.785
		l-1.483-0.246l-0.854-0.125V25.59L7.996,25.471L7.996,25.471z"/>
	<path d="M5.71,17.195l3.367-1.358l-0.014-0.018l0,0c-0.286,0.055-0.573,0.088-0.84,0.088H5.71v-1.1h5.569v1.029l-3.353,1.358
		l0.018,0.018l0.56-0.051h0.226h2.549v1.1H5.71V17.195"/>
	<path d="M11.28,8.088c0-1.552-0.918-2.341-2.72-2.341c-1.967,0-2.85,0.776-2.85,2.498l0,0v0.837h5.569V8.088 M10.301,7.964H6.704
		l0,0c0.069-0.739,0.683-1.118,1.82-1.118C9.641,6.846,10.301,7.964,10.301,7.964L10.301,7.964z"/>
	<path d="M220.143,53.637c0.089-0.317,0.104-0.648,0.104-1.07c0-0.495-0.051-1.854-0.782-1.854s-0.782,1.359-0.782,1.854
		c0,0.443,0.051,1.854,0.782,1.854c0.104,0,0.177-0.03,0.266-0.098l-0.656-0.687l0.567-0.554L220.143,53.637 M221.488,55.02
		l-0.576,0.545l-0.428-0.465c-0.296,0.229-0.628,0.34-1.02,0.34c-0.981,0-1.957-0.782-1.957-2.872c0-2.09,0.976-2.872,1.957-2.872
		c0.982,0,1.957,0.782,1.957,2.872c0,0.658-0.082,1.41-0.414,1.964L221.488,55.02L221.488,55.02z"/>
	<path d="M229.061,49.784v3.604c0,0.42-0.051,1.056,0.547,1.056c0.54,0,0.54-0.406,0.547-0.82v-3.839h1.1v4.061
		c0,0.592-0.065,1.595-1.653,1.595c-1.026,0-1.639-0.479-1.639-1.52v-4.135H229.061"/>
	<path d="M239.626,52.058l-0.125-0.841h-0.016l-0.117,0.841l-0.236,1.485h0.774L239.626,52.058 M240.115,49.784l1.337,5.567h-1.175
		l-0.206-0.938h-1.115l-0.2,0.938h-1.093l1.293-5.567H240.115L240.115,49.784z"/>
	<path d="M248.981,52.176l0.191,0.008c0.503,0,0.701-0.34,0.701-0.798c0-0.4-0.191-0.724-0.745-0.695h-0.147V52.176 M247.88,55.352
		v-5.567h1.107c0.701,0,1.957,0.074,1.957,1.595c0,0.613-0.244,1.138-0.79,1.44l0.967,2.533h-1.159l-0.968-2.57h-0.014v2.57H247.88
		L247.88,55.352z"/>
	<polyline points="260.143,49.784 260.143,50.818 259.272,50.818 259.272,55.352 258.172,55.352 258.172,50.818 257.307,50.818 
		257.307,49.784 260.143,49.784 	"/>
	<polyline points="268.846,49.784 268.846,50.818 267.731,50.818 267.731,52.029 268.713,52.029 268.713,53.063 267.731,53.063 
		267.731,54.318 268.861,54.318 268.861,55.352 266.631,55.352 266.631,49.784 268.846,49.784 	"/>
	<path d="M276.612,52.176l0.192,0.008c0.501,0,0.701-0.34,0.701-0.798c0-0.4-0.192-0.724-0.746-0.695h-0.147V52.176 M275.51,55.352
		v-5.567h1.109c0.7,0,1.956,0.074,1.956,1.595c0,0.613-0.244,1.138-0.791,1.44l0.968,2.533h-1.158l-0.968-2.57h-0.015v2.57H275.51
		L275.51,55.352z"/>
	<polyline points="286.511,49.784 286.511,54.318 287.664,54.318 287.664,55.352 285.412,55.352 285.412,49.784 286.511,49.784 	"/>
	<polyline points="294.453,49.784 295.029,51.297 295.11,51.57 295.125,51.57 295.25,51.156 295.746,49.784 296.979,49.784 
		295.678,52.685 295.678,55.352 294.579,55.352 294.579,52.685 293.242,49.784 294.453,49.784 	"/>
	<path d="M24.948,48.346c-0.329,0.049-0.704,0.197-1.049,0.433c-0.114,0.078-0.379,0.228-0.355,0.507
		c-0.001-0.028,0,47.472,0,47.712h5.436v1.008L5.873,98.008l0.013-1.01h8.282h0.404l0.013-92.136c0,0,0.011-0.488-0.242-0.674
		c-0.034-0.025-0.411-0.017-0.411-0.017H6.307l0.008-0.918h41.241v26.337l-0.986-0.017c0,0-0.018-0.186-0.02-0.331
		c-0.124-8.749-1.726-15.721-4.897-21.406c-1.114-1.647-3.053-3.598-6.049-3.668c-0.355,0.008-1.085,0.004-1.085,0.004l-7.842-0.01
		c0,0-1.906-0.003-2.316-0.004c-0.149,0.066-0.272,0.105-0.417,0.198c-0.176,0.113-0.226,0.152-0.321,0.328
		c-0.054,0.099-0.079,0.287-0.079,0.287v41.391c0,0,0.179,0.197,0.236,0.265c0.037,0.043,0.099,0.139,0.14,0.177
		c0.07,0.064,0.227,0.182,0.318,0.209c3.067,0.895,5.699,0.7,8.35-3.325c2.114-3.211,3.109-7.05,3.109-11.046
		c0,0.015,0-3.638,0-3.638l0.945,0.005V68.98l-0.945-0.002c0,0-0.014-1.336,0-2.071c0.016-0.821-0.04-1.726-0.102-2.543
		c-0.57-6.415-2.449-11.586-5.434-14.958l-0.013-0.015l-0.013-0.011c-1.527-1.427-2.277-1.095-3.594-1.131L24.948,48.346"/>
	<path d="M126.081,74.796c-0.037,1.249-0.092,2.422-0.228,3.47c-0.164,1.262-0.305,1.674-0.472,2.457
		c-1.229,5.758-3.021,9.635-6.04,13.435c-0.659,0.829-1.435,1.659-2.184,2.251c-0.476,0.375-0.979,0.645-1.443,0.904
		c-3.574,2.004-6.146,1.623-7.841,1.439c-1.94-0.208-3.317-0.996-4.97-1.896c-1.643-0.895-3.207-1.788-5.23-2.262l-0.255-0.045
		c-1.872-0.135-2.979,0.496-3.947,1.836l-0.125,0.182c-0.208,0.388-0.165,0.808-0.159,1.188c0,0.057,0,0.117,0,0.178H92.32V66.299
		l1.007-0.021c0,0,0.016,1.566,0.027,2.924c0.018,2.22,0.038,4.516,0.548,6.643c0.933,5.164,2.901,9.645,5.008,14.158
		c2.287,4.195,5.478,6.883,9.91,7.77c0.077,0.016,0.232,0.042,0.311,0.049c4.293,0.416,7.696-2.086,10.488-6.886l0.176-0.38
		c1.596-4.352,2.022-8.643,1.309-12.378c-1.2-6.399-3.998-12.464-8.553-18.536c-1.83-2.413-3.768-4.691-5.644-6.895
		c-2.314-2.721-4.708-5.534-6.976-8.681c-3.324-4.388-6.392-8.768-7.459-14.165c-1.818-8.648-0.672-18.382,4.553-24.126
		c2.722-2.992,6.363-4.744,11.384-3.992c1.104,0.165,2.004,0.456,3.001,0.951c1.321,0.655,2.688,1.333,4.377,1.661
		c0,0-0.001,0-0.002,0l0.033,0.008c-0.011-0.002-0.02-0.005-0.03-0.008c0.941,0.289,1.895-0.021,2.476-0.409l-0.034,0.021
		c0.917-0.46,1.256-1.553,1.556-2.519c0.043-0.138,0.085-0.262,0.126-0.39h0.181l0.273,0.01v29.682l-0.914-0.02l-0.027-4.342
		c0,0,0.084-6.691-0.54-9.645c-1.366-6.898-5.101-12.026-9.991-13.713c-3.827-0.958-7.456,0.258-10.246,3.413
		c-2.352,2.81-3.205,7.349-2.288,12.146c0.735,4.599,2.434,9.048,4.908,12.856c2.573,4.426,5.949,7.941,9.212,11.341l1.968,2.064
		c-0.011-0.013,0.075,0.089,0.075,0.089c4.313,5.102,8.771,10.377,11.751,17.248C125.851,66.373,126.193,70.956,126.081,74.796"/>
	<path d="M69.332,66.746c0,0.189-0.083,0.305-0.154,0.367c-0.139,0.125-0.313,0.133-0.439,0.123l-0.103,0.002H53.176h-0.101
		l-0.068-0.055c0,0-0.033-0.095-0.018-0.201c0.061-0.43,0.213-1.475,0.335-1.996c0.005-0.02,4.807-23.485,4.807-23.483
		c0.814-3.969,1.513-7.212,2.346-10.953l0.673-3.032l0.285-1.219l0.316,1.219c0.558,2.508,1.043,5.094,1.513,7.593
		c0.361,1.92,0.734,3.908,1.137,5.838c1.65,8.372,3.328,17.217,4.927,25.744l0.005,0.026V66.746 M70.756,96.99v1.004h18.096
		l0.006-1.004h-4.443l0.002-0.404l-1.213-6.072c-0.563-2.89-1.146-5.877-1.804-8.771l-9.052-45.318L65.023,0l-0.308,1.8
		L45.369,94.721l-0.181,0.841c-0.196,0.905-0.277,1.418-0.277,1.419L38.968,97H38.95v0.994h13.027V97v-0.009h-0.675l-4.863-0.001
		l0.024-0.217l0.024-0.125c1.137-5.855,2.531-12.262,4.066-19.156l0.517-2.501c0.396-1.963,0.795-3.716,1.335-5.77l0.062-0.216
		l0.087-0.273c0.097-0.23,0.144-0.422,0.308-0.461l0.538-0.041h4.267h6.721h4.155c0,0,0.761-0.06,1.009,0.188
		c0.103,0.103,0.201,0.505,0.201,0.505l0.066,0.32l5.09,27.746H70.756L70.756,96.99z"/>
	<path d="M177.923,97.479h-19.582v-1.025l5.813-0.004l-0.003-29.173c0-0.002,0.008-3.383,0.008-3.383
		c0.008-2.616,0.017-5.3-0.022-7.938l0.018-17.621H143.82l0.011,57.632l-0.001,0.086l0.085,0.211l0.145,0.172l0.011,0.018h5.483
		v1.025H134.27l-0.557-1.014l2.053-0.016V4.068h-4.867l0.026-1.034h18.032v1.034h-5.137V37.07l20.344,0.03v1.749l-0.006-2.869
		l-0.004-31.912l-5.594-0.006l-0.006-1.027h18.707l0,1.027l-5.105,0.006v92.381l5.771,0.004L177.923,97.479"/>
	<path d="M199.297,96.449h7.669v1.029h-23.641l0.003-1.029l7.492,0.012c0,0,0.004-92.386,0.012-92.393l-7.489-0.014V3.052h23.703
		c0,0.002-0.001,0.004-0.001,0.007h0.014v1.029l-7.762-0.02V96.449"/>
	<path d="M295.213,72.949c-2.856,5.777-6.521,9.996-11.144,14.557l-0.035,0.034l-0.043,0.022l-0.248,0.123l-0.227,0.113
		l-0.152-0.201c0,0-1.479-1.908-1.48-1.91l-9.519-12.387c-3.898-0.258-8.754-0.221-11.055-0.184
		c1.447,1.936,11.521,15.4,11.521,15.403l2.894,3.94l0.113,0.152l-0.085,0.168c-0.247,0.496-0.694,0.654-1.054,0.781
		c-0.096,0.035-0.186,0.066-0.258,0.098c-6.691,3.251-16.021,4.445-23.764,3.045c-7.913-1.215-15.278-5.25-21.301-11.672
		c-5.238-5.668-11.612-13.493-14.421-23.785c-1.419-6.174-1.486-13.27-0.186-19.47c1.812-8.241,5.616-15.885,10.287-21.868
		c5.439-6.967,10.403-12.058,18.167-14.73c6.49-2.164,15.205-3.242,22.272-1.655c12.853,2.887,22.124,10.371,29.215,22.408
		c4.226,7.703,6.311,15.75,6.196,23.905C301.248,59.16,298.042,67.086,295.213,72.949 M307.461,32.851
		c-3.096-7.243-7.881-13.409-14.633-18.852c-6.063-5.188-12.082-8.364-22.677-11.067c0,0-2.255-0.665-5.36-1.167
		c-3.851-0.622-9-0.567-13.726-0.069c-9.768,1.014-18.131,3.775-24.865,8.204c-6.031,3.86-10.855,8.724-15.17,15.29
		c-5.335,9.227-7.669,17.569-7.348,26.26c0.029,9.743,3.319,19.103,9.518,27.066c5.552,7.134,13.188,12.794,21.518,15.94
		c6.199,2.74,13.007,4.043,19.964,4.145c8.908,0.127,16.552-0.647,23.355-2.74l0.205-0.064l0.13,0.172l9.82,12.9h11.245
		l-12.319-16.223l-0.013-0.018l-0.01-0.02l-0.31-0.553l-0.141-0.254l0.245-0.156c4.578-2.898,9.092-6.797,13.052-11.275
		c5.191-5.764,8.994-14.041,10.701-23.305C311.842,49.814,310.83,42.116,307.461,32.851L307.461,32.851z"/>
	<polyline points="347.996,4.163 347.992,100.107 315.885,4.32 315.877,96.994 322.869,97.008 322.869,98.092 306.744,98.092 
		306.744,96.988 314.529,96.988 314.539,4.153 307.867,4.149 307.863,3.233 325.1,3.233 346.576,69.242 346.566,4.163 
		341.539,4.163 341.553,3.233 354.898,3.233 354.898,4.163 347.996,4.163 	"/>
	<path d="M5.71,93.291l3.367-1.358l-0.014-0.019l0,0c-0.286,0.056-0.573,0.089-0.84,0.089H5.71v-1.1h5.569v1.029l-3.353,1.358
		l0.018,0.018l0.56-0.051h0.226h2.549v1.1H5.71V93.291"/>
</g>
</svg>
