<?xml version="1.0" encoding="UTF-8"?>
<svg width="350px" height="109px" viewBox="0 0 350 109" version="1.1" xmlns="http://www.w3.org/2000/svg" xmlns:xlink="http://www.w3.org/1999/xlink">
    <!-- Generator: Sketch 52.6 (67491) - http://www.bohemiancoding.com/sketch -->
    <title>FASHION-logo</title>
    <desc>Created with Sketch.</desc>
    <g id="Page-1" stroke="none" stroke-width="1" fill="none" fill-rule="evenodd">
        <g id="FASHION-logo" fill="#000000">
            <polyline id="Path" points="0.71 83.42 1.759 83.42 1.759 84.539 2.96 84.539 2.96 83.541 3.989 83.541 3.989 84.539 5.25 84.539 5.25 83.402 6.28 83.402 6.28 85.637 0.71 85.637 0.71 83.42"></polyline>
            <path d="M0.71,76.998 L3.38,76.525 C3.546,76.493 3.703,76.47 3.791,76.464 L4.225,76.428 L4.391,76.413 L4.548,76.401 L4.548,76.381 C4.391,76.361 4.271,76.348 4.193,76.339 C3.792,76.293 3.524,76.257 3.381,76.224 L0.711,75.665 L0.711,74.797 L4.548,74.096 L4.548,74.076 C4.387,74.062 4.337,74.058 4.133,74.039 C3.736,74.008 3.676,74.002 3.381,73.957 L0.711,73.522 L0.711,72.367 L6.28,73.522 L6.28,74.478 L3.348,75.055 C2.845,75.118 2.738,75.134 2.331,75.193 L2.331,75.213 C2.525,75.244 2.664,75.27 2.761,75.281 C3.042,75.328 3.236,75.36 3.347,75.388 L6.279,76.034 L6.279,76.996 L0.71,78.115 L0.71,76.998" id="Path"></path>
            <polyline id="Path" points="0.71 56.959 5.25 58.863 5.25 57.117 6.28 57.117 6.28 60.465 1.759 58.617 1.759 60.238 0.71 60.238 0.71 56.959"></polyline>
            <polyline id="Path" points="0.71 49.294 1.759 49.294 1.759 50.411 2.96 50.411 2.96 49.437 3.989 49.437 3.989 50.411 5.25 50.411 5.25 49.28 6.28 49.28 6.28 51.511 0.71 51.511 0.71 49.294"></polyline>
            <path d="M0.71,42.7 L6.279,43.989 L6.279,42.908 L5.352,42.7 L5.352,41.582 L6.28,41.388 L6.28,40.2 L0.71,41.546 L0.71,42.7 Z M2.996,42.034 L4.479,41.757 L4.479,42.524 L2.996,42.293 L2.142,42.172 L2.142,42.158 L2.996,42.034 Z" id="Shape" fill-rule="nonzero"></path>
            <polyline id="Path" points="0.71 33.709 5.25 33.709 5.25 32.558 6.28 32.558 6.28 34.807 0.71 34.807 0.71 33.709"></polyline>
            <path d="M0.71,26.154 L6.279,27.442 L6.279,26.342 L5.351,26.154 L5.351,25.036 L6.279,24.824 L6.279,23.655 L0.71,24.98 L0.71,26.154 Z M2.996,25.471 L4.479,25.194 L4.479,25.979 L2.996,25.733 L2.142,25.608 L2.142,25.59 L2.996,25.471 Z" id="Shape" fill-rule="nonzero"></path>
            <path d="M0.71,17.195 L4.077,15.837 L4.063,15.819 C3.777,15.874 3.49,15.907 3.223,15.907 L0.71,15.907 L0.71,14.807 L6.279,14.807 L6.279,15.836 L2.926,17.194 L2.944,17.212 L3.504,17.161 L3.73,17.161 L6.279,17.161 L6.279,18.261 L0.71,18.261 L0.71,17.195" id="Path"></path>
            <path d="M6.28,8.088 C6.28,6.536 5.362,5.747 3.56,5.747 C1.593,5.747 0.71,6.523 0.71,8.245 L0.71,9.082 L6.279,9.082 L6.279,8.088 L6.28,8.088 Z M5.301,7.964 L1.704,7.964 C1.773,7.225 2.387,6.846 3.524,6.846 C4.641,6.846 5.301,7.964 5.301,7.964 Z" id="Shape" fill-rule="nonzero"></path>
            <path d="M215.143,53.637 C215.232,53.32 215.247,52.989 215.247,52.567 C215.247,52.072 215.196,50.713 214.465,50.713 C213.734,50.713 213.683,52.072 213.683,52.567 C213.683,53.01 213.734,54.421 214.465,54.421 C214.569,54.421 214.642,54.391 214.731,54.323 L214.075,53.636 L214.642,53.082 L215.143,53.637 Z M216.488,55.02 L215.912,55.565 L215.484,55.1 C215.188,55.329 214.856,55.44 214.464,55.44 C213.483,55.44 212.507,54.658 212.507,52.568 C212.507,50.478 213.483,49.696 214.464,49.696 C215.446,49.696 216.421,50.478 216.421,52.568 C216.421,53.226 216.339,53.978 216.007,54.532 L216.488,55.02 Z" id="Shape" fill-rule="nonzero"></path>
            <path d="M224.061,49.784 L224.061,53.388 C224.061,53.808 224.01,54.444 224.608,54.444 C225.148,54.444 225.148,54.038 225.155,53.624 L225.155,49.785 L226.255,49.785 L226.255,53.846 C226.255,54.438 226.19,55.441 224.602,55.441 C223.576,55.441 222.963,54.962 222.963,53.921 L222.963,49.786 L224.061,49.786" id="Path"></path>
            <path d="M234.626,52.058 L234.501,51.217 L234.485,51.217 L234.368,52.058 L234.132,53.543 L234.906,53.543 L234.626,52.058 Z M235.115,49.784 L236.452,55.351 L235.277,55.351 L235.071,54.413 L233.956,54.413 L233.756,55.351 L232.663,55.351 L233.956,49.784 L235.115,49.784 Z" id="Shape" fill-rule="nonzero"></path>
            <path d="M243.981,52.176 L244.172,52.184 C244.675,52.184 244.873,51.844 244.873,51.386 C244.873,50.986 244.682,50.662 244.128,50.691 L243.981,50.691 L243.981,52.176 Z M242.88,55.352 L242.88,49.785 L243.987,49.785 C244.688,49.785 245.944,49.859 245.944,51.38 C245.944,51.993 245.7,52.518 245.154,52.82 L246.121,55.353 L244.962,55.353 L243.994,52.783 L243.98,52.783 L243.98,55.353 L242.88,55.353 L242.88,55.352 Z" id="Shape" fill-rule="nonzero"></path>
            <polyline id="Path" points="255.143 49.784 255.143 50.818 254.272 50.818 254.272 55.352 253.172 55.352 253.172 50.818 252.307 50.818 252.307 49.784 255.143 49.784"></polyline>
            <polyline id="Path" points="263.846 49.784 263.846 50.818 262.731 50.818 262.731 52.029 263.713 52.029 263.713 53.063 262.731 53.063 262.731 54.318 263.861 54.318 263.861 55.352 261.631 55.352 261.631 49.784 263.846 49.784"></polyline>
            <path d="M271.612,52.176 L271.804,52.184 C272.305,52.184 272.505,51.844 272.505,51.386 C272.505,50.986 272.313,50.662 271.759,50.691 L271.612,50.691 L271.612,52.176 Z M270.51,55.352 L270.51,49.785 L271.619,49.785 C272.319,49.785 273.575,49.859 273.575,51.38 C273.575,51.993 273.331,52.518 272.784,52.82 L273.752,55.353 L272.594,55.353 L271.626,52.783 L271.611,52.783 L271.611,55.353 L270.51,55.353 L270.51,55.352 Z" id="Shape" fill-rule="nonzero"></path>
            <polyline id="Path" points="281.511 49.784 281.511 54.318 282.664 54.318 282.664 55.352 280.412 55.352 280.412 49.784 281.511 49.784"></polyline>
            <polyline id="Path" points="289.453 49.784 290.029 51.297 290.11 51.57 290.125 51.57 290.25 51.156 290.746 49.784 291.979 49.784 290.678 52.685 290.678 55.352 289.579 55.352 289.579 52.685 288.242 49.784 289.453 49.784"></polyline>
            <path d="M19.948,48.346 C19.619,48.395 19.244,48.543 18.899,48.779 C18.785,48.857 18.52,49.007 18.544,49.286 C18.543,49.258 18.544,96.758 18.544,96.998 L23.98,96.998 L23.98,98.006 L0.873,98.008 L0.886,96.998 L9.168,96.998 L9.572,96.998 L9.585,4.862 C9.585,4.862 9.596,4.374 9.343,4.188 C9.309,4.163 8.932,4.171 8.932,4.171 L1.307,4.171 L1.315,3.253 L42.556,3.253 L42.556,29.59 L41.57,29.573 C41.57,29.573 41.552,29.387 41.55,29.242 C41.426,20.493 39.824,13.521 36.653,7.836 C35.539,6.189 33.6,4.238 30.604,4.168 C30.249,4.176 29.519,4.172 29.519,4.172 L21.677,4.162 C21.677,4.162 19.771,4.159 19.361,4.158 C19.212,4.224 19.089,4.263 18.944,4.356 C18.768,4.469 18.718,4.508 18.623,4.684 C18.569,4.783 18.544,4.971 18.544,4.971 L18.544,46.362 C18.544,46.362 18.723,46.559 18.78,46.627 C18.817,46.67 18.879,46.766 18.92,46.804 C18.99,46.868 19.147,46.986 19.238,47.013 C22.305,47.908 24.937,47.713 27.588,43.688 C29.702,40.477 30.697,36.638 30.697,32.642 C30.697,32.657 30.697,29.004 30.697,29.004 L31.642,29.009 L31.642,68.98 L30.697,68.978 C30.697,68.978 30.683,67.642 30.697,66.907 C30.713,66.086 30.657,65.181 30.595,64.364 C30.025,57.949 28.146,52.778 25.161,49.406 L25.148,49.391 L25.135,49.38 C23.608,47.953 22.858,48.285 21.541,48.249 L19.948,48.346" id="Path"></path>
            <path d="M121.081,74.796 C121.044,76.045 120.989,77.218 120.853,78.266 C120.689,79.528 120.548,79.94 120.381,80.723 C119.152,86.481 117.36,90.358 114.341,94.158 C113.682,94.987 112.906,95.817 112.157,96.409 C111.681,96.784 111.178,97.054 110.714,97.313 C107.14,99.317 104.568,98.936 102.873,98.752 C100.933,98.544 99.556,97.756 97.903,96.856 C96.26,95.961 94.696,95.068 92.673,94.594 L92.418,94.549 C90.546,94.414 89.439,95.045 88.471,96.385 L88.346,96.567 C88.138,96.955 88.181,97.375 88.187,97.755 C88.187,97.812 88.187,97.872 88.187,97.933 L87.32,97.933 L87.32,66.299 L88.327,66.278 C88.327,66.278 88.343,67.844 88.354,69.202 C88.372,71.422 88.392,73.718 88.902,75.845 C89.835,81.009 91.803,85.49 93.91,90.003 C96.197,94.198 99.388,96.886 103.82,97.773 C103.897,97.789 104.052,97.815 104.131,97.822 C108.424,98.238 111.827,95.736 114.619,90.936 L114.795,90.556 C116.391,86.204 116.817,81.913 116.104,78.178 C114.904,71.779 112.106,65.714 107.551,59.642 C105.721,57.229 103.783,54.951 101.907,52.747 C99.593,50.026 97.199,47.213 94.931,44.066 C91.607,39.678 88.539,35.298 87.472,29.901 C85.654,21.253 86.8,11.519 92.025,5.775 C94.747,2.783 98.388,1.031 103.409,1.783 C104.513,1.948 105.413,2.239 106.41,2.734 C107.731,3.389 109.098,4.067 110.787,4.395 C110.787,4.395 110.786,4.395 110.785,4.395 L110.818,4.403 C110.807,4.401 110.798,4.398 110.788,4.395 C111.729,4.684 112.683,4.374 113.264,3.986 L113.23,4.007 C114.147,3.547 114.486,2.454 114.786,1.488 C114.829,1.35 114.871,1.226 114.912,1.098 L115.093,1.098 L115.366,1.108 L115.366,30.79 L114.452,30.77 L114.425,26.428 C114.425,26.428 114.509,19.737 113.885,16.783 C112.519,9.885 108.784,4.757 103.894,3.07 C100.067,2.112 96.438,3.328 93.648,6.483 C91.296,9.293 90.443,13.832 91.36,18.629 C92.095,23.228 93.794,27.677 96.268,31.485 C98.841,35.911 102.217,39.426 105.48,42.826 L107.448,44.89 C107.437,44.877 107.523,44.979 107.523,44.979 C111.836,50.081 116.294,55.356 119.274,62.227 C120.851,66.373 121.193,70.956 121.081,74.796" id="Path"></path>
            <path d="M64.332,66.746 C64.332,66.935 64.249,67.051 64.178,67.113 C64.039,67.238 63.865,67.246 63.739,67.236 L63.636,67.238 L48.176,67.238 L48.075,67.238 L48.007,67.183 C48.007,67.183 47.974,67.088 47.989,66.982 C48.05,66.552 48.202,65.507 48.324,64.986 C48.329,64.966 53.131,41.501 53.131,41.503 C53.945,37.534 54.644,34.291 55.477,30.55 L56.15,27.518 L56.435,26.299 L56.751,27.518 C57.309,30.026 57.794,32.612 58.264,35.111 C58.625,37.031 58.998,39.019 59.401,40.949 C61.051,49.321 62.729,58.166 64.328,66.693 L64.333,66.719 L64.333,66.746 L64.332,66.746 Z M65.756,96.99 L65.756,97.994 L83.852,97.994 L83.858,96.99 L79.415,96.99 L79.417,96.586 L78.204,90.514 C77.641,87.624 77.058,84.637 76.4,81.743 L67.348,36.425 L60.023,0 L59.715,1.8 L40.369,94.721 L40.188,95.562 C39.992,96.467 39.911,96.98 39.911,96.981 L33.968,97 L33.95,97 L33.95,97.994 L46.977,97.994 L46.977,97 L46.977,96.991 L46.302,96.991 L41.439,96.99 L41.463,96.773 L41.487,96.648 C42.624,90.793 44.018,84.386 45.553,77.492 L46.07,74.991 C46.466,73.028 46.865,71.275 47.405,69.221 L47.467,69.005 L47.554,68.732 C47.651,68.502 47.698,68.31 47.862,68.271 L48.4,68.23 L52.667,68.23 L59.388,68.23 L63.543,68.23 C63.543,68.23 64.304,68.17 64.552,68.418 C64.655,68.521 64.753,68.923 64.753,68.923 L64.819,69.243 L69.909,96.989 L65.756,96.989 L65.756,96.99 Z" id="Shape" fill-rule="nonzero"></path>
            <path d="M172.923,97.479 L153.341,97.479 L153.341,96.454 L159.154,96.45 L159.151,67.277 C159.151,67.275 159.159,63.894 159.159,63.894 C159.167,61.278 159.176,58.594 159.137,55.956 L159.155,38.335 L138.82,38.335 L138.831,95.967 L138.83,96.053 L138.915,96.264 L139.06,96.436 L139.071,96.454 L144.554,96.454 L144.554,97.479 L129.27,97.479 L128.713,96.465 L130.766,96.449 L130.766,4.068 L125.899,4.068 L125.925,3.034 L143.957,3.034 L143.957,4.068 L138.82,4.068 L138.82,37.07 L159.164,37.1 L159.164,38.849 L159.158,35.98 L159.154,4.068 L153.56,4.062 L153.554,3.035 L172.261,3.035 L172.261,4.062 L167.156,4.068 L167.156,96.449 L172.927,96.453 L172.923,97.479" id="Path"></path>
            <path d="M194.297,96.449 L201.966,96.449 L201.966,97.478 L178.325,97.478 L178.328,96.449 L185.82,96.461 C185.82,96.461 185.824,4.075 185.832,4.068 L178.343,4.054 L178.343,3.052 L202.046,3.052 C202.046,3.054 202.045,3.056 202.045,3.059 L202.059,3.059 L202.059,4.088 L194.297,4.068 L194.297,96.449" id="Path"></path>
            <path d="M290.213,72.949 C287.357,78.726 283.692,82.945 279.069,87.506 L279.034,87.54 L278.991,87.562 L278.743,87.685 L278.516,87.798 L278.364,87.597 C278.364,87.597 276.885,85.689 276.884,85.687 L267.365,73.3 C263.467,73.042 258.611,73.079 256.31,73.116 C257.757,75.052 267.831,88.516 267.831,88.519 L270.725,92.459 L270.838,92.611 L270.753,92.779 C270.506,93.275 270.059,93.433 269.699,93.56 C269.603,93.595 269.513,93.626 269.441,93.658 C262.75,96.909 253.42,98.103 245.677,96.703 C237.764,95.488 230.399,91.453 224.376,85.031 C219.138,79.363 212.764,71.538 209.955,61.246 C208.536,55.072 208.469,47.976 209.769,41.776 C211.581,33.535 215.385,25.891 220.056,19.908 C225.495,12.941 230.459,7.85 238.223,5.178 C244.713,3.014 253.428,1.936 260.495,3.523 C273.348,6.41 282.619,13.894 289.71,25.931 C293.936,33.634 296.021,41.681 295.906,49.836 C296.248,59.16 293.042,67.086 290.213,72.949 Z M302.461,32.851 C299.365,25.608 294.58,19.442 287.828,13.999 C281.765,8.811 275.746,5.635 265.151,2.932 C265.151,2.932 262.896,2.267 259.791,1.765 C255.94,1.143 250.791,1.198 246.065,1.696 C236.297,2.71 227.934,5.471 221.2,9.9 C215.169,13.76 210.345,18.624 206.03,25.19 C200.695,34.417 198.361,42.759 198.682,51.45 C198.711,61.193 202.001,70.553 208.2,78.516 C213.752,85.65 221.388,91.31 229.718,94.456 C235.917,97.196 242.725,98.499 249.682,98.601 C258.59,98.728 266.234,97.954 273.037,95.861 L273.242,95.797 L273.372,95.969 L283.192,108.869 L294.437,108.869 L282.118,92.646 L282.105,92.628 L282.095,92.608 L281.785,92.055 L281.644,91.801 L281.889,91.645 C286.467,88.747 290.981,84.848 294.941,80.37 C300.132,74.606 303.935,66.329 305.642,57.065 C306.842,49.814 305.83,42.116 302.461,32.851 Z" id="Shape" fill-rule="nonzero"></path>
            <polyline id="Path" points="342.996 4.163 342.992 100.107 310.885 4.32 310.877 96.994 317.869 97.008 317.869 98.092 301.744 98.092 301.744 96.988 309.529 96.988 309.539 4.153 302.867 4.149 302.863 3.233 320.1 3.233 341.576 69.242 341.566 4.163 336.539 4.163 336.553 3.233 349.898 3.233 349.898 4.163 342.996 4.163"></polyline>
            <path d="M0.71,93.291 L4.077,91.933 L4.063,91.914 C3.777,91.97 3.49,92.003 3.223,92.003 L0.71,92.003 L0.71,90.903 L6.279,90.903 L6.279,91.932 L2.926,93.29 L2.944,93.308 L3.504,93.257 L3.73,93.257 L6.279,93.257 L6.279,94.357 L0.71,94.357 L0.71,93.291" id="Path"></path>
        </g>
    </g>
</svg>