<?xml version="1.0" encoding="utf-8"?>
<!-- Generator: Adobe Illustrator 16.0.0, SVG Export Plug-In . SVG Version: 6.00 Build 0)  -->
<!DOCTYPE svg PUBLIC "-//W3C//DTD SVG 1.1//EN" "http://www.w3.org/Graphics/SVG/1.1/DTD/svg11.dtd">
<svg version="1.1" id="Layer_1" xmlns="http://www.w3.org/2000/svg" xmlns:xlink="http://www.w3.org/1999/xlink" x="0px" y="0px"
	 width="449.197px" height="146.073px" viewBox="0 0 449.197 146.073" enable-background="new 0 0 449.197 146.073"
	 xml:space="preserve">
<g>
	<path d="M297.984,55.752c-0.378,0.056-0.808,0.227-1.205,0.498c-0.13,0.089-0.435,0.261-0.407,0.582
		c-0.002-0.032,0,54.515,0,54.791h6.241v1.157l-26.534,0.002l0.015-1.159h9.511h0.463l0.017-105.807c0,0,0.012-0.56-0.278-0.774
		c-0.039-0.029-0.472-0.02-0.472-0.02h-8.757l0.01-1.054h47.359v30.245l-1.132-0.02c0,0-0.021-0.214-0.022-0.379
		c-0.144-10.047-1.983-18.054-5.624-24.582c-1.279-1.892-3.506-4.132-6.947-4.213c-0.408,0.009-1.245,0.005-1.245,0.005
		l-9.006-0.012c0,0-2.189-0.003-2.659-0.005c-0.172,0.076-0.313,0.121-0.479,0.227c-0.201,0.13-0.259,0.175-0.368,0.377
		c-0.062,0.114-0.091,0.329-0.091,0.329v47.532c0,0,0.205,0.227,0.271,0.305c0.042,0.049,0.114,0.159,0.161,0.203
		c0.081,0.074,0.261,0.209,0.366,0.24c3.521,1.027,6.544,0.804,9.589-3.819c2.428-3.688,3.569-8.096,3.569-12.684
		c0,0.017,0-4.178,0-4.178l1.087,0.006v45.903l-1.087-0.002c0,0-0.016-1.534,0-2.379c0.019-0.943-0.046-1.982-0.116-2.92
		c-0.655-7.368-2.813-13.306-6.24-17.179l-0.014-0.016l-0.017-0.013c-1.753-1.638-2.615-1.257-4.127-1.298L297.984,55.752
		L297.984,55.752z"/>
	<path d="M430.923,84.006c-3.281,6.635-7.489,11.48-12.797,16.717l-0.041,0.038l-0.05,0.026l-0.284,0.141l-0.261,0.13l-0.176-0.229
		c0,0-1.697-2.192-1.699-2.193l-10.931-14.226c-4.477-0.295-10.053-0.253-12.695-0.21c1.662,2.222,13.229,17.685,13.231,17.688
		l3.323,4.525l0.13,0.175l-0.099,0.193c-0.283,0.568-0.797,0.752-1.21,0.897c-0.108,0.039-0.213,0.076-0.296,0.111
		c-7.684,3.734-18.398,5.105-27.29,3.497c-9.087-1.395-17.544-6.029-24.46-13.404c-6.016-6.509-13.336-15.494-16.561-27.313
		c-1.63-7.089-1.707-15.238-0.213-22.359c2.08-9.463,6.448-18.241,11.813-25.112c6.247-8,11.947-13.847,20.863-16.916
		c7.453-2.484,17.461-3.723,25.577-1.9c14.759,3.315,25.406,11.91,33.549,25.733c4.853,8.845,7.247,18.087,7.116,27.451
		C437.852,68.171,434.172,77.273,430.923,84.006L430.923,84.006z M444.987,37.959c-3.557-8.319-9.051-15.399-16.806-21.649
		c-6.962-5.958-13.874-9.606-26.04-12.71c0,0-2.59-0.763-6.157-1.34c-4.421-0.715-10.334-0.651-15.762-0.08
		c-11.216,1.165-20.82,4.335-28.554,9.421c-6.927,4.433-12.467,10.017-17.42,17.558c-6.128,10.596-8.809,20.175-8.438,30.156
		c0.033,11.189,3.811,21.936,10.929,31.083c6.375,8.191,15.146,14.69,24.71,18.306c7.12,3.146,14.938,4.642,22.927,4.758
		c10.23,0.146,19.008-0.743,26.82-3.146l0.236-0.072l0.148,0.196l11.277,14.814h12.914l-14.146-18.63l-0.016-0.021l-0.012-0.021
		l-0.355-0.636l-0.16-0.292l0.28-0.181c5.258-3.326,10.44-7.804,14.989-12.947c5.961-6.617,10.327-16.124,12.287-26.761
		C450.019,57.439,448.854,48.597,444.987,37.959L444.987,37.959z"/>
	<path fill="#F0C1C9" d="M138.288,141.566c-0.006,0.126-0.537,0.645-0.695,0.619c-0.258,0.753-0.416,1.488-0.757,2.129
		c-0.331,0.625-0.848,1.15-1.312,1.759c-1.184-0.918-1.675-1.977-1.692-3.199c-0.049-3.673-0.689-7.26-1.341-10.861
		c-0.539-2.972-0.826-5.993-1.211-8.993c-0.33-2.557-0.692-5.112-0.948-7.679c-0.322-3.226-0.543-6.463-0.821-9.695
		c-0.166-1.936-0.406-3.865-0.525-5.804c-0.134-2.183-0.142-4.373-0.256-6.557c-0.102-1.938-0.306-3.87-0.406-5.809
		c-0.102-1.961-0.097-3.929-0.206-5.89c-0.111-1.964-0.336-3.922-0.447-5.886c-0.059-1.071,0.037-2.15,0.021-3.226
		c-0.015-0.938-0.082-1.875-0.136-2.813c-0.114-1.966-0.242-3.933-0.349-5.901c-0.092-1.68-0.224-3.361-0.229-5.042
		c-0.007-2.381,0.112-4.76,0.126-7.139c0.008-1.442-0.1-2.884-0.127-4.327c-0.053-2.97-0.099-5.94-0.123-8.91
		c-0.017-1.999,0.004-3.998,0.019-5.996c0.011-1.629,0.073-3.258,0.047-4.884c-0.039-2.374-0.144-4.746-0.204-7.119
		c-0.018-0.721,0.062-1.444,0.026-2.163c-0.032-0.631-0.178-1.255-0.25-1.885c-0.102-0.899-0.092-1.822-0.296-2.696
		c-0.223-0.96-0.573-1.904-0.982-2.804c-0.304-0.67-0.852-2.366-0.816-2.656L124.395,8c-0.468-0.739-0.964-1.462-1.396-2.222
		c-0.329-0.582-0.783-0.54-1.351-0.5c-2.415,0.167-4.344,1.431-6.246,2.731c-1.207,0.823-2.339,1.758-3.5,2.646
		c-0.506,0.388-0.991,0.804-1.505,1.179c-1.316,0.959-2.315,2.19-3.183,3.556c-1.592,2.506-3.248,4.971-4.827,7.486
		c-1.221,1.945-2.485,3.878-3.506,5.928c-0.773,1.551-1.141,3.298-1.786,4.919c-0.728,1.829-1.657,3.581-2.334,5.428
		c-1.203,3.281-2.373,6.578-3.388,9.921c-1.272,4.188-2.4,8.42-3.534,12.649c-0.466,1.739-0.771,3.52-1.172,5.277
		c-0.13,0.565-0.317,1.118-0.513,1.664l-0.371,0.149c-0.098,0.123-0.184,0.329-0.149,0.468c0.056,0.224,0.343,0.442,0.313,0.627
		c-0.819,4.924-1.657,9.844-2.511,14.761c-0.288,1.659-0.626,3.31-0.945,4.964c-0.045,0.231-0.117,0.459-0.322,0.693
		c-0.088-0.329-0.176-0.658-0.264-0.988l-0.119-0.021c-0.11,0.633-0.207,1.269-0.333,1.899c-0.339,1.692-0.744,3.374-1.025,5.076
		c-0.338,2.051-0.523,4.127-0.882,6.174c-0.171,0.97-0.632,1.887-0.882,2.85c-0.158,0.607-0.253,1.257-0.232,1.883
		c0.062,1.774-0.09,3.479-1.041,5.05c-0.521,0.861-0.85,1.847-1.434,2.656c-0.38,0.525-1.057,0.842-1.611,1.238
		c-0.337,0.24-0.691,0.457-1.041,0.682l-0.349,0.184c-1.139-0.884-1.439,0.707-2.254,0.766c-0.121,0.008-0.233,0.136-0.486,0.292
		c-0.301-0.908-0.494-1.809-0.889-2.61c-0.657-1.333-0.317-2.812-0.679-4.13c-1.05-3.812-1.172-7.729-1.576-11.61
		c-0.513-4.91-0.9-9.834-1.312-14.756c-0.197-2.344-0.373-4.691-0.474-7.039c-0.22-5.15-0.38-10.303-0.579-15.452
		c-0.097-2.516-0.259-5.029-0.33-7.545c-0.056-1.983,0.021-3.968-0.033-5.951c-0.038-1.407-0.196-2.809-0.299-4.214
		c-0.17-2.321-0.361-4.639-0.501-6.961c-0.153-2.548-0.218-5.103-0.401-7.649c-0.103-1.436-0.408-2.855-0.544-4.29
		c-0.131-1.407-0.138-2.824-0.248-4.232c-0.089-1.154-0.242-2.303-0.386-3.451c-0.021-0.166-0.147-0.317-0.224-0.476
		c-0.163,0.087-0.388,0.131-0.479,0.265c-0.536,0.792-1.013,1.626-1.564,2.407c-0.698,0.987-1.486,1.911-2.164,2.911
		c-0.474,0.698-0.78,1.512-1.248,2.215c-0.743,1.116-1.58,2.167-2.334,3.273c-0.416,0.612-0.751,1.282-1.112,1.93
		c-1.222,2.203-2.431,4.415-3.662,6.614c-0.419,0.747-0.927,1.446-1.327,2.203c-1.38,2.61-2.755,5.224-4.074,7.864
		c-0.33,0.66-0.396,1.448-0.668,2.142c-0.871,2.215-1.647,4.482-2.715,6.601c-1.111,2.206-1.712,4.564-2.54,6.855
		c-1.211,3.352-2.522,6.666-3.71,10.024c-0.775,2.193-1.579,4.401-2.03,6.671c-0.235,1.179-0.605,2.37-0.698,3.538
		c-0.249,3.16-1.538,5.957-2.602,8.849c-0.421,1.146-0.587,2.386-0.875,3.578c-0.052,0.215-0.139,0.422-0.195,0.636
		c-0.497,1.869-0.978,3.742-1.495,5.606c-0.154,0.559-0.375,1.104-0.623,1.628c-0.665,1.414-1.455,2.777-2.004,4.232
		c-0.298,0.788-0.499,1.602-0.997,2.298c-0.641,0.895-1.135,1.965-1.952,2.648c-1.761,1.471-3.695,2.48-6.155,1.423
		c-1.034-0.444-1.252-0.116-2.773-1.706c-1.521-1.592-1.632-4.049-2.245-4.939c-0.238-0.346-0.007-1.007-0.011-1.523
		c-0.008-1.275,0.01-2.552-0.05-3.823c-0.207-4.377-0.441-8.752-0.669-13.128c-0.128-2.467-0.277-4.935-0.397-7.4
		c-0.097-1.992-0.137-3.986-0.252-5.977C7.935,72.404,7.695,69.197,7.5,65.99c-0.094-1.548-0.116-3.099-0.212-4.646
		c-0.089-1.433-0.272-2.861-0.34-4.294c-0.074-1.548-0.068-3.1-0.086-4.651c-0.017-1.383,0.005-2.766-0.033-4.148
		c-0.06-2.19-0.172-4.38-0.23-6.571c-0.06-2.265-0.106-4.531-0.113-6.795c-0.007-2.678,0.056-5.355,0.049-8.032
		c-0.006-2.437-0.051-4.874-0.105-7.311c-0.058-2.578-0.126-5.156-0.243-7.731c-0.017-0.366-0.283-0.754-0.518-1.07
		c-0.564-0.757-0.562-1.064,0.052-1.73c0.12-0.129,0.145-0.38,0.149-0.575c0.007-0.32-0.143-0.877-0.043-0.922
		c0.587-0.262,0.997-1.055,1.846-0.628C8.317,7.209,9.12,7.241,9.519,7.988c0.05,0.095,0.244,0.151,0.374,0.158
		c0.67,0.034,1.199,0.225,1.44,0.946c0.045,0.137,0.56,0.283,0.6,0.23c0.425-0.563,0.863-0.125,1.16,0.05
		c0.82,0.481,1.531,1.153,2.363,1.609c2.057,1.123,2.007,3.242,2.537,5.098c0.12,0.419,0.376,0.811,0.437,1.234
		c0.142,1.007,0.199,2.025,0.3,3.038c0.073,0.741,0.175,1.479,0.239,2.221c0.124,1.457,0.242,2.916,0.341,4.375
		c0.152,2.255,0.288,4.51,0.428,6.765c0.091,1.46,0.169,2.92,0.269,4.381c0.149,2.158,0.33,4.315,0.466,6.473
		c0.116,1.83,0.191,3.664,0.279,5.495c0.117,2.438,0.246,4.875,0.34,7.314c0.113,2.968,0.148,5.94,0.305,8.906
		c0.128,2.436,0.415,4.861,0.574,7.297c0.195,2.968,0.341,5.937,0.486,8.908c0.104,2.127,0.162,4.256,0.264,6.383
		c0.019,0.399,0.151,0.796,0.408,1.226c0.187-0.421,0.408-0.831,0.556-1.266c0.455-1.338,0.723-2.77,1.357-4.012
		c1.006-1.975,1.229-4.152,1.912-6.205c0.422-1.272,0.498-2.657,0.832-3.964c0.273-1.07,0.592-2.153,1.076-3.139
		c1.483-3.021,2.073-6.313,3.06-9.486c0.763-2.454,1.872-4.8,2.822-7.197c0.479-1.207,1.119-2.383,1.392-3.636
		c0.844-3.893,2.158-7.57,4.409-10.885c0.244-0.36,0.44-0.796,0.512-1.22c0.404-2.398,1.693-4.365,2.937-6.377
		c0.797-1.288,1.412-2.689,2.105-4.041c0.101-0.198,0.153-0.422,0.269-0.608c1.471-2.35,2.935-4.705,4.435-7.036
		c0.312-0.486,0.772-0.874,1.147-1.319c0.551-0.656,1.138-1.289,1.618-1.996c1.048-1.537,2.283-2.872,3.933-3.757
		c1.162-0.623,2.359-1.179,3.556-1.731c1.033-0.475,1.935,0.215,2.883,0.423c0.373,0.082,0.693,0.402,1.043,0.604
		c0.43,0.25,0.871,0.477,1.295,0.735c0.548,0.332,1.094,0.672,1.623,1.033c0.187,0.129,0.325,0.332,0.485,0.501
		c0,0,1.514,1.556,2.026,2.18c0.826,1.009,1.255,2.089,1.488,3.335c0.185,0.989,0.59,1.936,0.786,2.926
		c0.369,1.866,0.687,3.744,0.968,5.626c0.122,0.82,0.145,1.66,0.135,2.491c-0.021,1.877,0.559,3.641,0.891,5.456
		c0.347,1.894,0.591,3.84,0.569,5.759c-0.027,2.378,0.287,4.69,0.609,7.025c0.264,1.918,0.268,3.871,0.412,5.806
		c0.103,1.388,0.248,2.772,0.375,4.159l0.02,0.163c-0.781,1.837,0.342,3.556,0.333,5.351c-0.011,1.803,0.118,3.609,0.189,5.413
		c0.027,0.723,0.062,1.446,0.092,2.17l0.245,0.015c0.075-0.394,0.144-0.789,0.225-1.183c0.712-3.481,1.394-6.969,2.156-10.438
		c0.297-1.35,0.838-2.644,1.161-3.989c0.375-1.562,0.63-3.152,0.943-4.728c0.216-1.087,0.356-2.198,0.677-3.253
		c0.739-2.439,1.632-4.832,2.344-7.278c0.872-2.999,2.125-5.838,3.335-8.703c0.679-1.608,1.038-3.359,1.792-4.924
		c1.045-2.169,2.305-4.236,3.514-6.323c0.679-1.172,1.444-2.293,2.163-3.442c1.028-1.643,2.058-3.286,3.071-4.938
		c0.949-1.549,2.084-2.898,3.533-4.037c1.098-0.861,1.909-2.084,2.989-2.974c2.329-1.916,4.665-3.795,7.527-4.988
		c1.989-0.828,4.008-1.452,6.083-1.927c0.767-0.175,1.6-0.083,2.402-0.076c0.57,0.007,0.238-0.347,1.716,0.069
		c0,0,1.382-0.446,1.95-0.169c1.764,0.859,3.638,1.377,4.764,3.126c0.046,0.072,0.246,0.332,0.451,0.418
		c-0.036-0.341,1.801,1.466,2.716,2.669c0.75,0.983,1.47,1.993,2.13,3.039c0.218,0.348,0.17,0.853,0.3,1.269
		c0.617,1.98,1.447,3.916,1.842,5.939c0.652,3.332,1.545,6.638,1.395,10.102c-0.081,1.877,0.205,3.767,0.149,5.646
		c-0.047,1.488,0.268,2.891,0.55,4.317c0.062,0.318,0.013,0.656,0.026,0.986c0.088,2.345,0.208,4.691,0.257,7.036
		c0.025,1.273-0.087,2.55-0.104,3.824c-0.009,0.551,0.092,1.101,0.093,1.654c0.001,0.542-0.095,1.085-0.087,1.627
		c0.038,2.311,0.088,4.622,0.156,6.933c0.02,0.662,0.15,1.319,0.172,1.981c0.07,2.063,0.127,4.126,0.156,6.189
		c0.009,0.66-0.162,1.326-0.115,1.98c0.101,1.366,0.338,2.723,0.435,4.09c0.126,1.766,0.183,3.537,0.248,5.307
		c0.087,2.356,0.13,4.712,0.235,7.066c0.231,5.186,0.506,10.368,0.731,15.554c0.15,3.465,0.475,6.946,0.287,10.396
		c-0.135,2.505,0.145,5-0.107,7.498c-0.097,0.973,0.15,1.979,0.243,2.972c0.206,2.209,0.478,4.414,0.603,6.628
		c0.165,2.928,0.243,5.863,0.305,8.797c0.028,1.371-1.006,2.078-1.981,2.776c-0.481,0.345-0.981,0.667-1.482,0.982
		C139.143,141.101,138.797,141.278,138.288,141.566L138.288,141.566z M83.664,79.656l0.335,0.055
		c0.206-1.444,0.412-2.888,0.618-4.333l-0.255-0.037C84.129,76.778,83.896,78.217,83.664,79.656L83.664,79.656z"/>
	<path fill="#F0C1C9" d="M202.697,116.829l-0.24-0.18c-0.403,0.326-0.805,0.651-1.212,0.982c-0.68-0.884-1.473-0.917-2.749,0.199
		c-0.194-0.157-0.395-0.321-0.498-0.405c-1.281,0.389-2.457,0.854-3.678,1.062c-0.502,0.085-1.046-0.212-1.431,0.382
		c-0.035,0.055-0.427-0.026-0.562-0.146c-0.533-0.471-1.029-0.981-1.656-1.593c0.208-0.257,0.578-0.646,0.872-1.084
		c0.966-1.45,1.853-2.956,2.871-4.368c1.035-1.435,2.198-2.775,3.287-4.17c1.803-2.306,4.005-4.295,5.181-7.087
		c0.934-2.219,1.663-4.488,1.978-6.855c0.29-2.198,0.521-4.427,0.496-6.638c-0.035-3.062-0.125-6.151-1.319-9.059
		c-0.75-1.825-1.516-3.644-2.286-5.459c-0.415-0.981-0.812-1.974-1.294-2.92c-0.599-1.175-1.292-2.301-1.916-3.464
		c-0.546-1.017-1.106-2.034-1.561-3.094c-0.493-1.143-0.839-2.349-1.321-3.497c-0.144-0.345-0.527-0.588-0.8-0.879
		c-0.26,0.27-0.638,0.493-0.758,0.813c-0.458,1.219-1.226,2.188-2.039,3.194c-1.031,1.279-1.772,2.793-2.614,4.22
		c-0.774,1.313-1.535,2.636-2.262,3.975c-0.477,0.875-0.872,1.795-1.321,2.686c-0.774,1.529-1.619,3.024-2.327,4.585
		c-0.697,1.532-1.252,3.131-1.887,4.692c-0.606,1.489-1.241,2.965-1.854,4.452c-0.189,0.458-0.389,0.918-0.514,1.396
		c-0.277,1.046-0.666,2.006-1.219,2.966c-0.823,1.423-1.31,3.036-1.997,4.543c-0.23,0.509-0.679,0.915-0.948,1.411
		c-0.592,1.09-1.537,2.059-1.213,3.481c0.145,0.645-0.7,1.733-1.347,1.802l-0.324,0.025c-0.734,0.998-2.023,0.388-2.92,1.02
		c-0.349,0.246-1.029,0.217-1.485,0.075c-1.451-0.443-3.122-0.468-4.257-1.553c-0.61-0.583-0.877-1.581-1.155-2.437
		c-0.252-0.782-0.312-1.626-0.455-2.442c-0.028-0.164-0.012-0.35-0.086-0.488c-1.767-3.229-2.395-6.776-2.888-10.356
		c-0.405-2.941-0.818-5.883-1.12-8.835c-0.194-1.903-0.224-3.826-0.271-5.742c-0.076-3.133-0.109-6.268-0.154-9.404
		c-0.032-2.138-0.099-4.277-0.066-6.414c0.045-2.886,0.196-5.772,0.26-8.659c0.077-3.445,0.119-6.889,0.158-10.333
		c0.012-1.03,0.315-1.988,0.668-2.929c0.119-0.318,0.4-0.497,0.767-0.104c0.373,0.397,0.846,0.702,1.312,1.015
		c0.349,0.29,0.696,0.586,1.049,0.871l0.288,0.158c0.634,0.827,1.241,1.676,1.888,2.494c0.592,0.749,1.247,1.448,1.829,2.203
		c0.258,0.336,0.327,0.838,0.62,1.124c1.194,1.162,1.116,2.724,1.386,4.172c0.312,1.68,0.569,3.37,0.868,5.052
		c0.374,2.1,0.449,4.208,0.287,6.332c-0.032,0.405,0.001,0.855,0.148,1.227c0.943,2.377,0.741,4.851,0.745,7.323
		c0.003,1.959,0.084,3.915,0.485,5.867c0.301,1.456,0.156,3.001,0.262,4.503c0.06,0.877,0.262,1.745,0.332,2.621
		c0.14,1.765,0.225,3.533,0.349,5.299c0.075,1.08,0.19,2.158,0.264,3.239c0.024,0.354,0.015,0.722-0.052,1.069
		c-0.152,0.786-0.169,0.787,0.461,1.59L172,90.183c0.745-1.754,1.464-3.52,2.218-5.271c0.556-1.295,1.227-2.545,1.719-3.863
		c0.835-2.23,1.552-4.497,2.708-6.604c0.984-1.791,1.765-3.69,2.713-5.5c0.651-1.24,1.455-2.4,2.158-3.614
		c0.387-0.669,0.657-1.41,1.068-2.063c0.939-1.496,1.948-2.946,2.898-4.435c1.144-1.793,2.115-3.715,3.419-5.379
		c1.162-1.483,1.234-2.785,0.61-4.504c-0.789-2.179-1.246-4.482-1.779-6.748c-0.241-1.025-0.403-2.083-0.454-3.133
		c-0.088-1.83,0.046-3.627,0.665-5.405c0.665-1.909,1.095-3.897,1.662-5.842c0.073-0.252,0.302-0.52,0.532-0.656
		c1.14-0.67,2.299-1.308,3.465-1.931c0.247-0.131,0.571-0.255,0.824-0.205c0.441,0.087,0.351,0.012,1.094-0.293l0.126-0.103
		c1.895-0.264,3.936-0.856,5.563,0.445c1.272,1.017,2.63,2.183,2.898,4.021c0.024,0.164,0.019,0.372,0.115,0.481
		c1.068,1.188,0.591,2.667,0.822,4.019c0.278,1.628-0.596,2.936-0.856,4.393c-0.403,2.258-1.81,3.847-2.89,5.685
		c-0.811,1.377-1.374,2.906-1.972,4.397c-0.123,0.305,0.026,0.761,0.148,1.113c0.603,1.745,1.321,3.456,1.839,5.224
		c0.414,1.417,1.099,2.73,2.022,3.753c1.123,1.243,1.385,2.786,2.112,4.151c0.786,1.477,1.699,2.889,2.476,4.371
		c0.664,1.267,1.198,2.601,1.815,3.893c0.337,0.703,0.727,1.381,1.094,2.071c0.466,0.883,0.993,1.739,1.389,2.652
		c0.906,2.084,1.79,4.181,2.598,6.304c0.329,0.865,0.459,1.811,0.643,2.726c0.23,1.144,0.503,2.286,0.613,3.443
		c0.194,2.06,0.282,4.132,0.408,6.198c0.026,0.44-0.017,0.888,0.038,1.322c0.234,1.862-0.882,3.39-1.231,5.107
		c-0.194,0.954-0.375,1.913-0.585,2.864c-0.434,1.979-0.893,3.984-1.99,5.69c-1.406,2.188-2.826,4.392-4.659,6.274
		c-0.115,0.117-0.203,0.262-0.298,0.396c-1.048,1.499-2.633,1.877-4.403,1.333c-0.623-0.192-1.458,0.132-2.143,0.368
		C202.806,117.468,202.49,117.264,202.697,116.829L202.697,116.829z M197.999,40.893c0.281-0.519,0.393-0.913,0.647-1.165
		c1.239-1.227,1.867-2.77,2.381-4.385c0.334-1.051,0.808-2.076,0.989-3.152c0.163-0.967,0.026-1.986-0.008-2.98
		c-0.023-0.677-2.039-2.393-3.251-1.564c-1.212,0.828-1.995,1.531-1.872,2.207c0.15,0.826,0.247,1.682,0.207,2.519
		c-0.08,1.649-0.857,3.327,0.337,4.891c0.087,0.115,0.059,0.322,0.072,0.488c0.066,0.797,0.115,1.597,0.197,2.393
		C197.718,40.333,197.84,40.512,197.999,40.893L197.999,40.893z"/>
	<path fill="#F0C1C9" d="M163.753,29.825c-0.288-0.11-0.582-0.199-0.874-0.297c0.016,0.3,0.033,0.6,0.05,0.922
		c-0.411,0.133-1.414-0.393-1.84-0.862c-0.806-0.891-1.664-1.739-2.545-2.558c-0.793-0.74-1.738-1.23-2.755-1.642
		c-0.403-0.164-0.761-0.799-0.845-1.272c-0.061-0.33,0.348-0.776,0.62-1.112c0.084-0.103,0.406-0.014,0.634-0.014l0.093-0.215
		c-0.234-1.343,0.492-2.073,1.774-1.541c1.253,0.521,2.415,1.304,3.542,2.079c0.969,0.667,1.869,1.447,2.729,2.252
		c0.46,0.432,0.798,1.008,1.141,1.55c0.23,0.363,0.356,0.79,0.553,1.177c0.229,0.45-0.035,0.956-0.502,1.065
		c-0.449,0.105-0.873,0.32-1.308,0.487C164.22,29.844,163.928,29.891,163.753,29.825L163.753,29.825z"/>
	<path fill="#F0C1C9" d="M233.415,98.722c-1.656-0.583-2.482-1.924-3.557-3.132c-0.906-1.02-1.349-2.222-1.845-3.37
		c-0.504-1.163-0.564-2.528-0.75-3.814c-0.117-0.816-0.046-1.66-0.173-2.474c-0.458-2.921,0.026-5.777,1.122-8.105
		c0.623-1.323,0.987-2.767,1.591-4.102c0.714-1.579,1.516-3.126,2.358-4.642c1.001-1.796,2.078-3.548,3.143-5.306
		c0.32-0.528,0.309-0.988,0.065-1.564c-1.606-3.8-3.214-7.604-4.733-11.44c-0.735-1.854-1.343-3.764-1.907-5.678
		c-0.917-3.112-1.704-6.254-1.213-9.55c0.194-1.307-0.894-7.526,0.828-8.74l0.117-0.111c0.235-1.443,1.789-2.002,2.217-3.358
		c0.205-0.649,0.819-1.169,1.257-1.741l0.263-0.197c0.665-0.306,1.357-0.561,1.989-0.921c0.43-0.245,0.774-0.639,1.168-0.953
		c0.164-0.131,0.353-0.312,0.539-0.323c0.835-0.046,1.673-0.037,2.509-0.05c1.27-0.02,2.023,0.792,2.751,1.668
		c0.3,0.361,0.833,0.625,0.954,1.024c0.48,1.59,0.838,3.218,1.234,4.833l-0.007,0.327c-0.544,1.083-0.298,2.227-0.053,3.275
		c0.392,1.667-0.029,3.11-0.748,4.548c-0.063,0.123-0.155,0.259-0.148,0.385c0.066,1.173-0.974,1.273-1.657,1.686
		c-0.375,0.227-1.078-0.457-1.18-0.981c-0.445-2.304-0.924-4.603-1.393-6.901c-0.101-0.488-0.174-0.988-0.342-1.454
		c-0.338-0.941-0.718-1.868-1.121-2.783c-0.072-0.16-0.409-0.365-0.521-0.317c-0.405,0.183-0.891,0.381-1.127,0.723
		c-0.646,0.941-1.218,1.941-1.754,2.951c-0.751,1.419-0.83,2.874-0.054,4.328c0.103,0.19,0.682,2.537,1.165,3.366
		c0.614,1.051,0.617,2.215,0.926,3.318c0.252,0.895,0.409,1.819,0.692,2.704c0.422,1.317,0.891,2.621,1.396,3.907
		c0.175,0.442,0.537,0.806,0.784,1.223c0.278,0.474,0.55,0.959,0.777,1.459c0.411,0.903,0.763,1.834,1.191,2.729
		c0.224,0.469,0.587,0.869,0.836,1.327c0.406,0.747,0.804,1.505,1.147,2.283c0.247,0.556,0.479,0.607,0.892,0.16
		c0.964-1.046,1.92-2.104,2.935-3.099c0.889-0.872,1.854-1.667,2.788-2.493c0.703-0.621,1.398-1.251,2.115-1.855
		c1.056-0.889,2.141-1.743,3.192-2.637c2.3-1.954,4.547-3.967,6.888-5.869c1.408-1.147,2.965-2.114,4.43-3.198
		c0.884-0.654,1.668-1.454,2.59-2.047c1.555-0.998,3.191-1.87,4.777-2.82c0.949-0.568,1.891-1.151,2.797-1.783
		c1.78-1.246,3.604-2.405,5.761-2.874c1.908-0.414,3.575-1.344,5.212-2.339c2.494-1.515,5.291-2.134,8.09-2.713
		c2.824-0.585,5.658-1.145,8.51-1.569c1.916-0.284,3.871-0.441,5.807-0.416c1.651,0.021,3.298,0.371,4.944,0.606
		c0.463,0.066,1.22,1.586,1.184,2.242c-0.017,0.298-0.009,0.601,0.013,0.898c0.035,0.5-0.109,0.798-0.64,1.003
		c-0.464,0.18-0.796,0.694-1.259,0.889c-1.239,0.519-2.347,1.424-3.806,1.349c-0.294-0.015-0.599,0.097-0.896,0.163
		c-1.454,0.325-2.91,0.648-4.361,0.985c-0.566,0.133-1.15,0.014-1.577,0.754c-0.229,0.397-1.209,0.375-1.854,0.519
		c-2.323,0.518-4.646,1.028-6.97,1.537c-2.295,0.503-4.211,1.798-6.233,2.893c-1.285,0.695-2.733,1.084-4.087,1.661
		c-1.185,0.503-2.382,1.006-3.501,1.639c-1.272,0.718-2.434,1.636-3.703,2.361c-0.954,0.546-2.059,0.834-3,1.4
		c-1.229,0.739-2.366,1.638-3.541,2.472c-0.498,0.352-1.002,0.696-1.479,1.074c-1.948,1.543-3.905,3.077-5.825,4.656
		c-1.967,1.617-3.909,3.268-5.836,4.932c-1.132,0.977-2.234,1.991-3.32,3.02c-1.261,1.193-2.518,2.392-3.72,3.641
		c-0.742,0.77-1.28,1.762-2.089,2.44c-1.217,1.021-0.217,3.044-0.217,3.044c0.606,1.263,1.029,2.616,1.526,3.931
		c0.752,1.994,2.227,5.989,2.227,5.989c0.536,1.652,0.889,3.367,1.299,5.062c0.169,0.697,0.34,1.406,0.387,2.118
		c0.041,0.636-0.086,1.284-0.136,1.926c-0.043,0.549-0.104,1.097-0.116,1.644c-0.03,1.259,0.122,2.544-0.082,3.771
		c-0.351,2.101-1.576,3.796-2.992,5.339c-0.984,1.074-1.992,2.132-3.011,3.176c-0.167,0.172-0.44,0.257-0.677,0.343
		c-0.387,0.14-0.835,0.171-1.165,0.389c-0.528,0.35-0.971,0.826-1.467,1.227c-0.812,0.651-1.884,0.669-2.791,0.102
		c-0.145-0.089-0.375-0.023-0.551-0.079c-0.266-0.082-0.514-0.224-0.779-0.307c-0.313-0.099-0.642-0.23-0.951-0.204
		C237.757,99.84,234.821,99.217,233.415,98.722L233.415,98.722z M232.712,88.32c0.015,0.332,0.019,0.666,0.043,0.997
		c0.063,0.801,0.211,0.878,0.923,0.533c0.245-0.116,0.513-0.281,0.767-0.275c1.29,0.027,2.193-0.633,2.942-1.581
		c0.292-0.369,0.603-0.736,0.813-1.151c0.666-1.326,1.505-2.619,1.878-4.029c0.551-2.082,0.492-4.271,0.266-6.416
		c-0.115-1.083-0.43-2.149-0.714-3.206c-0.038-0.146-0.564-0.341-0.637-0.271c-0.496,0.472-1.024,0.951-1.365,1.532
		c-0.809,1.377-1.513,2.814-2.269,4.222C233.738,81.688,232.652,84.846,232.712,88.32L232.712,88.32z"/>
</g>
</svg>
