<?xml version="1.0" encoding="UTF-8"?>
<svg width="445px" height="147px" viewBox="0 0 445 147" version="1.1" xmlns="http://www.w3.org/2000/svg" xmlns:xlink="http://www.w3.org/1999/xlink">
    <!-- Generator: Sketch 52.6 (67491) - http://www.bohemiancoding.com/sketch -->
    <title>MISSFQ-logo</title>
    <desc>Created with Sketch.</desc>
    <g id="Page-1" stroke="none" stroke-width="1" fill="none" fill-rule="evenodd">
        <g id="MISSFQ-logo" transform="translate(0.000000, -1.000000)">
            <path d="M292.984,56.752 C292.606,56.808 292.176,56.979 291.779,57.25 C291.649,57.339 291.344,57.511 291.372,57.832 C291.37,57.8 291.372,112.347 291.372,112.623 L297.613,112.623 L297.613,113.78 L271.079,113.782 L271.094,112.623 L280.605,112.623 L281.068,112.623 L281.085,6.816 C281.085,6.816 281.097,6.256 280.807,6.042 C280.768,6.013 280.335,6.022 280.335,6.022 L271.578,6.022 L271.588,4.968 L318.947,4.968 L318.947,35.213 L317.815,35.193 C317.815,35.193 317.794,34.979 317.793,34.814 C317.649,24.767 315.81,16.76 312.169,10.232 C310.89,8.34 308.663,6.1 305.222,6.019 C304.814,6.028 303.977,6.024 303.977,6.024 L294.971,6.012 C294.971,6.012 292.782,6.009 292.312,6.007 C292.14,6.083 291.999,6.128 291.833,6.234 C291.632,6.364 291.574,6.409 291.465,6.611 C291.403,6.725 291.374,6.94 291.374,6.94 L291.374,54.472 C291.374,54.472 291.579,54.699 291.645,54.777 C291.687,54.826 291.759,54.936 291.806,54.98 C291.887,55.054 292.067,55.189 292.172,55.22 C295.693,56.247 298.716,56.024 301.761,51.401 C304.189,47.713 305.33,43.305 305.33,38.717 C305.33,38.734 305.33,34.539 305.33,34.539 L306.417,34.545 L306.417,80.448 L305.33,80.446 C305.33,80.446 305.314,78.912 305.33,78.067 C305.349,77.124 305.284,76.085 305.214,75.147 C304.559,67.779 302.401,61.841 298.974,57.968 L298.96,57.952 L298.943,57.939 C297.19,56.301 296.328,56.682 294.816,56.641 L292.984,56.752 Z" id="Path" fill="#000000"></path>
            <path d="M425.923,85.006 C422.642,91.641 418.434,96.486 413.126,101.723 L413.085,101.761 L413.035,101.787 L412.751,101.928 L412.49,102.058 L412.314,101.829 C412.314,101.829 410.617,99.637 410.615,99.636 L399.684,85.41 C395.207,85.115 389.631,85.157 386.989,85.2 C388.651,87.422 400.218,102.885 400.22,102.888 L403.543,107.413 L403.673,107.588 L403.574,107.781 C403.291,108.349 402.777,108.533 402.364,108.678 C402.256,108.717 402.151,108.754 402.068,108.789 C394.384,112.523 383.67,113.894 374.778,112.286 C365.691,110.891 357.234,106.257 350.318,98.882 C344.302,92.373 336.982,83.388 333.757,71.569 C332.127,64.48 332.05,56.331 333.544,49.21 C335.624,39.747 339.992,30.969 345.357,24.098 C351.604,16.098 357.304,10.251 366.22,7.182 C373.673,4.698 383.681,3.459 391.797,5.282 C406.556,8.597 417.203,17.192 425.346,31.015 C430.199,39.86 432.593,49.102 432.462,58.466 C432.852,69.171 429.172,78.273 425.923,85.006 Z M439.987,38.959 C436.43,30.64 430.936,23.56 423.181,17.31 C416.219,11.352 409.307,7.704 397.141,4.6 C397.141,4.6 394.551,3.837 390.984,3.26 C386.563,2.545 380.65,2.609 375.222,3.18 C364.006,4.345 354.402,7.515 346.668,12.601 C339.741,17.034 334.201,22.618 329.248,30.159 C323.12,40.755 320.439,50.334 320.81,60.315 C320.843,71.504 324.621,82.251 331.739,91.398 C338.114,99.589 346.885,106.088 356.449,109.704 C363.569,112.85 371.387,114.346 379.376,114.462 C389.606,114.608 398.384,113.719 406.196,111.316 L406.432,111.244 L406.58,111.44 L417.857,126.254 L430.771,126.254 L416.625,107.624 L416.609,107.603 L416.597,107.582 L416.242,106.946 L416.082,106.654 L416.362,106.473 C421.62,103.147 426.802,98.669 431.351,93.526 C437.312,86.909 441.678,77.402 443.638,66.765 C445.019,58.439 443.854,49.597 439.987,38.959 Z" id="Shape" fill="#000000" fill-rule="nonzero"></path>
            <path d="M133.288,142.566 C133.282,142.692 132.751,143.211 132.593,143.185 C132.335,143.938 132.177,144.673 131.836,145.314 C131.505,145.939 130.988,146.464 130.524,147.073 C129.34,146.155 128.849,145.096 128.832,143.874 C128.783,140.201 128.143,136.614 127.491,133.013 C126.952,130.041 126.665,127.02 126.28,124.02 C125.95,121.463 125.588,118.908 125.332,116.341 C125.01,113.115 124.789,109.878 124.511,106.646 C124.345,104.71 124.105,102.781 123.986,100.842 C123.852,98.659 123.844,96.469 123.73,94.285 C123.628,92.347 123.424,90.415 123.324,88.476 C123.222,86.515 123.227,84.547 123.118,82.586 C123.007,80.622 122.782,78.664 122.671,76.7 C122.612,75.629 122.708,74.55 122.692,73.474 C122.677,72.536 122.61,71.599 122.556,70.661 C122.442,68.695 122.314,66.728 122.207,64.76 C122.115,63.08 121.983,61.399 121.978,59.718 C121.971,57.337 122.09,54.958 122.104,52.579 C122.112,51.137 122.004,49.695 121.977,48.252 C121.924,45.282 121.878,42.312 121.854,39.342 C121.837,37.343 121.858,35.344 121.873,33.346 C121.884,31.717 121.946,30.088 121.92,28.462 C121.881,26.088 121.776,23.716 121.716,21.343 C121.698,20.622 121.778,19.899 121.742,19.18 C121.71,18.549 121.564,17.925 121.492,17.295 C121.39,16.396 121.4,15.473 121.196,14.599 C120.973,13.639 120.623,12.695 120.214,11.795 C119.91,11.125 119.362,9.429 119.398,9.139 L119.395,9 C118.927,8.261 118.431,7.538 117.999,6.778 C117.67,6.196 117.216,6.238 116.648,6.278 C114.233,6.445 112.304,7.709 110.402,9.009 C109.195,9.832 108.063,10.767 106.902,11.655 C106.396,12.043 105.911,12.459 105.397,12.834 C104.081,13.793 103.082,15.024 102.214,16.39 C100.622,18.896 98.966,21.361 97.387,23.876 C96.166,25.821 94.902,27.754 93.881,29.804 C93.108,31.355 92.74,33.102 92.095,34.723 C91.367,36.552 90.438,38.304 89.761,40.151 C88.558,43.432 87.388,46.729 86.373,50.072 C85.101,54.26 83.973,58.492 82.839,62.721 C82.373,64.46 82.068,66.241 81.667,67.998 C81.537,68.563 81.35,69.116 81.154,69.662 L80.783,69.811 C80.685,69.934 80.599,70.14 80.634,70.279 C80.69,70.503 80.977,70.721 80.947,70.906 C80.128,75.83 79.29,80.75 78.436,85.667 C78.148,87.326 77.81,88.977 77.491,90.631 C77.446,90.862 77.374,91.09 77.169,91.324 C77.081,90.995 76.993,90.666 76.905,90.336 L76.786,90.315 C76.676,90.948 76.579,91.584 76.453,92.214 C76.114,93.906 75.709,95.588 75.428,97.29 C75.09,99.341 74.905,101.417 74.546,103.464 C74.375,104.434 73.914,105.351 73.664,106.314 C73.506,106.921 73.411,107.571 73.432,108.197 C73.494,109.971 73.342,111.676 72.391,113.247 C71.87,114.108 71.541,115.094 70.957,115.903 C70.577,116.428 69.9,116.745 69.346,117.141 C69.009,117.381 68.655,117.598 68.305,117.823 L67.956,118.007 C66.817,117.123 66.517,118.714 65.702,118.773 C65.581,118.781 65.469,118.909 65.216,119.065 C64.915,118.157 64.722,117.256 64.327,116.455 C63.67,115.122 64.01,113.643 63.648,112.325 C62.598,108.513 62.476,104.596 62.072,100.715 C61.559,95.805 61.172,90.881 60.76,85.959 C60.563,83.615 60.387,81.268 60.286,78.92 C60.066,73.77 59.906,68.617 59.707,63.468 C59.61,60.952 59.448,58.439 59.377,55.923 C59.321,53.94 59.398,51.955 59.344,49.972 C59.306,48.565 59.148,47.163 59.045,45.758 C58.875,43.437 58.684,41.119 58.544,38.797 C58.391,36.249 58.326,33.694 58.143,31.148 C58.04,29.712 57.735,28.293 57.599,26.858 C57.468,25.451 57.461,24.034 57.351,22.626 C57.262,21.472 57.109,20.323 56.965,19.175 C56.944,19.009 56.818,18.858 56.741,18.699 C56.578,18.786 56.353,18.83 56.262,18.964 C55.726,19.756 55.249,20.59 54.698,21.371 C54,22.358 53.212,23.282 52.534,24.282 C52.06,24.98 51.754,25.794 51.286,26.497 C50.543,27.613 49.706,28.664 48.952,29.77 C48.536,30.382 48.201,31.052 47.84,31.7 C46.618,33.903 45.409,36.115 44.178,38.314 C43.759,39.061 43.251,39.76 42.851,40.517 C41.471,43.127 40.096,45.741 38.777,48.381 C38.447,49.041 38.381,49.829 38.109,50.523 C37.238,52.738 36.462,55.005 35.394,57.124 C34.283,59.33 33.682,61.688 32.854,63.979 C31.643,67.331 30.332,70.645 29.144,74.003 C28.369,76.196 27.565,78.404 27.114,80.674 C26.879,81.853 26.509,83.044 26.416,84.212 C26.167,87.372 24.878,90.169 23.814,93.061 C23.393,94.207 23.227,95.447 22.939,96.639 C22.887,96.854 22.8,97.061 22.744,97.275 C22.247,99.144 21.766,101.017 21.249,102.881 C21.095,103.44 20.874,103.985 20.626,104.509 C19.961,105.923 19.171,107.286 18.622,108.741 C18.324,109.529 18.123,110.343 17.625,111.039 C16.984,111.934 16.49,113.004 15.673,113.687 C13.912,115.158 11.978,116.167 9.518,115.11 C8.484,114.666 8.266,114.994 6.745,113.404 C5.224,111.812 5.113,109.355 4.5,108.465 C4.262,108.119 4.493,107.458 4.489,106.942 C4.481,105.667 4.499,104.39 4.439,103.119 C4.232,98.742 3.998,94.367 3.77,89.991 C3.642,87.524 3.493,85.056 3.373,82.591 C3.276,80.599 3.236,78.605 3.121,76.614 C2.935,73.404 2.695,70.197 2.5,66.99 C2.406,65.442 2.384,63.891 2.288,62.344 C2.199,60.911 2.016,59.483 1.948,58.05 C1.874,56.502 1.88,54.95 1.862,53.399 C1.845,52.016 1.867,50.633 1.829,49.251 C1.769,47.061 1.657,44.871 1.599,42.68 C1.539,40.415 1.493,38.149 1.486,35.885 C1.479,33.207 1.542,30.53 1.535,27.853 C1.529,25.416 1.484,22.979 1.43,20.542 C1.372,17.964 1.304,15.386 1.187,12.811 C1.17,12.445 0.904,12.057 0.669,11.741 C0.105,10.984 0.107,10.677 0.721,10.011 C0.841,9.882 0.866,9.631 0.87,9.436 C0.877,9.116 0.727,8.559 0.827,8.514 C1.414,8.252 1.824,7.459 2.673,7.886 C3.317,8.209 4.12,8.241 4.519,8.988 C4.569,9.083 4.763,9.139 4.893,9.146 C5.563,9.18 6.092,9.371 6.333,10.092 C6.378,10.229 6.893,10.375 6.933,10.322 C7.358,9.759 7.796,10.197 8.093,10.372 C8.913,10.853 9.624,11.525 10.456,11.981 C12.513,13.104 12.463,15.223 12.993,17.079 C13.113,17.498 13.369,17.89 13.43,18.313 C13.572,19.32 13.629,20.338 13.73,21.351 C13.803,22.092 13.905,22.83 13.969,23.572 C14.093,25.029 14.211,26.488 14.31,27.947 C14.462,30.202 14.598,32.457 14.738,34.712 C14.829,36.172 14.907,37.632 15.007,39.093 C15.156,41.251 15.337,43.408 15.473,45.566 C15.589,47.396 15.664,49.23 15.752,51.061 C15.869,53.499 15.998,55.936 16.092,58.375 C16.205,61.343 16.24,64.315 16.397,67.281 C16.525,69.717 16.812,72.142 16.971,74.578 C17.166,77.546 17.312,80.515 17.457,83.486 C17.561,85.613 17.619,87.742 17.721,89.869 C17.74,90.268 17.872,90.665 18.129,91.095 C18.316,90.674 18.537,90.264 18.685,89.829 C19.14,88.491 19.408,87.059 20.042,85.817 C21.048,83.842 21.271,81.665 21.954,79.612 C22.376,78.34 22.452,76.955 22.786,75.648 C23.059,74.578 23.378,73.495 23.862,72.509 C25.345,69.488 25.935,66.196 26.922,63.023 C27.685,60.569 28.794,58.223 29.744,55.826 C30.223,54.619 30.863,53.443 31.136,52.19 C31.98,48.297 33.294,44.62 35.545,41.305 C35.789,40.945 35.985,40.509 36.057,40.085 C36.461,37.687 37.75,35.72 38.994,33.708 C39.791,32.42 40.406,31.019 41.099,29.667 C41.2,29.469 41.252,29.245 41.368,29.059 C42.839,26.709 44.303,24.354 45.803,22.023 C46.115,21.537 46.575,21.149 46.95,20.704 C47.501,20.048 48.088,19.415 48.568,18.708 C49.616,17.171 50.851,15.836 52.501,14.951 C53.663,14.328 54.86,13.772 56.057,13.22 C57.09,12.745 57.992,13.435 58.94,13.643 C59.313,13.725 59.633,14.045 59.983,14.247 C60.413,14.497 60.854,14.724 61.278,14.982 C61.826,15.314 62.372,15.654 62.901,16.015 C63.088,16.144 63.226,16.347 63.386,16.516 C63.386,16.516 64.9,18.072 65.412,18.696 C66.238,19.705 66.667,20.785 66.9,22.031 C67.085,23.02 67.49,23.967 67.686,24.957 C68.055,26.823 68.373,28.701 68.654,30.583 C68.776,31.403 68.799,32.243 68.789,33.074 C68.768,34.951 69.348,36.715 69.68,38.53 C70.027,40.424 70.271,42.37 70.249,44.289 C70.222,46.667 70.536,48.979 70.858,51.314 C71.122,53.232 71.126,55.185 71.27,57.12 C71.373,58.508 71.518,59.892 71.645,61.279 L71.665,61.442 C70.884,63.279 72.007,64.998 71.998,66.793 C71.987,68.596 72.116,70.402 72.187,72.206 C72.214,72.929 72.249,73.652 72.279,74.376 L72.524,74.391 C72.599,73.997 72.668,73.602 72.749,73.208 C73.461,69.727 74.143,66.239 74.905,62.77 C75.202,61.42 75.743,60.126 76.066,58.781 C76.441,57.219 76.696,55.629 77.009,54.053 C77.225,52.966 77.365,51.855 77.686,50.8 C78.425,48.361 79.318,45.968 80.03,43.522 C80.902,40.523 82.155,37.684 83.365,34.819 C84.044,33.211 84.403,31.46 85.157,29.895 C86.202,27.726 87.462,25.659 88.671,23.572 C89.35,22.4 90.115,21.279 90.834,20.13 C91.862,18.487 92.892,16.844 93.905,15.192 C94.854,13.643 95.989,12.294 97.438,11.155 C98.536,10.294 99.347,9.071 100.427,8.181 C102.756,6.265 105.092,4.386 107.954,3.193 C109.943,2.365 111.962,1.741 114.037,1.266 C114.804,1.091 115.637,1.183 116.439,1.19 C117.009,1.197 116.677,0.843 118.155,1.259 C118.155,1.259 119.537,0.813 120.105,1.09 C121.869,1.949 123.743,2.467 124.869,4.216 C124.915,4.288 125.115,4.548 125.32,4.634 C125.284,4.293 127.121,6.1 128.036,7.303 C128.786,8.286 129.506,9.296 130.166,10.342 C130.384,10.69 130.336,11.195 130.466,11.611 C131.083,13.591 131.913,15.527 132.308,17.55 C132.96,20.882 133.853,24.188 133.703,27.652 C133.622,29.529 133.908,31.419 133.852,33.298 C133.805,34.786 134.12,36.189 134.402,37.615 C134.464,37.933 134.415,38.271 134.428,38.601 C134.516,40.946 134.636,43.292 134.685,45.637 C134.71,46.91 134.598,48.187 134.581,49.461 C134.572,50.012 134.673,50.562 134.674,51.115 C134.675,51.657 134.579,52.2 134.587,52.742 C134.625,55.053 134.675,57.364 134.743,59.675 C134.763,60.337 134.893,60.994 134.915,61.656 C134.985,63.719 135.042,65.782 135.071,67.845 C135.08,68.505 134.909,69.171 134.956,69.825 C135.057,71.191 135.294,72.548 135.391,73.915 C135.517,75.681 135.574,77.452 135.639,79.222 C135.726,81.578 135.769,83.934 135.874,86.288 C136.105,91.474 136.38,96.656 136.605,101.842 C136.755,105.307 137.08,108.788 136.892,112.238 C136.757,114.743 137.037,117.238 136.785,119.736 C136.688,120.709 136.935,121.715 137.028,122.708 C137.234,124.917 137.506,127.122 137.631,129.336 C137.796,132.264 137.874,135.199 137.936,138.133 C137.964,139.504 136.93,140.211 135.955,140.909 C135.474,141.254 134.974,141.576 134.473,141.891 C134.143,142.101 133.797,142.278 133.288,142.566 Z M78.664,80.656 L78.999,80.711 C79.205,79.267 79.411,77.823 79.617,76.378 L79.362,76.341 C79.129,77.778 78.896,79.217 78.664,80.656 Z" id="Shape" fill="#F0C1C9" fill-rule="nonzero"></path>
            <path d="M197.697,117.829 L197.457,117.649 C197.054,117.975 196.652,118.3 196.245,118.631 C195.565,117.747 194.772,117.714 193.496,118.83 C193.302,118.673 193.101,118.509 192.998,118.425 C191.717,118.814 190.541,119.279 189.32,119.487 C188.818,119.572 188.274,119.275 187.889,119.869 C187.854,119.924 187.462,119.843 187.327,119.723 C186.794,119.252 186.298,118.742 185.671,118.13 C185.879,117.873 186.249,117.484 186.543,117.046 C187.509,115.596 188.396,114.09 189.414,112.678 C190.449,111.243 191.612,109.903 192.701,108.508 C194.504,106.202 196.706,104.213 197.882,101.421 C198.816,99.202 199.545,96.933 199.86,94.566 C200.15,92.368 200.381,90.139 200.356,87.928 C200.321,84.866 200.231,81.777 199.037,78.869 C198.287,77.044 197.521,75.225 196.751,73.41 C196.336,72.429 195.939,71.436 195.457,70.49 C194.858,69.315 194.165,68.189 193.541,67.026 C192.995,66.009 192.435,64.992 191.98,63.932 C191.487,62.789 191.141,61.583 190.659,60.435 C190.515,60.09 190.132,59.847 189.859,59.556 C189.599,59.826 189.221,60.049 189.101,60.369 C188.643,61.588 187.875,62.557 187.062,63.563 C186.031,64.842 185.29,66.356 184.448,67.783 C183.674,69.096 182.913,70.419 182.186,71.758 C181.709,72.633 181.314,73.553 180.865,74.444 C180.091,75.973 179.246,77.468 178.538,79.029 C177.841,80.561 177.286,82.16 176.651,83.721 C176.045,85.21 175.41,86.686 174.797,88.173 C174.608,88.631 174.408,89.091 174.283,89.569 C174.006,90.615 173.617,91.575 173.064,92.535 C172.241,93.958 171.754,95.571 171.067,97.078 C170.837,97.587 170.388,97.993 170.119,98.489 C169.527,99.579 168.582,100.548 168.906,101.97 C169.051,102.615 168.206,103.703 167.559,103.772 L167.235,103.797 C166.501,104.795 165.212,104.185 164.315,104.817 C163.966,105.063 163.286,105.034 162.83,104.892 C161.379,104.449 159.708,104.424 158.573,103.339 C157.963,102.756 157.696,101.758 157.418,100.902 C157.166,100.12 157.106,99.276 156.963,98.46 C156.935,98.296 156.951,98.11 156.877,97.972 C155.11,94.743 154.482,91.196 153.989,87.616 C153.584,84.675 153.171,81.733 152.869,78.781 C152.675,76.878 152.645,74.955 152.598,73.039 C152.522,69.906 152.489,66.771 152.444,63.635 C152.412,61.497 152.345,59.358 152.378,57.221 C152.423,54.335 152.574,51.449 152.638,48.562 C152.715,45.117 152.757,41.673 152.796,38.229 C152.808,37.199 153.111,36.241 153.464,35.3 C153.583,34.982 153.864,34.803 154.231,35.196 C154.604,35.593 155.077,35.898 155.543,36.211 C155.892,36.501 156.239,36.797 156.592,37.082 L156.88,37.24 C157.514,38.067 158.121,38.916 158.768,39.734 C159.36,40.483 160.015,41.182 160.597,41.937 C160.855,42.273 160.924,42.775 161.217,43.061 C162.411,44.223 162.333,45.785 162.603,47.233 C162.915,48.913 163.172,50.603 163.471,52.285 C163.845,54.385 163.92,56.493 163.758,58.617 C163.726,59.022 163.759,59.472 163.906,59.844 C164.849,62.221 164.647,64.695 164.651,67.167 C164.654,69.126 164.735,71.082 165.136,73.034 C165.437,74.49 165.292,76.035 165.398,77.537 C165.458,78.414 165.66,79.282 165.73,80.158 C165.87,81.923 165.955,83.691 166.079,85.457 C166.154,86.537 166.269,87.615 166.343,88.696 C166.367,89.05 166.358,89.418 166.291,89.765 C166.139,90.551 166.122,90.552 166.752,91.355 L167,91.183 C167.745,89.429 168.464,87.663 169.218,85.912 C169.774,84.617 170.445,83.367 170.937,82.049 C171.772,79.819 172.489,77.552 173.645,75.445 C174.629,73.654 175.41,71.755 176.358,69.945 C177.009,68.705 177.813,67.545 178.516,66.331 C178.903,65.662 179.173,64.921 179.584,64.268 C180.523,62.772 181.532,61.322 182.482,59.833 C183.626,58.04 184.597,56.118 185.901,54.454 C187.063,52.971 187.135,51.669 186.511,49.95 C185.722,47.771 185.265,45.468 184.732,43.202 C184.491,42.177 184.329,41.119 184.278,40.069 C184.19,38.239 184.324,36.442 184.943,34.664 C185.608,32.755 186.038,30.767 186.605,28.822 C186.678,28.57 186.907,28.302 187.137,28.166 C188.277,27.496 189.436,26.858 190.602,26.235 C190.849,26.104 191.173,25.98 191.426,26.03 C191.867,26.117 191.777,26.042 192.52,25.737 L192.646,25.634 C194.541,25.37 196.582,24.778 198.209,26.079 C199.481,27.096 200.839,28.262 201.107,30.1 C201.131,30.264 201.126,30.472 201.222,30.581 C202.29,31.769 201.813,33.248 202.044,34.6 C202.322,36.228 201.448,37.536 201.188,38.993 C200.785,41.251 199.378,42.84 198.298,44.678 C197.487,46.055 196.924,47.584 196.326,49.075 C196.203,49.38 196.352,49.836 196.474,50.188 C197.077,51.933 197.795,53.644 198.313,55.412 C198.727,56.829 199.412,58.142 200.335,59.165 C201.458,60.408 201.72,61.951 202.447,63.316 C203.233,64.793 204.146,66.205 204.923,67.687 C205.587,68.954 206.121,70.288 206.738,71.58 C207.075,72.283 207.465,72.961 207.832,73.651 C208.298,74.534 208.825,75.39 209.221,76.303 C210.127,78.387 211.011,80.484 211.819,82.607 C212.148,83.472 212.278,84.418 212.462,85.333 C212.692,86.477 212.965,87.619 213.075,88.776 C213.269,90.836 213.357,92.908 213.483,94.974 C213.509,95.414 213.466,95.862 213.521,96.296 C213.755,98.158 212.639,99.686 212.29,101.403 C212.096,102.357 211.915,103.316 211.705,104.267 C211.271,106.246 210.812,108.251 209.715,109.957 C208.309,112.145 206.889,114.349 205.056,116.231 C204.941,116.348 204.853,116.493 204.758,116.627 C203.71,118.126 202.125,118.504 200.355,117.96 C199.732,117.768 198.897,118.092 198.212,118.328 C197.806,118.468 197.49,118.264 197.697,117.829 Z M192.999,41.893 C193.28,41.374 193.392,40.98 193.646,40.728 C194.885,39.501 195.513,37.958 196.027,36.343 C196.361,35.292 196.835,34.267 197.016,33.191 C197.179,32.224 197.042,31.205 197.008,30.211 C196.985,29.534 194.969,27.818 193.757,28.647 C192.545,29.475 191.762,30.178 191.885,30.854 C192.035,31.68 192.132,32.536 192.092,33.373 C192.012,35.022 191.235,36.7 192.429,38.264 C192.516,38.379 192.488,38.586 192.501,38.752 C192.567,39.549 192.616,40.349 192.698,41.145 C192.718,41.333 192.84,41.512 192.999,41.893 Z" id="Shape" fill="#F0C1C9" fill-rule="nonzero"></path>
            <path d="M158.753,30.825 C158.465,30.715 158.171,30.626 157.879,30.528 C157.895,30.828 157.912,31.128 157.929,31.45 C157.518,31.583 156.515,31.057 156.089,30.588 C155.283,29.697 154.425,28.849 153.544,28.03 C152.751,27.29 151.806,26.8 150.789,26.388 C150.386,26.224 150.028,25.589 149.944,25.116 C149.883,24.786 150.292,24.34 150.564,24.004 C150.648,23.901 150.97,23.99 151.198,23.99 L151.291,23.775 C151.057,22.432 151.783,21.702 153.065,22.234 C154.318,22.755 155.48,23.538 156.607,24.313 C157.576,24.98 158.476,25.76 159.336,26.565 C159.796,26.997 160.134,27.573 160.477,28.115 C160.707,28.478 160.833,28.905 161.03,29.292 C161.259,29.742 160.995,30.248 160.528,30.357 C160.079,30.462 159.655,30.677 159.22,30.844 C159.22,30.844 158.928,30.891 158.753,30.825 Z" id="Path" fill="#F0C1C9"></path>
            <path d="M228.415,99.722 C226.759,99.139 225.933,97.798 224.858,96.59 C223.952,95.57 223.509,94.368 223.013,93.22 C222.509,92.057 222.449,90.692 222.263,89.406 C222.146,88.59 222.217,87.746 222.09,86.932 C221.632,84.011 222.116,81.155 223.212,78.827 C223.835,77.504 224.199,76.06 224.803,74.725 C225.517,73.146 226.319,71.599 227.161,70.083 C228.162,68.287 229.239,66.535 230.304,64.777 C230.624,64.249 230.613,63.789 230.369,63.213 C228.763,59.413 227.155,55.609 225.636,51.773 C224.901,49.919 224.293,48.009 223.729,46.095 C222.812,42.983 222.025,39.841 222.516,36.545 C222.71,35.238 221.622,29.019 223.344,27.805 L223.461,27.694 C223.696,26.251 225.25,25.692 225.678,24.336 C225.883,23.687 226.497,23.167 226.935,22.595 L227.198,22.398 C227.863,22.092 228.555,21.837 229.187,21.477 C229.617,21.232 229.961,20.838 230.355,20.524 C230.519,20.393 230.708,20.212 230.894,20.201 C231.729,20.155 232.567,20.164 233.403,20.151 C234.673,20.131 235.426,20.943 236.154,21.819 C236.454,22.18 236.987,22.444 237.108,22.843 C237.588,24.433 237.946,26.061 238.342,27.676 L238.335,28.003 C237.791,29.086 238.037,30.23 238.282,31.278 C238.674,32.945 238.253,34.388 237.534,35.826 C237.471,35.949 237.379,36.085 237.386,36.211 C237.452,37.384 236.412,37.484 235.729,37.897 C235.354,38.124 234.651,37.44 234.549,36.916 C234.104,34.612 233.625,32.313 233.156,30.015 C233.055,29.527 232.982,29.027 232.814,28.561 C232.476,27.62 232.096,26.693 231.693,25.778 C231.621,25.618 231.284,25.413 231.172,25.461 C230.767,25.644 230.281,25.842 230.045,26.184 C229.399,27.125 228.827,28.125 228.291,29.135 C227.54,30.554 227.461,32.009 228.237,33.463 C228.34,33.653 228.919,36 229.402,36.829 C230.016,37.88 230.019,39.044 230.328,40.147 C230.58,41.042 230.737,41.966 231.02,42.851 C231.442,44.168 231.911,45.472 232.416,46.758 C232.591,47.2 232.953,47.564 233.2,47.981 C233.478,48.455 233.75,48.94 233.977,49.44 C234.388,50.343 234.74,51.274 235.168,52.169 C235.392,52.638 235.755,53.038 236.004,53.496 C236.41,54.243 236.808,55.001 237.151,55.779 C237.398,56.335 237.63,56.386 238.043,55.939 C239.007,54.893 239.963,53.835 240.978,52.84 C241.867,51.968 242.832,51.173 243.766,50.347 C244.469,49.726 245.164,49.096 245.881,48.492 C246.937,47.603 248.022,46.749 249.073,45.855 C251.373,43.901 253.62,41.888 255.961,39.986 C257.369,38.839 258.926,37.872 260.391,36.788 C261.275,36.134 262.059,35.334 262.981,34.741 C264.536,33.743 266.172,32.871 267.758,31.921 C268.707,31.353 269.649,30.77 270.555,30.138 C272.335,28.892 274.159,27.733 276.316,27.264 C278.224,26.85 279.891,25.92 281.528,24.925 C284.022,23.41 286.819,22.791 289.618,22.212 C292.442,21.627 295.276,21.067 298.128,20.643 C300.044,20.359 301.999,20.202 303.935,20.227 C305.586,20.248 307.233,20.598 308.879,20.833 C309.342,20.899 310.099,22.419 310.063,23.075 C310.046,23.373 310.054,23.676 310.076,23.973 C310.111,24.473 309.967,24.771 309.436,24.976 C308.972,25.156 308.64,25.67 308.177,25.865 C306.938,26.384 305.83,27.289 304.371,27.214 C304.077,27.199 303.772,27.311 303.475,27.377 C302.021,27.702 300.565,28.025 299.114,28.362 C298.548,28.495 297.964,28.376 297.537,29.116 C297.308,29.513 296.328,29.491 295.683,29.635 C293.36,30.153 291.037,30.663 288.713,31.172 C286.418,31.675 284.502,32.97 282.48,34.065 C281.195,34.76 279.747,35.149 278.393,35.726 C277.208,36.229 276.011,36.732 274.892,37.365 C273.62,38.083 272.458,39.001 271.189,39.726 C270.235,40.272 269.13,40.56 268.189,41.126 C266.96,41.865 265.823,42.764 264.648,43.598 C264.15,43.95 263.646,44.294 263.169,44.672 C261.221,46.215 259.264,47.749 257.344,49.328 C255.377,50.945 253.435,52.596 251.508,54.26 C250.376,55.237 249.274,56.251 248.188,57.28 C246.927,58.473 245.67,59.672 244.468,60.921 C243.726,61.691 243.188,62.683 242.379,63.361 C241.162,64.382 242.162,66.405 242.162,66.405 C242.768,67.668 243.191,69.021 243.688,70.336 C244.44,72.33 245.915,76.325 245.915,76.325 C246.451,77.977 246.804,79.692 247.214,81.387 C247.383,82.084 247.554,82.793 247.601,83.505 C247.642,84.141 247.515,84.789 247.465,85.431 C247.422,85.98 247.361,86.528 247.349,87.075 C247.319,88.334 247.471,89.619 247.267,90.846 C246.916,92.947 245.691,94.642 244.275,96.185 C243.291,97.259 242.283,98.317 241.264,99.361 C241.097,99.533 240.824,99.618 240.587,99.704 C240.2,99.844 239.752,99.875 239.422,100.093 C238.894,100.443 238.451,100.919 237.955,101.32 C237.143,101.971 236.071,101.989 235.164,101.422 C235.019,101.333 234.789,101.399 234.613,101.343 C234.347,101.261 234.099,101.119 233.834,101.036 C233.521,100.937 233.192,100.806 232.883,100.832 C232.757,100.84 229.821,100.217 228.415,99.722 Z M227.712,89.32 C227.727,89.652 227.731,89.986 227.755,90.317 C227.818,91.118 227.966,91.195 228.678,90.85 C228.923,90.734 229.191,90.569 229.445,90.575 C230.735,90.602 231.638,89.942 232.387,88.994 C232.679,88.625 232.99,88.258 233.2,87.843 C233.866,86.517 234.705,85.224 235.078,83.814 C235.629,81.732 235.57,79.543 235.344,77.398 C235.229,76.315 234.914,75.249 234.63,74.192 C234.592,74.046 234.066,73.851 233.993,73.921 C233.497,74.393 232.969,74.872 232.628,75.453 C231.819,76.83 231.115,78.267 230.359,79.675 C228.738,82.688 227.652,85.846 227.712,89.32 Z" id="Shape" fill="#F0C1C9" fill-rule="nonzero"></path>
        </g>
    </g>
</svg>