<?xml version="1.0" standalone="no"?>
<!DOCTYPE svg PUBLIC "-//W3C//DTD SVG 20010904//EN"
 "http://www.w3.org/TR/2001/REC-SVG-20010904/DTD/svg10.dtd">
<svg version="1.0" xmlns="http://www.w3.org/2000/svg"
 width="500.000000pt" height="123.000000pt" viewBox="0 0 500.000000 123.000000"
 preserveAspectRatio="xMidYMid meet">

<g transform="translate(0.000000,123.000000) scale(0.100000,-0.100000)"
fill="#000000" stroke="none">
<path d="M0 848 l0 -386 116 -102 c63 -56 117 -100 119 -98 2 2 5 95 6 207 l1
202 87 -83 c47 -46 204 -197 348 -336 143 -138 264 -252 267 -252 3 0 5 271 3
602 l-2 603 -117 3 -118 3 0 -327 c0 -182 -4 -324 -9 -322 -5 2 -123 113 -262
248 -140 135 -296 285 -346 334 l-93 90 0 -386z"/>
<path d="M3130 615 c0 -403 3 -615 10 -615 7 0 10 212 10 615 0 403 -3 615
-10 615 -7 0 -10 -212 -10 -615z"/>
<path d="M3960 615 l0 -615 30 0 30 0 0 615 0 615 -30 0 -30 0 0 -615z"/>
<path d="M1473 1195 c-162 -44 -297 -154 -377 -308 -94 -180 -85 -428 22 -593
174 -268 501 -358 782 -217 141 71 265 225 305 379 24 94 20 247 -10 343 -59
186 -226 346 -415 396 -69 19 -238 18 -307 0z m273 -325 c121 -52 196 -190
173 -317 -28 -147 -144 -245 -292 -245 -255 0 -387 311 -209 495 85 89 215
115 328 67z"/>
<path d="M2187 1203 c-4 -3 -7 -60 -7 -125 l0 -118 170 0 170 0 2 -467 3 -468
118 -3 117 -3 0 471 0 470 160 0 160 0 0 125 0 125 -443 0 c-244 0 -447 -3
-450 -7z"/>
<path d="M3200 615 l0 -595 355 0 355 0 0 120 0 120 -237 0 -236 0 21 23 c18
19 22 35 22 92 0 57 -4 73 -22 92 l-21 23 176 0 177 0 0 120 0 120 -175 0
c-96 0 -175 3 -175 8 0 4 9 13 20 20 17 10 20 23 20 92 0 69 -3 82 -20 92 -11
7 -20 16 -20 20 0 5 106 8 235 8 l235 0 0 120 0 120 -355 0 -355 0 0 -595z
m270 235 c0 -48 -4 -71 -15 -80 -13 -11 -15 -1 -15 80 0 81 2 91 15 80 11 -9
15 -32 15 -80z m0 -469 c0 -44 -5 -74 -15 -87 -13 -17 -14 -9 -15 80 0 86 2
97 15 86 11 -9 15 -32 15 -79z"/>
<path d="M4204 1079 l129 -134 65 -8 c123 -14 201 -63 253 -159 32 -60 34 -68
34 -163 0 -89 -3 -106 -28 -157 -50 -102 -135 -156 -263 -165 l-75 -6 1 317 1
317 -125 132 -125 132 -1 -583 0 -584 213 4 c199 4 216 6 287 31 87 31 195
102 246 161 110 127 161 324 130 507 -39 228 -167 379 -393 461 -50 18 -88 21
-268 26 l-209 4 128 -133z"/>
<path d="M256 610 c13 -41 16 -330 4 -330 -5 0 -10 -4 -10 -10 0 -5 7 -10 15
-10 22 0 21 313 -1 350 l-15 25 7 -25z"/>
<path d="M0 226 l0 -206 109 0 c60 0 123 3 140 6 l31 7 0 93 c0 84 -2 93 -17
87 -11 -4 -12 -8 -5 -11 8 -2 12 -30 12 -83 0 -64 -3 -79 -15 -79 -12 0 -15
17 -15 89 l0 90 -120 106 -120 106 0 -205z"/>
</g>
</svg>
