<?xml version="1.0" encoding="UTF-8"?>
<svg width="569px" height="62px" viewBox="0 0 569 62" version="1.1" xmlns="http://www.w3.org/2000/svg" xmlns:xlink="http://www.w3.org/1999/xlink">
    <!-- Generator: Sketch 39.1 (31720) - http://www.bohemiancoding.com/sketch -->
    <title>nowTOLOVE_newcolour_horizontal</title>
    <desc>Created with Sketch.</desc>
    <defs></defs>
    <g id="Page-1" stroke="none" stroke-width="1" fill="none" fill-rule="evenodd">
        <g id="nowTOLOVE_newcolour_horizontal">
            <g id="Group">
                <g transform="translate(283.000000, 18.000000)" id="Shape" fill="#000000">
                    <polygon points="14.6 43.1 14.6 3.2 0.5 3.2 0.5 1.3 30.7 1.3 30.7 3.2 16.6 3.2 16.6 43.1"></polygon>
                    <path d="M41.6,22.3 C41.6,10.2 49.3,0.7 61.4,0.7 C73.5,0.7 81.2,10.2 81.2,22.3 C81.2,34.4 73.4,43.9 61.4,43.9 C49.3,43.9 41.6,34.4 41.6,22.3 L41.6,22.3 Z M79.1,22.3 C79.1,10.9 72.2,2.6 61.5,2.6 C50.7,2.6 43.9,10.9 43.9,22.3 C43.9,33.6 50.7,42 61.5,42 C72.1,42 79.1,33.6 79.1,22.3 L79.1,22.3 Z"></path>
                    <polygon points="122.1 43.1 122.1 1.4 124.1 1.4 124.1 41.3 145.1 41.3 145.1 43.2 122.1 43.2"></polygon>
                    <path d="M156.8,22.3 C156.8,10.2 164.5,0.7 176.6,0.7 C188.7,0.7 196.4,10.2 196.4,22.3 C196.4,34.4 188.6,43.9 176.6,43.9 C164.5,43.9 156.8,34.4 156.8,22.3 L156.8,22.3 Z M194.3,22.3 C194.3,10.9 187.4,2.6 176.7,2.6 C165.9,2.6 159.1,10.9 159.1,22.3 C159.1,33.6 165.9,42 176.7,42 C187.4,42 194.3,33.6 194.3,22.3 L194.3,22.3 Z"></path>
                    <polygon points="225.5 43.1 208.1 1.4 210.4 1.4 226.7 40.8 243 1.4 245.3 1.4 227.9 43.1"></polygon>
                    <polygon points="259.6 43.1 259.6 1.4 285.1 1.4 285.1 3.3 261.6 3.3 261.6 20.8 284.7 20.8 284.7 22.7 261.6 22.7 261.6 41.3 285.1 41.3 285.1 43.2 259.6 43.2"></polygon>
                </g>
                <path d="M193.1,60.1 L209.7,24 L227.1,60.1 L239.5,60.1 L255.7,22.5 C258,17.1 259.8,13.6 261.2,12.1 C262.6,10.6 264.5,9.8 267.1,9.8 L267.1,2.5 L242.1,2.5 L242.1,9.8 C247.5,9.8 250.3,11 250.3,13.4 C250.3,14.1 250,15.1 249.5,16.4 L240.4,38.7 L223.3,2.5 L211.3,2.5 L194.5,38.7 L185.5,17.5 C184.5,15 184,13.3 184,12.5 C184,10.8 186.4,9.9 191.2,9.9 L191.2,2.6 L152.6,2.6 L152.6,9.9 C155,9.9 156.8,10.4 158,11.3 C159.2,12.2 160.8,14.9 162.7,19.3 L180.8,60.3 L193.1,60.3 L193.1,60.1 Z M111,11.9 C113.2,9.3 115.8,7.9 118.8,7.9 C122.6,7.9 125.5,9.5 127.2,12.6 C129,15.7 129.9,21.6 129.9,30.4 C129.9,40 128.9,46.3 126.9,49.2 C124.9,52.1 122.2,53.6 118.9,53.6 C114.8,53.6 111.9,51.8 110.2,48.3 C108.5,44.8 107.7,38.6 107.7,29.8 C107.8,20.5 108.8,14.5 111,11.9 L111,11.9 Z M94,53.2 C100.9,58.5 109.1,61.1 118.7,61.1 C128.5,61.1 136.8,58.3 143.7,52.8 C150.6,47.3 154,39.8 154,30.5 C154,20.7 150.5,13.1 143.5,7.9 C136.5,2.7 128.2,0.1 118.7,0.1 C109,0.1 100.7,2.8 93.9,8.2 C87.1,13.6 83.6,21 83.6,30.5 C83.6,40.4 87.1,48 94,53.2 L94,53.2 Z M38.9,14 C41,12.7 43,12 44.9,12 C46.9,12 48.4,12.7 49.4,14.1 C50.5,15.5 51,18.1 51,21.8 L51,42.5 C51,46.4 50.3,48.9 49,49.9 C47.7,50.9 46,51.5 44,51.6 L44,58.9 L83.2,58.9 L83.2,51.6 C79.4,51.6 76.9,51 75.7,49.7 C74.6,48.4 74,46 74,42.6 L74,20.2 C74,14 72.1,9.1 68.4,5.5 C64.6,1.9 59.5,0.2 52.9,0.2 C49.2,0.2 45.7,1 42.3,2.6 C38.9,4.2 35.7,6.7 32.6,10 C32.5,6.3 32,3.5 31.2,1.7 L1.42108547e-14,6.7 L1.42108547e-14,14 C4.1,14 6.7,14.7 7.8,16 C8.9,17.3 9.5,19.7 9.5,23.2 L9.5,42.5 C9.5,46 8.9,48.4 7.8,49.6 C6.7,50.9 4.1,51.5 1.42108547e-14,51.5 L1.42108547e-14,58.8 L39.4,58.8 L39.4,51.5 C36.9,51.5 35.1,50.7 34.1,49.4 C33.1,48 32.6,45.7 32.6,42.5 L32.6,20.1 C34.7,17.4 36.8,15.4 38.9,14 L38.9,14 Z" id="Shape" fill="#41C1CA"></path>
            </g>
        </g>
    </g>
</svg>