<svg xmlns="http://www.w3.org/2000/svg" width="159" height="159"><path fill="#E32185" d="M0 0h159v159H0z"/><path fill="#DC0F82" d="M90.5 104.47c2.38-1 4.98-3.4 7.78-5.4 2.8-1.8 6.4-3.2 7.2-5.8-1.8-2.58-3.8.2-5.4 1.2-1.4 1-4 2.4-6.2 3.8-1.4 1-6 3.4-6 4.6 0 .8 1.4 2.2 2.6 1.6zm7.58-38.15c-1.2-3.2-4.4-.8-6.8.2-3.4 1.4-7.4 2.2-5.4 5.6 4-1 8.6-2.8 12.2-5.8zm-3.4 47.74c1.4.4 13.2 4 12.8.6-.2-1.8-5.4-2.4-6.6-2.6-3.6-1-7.2-1.6-10.6-2.8-3.4 2.6 1 3.8 4.4 4.8zm7.2-58.13c-3.6-1.2-10-4.4-13.6-4.8-.6 1.2-.2 2 0 3 1.8 1.2 4.4 1.2 7 2.2 1.8.8 7.6 4.2 8.8 2.6 1.4-1.6-1.2-2.8-2.2-3zm-5-19.98c-2.4.4-4.6 2.2-7 3.4-2.4 1.2-5 2.2-7.18 3.8-.6.8-.2 3.6 1.2 3 3.8-2 10.18-5.4 13.38-7.4 0-.8.6-2.8-.4-2.8zm-4.8 44.15c.2 1.6 5.6 3.2 7.6 4.4 4 2 8.6 5.6 10.38 1.4-3-1.8-8.2-4-11.78-6-1.8-.8-6.6-3.4-6.2.2zm-26.36-9.8c0-.6 0-1.4-.6-1.8 0 0-.2-.2-.4-.2-.8-.2-1.2.6-1.4 1.4-.6 1-.6 2.2-.8 3.2-.2 1.4-.4 2.6-.4 4.2 0 1 0 1.8 0 2.8.2 1 2 .8 2.4 0 .8-1 .4-2.8.6-4.2.2-1.8.6-3.6.6-5.4zm-6.6 31.37c1.2 2.8 3.4-1.8 3.8-2.6 2-3.6 4-6.6 5.4-9.78-.6-.8-1.2-1-2-1-1.8 2.8-3 5.58-4.8 8.58-.6 1.2-2.8 3.8-2.4 4.8zm16.2-33.56c1.78-.38 4.98-12.57 4.98-12.77 0-1.2-1-1.8-2-2-1.4 1.8-1.6 4-2.4 6.6-.6 2-2.8 4.8-2.6 6.6.2.4 1 1.58 2 1.58zm-11.8 45.16c4-2.4 10.4-5.4 13.18-8.8-.6-3.58-3.4-1-5.4.2-1.4.8-2.8 1.6-3.78 2.4-2.8 1.6-7.8 3.6-6.4 6.2 1 .8 1.8.4 2.4 0zM84.7 94.88c-.8-3.6-3.6-6-5.2-9-1.8-2.98-2.8-6.18-5.2-8.98-4.4 0-1.2 3.8-.2 5.8 2 3.4 3.2 5.6 5.2 8.8 1.4 1.98 2.8 5.58 5.4 3.38zM24.96 47.14c2.6-1.2-.8-5.2-1.8-6.2-1.4-1.6-3.6-3.2-4.6-4.6-1.2-1.8-2.6-4.98-4.2-4.78-.6 0-1.4 1.2-1.4 2.2 0 .6 1.8 3 2.4 3.8 1 1.4 3 3.2 4.6 4.98 1.2 1.4 3.6 5.2 5 4.6zM9.57 80.9c3.6 1.6 6 2.8 9 4.2 2.6-4.2-3.8-5-6.8-6.6-1.2-.6-6.18-3.8-7.38-3.4-.6.4-.8 1.8-.4 2.6.6 1.2 4 2.4 5.58 3.2zm-.4-14.2C7.2 65.53 3.2 63.94 0 62.54v3.8c1 .4 2 .8 3 1.2 3 1.4 5.8 2.8 6.18-.8zm9.8 34.57c1.6-1.6 2.6-3.6 4-5.2 1-1 2.4-2 3-3.18.4-1.02 0-2.4-1.2-2.2-1.2.2-2.6 2-3.4 2.78-1.8 1.8-5.2 4.6-6 7.2 0 .4 0 .6 0 .8.2 1.4 2.6.8 3.6-.2zm17.18-9.98c-3.8 2.98 2.8 4.18 6.4 5.38 2 .6 4 2 6.2 2.4 1 .2 2.98-.4 3.18-1.4.4-1.4-1.8-1.8-2.6-2.2-4.4-1.2-8.78-2.8-13.18-4.2zm70.72-19.8c2.2-1.2 4-3.4 6.2-6.18 1.8-2.2 7.58-7.6 3-9.2-3.6 4.6-7.2 9-10.8 13.2.2 1 .6 1.8 1.6 2.2zM71.7 15c5.2 2.6 10.2 5 15.6 7.2 1-.2 1.4-1.6 1-2.6-5.4-2.2-10.4-5.6-16-7.2-.4.6-.8 1.8-.6 2.6zm18.8-9.4c-2.6 2.4-6 4.6-3 6.8 3.4-2.2 6.98-5.6 8.98-9.8-2.2-2.4-4 1-6 3zm11.77 8.6c-.8 0-1.8 2.2-2.4 3.2-1.8 2.4-3.2 4.4-5 6.8-1.4 1.98-3.38 4.18-1.2 6.18.2 0 .4 0 .6 0 1.6-1.6 2.8-4.4 5.2-7.4 1-1.6 4.6-4.8 4.6-6.78 0-1-.8-2.2-1.8-2zm-48.94 75.9c.8.8 2-.4 1.8-1.4-.2-1.4-1.6-2.4-2.4-3.6-1-1.38-1.8-2.98-3-4.38-.4-.6-1-1.2-1.6-1-.2 0-.2 0-.4.2-.8.2-.6 1.2-.4 1.8.4 1.2 1 2.2 1.6 3 .8 1 1.6 2.2 2.6 3.6.6.6 1 1.2 1.8 1.8zM69.7 41.56c.2 1 1.2 1.6 2 1.4.4 0 .4 0 .4-.2 2-1.8 3.4-4.2 5.6-7.6 1.4-2.2 5-5.6 5-8-.2-1-1-1.8-2-1.8-.6.2-2 2.8-2.8 4-2 2.8-3.6 5.2-5.6 7.8-.8 1.4-2.8 2.8-2.6 4.4zM54.14 61.31c0 .8-.4 1.8.4 2.6 3.8-.8 7.8-4.4 10.8-6.6 2.98-2 6.18-2.8 3.58-5.4-4.78 2.4-9.78 6.2-14.77 9.4zm74.1-1.8c1.4 3.2 2.2 7.2 5.4 5.2-1-4-2.6-8.6-5.8-12-2.98 1.2-.6 4.2.4 6.8zm-15.77 37.16c-.2 1.8 4 5 5.4 6.2 1.8 1.8 4.8 5.6 6.4 5.4 3.58-.8.4-3.4-1-4.8-2-2-4-3.6-5.6-5.6-.8-.8-2-2.6-3-2.8-1.2 0-2.2 1.2-2.2 1.6zm35.96.4c.6.4 2.6 2 3 1.8 1 0 1.4-1 1.2-2-.2-1-2-2.2-3-3-2.6-2-4.6-3.4-7-5.6-1.6-1.2-3.2-3.8-4.8-2.2-.4.6-.2 1.6.4 2.6 2.4 2 3.6 3.2 7 5.8.8.8 2.2 1.8 3.2 2.6zm-30.77-80.7c.8.6 2 1 2.8 0 .4-.6.2-1.6-.2-2-1.2-1.4-2.2-2.8-3.4-4.2-.8-.8-2.6-3.6-3.4-4.6-.4-.4-.6-.8-1-.8-.6 0-1 .2-1.4.6-.2.2-.4.4-.6.4 0 .2-.2.4-.2.6 0 .6 1.8 2.8 2.2 3.4s1 1.4 1.4 2c1.4 1.4 2.4 3.2 3.8 4.6zm19.38 95.48c2-1.8 3-4.4 4.6-6.6 1-1.4 3.6-4.98.6-5.38-1.8 0-3.4 2.8-4.2 4-1.4 2-2.6 3.6-3.8 5.58-1 1.8-1.4 3.2-.4 3.4 1 .2 2.2 0 3.2-1zm-19.38 3.6c5 2.6 9.8 4 14.8 6.2 1.6-.2 1.78-2.4.6-3-6.8-3.4-12.2-5.2-15.2-6-1.4-.2-1.4 2.2-.2 2.8zm1-28.57c4 1.6 8 3.8 11.4 4.98 1 .4 1.6-1.6 1.2-2.8-4.8-2.4-9.4-4.78-14.6-6.58-2.6 2 .2 3.6 2 4.4zm6.2 53.73c-1.2.6-1.8 2.4-2.6 3.4-1.2 1.4-2.4 2.8-3.4 4.2-.4.6-.8 1.18-.6 1.78.2.22.2.4.4.4.6.6 1.4.2 2-.18.8-.6 1.6-1.6 2.2-2.6.8-1 1.6-2 2.6-3.4.6-.8 1-1.2 1.4-2.2.4-1-1.2-1.8-2-1.4zm3.6-14.4c-1.2-.6-3.8.4-4.8.6-2.4.4-4.6.8-7 1.6-.6.2-2.6.8-3.2 1.6-.2.4-.2 1 .6 1.6.8.8 2.6 0 3.8-.2 2.6-.4 5.2-1.2 8-1.8.8-.2 2.2-.2 3-.8.8-.8.6-2.2-.4-2.6zm-75.72-17.17c1-.8 1.2-2-.2-2.6-1-.4-3 .8-4 1.2-2.6.8-6.8 2-8.58 3.8-.2.4-.4.6-.4.8-.4 1.4 2 1.8 3.4 1.4 2-.8 3.8-2.2 5.8-3 1.2-.6 2.98-.6 3.98-1.6zm-8 42.95c4.2 1.8 2.6-5.78 2.6-8.58-.2-3.6.6-6.2-.4-8.6-3.6-.18-2.4 2.8-2.4 4.8-.2 4-.6 9.2.2 12.4zm68.53-123.64c3.6 2 6.8 4 10.6 4.8.8-.2.6-2 .4-2.8-3.6-1.6-6.2-3.2-9.4-4.8-2.2-1-4.4-2.6-6.8-2.6-1.6 3 3 4.2 5.2 5.4zm35.96 11c-.8-.4-1.8 0-2.6.4-1.8.8-3.4 1.78-5.2 2.58-1.4.8-7.78 2.8-7.98 4.2-.2 1 1.2 2.4 2.2 2 2.8-1 5.4-2 8.18-3.2 1.2-.6 2.6-1.2 3.8-2 .8-.4 1.8-1 2.4-1.8 0-.2.2-.4.2-.6 0-.6-.2-1.2-1-1.6zm-2.2-27.98c-.6-.4-1.2-.4-1.8-.4-1.8 0-3.4 0-5.2 0-2.8 0-5.58-.2-8.18 0-.8 0-2 0-2.4.8-.4.4-.2 1.4 0 2 .2 0 .4.2.4.2.6.4 1.6.2 2.2.2.8 0 1.4 0 2.2 0 3.2.2 6.4.2 9.58 0 1.2 0 3.2.6 3.6-1 .4-.6.2-1.4-.4-1.8zm-16.98 24.37c.8.4 1.6-.2 2-.8.8-1.6 1.8-3 2.6-4.4.6-1.2 2.6-3.8 3.2-5 .4-.4.6-.78.6-1.18-.2-.6-.8-.8-1.2-1.2-.2 0-.4-.2-.6-.2s-.4 0-.6 0c-.4.2-2 2.6-2.4 3.2s-1 1.4-1.4 2c-1 1.8-2.2 3.4-3 5.18-.4 1-.4 2.2.8 2.4zm-9.6 40.16c.6 1.6 3.8.8 5 1 1 .2 1.8.6 3 .8 3 .4 7 .2 9.4.4 1.2-.4 1.4-2.4 1.2-3.4-3.6-.6-6.4-.2-10.6-.4-2.6-.2-8.8-1.4-8 1.6zM31.57 63.33c2.8-1 9-2.2 8.2-5.6-1.6-.4-3.2.6-4.6 1.4-1.6.6-3.2 1-5 1.6-2.6 1-7.8 2.4-7.8 6 .4 0 .6.2.8.2 2.2-1.2 5-2.6 8.4-3.6zm115.26-39.35c-.8-.6-2-1-2.6 0-.6.6-.2 1.6.2 2 1 1.4 2 2.8 3.2 4.2.8 1 2.6 3.6 3.4 4.78.2.4.4.8 1 .8s1-.4 1.4-.6c.2-.2.4-.4.6-.6 0 0 0-.2 0-.4 0-.6-1.6-3-2-3.4-.4-.8-1-1.4-1.4-2-1.4-1.6-2.4-3.4-3.8-4.78zm4.8 23.57c.2.2 1 1.4 1.8 1 1.4-.6 3.4-1.4 5.6-2.2v-3.4c-.02 0-.02 0-.2 0-2 .8-8 1.8-7.2 4.6zm.2-25.57c2.6 1.2 4.8 2.4 7.18 3.8v-3.6c-2-1.4-4-2.6-6.8-2.8-.4.4-.6 1.8-.4 2.6zm1.4 50.34c-2.2-2.2-4.6-4.8-7-6.98-.8-.8-2.6-2.6-3.8-1.6-1.4 1.4 1.4 3.4 2.2 4.2 2 2.2 3.8 4 6 6.4.8.8 1.6 2.38 2.8 2.78.8.2 1.6-.2 2-.8.2-.4.2-.8 0-1.2-.4-1-1.4-1.8-2.2-2.8zm-11.6-13.97c4.2-.2 9.2-1 13-3.4-.6-3.2-4-1.4-6.6-.8-3.6.6-7.6.8-6.4 4.2zM159 89.7v-4c-.8-.4-1.4-.8-2.2-1.2-1.8-.8-3.2-2-4.8-2-2.18 2.2.8 3.8 2.8 5 1.4.6 2.8 1.4 4.2 2.2zm-52.73-44.76c5.2.2 10 2 15.18 1.2 1.6-4-2.2-2.8-5.6-3-2.4-.2-6.98-1.6-9.58-1.2-.8.6-.6 2 0 3zM159 62.52c-.6-.4-1-.6-1.6-.8-1.8-.8-4.6-2.4-4.8 1 1 1.2 3.8 2.4 6.4 3.6v-3.8zM100.48 1.6c-.4 1.2-1.4 3.6-.6 4.4 2.4 2.58 3.6-2.8 3.8-4 .2-.6.4-1.4.6-2h-3.6c0 .6-.2 1-.2 1.6zm42.14 3c.4.8.6 1 1.2 1 .8 0 2.2-1.4 2.8-2.2.8-1.2 1.6-2.2 2.4-3.4h-4.4c-.8 1.2-2.4 3.4-2 4.6zm-19.17-3.2c1.2.4 2.6 1.2 3.8 1.8 1.6.8 6 3.2 6 0-.2-1-1.8-1.6-2.8-2.2-.8-.4-1.4-.6-2-1h-8.2c1 .4 2.2.8 3.2 1.4zm-50.14.4c-.4.8-.2 1.2.2 1.4.8.6 2.6.2 3.6 0 2-.4 3.8-1.2 5.6-1.8.8-.2 2.4-.8 3.8-1.4H75.9c-1.2.4-2.4 1-2.6 1.8zM11.8.4c.8 3.2 1.2 8.58 5 7-.4-2.2-1.2-4.6-2-7.4h-3.2s.2.2.2.4zm15.98 7.2c2.2-.4 3-2.2 4.4-3.6 1.2-1.4 2.6-2.8 3.8-4h-4.4c-2.4 2.2-6.4 5.6-3.8 7.6zm78.7 129.23c1 1.8 2.2 3.6 3.4 5.2.8.8 1.4 1.8 2.2 2.4.2 0 .4.2.6.2.8 0 1.4-1.2 1.4-2 .2-1-.8-1.6-1.4-2.4-1.8-2.4-3.2-5-4.8-7.6-.8-1-1.6-2.8-2.6-3.6-.8-.4-2 .6-2.2 1.4-.2.6.4 1.4.8 2 .8 1.4 1.6 3 2.6 4.4zM135.04 152c1.8-.4 8.2-.98 8.2-2.38-.2-3-5.2-1.4-7.2-1-1.2.2-2.6.2-3.6.6-1.6.2-5.2.6-4.4 3 .6 1.8 5.4 0 7-.2zm13.6-8.58c1 .4 1.78-.4 1.78-1.6 0 0 0-.2-.18-.2 0-.6-.6-.8-.8-1-1-.8-2-1.6-3-2.2-2-1.6-4-3.2-6.2-4.58-1.4-1-6-3.8-6.18-.6 0 1 2.2 2 3.4 2.8 2.6 2 4.8 3.2 7.58 5.2 1 .78 2.2 1.98 3.6 2.18zM157.6 8.6c.4.2 1 .38 1.4.6V5.4c-2.8-1-5.6-2-8.4-2.6-2.98 3.6 3.2 4.4 7 5.8zm-6.38 124.84c1 0 2-.2 2-1.4.2-1.4-.8-2.8-1.2-4.2-1-2.6-1.8-5.2-2.6-8-.4-1.18-.6-2.58-1.2-3.78-.2-.2-.4-.4-.6-.4-.8-.2-1.8.2-2.2.8-.6.6-.4 1.2 0 2.2.6 1.8 1.4 3.8 2 6.4.6 2 1.4 3.78 2.2 6.38.4.8.6 2 1.6 2zm7.78-25.57c-1 .4-2 .6-3.2 1-2.2.6-6.18 2.2-3 4.6 2.2-.6 4-1.2 6.2-2v-3.6zM56.73 3.6c1.4 1.4 4.8 6.38 6.8 5.78 3-1-.4-3.8-1.6-5.2-1.2-1-2.2-2.4-3.2-3.4-.2-.2-.6-.6-.8-.8h-5.2c1.2 1.2 3 2.6 4 3.6zM88.1 156.8c-1.4-2.4-8.2.8-9.8 1.4-.6.2-1.4.4-2.4.8h10.6c1.2-.6 2-1.4 1.6-2.2zM0 9.2c2.8 1 4.8 2.2 6.4 2.6 2.4.6 3.98-.6 3.18-2.4-3.2-1.2-6.4-2.6-9.6-4v3.8zm105.87 138.44c-3.2-1.4-3 1.8-3.4 4.4-.6 2.2-1.2 4.8-1.8 7h3.6c1-4 1.8-7.8 1.6-11.4zm53.13-5.8c-1.8 1.6-3.8 3-4.8 5.2 0 .8 1.4 1.6 2.2 1.6.8-.6 1.8-1.4 2.6-2.2v-4.6zm-8.98 15.6c.6-1 3.8-5.2 2-6-2.6-1.2-6 5.4-7 7 0 .18-.2.38-.4.6h4.4c.2-.6.6-1 1-1.6zm-30.17-2.4c-1.8-.2-2.6.2-3 1.2.2 1.2 1.6 2 3.4 2.8h8.2c-3-1.4-5.8-2.8-8.6-4zM10.18 106.86c.4-.8 0-2.2-.6-2.6-1-.6-2.8 1-4.2 1.6-1.8.8-3.6 1.4-5.4 2v3.6c.8-.4 1.6-.6 2.4-1 2.4-.8 6.8-1.8 7.8-3.6zm-2.4 32.16c1-.8 2.4-1 2.2-2.4-.6-1-1.4-1.8-2.4-1.2-2.4 1-4.8 3.6-6.8 5.8-.38.2-.58.4-.78.6v4.6c2.8-2.4 5-5.4 7.8-7.4zm6.4 17.58c-.8-2.6-1.4-8.98-4.8-8.38-.6.4-.6 1.2-.6 1.4.6 2.6 2 6 2.8 9.38h3.2c-.2-.8-.4-1.6-.6-2.4zm41.95.2c-1-1-2.2-2.6-3.4-2.6-1 0-1.8 1-1.8 2.2.2.8.8 1.6 1.8 2.6h5.2c-.8-.8-1.2-1.4-1.8-2.2zM40.15 154c-.2-.8-.8-2.18-1.6-2.4-1.8 1.2-3.4 3.8-6 6.4-.2.4-.6.6-1 1h4.4c1.6-1.6 3-3.2 4.2-5zM54.73 48.35c1.2-2.2 4-5.6 3.8-7.6 0-.8-1-2-2-1.8-.8.2-1.6 2.4-2.2 3.6-1 1.6-1.4 2.4-2.4 4-1.4 2.4-6.4 9-1.8 9.8 1.8-2 2.6-4.6 4.6-8zM5.6 53.94c-.4.6-.6 1-.2 1.4.4.8 2.2 1.2 3.18 1.4 2 .4 4 .6 6 .8 1.2 0 6.4.8 6.2-1.2-.2-2.8-7.6-2.6-9.4-2.8-1.4 0-4.8-.6-5.8.4zm19.56-39.36c-2.4.8-5.4 1.6-8 2.4-2.38.6-6.18 1.2-5.58 4.2 3 .8 5.8-1 9.6-2.2 3.6-1 9.98-1.6 7.38-5.4-1.4-.4-2.2.6-3.4 1zM8.2 40.35c-2.6.2-5.2 1.6-8.2 2.6v3.4c3-1 6.4-2.2 8.6-3.4.2-.6.58-2.6-.4-2.6zM2.6 23.37c-1-.4-1.8-.8-2.6-1.2v3.6c2 1.2 4 2.2 6.2 3 1-.2 1.2-1.4 1.6-2.4-1.2-1.6-3.4-2.2-5.2-3zM6.4 89.3C4 87.9 2 86.9 0 85.7v4c3.4 1.6 7 3.58 9.38 4.18 2.8-2.4-.8-3.6-3-4.6zm20.96-59.54c3.4 1.4 10.8 2.2 14.38 3.4 1.4.6 1.8-2.4 1.2-3.2-5-1-10.18-2.8-15.18-3.2-.6.6-.8 2-.4 3zm11.4-17.98c-1.4 1.6-4.6 3.8-1.2 5.6 2-1.4 3.6-3.4 5.98-6.2 2.6-2.8 6.2-5.2 3.6-8-3 1.6-5.6 6-8.4 8.6zm5.98 36.96c-1.4-1.8-3.6-2.4-6-3.8-1.6-1.2-3.8-4-5.6-4-.38 0-1.98.4-1.98 1.4-.2 1.8 10.78 8 11.18 8 1 .2 1.8-.8 2.4-1.6zm-6.6 24.77c4.4-.4 10.2-1.4 14.6-2 .4-.6 1-1.8.6-2.8-3.4-.2-8 .4-12 1-2.6.4-6.2 0-6 3 .6 1.4 1.8.8 2.8.8zm9.4-55.73c-.2.8-.6 1.8-.2 2.6 3 0 5.8-.8 10-1.4 3.98-.6 9.97-.8 7.98-4.8-5.4 1-12.8 1.6-17.78 3.6zm13.18 12c-2-.2-5.2-1.6-7-.8-.2.2-1.4 1.2-1 2.4.8 1.4 13.4 1.6 13.8 1.4 1-.4 1.4-1.6 1.2-2.6-2-.8-4.2-.4-7-.4zm-29.56 76.7c-3.6 1-7.8 3-11.6 4.4-2 .6-5.78 1.2-4.58 4.2 3.2.2 6-1.2 9.6-2.6 3.58-1.2 9.97-2.4 6.58-6zm35.56 49.14c1.4-.4 2.4-2 3.4-2.8 1.4-1.2 2.8-2.18 4-3.38.6-.6 1-1.2.8-1.8 0-.2 0-.2-.2-.4-.4-.8-1.2-.4-2-.2-1 .6-1.8 1.2-2.6 2-1 .8-2 1.8-3.2 3-.8.6-1.2 1-1.8 1.8-.6 1 .8 2 1.6 1.8zm-7.8-13.77c3-.2 6.2-.8 9.2-1.4 1.4-.2 6.6-.8 3.8-3.2-1-.8-2-.6-3.4-.4-3 .4-6 1.4-9 1.6-1.8.2-4.4-.2-4 2.6.6 1.4 2.2.8 3.4.8zM4.8 119.85c-1.6 4 4.58 3.8 7.38 4.6 3.8.8 7.6 2.2 10.6 2.2 1-.4 1-2 .8-2.8-2.8-1.6-6.4-1.4-9.6-2.2-3-.8-6-2-9.2-1.8zm73.7 3.4c.8.8 1 1.2 1.8 2 .8.6 2-.6 2-1.4-.2-1.4-1.8-2.6-2.4-3.6-1.2-1.6-2-3.2-3-4.6-.6-.4-1-1-1.8-1 0 0-.2.2-.4.2-.8.4-.6 1.2-.2 2 .2 1 1 2 1.6 3 .8 1 1.4 2 2.4 3.4zm2.8 16.38c1.2 1.4 2.6 2.4 3.8 3.6 2.6 2.2 5.2 4.6 7 6.2.6.8 2.38-.2 2.78-1-.4-2.2-3.4-4.2-6-6.6-2.2-1.8-4-4.6-6.58-5.8-1-.4-2.4-.4-2.8.8v.2c-.2 1.2 1 2 1.8 2.6zm-28.57-13.78c2.2 1 4.4 2.4 6.2 4 1 .8 2 2 3.4 1.8 1 0 2.2-.8 2-1.8 0-1.2-4.6-3.6-5.6-4.2-1.8-1.2-4-3-6-3.4-1-.2-2.2-.8-2.6.2-.4 1.6 1.6 3 2.6 3.4zm-37.35 11.58c1.2.2 2.2.2 3.4 0 1.2 0 2.6 0 4.2-.2 1-.2 1.6-.2 2.6-.6.98-.2.58-2-.2-2.2-1.4-.6-3 0-4.4.2-1.8 0-3.6-.2-5.2.2-.8 0-1.6.2-1.8.8 0 .2-.2.2-.2.4 0 .8 1 1.2 1.6 1.4zm6.4 15.78c2-1 3.18-2.38 5.18-4.58 1.6-1.8 3.8-3.6 4.6-6 .2-.8.4-2-.6-2.4-.2 0-.4 0-.8 0-1.6.2-3.4 3.6-4.4 4.6-.6 1-1.2 1.6-2.2 2.8-1 .8-3.2 2.4-3.2 3.6-.2 1.2.4 2.4 1.4 2zm81.5-31.35c.4-.8-.4-1.8-1-2-1-.4-2.4.6-3.6 1.6-2.8 2-5.2 3.6-7.8 5.4-1.2.8-3.4 1.8-3.8 2.8-.4 1.2.4 2.4 1.4 2.4.2.2.2.2.4 0 2.2-1 4.2-2.8 7.2-4.8 2-1.4 6.4-4.6 7.2-5.4zm-67.33 9.6c1.2-.6 2-2.4 2.8-3.4 1.2-1.4 2.4-2.6 3.6-4 .4-.6.8-1.2.4-1.8 0-.2 0-.2-.2-.4-.6-.6-1.4-.2-2 .2-1 .6-1.6 1.4-2.4 2.4-.8 1-1.8 2-2.6 3.2-.6.8-1.2 1.4-1.6 2.2-.4 1 1 1.8 2 1.6zm-.8-50.75c-2.8-2.4-5.2-3.6-7.8-5.8-1-.8-2.4-3.2-3.78-2.8-.4.2-1.2 1-1 1.8 0 1 2.4 2.8 3.2 3.6 3.8 2.8 8.98 6.8 12.18 8.6 2.6-2.6-1.2-4-2.8-5.4z"/></svg>