<?xml version="1.0" encoding="utf-8"?>
<!-- Generator: Adobe Illustrator 20.1.0, SVG Export Plug-In . SVG Version: 6.00 Build 0)  -->
<svg version="1.1" id="Layer_1" xmlns="http://www.w3.org/2000/svg" xmlns:xlink="http://www.w3.org/1999/xlink" x="0px" y="0px"
	 viewBox="0 0 373.5 27.5" style="enable-background:new 0 0 373.5 27.5;" xml:space="preserve">
<style type="text/css">
	.st0{fill:#3FC1CA;}
</style>
<path class="st0" d="M211,25.9l6.9-15.2l7.2,15.2h5.1l6.7-15.8c1-2.3,1.7-3.7,2.3-4.4c0.6-0.6,1.4-1,2.4-1V1.6h-10.4v3.1
	c2.2,0,3.4,0.5,3.4,1.5c0,0.3-0.1,0.7-0.3,1.3l-3.8,9.4l-7.1-15.2h-5l-7,15.2l-3.7-8.9c-0.4-1-0.6-1.8-0.6-2.1c0-0.7,1-1.1,3-1.1
	V1.6h-16v3.1c1,0,1.7,0.2,2.2,0.6c0.5,0.4,1.2,1.5,1.9,3.4l7.5,17.3H211z M177.1,5.6c0.9-1.1,2-1.7,3.2-1.7c1.6,0,2.8,0.7,3.5,2
	c0.7,1.3,1.1,3.8,1.1,7.5c0,4-0.4,6.7-1.2,7.9c-0.8,1.2-1.9,1.9-3.3,1.9c-1.7,0-2.9-0.7-3.6-2.2c-0.7-1.5-1-4.1-1-7.8
	C175.7,9.2,176.2,6.7,177.1,5.6 M170,23c2.9,2.2,6.3,3.3,10.2,3.3c4.1,0,7.5-1.2,10.4-3.5c2.9-2.3,4.3-5.5,4.3-9.4
	c0-4.1-1.5-7.3-4.4-9.5c-2.9-2.2-6.3-3.3-10.2-3.3c-4,0-7.4,1.1-10.3,3.4c-2.8,2.3-4.2,5.4-4.2,9.4C165.8,17.6,167.2,20.8,170,23
	 M147.3,6.5c0.9-0.6,1.7-0.8,2.5-0.8c0.8,0,1.4,0.3,1.9,0.9c0.4,0.6,0.7,1.7,0.7,3.3v8.7c0,1.6-0.3,2.7-0.8,3.1
	c-0.6,0.4-1.2,0.7-2.1,0.7v3.1h16.2v-3.1c-1.6,0-2.6-0.3-3.1-0.8c-0.5-0.5-0.7-1.5-0.7-3V9.1c0-2.6-0.8-4.7-2.3-6.2
	c-1.6-1.5-3.7-2.2-6.4-2.2c-1.5,0-3,0.3-4.4,1c-1.4,0.7-2.7,1.7-4,3.1c-0.1-1.6-0.3-2.7-0.6-3.5l-12.9,2.1v3.1
	c1.7,0,2.8,0.3,3.2,0.8c0.5,0.6,0.7,1.6,0.7,3v8.1c0,1.5-0.2,2.5-0.7,3c-0.5,0.5-1.5,0.8-3.2,0.8v3.1h16.3v-3.1
	c-1,0-1.8-0.3-2.2-0.9c-0.4-0.6-0.6-1.5-0.6-2.9V9.1C145.5,7.9,146.4,7.1,147.3,6.5"/>
<path d="M2.9,25.6v-8.2h9.5V16H2.9V9.6h9.7V8.3H1.4v17.3H2.9z"/>
<path d="M27,25.9c5.2,0,8.6-3.9,8.6-9S32.1,8,27,8c-5.2,0-8.6,3.9-8.6,9S21.8,25.9,27,25.9z M27,24.6c-4.3,0-7-3.3-7-7.6
	c0-4.4,2.7-7.6,7-7.6c4.3,0,7,3.2,7,7.6C34,21.3,31.2,24.6,27,24.6z"/>
<path d="M52.2,25.6v-1.4h-8.6v-16h-1.5v17.3H52.2z"/>
<path d="M68.3,25.6v-1.4h-8.6v-16h-1.5v17.3H68.3z"/>
<path d="M81.5,25.9c5.2,0,8.6-3.9,8.6-9s-3.4-9-8.6-9c-5.2,0-8.6,3.9-8.6,9S76.3,25.9,81.5,25.9z M81.5,24.6c-4.3,0-7-3.3-7-7.6
	c0-4.4,2.7-7.6,7-7.6c4.3,0,7,3.2,7,7.6C88.6,21.3,85.8,24.6,81.5,24.6z"/>
<path d="M111.8,25.6l5-17.3h-1.7l-4.3,15.3l-4.3-15.3h-1.4l-4.4,15.3L96.6,8.3h-1.7l5.1,17.3h1.7l4.3-14.9l4.3,14.9H111.8z"/>
<path d="M257.5,25.6v-16h5.8V8.3h-13.1v1.4h5.8v16H257.5z"/>
<path d="M276.8,25.9c5.2,0,8.6-3.9,8.6-9s-3.4-9-8.6-9c-5.2,0-8.6,3.9-8.6,9S271.6,25.9,276.8,25.9z M276.8,24.6c-4.3,0-7-3.3-7-7.6
	c0-4.4,2.7-7.6,7-7.6c4.3,0,7,3.2,7,7.6C283.8,21.3,281,24.6,276.8,24.6z"/>
<path d="M312.1,25.6v-1.4h-8.6v-16H302v17.3H312.1z"/>
<path d="M325.4,25.9c5.2,0,8.6-3.9,8.6-9s-3.4-9-8.6-9c-5.2,0-8.6,3.9-8.6,9S320.2,25.9,325.4,25.9z M325.4,24.6c-4.3,0-7-3.3-7-7.6
	c0-4.4,2.7-7.6,7-7.6c4.3,0,7,3.2,7,7.6C332.4,21.3,329.6,24.6,325.4,24.6z"/>
<path d="M347.7,25.6L355,8.3h-1.8l-6.4,15.7l-6.5-15.7h-1.8l7.3,17.3H347.7z"/>
<path d="M372,25.6v-1.4h-9.7v-6.9h9.5V16h-9.5V9.6h9.7V8.3h-11.2v17.3H372z"/>
</svg>
