<?xml version="1.0" encoding="UTF-8"?>
<svg width="128px" height="50px" viewBox="0 0 128 50" version="1.1" xmlns="http://www.w3.org/2000/svg" xmlns:xlink="http://www.w3.org/1999/xlink">
    <!-- Generator: Sketch 52.6 (67491) - http://www.bohemiancoding.com/sketch -->
    <title>Artboard</title>
    <desc>Created with Sketch.</desc>
    <g id="Artboard" stroke="none" stroke-width="1" fill="none" fill-rule="evenodd">
        <g id="Now-To-Love-(2)" transform="translate(26.000000, 14.000000)" fill="#FFFFFF">
            <polygon id="Path" points="31.905 23.49 30.105 23.49 30.105 23.07 34.17 23.07 34.17 23.49 32.385 23.49 32.385 27.99 31.905 27.99"></polygon>
            <path d="M35.7,25.5 C35.6936507,25.1598695 35.7601385,24.8223163 35.895,24.51 C36.0112211,24.219285 36.1905352,23.9579987 36.42,23.745 C36.6534254,23.5154752 36.9353384,23.3412017 37.245,23.235 C37.5779404,23.0987376 37.9353356,23.0323642 38.295,23.04 C38.6544246,23.03524 39.0112509,23.1015077 39.345,23.235 C39.6484537,23.3449366 39.9247039,23.5188719 40.155,23.745 C40.3844648,23.9579987 40.5637789,24.219285 40.68,24.51 C40.9391982,25.1393574 40.9391982,25.8456426 40.68,26.475 C40.5603232,26.7682419 40.3816222,27.0337406 40.155,27.255 C39.9205232,27.4757841 39.6454416,27.6489836 39.345,27.765 C39.0085413,27.8871606 38.6529357,27.9481216 38.295,27.945 C37.9369057,27.9501224 37.5809419,27.8891001 37.245,27.765 C36.9381569,27.6529185 36.6574252,27.4793752 36.42,27.255 C36.1933778,27.0337406 36.0146768,26.7682419 35.895,26.475 C35.7613494,26.1675822 35.6948679,25.8351743 35.7,25.5 Z M36.165,25.5 C36.1668841,25.7718546 36.2176945,26.0411495 36.315,26.295 C36.4100707,26.5405623 36.5528147,26.7648742 36.735,26.955 C36.9296877,27.1423682 37.1589388,27.2901079 37.41,27.39 C37.6924559,27.4970118 37.9930571,27.5479612 38.295,27.54 C38.5919465,27.5463964 38.8873402,27.4954665 39.165,27.39 C39.4160612,27.2901079 39.6453123,27.1423682 39.84,26.955 C40.607848,26.1311771 40.607848,24.8538229 39.84,24.03 C39.6453123,23.8426318 39.4160612,23.6948921 39.165,23.595 C38.8873402,23.4895335 38.5919465,23.4386036 38.295,23.445 C37.9930571,23.4370388 37.6924559,23.4879882 37.41,23.595 C37.1589388,23.6948921 36.9296877,23.8426318 36.735,24.03 C36.5528147,24.2201258 36.4100707,24.4444377 36.315,24.69 C36.2165555,24.9487431 36.165737,25.2231629 36.165,25.5 Z" id="Shape" fill-rule="nonzero"></path>
            <polygon id="Path" points="46.08 23.055 46.5 23.055 46.5 27.555 48.96 27.555 48.96 27.975 45.96 27.975"></polygon>
            <path d="M50.865,25.5 C50.8609741,25.1615118 50.9220839,24.8254079 51.045,24.51 C51.171978,24.2214244 51.3556073,23.9612829 51.585,23.745 C51.8152961,23.5188719 52.0915463,23.3449366 52.395,23.235 C52.7282964,23.099952 53.0854394,23.0336255 53.445,23.04 C53.8046644,23.0323642 54.1620596,23.0987376 54.495,23.235 C54.8011202,23.3485658 55.0815703,23.5219349 55.32,23.745 C55.5449369,23.9618693 55.7235389,24.2221179 55.845,24.51 C56.1041982,25.1393574 56.1041982,25.8456426 55.845,26.475 C55.7198602,26.765294 55.5418347,27.0297891 55.32,27.255 C55.0776451,27.4728796 54.7982364,27.6456051 54.495,27.765 C54.1590581,27.8891001 53.8030943,27.9501224 53.445,27.945 C53.0870643,27.9481216 52.7314587,27.8871606 52.395,27.765 C52.0945584,27.6489836 51.8194768,27.4757841 51.585,27.255 C51.3585999,27.0303907 51.1755415,26.765973 51.045,26.475 C50.9236104,26.1643847 50.8625209,25.8334834 50.865,25.5 Z M51.33,25.5 C51.3247506,25.7724994 51.3758164,26.0431483 51.48,26.295 C51.5690214,26.5435722 51.712526,26.7690795 51.9,26.955 C52.0892888,27.1419476 52.3135609,27.2897632 52.56,27.39 C53.1330408,27.5900592 53.7569592,27.5900592 54.33,27.39 C54.5764391,27.2897632 54.8007112,27.1419476 54.99,26.955 C55.1817275,26.76963 55.3302493,26.5442865 55.425,26.295 C55.4968845,26.0365329 55.522279,25.7673505 55.5,25.5 C55.5040631,25.2240796 55.4583312,24.9496881 55.365,24.69 C55.2702493,24.4407135 55.1217275,24.21537 54.93,24.03 C54.7407112,23.8430524 54.5164391,23.6952368 54.27,23.595 C53.6969592,23.3949408 53.0730408,23.3949408 52.5,23.595 C52.2535609,23.6952368 52.0292888,23.8430524 51.84,24.03 C51.652526,24.2159205 51.5090214,24.4414278 51.42,24.69 C51.3345827,24.9509305 51.3039435,25.2266835 51.33,25.5 Z" id="Shape" fill-rule="nonzero"></path>
            <polygon id="Path" points="57.87 23.055 58.41 23.055 60.09 27.36 61.8 23.055 62.325 23.055 60.33 27.96 59.835 27.96"></polygon>
            <polygon id="Path" points="64.395 23.055 67.605 23.055 67.605 23.475 64.875 23.475 64.875 25.215 67.5 25.215 67.5 25.635 64.875 25.635 64.875 27.54 67.725 27.54 67.725 27.96 64.395 27.96"></polygon>
            <path d="M75.12,-8.8817842e-16 C75.12,-8.8817842e-16 74.67,1.5 72.405,7.59 L67.635,20.79 L66.135,20.79 L60.135,7.41 L55.5,20.79 L54,20.79 C50.19,12.315 45.885,2.865 45.885,2.865 C44.85,0.795 43.635,0.615 42.9,0.57 L42.9,-8.8817842e-16 L51.66,-5.55111512e-17 L53.31,3.84 L57.615,13.065 L59.865,6.75 C59.22,5.25 58.08,2.865 58.08,2.865 C57,0.795 56.4,0.615 55.62,0.57 L55.62,-5.55111512e-17 L63.72,-5.55111512e-17 L65.505,3.84 L69.765,13.065 C69.765,13.065 72.21,7.86 72.09,4.185 C72.084255,3.48584462 71.9309086,2.79578568 71.64,2.16 C71.1136621,1.07350676 69.9598671,0.436515827 68.76,0.57 L68.76,-8.8817842e-16 L75.12,-8.8817842e-16 Z" id="Path"></path>
            <path d="M34.5,0 C27.48,0 24,4.68 24,10.395 C24,16.11 27.54,20.79 34.5,20.79 C41.46,20.79 45,16.065 45,10.395 C45,4.725 41.49,0 34.5,0 Z M34.5,20.16 C32.49,20.16 30.855,15.795 30.855,10.395 C30.855,6.48 31.515,3.135 32.745,1.575 C33.1729032,1.02937988 33.8089392,0.686898972 34.5,0.63 C35.1623836,0.586727065 35.8048776,0.866072296 36.225,1.38 C37.455,2.88 38.16,6.51 38.16,10.38 C38.175,15.795 36.54,20.16 34.5,20.16 Z" id="Shape" fill-rule="nonzero"></path>
            <path d="M23.46,26.655 C21.54,24.465 21.66,19.23 21.66,19.23 L21.66,5.535 C21.66,3 19.5,0 15.135,0 C12.5328558,0.102061452 10.2109677,1.6635312 9.135,4.035 L9.135,0 C6.29389765,1.37547156 3.1527359,2.01505129 -1.77635684e-15,1.86 L-1.77635684e-15,2.205 C1.695,2.865 2.145,3.495 2.145,5.04 L2.145,15.81 C2.145,18.105 2.145,19.95 0.54,20.445 L0.54,20.79 L10.86,20.79 L10.86,20.445 C9.36,19.995 9.18,18.24 9.18,15.81 L9.18,4.185 C9.78912571,3.39631775 10.7059521,2.90516077 11.7,2.835 C12.5278281,2.79616696 13.3300753,3.12736472 13.8894178,3.73887381 C14.4487602,4.3503829 14.7072999,5.17890557 14.595,6 L14.595,18 C14.5796576,20.2216937 15.0399657,22.4209433 15.945,24.45 C17.5451676,27.5837017 20.751604,29.5711145 24.27,29.61 C25.9641802,29.7249034 27.6382685,29.1883366 28.95,28.11 C26.9970163,28.8463427 24.7919498,28.2619399 23.46,26.655 Z" id="Path"></path>
        </g>
    </g>
</svg>