<?xml version="1.0" encoding="utf-8"?>
<!-- Generator: Adobe Illustrator 20.1.0, SVG Export Plug-In . SVG Version: 6.00 Build 0)  -->
<svg version="1.1" id="Layer_1" xmlns="http://www.w3.org/2000/svg" xmlns:xlink="http://www.w3.org/1999/xlink" x="0px" y="0px"
	 viewBox="0 0 244 27.5" style="enable-background:new 0 0 244 27.5;" xml:space="preserve">
<style type="text/css">
	.st0{fill:#3FC1CA;}
</style>
<path class="st0" d="M81.5,25.9l6.9-15.2l7.2,15.2h5.1l6.7-15.8c1-2.3,1.7-3.7,2.3-4.4c0.6-0.6,1.4-1,2.4-1V1.6h-10.4v3.1
	c2.2,0,3.4,0.5,3.4,1.5c0,0.3-0.1,0.7-0.3,1.3l-3.8,9.4L94,1.6h-5l-7,15.2l-3.7-8.9c-0.4-1-0.6-1.8-0.6-2.1c0-0.7,1-1.1,3-1.1V1.6
	h-16v3.1c1,0,1.7,0.2,2.2,0.6c0.5,0.4,1.2,1.5,1.9,3.4l7.5,17.3H81.5z M47.6,5.6c0.9-1.1,2-1.7,3.2-1.7c1.6,0,2.8,0.7,3.5,2
	c0.7,1.3,1.1,3.8,1.1,7.5c0,4-0.4,6.7-1.2,7.9c-0.8,1.2-1.9,1.9-3.3,1.9c-1.7,0-2.9-0.7-3.6-2.2c-0.7-1.5-1-4.1-1-7.8
	C46.2,9.2,46.7,6.7,47.6,5.6 M40.5,23c2.9,2.2,6.3,3.3,10.2,3.3c4.1,0,7.5-1.2,10.4-3.5c2.9-2.3,4.3-5.5,4.3-9.4
	c0-4.1-1.5-7.3-4.4-9.5c-2.9-2.2-6.3-3.3-10.2-3.3c-4,0-7.4,1.1-10.3,3.4c-2.8,2.3-4.2,5.4-4.2,9.4C36.3,17.6,37.7,20.8,40.5,23
	 M17.8,6.5c0.9-0.6,1.7-0.8,2.5-0.8c0.8,0,1.4,0.3,1.9,0.9c0.4,0.6,0.7,1.7,0.7,3.3v8.7c0,1.6-0.3,2.7-0.8,3.1
	c-0.6,0.4-1.2,0.7-2.1,0.7v3.1h16.2v-3.1c-1.6,0-2.6-0.3-3.1-0.8c-0.5-0.5-0.7-1.5-0.7-3V9.1c0-2.6-0.8-4.7-2.3-6.2
	c-1.6-1.5-3.7-2.2-6.4-2.2c-1.5,0-3,0.3-4.4,1c-1.4,0.7-2.7,1.7-4,3.1c-0.1-1.6-0.3-2.7-0.6-3.5L1.7,3.5v3.1c1.7,0,2.8,0.3,3.2,0.8
	c0.5,0.6,0.7,1.6,0.7,3v8.1c0,1.5-0.2,2.5-0.7,3c-0.5,0.5-1.5,0.8-3.2,0.8v3.1H18v-3.1c-1,0-1.8-0.3-2.2-0.9
	c-0.4-0.6-0.6-1.5-0.6-2.9V9.1C16,7.9,16.9,7.1,17.8,6.5"/>
<path d="M128,25.6v-16h5.8V8.3h-13.1v1.4h5.8v16H128z"/>
<path d="M147.3,25.9c5.2,0,8.6-3.9,8.6-9s-3.4-9-8.6-9c-5.2,0-8.6,3.9-8.6,9S142.1,25.9,147.3,25.9z M147.3,24.6c-4.3,0-7-3.3-7-7.6
	c0-4.4,2.7-7.6,7-7.6c4.3,0,7,3.2,7,7.6C154.3,21.3,151.5,24.6,147.3,24.6z"/>
<path d="M182.6,25.6v-1.4H174v-16h-1.5v17.3H182.6z"/>
<path d="M195.9,25.9c5.2,0,8.6-3.9,8.6-9s-3.4-9-8.6-9c-5.2,0-8.6,3.9-8.6,9S190.7,25.9,195.9,25.9z M195.9,24.6c-4.3,0-7-3.3-7-7.6
	c0-4.4,2.7-7.6,7-7.6c4.3,0,7,3.2,7,7.6C202.9,21.3,200.1,24.6,195.9,24.6z"/>
<path d="M218.2,25.6l7.3-17.3h-1.8l-6.4,15.7l-6.5-15.7h-1.8l7.3,17.3H218.2z"/>
<path d="M242.5,25.6v-1.4h-9.7v-6.9h9.5V16h-9.5V9.6h9.7V8.3h-11.2v17.3H242.5z"/>
</svg>
