<?xml version="1.0" encoding="utf-8"?>
<!-- Generator: Adobe Illustrator 16.0.3, SVG Export Plug-In . SVG Version: 6.00 Build 0)  -->
<!DOCTYPE svg PUBLIC "-//W3C//DTD SVG 1.1//EN" "http://www.w3.org/Graphics/SVG/1.1/DTD/svg11.dtd">
<svg version="1.1" id="Layer_1" xmlns="http://www.w3.org/2000/svg" xmlns:xlink="http://www.w3.org/1999/xlink" x="0px" y="0px"
	 width="183.383px" height="32.538px" viewBox="0 0 183.383 32.538" enable-background="new 0 0 183.383 32.538"
	 xml:space="preserve">
<path id="path-1" fill="#FFFFFF" d="M180.398,14.678l2.985,2.551v14.971h-2.187l-0.771-0.614c-0.555,0.308-1.158,0.543-1.814,0.707
	c-0.657,0.164-1.283,0.246-1.878,0.246c-0.451,0-0.918-0.042-1.399-0.123c-0.481-0.082-1.017-0.241-1.601-0.478
	c-0.585-0.235-1.242-0.58-1.972-1.029c-0.729-0.45-1.553-1.047-2.477-1.782c-0.697-0.41-1.268-0.933-1.708-1.567
	c-0.442-0.636-0.661-1.414-0.661-2.337v-14.94c0-1.188,0.199-2.177,0.6-2.966c0.402-0.789,0.924-1.419,1.57-1.89
	c0.646-0.472,1.369-0.81,2.168-1.015c0.801-0.204,1.603-0.307,2.401-0.307c1.046,0,2.046,0.21,3,0.63s1.831,0.948,2.632,1.583
	l2.309,1.814c0.533,0.43,0.965,0.963,1.291,1.598c0.328,0.635,0.494,1.404,0.494,2.305v1.384h-5.324l-2.186-1.722
	c-0.185,0.123-0.313,0.292-0.385,0.507c-0.072,0.216-0.107,0.446-0.107,0.692v1.783H180.398z M175.75,24.684
	c-0.062,0.276-0.175,0.519-0.339,0.721c-0.165,0.207-0.39,0.369-0.677,0.492c-0.288,0.123-0.646,0.187-1.077,0.187
	s-0.79-0.063-1.077-0.187s-0.514-0.285-0.678-0.492c-0.164-0.202-0.277-0.443-0.338-0.721c-0.063-0.277-0.092-0.559-0.092-0.846
	V10.436c0-0.287,0.029-0.569,0.092-0.845c0.061-0.277,0.174-0.518,0.338-0.723c0.164-0.204,0.391-0.369,0.678-0.492
	c0.287-0.122,0.646-0.184,1.077-0.184c0.718,0,1.256,0.149,1.615,0.446c0.358,0.297,0.539,0.794,0.539,1.491h3.661V9.575
	c0-0.819-0.174-1.521-0.522-2.105c-0.348-0.584-0.8-1.055-1.354-1.414c-0.553-0.359-1.174-0.62-1.86-0.784s-1.38-0.246-2.077-0.246
	c-0.677,0-1.363,0.087-2.063,0.261c-0.697,0.175-1.323,0.461-1.879,0.861c-0.553,0.4-1.004,0.937-1.354,1.614
	c-0.35,0.676-0.523,1.516-0.523,2.52v14.939c0,0.719,0.174,1.332,0.523,1.844c0.35,0.515,0.801,0.93,1.354,1.246
	c0.556,0.317,1.182,0.553,1.879,0.707c0.697,0.153,1.386,0.23,2.063,0.23c0.738,0,1.462-0.108,2.169-0.323
	c0.708-0.215,1.341-0.599,1.894-1.153l0.801,1.14h0.953v-13.31h-5.17v3.103h1.539v5.134
	C175.842,24.125,175.812,24.406,175.75,24.684z M151.592,29.832l-0.433-0.799v3.166h-5.323l-3.17-2.367V4.442h5.816l2.984,2.521
	V4.442h5.447l2.984,2.551v25.206h-5.324L151.592,29.832z M155.993,5.364h-3.602v15l-4.584-15h-4.217V28.91h3.662V15.231
	l4.832,13.679h3.907L155.993,5.364L155.993,5.364z M126.879,29.832V4.442h5.479l2.984,2.551v25.206h-5.293L126.879,29.832z
	 M131.434,5.364h-3.631V28.91h3.631V5.364z M117.893,30.785c-0.575,0.449-1.221,0.799-1.939,1.045
	c-0.718,0.246-1.467,0.369-2.246,0.369h-5.908l-3.17-2.367V4.442h6c0.985,0,1.898,0.205,2.739,0.615
	c0.841,0.41,1.621,0.912,2.339,1.506l2.217,1.844c0.555,0.472,1.016,1.025,1.386,1.66c0.368,0.635,0.604,1.363,0.706,2.182v14.663
	c-0.103,0.818-0.338,1.557-0.706,2.213C118.939,29.779,118.467,30.334,117.893,30.785z M116.108,9.883
	c-0.082-0.697-0.287-1.327-0.615-1.891c-0.329-0.563-0.738-1.04-1.23-1.429s-1.053-0.686-1.678-0.891
	c-0.627-0.205-1.277-0.308-1.955-0.308h-5.078V28.91h5.078c0.678,0,1.328-0.104,1.955-0.309c0.625-0.203,1.186-0.508,1.678-0.906
	c0.492-0.399,0.901-0.877,1.23-1.431c0.328-0.553,0.533-1.188,0.615-1.905V9.883z M110.629,25.773h-1.477V8.469h1.477
	c0.351,0,0.646,0.061,0.895,0.184c0.246,0.123,0.439,0.292,0.584,0.507c0.145,0.215,0.247,0.461,0.309,0.738
	c0.063,0.277,0.092,0.559,0.092,0.845V23.5c0,0.594-0.139,1.122-0.414,1.583C111.815,25.544,111.327,25.773,110.629,25.773z
	 M88.995,29.832l-0.431-0.799v3.166H83.24l-3.17-2.367V4.442h5.817l2.985,2.521V4.442h5.448l2.985,2.551v25.206h-5.324
	L88.995,29.832z M93.396,5.364h-3.6v15l-4.586-15h-4.216V28.91h3.662V15.231l4.832,13.679h3.908V5.364z M59.821,29.832V4.442h10.402
	l2.985,2.551v4.765h-4.955v3.012h1.077l2.985,2.55v4.766h-4.062v2.766h1.97l2.985,2.551v4.797H62.991L59.821,29.832z M69.299,25.773
	h-4.954v-6.977h4.062v-3.105h-4.062V8.469h4.954V5.364h-8.555V28.91h8.555V25.773z M45.48,30.293v1.906h-5.294l-3.17-2.367V4.442
	h6.309c0.965,0,1.888,0.21,2.77,0.63c0.882,0.42,1.682,0.928,2.401,1.522l2.339,1.875c0.574,0.471,1.035,1.029,1.385,1.675
	c0.348,0.645,0.523,1.388,0.523,2.228v5.81c0,0.758-0.2,1.486-0.6,2.182c-0.401,0.697-0.878,1.313-1.431,1.847
	c0.204,0.758,0.425,1.571,0.661,2.442c0.236,0.871,0.472,1.742,0.708,2.612c0.236,0.871,0.472,1.732,0.708,2.582
	c0.235,0.851,0.446,1.634,0.631,2.353h-5.54L45.48,30.293z M48.219,17.752c0.41-0.635,0.615-1.312,0.615-2.029v-5.81
	c0-0.717-0.159-1.357-0.477-1.921c-0.318-0.563-0.738-1.04-1.262-1.429c-0.523-0.389-1.113-0.686-1.769-0.891
	c-0.657-0.205-1.324-0.308-2.001-0.308H37.94V28.91h3.631v-8.607h1.631l2.247,8.607h3.816l-2.554-9.469
	C47.306,18.949,47.808,18.387,48.219,17.752z M43.325,17.137h-1.754V8.469h1.754c0.349,0,0.647,0.061,0.893,0.184
	s0.441,0.292,0.585,0.507c0.143,0.215,0.246,0.461,0.307,0.738c0.062,0.277,0.093,0.559,0.093,0.845v4.15
	c0,0.595-0.139,1.117-0.416,1.568C44.51,16.912,44.023,17.137,43.325,17.137z M27.199,32.199h-5.262l-3.17-2.367V11.696
	l-3.078-2.305v-1.18h-1.961c-0.108,0.472-0.203,0.903-0.284,1.294s-0.169,0.782-0.263,1.173l1.924,1.517v3.134h-3.017l-0.729,2.932
	H7.937L6.682,17.25l-0.243,1.011H2.997l-2.106-1.557l0.466-1.941L0,13.772v-3.256h2.369l0.547-2.467L1.053,6.654V3.398h2.936
	L4.718,0h3.604l1.093,1.012c0.027-0.189,0.061-0.368,0.101-0.536C9.557,0.307,9.597,0.149,9.638,0h3.563l1.944,1.679l-0.466,2.224
	l1.01,0.802V4.442h11.633l2.986,2.551v4.765h-3.109V32.199z M13.586,4.005h-1.822l0.708-3.398h-2.328L9.415,4.005H6.844l0.729-3.398
	H5.224L4.475,4.005H1.661v2.042h2.348l-1.154,5.076H0.608v2.042h1.761l-0.708,2.933h2.328l0.709-2.933h2.571l-0.688,2.933h2.328
	l0.709-2.933h2.915v-2.042h-2.409l1.154-5.076h2.308V4.005z M26.399,5.364h-9.786v3.105h3.077V28.91h3.601V8.469h3.108V5.364z
	 M5.224,11.123l1.134-5.076h2.551l-1.134,5.076H5.224z"/>
</svg>
