<?xml version="1.0" encoding="utf-8"?>
<!-- Generator: Adobe Illustrator 16.0.3, SVG Export Plug-In . SVG Version: 6.00 Build 0)  -->
<!DOCTYPE svg PUBLIC "-//W3C//DTD SVG 1.1//EN" "http://www.w3.org/Graphics/SVG/1.1/DTD/svg11.dtd">
<svg version="1.1" id="Layer_1" xmlns="http://www.w3.org/2000/svg" xmlns:xlink="http://www.w3.org/1999/xlink" x="0px" y="0px"
	 width="219px" height="142px" viewBox="0 0 219 142" enable-background="new 0 0 219 142" xml:space="preserve">
<path id="path-1" fill="#FFFFFF" d="M206.51,72.371l-6.701-5.32l-0.968-1.796v7.116h-11.952l-7.117-5.32V9.982h13.059l6.702,5.666
	V9.982h12.229l6.701,5.735v56.654H206.51z M209.689,12.055h-8.084v33.716l-10.295-33.716h-9.465v52.924h8.221V34.233l10.848,30.746
	h8.775V12.055z M186.199,77.913c1.796-0.46,3.593-0.69,5.389-0.69c2.35,0,4.596,0.473,6.736,1.416
	c2.142,0.944,4.111,2.131,5.908,3.559l5.181,4.076c1.198,0.967,2.165,2.166,2.901,3.593c0.736,1.428,1.106,3.155,1.106,5.182v3.108
	h-11.953l-4.905-3.868c-0.414,0.276-0.703,0.655-0.863,1.14c-0.162,0.483-0.242,1.002-0.242,1.555v4.008h11.262l6.702,5.734v33.646
	h-4.905l-1.728-1.381c-1.244,0.689-2.603,1.219-4.076,1.589c-1.476,0.368-2.88,0.552-4.215,0.552c-1.015,0-2.062-0.092-3.144-0.275
	c-1.082-0.186-2.281-0.543-3.592-1.071c-1.314-0.53-2.789-1.302-4.423-2.313c-1.636-1.015-3.489-2.351-5.562-4.009
	c-1.566-0.921-2.846-2.095-3.834-3.522c-0.992-1.428-1.486-3.18-1.486-5.252V91.109c0-2.67,0.449-4.894,1.348-6.668
	c0.898-1.771,2.072-3.188,3.523-4.248S184.402,78.374,186.199,77.913z M178.529,91.109v33.578c0,1.613,0.392,2.994,1.175,4.146
	c0.782,1.151,1.797,2.085,3.04,2.798c1.244,0.715,2.648,1.244,4.215,1.59c1.564,0.346,3.109,0.518,4.629,0.518
	c1.658,0,3.282-0.241,4.871-0.725c1.589-0.484,3.005-1.348,4.249-2.592l1.796,2.557h2.143v-29.916h-11.607v6.978h3.454v11.539
	c0,0.646-0.069,1.278-0.207,1.899s-0.392,1.164-0.761,1.623c-0.368,0.461-0.875,0.83-1.52,1.106s-1.451,0.414-2.418,0.414
	s-1.773-0.138-2.418-0.414c-0.646-0.276-1.152-0.646-1.52-1.106c-0.369-0.459-0.623-1.002-0.76-1.623
	c-0.139-0.621-0.207-1.254-0.207-1.899V91.455c0-0.645,0.068-1.277,0.207-1.9c0.137-0.621,0.391-1.162,0.76-1.623
	c0.367-0.461,0.873-0.83,1.52-1.105c0.645-0.276,1.451-0.415,2.418-0.415c1.612,0,2.821,0.335,3.627,1.002
	c0.807,0.668,1.209,1.786,1.209,3.351h8.223V89.52c0-1.84-0.393-3.42-1.174-4.731c-0.785-1.313-1.798-2.372-3.041-3.179
	c-1.244-0.805-2.638-1.393-4.18-1.762c-1.544-0.367-3.1-0.553-4.664-0.553c-1.52,0-3.064,0.196-4.629,0.587
	c-1.566,0.392-2.971,1.037-4.215,1.935c-1.243,0.898-2.258,2.107-3.04,3.627C178.921,86.964,178.529,88.854,178.529,91.109z
	 M134.311,67.051V9.982h23.354l6.702,5.735v10.709h-11.124v6.771h2.419l6.7,5.734V49.64h-9.119v6.219h4.422l6.702,5.734v10.778
	h-22.938L134.311,67.051z M155.591,57.931h-11.123V42.248h9.12V35.27h-9.12V19.033h11.123v-6.978h-19.207v52.924h19.207V57.931z
	 M141.773,83.648v-5.666h12.229l6.702,5.734v56.654h-11.952l-6.702-5.32l-0.968-1.796v7.116h-11.952l-7.117-5.32V77.982h13.059
	L141.773,83.648z M124.087,80.055v52.924h8.222v-30.746l10.848,30.746h8.775V80.055h-8.084v33.717l-10.295-33.717H124.087z
	 M102.116,68.088v4.283H90.232l-7.116-5.32V9.982H97.28c2.164,0,4.237,0.473,6.218,1.417c1.98,0.944,3.776,2.084,5.389,3.42
	l5.251,4.214c1.289,1.06,2.324,2.315,3.108,3.766c0.782,1.451,1.175,3.121,1.175,5.009v13.058c0,1.705-0.449,3.34-1.348,4.905
	c-0.898,1.567-1.969,2.949-3.213,4.146c0.459,1.704,0.955,3.535,1.486,5.493c0.528,1.958,1.059,3.915,1.588,5.872
	c0.529,1.959,1.06,3.892,1.59,5.804c0.529,1.911,1.002,3.673,1.416,5.285h-12.437L102.116,68.088z M108.265,39.899
	c0.921-1.428,1.382-2.948,1.382-4.56V22.28c0-1.611-0.357-3.05-1.071-4.318c-0.715-1.266-1.658-2.337-2.833-3.212
	c-1.174-0.875-2.499-1.543-3.972-2.004c-1.475-0.46-2.971-0.691-4.491-0.691H85.189v52.924h8.153V45.633h3.661l5.044,19.346h8.566
	l-5.733-21.28C106.215,42.593,107.343,41.327,108.265,39.899z M97.28,38.517h-3.938V19.033h3.938c0.782,0,1.451,0.138,2.003,0.415
	c0.553,0.276,0.99,0.656,1.313,1.14c0.322,0.483,0.553,1.036,0.691,1.658c0.138,0.622,0.207,1.255,0.207,1.9v9.327
	c0,1.337-0.311,2.511-0.932,3.524C99.94,38.011,98.845,38.517,97.28,38.517z M66.397,137.193c-1.29,1.013-2.741,1.797-4.353,2.349
	c-1.613,0.554-3.294,0.829-5.044,0.829H43.735l-7.117-5.32V77.982h13.473c2.211,0,4.26,0.461,6.149,1.381
	c1.888,0.923,3.638,2.051,5.251,3.387l4.975,4.145c1.243,1.061,2.28,2.305,3.109,3.731c0.829,1.429,1.358,3.063,1.589,4.905v32.957
	c-0.231,1.843-0.76,3.5-1.589,4.974C68.746,134.936,67.686,136.18,66.397,137.193z M62.389,90.211
	c-0.184-1.564-0.645-2.98-1.381-4.249c-0.738-1.267-1.659-2.337-2.764-3.212c-1.106-0.875-2.361-1.543-3.766-2.004
	c-1.405-0.46-2.867-0.691-4.387-0.691h-11.4v52.924h11.4c1.52,0,2.982-0.229,4.387-0.69c1.405-0.46,2.66-1.14,3.766-2.038
	c1.105-0.898,2.026-1.971,2.764-3.213c0.736-1.244,1.197-2.671,1.381-4.284V90.211z M50.091,125.932h-3.316V87.033h3.316
	c0.783,0,1.451,0.138,2.004,0.414c0.553,0.277,0.99,0.656,1.313,1.141c0.321,0.482,0.552,1.036,0.69,1.658
	c0.139,0.622,0.208,1.255,0.208,1.9v28.672c0,1.336-0.311,2.521-0.933,3.559C52.751,125.413,51.657,125.932,50.091,125.932z
	 M61.077,72.371H49.262l-7.116-5.32V26.288l-6.909-5.182v-2.652h-4.404c-0.243,1.061-0.455,2.03-0.636,2.909
	c-0.182,0.879-0.38,1.757-0.591,2.636l4.318,3.409v7.046h-6.773l-1.636,6.59h-7.682l-2.818-2.272l-0.546,2.272H6.742l-4.727-3.5
	l1.045-4.363l-3.045-2.227v-7.319h5.318L6.56,18.09l-4.182-3.136V7.635h6.591l1.637-7.636h8.091l2.454,2.273
	c0.061-0.424,0.137-0.826,0.227-1.205c0.091-0.378,0.182-0.734,0.273-1.068h8l4.364,3.773l-1.046,5l2.268,1.801V9.982h26.116
	l6.702,5.735v10.709h-6.978V72.371z M30.515,8.999h-4.091l1.591-7.636h-5.227l-1.637,7.636h-5.773l1.637-7.636h-5.273L10.06,8.999
	H3.742v4.591h5.273L6.424,24.999H1.378v4.591h3.955l-1.591,6.591h5.227l1.591-6.591h5.773l-1.545,6.591h5.227l1.591-6.591h6.545
	v-4.591h-5.409l2.591-11.409h5.182V8.999z M59.28,12.055H37.309v6.978h6.909v45.946h8.084V19.033h6.978V12.055z M11.742,24.999
	l2.546-11.409h5.727l-2.546,11.409H11.742z M105.571,83.717v56.654H93.687l-7.116-5.32V77.982h12.298L105.571,83.717z
	 M96.796,80.055h-8.153v52.924h8.153V80.055z"/>
</svg>
