<?xml version="1.0" encoding="utf-8"?>
<!-- Generator: Adobe Illustrator 16.0.0, SVG Export Plug-In . SVG Version: 6.00 Build 0)  -->
<!DOCTYPE svg PUBLIC "-//W3C//DTD SVG 1.1//EN" "http://www.w3.org/Graphics/SVG/1.1/DTD/svg11.dtd">
<svg version="1.1" id="Layer_1" xmlns="http://www.w3.org/2000/svg" xmlns:xlink="http://www.w3.org/1999/xlink" x="0px" y="0px"
	 width="84.343px" height="24.02px" viewBox="0 0 84.343 24.02" enable-background="new 0 0 84.343 24.02" xml:space="preserve">
<path fill="#B6956A" d="M52.634,8.771L53.518,17h2.233L57.76,3.001h-2.218l-0.899,7.988h-0.112l-0.916-7.988h-1.978l-0.964,7.988
	h-0.112l-0.852-7.988h-2.331L49.387,17h2.234l0.9-8.229H52.634z M5.255,8.771L6.14,17h2.233l2.009-13.999H8.164l-0.9,7.988H7.152
	L6.236,3.001H4.259l-0.964,7.987H3.182L2.33,3.001H0L2.009,17h2.233l0.9-8.229H5.255z M16.377,16.79h2.009v-5.818
	c0-1.334,0.337-1.88,0.819-1.88c0.611,0,0.611,0.771,0.611,1.816v5.882h2.009v-5.818c0-1.334,0.337-1.88,0.819-1.88
	c0.611,0,0.611,0.771,0.611,1.816v5.882h2.009v-6.155c0-2.186-0.273-3.616-1.881-3.616c-1.013,0-1.43,0.499-1.735,1.27h-0.064
	c-0.241-0.787-0.691-1.27-1.543-1.27c-0.948,0-1.366,0.499-1.655,1.221h-0.064V7.228h-1.944V16.79L16.377,16.79z M9.82,12.001
	c0,3.327,0.852,4.999,3.021,4.999s3.021-1.672,3.021-4.999c0-3.327-0.852-4.982-3.021-4.982S9.82,8.674,9.82,12.001 M69.83,16.79
	h2.009v-2.716l0.466-0.852l1.109,3.567h2.17l-2.01-5.898l2.01-3.665h-2.138l-1.607,3.407V4.431H69.83V16.79z M67.339,13.641
	c0,0.884-0.241,1.591-0.819,1.591c-0.74,0-1.045-1.077-1.045-2.62H69.3c0-0.257,0.016-0.578,0.016-0.819
	c0-2.796-0.498-4.773-2.877-4.773c-2.186,0-3.005,2.153-3.005,4.998c0,3.311,0.996,4.983,3.005,4.983c1.607,0,2.62-0.98,2.829-3.006
	L67.339,13.641z M29.716,13.641c0,0.884-0.241,1.591-0.819,1.591c-0.739,0-1.045-1.077-1.045-2.62h3.825
	c0-0.257,0.016-0.578,0.016-0.819c0-2.796-0.498-4.773-2.877-4.773c-2.186,0-3.005,2.153-3.005,4.998
	c0,3.311,0.996,4.983,3.005,4.983c1.607,0,2.62-0.98,2.829-3.006L29.716,13.641z M61.039,13.641c0,0.884-0.241,1.591-0.82,1.591
	c-0.738,0-1.044-1.077-1.044-2.62h3.824c0-0.257,0.017-0.578,0.017-0.819c0-2.796-0.498-4.773-2.877-4.773
	c-2.186,0-3.006,2.153-3.006,4.998c0,3.311,0.997,4.983,3.006,4.983c1.607,0,2.62-0.98,2.829-3.006L61.039,13.641z M78.043,7.228
	l1.992,9.209c0.08,0.354,0.145,0.69,0.145,0.948c0,0.658-0.354,0.948-0.98,0.948c-0.241,0-0.546-0.032-0.675-0.081l-0.337,1.752
	c0.417,0.081,0.739,0.098,1.044,0.098c1.8,0,2.443-0.916,2.78-2.428l2.331-10.446H82.27l-0.707,4.227
	c-0.097,0.579-0.226,1.19-0.29,1.752h-0.111c-0.049-0.547-0.161-1.142-0.241-1.72l-0.644-4.259L78.043,7.228L78.043,7.228z
	 M37.768,10.747c0-2.186-0.273-3.729-1.849-3.729c-1.012,0-1.414,0.499-1.719,1.27h-0.064V7.228h-1.945v9.562h2.01v-5.817
	c0-1.334,0.354-1.88,0.899-1.88c0.659,0,0.659,0.771,0.659,1.816v5.882h2.009V10.747L37.768,10.747z M44.662,9.687
	c-0.048-1.704-0.739-2.667-2.442-2.667c-1.398,0-2.668,0.787-2.668,2.604c0,1.639,1.012,2.362,1.912,3.021
	c0.707,0.53,1.35,1.013,1.35,1.833c0,0.418-0.209,0.803-0.69,0.803c-0.708,0-0.82-0.691-0.836-1.479l-1.896,0.322
	C39.44,15.971,40.339,17,42.027,17c1.398,0,2.732-0.66,2.732-2.669c0-1.591-1.045-2.378-1.945-3.069
	c-0.643-0.514-1.302-1.061-1.302-1.752c0-0.402,0.226-0.771,0.659-0.771c0.627,0,0.627,0.852,0.643,1.286L44.662,9.687z
	 M75.761,16.79h2.009V4.431h-2.009V16.79z M11.893,12.001c0-2.314,0.209-3.198,0.948-3.198s0.948,0.884,0.948,3.198
	s-0.209,3.214-0.948,3.214S11.893,14.316,11.893,12.001 M38.025,4.448v1.8h0.788c-0.017,0.578-0.29,0.835-0.788,0.852v1.045
	c1.592-0.048,2.009-1.254,2.009-2.556V4.448L38.025,4.448L38.025,4.448z M27.867,11.085c0.032-0.916,0.145-2.298,0.965-2.298
	c0.771,0,0.819,1.334,0.819,2.298H27.867z M65.49,11.085c0.032-0.916,0.146-2.298,0.965-2.298c0.771,0,0.819,1.334,0.819,2.298
	H65.49z M59.191,11.085c0.032-0.916,0.145-2.298,0.965-2.298c0.771,0,0.819,1.334,0.819,2.298H59.191z M12.744,4.769v1.414h-0.401
	V4.769h-0.53V4.448h1.479v0.322H12.744z M14.818,6.183V5.492h-0.739v0.691h-0.401V4.448h0.401v0.723h0.739V4.448h0.402v1.736H14.818
	z M15.75,6.183V4.448h1.27v0.322h-0.868v0.401h0.787v0.321h-0.787v0.37h0.9v0.322H15.75z M19.205,6.183l-0.112-0.322v0.016h-0.675
	V5.862l-0.113,0.322h-0.401l0.675-1.736h0.386l0.676,1.736H19.205z M18.755,4.946l-0.225,0.626h0.466L18.755,4.946z M20.619,6.216
	c-0.498,0-0.723-0.273-0.723-0.595V4.448h0.401v1.157c0,0.161,0.097,0.273,0.321,0.273c0.226,0,0.338-0.112,0.338-0.273V4.448h0.386
	v1.173C21.343,5.942,21.117,6.216,20.619,6.216 M22.451,6.216c-0.257,0-0.466-0.048-0.69-0.161l0.128-0.306
	c0.145,0.064,0.29,0.145,0.547,0.145c0.225,0,0.386-0.08,0.386-0.225c0-0.161-0.145-0.177-0.37-0.209
	c-0.063,0-0.112-0.016-0.177-0.016c-0.272-0.048-0.449-0.177-0.449-0.466c0-0.354,0.305-0.546,0.69-0.546
	c0.241,0,0.45,0.032,0.644,0.145l-0.146,0.289c-0.177-0.08-0.305-0.112-0.481-0.112c-0.193,0-0.321,0.081-0.321,0.193
	c0,0.145,0.177,0.161,0.369,0.193c0.032,0,0.112,0.016,0.145,0.016c0.321,0.064,0.482,0.193,0.482,0.498
	C23.207,6.023,22.886,6.216,22.451,6.216 M24.38,4.769v1.414h-0.401V4.769h-0.53V4.448h1.462v0.322H24.38z M26.293,6.183
	L25.971,5.54h-0.257v0.643h-0.401V4.448h0.804c0.481,0,0.594,0.257,0.594,0.499v0.112c0,0.209-0.128,0.37-0.337,0.434l0.369,0.691
	H26.293L26.293,6.183z M26.325,4.946c0-0.097-0.081-0.177-0.273-0.177h-0.338v0.466h0.321c0.193,0,0.29-0.064,0.29-0.193V4.946
	L26.325,4.946z M28.27,6.183l-0.112-0.322v0.016h-0.676V5.862l-0.112,0.322h-0.401l0.675-1.736h0.386l0.675,1.736H28.27z
	 M27.82,4.946l-0.225,0.626h0.466L27.82,4.946z M29.041,6.183V4.448h0.401v1.414h0.836v0.322H29.041z M30.68,4.448h0.402v1.736
	H30.68V4.448z M32.738,6.183l-0.129-0.322v0.016h-0.675V5.862l-0.112,0.322h-0.402l0.676-1.736h0.401l0.659,1.736H32.738z
	 M32.272,4.946l-0.226,0.626h0.466L32.272,4.946z M34.65,6.183l-0.787-1.061v1.061h-0.37V4.448h0.37l0.787,1.077V4.448h0.354v1.736
	H34.65z"/>
</svg>
