<?xml version="1.0" encoding="UTF-8"?>
<svg width="85px" height="18px" viewBox="0 0 85 18" version="1.1" xmlns="http://www.w3.org/2000/svg" xmlns:xlink="http://www.w3.org/1999/xlink">
    <!-- Generator: Sketch 52.6 (67491) - http://www.bohemiancoding.com/sketch -->
    <title>AWW-logo</title>
    <desc>Created with Sketch.</desc>
    <g id="Page-1" stroke="none" stroke-width="1" fill="none" fill-rule="evenodd">
        <g id="AWW-logo" fill="#B6956A" fill-rule="nonzero">
            <path d="M52.634,5.771 L53.518,14 L55.751,14 L57.76,0.001 L55.542,0.001 L54.643,7.989 L54.531,7.989 L53.615,0.001 L51.637,0.001 L50.673,7.989 L50.561,7.989 L49.709,0.001 L47.378,0.001 L49.387,14 L51.621,14 L52.521,5.771 L52.634,5.771 Z M5.255,5.771 L6.14,14 L8.373,14 L10.382,0.001 L8.164,0.001 L7.264,7.989 L7.152,7.989 L6.236,0.001 L4.259,0.001 L3.295,7.988 L3.182,7.988 L2.33,0.001 L0,0.001 L2.009,14 L4.242,14 L5.142,5.771 L5.255,5.771 Z M16.377,13.79 L18.386,13.79 L18.386,7.972 C18.386,6.638 18.723,6.092 19.205,6.092 C19.816,6.092 19.816,6.863 19.816,7.908 L19.816,13.79 L21.825,13.79 L21.825,7.972 C21.825,6.638 22.162,6.092 22.644,6.092 C23.255,6.092 23.255,6.863 23.255,7.908 L23.255,13.79 L25.264,13.79 L25.264,7.635 C25.264,5.449 24.991,4.019 23.383,4.019 C22.37,4.019 21.953,4.518 21.648,5.289 L21.584,5.289 C21.343,4.502 20.893,4.019 20.041,4.019 C19.093,4.019 18.675,4.518 18.386,5.24 L18.322,5.24 L18.322,4.228 L16.378,4.228 L16.378,13.79 L16.377,13.79 Z M9.82,9.001 C9.82,12.328 10.672,14 12.841,14 C15.01,14 15.862,12.328 15.862,9.001 C15.862,5.674 15.01,4.019 12.841,4.019 C10.672,4.019 9.82,5.674 9.82,9.001 Z M69.83,13.79 L71.839,13.79 L71.839,11.074 L72.305,10.222 L73.414,13.789 L75.584,13.789 L73.574,7.891 L75.584,4.226 L73.446,4.226 L71.839,7.633 L71.839,1.431 L69.83,1.431 L69.83,13.79 Z M67.339,10.641 C67.339,11.525 67.098,12.232 66.52,12.232 C65.78,12.232 65.475,11.155 65.475,9.612 L69.3,9.612 C69.3,9.355 69.316,9.034 69.316,8.793 C69.316,5.997 68.818,4.02 66.439,4.02 C64.253,4.02 63.434,6.173 63.434,9.018 C63.434,12.329 64.43,14.001 66.439,14.001 C68.046,14.001 69.059,13.021 69.268,10.995 L67.339,10.641 Z M29.716,10.641 C29.716,11.525 29.475,12.232 28.897,12.232 C28.158,12.232 27.852,11.155 27.852,9.612 L31.677,9.612 C31.677,9.355 31.693,9.034 31.693,8.793 C31.693,5.997 31.195,4.02 28.816,4.02 C26.63,4.02 25.811,6.173 25.811,9.018 C25.811,12.329 26.807,14.001 28.816,14.001 C30.423,14.001 31.436,13.021 31.645,10.995 L29.716,10.641 Z M61.039,10.641 C61.039,11.525 60.798,12.232 60.219,12.232 C59.481,12.232 59.175,11.155 59.175,9.612 L62.999,9.612 C62.999,9.355 63.016,9.034 63.016,8.793 C63.016,5.997 62.518,4.02 60.139,4.02 C57.953,4.02 57.133,6.173 57.133,9.018 C57.133,12.329 58.13,14.001 60.139,14.001 C61.746,14.001 62.759,13.021 62.968,10.995 L61.039,10.641 Z M78.043,4.228 L80.035,13.437 C80.115,13.791 80.18,14.127 80.18,14.385 C80.18,15.043 79.826,15.333 79.2,15.333 C78.959,15.333 78.654,15.301 78.525,15.252 L78.188,17.004 C78.605,17.085 78.927,17.102 79.232,17.102 C81.032,17.102 81.675,16.186 82.012,14.674 L84.343,4.228 L82.27,4.228 L81.563,8.455 C81.466,9.034 81.337,9.645 81.273,10.207 L81.162,10.207 C81.113,9.66 81.001,9.065 80.921,8.487 L80.277,4.228 L78.043,4.228 Z M37.768,7.747 C37.768,5.561 37.495,4.018 35.919,4.018 C34.907,4.018 34.505,4.517 34.2,5.288 L34.136,5.288 L34.136,4.228 L32.191,4.228 L32.191,13.79 L34.201,13.79 L34.201,7.973 C34.201,6.639 34.555,6.093 35.1,6.093 C35.759,6.093 35.759,6.864 35.759,7.909 L35.759,13.791 L37.768,13.791 L37.768,7.747 Z M44.662,6.687 C44.614,4.983 43.923,4.02 42.22,4.02 C40.822,4.02 39.552,4.807 39.552,6.624 C39.552,8.263 40.564,8.986 41.464,9.645 C42.171,10.175 42.814,10.658 42.814,11.478 C42.814,11.896 42.605,12.281 42.124,12.281 C41.416,12.281 41.304,11.59 41.288,10.802 L39.392,11.124 C39.44,12.971 40.339,14 42.027,14 C43.425,14 44.759,13.34 44.759,11.331 C44.759,9.74 43.714,8.953 42.814,8.262 C42.171,7.748 41.512,7.201 41.512,6.51 C41.512,6.108 41.738,5.739 42.171,5.739 C42.798,5.739 42.798,6.591 42.814,7.025 L44.662,6.687 Z M75.761,13.79 L77.77,13.79 L77.77,1.431 L75.761,1.431 L75.761,13.79 Z M11.893,9.001 C11.893,6.687 12.102,5.803 12.841,5.803 C13.58,5.803 13.789,6.687 13.789,9.001 C13.789,11.315 13.58,12.215 12.841,12.215 C12.102,12.215 11.893,11.316 11.893,9.001 Z M38.025,1.448 L38.025,3.248 L38.813,3.248 C38.796,3.826 38.523,4.083 38.025,4.1 L38.025,5.145 C39.617,5.097 40.034,3.891 40.034,2.589 L40.034,1.448 L38.025,1.448 Z M27.867,8.085 C27.899,7.169 28.012,5.787 28.832,5.787 C29.603,5.787 29.651,7.121 29.651,8.085 L27.867,8.085 Z M65.49,8.085 C65.522,7.169 65.636,5.787 66.455,5.787 C67.226,5.787 67.274,7.121 67.274,8.085 L65.49,8.085 Z M59.191,8.085 C59.223,7.169 59.336,5.787 60.156,5.787 C60.927,5.787 60.975,7.121 60.975,8.085 L59.191,8.085 Z M12.744,1.769 L12.744,3.183 L12.343,3.183 L12.343,1.769 L11.813,1.769 L11.813,1.448 L13.292,1.448 L13.292,1.77 L12.744,1.77 L12.744,1.769 Z M14.818,3.183 L14.818,2.492 L14.079,2.492 L14.079,3.183 L13.678,3.183 L13.678,1.448 L14.079,1.448 L14.079,2.171 L14.818,2.171 L14.818,1.448 L15.22,1.448 L15.22,3.184 L14.818,3.184 L14.818,3.183 Z M15.75,3.183 L15.75,1.448 L17.02,1.448 L17.02,1.77 L16.152,1.77 L16.152,2.171 L16.939,2.171 L16.939,2.492 L16.152,2.492 L16.152,2.862 L17.052,2.862 L17.052,3.184 L15.75,3.184 L15.75,3.183 Z M19.205,3.183 L19.093,2.861 L19.093,2.877 L18.418,2.877 L18.418,2.862 L18.305,3.184 L17.904,3.184 L18.579,1.448 L18.965,1.448 L19.641,3.184 L19.205,3.184 L19.205,3.183 Z M18.755,1.946 L18.53,2.572 L18.996,2.572 L18.755,1.946 Z M20.619,3.216 C20.121,3.216 19.896,2.943 19.896,2.621 L19.896,1.448 L20.297,1.448 L20.297,2.605 C20.297,2.766 20.394,2.878 20.618,2.878 C20.844,2.878 20.956,2.766 20.956,2.605 L20.956,1.448 L21.3420033,1.448 L21.342,2.621 C21.343,2.942 21.117,3.216 20.619,3.216 Z M22.451,3.216 C22.194,3.216 21.985,3.168 21.761,3.055 L21.889,2.749 C22.034,2.813 22.179,2.894 22.436,2.894 C22.661,2.894 22.822,2.814 22.822,2.669 C22.822,2.508 22.677,2.492 22.452,2.46 C22.389,2.46 22.34,2.444 22.275,2.444 C22.003,2.396 21.826,2.267 21.826,1.978 C21.826,1.624 22.131,1.432 22.516,1.432 C22.757,1.432 22.966,1.464 23.16,1.577 L23.014,1.866 C22.837,1.786 22.709,1.754 22.533,1.754 C22.34,1.754 22.212,1.835 22.212,1.947 C22.212,2.092 22.389,2.108 22.581,2.14 C22.613,2.14 22.693,2.156 22.726,2.156 C23.047,2.22 23.208,2.349 23.208,2.654 C23.207,3.023 22.886,3.216 22.451,3.216 Z M24.38,1.769 L24.38,3.183 L23.979,3.183 L23.979,1.769 L23.449,1.769 L23.449,1.448 L24.911,1.448 L24.911,1.77 L24.38,1.77 L24.38,1.769 Z M26.293,3.183 L25.971,2.54 L25.714,2.54 L25.714,3.183 L25.313,3.183 L25.313,1.448 L26.117,1.448 C26.598,1.448 26.711,1.705 26.711,1.947 L26.711,2.059 C26.711,2.268 26.583,2.429 26.374,2.493 L26.743,3.184 L26.293,3.184 L26.293,3.183 Z M26.325,1.946 C26.325,1.849 26.244,1.769 26.052,1.769 L25.714,1.769 L25.714,2.235 L26.035,2.235 C26.228,2.235 26.325,2.171 26.325,2.042 L26.325,1.946 Z M28.27,3.183 L28.158,2.861 L28.158,2.877 L27.482,2.877 L27.482,2.862 L27.37,3.184 L26.969,3.184 L27.644,1.448 L28.03,1.448 L28.705,3.184 L28.27,3.184 L28.27,3.183 Z M27.82,1.946 L27.595,2.572 L28.061,2.572 L27.82,1.946 Z M29.041,3.183 L29.041,1.448 L29.442,1.448 L29.442,2.862 L30.278,2.862 L30.278,3.184 L29.041,3.184 L29.041,3.183 Z M30.68,1.448 L31.082,1.448 L31.082,3.184 L30.68,3.184 L30.68,1.448 Z M32.738,3.183 L32.609,2.861 L32.609,2.877 L31.934,2.877 L31.934,2.862 L31.822,3.184 L31.42,3.184 L32.096,1.448 L32.497,1.448 L33.156,3.184 L32.738,3.184 L32.738,3.183 Z M32.272,1.946 L32.046,2.572 L32.512,2.572 L32.272,1.946 Z M34.65,3.183 L33.863,2.122 L33.863,3.183 L33.493,3.183 L33.493,1.448 L33.863,1.448 L34.65,2.525 L34.65,1.448 L35.004,1.448 L35.004,3.184 L34.65,3.184 L34.65,3.183 Z" id="Shape"></path>
        </g>
    </g>
</svg>