<svg xmlns="http://www.w3.org/2000/svg" width="322px" height="108px" viewBox="0 0 322 108"><path d="M147.56 33.19v42.45c-1 .14-2.1.26-3.35.36s-2.44.15-3.56.15q-5.44 0-7.42-3.35t-2-10.88V33.16h-15.58V63.8a43.45 43.45 0 0 0 1.14 10.35 20.56 20.56 0 0 0 3.86 8.11 17.73 17.73 0 0 0 7.35 5.29 31.3 31.3 0 0 0 11.66 1.89 84.31 84.31 0 0 0 13.18-1 85.13 85.13 0 0 0 10.25-2.13l.06-53.12zM259.75 74.5a26.79 26.79 0 0 1-4.82 1.29 29.4 29.4 0 0 1-5.13.47c-3.45 0-6.75-1-7.89-2.9a15.18 15.18 0 0 1-1.71-7.77V46.44h19.54V33.6h-19.52V17.95s-2.07 2.61-7.05 2.61a11.26 11.26 0 0 1-7.38-2.55V65.8a43.87 43.87 0 0 0 1 9.63 17.64 17.64 0 0 0 3.47 7.4 16.32 16.32 0 0 0 6.63 4.76 27.63 27.63 0 0 0 10.46 1.71 36.37 36.37 0 0 0 8.39-.83 43.62 43.62 0 0 0 6.21-2zM107.81 48.73a26.51 26.51 0 0 0-5.53-9.1 24.8 24.8 0 0 0-8.52-5.86 29.43 29.43 0 0 0-21.76 0 25.48 25.48 0 0 0-8.58 5.85 26.86 26.86 0 0 0-5.66 9.09 32.83 32.83 0 0 0-2 11.81 34.08 34.08 0 0 0 2 11.87 27.07 27.07 0 0 0 5.53 9.21 24.41 24.41 0 0 0 8.52 5.92 30.41 30.41 0 0 0 22.16 0 24.49 24.49 0 0 0 8.53-5.9 25.74 25.74 0 0 0 5.45-9.2 35.76 35.76 0 0 0 1.89-11.87 33.73 33.73 0 0 0-2.03-11.82zM91 72.01a9.33 9.33 0 0 1-8.21 4.23 9.46 9.46 0 0 1-8.25-4.23q-2.92-4.25-2.92-11.45t2.94-11.34a9.54 9.54 0 0 1 8.27-4.21A9.43 9.43 0 0 1 91 49.18q2.86 4.14 2.86 11.35T91 72.01zM214.1 39.01a17.52 17.52 0 0 0-7.37-5.18 32.11 32.11 0 0 0-11.66-1.82 84.31 84.31 0 0 0-13.18 1 87.12 87.12 0 0 0-10.25 2.13l-.06 53.12h15.58V45.81c1-.14 2.09-.26 3.35-.36s2.45-.15 3.56-.15q5.44 0 7.42 3.14t2 10.67v29.17h15.58V57.22A42.29 42.29 0 0 0 218 47.01a20.19 20.19 0 0 0-3.9-8zM306.19 33.36q-1.06 4.08-2.37 8.83t-2.74 9.62q-1.43 4.86-2.9 9.46c-1 3.07-1.93 5.85-2.84 8.36q-1.47-3.77-3.09-8.37T289 51.8q-1.58-4.86-3-9.62t-2.46-8.84H267a289.45 289.45 0 0 0 10 29.24q5.33 13 10.65 23.49a18 18 0 0 1-3.83 6.22 8.69 8.69 0 0 1-6.43 2.24 24.34 24.34 0 0 1-4-.32 26.39 26.39 0 0 1-4.19-1.2l-2.73 12.44a31.22 31.22 0 0 0 5.08 1.52 32 32 0 0 0 6.76.69 26.7 26.7 0 0 0 7.7-1 17 17 0 0 0 5.92-3.13 24.46 24.46 0 0 0 4.82-5.43 61 61 0 0 0 4.41-8q6.09-13.07 11.25-27t9.88-29.79zM48.58 50.83a25.22 25.22 0 0 0-4.43-8.73 19.61 19.61 0 0 0-7.25-5.6 23.88 23.88 0 0 0-10-2 27.34 27.34 0 0 0-5.85.6 32.84 32.84 0 0 0-5.65 1.71l-.47-20s-2 2.5-7.11 2.5a13.67 13.67 0 0 1-7.5-2.21v69.83c1.34.4 3.29.79 5 1.16s3.58.69 5.49 1 3.86.49 5.85.66 3.88.26 5.7.26a32.41 32.41 0 0 0 11.7-2 23.66 23.66 0 0 0 8.68-5.59 24.14 24.14 0 0 0 5.4-8.77A33.53 33.53 0 0 0 50 62.16a39.77 39.77 0 0 0-1.42-11.33zM32.09 73.47q-3.23 4.35-9.53 4.34a22.37 22.37 0 0 1-3.83-.36 14.43 14.43 0 0 1-3.4-1V50.19a9 9 0 0 1 4.28-2.55 20.22 20.22 0 0 1 4.71-.63q11 0 11 14.92-.01 7.19-3.23 11.54z" fill="#e24e42"/><circle cx="252.87" cy="22.51" r="5.67" fill="#e8b021"/><circle cx="233.27" cy="9" r="7.8" fill="#f47a20"/><circle cx="7.8" cy="7.8" r="7.8" fill="#eb6e80"/></svg>