<?xml version="1.0" encoding="UTF-8"?>
<svg width="481px" height="151px" viewBox="0 0 481 151" version="1.1" xmlns="http://www.w3.org/2000/svg" xmlns:xlink="http://www.w3.org/1999/xlink">
    <!-- Generator: Sketch 52.6 (67491) - http://www.bohemiancoding.com/sketch -->
    <title>Empire</title>
    <desc>Created with Sketch.</desc>
    <g id="Page-1" stroke="none" stroke-width="1" fill="none" fill-rule="evenodd">
        <g id="Empire">
            <path d="M372.61,91.26 C372.61,91.26 403.87,81.77 403,51.44 C402.29,36.08 396.71,24.44 379.38,14.38 C360.54,3.5 322.71,1.66 322.71,1.66 L322.79,124.16 L349,124.16 L349,100 L382.29,124.82 L404.35,115.55 L372.61,91.26 Z M350.82,76.6 L350.82,27.45 C356.069038,28.2441646 361.179545,29.77597 366,32 C374.1,35.94 379.34,43.47 379.34,51.18 C379.34,61.06 375.34,67.18 366.28,70.98 C361.224907,73.1132776 356.064957,74.9890162 350.82,76.6 Z" id="Shape" fill="#ED1C24" fill-rule="nonzero"></path>
            <polygon id="Path" fill="#ED1C24" points="0.17 1.86 67.33 1.86 69.8 22.5 25.76 22.5 25.76 45.19 58.84 45.19 58.84 65.52 25.96 65.52 25.96 104.08 69.97 104.08 66.62 124.21 0 124.22"></polygon>
            <polygon id="Path" fill="#ED1C24" points="410.77 1.86 477.94 1.86 480.4 22.5 436.37 22.5 436.37 44.8 469.44 44.8 469.44 65.13 436.56 65.13 436.56 104.08 480.57 104.08 477.23 124.21 410.6 124.22"></polygon>
            <rect id="Rectangle" fill="#ED1C24" x="287.51" y="1.66" width="26.03" height="122.57"></rect>
            <polygon id="Path" fill="#ED1C24" points="75.42 124.15 83.3 0.25 135.87 83.76 186.33 0 194.2 123.91 168.2 124.15 165.54 81.2 135.28 126.69 103.92 80.62 101.46 124.07"></polygon>
            <path d="M281.07,51.68 C280.62,36.78 274.6,24.43 258.46,14.46 C239.46,2.68 201.12,1.66 201.12,1.66 L201.12,124.09 L227.26,124.09 L227.26,99.85 C227.26,99.85 247.96,94.97 262.6,85.21 C275.87,76.35 281.5,65.88 281.07,51.68 Z M247.67,69.29 C241.34,73.05 233.21,75.57 229.12,76.7 L229.12,27.4 C233.12,27.98 241.81,29.7 248.27,34.51 C254.48,39.13 257.63,45.15 257.63,52.39 C257.63,60 254.55,65.19 247.67,69.29 Z" id="Shape" fill="#ED1C24" fill-rule="nonzero"></path>
            <polygon id="Path" fill="#231F20" points="5.26 135.61 0 135.61 0 132.87 13.42 132.87 13.42 135.61 8.18 135.61 8.18 150.29 5.26 150.29"></polygon>
            <polygon id="Path" fill="#231F20" points="16.21 132.87 19.13 132.87 19.13 140.11 27 140.11 27 132.87 29.92 132.87 29.92 150.29 27 150.29 27 142.83 19.13 142.83 19.13 150.29 16.21 150.29"></polygon>
            <polygon id="Path" fill="#231F20" points="33.9 132.87 44.36 132.87 44.36 135.61 36.79 135.61 36.79 140.26 42.79 140.26 42.79 142.88 36.79 142.88 36.79 147.67 44.48 147.67 44.48 150.29 33.9 150.29"></polygon>
            <polygon id="Path" fill="#231F20" points="52.85 132.87 55.85 132.87 60 144.09 63.7 133.34 64.37 133.34 68.1 144.21 72.25 132.87 75.15 132.87 68.52 150.51 67.78 150.51 64 139.69 60.21 150.51 59.47 150.51"></polygon>
            <path d="M76.18,141.59 C76.18,136.18 79.66,132.59 84.18,132.59 C88.7,132.59 92.18,136.17 92.18,141.59 C92.18,147.01 88.69,150.59 84.18,150.59 C79.67,150.59 76.18,147 76.18,141.59 Z M89.18,141.59 C89.18,137.83 87.13,135.31 84.18,135.31 C81.23,135.31 79.18,137.83 79.18,141.59 C79.18,145.35 81.18,147.89 84.18,147.89 C87.18,147.89 89.18,145.4 89.18,141.64 L89.18,141.59 Z" id="Shape" fill="#231F20" fill-rule="nonzero"></path>
            <path d="M108.65,150.29 L105.39,150.29 L101.76,144.68 C101.05305,144.762694 100.341764,144.802766 99.63,144.8 L98.37,144.8 L98.37,150.29 L95.48,150.29 L95.48,132.87 L98.86,132.87 C104.8,132.87 107.66,134.72 107.66,138.87 C107.785632,141.03547 106.525125,143.042646 104.52,143.87 L108.65,150.29 Z M99.65,142.29 C103.41,142.29 104.8,141.15 104.8,138.95 C104.8,136.75 103.36,135.62 99.65,135.62 L98.37,135.62 L98.37,142.29 L99.65,142.29 Z" id="Shape" fill="#231F20" fill-rule="nonzero"></path>
            <polygon id="Path" fill="#231F20" points="111.56 132.87 114.48 132.87 114.48 147.67 122 147.67 122 150.29 111.56 150.29"></polygon>
            <path d="M124.83,132.87 L127.83,132.87 C134.23,132.87 138.26,135.49 138.26,141.59 C138.26,147.69 134.26,150.29 127.83,150.29 L124.83,150.29 L124.83,132.87 Z M129.18,147.67 C133.24,147.67 135.31,145.55 135.31,141.67 C135.31,137.79 133.26,135.61 129.18,135.61 L127.75,135.61 L127.75,147.67 L129.18,147.67 Z" id="Shape" fill="#231F20" fill-rule="nonzero"></path>
            <polygon id="Path" fill="#231F20" points="142.38 132.87 145.47 132.87 143.29 139.69 141.29 139.69"></polygon>
            <path d="M147.47,149.23 L148.38,146.73 C150.108219,147.468851 151.961063,147.872676 153.84,147.92 C156.07,147.92 157.28,147.18 157.28,145.72 C157.28,144.26 155.52,143.5 153.57,142.72 C150.83,141.72 148.08,140.62 148.08,137.28 C148.08,133.94 150.65,132.61 154.29,132.61 C155.97767,132.574756 157.65591,132.870317 159.23,133.48 L158.41,136.05 C157.00792,135.545939 155.529925,135.285514 154.04,135.28 C152.21,135.28 151.04,135.85 151.04,137.18 C151.04,138.69 152.77,139.33 154.7,140.1 C157.44,141.16 160.23,142.25 160.23,145.59 C160.23,148.45 158.36,150.53 153.49,150.53 C151.411714,150.548889 149.355294,150.104811 147.47,149.23 Z" id="Path" fill="#231F20"></path>
            <path d="M170,132.87 L173.78,132.87 C178.78,132.87 181.67,134 181.67,137.37 C181.694535,139.143825 180.512883,140.708382 178.8,141.17 C180.75,141.62 182.41,142.83 182.41,145.37 C182.41,148.59 179.79,150.29 174.13,150.29 L170,150.29 L170,132.87 Z M174.75,140.06 C177.61,140.06 178.75,139.29 178.75,137.71 C178.75,136.13 177.26,135.49 174.4,135.49 L172.71,135.49 L172.71,140.06 L174.75,140.06 Z M174.52,147.75 C178.21,147.75 179.52,146.86 179.52,145.13 C179.52,143.4 177.86,142.51 174.72,142.51 L172.72,142.51 L172.72,147.75 L174.52,147.75 Z" id="Shape" fill="#231F20" fill-rule="nonzero"></path>
            <polygon id="Path" fill="#231F20" points="185.67 132.87 188.58 132.87 188.58 150.29 185.67 150.29"></polygon>
            <path d="M192,141.59 C192,135.59 196.08,132.59 200.8,132.59 C202.163611,132.58207 203.517853,132.815676 204.8,133.28 L204.01,135.9 C203.010759,135.573185 201.970639,135.38805 200.92,135.35 C197.36,135.35 194.92,137.65 194.92,141.66 C194.92,145.67 197.27,147.93 200.5,147.93 C201.130334,147.938269 201.758033,147.847151 202.36,147.66 L202.36,142 L205.15,142 L205.15,149.76 C203.642374,150.304763 202.052991,150.588823 200.45,150.6 C196.07,150.56 192,147.62 192,141.59 Z" id="Path" fill="#231F20"></path>
            <path d="M208.25,141.59 C208.25,135.59 212.33,132.59 217.05,132.59 C218.413611,132.58207 219.767853,132.815676 221.05,133.28 L220.26,135.9 C219.260759,135.573185 218.220639,135.38805 217.17,135.35 C213.61,135.35 211.17,137.65 211.17,141.66 C211.17,145.67 213.52,147.93 216.75,147.93 C217.380334,147.938269 218.008033,147.847151 218.61,147.66 L218.61,142 L221.4,142 L221.4,149.76 C219.892374,150.304763 218.302991,150.588823 216.7,150.6 C212.28,150.56 208.25,147.62 208.25,141.59 Z" id="Path" fill="#231F20"></path>
            <polygon id="Path" fill="#231F20" points="225.43 132.87 235.88 132.87 235.88 135.61 228.32 135.61 228.32 140.26 234.32 140.26 234.32 142.88 228.32 142.88 228.32 147.67 236 147.67 236 150.29 225.43 150.29"></polygon>
            <path d="M238.13,149.23 L239.04,146.73 C240.768219,147.468851 242.621063,147.872676 244.5,147.92 C246.73,147.92 247.94,147.18 247.94,145.72 C247.94,144.26 246.18,143.5 244.23,142.72 C241.49,141.72 238.74,140.62 238.74,137.28 C238.74,133.94 241.31,132.61 244.95,132.61 C246.63767,132.574756 248.31591,132.870317 249.89,133.48 L249.08,136.05 C247.674254,135.546716 246.19311,135.286332 244.7,135.28 C242.87,135.28 241.7,135.85 241.7,137.18 C241.7,138.69 243.43,139.33 245.36,140.1 C248.1,141.16 250.89,142.25 250.89,145.59 C250.89,148.45 249.02,150.53 244.15,150.53 C242.071439,150.551585 240.014432,150.107381 238.13,149.23 Z" id="Path" fill="#231F20"></path>
            <polygon id="Path" fill="#231F20" points="257.62 135.61 252.36 135.61 252.36 132.87 265.78 132.87 265.78 135.61 260.54 135.61 260.54 150.29 257.62 150.29"></polygon>
            <polygon id="Path" fill="#231F20" points="275.91 132.64 276.91 132.64 283.54 145 290.22 132.64 291.22 132.64 292.48 150.29 289.59 150.29 288.87 140.16 283.78 149.72 283.21 149.72 278.1 140.16 277.4 150.29 274.69 150.29"></polygon>
            <path d="M295.13,141.59 C295.13,136.18 298.62,132.59 303.13,132.59 C307.64,132.59 311.13,136.17 311.13,141.59 C311.13,147.01 307.64,150.59 303.13,150.59 C298.62,150.59 295.13,147 295.13,141.59 Z M308.13,141.59 C308.13,137.83 306.08,135.31 303.13,135.31 C300.18,135.31 298.13,137.83 298.13,141.59 C298.13,145.35 300.13,147.89 303.13,147.89 C306.13,147.89 308.13,145.4 308.13,141.64 L308.13,141.59 Z" id="Shape" fill="#231F20" fill-rule="nonzero"></path>
            <polygon id="Path" fill="#231F20" points="311.88 132.87 315 132.87 319.92 144.87 324.74 132.87 327.65 132.87 320.31 150.49 319.31 150.49"></polygon>
            <polygon id="Path" fill="#231F20" points="330.14 132.87 333.06 132.87 333.06 150.29 330.14 150.29"></polygon>
            <polygon id="Path" fill="#231F20" points="337.19 132.87 347.64 132.87 347.64 135.61 340.08 135.61 340.08 140.26 346.08 140.26 346.08 142.88 340.08 142.88 340.08 147.67 347.76 147.67 347.76 150.29 337.19 150.29"></polygon>
            <polygon id="Path" fill="#231F20" points="358.49 132.64 359.49 132.64 366.12 145 372.8 132.64 373.8 132.64 375 150.29 372.11 150.29 371.39 140.16 366.3 149.72 365.73 149.72 360.62 140.16 359.92 150.29 357.21 150.29"></polygon>
            <path d="M379.86,150.29 L376.94,150.29 L384.28,132.67 L385.22,132.67 L392.66,150.29 L389.6,150.29 L388.34,147.2 L381.09,147.2 L379.86,150.29 Z M384.68,138.29 L382.06,144.76 L387.32,144.76 L384.68,138.29 Z" id="Shape" fill="#231F20" fill-rule="nonzero"></path>
            <path d="M393.45,141.59 C393.45,135.59 397.53,132.59 402.25,132.59 C403.613611,132.58207 404.967853,132.815676 406.25,133.28 L405.46,135.9 C404.460759,135.573185 403.420639,135.38805 402.37,135.35 C398.81,135.35 396.37,137.65 396.37,141.66 C396.37,145.67 398.72,147.93 401.96,147.93 C402.587109,147.939069 403.211641,147.847921 403.81,147.66 L403.81,142 L406.61,142 L406.61,149.76 C405.102374,150.304763 403.512991,150.588823 401.91,150.6 C397.48,150.56 393.45,147.62 393.45,141.59 Z" id="Path" fill="#231F20"></path>
            <path d="M411.69,150.29 L408.77,150.29 L416.11,132.67 L417.05,132.67 L424.49,150.29 L421.43,150.29 L420.17,147.2 L412.92,147.2 L411.69,150.29 Z M416.51,138.29 L413.89,144.76 L419.15,144.76 L416.51,138.29 Z" id="Shape" fill="#231F20" fill-rule="nonzero"></path>
            <polygon id="Path" fill="#231F20" points="425.85 149.8 434.12 135.61 426.71 135.61 426.71 132.87 438.71 132.87 438.71 133.34 430.33 147.67 438.74 147.67 438.74 150.29 425.84 150.29"></polygon>
            <polygon id="Path" fill="#231F20" points="442 132.87 444.92 132.87 444.92 150.29 442 150.29"></polygon>
            <polygon id="Path" fill="#231F20" points="451.84 139 451.84 150.32 449.05 150.32 449.05 132.74 450.05 132.74 459.91 144.04 459.91 132.87 462.71 132.87 462.71 150.41 461.89 150.41"></polygon>
            <polygon id="Path" fill="#231F20" points="466.64 132.87 477.09 132.87 477.09 135.61 469.53 135.61 469.53 140.26 475.53 140.26 475.53 142.88 469.53 142.88 469.53 147.67 477.22 147.67 477.22 150.29 466.64 150.29"></polygon>
        </g>
    </g>
</svg>