<svg xmlns="http://www.w3.org/2000/svg" viewBox="0 0 480.57 150.59"><defs><style>.cls-1{fill:#ed1c24;}.cls-2{fill:#231f20;}</style></defs><title>Empire</title><g id="Layer_2" data-name="Layer 2"><g id="Layer_1-2" data-name="Layer 1"><path class="cls-1" d="M372.61,91.26S403.87,81.77,403,51.44c-.71-15.36-6.29-27-23.62-37.06C360.54,3.5,322.71,1.66,322.71,1.66l.08,122.5H349V100l33.29,24.82,22.06-9.27ZM350.82,76.6V27.45A56.36,56.36,0,0,1,366,32c8.1,3.94,13.34,11.47,13.34,19.18,0,9.88-4,16-13.06,19.8A162.41,162.41,0,0,1,350.82,76.6Z"/><polygon class="cls-1" points="0.17 1.86 67.33 1.86 69.8 22.5 25.76 22.5 25.76 45.19 58.84 45.19 58.84 65.52 25.96 65.52 25.96 104.08 69.97 104.08 66.62 124.21 0 124.22 0.17 1.86"/><polygon class="cls-1" points="410.77 1.86 477.94 1.86 480.4 22.5 436.37 22.5 436.37 44.8 469.44 44.8 469.44 65.13 436.56 65.13 436.56 104.08 480.57 104.08 477.23 124.21 410.6 124.22 410.77 1.86"/><rect class="cls-1" x="287.51" y="1.66" width="26.03" height="122.57"/><polygon class="cls-1" points="75.42 124.15 83.3 0.25 135.87 83.76 186.33 0 194.2 123.91 168.2 124.15 165.54 81.2 135.28 126.69 103.92 80.62 101.46 124.07 75.42 124.15"/><path class="cls-1" d="M281.07,51.68c-.45-14.9-6.47-27.25-22.61-37.22-19-11.78-57.34-12.8-57.34-12.8l0,122.43h26.14V99.85s20.7-4.88,35.34-14.64C275.87,76.35,281.5,65.88,281.07,51.68Zm-33.4,17.61c-6.33,3.76-14.46,6.28-18.55,7.41V27.4c4,.58,12.69,2.3,19.15,7.11,6.21,4.62,9.36,10.64,9.36,17.88C257.63,60,254.55,65.19,247.67,69.29Z"/><path class="cls-2" d="M5.26,135.61H0v-2.74H13.42v2.74H8.18v14.68H5.26Z"/><path class="cls-2" d="M16.21,132.87h2.92v7.24H27v-7.24h2.92v17.42H27v-7.46H19.13v7.46H16.21Z"/><path class="cls-2" d="M33.9,132.87H44.36v2.74H36.79v4.65h6v2.62h-6v4.79h7.69v2.62H33.9Z"/><path class="cls-2" d="M52.85,132.87h3L60,144.09l3.7-10.75h.67l3.73,10.87,4.15-11.34h2.9l-6.63,17.64h-.74L64,139.69l-3.79,10.82h-.74Z"/><path class="cls-2" d="M76.18,141.59c0-5.41,3.48-9,8-9s8,3.58,8,9-3.49,9-8,9S76.18,147,76.18,141.59Zm13,0c0-3.76-2.05-6.28-5-6.28s-5,2.52-5,6.28,2,6.3,5,6.3S89.18,145.4,89.18,141.64Z"/><path class="cls-2" d="M108.65,150.29h-3.26l-3.63-5.61a17.74,17.74,0,0,1-2.13.12H98.37v5.49H95.48V132.87h3.38c5.94,0,8.8,1.85,8.8,6a5.09,5.09,0,0,1-3.14,5Zm-9-8c3.76,0,5.15-1.14,5.15-3.34s-1.44-3.33-5.15-3.33H98.37v6.67Z"/><path class="cls-2" d="M111.56,132.87h2.92v14.8H122v2.62H111.56Z"/><path class="cls-2" d="M124.83,132.87h3c6.4,0,10.43,2.62,10.43,8.72s-4,8.7-10.43,8.7h-3Zm4.35,14.8c4.06,0,6.13-2.12,6.13-6s-2.05-6.06-6.13-6.06h-1.43v12.06Z"/><path class="cls-2" d="M142.38,132.87h3.09l-2.18,6.82h-2Z"/><path class="cls-2" d="M147.47,149.23l.91-2.5a14.84,14.84,0,0,0,5.46,1.19c2.23,0,3.44-.74,3.44-2.2s-1.76-2.22-3.71-3c-2.74-1-5.49-2.1-5.49-5.44s2.57-4.67,6.21-4.67a12.93,12.93,0,0,1,4.94.87l-.82,2.57a13.06,13.06,0,0,0-4.37-.77c-1.83,0-3,.57-3,1.9,0,1.51,1.73,2.15,3.66,2.92,2.74,1.06,5.53,2.15,5.53,5.49,0,2.86-1.87,4.94-6.74,4.94A14,14,0,0,1,147.47,149.23Z"/><path class="cls-2" d="M170,132.87h3.78c5,0,7.89,1.13,7.89,4.5a3.88,3.88,0,0,1-2.87,3.8c1.95.45,3.61,1.66,3.61,4.2,0,3.22-2.62,4.92-8.28,4.92H170Zm4.75,7.19c2.86,0,4-.77,4-2.35s-1.49-2.22-4.35-2.22h-1.69v4.57Zm-.23,7.69c3.69,0,5-.89,5-2.62s-1.66-2.62-4.8-2.62h-2v5.24Z"/><path class="cls-2" d="M185.67,132.87h2.91v17.42h-2.91Z"/><path class="cls-2" d="M192,141.59c0-6,4.08-9,8.8-9a11.55,11.55,0,0,1,4,.69l-.79,2.62a11.25,11.25,0,0,0-3.09-.55c-3.56,0-6,2.3-6,6.31s2.35,6.27,5.58,6.27a6,6,0,0,0,1.86-.27V142h2.79v7.76a14.12,14.12,0,0,1-4.7.84C196.07,150.56,192,147.62,192,141.59Z"/><path class="cls-2" d="M208.25,141.59c0-6,4.08-9,8.8-9a11.55,11.55,0,0,1,4,.69l-.79,2.62a11.25,11.25,0,0,0-3.09-.55c-3.56,0-6,2.3-6,6.31s2.35,6.27,5.58,6.27a6,6,0,0,0,1.86-.27V142h2.79v7.76a14.12,14.12,0,0,1-4.7.84C212.28,150.56,208.25,147.62,208.25,141.59Z"/><path class="cls-2" d="M225.43,132.87h10.45v2.74h-7.56v4.65h6v2.62h-6v4.79H236v2.62H225.43Z"/><path class="cls-2" d="M238.13,149.23l.91-2.5a14.84,14.84,0,0,0,5.46,1.19c2.23,0,3.44-.74,3.44-2.2s-1.76-2.22-3.71-3c-2.74-1-5.49-2.1-5.49-5.44s2.57-4.67,6.21-4.67a12.93,12.93,0,0,1,4.94.87l-.81,2.57a13.16,13.16,0,0,0-4.38-.77c-1.83,0-3,.57-3,1.9,0,1.51,1.73,2.15,3.66,2.92,2.74,1.06,5.53,2.15,5.53,5.49,0,2.86-1.87,4.94-6.74,4.94A13.92,13.92,0,0,1,238.13,149.23Z"/><path class="cls-2" d="M257.62,135.61h-5.26v-2.74h13.42v2.74h-5.24v14.68h-2.92Z"/><path class="cls-2" d="M275.91,132.64h1L283.54,145l6.68-12.36h1l1.26,17.65h-2.89l-.72-10.13-5.09,9.56h-.57l-5.11-9.56-.7,10.13h-2.71Z"/><path class="cls-2" d="M295.13,141.59c0-5.41,3.49-9,8-9s8,3.58,8,9-3.49,9-8,9S295.13,147,295.13,141.59Zm13,0c0-3.76-2.05-6.28-5-6.28s-5,2.52-5,6.28,2,6.3,5,6.3S308.13,145.4,308.13,141.64Z"/><path class="cls-2" d="M311.88,132.87H315l4.92,12,4.82-12h2.91l-7.34,17.62h-1Z"/><path class="cls-2" d="M330.14,132.87h2.92v17.42h-2.92Z"/><path class="cls-2" d="M337.19,132.87h10.45v2.74h-7.56v4.65h6v2.62h-6v4.79h7.68v2.62H337.19Z"/><path class="cls-2" d="M358.49,132.64h1L366.12,145l6.68-12.36h1L375,150.29h-2.89l-.72-10.13-5.09,9.56h-.57l-5.11-9.56-.7,10.13h-2.71Z"/><path class="cls-2" d="M379.86,150.29h-2.92l7.34-17.62h.94l7.44,17.62H389.6l-1.26-3.09h-7.25Zm4.82-12-2.62,6.47h5.26Z"/><path class="cls-2" d="M393.45,141.59c0-6,4.08-9,8.8-9a11.55,11.55,0,0,1,4,.69l-.79,2.62a11.25,11.25,0,0,0-3.09-.55c-3.56,0-6,2.3-6,6.31s2.35,6.27,5.59,6.27a5.89,5.89,0,0,0,1.85-.27V142h2.8v7.76a14.12,14.12,0,0,1-4.7.84C397.48,150.56,393.45,147.62,393.45,141.59Z"/><path class="cls-2" d="M411.69,150.29h-2.92l7.34-17.62h.94l7.44,17.62h-3.06l-1.26-3.09h-7.25Zm4.82-12-2.62,6.47h5.26Z"/><path class="cls-2" d="M425.85,149.8l8.27-14.19h-7.41v-2.74h12v.47l-8.38,14.33h8.41v2.62h-12.9Z"/><path class="cls-2" d="M442,132.87h2.92v17.42H442Z"/><path class="cls-2" d="M451.84,139v11.32h-2.79V132.74h1l9.86,11.3V132.87h2.8v17.54h-.82Z"/><path class="cls-2" d="M466.64,132.87h10.45v2.74h-7.56v4.65h6v2.62h-6v4.79h7.69v2.62H466.64Z"/></g></g></svg>