<?xml version="1.0" encoding="utf-8"?>
<!-- Generator: Adobe Illustrator 16.0.0, SVG Export Plug-In . SVG Version: 6.00 Build 0)  -->
<!DOCTYPE svg PUBLIC "-//W3C//DTD SVG 1.1//EN" "http://www.w3.org/Graphics/SVG/1.1/DTD/svg11.dtd">
<svg version="1.1" id="Layer_1" xmlns="http://www.w3.org/2000/svg" xmlns:xlink="http://www.w3.org/1999/xlink" x="0px" y="0px"
	 width="72.082px" height="24px" viewBox="-0.083 0 72.082 24" enable-background="new -0.083 0 72.082 24" xml:space="preserve">
<g>
	<g>
		<g>
			<g>
				<defs>
					<rect id="SVGID_1_" x="-1.193" y="2.05" width="74.386" height="14.5"/>
				</defs>
				<clipPath id="SVGID_2_">
					<use xlink:href="#SVGID_1_"  overflow="visible"/>
				</clipPath>
				<path clip-path="url(#SVGID_2_)" fill="#D5E04E" d="M67.331,2.44h-2.232v13.677h2.232v-6.89
					c0.417-0.535,0.946-1.071,1.586-1.071c0.964,0,0.93,1.237,0.93,2.042v5.92h2.23V9.146c0-2.433-1.306-3.073-2.23-3.073
					c-0.944,0-1.815,0.535-2.536,1.236V2.44H67.331z M62.797,3.823h-2.234v2.454h-1.06v2.167h1.042v4.826
					c0,2.146,1.154,3.054,2.532,3.054c0.494,0,0.965-0.146,1.438-0.289v-1.981c-0.267,0.186-0.513,0.371-0.888,0.371
					c-0.723,0-0.852-0.494-0.852-0.968V8.444h1.739V6.277h-1.739V3.823H62.797z M59.219,2.44h-2.229v13.677h2.229V2.44z
					 M54.132,13.126c-0.416,0.659-1.06,1.279-1.985,1.279c-0.529,0-0.775-0.475-0.775-1.053c0-1.442,1.836-1.546,2.761-1.73V13.126z
					 M54.511,16.118h2.176c-0.267-0.662-0.305-1.362-0.305-2.064V9.167c0-1.836-1.037-3.114-3.328-3.114
					c-1.775,0-2.984,0.661-3.479,2.763l2.155,0.391c0.117-0.864,0.644-1.236,1.342-1.236c0.835,0,1.23,0.494,1.08,1.855
					c-1.796,0.229-4.954,0.785-4.954,3.57c0,1.75,1.192,2.906,2.667,2.906c1.076,0,1.57-0.412,2.401-1.114L54.511,16.118z
					 M48.837,11.808c0.059-4.56-1.566-5.734-3.705-5.734c-2.476,0-3.723,2.516-3.723,5.135c0,2.6,1.247,5.136,3.723,5.136
					c1.608,0,3.232-1.115,3.705-3.053l-2.078-0.435c-0.172,0.826-0.605,1.589-1.398,1.589c-1.152,0-1.778-1.4-1.703-2.6h5.182
					v-0.038H48.837z M43.752,10.178c0.038-1.053,0.436-2.188,1.457-2.188c1.077,0,1.454,1.095,1.454,2.188H43.752z M34.884,7.782
					V2.44H32.52v13.677h2.364v-6.004h3.896v6.005h2.364V2.44H38.78v5.342H34.884z"/>
			</g>
		</g>
	</g>
	<g>
		<g>
			<g>
				<defs>
					<rect id="SVGID_3_" x="-1.193" y="2.05" width="74.386" height="14.5"/>
				</defs>
				<clipPath id="SVGID_4_">
					<use xlink:href="#SVGID_3_"  overflow="visible"/>
				</clipPath>
				<path clip-path="url(#SVGID_4_)" fill="#6BC5AA" d="M29.835,9.208v3.795c-0.34,0.619-0.794,1.134-1.456,1.134
					c-1.342,0-1.552-1.897-1.552-3.072c0-1.093,0.266-2.907,1.495-2.907C28.983,8.137,29.439,8.651,29.835,9.208 M30.271,16.118
					h1.797V2.482L29.836,2.44v4.806c-0.643-0.659-1.172-1.175-2.079-1.175c-1.23,0-3.102,1.236-3.102,4.887
					c0,4.146,1.572,5.382,3.292,5.382c0.944,0,1.475-0.329,2.154-1.033L30.271,16.118z M20.57,14.425
					c-1.21,0-1.418-1.979-1.418-3.217c0-1.236,0.208-3.219,1.418-3.219c1.21,0,1.417,1.982,1.417,3.219
					C21.987,12.445,21.78,14.425,20.57,14.425 M20.57,16.344c2.458,0,3.725-2.536,3.725-5.136c0-2.619-1.248-5.135-3.725-5.135
					c-2.478,0-3.725,2.516-3.725,5.135C16.845,13.808,18.093,16.344,20.57,16.344 M13.082,14.425c-1.21,0-1.417-1.979-1.417-3.217
					c0-1.236,0.207-3.219,1.417-3.219S14.5,9.972,14.5,11.208C14.5,12.445,14.292,14.425,13.082,14.425 M13.082,16.344
					c2.458,0,3.725-2.536,3.725-5.136c0-2.619-1.248-5.135-3.725-5.135c-2.478,0-3.725,2.516-3.725,5.135
					C9.358,13.808,10.606,16.344,13.082,16.344 M6.918,11.414c0.096,1.546-0.245,2.764-2.08,2.764c-2.023,0-2.44-3.138-2.44-4.888
					c0-1.754,0.19-4.868,2.44-4.889c1.477-0.021,2.023,1.135,2.23,2.433l2.119-0.37C8.942,3.865,7.165,2.236,4.838,2.236
					c-3.367,0-4.86,3.609-4.86,7.055c0,3.446,1.493,7.053,4.86,7.053c0.794,0,1.796-0.309,2.459-1.174l0.226,0.97h1.646V9.27H4.857
					v2.165h2.061V11.414z"/>
			</g>
		</g>
	</g>
	<g>
		<g>
			<g>
				<defs>
					<rect id="SVGID_5_" x="-1.193" y="2.05" width="74.386" height="14.5"/>
				</defs>
				<clipPath id="SVGID_6_">
					<use xlink:href="#SVGID_5_"  overflow="visible"/>
				</clipPath>
				<path clip-path="url(#SVGID_6_)" fill="none" d="M29.835,9.208v3.795c-0.34,0.619-0.794,1.134-1.456,1.134
					c-1.342,0-1.552-1.897-1.552-3.072c0-1.093,0.266-2.907,1.495-2.907C28.983,8.137,29.439,8.651,29.835,9.208z M30.271,16.118
					h1.797V2.482L29.836,2.44v4.806c-0.643-0.659-1.172-1.175-2.079-1.175c-1.23,0-3.102,1.236-3.102,4.887
					c0,4.146,1.572,5.382,3.292,5.382c0.944,0,1.475-0.329,2.154-1.033L30.271,16.118z M20.57,14.425
					c-1.21,0-1.418-1.979-1.418-3.217c0-1.236,0.208-3.219,1.418-3.219c1.21,0,1.417,1.982,1.417,3.219
					C21.987,12.445,21.78,14.425,20.57,14.425z M20.57,16.344c2.458,0,3.725-2.536,3.725-5.136c0-2.619-1.248-5.135-3.725-5.135
					c-2.478,0-3.725,2.516-3.725,5.135C16.845,13.808,18.093,16.344,20.57,16.344z M13.082,14.425c-1.21,0-1.417-1.979-1.417-3.217
					c0-1.236,0.207-3.219,1.417-3.219S14.5,9.972,14.5,11.208C14.5,12.445,14.292,14.425,13.082,14.425z M13.082,16.344
					c2.458,0,3.725-2.536,3.725-5.136c0-2.619-1.248-5.135-3.725-5.135c-2.478,0-3.725,2.516-3.725,5.135
					C9.358,13.808,10.606,16.344,13.082,16.344z M6.918,11.414c0.096,1.546-0.245,2.764-2.08,2.764c-2.023,0-2.44-3.138-2.44-4.888
					c0-1.754,0.19-4.868,2.44-4.889c1.477-0.021,2.023,1.135,2.23,2.433l2.119-0.37C8.942,3.865,7.165,2.236,4.838,2.236
					c-3.367,0-4.86,3.609-4.86,7.055c0,3.446,1.493,7.053,4.86,7.053c0.794,0,1.796-0.309,2.459-1.174l0.226,0.97h1.646V9.27H4.857
					v2.165h2.061V11.414z"/>
			</g>
		</g>
	</g>
</g>
</svg>
