<?xml version="1.0" encoding="UTF-8"?>
<svg xmlns="http://www.w3.org/2000/svg" xmlns:xlink="http://www.w3.org/1999/xlink" version="1.1" width="79px" height="24px" viewBox="-0.083 0 79 24" enable-background="new -0.083 0 79 24" xml:space="preserve">
   <rect id="backgroundrect" width="41.145833333333336" height="12.5" x="0" y="0.5208333134651184" fill="none" stroke="none" class="" style="" />
   <g class="currentLayer" style="">
      <title>Layer 1</title>
      <path id="path0" d="M65.14074687685229,13.554222730083543 C65.08921919215676,13.60370211165239 65.04706017740588,13.688041966599279 65.04706017740588,13.741644629965526 C65.04706017740588,13.795247293331773 65.01192766511346,13.839104017904152 64.96898792786719,13.839104017904152 C64.92604819062089,13.839104017904152 64.89091567832848,13.940311843840428 64.89091567832848,14.064010297762541 C64.89091567832848,14.391061513056602 64.76307236970891,14.33952049058905 64.70471336317874,13.989041537809742 L64.65494230409782,13.689166497998576 L64.18182447189339,13.689166497998576 C63.41749714890966,13.689166497998576 63.30175503896855,13.917821215854591 63.363041754856425,15.308304291079015 C63.455557370559774,17.409678632555817 63.4983019271822,17.962385815307776 63.56856695176701,17.962385815307776 C63.60877416027944,17.962385815307776 63.64175968570953,18.02985769926529 63.64175968570953,18.112323335213365 C63.64175968570953,18.194788971161433 63.606627173417124,18.26226085511895 63.56368743617085,18.26226085511895 C63.520747698924566,18.26226085511895 63.48561518663216,18.346600710065843 63.48561518663216,18.449682755000932 C63.48561518663216,18.552764799936025 63.45048267433975,18.637104654882915 63.40754293709347,18.637104654882915 C63.364603199847195,18.637104654882915 63.32947068755479,18.681898488954705 63.32947068755479,18.736625683720252 C63.32947068755479,18.866321638438585 62.240948348361684,19.911573574080403 62.105883356659746,19.911573574080403 C62.0488906144965,19.911573574080403 62.002242445397144,19.94530951605916 62.002242445397144,19.986542334033192 C62.002242445397144,20.027775152007234 61.931977420812316,20.061511093985988 61.84609794631976,20.061511093985988 C61.66848357861926,20.061511093985988 61.643890820014576,19.950182485456086 61.78754375916576,19.79630910565298 C61.95715572128856,19.614884706567217 62.06977494124811,19.50205672283827 62.17419657500608,19.409095460496808 C62.49565906248162,19.123089641276902 62.64380115598129,18.798474910681303 62.68674089322758,18.28625085830384 C62.738268577923094,17.669257963892363 62.66624692772365,17.58754201554381 62.07075084436734,17.58754201554381 C61.818382297733535,17.58754201554381 61.61188119770371,17.617342097625052 61.61188119770371,17.653701946202155 C61.61188119770371,17.690249216679135 61.539078825008886,17.73822922304893 61.449881279910926,17.760719851034768 C61.36087891543684,17.783023057120715 61.26894884160504,17.87129877196513 61.24572234736728,17.956763158311322 C61.22230067250565,18.042414966557384 61.1764332259017,18.112323335213365 61.1434477004716,18.112323335213365 C61.110462175041505,18.112323335213365 61.05542123911674,18.18822920466557 61.02087426869586,18.281003045107152 C60.974421280220355,18.406200874228308 60.95099960535873,18.328983051476936 60.93011527860715,17.981128005295975 C60.90220444939706,17.518383334487364 60.89888637879167,17.51257325559102 60.6713057713864,17.51257325559102 C60.51847934291442,17.51257325559102 60.440797454623436,17.55043247936718 60.440797454623436,17.625026395520212 C60.440797454623436,17.686875622481264 60.405664942331015,17.7374795354494 60.36272520508474,17.7374795354494 C60.31978546783847,17.7374795354494 60.28465295554605,17.838687361385674 60.28465295554605,17.962385815307776 C60.28465295554605,18.091706926226344 60.32603124780155,18.187854360865806 60.38224326746942,18.188416626565452 C60.45680226577886,18.189353736064856 60.4577781688981,18.20303553475625 60.38614687994635,18.24670483742874 C60.33266738901236,18.279316248008215 60.28250596868375,18.52277729595491 60.26903850563832,18.814593194071158 L60.245616830776726,19.325317871249563 L60.07522414615853,19.182877227339244 C59.98134226608826,19.104534873188584 59.88101942543106,18.949724383886068 59.85193751247789,18.838770619155934 C59.82305078014858,18.727816854425793 59.76800984422381,18.637104654882915 59.72975444194985,18.637104654882915 C59.691303859052056,18.637104654882915 59.65890387549349,18.594934727409466 59.65753761112657,18.543393704941924 C59.64602195431962,18.13162779090121 59.035496962927084,17.96594683140553 59.035496962927084,18.374713995048143 C59.035496962927084,18.51902885795727 59.003096979368536,18.637104654882915 58.9636704933515,18.637104654882915 C58.92404882671062,18.637104654882915 58.867251265171234,18.85638827774484 58.83738862972268,19.124401594576074 C58.80752599427413,19.3924149114073 58.752094697101654,19.611698534269227 58.714034475451555,19.611698534269227 C58.67616943442531,19.611698534269227 58.645135715233664,19.677108777328034 58.645135715233664,19.757137928577645 C58.645135715233664,19.837167079827257 58.61449235728972,19.9209446690745 58.57701767751115,19.943060453260575 C58.4827454361932,19.999099601325284 58.41287077285607,19.534105867718086 58.41169968911299,18.8432687447531 C58.4113093278653,18.50647159066517 58.378128621811356,18.26226085511895 58.33284671707892,18.26226085511895 C58.289516618584955,18.26226085511895 58.254774467540244,18.062281687944875 58.254774467540244,17.812448295402195 C58.254774467540244,17.331523700305024 58.03714807195115,17.186084305996605 57.741644607447235,17.469653640518047 C57.62180370440535,17.584918108945473 57.587256733984475,18.15299388748775 57.696167522090946,18.21765444294704 C57.732471118126426,18.23920796143347 57.786145789684284,18.68677145835164 57.81542288326129,19.212302465620724 C57.844699976838285,19.737646050989923 57.8973987452769,20.185959235507624 57.93253125756932,20.208262441593575 C57.96766376986173,20.230565647679537 58.01723964831879,20.375817620088068 58.042808310042716,20.530815531290468 C58.12576007517755,21.036104973372296 58.73530916345085,21.27694211472064 58.84734284153885,20.848683073490314 C58.87427776762971,20.74560102855522 58.924244007334465,20.66126117360833 58.958595797131494,20.66126117360833 C58.99275240630466,20.66126117360833 59.04506081349558,20.492581463714544 59.07453308769644,20.286417373844365 C59.10400536189729,20.080253283974184 59.1600222009413,19.911573574080403 59.19905832571064,19.911573574080403 C59.23789926985614,19.911573574080403 59.26971371154315,19.83079473523127 59.26971371154315,19.732210815893346 C59.26971371154315,19.633439474655532 59.322412479981764,19.533356180118552 59.38682208585118,19.50955359883354 C59.45240277546367,19.485376173748772 59.50393046015921,19.507679379834723 59.50393046015921,19.559970089901796 C59.50393046015921,19.61151111236935 59.574195484744024,19.702223311912224 59.66007495923657,19.76163605417481 C59.74595443372914,19.821048796437402 59.81621945831395,19.91288552737958 59.81621945831395,19.965551081246417 C59.81621945831395,20.018404057013132 59.868918226752555,20.061511093985988 59.933327832621984,20.061511093985988 C59.997737438491384,20.061511093985988 60.05043620693,20.095247035964736 60.05043620693,20.136479853938777 C60.05043620693,20.282294092046968 60.42869625594494,20.216134161388624 60.479833579392775,20.061511093985988 C60.50715886673132,19.979045458037916 60.56219980265608,19.911573574080403 60.60221183054466,19.911573574080403 C60.64222385843324,19.911573574080403 60.675014203239485,19.82723371913351 60.675014203239485,19.724151674198417 C60.675014203239485,19.621069629263324 60.71014671553189,19.536729774316434 60.75308645277818,19.536729774316434 C60.79602619002445,19.536729774316434 60.831158702316856,19.641123772550703 60.831158702316856,19.76875808637033 C60.831158702316856,20.617966714735594 62.11251949787054,20.919153707845936 62.75524929219776,20.221194552685436 C62.96565400470452,19.992539834829422 63.0491913117109,19.90838740178241 63.18913581900901,19.783939260260773 C63.24476229680532,19.73445987869193 63.33259357753633,19.65012002374503 63.38431644285572,19.59651736037879 C63.61814283022409,19.354180843831386 63.71983193524821,19.300953024264896 63.71983193524821,19.421277883989138 C63.71983193524821,19.484813908049126 63.754964447540615,19.536729774316434 63.7979041847869,19.536729774316434 C63.84084392203317,19.536729774316434 63.875976434325594,19.705409484210218 63.875976434325594,19.911573574080403 C63.875976434325594,20.117737663950578 63.906619792269524,20.286417373844365 63.94409447204808,20.286417373844365 C63.98156915182666,20.286417373844365 64.02899804342141,20.453972552338858 64.04949200892531,20.65882468890986 C64.09477391365776,21.111261155224977 64.21168710734194,21.261011253230674 64.51929177052436,21.261011253230674 L64.75311815789273,21.261011253230674 L64.69710131884871,20.680003363596526 C64.66645796090478,20.360449024297747 64.6096603993654,20.087750159969463 64.57081945521988,20.074068361278073 C64.53217369169823,20.060199140686816 64.50055443063506,19.91963271577533 64.50055443063506,19.76163605417481 C64.50055443063506,19.603639392574298 64.46151830586574,19.46176101436364 64.41389423364714,19.446579840473202 C64.285465383156,19.40534702249916 64.27609671321136,17.646954757806398 64.40413520245478,17.605909361732245 C64.4572243321411,17.588853968842983 64.50055443063506,17.478649891712386 64.50055443063506,17.360761516686612 C64.50055443063506,17.243060563560732 64.53295441419361,17.127421251333544 64.57238090021066,17.103993513848298 C64.61200256685156,17.080378354463175 64.66919048963864,16.724276744687398 64.69963866695872,16.312323408746803 C64.77907718086432,15.236146859624455 64.89091567832848,15.390020239427567 64.89091567832848,16.575463756181104 C64.89091567832848,17.20014094848776 64.92077831377705,17.58754201554381 64.96898792786719,17.58754201554381 C65.01192766511346,17.58754201554381 65.04706017740588,17.739353754448214 65.04706017740588,17.924901435331382 C65.04706017740588,18.110449116214543 65.01192766511346,18.26226085511895 64.96898792786719,18.26226085511895 C64.92604819062089,18.26226085511895 64.89091567832848,18.346600710065843 64.89091567832848,18.449682755000932 C64.89091567832848,18.552764799936025 64.85578316603609,18.637104654882915 64.8128434287898,18.637104654882915 C64.70900733690337,18.637104654882915 64.71213022688491,19.13958276846651 64.81635668001906,19.201431995427573 C64.86105304287994,19.228045905210813 64.94888432361098,19.20892887142284 65.01153730386577,19.159074646054247 C65.10307701644987,19.086167527000153 65.12513242694456,19.09216502779637 65.12513242694456,19.190186681434653 C65.12513242694456,19.257096299692517 65.16026493923697,19.311823494458057 65.20320467648324,19.311823494458057 C65.24614441372951,19.311823494458057 65.28127692602192,19.446767262373083 65.28127692602192,19.611698534269227 C65.28127692602192,19.776629806165367 65.31133474209432,19.911573574080403 65.34802869937752,19.911573574080403 C65.38472265666068,19.911573574080403 65.43546961886082,20.148287433631342 65.46064791933706,20.43747942514924 C65.51002861717028,21.001619343794005 65.59903098164436,21.146871316202553 65.9476235758346,21.230836327349678 L66.16427406830445,21.28312703741675 L66.10923313237969,20.57860811576037 C66.07898013568345,20.191019626804437 66.02081630977712,19.862843880111086 65.98002355939317,19.849162081419696 C65.9392308090092,19.835292860828424 65.90585492233141,19.660990493938193 65.90585492233141,19.46176101436364 C65.90585492233141,19.262531534789094 65.86798988130514,19.087292058399438 65.82192725407732,19.07248572830876 C65.69740201606312,19.03275228553378 65.68569117863231,17.795392902512933 65.80943569415113,17.755846881637833 C65.86408626882822,17.738416644948806 65.90585492233141,17.59785022003732 65.90585492233141,17.431419572942122 C65.90585492233141,17.26986189524385 65.93864526713766,17.137729455827053 65.97865729502622,17.137729455827053 C66.01886450353867,17.137729455827053 66.06629339513341,17.044955615385472 66.08405483190344,16.93156536595687 C66.10201144929736,16.818175116528277 66.12191987292972,16.919382942464537 66.12836083351667,17.156471645815255 C66.13480179410361,17.393560349165966 66.17520418323988,17.58754201554381 66.21814392048616,17.58754201554381 C66.26147401898014,17.58754201554381 66.29621617002483,17.787521182717885 66.29621617002483,18.037354575260572 C66.29621617002483,18.28475148310479 66.32705470859263,18.48716713497733 66.36491974961886,18.48716713497733 C66.40278479064514,18.48716713497733 66.45899681031301,18.849828511248965 66.49003052950464,19.293081304469855 C66.52106424869626,19.736334097690747 66.58235096458412,20.141165401435824 66.62607142432577,20.192706423903374 C66.74142317301919,20.32839987941793 67.15501091495037,20.31378097122714 67.15501091495037,20.173964233915175 C67.15501091495037,20.111552741254478 67.2244952170398,20.061511093985988 67.31115541402777,20.061511093985988 C67.39703488852031,20.061511093985988 67.46729991310512,20.031523590004866 67.46729991310512,19.994601475728118 C67.46729991310512,19.957866783351253 67.55747336132232,19.906138338983823 67.66794559441954,19.879524429200583 C67.87425151382553,19.829857625731847 68.32609465803066,19.438145854978515 68.32609465803066,19.30919958785971 C68.32609465803066,19.26946614508473 68.35732355784614,19.23685473450526 68.39538377949626,19.23685473450526 C68.4336391817702,19.23685473450526 68.48789939519958,19.118778937579613 68.51620058565737,18.974464074670486 C68.59212584833372,18.58500136671572 68.71645590572408,18.656783954370532 68.71645590572408,19.090103386897663 C68.71645590572408,19.499995081939563 68.75451612737419,19.565967590698026 69.22099781836783,19.967800144044997 C69.3507929332259,20.07950359637466 70.27790089649778,20.09599672356427 70.27790089649778,19.986542334033192 C70.27790089649778,19.94530951605916 70.32279243998255,19.911573574080403 70.3778333759073,19.911573574080403 C70.47776585531683,19.911573574080403 70.98055114234596,19.443393668175208 70.98055114234596,19.35043240583374 C70.98055114234596,19.291956773070567 71.18568597800886,19.086917214599673 71.24424016516286,19.086917214599673 C71.26649075628139,19.086917214599673 71.29537748861071,19.264030909988154 71.3082594097846,19.480503204351837 L71.33187626527004,19.874089194104005 L71.67324717637794,19.897516931589255 L72.01481326810969,19.92113209097438 L71.95821088719416,19.485188751848884 C71.92698198737867,19.24547614189983 71.87389285769237,19.0325648636339 71.83993142914304,19.01194845464688 C71.80616518121755,18.99133204565986 71.7528808709074,18.57750449072045 71.72145679046808,18.092456613825874 C71.69003271002876,17.60722131503142 71.63343032911321,17.192081806792835 71.59576046871081,17.169591178806996 C71.55789542768453,17.14728797272103 71.52705688911675,17.046454990584525 71.52705688911675,16.945809430347904 C71.52705688911675,16.79062409724563 71.48977738996204,16.762885656063087 71.28093412244606,16.762885656063087 L71.03481135577535,16.762885656063087 L71.08282578924164,17.624651551720447 C71.12264263650637,18.33741703697163 71.11073661845172,18.50272315266754 71.01431739027146,18.580503241118553 C70.95010296502588,18.63223168548598 70.75082354807839,18.809532802774346 70.57125737413939,18.974464074670486 C70.2064647881699,19.309761853559355 69.9416046816099,19.46176101436364 69.72241684103005,19.46176101436364 C69.51415911538561,19.46176101436364 69.5321157327795,19.42708796288547 69.92364806421601,19.073422837808167 C70.11531543683348,18.90024500231722 70.29371052702939,18.66371856466616 70.32025509187253,18.547891830539093 C70.34660447609181,18.43206509641203 70.4006695088974,18.33722961507174 70.44029117553826,18.33722961507174 C70.47971766155528,18.33722961507174 70.51211764511386,18.25288976012485 70.51211764511386,18.14980771518976 C70.51211764511386,18.046725670254673 70.54725015740627,17.962385815307776 70.59018989465254,17.962385815307776 C70.63312963189881,17.962385815307776 70.66826214419122,17.82500556269428 70.66826214419122,17.65707554040003 C70.66826214419122,17.362635735685434 70.53534413935161,17.137729455827053 70.36163338412804,17.137729455827053 C70.3155707569002,17.137729455827053 70.27790089649778,17.103993513848298 70.27790089649778,17.062760695874264 C70.27790089649778,17.021527877900223 70.13737084732816,16.987791935921468 69.96561189834304,16.987791935921468 C69.79385294935796,16.987791935921468 69.65332290018833,17.021527877900223 69.65332290018833,17.062760695874264 C69.65332290018833,17.103993513848298 69.6006241317497,17.137729455827053 69.5362145258803,17.137729455827053 C69.28052790864109,17.137729455827053 68.87260040480147,17.67787937128693 68.87260040480147,18.016550744373674 C68.87260040480147,18.151681934188584 68.83746789250905,18.26226085511895 68.79452815526275,18.26226085511895 C68.75041733427341,18.26226085511895 68.71645590572408,18.049911842552667 68.71645590572408,17.774963915425793 C68.71645590572408,17.500015988298927 68.68249447717476,17.28766697573264 68.6383836561854,17.28766697573264 C68.59544391893913,17.28766697573264 68.56031140664672,17.220195091775125 68.56031140664672,17.137729455827053 C68.56031140664672,17.005971860210025 68.50819818007963,16.987791935921468 68.13091403418395,16.987791935921468 C67.89474547932942,16.987791935921468 67.70151666172117,17.021527877900223 67.70151666172117,17.062760695874264 C67.70151666172117,17.103993513848298 67.66072391133721,17.137729455827053 67.61095285225629,17.137729455827053 C67.47491195743514,17.137729455827053 67.07693866541169,17.594664047739325 67.07693866541169,17.750973912240898 C67.07693866541169,17.83437665768838 67.0201411038723,17.887417055354984 66.9307483781505,17.887417055354984 C66.79997736017319,17.887417055354984 66.77909303342159,17.799516184310338 66.73049305808378,17.04401850588606 C66.67506176091132,16.183377141628 66.56927386278639,15.788291776676779 66.39419684319587,15.788291776676779 C66.32119928987721,15.788291776676779 66.29621617002483,15.568071044315449 66.29621617002483,14.926151037219658 C66.29621617002483,14.4013697175501 66.26557281208089,14.064010297762541 66.21814392048616,14.064010297762541 C66.17520418323988,14.064010297762541 66.14007167094748,13.987167318810924 66.14007167094748,13.893268946970055 C66.14007167094748,13.544476791289675 65.40912023464152,13.296517617745817 65.14074687685229,13.554222730083543 M65.67163817371534,14.251432197644524 C65.67163817371534,14.354514242579604 65.70677068600774,14.438854097526507 65.74971042325406,14.438854097526507 C65.79265016050033,14.438854097526507 65.82778267279274,14.607533807420287 65.82778267279274,14.813697897290474 C65.82778267279274,15.019861987160649 65.79265016050033,15.18854169705444 65.74971042325406,15.18854169705444 C65.70559960226467,15.18854169705444 65.67163817371534,15.400890709620722 65.67163817371534,15.675838636747589 C65.67163817371534,15.943851953578825 65.63845746766142,16.163135576440745 65.59805507852515,16.163135576440745 C65.55765268938887,16.163135576440745 65.51100452028949,16.30651332985046 65.49460934788638,16.481752806240113 C65.47821417548325,16.65699228262977 65.45908647434628,16.260594964379372 65.45205997188779,15.600869876794796 C65.44522865005317,14.94114478921021 65.46064791933706,14.325463848097904 65.48660694230865,14.232690007656322 C65.55004064505886,14.005722086899238 65.67163817371534,14.018091932291455 65.67163817371534,14.251432197644524 M64.26633768201901,15.11357293710164 C64.26633768201901,15.630295115076265 64.23491360157969,16.013198056535156 64.19236422558112,16.013198056535156 C64.15157147519716,16.013198056535156 64.10550884796932,16.19031175192363 64.08969921743774,16.406784046287324 C64.0627642913469,16.775442923355186 64.06003176261304,16.768320891159664 64.04656429956762,16.29433090635813 C64.03856189398991,16.016009385033385 63.996988421110544,15.788291776676779 63.95404868386427,15.788291776676779 C63.910718585370304,15.788291776676779 63.875976434325594,15.588312609502704 63.875976434325594,15.338479216960014 C63.875976434325594,15.088645824417338 63.910718585370304,14.88866665724326 63.95404868386427,14.88866665724326 C63.996988421110544,14.88866665724326 64.03212093340296,14.759345546324694 64.03212093340296,14.601348884724178 C64.03212093340296,14.315717909304038 64.07662211564,14.213947817668117 64.20134253427807,14.213947817668117 C64.237060588442,14.213947817668117 64.26633768201901,14.618779121413207 64.26633768201901,15.11357293710164 M71.00006920473064,15.613052300287126 C70.94639453317279,15.633856131174024 70.90247889280728,15.715572079522566 70.90247889280728,15.79447669937289 C70.90247889280728,15.87356874112308 70.86734638051487,15.93822929658237 70.8244066432686,15.93822929658237 C70.70846935270364,15.93822929658237 70.72993922132679,16.158075185143936 70.85778252994639,16.281023951466505 C71.11327396656172,16.52617179651215 71.52705688911675,16.248974806586688 71.52705688911675,15.832523345048926 C71.52705688911675,15.560011902620523 71.33909794835239,15.481669548469853 71.00006920473064,15.613052300287126 M75.89910286328316,16.463010616251914 C75.89910286328316,16.504243434225955 75.81380893066212,16.53797937620471 75.70958247752799,16.53797937620471 C75.60516084376998,16.53797937620471 75.46716814271038,16.588583289172846 75.40275853684093,16.650432516133897 C75.33834893097153,16.712281743094955 75.26593691952439,16.762885656063087 75.24192970279125,16.762885656063087 C75.13458035967557,16.762885656063087 74.88416361928023,17.033335457592784 74.88416361928023,17.14934961361974 C74.88416361928023,17.21982024797536 74.8150696784385,17.298537445925795 74.73075164893672,17.324401668109505 C74.63355169826106,17.354014328290862 74.55879751932775,17.465717780620523 74.52678789701689,17.629337099217494 C74.49907224843066,17.771215477428154 74.44520239624896,17.887417055354984 74.40694699397501,17.887417055354984 C74.36888677232491,17.887417055354984 74.33765787250945,17.968195894204115 74.33765787250945,18.066779813542045 C74.33765787250945,18.165551154779845 74.28495910407082,18.26563444931682 74.22054949820141,18.289437030601835 C74.13271821747038,18.32167359738154 74.10344112389338,18.277067185209628 74.10344112389338,18.1098868505149 C74.10344112389338,17.987500349891963 74.06830861160097,17.887417055354984 74.0253688743547,17.887417055354984 C73.98242913710843,17.887417055354984 73.94729662481602,17.76934125842934 73.94729662481602,17.625026395520212 C73.94729662481602,17.48071153261108 73.92055687934902,17.362635735685434 73.88776653454278,17.362635735685434 C73.8549761897365,17.362635735685434 73.7934942932248,17.286729866233234 73.75114009785007,17.19395602579165 C73.64183894849589,16.95480568154224 73.01882239717719,16.90307723717481 72.95773086191318,17.127983517033186 C72.9352850901708,17.210074309181508 72.86775259431982,17.295351273627805 72.80763696217504,17.317654479713752 C72.7473261494064,17.339770263899826 72.69814063219702,17.44341457453456 72.69814063219702,17.547621150868952 C72.69814063219702,17.65201514910322 72.66300811990462,17.7374795354494 72.62006838265836,17.7374795354494 C72.57654310354054,17.7374795354494 72.54199613311967,17.53581357117639 72.54199613311967,17.282231740636064 C72.54199613311967,16.77563034525506 72.43894076372861,16.612948136157502 72.11825899874846,16.612948136157502 C71.92034584616788,16.612948136157502 71.91741813681017,16.621194699752316 71.91741813681017,17.17521383580345 C71.91741813681017,17.500015988298927 71.95040366224029,17.7374795354494 71.99549038634889,17.7374795354494 C72.04272409731978,17.7374795354494 72.07395299713524,18.05665903094842 72.07434335838295,18.543393704941924 C72.07570962274986,19.762948007473987 72.11435538627151,19.911573574080403 72.42957209378396,19.911573574080403 C72.682916543537,19.911573574080403 72.68779605913316,19.905201229484415 72.7404948275718,19.49924539434004 C72.76996710177264,19.272464895482834 72.82520321832125,19.086917214599673 72.86326343997136,19.086917214599673 C72.90132366162148,19.086917214599673 72.9323573808131,18.96884141767402 72.9323573808131,18.824526554764898 C72.9323573808131,18.680211691855778 72.96358628062856,18.562135894930126 73.00164650227867,18.562135894930126 C73.03990190455265,18.562135894930126 73.09591874359663,18.435626112509787 73.12597655966903,18.28119046700703 C73.17555243812612,18.027421214566825 73.27431383379252,17.891727759052277 73.41152581235677,17.888541586754272 C73.43885109969531,17.887979321054633 73.48491372692312,18.039228794259394 73.51380045925245,18.224776475142555 C73.54288237220563,18.41032415602572 73.59948475312116,18.562135894930126 73.63988714225744,18.562135894930126 C73.68009435076983,18.562135894930126 73.71307987619996,18.638978873881737 73.71307987619996,18.732877245722616 C73.71307987619996,18.89855820521828 73.86610148529579,19.16263566215199 74.08899775772873,19.381169597414395 C74.23226033563219,19.521923444225756 75.28486944003753,19.542539853212777 75.33288387350383,19.40553444439905 C75.35084049089772,19.3539934219315 75.40353925933634,19.311823494458057 75.44979706718799,19.311823494458057 C75.49605487503968,19.311823494458057 75.6336572148516,19.204618167725567 75.75544992413195,19.073422837808167 C75.96253656603332,18.8505781988485 75.97717511282184,18.845892651351438 75.97717511282184,19.002202515853014 C75.97717511282184,19.11109463968445 75.7593535366089,19.379107956515686 75.35259711651234,19.77081972726902 C75.00907921854213,20.101431958660847 74.72801912020287,20.40505543646966 74.72801912020287,20.44535114494429 C74.72801912020287,20.485459431519036 74.64701916130646,20.592852180151407 74.54786740439235,20.683564379694282 C74.35229641929793,20.86292713788134 74.10344112389338,21.326421496289484 74.10344112389338,21.511594333372887 C74.10344112389338,21.575130357432876 74.06830861160097,21.647850054587092 74.0253688743547,21.673339432971037 C73.75016419473081,21.836583907768247 74.03434718305165,23.210199012003294 74.34331811060099,23.210199012003294 C74.42607469511199,23.210199012003294 74.49380237158681,23.24393495398205 74.49380237158681,23.28516777195609 C74.49380237158681,23.379440987596723 75.0153249985052,23.384688800793423 75.07563581127387,23.290977850852432 C75.1000333892547,23.252931205176385 75.22514416914044,23.199515963710027 75.3535730196316,23.172527210127022 C75.48180668949885,23.145538456544013 75.5868138651284,23.09231063697753 75.5868138651284,23.054263991301482 C75.5868138651284,23.01640476752532 75.63638974358547,22.985292732144917 75.69689573697795,22.985292732144917 C75.84777035921145,22.985292732144917 76.21139186143787,22.557221112814467 76.21139186143787,22.379732573626228 C76.21139186143787,22.30045310997615 76.23793642628104,22.235605132616985 76.27033640983957,22.235605132616985 C76.45966161497091,22.235605132616985 76.5560808431512,21.699578498954512 76.55920373313273,20.629961716328037 C76.56174108124273,19.80436824734791 76.5882856460859,19.503556098037322 76.66030729628534,19.480503204351837 C76.71398196784317,19.4632603895627 76.7578976082087,19.4070338195981 76.7578976082087,19.355492797130562 C76.7578976082087,19.303951774663012 76.86231924196667,19.163385349751525 76.98996736996243,19.043247911927168 C77.11761549795817,18.922923052202936 77.22301303483542,18.765488656302075 77.22418411857846,18.693331224847512 C77.22535520232155,18.62117379339295 77.2614636177332,18.562135894930126 77.30440335497947,18.562135894930126 C77.34734309222574,18.562135894930126 77.38247560451815,18.49466401097261 77.38247560451815,18.412198375024538 C77.38247560451815,18.23396014823677 77.01358422544786,18.19610092446061 76.94527100710154,18.36740454095274 C76.77780603184104,18.786105065289096 76.6017531091313,18.53627167274641 76.6017531091313,17.880482445059354 C76.6017531091313,17.485209658208248 76.63356755081833,17.212698215779845 76.67982535867002,17.212698215779845 C76.80005662295959,17.212698215779845 76.77234097437334,16.615946886555616 76.64644947199223,16.49505976113174 C76.52055796961108,16.374172635707854 75.89910286328316,16.347558725924614 75.89910286328316,16.463010616251914 M75.950240186731,17.41830003995038 C75.92408598313551,17.572548263553255 75.86689806034842,17.71030335996651 75.82278723935907,17.724360002457658 C75.77887159899358,17.738416644948806 75.74295836420576,17.797829387211394 75.74295836420576,17.8561175980747 C75.74295836420576,17.914593230837873 75.70782585191336,17.962385815307776 75.66488611466708,17.962385815307776 C75.62194637742081,17.962385815307776 75.58622832325686,18.0214237137706 75.58544760076146,18.09358114522517 C75.58408133639455,18.23920796143347 74.9505250313881,18.862010934741296 74.80374920225539,18.862010934741296 C74.69386251102968,18.862010934741296 74.77486246992606,18.315301252785556 74.89060457986717,18.274818122411045 C74.93003106588421,18.260948901819777 74.96223586881891,18.18504303236758 74.96223586881891,18.106138412517254 C74.96223586881891,18.027046370767064 74.99736838111131,17.962385815307776 75.04030811835759,17.962385815307776 C75.08324785560389,17.962385815307776 75.11838036789631,17.915717762237165 75.11838036789631,17.858741504673038 C75.11838036789631,17.71854992356132 75.73163788802266,17.137729455827053 75.87938962027461,17.137729455827053 C75.97229559722567,17.137729455827053 75.9875196858857,17.19770446378929 75.950240186731,17.41830003995038 M54.17549942914393,17.33939542010007 C53.8595019991361,17.418674883750153 53.89112126019926,18.340603209269624 54.22156205637175,18.683023020354003 C54.33574272132208,18.80128623917953 54.42923424014465,18.92610922450093 54.42923424014465,18.96022001027945 C54.42923424014465,18.994518217957854 54.47920047984941,19.07061150930994 54.54009683448958,19.12908714207312 C54.62695221210137,19.212489887520604 54.64159075888988,19.38847905150979 54.60723896909285,19.939124593363054 C54.54204864072805,20.989999186001324 54.56410405122273,21.036104973372296 55.1334459309836,21.036104973372296 C55.39010845134202,21.036104973372296 55.60031798322494,21.006304891291066 55.60031798322494,20.96994504271396 C55.60031798322494,20.784772205630556 55.95164310614902,20.82825408640317 56.16185263803193,21.039478567570168 C56.28325498606458,21.161302802493463 56.43471515016964,21.261011253230674 56.49873439479136,21.261011253230674 C56.56294882003694,21.261011253230674 56.61525722722785,21.294747195209432 56.61525722722785,21.335980013183466 C56.61525722722785,21.377212831157507 56.755787276397484,21.410948773136262 56.927546225382585,21.410948773136262 C57.294876159462106,21.410948773136262 57.401835141330096,21.095517715634887 57.06905217767145,20.994122467798736 C56.92130044541948,20.949141211827058 56.701917424215786,20.753285326450385 56.32248629145778,20.32727534801863 C56.2051827365259,20.195517752401603 56.19522852470972,20.061511093985988 56.3029682290731,20.061511093985988 C56.34590796631938,20.061511093985988 56.381235659235635,19.985605224533785 56.38143083985948,19.8928313840922 C56.38182120110717,19.800057543650617 56.43451996954579,19.627441973859312 56.49853921416751,19.509366176933664 C56.631457219007125,19.264780597587674 56.653512629501805,18.93697969469409 56.53718497768916,18.93697969469409 C56.494245240442886,18.93697969469409 56.45911272815047,18.88637578172595 56.45911272815047,18.824526554764898 C56.45911272815047,18.537771047945473 56.07206955106244,18.70307716364137 56.02073704699075,19.01194845464688 C55.99321657902837,19.176879726543024 55.94012744934206,19.311823494458057 55.90265276956349,19.311823494458057 C55.86517808978492,19.311823494458057 55.834534731840996,19.379295378415566 55.834534731840996,19.46176101436364 C55.834534731840996,19.54422665031171 55.801744387034745,19.611698534269227 55.76173235914617,19.611698534269227 C55.72172033125759,19.611698534269227 55.666679395332814,19.54422665031171 55.63935410799428,19.46176101436364 C55.61202882065574,19.379295378415566 55.55698788473096,19.311823494458057 55.51697585684239,19.311823494458057 C55.476963828953814,19.311823494458057 55.44417348414757,19.22748363951116 55.44417348414757,19.124401594576074 C55.44417348414757,19.02131954964098 55.477744551449206,18.93697969469409 55.51873248245701,18.93697969469409 C55.559720413464824,18.93697969469409 55.6143709881419,18.810469912273753 55.640134830489664,18.655846844871117 C55.665898672837436,18.501223777468475 55.72015888626681,18.316050940385075 55.76075645602694,18.244455774630158 C55.85815158732644,18.072589892438383 55.855419058592595,17.7374795354494 55.756462482302304,17.7374795354494 C55.713522745056025,17.7374795354494 55.67839023276362,17.689312107179724 55.67839023276362,17.63046163061679 C55.67839023276362,17.334897294502902 54.84008945334198,17.1725899292051 54.17549942914393,17.33939542010007 M54.81959548783808,17.644705695007815 C54.81959548783808,17.67619257418799 54.898643640496,17.735230472650812 54.99525804930012,17.7759010249252 C55.19395192437608,17.859678614172445 55.26285068459397,18.132377478500743 55.14457122654285,18.367217119052864 C55.10085076680119,18.453806036798333 55.05303151395875,18.569070505225756 55.038392967170246,18.623235434291647 C54.99740503616244,18.77298553229736 54.68550639925539,18.48529291597851 54.620901612762125,18.238458273833942 C54.59181969980896,18.126942243404166 54.53677876388419,18.017300431973194 54.49852336161023,17.994622382087478 C54.460267959336285,17.971944332201765 54.49052095603251,17.87204845956466 54.56566549621351,17.772902274527098 C54.70112084916312,17.594101782039683 54.81959548783808,17.53431419597733 54.81959548783808,17.644705695007815 M68.24802240849198,17.924901435331382 C68.24802240849198,18.110449116214543 68.21288989619957,18.26226085511895 68.1699501589533,18.26226085511895 C68.12701042170703,18.26226085511895 68.09187790941462,18.346600710065843 68.09187790941462,18.449682755000932 C68.09187790941462,18.552764799936025 68.0567453971222,18.637104654882915 68.0138056598759,18.637104654882915 C67.97086592262963,18.637104654882915 67.93573341033722,18.68227333275447 67.93573341033722,18.737375371319782 C67.93573341033722,18.831086321260774 67.29417469975309,19.46176101436364 67.19853619406818,19.46176101436364 C67.17472415795889,19.46176101436364 67.15501091495037,19.343685217437987 67.15501091495037,19.199370354528863 C67.15501091495037,19.055055491619743 67.19014342724277,18.93697969469409 67.23308316448905,18.93697969469409 C67.27602290173535,18.93697969469409 67.31115541402777,18.852639839747194 67.31115541402777,18.74955779481211 C67.31115541402777,18.646475749877016 67.34238431384323,18.562135894930126 67.38044453549333,18.562135894930126 C67.41869993776727,18.562135894930126 67.47276497057283,18.444809785603997 67.50087098040675,18.301432032194285 C67.62188296719172,17.681627809284567 68.24802240849198,17.366009329883312 68.24802240849198,17.924901435331382 M69.93535890164682,17.888541586754272 C69.88910109379515,18.167425373778674 69.61370123354743,18.549016361938378 69.52235670158719,18.46130291279362 C69.45911817946083,18.400578217231853 69.5797398049981,17.962385815307776 69.65956868015141,17.962385815307776 C69.69899516616843,17.962385815307776 69.731395149727,17.927150498129965 69.731395149727,17.884230883056993 C69.731395149727,17.809636966903955 69.89437097063902,17.596350844838263 69.95604804777456,17.59035334404205 C69.97224803955385,17.588853968842983 69.96307455023305,17.723048049158486 69.93535890164682,17.888541586754272 M61.969842461838596,18.679087160456476 C61.9017244241161,18.726879744926386 61.84609794631976,18.80447241147752 61.84609794631976,18.851515308347913 C61.84609794631976,18.89855820521828 61.813307601513515,18.93697969469409 61.77329557362495,18.93697969469409 C61.733283545736356,18.93697969469409 61.678242609811605,19.0044515786516 61.65091732247305,19.086917214599673 C61.62359203513452,19.169382850547745 61.56952700232897,19.23685473450526 61.53049087755963,19.23685473450526 C61.44441622244324,19.23685473450526 61.53166196130272,18.75986599930561 61.624177577006066,18.7246306821278 C61.660481173041546,18.710761461536528 61.6899534472424,18.66896637786286 61.6899534472424,18.631481997886464 C61.6899534472424,18.593997617910055 61.76900159990031,18.475546977184642 61.865616008704436,18.36815422855227 L62.04127857016648,18.173048030775128 L62.06743277376195,18.382585714843184 C62.08363276554121,18.511344560062106 62.04596290513881,18.625859340889996 61.969842461838596,18.679087160456476 M55.29837355813407,20.072943829878785 C55.45744576656914,20.249120415767848 55.46759515900917,20.29035323374189 55.396744592552814,20.46765435103024 C55.28490609508865,20.74766266945393 55.05381223645414,20.60034905614669 55.05381223645414,20.24893299386797 C55.05381223645414,19.868653959007432 55.09031101311347,19.842602314923834 55.29837355813407,20.072943829878785 M75.96156066291411,20.892539798062696 C75.94204260052943,21.349661811874856 75.89344262519158,21.746059130125253 75.85382095855068,21.773422727508013 C75.81419929190983,21.800786324890783 75.73046680427957,21.924484778812896 75.66800900464862,22.048183232735003 C75.53645726417595,22.308324829771202 75.21694658293887,22.61044893238095 75.0736840050354,22.61044893238095 C75.01961897222984,22.61044893238095 74.9612599656997,22.650557218955694 74.94427925142502,22.699474334824895 C74.92437082779264,22.75682543618878 74.85254435821707,22.730024104505663 74.74265766699136,22.624505574872096 C74.567385466777,22.45620070877808 74.50258549965992,21.985771740074306 74.64311554882954,21.902368994626826 C74.68234685422273,21.878941257141577 74.73816851264287,21.725255299238345 74.7670552449722,21.56051144924209 C74.79613715792536,21.39576759924582 74.8517636357217,21.261011253230674 74.89099494111485,21.261011253230674 C74.93022624650804,21.261011253230674 74.96223586881891,21.225588514152978 74.96223586881891,21.182294055280238 C74.96223586881891,21.1389995964075 75.08422375872311,20.983064575705693 75.23334175534201,20.83556354049858 C75.38245975196088,20.688249927191336 75.52474642674514,20.506075840506043 75.54953436597367,20.430919658653377 C75.57451748582605,20.355576054900812 75.6633246696763,20.273297840852635 75.74686197668271,20.247808462468676 C75.83059446431294,20.222131662184843 75.89910286328316,20.16984095211777 75.89910286328316,20.13141946264197 C75.89910286328316,20.092997973166153 75.92115827377783,20.061511093985988 75.94809319986867,20.061511093985988 C75.97522330658335,20.061511093985988 75.98127390592262,20.435417784250546 75.96156066291411,20.892539798062696 " stroke="none" fill="#000000" fill-rule="evenodd" class="" />
      <path id="path1" d="M63.974542649368175,13.667987823311911 C64.09340764929082,13.685230638101052 64.26907021075287,13.684855794301285 64.3649038970616,13.667050713812502 C64.4609327639942,13.64924563332371 64.36392799394238,13.635001568932674 64.14922930771098,13.635563834632329 C63.93453062147961,13.636126100331973 63.85587283006937,13.650745008522762 63.974542649368175,13.667987823311911 " stroke="none" fill="#005555" fill-rule="evenodd" class="" />
      <path id="path2" d="M27.123660144613282,8.928650240996207 C27.12444086710866,9.093581512892356 27.140445678264093,9.152244567555416 27.159183018153378,9.05890846141419 C27.177920358042662,8.965759777172842 27.177139635547277,8.830816009257815 27.1576215731626,8.759033421603013 C27.13810351077793,8.6874382558481 27.122684241494042,8.763718969100063 27.123660144613282,8.928650240996207 " stroke="none" fill="#ff0000" fill-rule="evenodd" class="" />
      <path id="path3" d="M35.69189435086015,7.391790661963952 L35.69189435086015,13.689166497998576 L37.0971948425565,13.689166497998576 L38.50249533425283,13.689166497998576 L38.50249533425283,10.952806759721623 L38.50249533425283,8.216447021444676 L40.415265447950624,8.216447021444676 L42.32803556164841,8.216447021444676 L42.32803556164841,10.952806759721623 L42.32803556164841,13.689166497998576 L43.73333605334476,13.689166497998576 L45.13863654504108,13.689166497998576 L45.13863654504108,7.391790661963952 L45.13863654504108,1.0944148259293303 L43.73333605334476,1.0944148259293303 L42.32803556164841,1.0944148259293303 L42.32803556164841,3.493415144418707 L42.32803556164841,5.8924154629080885 L40.415265447950624,5.8924154629080885 L38.50249533425283,5.8924154629080885 L38.50249533425283,3.493415144418707 L38.50249533425283,1.0944148259293303 L37.0971948425565,1.0944148259293303 L35.69189435086015,1.0944148259293303 L35.69189435086015,7.391790661963952 M61.84609794631976,7.391790661963952 L61.84609794631976,13.689166497998576 L62.6463385040913,13.688604232298923 C63.08647081086562,13.688416810399044 63.683723519836576,13.666675870012737 63.97356674624895,13.640249382129372 L64.50055443063506,13.59245679765947 L64.50055443063506,10.154764310024138 L64.50055443063506,6.7170718223888155 L65.0860963021752,6.7170718223888155 L65.67163817371534,6.7170718223888155 L65.67163817371534,9.340978420736572 C65.67163817371534,10.784127049827838 65.7022815316593,11.964885019084324 65.73975621143786,11.964885019084324 C65.77723089121642,11.964885019084324 65.83032002090273,12.099828786999359 65.85784048886511,12.264760058895503 C65.88516577620365,12.429691330791647 65.94235369899074,12.56463509870668 65.98490307498933,12.56463509870668 C66.02725727036406,12.56463509870668 66.06199942140877,12.612802526976349 66.06199942140877,12.671653003539285 C66.06199942140877,12.843518885731068 66.69750753265367,13.429399744762142 67.03790254064234,13.571465544872684 C67.20966148962745,13.6430607106276 67.41128307406112,13.732648378771191 67.48584207237054,13.77050760254735 C67.67087330377724,13.86421855248834 69.39724592170141,13.858595895491886 69.4581422763416,13.764135257951365 C69.48468684118474,13.722902439977323 69.59457353241045,13.689166497998576 69.70250841739768,13.689166497998576 C70.07276606083488,13.689166497998576 70.12175639742043,13.55441015198342 70.12175639742043,12.53689665752414 C70.12175639742043,11.47159057859495 70.09052749760494,11.41573885243012 69.65039519083062,11.695372327054036 C69.3412290826574,11.891977900030243 68.71645590572408,11.971819629379965 68.71645590572408,11.814947499178748 C68.71645590572408,11.773714681204707 68.66375713728549,11.739978739225949 68.59934753141604,11.739978739225949 C68.53493792554664,11.739978739225949 68.48223915710804,11.689374826257817 68.48223915710804,11.627525599296765 C68.48223915710804,11.565676372335703 68.44710664481563,11.515072459367572 68.40416690756933,11.515072459367572 C68.35381030661691,11.515072459367572 68.32609465803066,10.665488987202547 68.32609465803066,9.11607214087819 L68.32609465803066,6.7170718223888155 L69.22392552772554,6.7170718223888155 L70.12175639742043,6.7170718223888155 L70.12175639742043,5.6300248030733115 L70.12175639742043,4.542977783757815 L69.22392552772554,4.542977783757815 L68.32609465803066,4.542977783757815 L68.32609465803066,3.418446384465917 L68.32609465803066,2.2939149851740224 L66.99886641587301,2.2939149851740224 L65.67163817371534,2.2939149851740224 L65.67163817371534,3.418446384465917 L65.67163817371534,4.542977783757815 L65.0860963021752,4.542977783757815 L64.50055443063506,4.542977783757815 L64.50055443063506,2.81869630484357 L64.50055443063506,1.0944148259293303 L63.17332618847742,1.0944148259293303 L61.84609794631976,1.0944148259293303 L61.84609794631976,7.391790661963952 M70.51211764511386,7.391790661963952 L70.51211764511386,13.689166497998576 L71.83934588727149,13.689166497998576 L73.16657412942916,13.689166497998576 L73.16657412942916,10.533731391585512 L73.16657412942916,7.3784837070723315 L73.52082696171094,7.047684053780628 C73.71581240493379,6.865884810895106 73.92367976933056,6.7170718223888155 73.98281949835611,6.7170718223888155 C74.04195922738167,6.7170718223888155 74.10383148514106,6.678275489113244 74.12042183816806,6.6308577484431 C74.22074467882526,6.3416657569252 75.35259711651234,6.54389398689786 75.35259711651234,6.8508910589045495 C75.35259711651234,6.893998095877404 75.39651275687785,6.943477477446249 75.4501874284357,6.960720292235388 C75.52572232986438,6.984897717320168 75.55343797845062,7.745643208941134 75.5729560408353,10.340499412807187 L75.59832952193536,13.689166497998576 L76.88066622060826,13.689166497998576 L78.163198099905,13.689166497998576 L78.163198099905,9.903244120382523 C78.163198099905,7.7990584504074985 78.1329451032088,6.117321742766466 78.09508006218252,6.117321742766466 C78.05760538240395,6.117321742766466 78.00451625271765,5.982377974851438 77.97699578475527,5.817446702955294 C77.9496704974167,5.652515431059149 77.89248257462961,5.517571663144123 77.84993319863105,5.517571663144123 C77.80757900325631,5.517571663144123 77.77283685221158,5.46528095307705 77.77283685221158,5.401557507117177 C77.77283685221158,5.284793663490702 77.4127286012144,4.917821583521779 77.29835275564024,4.917821583521779 C77.2643913270909,4.917821583521779 77.21501062925769,4.8514742309635555 77.18807570316685,4.770507970214542 C77.15723716459907,4.67717186407331 77.0409095127864,4.6053892764185145 76.87051682816823,4.574652084837866 C76.72276509591629,4.548038175054626 76.6017531091313,4.496309730687197 76.6017531091313,4.459575038310328 C76.6017531091313,4.423027767833343 76.4985025591164,4.393040263852226 76.37222069548758,4.393040263852226 C76.24593883185874,4.393040263852226 76.120828051973,4.359304321873469 76.09428348712987,4.318071503899433 C76.06773892228671,4.276838685925397 75.89207636082467,4.243102743946638 75.70392223943644,4.243102743946638 C75.51576811804819,4.243102743946638 75.34010555658615,4.276838685925397 75.31356099174302,4.318071503899433 C75.28701642689985,4.359304321873469 75.1443393908679,4.393040263852226 74.99658765861594,4.393040263852226 C74.84883592636396,4.393040263852226 74.72801912020287,4.4224655021337 74.72801912020287,4.458450506911037 C74.72801912020287,4.494435511688378 74.58748907103322,4.545414268456276 74.41573012204813,4.57184075633964 C74.243971173063,4.5980798223231165 74.10344112389338,4.645122719193492 74.10344112389338,4.6760473326740195 C74.10344112389338,4.707159368054428 73.96291107472375,4.790936957301674 73.79115212573863,4.862344701156709 C73.61939317675355,4.9339398669116274 73.47886312758388,5.026151441653561 73.47886312758388,5.067571681527481 C73.47886312758388,5.108804499501516 73.40859810299906,5.142727863380157 73.32271862850652,5.142727863380157 C73.17047774190608,5.142727863380157 73.16657412942916,5.092686216111669 73.16657412942916,3.118571344654742 L73.16657412942916,1.0944148259293303 L71.83934588727149,1.0944148259293303 L70.51211764511386,1.0944148259293303 L70.51211764511386,7.391790661963952 M48.84706839812865,4.318071503899433 C48.82052383328549,4.359304321873469 48.69326606653743,4.393040263852226 48.564446854798604,4.393040263852226 C48.23732412923151,4.393040263852226 47.60610999171125,4.602203104120522 47.41385707722223,4.774068986312295 C47.325440254619664,4.853161028062497 47.200719835981616,4.917821583521779 47.1367005913599,4.917821583521779 C47.072486166114324,4.917821583521779 46.99207174908948,4.9635525270929834 46.95771995929246,5.0194042532578145 C46.92336816949544,5.075068557522763 46.81621400700359,5.160720365768829 46.719599598199466,5.209450059738142 C46.62298518939535,5.258179753707462 46.543937036737425,5.331086872761548 46.543937036737425,5.371570003136059 C46.543937036737425,5.412053133510569 46.42565757868633,5.555430886920283 46.281223917039746,5.690187232935427 C46.13679025539317,5.824943578950572 45.99157587125123,6.01836297962878 45.95839516519728,6.119945649364816 C45.92540963976719,6.221528319100851 45.87485785819089,6.3216116136378275 45.84616630648543,6.342228022624849 C45.748771175185915,6.412323813180708 45.528997792734515,6.92660950645687 45.528997792734515,7.0844187461575014 C45.528997792734515,7.171007663902975 45.49386528044211,7.241853142058364 45.45092554319583,7.241853142058364 C45.40798580594956,7.241853142058364 45.372853293657144,7.370049721577638 45.372853293657144,7.526734429878978 C45.372853293657144,7.683419138180318 45.33518343325473,7.847788144376814 45.28912080602691,7.892019712748963 C45.13219558445415,8.042706920254078 45.28424129043074,10.840353619792435 45.44955927882891,10.840353619792435 C45.482154443011304,10.840353619792435 45.53133996022067,10.974547700107935 45.55866524755921,11.138729284404548 C45.608241126016274,11.435980417617376 45.96132287455499,12.12981629098047 46.087409557559965,12.177234031650618 C46.12371315359545,12.191103252241888 46.153575789044005,12.245830447007423 46.153575789044005,12.299058266573903 C46.153575789044005,12.437937894386451 47.06038496743583,13.31432269823461 47.20423308721085,13.31432269823461 C47.270399318694906,13.31432269823461 47.32465953212428,13.345434733615019 47.32465953212428,13.38329395739118 C47.32465953212428,13.421340603067216 47.430057069001506,13.474568422633697 47.558876280740336,13.501744598116593 C47.687695492479165,13.528920773599477 47.79309302935639,13.582148593165961 47.79309302935639,13.620195238842006 C47.79309302935639,13.658054462618166 47.87877732322511,13.689166497998576 47.9835893182308,13.689166497998576 C48.088401313236474,13.689166497998576 48.19594583697601,13.722902439977323 48.222490401819165,13.764135257951365 C48.25079159227694,13.808179404423633 48.704781723344404,13.839104017904152 49.32018623033308,13.839104017904152 C49.96760035963263,13.839104017904152 50.36947726413302,13.810428467222218 50.36947726413302,13.764135257951365 C50.36947726413302,13.722902439977323 50.474874801010245,13.689166497998576 50.603694012749074,13.689166497998576 C50.73251322448791,13.689166497998576 50.83791076136512,13.659178994017454 50.83791076136512,13.622631723540469 C50.83791076136512,13.585897031163594 50.960874554388546,13.533793742996412 51.111163634750525,13.506617567513516 C51.26145271511249,13.47962881393052 51.38441650813592,13.4288374790625 51.38441650813592,13.393977005684443 C51.38441650813592,13.359116532306398 51.46658755077538,13.310761682136851 51.5669103914326,13.286584257052072 C51.667233232089814,13.262406831967294 51.880565653954285,13.123902047954513 52.040808946132415,12.978650075545978 C52.201247418934415,12.833398103137435 52.36500396234181,12.714572618612255 52.40482080960654,12.714572618612255 C52.44483283749511,12.714572618612255 52.477428001677524,12.679337301434446 52.477428001677524,12.636230264461597 C52.477428001677524,12.593123227488737 52.56525928240854,12.473548055364027 52.672608625524234,12.370466010428945 C52.77995796863993,12.267383965493853 52.867789249370944,12.149308168568204 52.867789249370944,12.10826277249405 C52.867789249370944,12.067217376419897 52.93766391270807,11.961698846786332 53.02295784532909,11.873610553841807 C53.108251777950095,11.785709682797158 53.19998667115806,11.601473955213168 53.2269215972489,11.464468546399434 C53.2536613427159,11.327275715685824 53.3067504724022,11.2151974195564 53.34500587467616,11.2151974195564 C53.453721482158784,11.2151974195564 53.426201014196394,10.990853405397667 53.302846859925275,10.872402764672252 C53.2386324346797,10.81092838151096 53.039548198356044,10.76538485983964 52.834413362693155,10.76538485983964 C52.63806165510337,10.76538485983964 52.477428001677524,10.735584777758408 52.477428001677524,10.699224929181298 C52.477428001677524,10.662865080604197 52.20515103141135,10.608887573438183 51.8723680677527,10.579274913256832 C51.53958510409406,10.549662253075477 51.22378285471007,10.491374042212184 51.170693725023774,10.449578958538499 C51.00400947225867,10.318571050520996 50.86191797809827,10.44114497304381 50.8181975183566,10.753577280147077 C50.79516620474269,10.919258239642748 50.702260227791655,11.130857564609505 50.611891598950635,11.224006248850852 C50.5215229701096,11.317154933092196 50.4475495136717,11.416301118129768 50.4475495136717,11.444226981212184 C50.4475495136717,11.472340266194477 50.30780018699744,11.584043718524141 50.13701714113158,11.692560998555809 C49.82355705923376,11.891603056230478 49.198393521052736,11.973131582679141 49.198393521052736,11.814947499178748 C49.198393521052736,11.773714681204707 49.12539596773406,11.739978739225949 49.036003242012264,11.739978739225949 C48.86951416987102,11.739978739225949 48.18345427704982,11.14154061290278 48.18345427704982,10.996288640494244 C48.18345427704982,10.95168222832233 48.15007839037202,10.915322379745229 48.109285639988066,10.915322379745229 C48.06849288960411,10.915322379745229 48.011109786193174,10.712157040273157 47.98183269261617,10.463823022929528 C47.952555599039165,10.215489005585903 47.89810020498592,9.994331163725162 47.8608207058312,9.972027957639206 C47.60337746297739,9.81927910923539 48.034336280430935,9.790790980453332 50.603694012749074,9.790790980453332 L53.41429499614174,9.790790980453332 L53.41429499614174,9.041103380925401 C53.41429499614174,8.628775201185036 53.3840419994455,8.29141578139747 53.34715286153847,8.29141578139747 C53.31026372363145,8.29141578139747 53.261273387045904,8.001474102280037 53.238242073432005,7.647059289603211 C53.21521075981809,7.292644476926382 53.157632475783316,6.965405839732439 53.11020358418856,6.919862318061117 C53.062774692593806,6.874318796389797 53.023933748448314,6.759429171762141 53.023933748448314,6.664593690421858 C53.023933748448314,6.5697582090815745 52.98880123615591,6.49216554253043 52.94586149890963,6.49216554253043 C52.902921761663364,6.49216554253043 52.867789249370944,6.455056006353802 52.867789249370944,6.409699906582359 C52.867789249370944,5.9868761004486055 52.012117394426944,5.008533783064657 51.38441650813592,4.713719134550301 C50.991127551084794,4.528921141266663 50.478388052239474,4.395101904750927 50.15946291287395,4.394164795251519 C49.97950637768728,4.3936025295518695 49.81047995743603,4.359304321873469 49.78393539259287,4.318071503899433 C49.75739082774972,4.276838685925397 49.54659575399527,4.243102743946638 49.31550189536076,4.243102743946638 C49.084408036726245,4.243102743946638 48.873612962971805,4.276838685925397 48.84706839812865,4.318071503899433 M57.20314126625414,4.314323065901796 C57.17542561766791,4.3576175247745335 56.963459460170384,4.393040263852226 56.732365601535875,4.393040263852226 C56.50127174290136,4.393040263852226 56.293404378504604,4.422278080233816 56.27017788426687,4.458075663111275 C56.24714657065294,4.494060667888612 56.08709845909864,4.545039424656516 55.9143636069943,4.5714659125398756 C55.74162875488995,4.5980798223231165 55.60031798322494,4.6529944389885385 55.60031798322494,4.693852413162807 C55.60031798322494,4.734522965437199 55.547619214786316,4.767884063616192 55.48320960891691,4.767884063616192 C55.418800003047494,4.767884063616192 55.36610123460888,4.80162000559495 55.36610123460888,4.842852823568986 C55.36610123460888,4.884085641543022 55.30364343497793,4.917821583521779 55.22732781105387,4.917821583521779 C55.08523631689346,4.917821583521779 55.03722188342717,4.961865729994043 54.61426547155134,5.480274705067606 C54.22566084947253,5.956513752667728 54.03223685124044,6.336980209428154 53.98539350151723,6.716509556689165 L53.94186822239941,7.069050150367174 L54.31349213020355,7.117967266236372 C54.51804142399491,7.144956019819379 54.80124850919649,7.166884382105576 54.942949642109205,7.166884382105576 C55.08484595564577,7.166884382105576 55.22244829545769,7.200620324084326 55.24899286030085,7.241853142058364 C55.27553742514401,7.283085960032398 55.47091322961457,7.3168219020111565 55.68307456773594,7.3168219020111565 C55.90479975642581,7.3168219020111565 56.068751480457045,7.35093268778968 56.068751480457045,7.3970384751606435 C56.068751480457045,7.558970996658678 56.41968624213344,7.4317115266388125 56.44505972323351,7.260595332046565 C56.458722366902784,7.1678214916049825 56.502638007268295,7.091915622152781 56.54265003515686,7.091915622152781 C56.58266206304545,7.091915622152781 56.61525722722785,7.031940614190546 56.61525722722785,6.9586586513366875 C56.61525722722785,6.666280487520793 57.20567861436415,6.342228022624849 57.73832653684184,6.342228022624849 C58.476499656230104,6.342228022624849 58.801280214311035,6.6417282186362545 58.801280214311035,7.322631980907499 C58.801280214311035,7.772444540624258 58.740579040294705,7.811240873899827 57.9424854693855,7.871590725661827 C57.31088097061753,7.919383310131732 56.89612214494326,8.005409962177563 56.5967150679624,8.150661934586099 C56.522156069652965,8.186834361263319 56.39919227662953,8.216259599544793 56.323462194577004,8.21607217764491 C56.13472253131724,8.215509911945267 55.44417348414757,8.458221272292432 55.44417348414757,8.525130890550301 C55.44417348414757,8.554930972631535 55.33877594727033,8.601599025702152 55.209956735531506,8.628775201185036 C55.08113752379268,8.655951376667927 54.97573998691545,8.709179196234407 54.97573998691545,8.74722584191045 C54.97573998691545,8.785085065686609 54.92577374721069,8.816197101067019 54.86487739257052,8.816197101067019 C54.724347343400886,8.816197101067019 53.80465624383517,9.693893858214341 53.80465624383517,9.828087938529844 C53.80465624383517,9.883189977095148 53.760740603469664,9.942227875557974 53.70706593191181,9.959470690347112 C53.63523946233623,9.982336162132716 53.60947561998846,10.267217449953334 53.60947561998846,11.040707630766272 C53.60947561998846,12.092144489104198 53.661979207803235,12.34254014734653 53.94128268052788,12.626296903767843 C53.99495735208571,12.680649254733622 54.038872992451225,12.765551375380166 54.038872992451225,12.814655913149243 C54.038872992451225,12.863760450918324 54.13392595626457,12.970965777650811 54.25025360807721,13.052869147899235 C54.366386079266015,13.134772518147665 54.5209691333526,13.257533862570371 54.593576325423584,13.32538059032764 C54.666183517494574,13.3934147399848 54.83462439587428,13.471944516035348 54.967737581337744,13.500057801017654 C55.10104594742505,13.528171085999945 55.210151916155354,13.573714607671267 55.21054227740305,13.601453048853804 C55.210932638650746,13.629004068136455 55.30579042184024,13.693852045495621 55.42133735115749,13.74539306796316 C55.67878059401131,13.860282692590818 57.47405197215339,13.876588397880559 57.47405197215339,13.764135257951365 C57.47405197215339,13.722902439977323 57.5618832528844,13.689166497998576 57.6692325960001,13.689166497998576 C57.7765819391158,13.689166497998576 57.86441321984681,13.659178994017454 57.86441321984681,13.622256879740702 C57.86441321984681,13.585522187363841 57.961027628650925,13.532294367797348 58.0791119060782,13.503993660915176 C58.28912625733728,13.4537645917468 58.814747677356465,13.11640517195923 58.866275362051994,12.998891640733225 C58.92404882671062,12.866946623216316 59.035496962927084,12.951286478163208 59.035496962927084,13.126900798352628 C59.035496962927084,13.229982843287708 59.070629475219505,13.31432269823461 59.11356921246578,13.31432269823461 C59.15650894971205,13.31432269823461 59.19164146200447,13.3986625531815 59.19164146200447,13.501744598116593 L59.19164146200447,13.689166497998576 L60.440797454623436,13.689166497998576 L61.6899534472424,13.689166497998576 L61.6899534472424,13.44176959015435 C61.6899534472424,13.30570129084003 61.646037806876876,13.152202754836694 61.59236313531903,13.100661732369142 C61.51819449825729,13.029441410413991 61.48911258530413,12.241519743310132 61.47076560666254,9.805784732443888 C61.45671260174558,7.934377062122293 61.416310212609304,6.575006022278268 61.373175294739184,6.533398360504467 C61.33277290560292,6.494227183429137 61.29959219954898,6.401640764887437 61.29959219954898,6.327796536333936 C61.29959219954898,6.1544312789430995 61.04683329166747,5.592540423096916 60.968956222752645,5.592540423096916 C60.93616587794638,5.592540423096916 60.90923095185556,5.5612409658166255 60.90923095185556,5.5228194763408185 C60.90923095185556,5.3981839129193006 60.386927602441745,4.917821583521779 60.25127706886826,4.917821583521779 C60.1786698767973,4.917821583521779 60.141000016394884,4.884085641543022 60.16754458123805,4.842852823568986 C60.19408914608118,4.80162000559495 60.146465073862586,4.767884063616192 60.061561502489255,4.767884063616192 C59.97665793111594,4.767884063616192 59.89448688847648,4.730774527439558 59.8786772579449,4.685605849568003 C59.86306280803716,4.640249749796559 59.68447253721742,4.585335133131142 59.481875049664524,4.5634067708449475 C59.279277562111645,4.541478408558756 59.11356921246578,4.494060667888612 59.11356921246578,4.458263085011159 C59.11356921246578,4.4224655021337 58.95761989401224,4.393040263852226 58.76692842451402,4.393040263852226 C58.57623695501579,4.393040263852226 58.40174547729683,4.364364713170284 58.379299705554445,4.329504239792234 C58.318598531538115,4.235231024151593 57.262866537151226,4.221549225460214 57.20314126625414,4.314323065901796 M49.919390745542486,6.43800061346454 C50.34371342178525,6.649412516531414 50.759838511826445,7.308762760316229 50.759838511826445,7.769258368326266 L50.759838511826445,8.066509501539088 L49.34965850453394,8.066509501539088 L47.93967367786527,8.066509501539088 L47.99432425254235,7.710407891763319 C48.02438206861475,7.5145520063866496 48.070444695842575,7.337438310998177 48.096794080061876,7.3168219020111565 C48.123143464281185,7.296205493024141 48.19614101759988,7.178129696098493 48.259184359102335,7.0544312421763795 C48.572254079752476,6.440249676263124 49.34653561455239,6.152744481844164 49.919390745542486,6.43800061346454 M58.801280214311035,10.278087920146486 C58.801280214311035,10.628566872925793 58.7731742044771,10.915322379745229 58.739017595303935,10.915322379745229 C58.704665805506906,10.915322379745229 58.55535262826419,11.034710129970051 58.407210534764516,11.180711789978117 C58.15191427877302,11.432419401519617 57.81698432825206,11.628650130696053 57.688750658384784,11.602223642812689 C57.65654585545005,11.595476454416938 57.63019647123076,11.623777161299117 57.63019647123076,11.66500997927316 C57.63019647123076,11.70624279724719 57.577497702792144,11.739978739225949 57.51308809692273,11.739978739225949 C57.4486784910533,11.739978739225949 57.3959797226147,11.773714681204707 57.3959797226147,11.814947499178748 C57.3959797226147,11.978004552076074 56.57290303185311,11.899474776025516 56.414221184665735,11.721236549237757 C56.195033344085864,11.475151594692711 56.068751480457045,11.237500625642355 56.068751480457045,11.070882556647271 C56.068751480457045,10.841665573091609 56.47921633240668,10.255597292160648 56.67381141438186,10.206867598191332 C56.77042582318599,10.182502751206671 56.8494739758439,10.129649775439956 56.8494739758439,10.089166645065445 C56.8494739758439,10.04887093659082 56.93437754721722,10.01569726031171 57.03821363910367,10.01569726031171 C57.14185455036628,10.01569726031171 57.238468959170405,9.982336162132716 57.25291232533506,9.941478187958445 C57.26716051087587,9.900620213784173 57.49844955013421,9.845143331419104 57.766822907923455,9.818341999735981 C58.035196265712685,9.791353246152976 58.254774467540244,9.74056191128496 58.254774467540244,9.70513917220726 C58.254774467540244,9.669716433129569 58.37773826056366,9.640853460547744 58.52802734092565,9.640853460547744 L58.801280214311035,9.640853460547744 L58.801280214311035,10.278087920146486 " stroke="none" fill="#00b0dc" fill-rule="evenodd" class="" />
      <path id="path4" d="M4.794801595925403,0.9195501933394423 C4.612307712628725,0.9379175395278736 4.462994535385988,0.9849604363982527 4.462994535385988,1.0237567696738212 C4.462994535385988,1.0625531029493902 4.37516325465497,1.0944148259293303 4.2678139115392755,1.0944148259293303 C4.160464568423585,1.0944148259293303 4.072633287692561,1.1238400642107993 4.072633287692561,1.1598250689881424 C4.072633287692561,1.1958100737654829 3.932103238522929,1.2467888305333803 3.760344289537823,1.2732153184167436 C3.5885853405527133,1.2994543844002187 3.4480552913830795,1.3472469688701234 3.4480552913830795,1.3789212699501814 C3.4480552913830795,1.4107829929301152 3.3338746264327526,1.499808395374059 3.1943204803823537,1.5764639524257906 C2.877542327879136,1.7505788974161538 1.7480320576782056,2.871361858710408 1.681085103698785,3.077900792380354 C1.6537598163602447,3.1620532254273614 1.6096489953708892,3.247892455573309 1.5832996111515805,3.2685088645603306 C1.4853189379805283,3.344976999712175 1.2620323042998876,3.7829819797363724 1.2620323042998876,3.898621291963555 C1.2620323042998876,3.9644063788221295 1.2339262944659615,4.018196464088261 1.1993793240450943,4.018196464088261 C1.111938404561766,4.018196464088261 0.8708903341110753,4.688229756166347 0.8712806953587686,4.930378850813868 C0.8714758759826147,5.040208084144714 0.83614818306636,5.141603331980865 0.7928180845723904,5.155472552572134 C0.7494879860784187,5.1693417731633975 0.6915193407959455,5.560116434417334 0.6638036922097111,6.023798214725358 C0.6362832242473264,6.487667416933263 0.5837796364325604,6.867009342294397 0.5474760403970707,6.867009342294397 C0.46120620465682177,6.867009342294397 0.4610110240329759,7.820799390793807 0.5472808597732225,7.871965569461592 C0.5835844558087118,7.893519087948018 0.6358928629996317,8.289541562398647 0.6634133309620172,8.75228623320726 C0.6909337989244049,9.214843482115997 0.7409000386291658,9.612365331765684 0.7744711059307975,9.635793069250932 C0.8306831255986524,9.675151668226144 0.9729698003829065,10.091790551663795 1.0830516722324495,10.540478579981263 C1.1084251533325267,10.64356062491635 1.1503889874595679,10.74476845085262 1.1765431910550292,10.76538485983964 C1.2025022140266408,10.786001268826661 1.3412756375816528,11.030586848172645 1.4845382154851414,11.308908369497392 C1.627995974012478,11.587229890822131 1.7771139706313637,11.814947499178748 1.815954914776861,11.814947499178748 C1.8547958589223583,11.814947499178748 1.886610300609373,11.848496019257619 1.886610300609373,11.889353993431893 C1.886610300609373,11.96113658108669 2.0685186420345083,12.18829192374365 2.3940799226108265,12.523027436932873 C2.586332837099839,12.720570119408487 3.2109108334093257,13.197558854608126 3.369983041844396,13.268216910863634 C3.4343926477138105,13.296705039645694 3.5749226968834424,13.369049893000144 3.6822720399991367,13.428650057162612 C3.789621383114829,13.488250221325089 3.9565008165037696,13.537542180994047 4.0531152253078915,13.53810444669369 C4.149729634112017,13.538666712393345 4.228777786769934,13.572964920071746 4.228777786769934,13.614197738045776 C4.228777786769934,13.655430556019818 4.33417532364716,13.689166497998576 4.462994535385988,13.689166497998576 C4.591813747124821,13.689166497998576 4.697211284002044,13.722902439977323 4.697211284002044,13.764135257951365 C4.697211284002044,13.810615889122095 5.126608656464814,13.839104017904152 5.829258902312983,13.839104017904152 C6.5319091481611515,13.839104017904152 6.961306520623923,13.810615889122095 6.961306520623923,13.764135257951365 C6.961306520623923,13.722902439977323 7.0491378013549415,13.689166497998576 7.156487144470637,13.689166497998576 C7.263836487586328,13.689166497998576 7.35166776831735,13.655430556019818 7.35166776831735,13.614197738045776 C7.35166776831735,13.572964920071746 7.423689418516786,13.539228978092988 7.511520699247807,13.539228978092988 C7.599547160602675,13.539228978092988 7.862455460924197,13.421902868766859 8.096086667668715,13.278337693457267 L8.520604524535319,13.017633830721426 L8.56803341613007,13.222111123492672 C8.685922512933482,13.731523847371905 8.597115329083229,13.695538842594562 9.680367791432488,13.672673370808958 L10.669738373711482,13.651682118022169 L10.710921485343135,11.889916259131537 C10.733562437709354,10.920945036741688 10.759911821928661,10.252598541762538 10.769475672497151,10.404785124466704 C10.779039523065638,10.556971707170877 10.821979260311922,10.702411101479292 10.864918997558192,10.727900479863246 C10.90785873480447,10.753389858247195 10.942991247096877,10.873527296071543 10.942991247096877,10.994789265295186 C10.942991247096877,11.116051234518832 10.974220146912351,11.2151974195564 11.012280368562461,11.2151974195564 C11.050535770836419,11.2151974195564 11.104795984265806,11.333273216482048 11.133097174723577,11.477588079391177 C11.161203184557504,11.6219029423003 11.209217618023793,11.739978739225949 11.239665795343884,11.739978739225949 C11.270309153287819,11.739978739225949 11.338427191010322,11.83368968916694 11.391321140072776,11.948391891894717 C11.694241468282875,12.605493072880945 12.757780687623622,13.539228978092988 13.20337805186567,13.539228978092988 C13.29120933259669,13.539228978092988 13.363230982796125,13.572964920071746 13.363230982796125,13.614197738045776 C13.363230982796125,13.655430556019818 13.451062263527145,13.689166497998576 13.558411606642842,13.689166497998576 C13.665760949758537,13.689166497998576 13.753592230489556,13.722902439977323 13.753592230489556,13.764135257951365 C13.753592230489556,13.810241045322329 14.142392033192206,13.839104017904152 14.763847139520141,13.839104017904152 C15.353292623537218,13.839104017904152 15.794400833430789,13.807804560623868 15.822506843264716,13.764135257951365 C15.849051408107869,13.722902439977323 15.95659593184741,13.689166497998576 16.061407926853096,13.689166497998576 C16.166219921858783,13.689166497998576 16.251904215727485,13.655430556019818 16.251904215727485,13.614197738045776 C16.251904215727485,13.572964920071746 16.3371981483485,13.539228978092988 16.441424601482648,13.539228978092988 C16.54584623524064,13.539228978092988 16.683838936300265,13.488625065124845 16.748248542169677,13.426775838163794 C16.81265814803909,13.364926611202742 16.899903886898574,13.31432269823461 16.94186772102562,13.31432269823461 C17.08610620204834,13.31432269823461 17.943729863230796,12.45274422447713 18.17326227687453,12.07733815901352 C18.570064485154905,11.428108697822333 18.59641386937421,11.369445643159274 18.645404205959736,11.026088722575476 C18.67175359017904,10.841478151191726 18.723671636122265,10.690416099886846 18.760755954653142,10.690416099886846 C18.797840273184022,10.690416099886846 18.828288450504107,10.637750546020008 18.828288450504107,10.57346483436049 C18.828288450504107,10.509179122700973 18.863420962796518,10.477504821620913 18.90636070004279,10.502994200004864 C18.949300437289065,10.528483578388812 18.984432949581482,10.622194528329803 18.984432949581482,10.711032508873867 C18.984432949581482,10.885709719563872 19.21650271133522,11.528754258058953 19.30179664395623,11.590041219320359 C19.33029301503785,11.61065762830738 19.380649615990308,11.711865454243656 19.4136351414204,11.814947499178748 C19.60491215279018,12.414885000700968 20.517381569273564,13.248162767576268 21.326600435742044,13.562094449878593 C21.476889516104006,13.620382660741885 21.69802916292233,13.706596734687594 21.818260427211907,13.753639631557977 C22.08917113311115,13.859720426891172 23.874878660684733,13.868529256185631 23.942020795288,13.764135257951365 C23.96856536013115,13.722902439977323 24.093676140016896,13.689166497998576 24.21995800364572,13.689166497998576 C24.346239867274544,13.689166497998576 24.44949041728946,13.659178994017454 24.44949041728946,13.622256879740702 C24.44949041728946,13.585522187363841 24.546104826093575,13.532294367797348 24.66418910352084,13.503993660915176 C25.050646738737335,13.411407242373471 26.089007657601854,12.523214858832759 26.089007657601854,12.285189045982635 C26.089007657601854,12.232710914015685 26.12316426677502,12.189791298942714 26.16493292027822,12.189791298942714 C26.260961787210803,12.189791298942714 26.713585653911338,11.321278214889604 26.713585653911338,11.137042487305614 C26.713585653911338,11.06113661785341 26.748718166203737,10.978296138105572 26.791657903450016,10.952806759721623 C26.834597640696288,10.927317381337675 26.8697301529887,10.81392713190907 26.8697301529887,10.70091172628024 C26.8697301529887,10.587896320651403 26.908766277758048,10.458012944033191 26.956390349976644,10.412282000461987 C27.01318791151604,10.357742227596326 27.043245727588427,9.89555982248736 27.043245727588427,9.078587760901796 C27.043245727588427,8.26161569931623 27.01318791151604,7.799433294207265 26.956390349976644,7.744893521341602 C26.908766277758048,7.6991625777704 26.8697301529887,7.567217560253486 26.8697301529887,7.451765669926184 C26.8697301529887,7.3363137795988855 26.834597640696288,7.241853142058364 26.791657903450016,7.241853142058364 C26.748718166203737,7.241853142058364 26.713585653911338,7.168571179204509 26.713585653911338,7.0791709329608015 C26.713585653911338,6.5427694554985685 25.56455732132573,5.090999419012729 24.937441976906243,4.834981103773944 C24.79788783085584,4.777817424309936 24.683707165905513,4.706222258555018 24.683707165905513,4.6754850669743755 C24.683707165905513,4.644747875393727 24.54317711673588,4.5980798223231165 24.371418167750768,4.57184075633964 C24.19965921876566,4.545414268456276 24.059129169596034,4.494435511688378 24.059129169596034,4.458450506911037 C24.059129169596034,4.4224655021337 23.86550999074009,4.393040263852226 23.628755894014024,4.393040263852226 C23.39200179728796,4.393040263852226 23.128507955094904,4.351245180178541 23.043214022473883,4.30007900151076 C22.919664687578916,4.226047351057382 22.85642616545258,4.226047351057382 22.73287683055761,4.30007900151076 C22.647582897936594,4.351245180178541 22.401655311889737,4.393040263852226 22.18637108378681,4.393040263852226 C21.971086855683886,4.393040263852226 21.79503393297415,4.4224655021337 21.79503393297415,4.458450506911037 C21.79503393297415,4.494435511688378 21.654503883804516,4.545414268456276 21.48274493481941,4.57184075633964 C21.3109859858343,4.5980798223231165 21.170455936664673,4.646809516292433 21.170455936664673,4.67979577067166 C21.170455936664673,4.7127820250508865 21.05081021424663,4.7849394565054535 20.90461992698544,4.8400414950707535 C20.758429639724255,4.895143533636059 20.54724420472211,5.028025660652386 20.435405707257946,5.13523098738488 C19.846936126360102,5.699558327929529 19.609010945890958,5.958013127866781 19.609010945890958,6.033544153519219 C19.609010945890958,6.079649940890189 19.57387843359855,6.117321742766466 19.530938696352273,6.117321742766466 C19.487998959106,6.117321742766466 19.452671266189743,6.159491670239916 19.452476085565902,6.211032692707457 C19.452280904942047,6.262573715175003 19.362888179220253,6.473423352542233 19.253587029866093,6.679587442412413 C19.144481061135778,6.885751532282599 19.03420400866239,7.198746105085509 19.00883052756232,7.375110112874454 C18.960620913472177,7.709283360364028 18.828288450504107,7.88977064995038 18.828288450504107,7.621195067419496 C18.828288450504107,7.5362929467729565 18.796474008817093,7.466759421916745 18.757633064671595,7.466759421916745 C18.718596939902252,7.466759421916745 18.662580100858246,7.298079712022959 18.633107826657394,7.091915622152781 C18.603635552456538,6.885751532282599 18.551327145265617,6.7170718223888155 18.517170536092443,6.7170718223888155 C18.482818746295422,6.7170718223888155 18.430900700352197,6.625422513346523 18.40162360677519,6.513531639116978 C18.284320051843313,6.064656188899633 17.44875180115553,5.138229737782989 16.935036399190988,4.887271813841015 C16.774012384517444,4.808554615890586 16.64226546342092,4.716155619248763 16.64226546342092,4.682044833470243 C16.64226546342092,4.647746625791843 16.50173541425128,4.5980798223231165 16.32997646526617,4.57184075633964 C16.158217516281063,4.545414268456276 16.01768746711143,4.497246840186611 16.01768746711143,4.464822851507027 C16.01768746711143,4.4134692509393645 15.260777007833873,4.322757051396483 14.807567599261805,4.319758300998373 C14.425403937769943,4.317134394400022 13.707919964509422,4.412344719540072 13.64038746865846,4.47456879030089 C13.599594718274497,4.512240592177166 13.517033314387337,4.542977783757815 13.456917682242548,4.542977783757815 C13.300968363789025,4.542977783757815 12.804624037346834,4.776692892910644 12.626424127774783,4.934127288811511 C12.543082001392236,5.007596673565247 12.44783385695504,5.067759103427363 12.414457970277255,5.067759103427363 C12.338142346353187,5.067759103427363 11.723713742483731,5.678192231342981 11.723713742483731,5.7540981007951855 C11.723713742483731,5.7852101361755945 11.635882461752711,5.8950393695064385 11.528533118637021,5.998121414441526 C11.421183775521328,6.1012034593766185 11.333352494790304,6.254514573480077 11.333352494790304,6.338854428426973 C11.333352494790304,6.4231942833738636 11.299781427488671,6.49216554253043 11.258793496480862,6.49216554253043 C11.21780556547305,6.49216554253043 11.161203184557504,6.6106161832558445 11.132901994099733,6.755305889964739 C11.104600803641958,6.900183018573511 11.05034059021257,7.037001005487356 11.012280368562461,7.059679055373078 C10.974220146912351,7.0823571052587955 10.942991247096877,7.183190087395303 10.942991247096877,7.283835647631928 C10.942991247096877,7.384481207868555 10.910005721666785,7.466759421916745 10.869603332530517,7.466759421916745 C10.829200943394245,7.466759421916745 10.782552774294878,7.59326920433708 10.765572060020219,7.747892271739719 C10.740393759543991,7.979170896194081 10.732781715213967,7.959304174806592 10.721851600278551,7.63543913181053 L10.708774498480821,7.241853142058364 L8.288534762781573,7.241853142058364 L5.868295027082327,7.241853142058364 L5.868295027082327,8.328900161373864 L5.868295027082327,9.415947180689367 L6.933200510789996,9.415947180689367 L7.998301175121512,9.415947180689367 L7.955751799122929,10.06948734557784 C7.931549401765935,10.441894660643339 7.876508465841162,10.734835090158874 7.827713309879485,10.75039110784908 C7.7804795989085775,10.765572281739523 7.742029016010775,10.815426507108128 7.742029016010775,10.861157450679334 C7.742029016010775,10.976234497206871 7.344250904611174,11.365134939461983 7.22636180780776,11.365134939461983 C7.173663039369149,11.365134939461983 7.116865477829755,11.404118694637434 7.100470305426629,11.451723857207464 C7.043477563263389,11.615905441504081 5.474030166911966,11.630899193494635 5.122314682740187,11.470653469095543 C4.296310282620897,11.094122872232637 3.693397335558398,10.040811794895891 3.549939577031065,8.722486151126027 C3.5284697084079237,8.526630265749358 3.4792841911985555,8.366384541350259 3.4404432470530573,8.366384541350259 C3.401602302907561,8.366384541350259 3.369983041844396,7.861469943068199 3.369983041844396,7.241853142058364 C3.369983041844396,6.5422071897989245 3.39945531604525,6.117321742766466 3.4480552913830795,6.117321742766466 C3.4909950286293547,6.117321742766466 3.5261275409217623,5.950703673771386 3.5261275409217623,5.746976068599668 C3.5261275409217623,5.543248463427957 3.556380537618007,5.358637892044198 3.5932696755250344,5.336709529758009 C3.6301588134320637,5.3147811674718195 3.6818816787514415,5.147225988977325 3.7078407017230557,4.96430221469251 C3.8860406112951047,3.7158849395786246 5.442801267096492,2.7143023066093077 6.528005535684219,3.149683380035155 C6.690981356596225,3.2150936230939653 6.8775740329936825,3.2685088645603306 6.942764361358485,3.2685088645603306 C7.218164221606198,3.2685088645603306 7.976245764626832,4.225485085357732 7.976245764626832,4.572965287738931 C7.976245764626832,4.63893779649739 8.01137827691924,4.6929153036633995 8.054318014165517,4.6929153036633995 C8.097257751411794,4.6929153036633995 8.132390263704204,4.815676648086097 8.132390263704204,4.965614167991685 L8.132390263704204,5.238313032319967 L8.890276626100992,5.184897790853603 C9.306987258013727,5.155472552572134 9.708668981890263,5.100183092106946 9.782837618952012,5.0621364464309035 C9.857006256013761,5.023902378854983 10.074437470979003,4.992790343474569 10.265909662972632,4.992790343474569 C10.797776862954926,4.992790343474569 10.860625023833567,4.60314021361993 10.477485459222468,3.6808370443006897 C10.235851846900236,3.0994543108667836 10.130063948775316,2.893665064796364 10.072290484116692,2.893665064796364 C10.0359868880812,2.893665064796364 10.006124252632652,2.8499957621238616 10.006124252632652,2.796580520657497 C10.006124252632652,2.6730694886352717 9.200808998641113,1.8441024254572613 9.080968095599232,1.8441024254572613 C9.031587397766012,1.8441024254572613 8.991185008629744,1.8163639842747283 8.991185008629744,1.7824406203960876 C8.991185008629744,1.674860449863833 8.372852792283354,1.3271928255827512 8.0910119714487,1.2764014907147367 C7.942089155453658,1.2496001590316128 7.820101265549463,1.1976842927643006 7.820101265549463,1.1609496003874327 C7.820101265549463,1.1244023299104473 7.739296487276922,1.0944148259293303 7.640535091610486,1.0944148259293303 C7.54177369594405,1.0944148259293303 7.42115207040678,1.0561807583534044 7.372356914445103,1.0093252833829087 C7.280426840613298,0.9210495685384998 5.420160314730273,0.856201591179329 4.794801595925403,0.9195501933394423 M32.70680188974851,3.1193210322542724 L32.68611274362077,5.144227238579215 L32.47473212799476,4.956055651097702 C32.358599656805985,4.852598762362848 32.22685273570945,4.767884063616192 32.181961192224705,4.767884063616192 C32.13726482936381,4.767884063616192 32.10057087208063,4.736772028235784 32.10057087208063,4.698912804459623 C32.10057087208063,4.6608661587835805 31.9955636964511,4.6076383392170985 31.867330026583808,4.5806495856340925 C31.73890117609266,4.553660832051085 31.613790396206923,4.50024559058472 31.589392818226088,4.462198944908677 C31.564800059621398,4.4241522992326345 31.425636274818686,4.393040263852226 31.27983634880519,4.393040263852226 C31.13423160341555,4.393040263852226 30.92441243278033,4.353494242977125 30.81394019968309,4.305139392807577 C30.660137868091873,4.237854930749943 30.591434288497837,4.237854930749943 30.52136444453687,4.305139392807577 C30.47100784358441,4.353494242977125 30.29632118524161,4.393040263852226 30.13315018370575,4.393040263852226 C29.969979182169908,4.393040263852226 29.836475635458754,4.4224655021337 29.836475635458754,4.458450506911037 C29.836475635458754,4.494435511688378 29.695945586289113,4.545414268456276 29.524186637304,4.57184075633964 C29.352427688318897,4.5980798223231165 29.211897639149264,4.6458724067930195 29.211897639149264,4.677546707873076 C29.211897639149264,4.7094084308530135 29.09771697419893,4.799370942796366 28.958162828148545,4.877525875047153 C28.633382270067614,5.059137696032794 28.040813896068983,5.6455808207635165 28.040813896068983,5.785397558075477 C28.040813896068983,5.8442480346384205 28.00626692564812,5.8924154629080885 27.964303091521074,5.8924154629080885 C27.92214407677018,5.8924154629080885 27.86554169585463,5.976755317854977 27.838606769763793,6.079837362790072 C27.81167184367294,6.182919407725164 27.758387533362786,6.267259262672054 27.720132131088832,6.267259262672054 C27.68168154819103,6.267259262672054 27.650452648375555,6.327983958233819 27.650452648375555,6.4022030305870805 C27.650452648375555,6.476422102940349 27.614344232963916,6.571819849980276 27.570233411974556,6.614177199353604 C27.526317771609044,6.6563471268270495 27.46854430695042,6.865509967095344 27.44239010335496,7.078983511060919 C27.41604071913565,7.292269633126617 27.364317853816274,7.466759421916745 27.327233535285394,7.466759421916745 C27.29034439737837,7.466759421916745 27.26009140068213,7.7008493748693425 27.26009140068213,7.9870426159891235 C27.26009140068213,8.273235857108917 27.23100948772897,8.524756046750534 27.195486614188873,8.54574729953732 C27.159963740648763,8.566925974223984 27.15742639253876,8.762781859600654 27.189826376097315,8.981315794863047 C27.22222635965587,9.199662308225554 27.25130827260903,9.656784322037714 27.254431162590578,9.996955070323512 C27.257554052572118,10.337125818609309 27.29034439737837,10.615447339934052 27.327233535285394,10.615447339934052 C27.364122673192433,10.615447339934052 27.414869635392584,10.805867990214152 27.439852755244956,11.03845856796769 C27.464835875097336,11.27104914572123 27.52241415913211,11.4970799569789 27.567891244488393,11.540749259651404 C27.61336832984469,11.584418562323906 27.650452648375555,11.697621389852621 27.650452648375555,11.79245687119291 C27.650452648375555,11.887292352533187 27.678558658209482,11.964885019084324 27.712910448006497,11.964885019084324 C27.747067057179677,11.964885019084324 27.82260195860836,12.091394801504666 27.880375423266983,12.246017868907298 C28.01348860873044,12.602681744382716 28.89726647350836,13.435397245558363 29.213263903516193,13.50193202001647 C29.341302392759637,13.529108195499354 29.44611438776532,13.582148593165961 29.44611438776532,13.620195238842006 C29.44611438776532,13.658054462618166 29.53179868163403,13.689166497998576 29.63661067663972,13.689166497998576 C29.741422671645395,13.689166497998576 29.848967195384944,13.722902439977323 29.875511760228093,13.764135257951365 C30.092747794569476,14.101682099638813 32.086517867163664,13.785501354537907 32.82293436093731,13.296517617745817 C33.069837850103404,13.132523455349082 33.271654615160905,13.240291047781218 33.271654615160905,13.536042805794994 C33.271654615160905,13.689353919898453 33.29976062499484,13.692914935996212 34.34514804631783,13.67248594890908 L35.41864147747475,13.651682118022169 L35.438549901107116,7.373048471975753 L35.45865350536333,1.0944148259293303 L34.093169860931724,1.0944148259293303 L32.72768621650012,1.0944148259293303 L32.70680188974851,3.1193210322542724 M15.298251687612442,6.473423352542233 C15.558232278576266,6.634231342640977 15.777420119156126,6.872631999290856 15.780933370385366,6.998204672211788 C15.782299634752292,7.049745694679334 15.816456243925469,7.091915622152781 15.856663452437889,7.091915622152781 C15.897065841574165,7.091915622152781 15.953863403113555,7.2441022048569454 15.982945316066715,7.430212151439759 C16.012027229019875,7.616322098022566 16.066872984320803,7.786876026915172 16.10473802534707,7.809554076800891 C16.196082557307328,7.863719005866784 16.194325931692706,10.294581047336099 16.102981399732446,10.348745976401991 C16.06414045558695,10.371798870087478 16.00812361654294,10.559408191869343 15.978651342342086,10.76538485983964 C15.949179068141234,10.97154894970982 15.893162229097225,11.140228659603606 15.854126104327882,11.140228659603606 C15.815285160182388,11.140228659603606 15.783470718495373,11.188208665973393 15.783470718495373,11.246871720636452 C15.783470718495373,11.479462298389995 15.151475858479714,11.889916259131537 14.793514594344842,11.889916259131537 C14.608093001690467,11.889916259131537 14.45624247633772,11.856180317152779 14.45624247633772,11.814947499178748 C14.45624247633772,11.773714681204707 14.40939912661451,11.739978739225949 14.352016023203575,11.739978739225949 C14.206996819685468,11.739978739225949 13.84649820744059,11.335897123080398 13.786382575295804,11.105930451925206 C13.759057287957262,11.001161609891177 13.705382616399419,10.915322379745229 13.667127214125454,10.915322379745229 C13.628676631227657,10.915322379745229 13.597447731412181,10.820861742204706 13.597447731412181,10.705409851877407 C13.597447731412181,10.589957961550102 13.55548389728514,10.455201615534959 13.504151393213455,10.405909655865997 C13.374356278355386,10.281274092444479 13.376698445841548,7.824735250691331 13.50649356069961,7.783315010817413 C13.556459800404372,7.767196727427558 13.597447731412181,7.655680696997781 13.597447731412181,7.53554325917343 C13.597447731412181,7.4152183994491985 13.628676631227657,7.3168219020111565 13.666736852877769,7.3168219020111565 C13.704992255151723,7.3168219020111565 13.75925246858111,7.198746105085509 13.787553659038881,7.0544312421763795 C13.815659668872811,6.910116379267256 13.863478921715256,6.792040582341608 13.893731918411493,6.792040582341608 C13.92398491510773,6.791853160441723 14.05417039121349,6.6927069754041595 14.182989602952322,6.571257584280635 C14.464049701291593,6.306617861647274 14.958637402119162,6.263323402774534 15.298251687612442,6.473423352542233 M23.384780114205633,6.454681162554038 C23.409372872810316,6.5165303895150934 23.477490910532822,6.567134302483225 23.53604509768684,6.567134302483225 C23.594599284840847,6.567134302483225 23.689457068030354,6.651474157430121 23.746840171441285,6.754556202365209 C23.80422327485222,6.8576382473003035 23.878977453785517,6.941978102247191 23.912548521087146,6.941978102247191 C23.946314769012627,6.941978102247191 23.998232814955852,7.068487884667531 24.027900269780552,7.223110952070165 C24.057372543981405,7.377734019472804 24.120415885483897,7.528233805078035 24.168039957702494,7.5576590433595054 C24.289247125111306,7.63281522521218 24.287100138248988,10.478441931120322 24.16569779021633,10.622756794029453 C24.117097814878502,10.680482739193101 24.05171230588985,10.842415260691137 24.02048340607438,10.982419419902973 C23.769285943183657,12.109012460093572 22.09014703623038,12.10994956959298 21.83250861275272,10.983918795102031 C21.80537850603803,10.864718466777092 21.7505327507371,10.747767201250735 21.710911084096214,10.724339463765487 C21.67128941745533,10.700724304380357 21.63888943389678,10.548537721676183 21.63888943389678,10.386042934478507 C21.63888943389678,10.22354814728083 21.603756921604372,10.090666020264504 21.560817184358097,10.090666020264504 C21.5128027508918,10.090666020264504 21.48274493481941,9.717321595699591 21.48274493481941,9.120570266475358 C21.48274493481941,8.554556128831774 21.515340099001808,8.130982635098489 21.560817184358097,8.103993881515487 C21.603756921604372,8.078504503131533 21.63888943389678,7.943560735216506 21.63888943389678,7.804118841704311 C21.63888943389678,7.664676948192117 21.670118333712253,7.532169664975555 21.708178555362363,7.509491615089832 C21.746238777012472,7.486813565204116 21.80049899044186,7.349995578290265 21.82880018089963,7.205118449681494 C21.857101371357405,7.060428742972604 21.905310985447542,6.941978102247191 21.936149524015324,6.941978102247191 C21.966988062583106,6.941978102247191 22.026908514104047,6.866072232794988 22.06926270947878,6.773298392353405 C22.111616904853523,6.680524551911828 22.225407208556152,6.571257584280635 22.322021617360278,6.53058703200624 C22.4186360261644,6.489916479731847 22.497684178822325,6.430878581269023 22.497684178822325,6.399391702088855 C22.497684178822325,6.284127233661433 23.337351222610877,6.336417943728505 23.384780114205633,6.454681162554038 M32.07714919721902,6.6810868176114715 C32.16985999354622,6.762802765960018 32.35372014120981,6.912365442065839 32.48546706230635,7.013385846102226 L32.72514886839011,7.19724672988645 L32.72514886839011,8.953764775580394 C32.72514886839011,10.751890483048138 32.643758548246026,11.2151974195564 32.32834666010974,11.2151974195564 C32.288920174092716,11.2151974195564 32.177667218500076,11.291103289008603 32.08105280969596,11.383877129450186 C31.496096480027354,11.945580563396492 30.070692384074803,11.290728445208838 30.070692384074803,10.460262006831774 C30.070692384074803,10.387542309677565 30.02677674370929,10.31407292492383 29.97310207215145,10.296830110134684 C29.900104518832777,10.273402372649436 29.875511760228093,9.946538579255257 29.875511760228093,9.003619000949001 C29.875511760228093,8.060699422642745 29.900104518832777,7.733835629248567 29.97310207215145,7.710407891763319 C30.02677674370929,7.69316507697418 30.070692384074803,7.613323347624451 30.070692384074803,7.53291935257508 C30.070692384074803,6.760741125061317 31.485361545715783,6.16005393593956 32.07714919721902,6.6810868176114715 " stroke="none" fill="#ec68a2" fill-rule="evenodd" class="" />
   </g>
</svg>