<?xml version="1.0" encoding="utf-8"?>
<!-- Generator: Adobe Illustrator 16.0.0, SVG Export Plug-In . SVG Version: 6.00 Build 0)  -->
<!DOCTYPE svg PUBLIC "-//W3C//DTD SVG 1.1//EN" "http://www.w3.org/Graphics/SVG/1.1/DTD/svg11.dtd">
<svg version="1.1" id="Layer_1" xmlns="http://www.w3.org/2000/svg" xmlns:xlink="http://www.w3.org/1999/xlink" x="0px" y="0px"
	 width="71.999px" height="24px" viewBox="0 0 71.999 24" enable-background="new 0 0 71.999 24" xml:space="preserve">
<g>
	<g>
		<g>
			<g>
				<defs>
					<rect id="SVGID_1_" y="1.811" width="71.999" height="14.035"/>
				</defs>
				<clipPath id="SVGID_2_">
					<use xlink:href="#SVGID_1_"  overflow="visible"/>
				</clipPath>
				<path clip-path="url(#SVGID_2_)" fill="#D5E04E" d="M66.325,2.189h-2.16v13.238h2.16V8.759c0.404-0.519,0.916-1.038,1.535-1.038
					c0.934,0,0.9,1.198,0.9,1.977v5.729h2.158V8.68c0-2.355-1.264-2.975-2.158-2.975c-0.914,0-1.758,0.518-2.455,1.197V2.189H66.325
					z M61.937,3.528h-2.162v2.375h-1.025V8h1.008v4.672c0,2.076,1.117,2.955,2.451,2.955c0.479,0,0.934-0.141,1.393-0.279V13.43
					c-0.258,0.18-0.496,0.359-0.859,0.359c-0.699,0-0.824-0.479-0.824-0.938V8h1.684V5.903h-1.684V3.528H61.937z M58.474,2.189
					h-2.158v13.238h2.158V2.189z M53.55,12.531c-0.402,0.639-1.025,1.238-1.922,1.238c-0.512,0-0.75-0.459-0.75-1.019
					c0-1.396,1.777-1.496,2.672-1.675V12.531z M53.917,15.428h2.105c-0.258-0.641-0.295-1.318-0.295-1.998V8.7
					c0-1.777-1.004-3.015-3.221-3.015c-1.719,0-2.889,0.64-3.367,2.675l2.086,0.378c0.113-0.837,0.623-1.197,1.299-1.197
					c0.809,0,1.191,0.478,1.045,1.796c-1.738,0.221-4.795,0.76-4.795,3.455c0,1.694,1.154,2.813,2.582,2.813
					c1.041,0,1.52-0.399,2.324-1.078L53.917,15.428z M48.425,11.256c0.057-4.413-1.516-5.551-3.586-5.551
					c-2.396,0-3.604,2.435-3.604,4.971c0,2.516,1.207,4.971,3.604,4.971c1.557,0,3.129-1.08,3.586-2.955l-2.012-0.42
					c-0.166,0.799-0.586,1.538-1.354,1.538c-1.115,0-1.721-1.355-1.648-2.516h5.016v-0.037H48.425z M43.503,9.678
					c0.037-1.019,0.422-2.118,1.41-2.118c1.043,0,1.408,1.059,1.408,2.118H43.503z M34.919,7.36V2.189h-2.288v13.238h2.288V9.616
					h3.771v5.812h2.289V2.189h-2.289V7.36H34.919z"/>
			</g>
		</g>
	</g>
	<g>
		<g>
			<g>
				<defs>
					<rect id="SVGID_3_" y="1.811" width="71.999" height="14.035"/>
				</defs>
				<clipPath id="SVGID_4_">
					<use xlink:href="#SVGID_3_"  overflow="visible"/>
				</clipPath>
				<path clip-path="url(#SVGID_4_)" fill="#6BC5AA" d="M30.033,8.739v3.673c-0.329,0.6-0.769,1.098-1.409,1.098
					c-1.299,0-1.502-1.836-1.502-2.974c0-1.057,0.257-2.814,1.447-2.814C29.208,7.702,29.65,8.201,30.033,8.739 M30.455,15.428
					h1.739V2.23l-2.16-0.041v4.652c-0.623-0.639-1.134-1.138-2.012-1.138c-1.191,0-3.002,1.197-3.002,4.73
					c0,4.012,1.521,5.209,3.186,5.209c0.914,0,1.427-0.319,2.085-1L30.455,15.428z M21.065,13.789c-1.171,0-1.373-1.916-1.373-3.113
					c0-1.197,0.202-3.116,1.373-3.116s1.372,1.919,1.372,3.116C22.437,11.873,22.237,13.789,21.065,13.789 M21.065,15.646
					c2.379,0,3.605-2.455,3.605-4.971c0-2.536-1.208-4.971-3.605-4.971c-2.398,0-3.605,2.435-3.605,4.971
					C17.46,13.191,18.667,15.646,21.065,15.646 M13.817,13.789c-1.171,0-1.372-1.916-1.372-3.113c0-1.197,0.201-3.116,1.372-3.116
					c1.171,0,1.372,1.919,1.372,3.116C15.189,11.873,14.989,13.789,13.817,13.789 M13.817,15.646c2.379,0,3.605-2.455,3.605-4.971
					c0-2.536-1.208-4.971-3.605-4.971c-2.398,0-3.605,2.435-3.605,4.971C10.213,13.191,11.421,15.646,13.817,15.646 M7.851,10.875
					c0.093,1.496-0.237,2.675-2.013,2.675c-1.958,0-2.362-3.037-2.362-4.731c0-1.698,0.185-4.712,2.362-4.732
					c1.429-0.02,1.958,1.098,2.159,2.355l2.051-0.359C9.811,3.568,8.09,1.991,5.838,1.991c-3.259,0-4.704,3.494-4.704,6.829
					c0,3.335,1.445,6.827,4.704,6.827c0.769,0,1.739-0.299,2.38-1.137l0.219,0.938h1.592V8.799H5.857v2.096h1.994V10.875z"/>
			</g>
		</g>
	</g>
	<g>
		<g>
			<g>
				<defs>
					<rect id="SVGID_5_" y="1.811" width="71.999" height="14.035"/>
				</defs>
				<clipPath id="SVGID_6_">
					<use xlink:href="#SVGID_5_"  overflow="visible"/>
				</clipPath>
				<path clip-path="url(#SVGID_6_)" fill="none" d="M30.033,8.739v3.673c-0.329,0.6-0.769,1.098-1.409,1.098
					c-1.299,0-1.502-1.836-1.502-2.974c0-1.057,0.257-2.814,1.447-2.814C29.208,7.702,29.65,8.201,30.033,8.739z M30.455,15.428
					h1.739V2.23l-2.16-0.041v4.652c-0.623-0.639-1.134-1.138-2.012-1.138c-1.191,0-3.002,1.197-3.002,4.73
					c0,4.012,1.521,5.209,3.186,5.209c0.914,0,1.427-0.319,2.085-1L30.455,15.428z M21.065,13.789c-1.171,0-1.373-1.916-1.373-3.113
					c0-1.197,0.202-3.116,1.373-3.116s1.372,1.919,1.372,3.116C22.437,11.873,22.237,13.789,21.065,13.789z M21.065,15.646
					c2.379,0,3.605-2.455,3.605-4.971c0-2.536-1.208-4.971-3.605-4.971c-2.398,0-3.605,2.435-3.605,4.971
					C17.46,13.191,18.667,15.646,21.065,15.646z M13.817,13.789c-1.171,0-1.372-1.916-1.372-3.113c0-1.197,0.201-3.116,1.372-3.116
					c1.171,0,1.372,1.919,1.372,3.116C15.189,11.873,14.989,13.789,13.817,13.789z M13.817,15.646c2.379,0,3.605-2.455,3.605-4.971
					c0-2.536-1.208-4.971-3.605-4.971c-2.398,0-3.605,2.435-3.605,4.971C10.213,13.191,11.421,15.646,13.817,15.646z M7.851,10.875
					c0.093,1.496-0.237,2.675-2.013,2.675c-1.958,0-2.362-3.037-2.362-4.731c0-1.698,0.185-4.712,2.362-4.732
					c1.429-0.02,1.958,1.098,2.159,2.355l2.051-0.359C9.811,3.568,8.09,1.991,5.838,1.991c-3.259,0-4.704,3.494-4.704,6.829
					c0,3.335,1.445,6.827,4.704,6.827c0.769,0,1.739-0.299,2.38-1.137l0.219,0.938h1.592V8.799H5.857v2.096h1.994V10.875z"/>
			</g>
		</g>
	</g>
</g>
</svg>
