<?xml version="1.0" encoding="UTF-8"?>
<svg width="94px" height="16px" viewBox="0 0 94 16" version="1.1" xmlns="http://www.w3.org/2000/svg" xmlns:xlink="http://www.w3.org/1999/xlink">
    <!-- Generator: Sketch 52.6 (67491) - http://www.bohemiancoding.com/sketch -->
    <title>MB-logo</title>
    <desc>Created with Sketch.</desc>
    <g id="Page-1" stroke="none" stroke-width="1" fill="none" fill-rule="evenodd">
        <g id="MB-logo" fill="#EE7DC5">
            <path d="M87.836,15.791 C89.475,15.791 90.251,14.957 90.959,12.857 L93.959,4.069 L91.003,4.069 L89.452,9.492 L87.814,4.07 L84.793,4.07 L88.014,12.912 C87.836,13.193 87.638,13.279 87.351,13.279 C87.031,13.279 86.541,13.095 86.091,12.793 L85.194,15.013 C85.955,15.477 86.82,15.791 87.836,15.791 Z M81.15,10.628 C80.221,10.628 79.48,9.784 79.48,8.584 L79.48,8.551 C79.48,7.371 80.221,6.517 81.15,6.517 C82.09,6.517 82.834,7.362 82.834,8.551 L82.834,8.584 C82.833,9.794 82.092,10.628 81.15,10.628 Z M82.046,13.279 C83.984,13.279 85.679,11.492 85.679,8.57 L85.679,8.539 C85.679,5.659 83.996,3.875 82.036,3.875 C80.807,3.875 80.108,4.523 79.545,5.271 L79.545,0.963 L76.667,0.963 L76.667,13.074 L79.545,13.074 L79.545,11.98 C80.067,12.662 80.796,13.279 82.046,13.279 Z M72.074,11.298 C71.488,11.298 71.055,10.932 71.055,10.314 L71.055,10.283 C71.055,9.611 71.542,9.168 72.373,9.168 C72.792,9.168 73.202,9.266 73.491,9.406 L73.491,9.816 C73.5,10.714 72.903,11.298 72.074,11.298 Z M71.044,13.279 C72.117,13.279 72.895,12.824 73.458,12.142 L73.458,13.074 L76.312,13.074 L76.312,7.9 C76.312,6.633 76.058,5.703 75.427,5.031 C74.774,4.317 73.777,3.927 72.304,3.927 C70.887,3.927 69.902,4.209 68.982,4.63 L69.572,6.859 C70.301,6.546 70.963,6.362 71.829,6.362 C72.936,6.362 73.468,6.893 73.468,7.823 L73.468,7.973 C72.992,7.789 72.249,7.627 71.498,7.627 C69.572,7.627 68.275,8.59 68.275,10.451 L68.275,10.482 C68.276,12.294 69.472,13.279 71.044,13.279 Z M61.547,10.476 L61.547,8.334 L63.792,8.334 C64.777,8.334 65.23,8.746 65.23,9.383 L65.23,9.416 C65.23,10.097 64.71,10.476 63.826,10.476 L61.547,10.476 Z M61.547,5.855 L61.547,3.594 L63.461,3.594 C64.348,3.594 64.801,3.962 64.801,4.59 L64.801,4.622 C64.801,5.303 64.305,5.854 63.406,5.854 L61.547,5.855 Z M58.668,13.074 L64.147,13.074 C66.683,13.074 68.166,11.861 68.166,9.859 L68.166,9.826 C68.166,8.248 67.349,7.23 66.053,6.766 C66.993,6.311 67.694,5.305 67.694,3.953 L67.694,3.918 C67.694,3.117 67.436,2.5 67.006,2.035 C66.385,1.353 65.443,0.986 64.105,0.986 L58.657,0.986 L58.657,13.074 L58.668,13.074 Z M44.222,13.074 L47.099,13.074 L47.099,10.283 C47.099,8.204 47.95,7.251 49.457,7.251 L49.7,7.251 L49.7,3.919 C48.338,3.854 47.575,4.655 47.11,5.878 L47.11,4.059 L44.233,4.059 L44.233,13.074 L44.222,13.074 Z M38.522,7.836 C38.675,6.853 39.185,6.203 39.95,6.203 C40.737,6.203 41.266,6.83 41.378,7.836 L38.522,7.836 Z M40.192,13.289 C41.832,13.289 42.971,12.556 43.756,11.461 L42.159,10.012 C41.574,10.639 41.02,10.93 40.334,10.93 C39.437,10.93 38.783,10.433 38.563,9.448 L44.053,9.448 C44.063,9.231 44.063,8.995 44.063,8.8 C44.063,6.148 42.757,3.876 39.923,3.876 C37.499,3.876 35.782,5.953 35.782,8.585 L35.782,8.616 C35.786,11.408 37.614,13.289 40.192,13.289 Z M27.474,13.074 L30.351,13.074 L30.351,8.193 C30.351,7.209 30.872,6.678 31.567,6.678 C32.254,6.678 32.718,7.209 32.718,8.193 L32.718,13.074 L35.608,13.074 L35.608,7.186 C35.608,5.142 34.558,3.876 32.818,3.876 C31.646,3.876 30.893,4.558 30.36,5.305 L30.36,0.965 L27.483,0.965 L27.483,13.076 L27.473,13.076 L27.473,13.074 L27.474,13.074 Z M25.125,13.257 C25.934,13.257 26.609,13.063 27.13,12.737 L27.13,10.258 C26.775,10.442 26.422,10.561 26.033,10.561 C25.501,10.561 25.246,10.291 25.246,9.665 L25.246,6.624 L27.16,6.624 L27.16,4.081 L25.246,4.081 L25.246,1.417 L22.368,2.089 L22.368,4.08 L21.393,4.08 L21.393,6.624 L22.368,6.624 L22.368,10.283 C22.37,12.423 23.4,13.257 25.125,13.257 Z M17.056,10.617 C16.037,10.617 15.308,9.685 15.308,8.584 L15.308,8.551 C15.308,7.469 15.971,6.549 17.023,6.549 C18.042,6.549 18.773,7.479 18.773,8.584 L18.773,8.615 C18.773,9.697 18.108,10.617 17.056,10.617 Z M17.035,13.289 C19.68,13.289 21.584,11.148 21.584,8.584 L21.584,8.551 C21.584,5.987 19.691,3.876 17.057,3.876 C14.411,3.876 12.509,6.02 12.509,8.584 L12.509,8.615 C12.507,11.18 14.398,13.289 17.035,13.289 Z M0.959,13.074 L3.836,13.074 L3.836,6.419 L6.55,10.943 L6.605,10.943 L9.317,6.386 L9.317,13.074 L12.251,13.074 L12.251,0.996 L9.142,0.996 L6.606,5.932 L4.071,0.986 L0.959,0.986 L0.959,13.074 Z" id="Shape" fill-rule="nonzero"></path>
            <path d="M56.519,6.331 L57.593,4.903 L57.161,4.557 L54.725,7.805 L55.147,8.151 L56.166,6.818 C57.161,7.445 57.782,8.344 57.782,9.481 C57.782,11.384 56.066,12.826 53.841,12.826 C51.605,12.826 49.901,11.387 49.901,9.481 C49.901,7.762 51.285,6.44 53.211,6.179 L53.531,5.487 C53.453,5.487 53.399,5.477 53.289,5.467 C52.171,5.357 51.395,4.427 51.395,3.42 C51.395,2.08 52.302,1.365 53.531,1.365 C54.604,1.365 55.403,2.133 55.623,3.01 L56.122,2.718 C55.778,1.756 54.762,0.835 53.562,0.835 C52.081,0.835 50.751,1.797 50.751,3.453 C50.751,4.363 51.292,5.358 52.29,5.78 C50.572,6.332 49.345,7.793 49.345,9.491 C49.345,11.679 51.361,13.442 53.841,13.442 C56.32,13.442 58.336,11.667 58.336,9.491 C58.325,8.193 57.618,7.046 56.519,6.331" id="Path"></path>
        </g>
    </g>
</svg>