<?xml version="1.0" encoding="utf-8"?>
<!-- Generator: Adobe Illustrator 16.0.0, SVG Export Plug-In . SVG Version: 6.00 Build 0)  -->
<!DOCTYPE svg PUBLIC "-//W3C//DTD SVG 1.1//EN" "http://www.w3.org/Graphics/SVG/1.1/DTD/svg11.dtd">
<svg version="1.1" id="Layer_1" xmlns="http://www.w3.org/2000/svg" xmlns:xlink="http://www.w3.org/1999/xlink" x="0px" y="0px"
	 width="93px" height="23.917px" viewBox="-1.041 0 93 23.917" enable-background="new -1.041 0 93 23.917" xml:space="preserve">
<g>
	<g enable-background="new    ">
		<g>
			<path fill="#EE7DC5" d="M85.836,18.791c1.639,0,2.415-0.834,3.123-2.934l3-8.788h-2.956l-1.551,5.423L85.814,7.07h-3.021
				l3.221,8.842c-0.178,0.281-0.376,0.367-0.663,0.367c-0.32,0-0.81-0.184-1.26-0.486l-0.897,2.22
				C83.955,18.477,84.82,18.791,85.836,18.791 M79.15,13.628c-0.929,0-1.67-0.844-1.67-2.044v-0.033c0-1.18,0.741-2.034,1.67-2.034
				c0.94,0,1.684,0.845,1.684,2.034v0.033C80.833,12.794,80.092,13.628,79.15,13.628 M80.046,16.279
				c1.938,0,3.633-1.787,3.633-4.709v-0.031c0-2.88-1.683-4.664-3.643-4.664c-1.229,0-1.928,0.648-2.491,1.396V3.963h-2.878v12.111
				h2.878V14.98C78.067,15.662,78.796,16.279,80.046,16.279 M70.074,14.298c-0.586,0-1.019-0.366-1.019-0.984v-0.031
				c0-0.672,0.487-1.115,1.318-1.115c0.419,0,0.829,0.098,1.118,0.238v0.41C71.5,13.714,70.903,14.298,70.074,14.298 M69.044,16.279
				c1.073,0,1.851-0.455,2.414-1.137v0.932h2.854V10.9c0-1.267-0.254-2.197-0.885-2.869c-0.653-0.714-1.65-1.104-3.123-1.104
				c-1.417,0-2.402,0.282-3.322,0.703l0.59,2.229c0.729-0.313,1.391-0.497,2.257-0.497c1.107,0,1.639,0.531,1.639,1.461v0.15
				c-0.476-0.184-1.219-0.346-1.97-0.346c-1.926,0-3.223,0.963-3.223,2.824v0.031C66.276,15.294,67.472,16.279,69.044,16.279
				 M59.547,13.476v-2.142h2.245c0.985,0,1.438,0.412,1.438,1.049v0.033c0,0.681-0.52,1.06-1.404,1.06H59.547L59.547,13.476z
				 M59.547,8.855V6.594h1.914c0.887,0,1.34,0.368,1.34,0.996v0.032c0,0.681-0.496,1.232-1.395,1.232L59.547,8.855L59.547,8.855z
				 M56.668,16.074h5.479c2.536,0,4.019-1.213,4.019-3.215v-0.033c0-1.578-0.817-2.596-2.113-3.06
				c0.94-0.455,1.641-1.461,1.641-2.813V6.918c0-0.801-0.258-1.418-0.688-1.883c-0.621-0.682-1.563-1.049-2.901-1.049h-5.448v12.088
				H56.668z M42.222,16.074h2.877v-2.791c0-2.079,0.851-3.032,2.358-3.032H47.7V6.919c-1.362-0.065-2.125,0.736-2.59,1.959V7.059
				h-2.877v9.015H42.222z M36.522,10.836c0.153-0.983,0.663-1.633,1.428-1.633c0.787,0,1.316,0.627,1.428,1.633H36.522z
				 M38.192,16.289c1.64,0,2.779-0.733,3.564-1.828l-1.597-1.449c-0.585,0.627-1.139,0.918-1.825,0.918
				c-0.897,0-1.551-0.497-1.771-1.482h5.49c0.01-0.217,0.01-0.453,0.01-0.648c0-2.652-1.306-4.924-4.14-4.924
				c-2.424,0-4.141,2.077-4.141,4.709v0.031C33.786,14.408,35.614,16.289,38.192,16.289 M25.474,16.074h2.877v-4.881
				c0-0.984,0.521-1.515,1.216-1.515c0.687,0,1.151,0.531,1.151,1.515v4.881h2.89v-5.888c0-2.044-1.05-3.31-2.79-3.31
				c-1.172,0-1.925,0.682-2.458,1.429v-4.34h-2.877v12.111h-0.01V16.074z M23.125,16.257c0.809,0,1.484-0.194,2.005-0.52v-2.479
				c-0.355,0.184-0.708,0.303-1.097,0.303c-0.532,0-0.787-0.27-0.787-0.896V9.624h1.914V7.081h-1.914V4.417l-2.878,0.672V7.08
				h-0.975v2.544h0.975v3.659C20.37,15.423,21.4,16.257,23.125,16.257 M15.056,13.617c-1.019,0-1.748-0.932-1.748-2.033v-0.033
				c0-1.082,0.663-2.002,1.715-2.002c1.019,0,1.75,0.93,1.75,2.035v0.031C16.773,12.697,16.108,13.617,15.056,13.617 M15.035,16.289
				c2.645,0,4.549-2.141,4.549-4.705v-0.033c0-2.564-1.893-4.675-4.527-4.675c-2.646,0-4.548,2.144-4.548,4.708v0.031
				C10.507,14.18,12.398,16.289,15.035,16.289 M-1.041,16.074h2.877V9.419l2.714,4.524h0.055l2.712-4.557v6.688h2.934V3.996H7.142
				L4.606,8.932L2.071,3.986h-3.112V16.074z"/>
		</g>
	</g>
	<path fill="#EE7DC5" d="M54.519,9.331l1.074-1.428l-0.432-0.346l-2.436,3.248l0.422,0.346l1.019-1.333
		c0.995,0.627,1.616,1.526,1.616,2.663c0,1.903-1.716,3.345-3.941,3.345c-2.236,0-3.94-1.439-3.94-3.345
		c0-1.719,1.384-3.041,3.31-3.302l0.32-0.692c-0.078,0-0.132-0.01-0.242-0.02c-1.118-0.11-1.894-1.04-1.894-2.047
		c0-1.34,0.907-2.055,2.136-2.055c1.073,0,1.872,0.768,2.092,1.645l0.499-0.292c-0.344-0.962-1.36-1.883-2.56-1.883
		c-1.481,0-2.811,0.962-2.811,2.618c0,0.91,0.541,1.905,1.539,2.327c-1.718,0.552-2.945,2.013-2.945,3.711
		c0,2.188,2.016,3.951,4.496,3.951c2.479,0,4.495-1.775,4.495-3.951C56.325,11.193,55.618,10.046,54.519,9.331"/>
</g>
</svg>
