<?xml version="1.0" encoding="UTF-8"?>
<svg width="51px" height="20px" viewBox="0 0 51 20" version="1.1" xmlns="http://www.w3.org/2000/svg" xmlns:xlink="http://www.w3.org/1999/xlink">
    <!-- Generator: Sketch 52.6 (67491) - http://www.bohemiancoding.com/sketch -->
    <title>NTL-logo</title>
    <desc>Created with Sketch.</desc>
    <g id="Page-1" stroke="none" stroke-width="1" fill="none" fill-rule="evenodd">
        <g id="NTL-logo" fill="#002855">
            <polygon id="Path" points="21.27 15.66 20.07 15.66 20.07 15.38 22.78 15.38 22.78 15.66 21.59 15.66 21.59 18.66 21.27 18.66"></polygon>
            <path d="M23.8,17 C23.7957671,16.7732463 23.8400923,16.5482108 23.93,16.34 C24.0074807,16.14619 24.1270235,15.9719991 24.28,15.83 C24.435617,15.6769834 24.623559,15.5608011 24.83,15.49 C25.0519603,15.3991584 25.2902238,15.3549095 25.53,15.36 C25.7696164,15.3568266 26.0075006,15.4010051 26.23,15.49 C26.4323025,15.5632911 26.6164693,15.6792479 26.77,15.83 C26.9229765,15.9719991 27.0425193,16.14619 27.12,16.34 C27.2927988,16.7595716 27.2927988,17.2304284 27.12,17.65 C27.0402155,17.8454946 26.9210814,18.0224937 26.77,18.17 C26.6136821,18.3171894 26.4302944,18.4326557 26.23,18.51 C26.0056942,18.5914404 25.7686238,18.6320811 25.53,18.63 C25.2912704,18.633415 25.0539613,18.5927334 24.83,18.51 C24.6254379,18.435279 24.4382834,18.3195835 24.28,18.17 C24.1289186,18.0224937 24.0097845,17.8454946 23.93,17.65 C23.8408996,17.4450548 23.7965786,17.2234495 23.8,17 Z M24.11,17 C24.1112561,17.1812364 24.1451296,17.3607663 24.21,17.53 C24.2733805,17.6937082 24.3685431,17.8432495 24.49,17.97 C24.6197918,18.0949122 24.7726259,18.1934052 24.94,18.26 C25.128304,18.3313412 25.3287047,18.3653075 25.53,18.36 C25.7279643,18.3642643 25.9248935,18.330311 26.11,18.26 C26.2773741,18.1934052 26.4302082,18.0949122 26.56,17.97 C27.0718987,17.4207847 27.0718987,16.5692153 26.56,16.02 C26.4302082,15.8950878 26.2773741,15.7965948 26.11,15.73 C25.9248935,15.659689 25.7279643,15.6257357 25.53,15.63 C25.3287047,15.6246925 25.128304,15.6586588 24.94,15.73 C24.7726259,15.7965948 24.6197918,15.8950878 24.49,16.02 C24.3685431,16.1467505 24.2733805,16.2962918 24.21,16.46 C24.1443703,16.6324954 24.1104913,16.8154419 24.11,17 Z" id="Shape" fill-rule="nonzero"></path>
            <polygon id="Path" points="30.72 15.37 31 15.37 31 18.37 32.64 18.37 32.64 18.65 30.64 18.65"></polygon>
            <path d="M33.91,17 C33.907316,16.7743412 33.9480559,16.5502719 34.03,16.34 C34.114652,16.1476163 34.2370716,15.9741886 34.39,15.83 C34.5435307,15.6792479 34.7276975,15.5632911 34.93,15.49 C35.1521976,15.399968 35.3902929,15.3557503 35.63,15.36 C35.8697762,15.3549095 36.1080397,15.3991584 36.33,15.49 C36.5340801,15.5657105 36.7210468,15.6812899 36.88,15.83 C37.0299579,15.9745795 37.1490259,16.1480786 37.23,16.34 C37.4027988,16.7595716 37.4027988,17.2304284 37.23,17.65 C37.1465735,17.8435293 37.0278898,18.0198594 36.88,18.17 C36.7184301,18.3152531 36.5321576,18.4304034 36.33,18.51 C36.1060387,18.5927334 35.8687296,18.633415 35.63,18.63 C35.3913762,18.6320811 35.1543058,18.5914404 34.93,18.51 C34.7297056,18.4326557 34.5463179,18.3171894 34.39,18.17 C34.2390666,18.0202605 34.1170276,17.843982 34.03,17.65 C33.9490736,17.4429231 33.9083473,17.2223222 33.91,17 Z M34.22,17 C34.2165004,17.1816663 34.2505443,17.3620989 34.32,17.53 C34.3793476,17.6957148 34.4750173,17.846053 34.6,17.97 C34.7261926,18.0946317 34.8757072,18.1931755 35.04,18.26 C35.4220272,18.3933728 35.8379728,18.3933728 36.22,18.26 C36.3842928,18.1931755 36.5338074,18.0946317 36.66,17.97 C36.7878183,17.84642 36.8868329,17.696191 36.95,17.53 C36.997923,17.3576886 37.0148527,17.1782336 37,17 C37.0027087,16.816053 36.9722208,16.6331254 36.91,16.46 C36.8468329,16.293809 36.7478183,16.14358 36.62,16.02 C36.4938074,15.8953683 36.3442928,15.7968245 36.18,15.73 C35.7979728,15.5966272 35.3820272,15.5966272 35,15.73 C34.8357072,15.7968245 34.6861926,15.8953683 34.56,16.02 C34.4350173,16.143947 34.3393476,16.2942852 34.28,16.46 C34.2230552,16.6339537 34.202629,16.817789 34.22,17 Z" id="Shape" fill-rule="nonzero"></path>
            <polygon id="Path" points="38.58 15.37 38.94 15.37 40.06 18.24 41.2 15.37 41.55 15.37 40.22 18.64 39.89 18.64"></polygon>
            <polygon id="Path" points="42.93 15.37 45.07 15.37 45.07 15.65 43.25 15.65 43.25 16.81 45 16.81 45 17.09 43.25 17.09 43.25 18.36 45.15 18.36 45.15 18.64 42.93 18.64"></polygon>
            <path d="M50.08,-8.8817842e-16 C50.08,-8.8817842e-16 49.78,1 48.27,5.06 L45.09,13.86 L44.09,13.86 L40.09,4.94 L37,13.86 L36,13.86 C33.46,8.21 30.59,1.91 30.59,1.91 C29.9,0.53 29.09,0.41 28.6,0.38 L28.6,-8.8817842e-16 L34.44,-3.33066907e-16 L35.54,2.56 L38.41,8.71 L39.91,4.5 C39.48,3.5 38.72,1.91 38.72,1.91 C38,0.53 37.6,0.41 37.08,0.38 L37.08,-3.33066907e-16 L42.48,-3.33066907e-16 L43.67,2.56 L46.51,8.71 C46.51,8.71 48.14,5.24 48.06,2.79 C48.05617,2.32389642 47.9539391,1.86385712 47.76,1.44 C47.409108,0.715671176 46.6399114,0.291010551 45.84,0.38 L45.84,-8.8817842e-16 L50.08,-8.8817842e-16 Z" id="Path"></path>
            <path d="M23,0 C18.32,0 16,3.12 16,6.93 C16,10.74 18.36,13.86 23,13.86 C27.64,13.86 30,10.71 30,6.93 C30,3.15 27.66,0 23,0 Z M23,13.44 C21.66,13.44 20.57,10.53 20.57,6.93 C20.57,4.32 21.01,2.09 21.83,1.05 C22.1152688,0.686253254 22.5392928,0.457932648 23,0.42 C23.441589,0.391151376 23.8699184,0.577381531 24.15,0.92 C24.97,1.92 25.44,4.34 25.44,6.92 C25.45,10.53 24.36,13.44 23,13.44 Z" id="Shape" fill-rule="nonzero"></path>
            <path d="M15.64,17.77 C14.36,16.31 14.44,12.82 14.44,12.82 L14.44,3.69 C14.44,2 13,0 10.09,0 C8.35523722,0.0680409682 6.80731182,1.1090208 6.09,2.69 L6.09,0 C4.19593177,0.916981039 2.10182393,1.34336753 -1.77635684e-15,1.24 L-1.77635684e-15,1.47 C1.13,1.91 1.43,2.33 1.43,3.36 L1.43,10.54 C1.43,12.07 1.43,13.3 0.36,13.63 L0.36,13.86 L7.24,13.86 L7.24,13.63 C6.24,13.33 6.12,12.16 6.12,10.54 L6.12,2.79 C6.52608381,2.26421183 7.13730138,1.93677385 7.8,1.89 C8.35188538,1.8641113 8.88671688,2.08490982 9.25961183,2.49258254 C9.63250679,2.90025526 9.80486659,3.45260372 9.73,4 L9.73,12 C9.71977173,13.4811291 10.0266438,14.9472955 10.63,16.3 C11.6967784,18.3891345 13.8344026,19.7140764 16.18,19.74 C17.3094535,19.8166022 18.4255123,19.4588911 19.3,18.74 C17.9980109,19.2308952 16.5279665,18.8412932 15.64,17.77 Z" id="Path"></path>
        </g>
    </g>
</svg>