<?xml version="1.0" encoding="UTF-8"?>
<svg width="25px" height="24px" viewBox="0 0 25 24" version="1.1" xmlns="http://www.w3.org/2000/svg" xmlns:xlink="http://www.w3.org/1999/xlink">
    <!-- Generator: Sketch 52.6 (67491) - http://www.bohemiancoding.com/sketch -->
    <title>NW-logo</title>
    <desc>Created with Sketch.</desc>
    <g id="Page-1" stroke="none" stroke-width="1" fill="none" fill-rule="evenodd">
        <g id="NW-logo">
            <path d="M0.906,4.232 L0.918,4.232 C1.173,2.794 2.176,0.085 5.97,0.085 L7.877,0.085 L24.833,0.085 L24.833,14.98 C24.833,14.98 24.833,20.009 19.677,20.009 L4.117,20.019 L0.834,24.084 L0.834,5.102 C0.834,5.102 0.834,4.783 0.908,4.314 L0.908,4.232 L0.906,4.232 Z" id="Path" fill="#EC008C"></path>
            <path d="M23.439,4.591 C23.46,4.243 23.214,3.973 22.875,3.973 L20.307,3.973 C19.996,6.12 19.709,8.839 19.432,12.119 C19.411,12.259 19.401,12.348 19.379,12.378 C19.356,12.357 19.346,12.29 19.324,12.119 L19.004,8.041 C18.877,6.433 18.781,5.283 18.717,4.602 C18.662,4.251 18.365,3.981 18.024,3.981 L15.253,3.981 C14.913,6.511 14.636,9.13 14.39,11.82 C14.369,11.959 14.335,12.049 14.326,12.081 C14.306,12.06 14.297,11.991 14.275,11.82 L13.711,4.602 C13.654,4.251 13.357,3.981 13.015,3.981 L11.065,3.981 C10.724,3.981 10.47,4.251 10.51,4.602 L11.843,15.667 C11.865,16.018 12.184,16.287 12.556,16.287 L16,16.287 C16.469,13.049 16.777,10.879 16.926,9.82 C17.151,11.599 17.449,13.549 17.821,15.667 C17.887,16.018 18.227,16.287 18.569,16.287 L21.393,16.287 C21.733,16.287 22.053,16.016 22.108,15.667 L23.439,4.591 Z M10.244,15.658 L10.244,4.591 C10.244,4.243 9.966,3.973 9.594,3.973 L9.328,3.973 L7.485,3.973 L7.485,5.423 L7.485,8.891 C7.485,9.071 7.462,9.159 7.42,9.159 C7.369,9.159 7.335,9.08 7.293,8.92 L5.832,4.573 C5.717,4.252 5.363,3.982 4.992,3.982 L3.542,3.982 C3.167,3.982 2.893,4.252 2.893,4.603 L2.893,15.668 C2.893,16.019 3.167,16.288 3.542,16.288 L3.807,16.288 L3.937,16.288 L3.937,16.298 L5.64,16.298 L5.64,16.288 L5.65,16.288 L5.65,14.838 L5.65,11.311 C5.65,11.141 5.673,11.05 5.715,11.05 C5.745,11.05 5.799,11.13 5.841,11.28 L7.183,15.697 C7.268,16.016 7.654,16.287 7.993,16.287 L9.581,16.287 C9.966,16.288 10.244,16.008 10.244,15.658 Z" id="Shape" fill="#FFFFFF" fill-rule="nonzero"></path>
        </g>
    </g>
</svg>