<svg xmlns="http://www.w3.org/2000/svg" width="27.67" height="27.74" viewBox="0 0 27.67 27.74"><title>NW-logo</title><path d="M8.12,0H5.92A5.46,5.46,0,0,0,.1,4.79h0v.1A6.13,6.13,0,0,0,0,5.8V27.73L3.79,23H21.73c5.94,0,5.94-5.82,5.94-5.82V0Zm2.73,18a.72.72,0,0,1-.72.72H8.25A1,1,0,0,1,7.32,18L5.77,12.9a.27.27,0,0,0-.14-.27s-.08.11-.08.3v5.76H3.12A.72.72,0,0,1,2.37,18h0V5.22a.72.72,0,0,1,.72-.72h1.7a1.08,1.08,0,0,1,1,.69l1.69,5c0,.19.09.28.14.28s.08-.11.08-.31V4.49h2.4a.72.72,0,0,1,.75.69s0,0,0,0Zm13.68,0a.85.85,0,0,1-.82.71H20.45a.91.91,0,0,1-.86-.71c-.43-2.45-.78-4.7-1-6.76-.18,1.22-.53,3.73-1.07,7.47h-4a.81.81,0,0,1-.83-.71L11.16,5.22a.62.62,0,0,1,.51-.71h2.38a.84.84,0,0,1,.8.72l.65,8.34c0,.2,0,.28.06.3a1.44,1.44,0,0,0,.07-.3c.28-3.11.6-6.13,1-9.06h3.19a.83.83,0,0,1,.8.72c.07.79.19,2.12.33,4l.37,4.72a1.23,1.23,0,0,0,.06.3,1.07,1.07,0,0,0,.07-.3c.31-3.79.65-6.94,1-9.42h3a.66.66,0,0,1,.65.67s0,0,0,.05Z" transform="translate(0 0.01)" fill="#ec008c"/></svg>