<svg xmlns="http://www.w3.org/2000/svg" width="27.67" height="27.74"><path d="M8.12.01h-2.2A5.46 5.46 0 0 0 .1 4.8v.1a6.13 6.13 0 0 0-.1.91v21.93l3.79-4.73h17.94c5.94 0 5.94-5.82 5.94-5.82V.01zm2.73 18a.72.72 0 0 1-.72.72H8.25a1 1 0 0 1-.93-.72l-1.55-5.1a.27.27 0 0 0-.14-.27s-.08.11-.08.3v5.76H3.12a.72.72 0 0 1-.75-.69V5.23a.72.72 0 0 1 .72-.72h1.7a1.08 1.08 0 0 1 1 .69l1.69 5c0 .19.09.28.14.28s.08-.11.08-.31V4.5h2.4a.72.72 0 0 1 .75.69zm13.68 0a.85.85 0 0 1-.82.71h-3.26a.91.91 0 0 1-.86-.71c-.43-2.45-.78-4.7-1-6.76-.18 1.22-.53 3.73-1.07 7.47h-4a.81.81 0 0 1-.83-.71L11.16 5.23a.62.62 0 0 1 .51-.71h2.38a.84.84 0 0 1 .8.72l.65 8.34c0 .2 0 .28.06.3a1.44 1.44 0 0 0 .07-.3c.28-3.11.6-6.13 1-9.06h3.19a.83.83 0 0 1 .8.72c.07.79.19 2.12.33 4l.37 4.72a1.23 1.23 0 0 0 .06.3 1.07 1.07 0 0 0 .07-.3c.31-3.79.65-6.94 1-9.42h3a.66.66 0 0 1 .65.67v.05z" fill="#ec008c"/></svg>