<?xml version="1.0" encoding="utf-8"?>
<!-- Generator: Adobe Illustrator 16.0.0, SVG Export Plug-In . SVG Version: 6.00 Build 0)  -->
<!DOCTYPE svg PUBLIC "-//W3C//DTD SVG 1.1//EN" "http://www.w3.org/Graphics/SVG/1.1/DTD/svg11.dtd">
<svg version="1.1" id="Layer_1" xmlns="http://www.w3.org/2000/svg" xmlns:xlink="http://www.w3.org/1999/xlink" x="0px" y="0px"
	 width="24px" height="24px" viewBox="-0.167 0.083 24 24" enable-background="new -0.167 0.083 24 24" xml:space="preserve">
<path fill="#EC008C" d="M-0.094,4.232h0.012c0.255-1.438,1.258-4.147,5.052-4.147h1.907h16.956v14.895c0,0,0,5.029-5.156,5.029
	L3.117,20.019l-3.283,4.065V5.102c0,0,0-0.319,0.074-0.788V4.232H-0.094z"/>
<path fill="#FFFFFF" d="M22.439,4.591c0.021-0.348-0.225-0.618-0.564-0.618h-2.568c-0.311,2.147-0.598,4.866-0.875,8.146
	c-0.021,0.14-0.031,0.229-0.053,0.259c-0.023-0.021-0.033-0.088-0.055-0.259l-0.32-4.078c-0.127-1.608-0.223-2.758-0.287-3.439
	c-0.055-0.351-0.352-0.621-0.693-0.621h-2.771c-0.34,2.53-0.617,5.149-0.863,7.839c-0.021,0.139-0.055,0.229-0.064,0.261
	c-0.02-0.021-0.029-0.09-0.051-0.261l-0.564-7.218c-0.057-0.351-0.354-0.621-0.696-0.621h-1.95c-0.341,0-0.595,0.27-0.555,0.621
	l1.333,11.065c0.022,0.351,0.341,0.62,0.713,0.62H15c0.469-3.238,0.777-5.408,0.926-6.467c0.225,1.779,0.523,3.729,0.895,5.847
	c0.066,0.351,0.406,0.62,0.748,0.62h2.824c0.34,0,0.66-0.271,0.715-0.62L22.439,4.591L22.439,4.591z M9.244,15.658V4.591
	c0-0.348-0.278-0.618-0.65-0.618H8.328l0,0H6.485v1.45l0,0v3.468c0,0.18-0.023,0.268-0.065,0.268c-0.051,0-0.085-0.079-0.127-0.239
	L4.832,4.573c-0.115-0.321-0.469-0.591-0.84-0.591h-1.45c-0.375,0-0.649,0.27-0.649,0.621v11.065c0,0.351,0.274,0.62,0.649,0.62
	h0.265l0,0h0.13v0.01h1.703v-0.01H4.65v-1.45l0,0v-3.527c0-0.17,0.023-0.261,0.065-0.261c0.03,0,0.084,0.08,0.126,0.23l1.342,4.417
	c0.085,0.319,0.471,0.59,0.81,0.59h1.588C8.966,16.288,9.244,16.008,9.244,15.658L9.244,15.658z"/>
</svg>
