<?xml version="1.0" encoding="utf-8"?>
<!-- Generator: Adobe Illustrator 16.0.0, SVG Export Plug-In . SVG Version: 6.00 Build 0)  -->
<!DOCTYPE svg PUBLIC "-//W3C//DTD SVG 1.1//EN" "http://www.w3.org/Graphics/SVG/1.1/DTD/svg11.dtd">
<svg version="1.1" id="Layer_1" xmlns="http://www.w3.org/2000/svg" xmlns:xlink="http://www.w3.org/1999/xlink" x="0px" y="0px"
	 width="33px" height="24.5px" viewBox="-1.779 0 33 24.5" enable-background="new -1.779 0 33 24.5" xml:space="preserve">
<rect x="-1.779" fill="#CF0A2C" width="33" height="19.625"/>
<g>
	<path fill="#FFFFFF" d="M13.393,7.145c-0.618,3.586-3.815,6.113-7.646,6.113c-3.83,0-6.173-2.528-5.556-6.113
		c0.57-3.35,4.132-5.701,7.565-5.701C11.192,1.444,13.961,3.795,13.393,7.145z M3.422,7.16c-0.333,1.91,0.949,3.306,2.801,3.306
		c1.851,0,3.609-1.396,3.941-3.306c0.253-1.528-1.029-2.924-2.881-2.924S3.675,5.632,3.422,7.16z"/>
</g>
<g>
	<path fill="#FFFFFF" d="M21.828,1.586h3.847L20.04,6.939l4.18,5.952H20.2l-3.183-4.903h-0.031l-0.824,4.903h-3.101l1.882-11.305
		h3.103L17.27,6.248h0.032L21.828,1.586z"/>
</g>
<g>
	<path fill="#FFFFFF" d="M29.489,11.437c0,0.959-0.823,1.754-1.853,1.754c-1.028,0-1.852-0.795-1.852-1.754
		c0-0.975,0.823-1.754,1.852-1.754C28.666,9.683,29.489,10.462,29.489,11.437z M26.148,1.586h2.991v7.467h-2.991V1.586z"/>
</g>
<g>
	<path fill="#FFFFFF" d="M0.168,13.63h1.501l0.91,2.927h0.012l0.896-2.927h1.507v4.449H3.918l0.038-3.331l-0.012-0.012l-0.976,3.343
		H2.195l-0.977-3.343l-0.012,0.012l0.037,3.331H0.168V13.63z"/>
	<path fill="#FFFFFF" d="M6.588,17.436l-0.241,0.644H5.092l1.837-4.449h0.919l1.818,4.449H8.4l-0.224-0.644H6.588L6.588,17.436z
		 M6.91,16.533h0.958l-0.469-1.521H7.392H7.379L6.91,16.533z"/>
	<path fill="#FFFFFF" d="M14.067,15.548c0.005,0.078,0.005,0.146,0.005,0.234c0,1.489-1.173,2.387-2.441,2.387
		c-1.385,0-2.429-1.053-2.429-2.333c0-1.328,1.1-2.29,2.448-2.29c1.094,0,2.032,0.716,2.287,1.575h-1.31
		c-0.18-0.313-0.513-0.577-1.008-0.577c-0.575,0-1.249,0.415-1.249,1.292c0,0.934,0.68,1.335,1.254,1.335
		c0.582,0,0.971-0.282,1.094-0.716h-1.367v-0.907H14.067z"/>
	<path fill="#FFFFFF" d="M15.079,17.436l-0.24,0.645h-1.255l1.836-4.449h0.921l1.815,4.449h-1.265l-0.224-0.645H15.079z
		 M15.4,16.533h0.958l-0.469-1.521h-0.008H15.87L15.4,16.533z"/>
	<path fill="#FFFFFF" d="M18.31,17.333l1.576-2.705H18.31V13.63h2.888v0.92l-1.459,2.53h1.459v0.999h-2.887L18.31,17.333
		L18.31,17.333z"/>
	<path fill="#FFFFFF" d="M21.407,13.63h1.169v4.449h-1.169V13.63z"/>
	<path fill="#FFFFFF" d="M22.791,13.63h1.007l1.768,2.796l0.013-0.013l-0.05-2.783h1.118v4.449h-1.014l-1.742-2.706l-0.012,0.007
		l0.029,2.699h-1.119V13.63H22.791z"/>
	<path fill="#FFFFFF" d="M26.87,13.63h2.54v0.998h-1.422v0.69h1.377v0.998h-1.377v0.764h1.422v0.999h-2.54V13.63z"/>
</g>
</svg>
