<svg xmlns="http://www.w3.org/2000/svg" width="33" height="19.63" viewBox="0 0 33 19.63"><title>OK-logo</title><polygon points="9.17 15.01 9.16 15.01 8.69 16.53 9.65 16.53 9.18 15.01 9.17 15.01" fill="#cf0a2c"/><path d="M8,10.47a4.07,4.07,0,0,0,3.94-3.31A2.66,2.66,0,0,0,9.06,4.24,4,4,0,0,0,5.2,7.16,2.7,2.7,0,0,0,8,10.47Z" fill="#cf0a2c"/><polygon points="17.66 15.01 17.65 15.01 17.18 16.53 18.14 16.53 17.67 15.01 17.66 15.01" fill="#cf0a2c"/><path d="M0,0V19.63H33V0ZM27.93,1.59h3V9.05h-3Zm-8.1,0L19,6.25h0l4.53-4.66h3.85L21.82,6.94l4.18,6H22L18.8,8h0l-.82,4.9h-3.1l1.88-11.3ZM2,7.15c.57-3.35,4.13-5.7,7.57-5.7s6.21,2.35,5.64,5.7a7.54,7.54,0,0,1-7.65,6.11C3.7,13.26,1.35,10.73,2,7.15Zm4.8,10.93H5.7l0-3.33h0l-1,3.34H4L3,14.74H3l0,3.33H1.95V13.63h1.5l.91,2.93h0l.9-2.93H6.77Zm3.41,0L10,17.44H8.37l-.24.64H6.87l1.84-4.45h.92l1.82,4.45Zm3.23.09A2.36,2.36,0,0,1,11,15.84a2.34,2.34,0,0,1,2.45-2.29,2.39,2.39,0,0,1,2.29,1.57H14.41a1.13,1.13,0,0,0-1-.58,1.32,1.32,0,0,0,0,2.63,1,1,0,0,0,1.09-.72H13.13v-.91h2.72c0,.08,0,.15,0,.23A2.36,2.36,0,0,1,13.41,18.17Zm5.26-.09-.22-.65H16.86l-.24.65H15.36l1.84-4.45h.92l1.82,4.45ZM23,14.55l-1.46,2.53H23v1H20.09v-.75l1.58-2.71H20.09v-1H23Zm1.38,3.53H23.19V13.63h1.17Zm4.07,0h-1l-1.74-2.71h0l0,2.7H24.57V13.63h1l1.77,2.8h0l0-2.78h1.12Zm2.76-3.45H29.77v.69h1.38v1H29.77v.76h1.42v1H28.65V13.63h2.54Zm-1.77-1.44a1.76,1.76,0,1,1,1.85-1.75A1.81,1.81,0,0,1,29.41,13.19Z" fill="#cf0a2c"/></svg>