<?xml version="1.0" encoding="UTF-8"?>
<svg width="34px" height="20px" viewBox="0 0 34 20" version="1.1" xmlns="http://www.w3.org/2000/svg" xmlns:xlink="http://www.w3.org/1999/xlink">
    <!-- Generator: Sketch 52.6 (67491) - http://www.bohemiancoding.com/sketch -->
    <title>OK-logo</title>
    <desc>Created with Sketch.</desc>
    <g id="Page-1" stroke="none" stroke-width="1" fill="none" fill-rule="evenodd">
        <g id="OK-logo">
            <rect id="Rectangle" fill="#CF0A2C" x="0.221" y="0" width="33" height="19.625"></rect>
            <path d="M15.393,7.145 C14.775,10.731 11.578,13.258 7.747,13.258 C3.917,13.258 1.574,10.73 2.191,7.145 C2.761,3.795 6.323,1.444 9.756,1.444 C13.192,1.444 15.961,3.795 15.393,7.145 Z M5.422,7.16 C5.089,9.07 6.371,10.466 8.223,10.466 C10.074,10.466 11.832,9.07 12.164,7.16 C12.417,5.632 11.135,4.236 9.283,4.236 C7.431,4.236 5.675,5.632 5.422,7.16 Z" id="Shape" fill="#FFFFFF" fill-rule="nonzero"></path>
            <polygon id="Path" fill="#FFFFFF" points="23.828 1.586 27.675 1.586 22.04 6.939 26.22 12.891 22.2 12.891 19.017 7.988 18.986 7.988 18.162 12.891 15.061 12.891 16.943 1.586 20.046 1.586 19.27 6.248 19.302 6.248"></polygon>
            <path d="M31.489,11.437 C31.489,12.396 30.666,13.191 29.636,13.191 C28.608,13.191 27.784,12.396 27.784,11.437 C27.784,10.462 28.607,9.683 29.636,9.683 C30.666,9.683 31.489,10.462 31.489,11.437 Z M28.148,1.586 L31.139,1.586 L31.139,9.053 L28.148,9.053 L28.148,1.586 Z" id="Shape" fill="#FFFFFF" fill-rule="nonzero"></path>
            <g id="Group" transform="translate(2.000000, 13.000000)" fill="#FFFFFF">
                <polygon id="Path" points="0.168 0.63 1.669 0.63 2.579 3.557 2.591 3.557 3.487 0.63 4.994 0.63 4.994 5.079 3.918 5.079 3.956 1.748 3.944 1.736 2.968 5.079 2.195 5.079 1.218 1.736 1.206 1.748 1.243 5.079 0.168 5.079"></polygon>
                <path d="M6.588,4.436 L6.347,5.08 L5.092,5.08 L6.929,0.631 L7.848,0.631 L9.666,5.08 L8.4,5.08 L8.176,4.436 L6.588,4.436 Z M6.91,3.533 L7.868,3.533 L7.399,2.012 L7.392,2.012 L7.379,2.012 L6.91,3.533 Z" id="Shape" fill-rule="nonzero"></path>
                <path d="M14.067,2.548 C14.072,2.626 14.072,2.694 14.072,2.782 C14.072,4.271 12.899,5.169 11.631,5.169 C10.246,5.169 9.202,4.116 9.202,2.836 C9.202,1.508 10.302,0.546 11.65,0.546 C12.744,0.546 13.682,1.262 13.937,2.121 L12.627,2.121 C12.447,1.808 12.114,1.544 11.619,1.544 C11.044,1.544 10.37,1.959 10.37,2.836 C10.37,3.77 11.05,4.171 11.624,4.171 C12.206,4.171 12.595,3.889 12.718,3.455 L11.351,3.455 L11.351,2.548 L14.067,2.548 Z" id="Path"></path>
                <path d="M15.079,4.436 L14.839,5.081 L13.584,5.081 L15.42,0.632 L16.341,0.632 L18.156,5.081 L16.891,5.081 L16.667,4.436 L15.079,4.436 Z M15.4,3.533 L16.358,3.533 L15.889,2.012 L15.881,2.012 L15.87,2.012 L15.4,3.533 Z" id="Shape" fill-rule="nonzero"></path>
                <polygon id="Path" points="18.31 4.333 19.886 1.628 18.31 1.628 18.31 0.63 21.198 0.63 21.198 1.55 19.739 4.08 21.198 4.08 21.198 5.079 18.311 5.079"></polygon>
                <polygon id="Path" points="21.407 0.63 22.576 0.63 22.576 5.079 21.407 5.079"></polygon>
                <polygon id="Path" points="22.791 0.63 23.798 0.63 25.566 3.426 25.579 3.413 25.529 0.63 26.647 0.63 26.647 5.079 25.633 5.079 23.891 2.373 23.879 2.38 23.908 5.079 22.789 5.079 22.789 0.63"></polygon>
                <polygon id="Path" points="26.87 0.63 29.41 0.63 29.41 1.628 27.988 1.628 27.988 2.318 29.365 2.318 29.365 3.316 27.988 3.316 27.988 4.08 29.41 4.08 29.41 5.079 26.87 5.079"></polygon>
            </g>
        </g>
    </g>
</svg>