<svg id="Layer_1" xmlns="http://www.w3.org/2000/svg" viewBox="0 0 68.4 24.3"><style>.st0{fill:#ca2026}</style><path class="st0" d="M30.6 0c1.1 0 2.1.9 2.1 2.1 0 1.1-.9 2.1-2.1 2.1-1.2 0-2.1-.9-2.1-2.1 0-1.2 1-2.1 2.1-2.1zM40.2 17.2c3.9 0 5.1-2.6 5.4-3.6h.3l-.2 3.9H35.2L42 5.8c-3.5 0-5 1.4-5.6 3.1H36l.1-3.4h10.3l-6.2 11.7zM64.1 17.5c-3 0-4.5-1-4.5-1v-3.2h.3c.4 1.6 1.9 3.9 4.2 3.9 1.8 0 2.1-2.1.2-3.4l-2.5-1.5c-2.4-1.5-3-3.8-1.6-5.5 0 0 .9-1.2 3.6-1.2 2.9 0 4.1.7 4.1.7V9h-.3c-.4-1.5-1.7-3.1-3.8-3.1-1.6 0-2.3 1.8-.2 3.1l2.5 1.6c2.2 1.4 2.9 3.9 1.6 5.6.1-.1-.9 1.3-3.6 1.3zM9.5 5.5c-1.7 0-3.3.6-4 2v-2C2.8 7.6 0 7.3 0 7.3v.2c1 .6 1.3 1.1 1.3 2.5v9.7c0 2.1 0 3.9-1 4.3v.2h6.2V24c-.9-.4-1-2.1-1-4.3v-2.9c.7.4 1.8.7 3 .7 3.3 0 6.3-1.5 6.3-6 0-3.6-2.2-6-5.3-6zM8 17.2c-1.2 0-2.2-.9-2.5-3.2V9.1c.2-1.5.9-2.7 2.3-2.7 1.9 0 2.7 1.9 2.7 5.3 0 3.9-.9 5.5-2.5 5.5zM25.9 6c-.6-.5-1.6-.7-2.3-.4-.6.4-1.5.7-3.1 3.1V5.5c-2.6 1.3-5.3 1.1-5.3 1.1v.2c1 .4 1.2.7 1.2 1.6v6.2c0 1.3 0 2.4-.9 2.7v.2h6v-.2c-.9-.3-1-1.3-1-2.7V9.3c1-1.5 1.9-1.7 1.9-1.4 0 .5.3 1 .7 1.4.9.8 2.2.7 3-.2.8-.9.7-2.3-.2-3.1zM32.8 14.6c0 1.4.1 2.4 1 2.7v.2h-6v-.2c.9-.3.9-1.3.9-2.7V8.4c0-.9-.3-1.2-1.2-1.6v-.2s2.7.2 5.3-1.1v9.1zM29.5 20.4h-1.6V20h3.7v.4H30v3.9h-.4v-3.9zM34.1 22.1c0-.3.1-.6.2-.9.1-.3.3-.5.5-.7s.5-.3.7-.4c.3-.1.6-.2.9-.2.3 0 .7.1.9.2.3.1.5.3.7.4.2.2.4.4.5.7.1.3.2.5.2.9 0 .3-.1.6-.2.9-.1.3-.3.5-.5.7-.2.2-.5.3-.7.4-.3.1-.6.2-.9.2-.3 0-.7-.1-.9-.2-.3-.1-.5-.3-.7-.4s-.4-.4-.5-.7c-.2-.3-.2-.6-.2-.9zm.4 0c0 .3 0 .5.1.7.1.2.2.4.4.6.2.2.4.3.6.4.2.1.5.1.8.1.3 0 .6 0 .8-.1.2-.1.4-.2.6-.4.2-.2.3-.3.4-.6.1-.2.1-.5.1-.7s0-.5-.1-.7c-.1-.2-.2-.4-.4-.6-.2-.2-.4-.3-.6-.4s-.5-.1-.8-.1c-.3 0-.6 0-.8.1-.2.1-.4.2-.6.4-.2.2-.3.3-.4.6-.1.2-.1.5-.1.7zM45 20h.4v3.9h2.2v.4H45V20zM50.4 22.1c0-.3.1-.6.2-.9.1-.3.3-.5.5-.7s.5-.3.7-.4c.3-.1.6-.2.9-.2s.7.1.9.2c.3.1.5.3.7.4.2.2.4.4.5.7.1.3.2.5.2.9 0 .3-.1.6-.2.9-.1.3-.3.5-.5.7-.2.2-.5.3-.7.4-.3.1-.6.2-.9.2s-.7-.1-.9-.2c-.3-.1-.5-.3-.7-.4s-.4-.4-.5-.7c-.1-.3-.2-.6-.2-.9zm.5 0c0 .3 0 .5.1.7.1.2.2.4.4.6.2.2.4.3.6.4.2.1.5.1.8.1.3 0 .6 0 .8-.1.2-.1.4-.2.6-.4.2-.2.3-.3.4-.6.1-.2.1-.5.1-.7s0-.5-.1-.7c-.1-.2-.2-.4-.4-.6-.2-.2-.4-.3-.6-.4-.2-.1-.5-.1-.8-.1-.3 0-.6 0-.8.1-.2.1-.4.2-.6.4-.2.2-.3.3-.4.6-.1.2-.1.5-.1.7zM57.8 20h.5l1.5 3.7 1.5-3.7h.5L60 24.3h-.4L57.8 20zM64.9 20h2.9v.4h-2.5v1.5h2.3v.4h-2.3V24h2.6v.4h-3V20zM50.9 11.3c0 3.2 1.1 4.5 2.9 4.7 2.7.4 4.6-2 4.1-1.1-.8 1.3-2.6 2.6-5.3 2.6-3.3 0-5.7-2.8-5.7-5.9 0-3.9 2.8-6 6.1-6 3.1 0 5.2 1.5 5.2 5.8h-7.3zm4.1-.4c0-3.1-.7-5.1-1.9-5.1-1.3 0-2.1 2.7-2.1 5.1h4z"/></svg>