<?xml version="1.0" encoding="utf-8"?>
<!-- Generator: Adobe Illustrator 16.0.0, SVG Export Plug-In . SVG Version: 6.00 Build 0)  -->
<!DOCTYPE svg PUBLIC "-//W3C//DTD SVG 1.1//EN" "http://www.w3.org/Graphics/SVG/1.1/DTD/svg11.dtd">
<svg version="1.1" id="Layer_1" xmlns="http://www.w3.org/2000/svg" xmlns:xlink="http://www.w3.org/1999/xlink" x="0px" y="0px"
	 width="595.28px" height="207.891px" viewBox="0 0 595.28 207.891" enable-background="new 0 0 595.28 207.891"
	 xml:space="preserve">
<g>
	<defs>
		<rect id="SVGID_1_" x="21" y="31.242" width="553.158" height="176.649"/>
	</defs>
	<clipPath id="SVGID_2_">
		<use xlink:href="#SVGID_1_"  overflow="visible"/>
	</clipPath>
	<path clip-path="url(#SVGID_2_)" fill="#73CFEA" d="M487.35,66.646h26.402c12.039,0,21.121,5.828,21.121,20.292
		c0,14.032-8.871,19.213-21.121,19.213H487.35V66.646z M448.065,188.615h39.284v-51.379h32.315
		c33.161,0,54.493-14.895,54.493-53.104c0-36.483-26.402-49.651-54.493-49.651h-71.6V188.615z M332.956,111.548
		c0-22.884,9.715-45.767,35.06-45.767c25.347,0,35.062,22.883,35.062,45.767c0,22.881-9.715,45.764-35.062,45.764
		C342.671,157.313,332.956,134.43,332.956,111.548 M293.67,111.548c0,44.686,26.824,80.305,74.346,80.305
		c47.523,0,74.347-35.619,74.347-80.305c0-44.687-26.823-80.307-74.347-80.307C320.494,31.242,293.67,66.862,293.67,111.548
		 M157.651,188.615h39.286v-63.467h51.746v63.467h39.285V34.481h-39.285v56.127h-51.746V34.481h-39.286V188.615z M21,136.805
		c0.211,39.506,30.837,55.049,65.475,55.049c33.16,0,65.687-12.521,65.687-51.594c0-27.849-21.966-38.21-43.721-44.471
		c-21.966-6.26-43.72-8.419-43.72-20.292c0-10.146,10.56-13.169,19.008-13.169c12.039,0,24.923,4.534,24.29,18.566h39.285
		c-0.211-34.756-30.414-49.652-60.406-49.652c-28.303,0-61.463,13.169-61.463,46.846c0,28.279,22.6,38.21,44.143,44.469
		c21.755,6.262,43.299,8.852,43.299,22.451c0,11.441-12.251,15.76-24.078,15.76c-16.686,0-27.669-5.83-28.514-23.963H21z"/>
</g>
<g>
	<path d="M496.089,155.969h-2.697v-2.342h8.121v2.342h-2.697v8.066h-2.727V155.969z"/>
	<path d="M502.935,153.627h2.727v10.408h-2.727V153.627z"/>
	<path d="M507.623,153.627h2.728v8.066h4.33v2.342h-7.058V153.627z"/>
</g>
<g>
	<path d="M493.106,166h2.997l2.308,4.238l2.293-4.238h2.861l-3.836,6.734v3.672h-2.727v-3.596L493.106,166z"/>
	<path d="M503.129,171.203c0-3.137,2.532-5.326,5.469-5.326c2.938,0,5.47,2.189,5.47,5.326s-2.532,5.342-5.47,5.342
		C505.661,176.545,503.129,174.34,503.129,171.203z M511.28,171.203c0-1.637-0.974-2.908-2.683-2.908
		c-1.708,0-2.682,1.271-2.682,2.908s0.974,2.924,2.682,2.924C510.307,174.127,511.28,172.84,511.28,171.203z"/>
	<path d="M515.368,172.381V166h2.727v6.352c0,1.178,0.54,1.852,1.693,1.852c1.154,0,1.693-0.674,1.693-1.852V166h2.728v6.381
		c0,2.801-1.873,4.18-4.421,4.18C517.241,176.561,515.368,175.182,515.368,172.381z"/>
</g>
<g>
	<path d="M493.931,178.371h3.941c2.937,0,5.154,1.975,5.154,5.205c0,3.229-2.218,5.203-5.154,5.203h-3.941V178.371z
		 M497.572,186.422c1.648,0,2.667-1.117,2.667-2.846c0-1.73-1.019-2.848-2.667-2.848h-0.914v5.693H497.572z"/>
	<path d="M512.509,188.779h-2.952l-1.424-2.389h-1.019v2.389h-2.728v-10.408h3.866c2.742,0,4.285,1.775,4.285,4.088
		c0,1.498-0.644,2.693-1.843,3.365L512.509,188.779z M508.118,184.172c1.229,0,1.678-0.703,1.678-1.713
		c0-1.012-0.449-1.73-1.678-1.73h-1.004v3.443H508.118z"/>
	<path d="M513.601,183.576c0-3.139,2.532-5.326,5.469-5.326c2.938,0,5.47,2.188,5.47,5.326c0,3.137-2.532,5.34-5.47,5.34
		C516.133,188.916,513.601,186.713,513.601,183.576z M521.752,183.576c0-1.639-0.974-2.908-2.683-2.908
		c-1.708,0-2.682,1.27-2.682,2.908c0,1.637,0.974,2.922,2.682,2.922C520.778,186.498,521.752,185.213,521.752,183.576z"/>
	<path d="M528.687,188.779h-2.728v-10.408h3.866c2.742,0,4.285,1.775,4.285,4.088c0,2.311-1.543,4.07-4.285,4.07h-1.139V188.779z
		 M529.69,184.172c1.229,0,1.678-0.703,1.678-1.713c0-1.012-0.449-1.73-1.678-1.73h-1.004v3.443H529.69z"/>
</g>
</svg>
