<svg xmlns="http://www.w3.org/2000/svg" width="42.32" height="15.05" viewBox="0 0 42.32 15.05"><title>T5-logo</title><polygon points="22.42 13.79 20.46 8.87 20.31 8.52 23.68 4.74 24 4.38 21.14 4.38 18.57 7.5 18.34 7.78 19.31 1.6 19.37 1.23 16.96 1.23 14.96 13.79 15.15 13.79 17.37 13.79 18.09 9.26 18.22 9.63 19.69 13.79 19.69 13.79 22.41 13.79 22.42 13.79" fill="none"/><path d="M15.64,4.36H13.22l-.16,1A2.19,2.19,0,0,0,10.88,4C8.72,4,6.51,6,6,9.07a5.7,5.7,0,0,0,.25,3,3.06,3.06,0,0,0,3,2.06,3.08,3.08,0,0,0,2.6-1.34l-.1.64-.06.38h2.41l1.46-9.06Zm-3.2,4.86a3.36,3.36,0,0,1-.52,1.2,2.24,2.24,0,0,1-1.87,1,1.48,1.48,0,0,1-1.44-.93,2.67,2.67,0,0,1-.19-1.43h0a2.7,2.7,0,0,1,2.38-2.43A1.58,1.58,0,0,1,12.43,8h0A2.77,2.77,0,0,1,12.44,9.22Z" fill="none"/><path d="M30,5.54A3.26,3.26,0,0,0,27.22,4c-2.46,0-4.61,2.43-5,5.06A5,5,0,0,0,22.52,12a3.42,3.42,0,0,0,3.16,2.12,4,4,0,0,0,2.43-.85,6.43,6.43,0,0,0,1.8-2c.07-.12.15-.24.21-.37H27.65a1.89,1.89,0,0,1-1.6.88,1.55,1.55,0,0,1-1.43-.82,1.61,1.61,0,0,1-.17-.84h6a6.15,6.15,0,0,0,.09-3.38A4.34,4.34,0,0,0,30,5.54ZM25.12,7.91h-.3a2.23,2.23,0,0,1,2-1.5A1.47,1.47,0,0,1,28.39,7.6a1.37,1.37,0,0,1,0,.32Z" fill="none"/><polygon points="8.3 4.05 8.69 1.6 8.74 1.23 1.76 1.23 1.32 4.05 1.51 4.05 3.45 4.05 3.39 4.42 1.9 13.79 2.08 13.79 4.65 13.79 6.19 4.05 8.3 4.05" fill="none"/><path d="M40.72,4.12l.48-2.66H34.36L32,8.47l2.45.64A2.07,2.07,0,0,1,36.25,8a1.31,1.31,0,0,1,1.39,1.63,2.11,2.11,0,0,1-2,1.65,1.46,1.46,0,0,1-1.3-.77H31.17c0,2,1.39,3.57,4.05,3.57A5.7,5.7,0,0,0,40.81,9.6a3.31,3.31,0,0,0-3.37-4.16,3.36,3.36,0,0,0-1.74.36l.59-1.69Z" fill="none"/><path d="M12.43,8a1.58,1.58,0,0,0-1.62-1.31A2.7,2.7,0,0,0,8.43,9.11h0a2.67,2.67,0,0,0,.19,1.43,1.48,1.48,0,0,0,1.44.93,2.24,2.24,0,0,0,1.87-1,3.36,3.36,0,0,0,.52-1.2,2.77,2.77,0,0,0,0-1.23Z" fill="#ee2a7b"/><path d="M26.86,6.42a2.23,2.23,0,0,0-2,1.5h3.61a1.37,1.37,0,0,0,0-.32A1.47,1.47,0,0,0,26.86,6.42Z" fill="#ee2a7b"/><path d="M0,0V15H42.32V0ZM2.08,13.79H1.9L3.39,4.42,3.45,4H1.32l.45-2.82h7l-.06.37L8.3,4H6.19L4.65,13.79Zm9.81,0H11.7l.06-.38.1-.64a3.08,3.08,0,0,1-2.6,1.34,3.06,3.06,0,0,1-3-2.06,5.7,5.7,0,0,1-.25-3C6.51,6,8.72,4,10.88,4a2.19,2.19,0,0,1,2.18,1.32l.16-1h2.42l-.06.37-1.46,9.06Zm7.8,0L18.22,9.63l-.13-.37-.71,4.53H15L17,1.23h2.41l-.06.37-1,6.19.24-.29,2.57-3.12H24l-.33.37L20.31,8.52l.14.36,2,4.92H19.69Zm10.77-3.73h-6a1.61,1.61,0,0,0,.17.84,1.55,1.55,0,0,0,1.43.82,1.89,1.89,0,0,0,1.6-.88h2.47c-.07.13-.14.24-.21.37a6.43,6.43,0,0,1-1.8,2,4,4,0,0,1-2.43.85A3.42,3.42,0,0,1,22.52,12a5,5,0,0,1-.34-2.87c.43-2.63,2.58-5.06,5-5.06A3.26,3.26,0,0,1,30,5.54a4.34,4.34,0,0,1,.52,1.14A6.15,6.15,0,0,1,30.46,10.06Zm7-4.61A3.31,3.31,0,0,1,40.81,9.6a5.7,5.7,0,0,1-5.59,4.51c-2.66,0-4.05-1.62-4.05-3.57h3.19a1.46,1.46,0,0,0,1.3.77,2.11,2.11,0,0,0,2-1.65A1.31,1.31,0,0,0,36.25,8a2.07,2.07,0,0,0-1.83,1.07L32,8.47l2.38-7H41.2l-.48,2.66H36.29L35.7,5.8A3.36,3.36,0,0,1,37.45,5.44Z" fill="#ee2a7b"/><polygon points="34.35 1.45 34.35 1.45 34.36 1.45 34.35 1.45" fill="#fff"/></svg>