<?xml version="1.0" encoding="UTF-8"?>
<svg width="43px" height="16px" viewBox="0 0 43 16" version="1.1" xmlns="http://www.w3.org/2000/svg" xmlns:xlink="http://www.w3.org/1999/xlink">
    <!-- Generator: Sketch 52.6 (67491) - http://www.bohemiancoding.com/sketch -->
    <title>T5-logo</title>
    <desc>Created with Sketch.</desc>
    <defs>
        <rect id="path-1" x="0.309" y="0.284" width="41.86" height="14.123"></rect>
        <rect id="path-3" x="0.439" y="0.651" width="41.86" height="14.125"></rect>
        <rect id="path-5" x="0.336" y="0.437" width="40.964" height="13.82"></rect>
    </defs>
    <g id="Page-1" stroke="none" stroke-width="1" fill="none" fill-rule="evenodd">
        <g id="T5-logo">
            <rect id="Rectangle" fill="#EE2A7B" x="0.063" y="0.005" width="42.318" height="15.05"></rect>
            <g id="Group">
                <g id="Clipped">
                    <mask id="mask-2" fill="white">
                        <use xlink:href="#path-1"></use>
                    </mask>
                    <g id="SVGID_1_"></g>
                    <path d="M24.878,7.92 C25.011,7.483 25.663,6.424 26.919,6.424 C28.175,6.424 28.503,7.472 28.493,7.92 L24.878,7.92 Z M30.524,10.061 C30.995,8.323 30.917,6.815 30.098,5.549 C29.485,4.62 28.512,4.053 27.278,4.053 C24.821,4.053 22.669,6.478 22.243,9.111 C21.805,11.906 23.425,14.102 25.737,14.102 C26.569,14.102 27.411,13.818 28.165,13.248 C28.94,12.702 29.638,11.895 30.183,10.837 L27.714,10.837 C27.355,11.326 26.886,11.72 26.11,11.72 C25.161,11.72 24.448,11.053 24.505,10.061 L30.524,10.061 Z M15.022,13.795 L17.437,13.795 L18.148,9.263 L19.753,13.795 L22.485,13.795 L20.377,8.521 L24.067,4.38 L21.205,4.38 L18.398,7.788 L19.435,1.233 L17.021,1.233 L15.022,13.795 Z M8.491,9.111 C8.666,8.04 9.496,6.685 10.873,6.685 C11.889,6.685 12.327,7.352 12.489,7.996 C12.587,8.389 12.587,8.816 12.5,9.229 C12.402,9.656 12.237,10.061 11.976,10.431 C11.571,11.008 10.971,11.479 10.108,11.479 C8.655,11.479 8.349,9.984 8.481,9.12 L8.481,9.11 L8.491,9.111 Z M15.702,4.37 L13.287,4.37 L13.123,5.375 C12.894,4.797 12.259,4.053 10.939,4.053 C8.787,4.053 6.57,5.987 6.087,9.078 C5.65,11.777 6.776,14.124 9.332,14.124 C10.283,14.124 11.353,13.698 11.932,12.78 L11.767,13.795 L14.182,13.795 L15.702,4.37 Z M1.959,13.795 L4.711,13.795 L6.252,4.052 L8.359,4.052 L8.807,1.234 L1.827,1.234 L1.381,4.053 L3.511,4.053 L1.959,13.795 Z" id="Shape" fill="#FFFFFF" fill-rule="nonzero" mask="url(#mask-2)"></path>
                </g>
                <g id="Clipped">
                    <mask id="mask-4" fill="white">
                        <use xlink:href="#path-3"></use>
                    </mask>
                    <g id="SVGID_3_"></g>
                    <path d="M25.009,8.288 C25.14,7.851 25.794,6.792 27.048,6.792 C28.306,6.792 28.634,7.841 28.62,8.288 L25.009,8.288 Z M30.653,10.428 C31.124,8.691 31.046,7.183 30.227,5.917 C29.618,4.989 28.643,4.421 27.411,4.421 C24.95,4.421 22.8,6.845 22.374,9.478 C21.936,12.274 23.554,14.468 25.87,14.468 C26.7,14.468 27.542,14.186 28.294,13.616 C29.069,13.068 29.769,12.262 30.315,11.204 L27.844,11.204 C27.485,11.693 27.014,12.086 26.239,12.086 C25.29,12.086 24.581,11.42 24.635,10.427 L30.653,10.427 L30.653,10.428 Z M15.155,14.163 L17.569,14.163 L18.28,9.631 L19.885,14.163 L22.616,14.163 L20.508,8.889 L24.198,4.748 L21.337,4.748 L18.53,8.156 L19.567,1.601 L17.152,1.601 L15.155,14.163 Z M8.621,9.478 C8.797,8.408 9.627,7.052 11.002,7.052 C12.019,7.052 12.456,7.719 12.619,8.363 C12.718,8.756 12.718,9.183 12.63,9.598 C12.531,10.023 12.368,10.429 12.106,10.797 C11.701,11.376 11.101,11.848 10.237,11.848 C8.785,11.848 8.478,10.351 8.61,9.488 L8.61,9.477 L8.621,9.478 Z M15.831,4.738 L13.416,4.738 L13.252,5.742 C13.023,5.164 12.39,4.421 11.068,4.421 C8.916,4.421 6.698,6.355 6.216,9.446 C5.779,12.143 6.905,14.492 9.461,14.492 C10.412,14.492 11.482,14.064 12.062,13.149 L11.897,14.164 L14.312,14.164 L15.831,4.738 Z M2.089,14.163 L4.841,14.163 L6.382,4.42 L8.49,4.42 L8.938,1.602 L1.958,1.602 L1.512,4.421 L3.641,4.421 L2.089,14.163 Z" id="Shape" mask="url(#mask-4)"></path>
                </g>
                <g id="Clipped" transform="translate(1.000000, 0.000000)">
                    <mask id="mask-6" fill="white">
                        <use xlink:href="#path-5"></use>
                    </mask>
                    <g id="SVGID_5_"></g>
                    <path d="M33.419,1.45 L31.036,8.473 L33.485,9.113 C34.016,8.28 34.69,8.044 35.311,8.044 C36.413,8.044 36.85,8.869 36.702,9.669 C36.53,10.577 35.632,11.316 34.725,11.316 C34.073,11.316 33.623,10.93 33.42,10.546 L30.234,10.546 C30.234,12.5 31.625,14.116 34.285,14.116 C37.621,14.116 39.533,11.496 39.875,9.604 C40.197,7.896 39.436,5.446 36.508,5.446 C35.535,5.446 35.127,5.629 34.766,5.81 L35.354,4.121 L39.78,4.121 L40.26,1.46 L33.418,1.46 L33.418,1.45 L33.419,1.45 Z" id="Path" fill="#FFFFFF" mask="url(#mask-6)"></path>
                </g>
            </g>
        </g>
    </g>
</svg>