<?xml version="1.0" encoding="utf-8"?>
<!-- Generator: Adobe Illustrator 16.0.0, SVG Export Plug-In . SVG Version: 6.00 Build 0)  -->
<!DOCTYPE svg PUBLIC "-//W3C//DTD SVG 1.1//EN" "http://www.w3.org/Graphics/SVG/1.1/DTD/svg11.dtd">
<svg version="1.1" id="Layer_1" xmlns="http://www.w3.org/2000/svg" xmlns:xlink="http://www.w3.org/1999/xlink" x="0px" y="0px"
	 width="42.381px" height="24.083px" viewBox="0 0 42.381 24.083" enable-background="new 0 0 42.381 24.083" xml:space="preserve">
<rect x="0.063" y="2.005" fill="#EE2A7B" width="42.318" height="15.05"/>
<g>
	<g>
		<g>
			<g>
				<defs>
					<rect id="SVGID_1_" x="0.309" y="2.284" width="41.86" height="14.123"/>
				</defs>
				<clipPath id="SVGID_2_">
					<use xlink:href="#SVGID_1_"  overflow="visible"/>
				</clipPath>
				<path clip-path="url(#SVGID_2_)" fill="#FFFFFF" d="M24.878,9.92c0.133-0.437,0.785-1.496,2.041-1.496s1.584,1.048,1.574,1.496
					H24.878z M30.524,12.061c0.471-1.738,0.393-3.246-0.426-4.512c-0.613-0.929-1.586-1.496-2.82-1.496
					c-2.457,0-4.609,2.425-5.035,5.058c-0.438,2.795,1.182,4.991,3.494,4.991c0.832,0,1.674-0.284,2.428-0.854
					c0.775-0.546,1.473-1.353,2.018-2.411h-2.469c-0.359,0.489-0.828,0.883-1.604,0.883c-0.949,0-1.662-0.667-1.605-1.659H30.524z
					 M15.022,15.795h2.415l0.711-4.532l1.605,4.532h2.732l-2.108-5.274l3.69-4.141h-2.862l-2.807,3.408l1.037-6.555h-2.414
					L15.022,15.795z M8.491,11.111c0.175-1.071,1.005-2.426,2.382-2.426c1.016,0,1.454,0.667,1.616,1.311
					c0.098,0.393,0.098,0.82,0.011,1.233c-0.098,0.427-0.263,0.832-0.524,1.202c-0.405,0.577-1.005,1.048-1.868,1.048
					c-1.453,0-1.759-1.495-1.627-2.359v-0.01L8.491,11.111L8.491,11.111z M15.702,6.37h-2.415l-0.164,1.005
					c-0.229-0.578-0.864-1.322-2.184-1.322c-2.152,0-4.369,1.934-4.852,5.025c-0.437,2.699,0.689,5.046,3.245,5.046
					c0.951,0,2.021-0.426,2.6-1.344l-0.165,1.015h2.415L15.702,6.37z M1.959,15.795h2.752l1.541-9.743h2.107l0.448-2.818h-6.98
					L1.381,6.053h2.13L1.959,15.795z"/>
			</g>
		</g>
	</g>
	<g>
		<g>
			<g>
				<defs>
					<rect id="SVGID_3_" x="0.439" y="2.651" width="41.86" height="14.125"/>
				</defs>
				<clipPath id="SVGID_4_">
					<use xlink:href="#SVGID_3_"  overflow="visible"/>
				</clipPath>
				<path clip-path="url(#SVGID_4_)" fill="none" d="M25.009,10.288c0.131-0.437,0.785-1.496,2.039-1.496
					c1.258,0,1.586,1.049,1.572,1.496H25.009z M30.653,12.428c0.471-1.737,0.393-3.245-0.426-4.511
					c-0.609-0.928-1.584-1.496-2.816-1.496c-2.461,0-4.611,2.424-5.037,5.057c-0.438,2.796,1.18,4.99,3.496,4.99
					c0.83,0,1.672-0.282,2.424-0.852c0.775-0.548,1.475-1.354,2.021-2.412h-2.471c-0.359,0.489-0.83,0.882-1.605,0.882
					c-0.949,0-1.658-0.666-1.604-1.659H30.653z M15.155,16.163h2.414l0.711-4.532l1.605,4.532h2.731l-2.108-5.274l3.69-4.141h-2.861
					l-2.807,3.408l1.037-6.555h-2.415L15.155,16.163z M8.621,11.478c0.176-1.07,1.006-2.426,2.381-2.426
					c1.017,0,1.454,0.667,1.617,1.311c0.099,0.393,0.099,0.82,0.011,1.235c-0.099,0.425-0.262,0.831-0.524,1.199
					c-0.405,0.579-1.005,1.051-1.869,1.051c-1.452,0-1.759-1.497-1.627-2.36v-0.011L8.621,11.478L8.621,11.478z M15.831,6.738
					h-2.415l-0.164,1.004c-0.229-0.578-0.862-1.321-2.184-1.321c-2.152,0-4.37,1.934-4.852,5.025
					c-0.437,2.697,0.689,5.046,3.245,5.046c0.951,0,2.021-0.428,2.601-1.343l-0.165,1.015h2.415L15.831,6.738z M2.089,16.163h2.752
					L6.382,6.42H8.49l0.448-2.818h-6.98L1.512,6.421h2.129L2.089,16.163z"/>
			</g>
		</g>
	</g>
	<g>
		<g>
			<g>
				<defs>
					<rect id="SVGID_5_" x="1.336" y="2.437" width="40.964" height="13.82"/>
				</defs>
				<clipPath id="SVGID_6_">
					<use xlink:href="#SVGID_5_"  overflow="visible"/>
				</clipPath>
				<path clip-path="url(#SVGID_6_)" fill="#FFFFFF" d="M34.419,3.45l-2.383,7.023l2.449,0.64c0.531-0.833,1.205-1.069,1.826-1.069
					c1.102,0,1.539,0.825,1.391,1.625c-0.172,0.908-1.07,1.647-1.977,1.647c-0.652,0-1.102-0.386-1.305-0.77h-3.186
					c0,1.954,1.391,3.57,4.051,3.57c3.336,0,5.248-2.62,5.59-4.512c0.322-1.708-0.439-4.158-3.367-4.158
					c-0.973,0-1.381,0.183-1.742,0.364l0.588-1.689h4.426l0.48-2.661h-6.842V3.45L34.419,3.45z"/>
			</g>
		</g>
	</g>
</g>
</svg>
