<?xml version="1.0" encoding="UTF-8"?>
<svg width="22px" height="21px" viewBox="0 0 22 21" version="1.1" xmlns="http://www.w3.org/2000/svg" xmlns:xlink="http://www.w3.org/1999/xlink">
    <!-- Generator: Sketch 52.6 (67491) - http://www.bohemiancoding.com/sketch -->
    <title>TVWEEK-logo</title>
    <desc>Created with Sketch.</desc>
    <g id="Page-1" stroke="none" stroke-width="1" fill="none" fill-rule="evenodd">
        <g id="TVWEEK-logo" transform="translate(0.000000, -2.000000)">
            <path d="M21.654,18.824 C21.654,20.3 20.465,21.494 19,21.494 L3.307,21.494 C1.842,21.494 0.655,20.3 0.655,18.824 L0.655,3.356 C0.655,1.882 1.843,0.688 3.307,0.688 L19.001,0.688 C20.468,0.688 21.655,1.882 21.655,3.356 L21.654,18.824 Z" id="Path"></path>
            <path d="M21.654,19.877 C21.654,21.324 20.465,22.494 19,22.494 L3.307,22.494 C1.842,22.494 0.655,21.324 0.655,19.877 L0.655,4.725 C0.655,3.28 1.843,2.11 3.307,2.11 L19.001,2.11 C20.468,2.11 21.655,3.28 21.655,4.725 L21.654,19.877 Z" id="Path" fill="#C80C28"></path>
            <g id="Group" transform="translate(2.000000, 4.000000)" fill="#FFFFFF">
                <path d="M1.955,11.385 L2.485,14.52 L2.517,14.52 C2.546,14.202 2.579,13.866 2.646,13.555 L3.093,11.385 L4.263,11.385 L4.838,14.52 L4.872,14.52 C4.893,14.215 4.922,13.894 4.976,13.596 L5.399,11.385 L6.988,11.385 L5.507,16.637 L4.176,16.637 L3.697,13.783 L3.644,13.783 C3.627,14.055 3.617,14.319 3.567,14.578 L3.142,16.638 L1.845,16.638 L0.373,11.386 L1.955,11.386 L1.955,11.385 Z" id="Path"></path>
                <polygon id="Path" points="7.078 11.385 9.904 11.385 9.904 12.822 8.615 12.822 8.615 13.326 9.791 13.326 9.791 14.689 8.615 14.689 8.615 15.206 9.948 15.206 9.948 16.64 7.078 16.64"></polygon>
                <polygon id="Path" points="10.302 11.385 13.128 11.385 13.128 12.822 11.838 12.822 11.838 13.326 13.016 13.326 13.016 14.689 11.838 14.689 11.838 15.206 13.17 15.206 13.17 16.64 10.302 16.64 10.302 11.385"></polygon>
                <path d="M13.51,11.385 L14.997,11.385 L14.965,13.664 L14.997,13.664 C15.031,13.447 15.127,13.261 15.21,13.071 L15.946,11.384 L17.613,11.384 L16.298,13.94 L17.752,16.638 L15.979,16.638 L15.255,15.049 C15.166,14.849 15.031,14.653 14.999,14.438 L14.965,14.438 L14.999,16.638 L13.51,16.638 L13.51,11.385 Z" id="Path"></path>
                <polygon id="Path" points="0.203 0.487 7.638 0.487 7.638 3.649 5.69 3.561 5.69 10.221 2.152 10.221 2.152 3.561 0.203 3.649"></polygon>
                <path d="M18.291,0.487 L14.521,10.221 L11.525,10.221 L7.755,0.487 L11.447,0.487 L12.739,4.915 C12.882,5.394 12.985,5.871 12.985,6.362 L13.062,6.362 C13.062,5.872 13.166,5.394 13.305,4.915 L14.597,0.487 L18.291,0.487 Z" id="Path"></path>
            </g>
        </g>
    </g>
</svg>