<svg xmlns="http://www.w3.org/2000/svg" width="26" height="25"><path d="M26 3.21A3.24 3.24 0 0 0 22.73 0H3.28A3.24 3.24 0 0 0 0 3.2v18.59A3.24 3.24 0 0 0 3.27 25h19.44A3.24 3.24 0 0 0 26 21.81V3.21zm-10.16-.29l1.6 5.43a6.32 6.32 0 0 1 .3 1.77h.1a6.32 6.32 0 0 1 .3-1.77l1.6-5.43h4.57l-4.67 11.93h-3.71L11.27 2.92zM4 22.72l-1.87-6.44h2l.65 3.85a11.74 11.74 0 0 1 .16-1.19l.55-2.66h1.45l.72 3.85A8.65 8.65 0 0 1 7.83 19l.52-2.71h2l-1.87 6.43H6.84l-.6-3.5h-.06a7.74 7.74 0 0 1-.1 1l-.52 2.52zm9.84-4.06v1.67h-1.51V21H14v1.76h-3.57v-6.48h3.5V18h-1.6v.62zm4 0v1.67h-1.52V21H18v1.76h-3.58v-6.48h3.5V18h-1.6v.62zm2.77 2.11a3 3 0 0 1-.31-.77v2.69h-1.91v-6.41h1.84v2.8a2.89 2.89 0 0 1 .27-.73l.91-2.07h2.06l-1.63 3.13 1.8 3.31h-2.19zM1.92 2.92h9.2v3.87l-2.41-.1v8.16H4.33V6.69l-2.41.1z" fill="#c80c28"/></svg>