<svg xmlns="http://www.w3.org/2000/svg" width="26" height="25" viewBox="0 0 26 25"><title>TVWEEK-logo</title><path d="M26,3.21A3.24,3.24,0,0,0,22.73,0H3.28A3.24,3.24,0,0,0,0,3.2H0V21.79A3.24,3.24,0,0,0,3.27,25H22.71A3.24,3.24,0,0,0,26,21.81V3.21ZM15.84,2.92l1.6,5.43a6.32,6.32,0,0,1,.3,1.77h.1a6.32,6.32,0,0,1,.3-1.77l1.6-5.43h4.57L19.64,14.85H15.93L11.27,2.92ZM4,22.72,2.13,16.28h2l.65,3.85h0a11.74,11.74,0,0,1,.16-1.19l.55-2.66H6.94l.72,3.85h0A8.65,8.65,0,0,1,7.83,19l.52-2.71h2L8.48,22.72H6.84l-.6-3.5H6.18a7.74,7.74,0,0,1-.1,1l-.52,2.52Zm9.84-4.06v1.67H12.33V21H14v1.76H10.43V16.28h3.5V18h-1.6v.62Zm4,0v1.67H16.32V21H18v1.76H14.42V16.28h3.5V18h-1.6v.62Zm2.77,2.11A3,3,0,0,1,20.3,20h0v2.69H18.39V16.28h1.84v2.8h0a2.89,2.89,0,0,1,.27-.73l.91-2.07h2.06l-1.63,3.13,1.8,3.31H21.45ZM1.92,2.92h9.2V6.79l-2.41-.1v8.16H4.33V6.69l-2.41.1Z" transform="translate(0 0)" fill="#c80c28"/></svg>