<?xml version="1.0" encoding="utf-8"?>
<!-- Generator: Adobe Illustrator 16.0.0, SVG Export Plug-In . SVG Version: 6.00 Build 0)  -->
<!DOCTYPE svg PUBLIC "-//W3C//DTD SVG 1.1//EN" "http://www.w3.org/Graphics/SVG/1.1/DTD/svg11.dtd">
<svg version="1.1" id="Layer_1" xmlns="http://www.w3.org/2000/svg" xmlns:xlink="http://www.w3.org/1999/xlink" x="0px" y="0px"
	 width="78.254px" height="24.037px" viewBox="-2.233 0 78.254 24.037" enable-background="new -2.233 0 78.254 24.037"
	 xml:space="preserve">
<path id="path-1" fill="#E1146E" d="M76.021,7.077h-2.9l-1.388,3.899c-0.361,0.881-0.753,2.408-0.753,2.408
	c-0.009-0.657-0.026-0.978-0.071-1.397L70.19,7.063h-2.774l1.488,6.883c0.148,0.751,0.565,2.121,0.386,2.848l-0.021,0.052
	c-0.552,1.109-1.02,1.345-2.802,1.798l0.774,2.096c2.025-0.237,3.379-1.104,4.654-3.97L76.021,7.077z M64.726,12.735l-0.188,1.689
	c-0.116,0.15-0.463,0.318-0.71,0.318c-0.494,0-0.748-0.377-0.685-0.938C63.203,13.242,63.525,12.735,64.726,12.735 M66.081,17.14
	l1.849-1.814c-0.545-0.434-0.537-1.088-0.447-1.895l0.402-3.336c0.079-0.711,0.104-1.069,0.034-1.5
	c-0.184-1.142-1.254-1.761-2.866-1.761c-1.285,0-2.575,0.516-3.662,1.172c0.396,0.995,0.363,1.02,0.771,2.018
	c0.705-0.5,1.416-0.81,2.263-0.81c0.628,0,0.653,0.337,0.593,0.9l-0.067,0.6c-0.082-0.018-0.361-0.018-0.476-0.018
	c-2.372,0-3.919,1.311-4.124,3.148c-0.189,1.724,0.456,3.148,2.564,3.148c1.006,0,1.761-0.412,2.216-0.809
	C65.232,16.483,65.686,16.992,66.081,17.14 M58.435,10.021c-0.4,3.372-1.063,4.069-1.957,4.154h-0.931l0.901-8.397h0.854
	C58.386,5.83,58.89,6.356,58.435,10.021 M61.246,10.033c0.29-2.609,0.218-4.999-1.013-6.014c-0.757-0.674-1.754-0.78-2.469-0.78
	h-3.659l-1.47,13.51h3.764c1.397,0,2.29-0.535,3.045-1.451C60.526,14.002,61.037,11.898,61.246,10.033 M50.936,13.543
	c0.169-1.518-0.319-2.457-1.729-2.83l-0.99-0.262c-0.653-0.169-0.815-0.432-0.779-0.77c0.037-0.319,0.349-0.544,0.781-0.544
	c0.543,0,1.187,0.207,1.946,0.713l1.086-2.025c-0.75-0.411-1.516-0.993-3.144-0.993c-2.061,0-3.531,1.311-3.751,3.298
	c-0.153,1.369,0.346,2.324,1.638,2.644l1.04,0.261c0.791,0.206,1.048,0.357,0.988,0.882c-0.041,0.356-0.45,0.731-0.944,0.731
	c-0.814,0-2.062-0.843-2.561-1.238l-1.236,2.362c1.16,0.769,2.26,1.22,3.44,1.22C49.02,16.992,50.7,15.642,50.936,13.543
	 M45.887,5.992c0.128-1.143-0.304-1.83-1.154-1.83c-0.649,0-1.218,0.551-1.301,1.278c-0.044,0.404-0.02,0.686,0.219,1.008
	c0.197,0.256,0.374,0.256,0.338,0.579c-0.03,0.267-0.369,0.566-0.917,0.699l0.732,0.86c0.584-0.148,1.125-0.578,1.398-0.915
	C45.55,7.229,45.812,6.664,45.887,5.992 M42.192,16.749L43,9.494c0.148-1.329-0.101-2.661-2.093-2.661
	c-1.119,0-1.942,0.451-2.557,0.918c0.019-0.299-0.023-0.675-0.064-0.901l-2.692,0.505c0.101,1.031,0.033,2.081-0.096,3.245
	l-0.683,6.147h2.864l0.743-6.671c0.439-0.394,0.788-0.563,1.001-0.563c0.413,0,0.707,0,0.591,1.05l-0.69,6.184h2.868V16.749z
	 M31.688,12.735l-0.187,1.689c-0.114,0.15-0.464,0.318-0.71,0.318c-0.495,0-0.749-0.377-0.686-0.938
	C30.165,13.242,30.486,12.735,31.688,12.735 M33.042,17.14l1.85-1.814c-0.545-0.434-0.538-1.088-0.447-1.895l0.404-3.336
	c0.079-0.711,0.103-1.069,0.035-1.5c-0.184-1.142-1.253-1.761-2.869-1.761c-1.342,0-2.719,0.585-3.831,1.278
	c0.315,0.812,0.329,0.841,0.813,2.005c0.747-0.555,1.491-0.905,2.391-0.905c0.626,0,0.655,0.338,0.592,0.9l-0.068,0.6
	c-0.08-0.018-0.36-0.018-0.475-0.018c-2.374,0-3.919,1.311-4.123,3.147c-0.192,1.725,0.457,3.148,2.564,3.148
	c1.004,0,1.758-0.41,2.214-0.807C32.196,16.483,32.648,16.992,33.042,17.14 M27.159,16.749l0.784-7.048
	c0.268-2.418-0.802-2.868-1.988-2.868c-0.988,0-1.801,0.356-2.555,1.047c-0.375-0.618-0.887-1.047-1.793-1.047
	c-0.724,0-1.504,0.356-2.163,0.956c0.023-0.356-0.017-0.6-0.062-0.937l-2.69,0.505c0.1,1.031,0.032,2.081-0.098,3.245l-0.682,6.147
	h2.784l0.782-7.028c0.253-0.207,0.699-0.375,0.964-0.375c0.544,0,0.56,0.132,0.419,1.407l-0.667,5.999h2.686l0.776-6.972
	c0.317-0.206,0.783-0.375,0.963-0.375c0.494,0,0.602,0.076,0.457,1.369l-0.665,5.978h2.748V16.749z M12.855,9.1
	c0.677,0,0.849,0.544,0.632,2.475c-0.257,2.305-0.563,3.133-1.237,3.133c-0.808,0-0.814-0.828-0.605-2.702
	C11.912,9.605,12.265,9.1,12.855,9.1 M13.227,6.833c-2.488,0-4.335,2.099-4.67,5.117c-0.357,3.204,0.938,5.042,3.376,5.042
	c2.026,0,4.218-1.499,4.642-5.321C16.959,8.202,15.315,6.833,13.227,6.833 M11.438,3.257H8.432L7.238,7.701
	c-0.34,1.173-0.911,3.412-1.09,4.484H6.132C6.236,10.716,6.158,9.65,6.11,8.736L5.843,3.257H3.289l-1.267,4.79
	c-0.479,1.779-0.826,3.189-0.992,4.156H1.014c0.035-0.449,0.077-1.531-0.114-4.242L0.593,3.257h-2.826l1.279,13.492h2.9l0.937-3.489
	c0.427-1.571,0.83-3.176,0.926-3.782h0.017c-0.041,0.76,0.024,2.331,0.085,3.782l0.148,3.489H6.9L11.438,3.257z"/>
</svg>
