<?xml version="1.0" encoding="utf-8"?>
<!-- Generator: Adobe Illustrator 20.1.0, SVG Export Plug-In . SVG Version: 6.00 Build 0)  -->
<svg version="1.1" id="Layer_1" xmlns="http://www.w3.org/2000/svg" xmlns:xlink="http://www.w3.org/1999/xlink" x="0px" y="0px"
	 viewBox="0 0 2068 612" style="enable-background:new 0 0 2068 612;" xml:space="preserve">
<style type="text/css">
	.st0{fill:#CF609C;}
	.st1{fill:#009DE1;}
	.st2{enable-background:new    ;}
</style>
<g>
	<path class="st0" d="M213,266.6c2.5,39.9-6.8,71-58.3,71c-57.1,0-68.4-80.6-68.4-125.9s5.4-125.3,68.4-125.9
		c41.3-0.3,57.1,28.8,62.5,62.8l59.7-9.6c-7.1-66.5-57.1-108.6-122.2-108.6C60.3,30.4,18.1,123.2,18.1,212s42.1,181.6,136.6,181.6
		c22.1,0,50.6-8.2,69.3-30.3l6.5,24.9h46.4V210.9H155.6v55.7H213L213,266.6z M386.1,393.3c69.3,0,104.6-65.1,104.6-132.1
		c0-67.3-34.8-132.1-104.6-132.1s-104.6,64.8-104.6,132.1C281.5,328.2,316.8,393.3,386.1,393.3 M386.1,344.1
		c-33.9,0-39.9-51.2-39.9-82.9s5.9-82.9,39.9-82.9s39.9,51.2,39.9,82.9S420,344.1,386.1,344.1 M596.5,393.3
		c69.3,0,104.6-65.1,104.6-132.1c0-67.3-34.8-132.1-104.6-132.1s-104.6,64.8-104.6,132.1C491.9,328.2,527.2,393.3,596.5,393.3
		 M596.5,344.1c-33.9,0-39.9-51.2-39.9-82.9s5.9-82.9,39.9-82.9c33.9,0,39.9,51.2,39.9,82.9C636.7,292.9,630.5,344.1,596.5,344.1
		 M869.2,387.9h50.6V35.8h-63.1v123.6c-17.8-16.7-33.1-30.3-58.8-30.3c-34.5,0-87.1,32.2-87.1,125.9c0,106.9,44.1,138.6,92.2,138.6
		c26.3,0,41.3-8.5,60.5-26.6L869.2,387.9z M857,209.7v97.9c-9.9,15.8-22.1,28.8-40.7,28.8c-37.9,0-43.3-48.9-43.3-79.2
		c0-28,7.4-75.2,42.1-75.2C833,182,845.7,195.6,857,209.7"/>
	<path class="st1" d="M999,173.2V35.5h-66.5v352.1H999V232.9h109.5v154.7h66.5V35.5h-66.5V173L999,173.2L999,173.2z M1247.9,234.6
		c0.8-27.2,12.4-56.6,40.7-56.6c30.3,0,40.7,28,40.7,56.6H1247.9z M1391.3,276.8c1.7-117.7-44.1-147.9-104.4-147.9
		c-69.9,0-104.6,64.8-104.6,132.1c0,67,35.4,132.1,104.6,132.1c45,0,90.5-28.6,104.4-78.6l-58.3-11.3c-4.8,21.2-17,40.7-39.6,40.7
		c-32.2,0-49.8-36.2-47.5-67C1245.9,276.8,1391.3,276.8,1391.3,276.8z M1550.2,387.6h61.4c-7.6-16.7-8.5-34.8-8.5-52.9V208.9
		c0-47.5-29.4-80-93.6-80c-49.8,0-83.7,17.3-97.9,71l60.5,9.9c3.4-22.1,17.8-31.7,37.9-31.7c23.5,0,34.5,12.7,30.3,48.1
		c-50.6,5.9-139.2,20.4-139.2,91.9c0,45.3,33.7,75.2,74.9,75.2c30.3,0,44.1-10.7,67.6-28.6L1550.2,387.6z M1540.1,310.7
		c-11.9,16.7-29.7,33.1-55.7,33.1c-15,0-21.8-12.2-21.8-27.2c0-37.1,51.5-39.9,77.5-44.7V310.7z M1682.6,35.5h-63.1v352.1h63.1V35.5
		z M1783,70.9h-63.1v63.4h-29.4v55.7h29.4v124.4c0,55.2,32.2,78.6,71.6,78.6c13.6,0,27.2-3.7,40.4-7.6v-51.2
		c-7.6,5.1-14.4,9.6-25.2,9.6c-20.4,0-23.8-12.7-23.8-24.9v-129h48.9v-55.7H1783L1783,70.9L1783,70.9z M1910.6,35.5h-63.1v352.1
		h63.1V210.3c11.9-13.6,26.3-27.7,44.7-27.7c27.2,0,26,32.2,26,52.6v152.4h63.1V208c0-62.5-36.5-79.2-62.5-79.2
		c-26.3,0-51.2,14.1-71,31.7L1910.6,35.5L1910.6,35.5z"/>
	<g class="st2">
		<path d="M322.8,46.8l17.8,39.3h0.3V46.8h11.9v59.7H340l-22.6-47.8h-0.3v47.8h-11.9V46.8H322.8z"/>
		<path d="M398,57h-25.2v14.1h20.9v10.2h-20.9v15h26.6v10.2h-38.5V46.8H398V57z"/>
		<path d="M455.4,106.5h-12.2l-7.9-41.3H435l-7.9,41.3H415l-12.4-59.7h11.9l7.1,41.9h0.3l7.4-41.9h13.3l7.4,41.9h0.3l7.6-41.9h11.9
			L455.4,106.5z"/>
		<path d="M533.5,56.4l-25.2,39.9h25.2v10.2h-38.7v-9.3L519.9,57h-24.6V46.8h37.9v9.6H533.5z"/>
		<path d="M577,57h-25.2v14.1h20.9v10.2h-20.9v15h26.6v10.2H540V46.8H577V57z"/>
		<path d="M630.8,106.5h-12.2l-4-15h-17.5l-4,15H581l16.7-59.7h16.1L630.8,106.5z M606.2,57.3h-0.3l-6.2,24.9h13L606.2,57.3z"/>
		<path d="M646.3,96.3h24.9v10.2h-36.8V46.8h11.9V96.3z"/>
		<path d="M722.1,106.5h-12.2l-4-15h-17.5l-4,15h-12.2L689,46.8h16.1L722.1,106.5z M697.2,57.3h-0.3l-6.2,24.9h13L697.2,57.3z"/>
		<path d="M743,46.8l17.8,39.3h0.3V46.8H773v59.7h-12.7l-22.6-47.8h-0.3v47.8h-11.9V46.8H743z"/>
		<path d="M795.9,46.8c22.6,0,30.8,12.7,30.8,29.7c0,16.7-8.8,29.7-26.6,29.7h-18.7V46.8H795.9z M799,96.3c9.6,0,15.3-5.9,15.3-20.9
			c0-12.4-5.4-18.4-16.4-18.4h-4.5v39.3H799z"/>
	</g>
	<g>
		<path d="M1365.5,450.1c0.3,2-1.1,4-4.8,5.9c-3.4,2-7.9,4.8-13.3,8.8c-5.4,4-11,8.8-17.5,15.3c-6.2,6.2-11.9,14.7-17,24.9
			c-5.4,11.3-9.1,20.9-11.3,29.4c-2.3,8.2-1.7,18.1,1.4,29.4c1.1,2.3,2.5,4.5,4.2,6.2c1.7,1.7,4.5,2.8,8.2,3.1
			c7.4-1.4,13.9-3.1,19.5-5.4c5.7-2.3,11-5.1,15.8-8.5c5.1-3.4,9.9-6.8,14.4-10.7c4.5-3.7,9.3-7.6,14.4-11.6
			c7.4-7.1,13.3-13,18.1-18.1c4.8-5.1,8.8-9.3,11.6-13c3.1-3.4,5.7-5.9,7.6-7.6c2.3-1.7,4.5-2.3,6.8-1.4c-1.4,3.1-5.1,9.3-11.3,18.9
			c-6.2,9.6-14.1,19.8-23.8,30.5c-9.9,10.7-21.2,20.9-33.9,30.3c-13,9.3-26.9,15.3-41.9,17.5c-5.9-0.3-10.7-1.1-14.7-2
			c-4-1.1-7.4-5.1-10.7-11.9c-4-8.2-5.4-18.4-4.5-30c1.1-11.9,3.4-23.5,7.4-35.1c4-11.6,9.1-22.3,15-32.2
			c5.9-9.9,11.9-17.3,17.5-21.8c7.9-5.7,15.3-9.1,22.1-10.5C1352.3,448.7,1359,448.7,1365.5,450.1"/>
		<path d="M1430.9,327.1c0.3,0.8,0.6,4,1.1,9.6c0.3,5.7,0.6,12.7,0.8,21.5c0.3,8.8,0.3,18.7,0.3,29.7s0,22.3,0.3,34.2
			c0.3,11.6,0.3,23.2,0.3,34.8v31.4v24.3v13.3c3.7-12.2,8.8-22.3,15.6-30.3c6.8-7.9,13-12.2,18.7-12.7c6.5-0.8,11.6,0,15.3,3.1
			c3.4,3.1,6.2,7.4,8.5,12.7c2.3,5.4,4.2,11.3,6.5,17.8s5.1,13,8.8,18.9c3.7,5.9,8.5,11.3,15,15.8c6.2,4.5,15,7.4,25.7,8.5
			c-8.8,5.4-16.4,7.9-23.2,7.4c-6.8-0.6-12.7-2.8-18.1-6.8s-9.9-9.1-13.9-15.3c-4-6.2-7.4-12.4-9.9-18.4c-2.5-5.9-4.8-11.3-6.5-15.6
			c-1.7-4.5-2.8-7.1-3.4-7.9c-2-2-4.2-2-6.5-0.3c-2.3,1.7-4.8,4.5-7.4,8.2c-2.5,3.7-4.8,7.9-7.1,13c-2.3,4.8-4,9.3-5.7,13.9
			c-1.7,4.2-3.1,7.9-4,11c-1.1,3.1-1.4,4.2-1.4,4.2c-1.1,3.1-1.7,7.4-2.5,12.7c-0.6,5.1-1.1,10.5-1.1,15.6c-0.3,5.1-0.3,9.6,0,13.9
			s0.6,6.8,1.1,7.6c-2.3,0-5.7-0.6-9.9-1.7c-4.2-1.1-7.6-1.7-9.9-1.7v-29.4v-40.2c0-14.7,0-30.5-0.3-47.5s-0.6-33.9-1.1-51.2
			c-0.6-17.3-1.1-34.5-1.7-51.5s-1.7-33.1-3.1-48.4c0-0.6,2-1.4,5.9-2.8C1421.8,326.8,1426.1,326.5,1430.9,327.1"/>
		<path d="M1559.3,565c1.1,1.4,2.3,2.8,4,4.2c1.7,1.4,3.7,2.5,6.2,3.4s5.1,0.8,7.6,0.3c2.5-0.6,5.4-2.5,8.5-5.4
			c7.9-8.2,13.9-17,17.8-25.7c4-8.8,6.5-17,7.6-24.9c1.1-7.9,1.1-14.7-0.6-20.6c-1.4-5.9-4-10.2-7.1-13c-2.5-1.7-4.8-3.1-6.8-4.2
			c-1.7-1.1-4.2-2.3-7.1-3.1c-2.8-1.1-6.5-2-10.7-3.1s-9.9-2.8-17-4.8c-3.4,10.7-5.7,21.2-7.1,32s-2,20.4-1.7,29.1
			c0.3,8.8,0.8,16.4,2,22.9C1556.7,558.2,1557.9,562.7,1559.3,565 M1541.2,446.4c6.2,0.3,13.3,1.1,20.9,2.8c7.6,1.4,15,3.4,22.3,5.9
			c7.4,2.5,14.1,5.4,20.1,8.5c6.2,3.1,11.3,6.8,15.3,10.7c4,3.7,6.2,9.3,7.1,16.7c0.6,7.4,0.3,15.6-1.4,24.6
			c-1.7,9.1-4.2,18.1-7.6,27.7c-3.4,9.3-7.4,18.1-11.6,25.7c-4.2,7.6-9.1,13.9-13.9,18.9c-5.1,5.1-9.6,7.4-13.9,7.4
			c-7.4,0-13.3-1.7-18.4-5.1c-5.1-3.4-9.1-7.6-11.9-12.7c-3.1-5.1-5.1-10.2-6.8-15.6c-1.4-5.4-2.5-10.2-2.8-14.1
			c-0.8-17.5-1.1-33.1-0.6-46.7s1.7-24.9,3.4-33.9c-1.1-1.7-2-3.1-3.1-4.5c-0.8-1.4-2-2.5-3.1-3.7c-1.1-1.1-2.3-2.3-3.4-3.1
			c1.4-0.6,2.5-1.7,4-3.1C1538.4,450.4,1540.3,448.4,1541.2,446.4"/>
		<path d="M1656.6,441.6c1.7,15.8,2.8,33.4,3.4,52.6c0.6,18.9,1.7,39,3.4,60c1.4,10.7,2.5,18.9,4,24.9c1.4,5.9,2.3,11.6,3.1,17
			c-5.4,1.1-9.3,0.8-12.4-0.3c-3.1-1.1-5.9-2.5-8.5-4.2c-0.6-5.4-1.4-14.1-2.3-26.3c-0.8-12.2-1.7-25.7-2.5-40.2
			c-0.8-14.4-1.7-28.6-2.5-42.1c-0.8-13.6-1.7-24.3-2.3-32.2c1.4-0.6,2.3-1.7,3.1-3.1c0.8-1.4,1.7-2.5,2.8-3.4
			c1.1-0.8,2.3-1.7,4-2.5C1651.8,440.8,1654,440.8,1656.6,441.6 M1655.2,376.9c3.4-0.6,5.4,1.4,5.9,5.9c0.6,4.5,0,8.2-2,10.5
			c-3.7,3.1-5.9,5.7-7.1,7.6c-1.1,2.3-3.4,3.7-7.1,4.2c-2-0.3-3.7-0.3-5.1-0.3c-1.4,0.3-2.8-2.5-3.7-8.2c1.4-3.7,3.4-7.4,6.2-11
			C1645.3,382.2,1649.5,379.1,1655.2,376.9"/>
		<path d="M1762.6,450.1c0.3,2-1.1,4-4.8,5.9c-3.4,2-7.9,4.8-13.3,8.8c-5.4,4-11,8.8-17.5,15.3c-6.2,6.2-11.9,14.7-17,24.9
			c-5.4,11.3-9.1,20.9-11.3,29.4c-2.3,8.2-1.7,18.1,1.4,29.4c1.1,2.3,2.3,4.5,4.2,6.2c1.7,1.7,4.5,2.8,8.2,3.1
			c7.4-1.4,13.9-3.1,19.5-5.4c5.7-2.3,11-5.1,15.8-8.5c5.1-3.4,9.9-6.8,14.4-10.7c4.5-3.7,9.3-7.6,14.4-11.6
			c7.4-7.1,13.3-13,18.1-18.1c4.8-5.1,8.8-9.3,11.6-13c3.1-3.4,5.7-5.9,7.6-7.6c2.3-1.7,4.5-2.3,6.8-1.4c-1.4,3.1-5.1,9.3-11.3,18.9
			c-6.2,9.6-14.1,19.8-23.8,30.5c-9.9,10.7-21.2,20.9-33.9,30.3c-13,9.3-26.9,15.3-41.9,17.5c-5.9-0.3-10.7-1.1-14.7-2
			c-4-1.1-7.4-5.1-10.7-11.9c-4-8.2-5.4-18.4-4.5-30c1.1-11.9,3.4-23.5,7.4-35.1c4-11.6,9.1-22.3,15-32.2
			c5.9-9.9,11.9-17.3,17.5-21.8c7.9-5.7,15.3-9.1,22.1-10.5C1749.3,448.7,1755.8,448.7,1762.6,450.1"/>
		<path d="M1821.2,543.2c4.2-2.3,9.3-5.7,15.3-9.6c5.7-4.2,11.3-9.1,16.4-14.4c5.1-5.4,9.6-11.6,13.3-18.1
			c3.7-6.5,5.9-13.6,6.2-20.9c1.1-5.1,0.8-8.5-0.6-10.5c-0.6-1.1-1.4-1.4-2-1.4c-5.7-2.5-11.3-1.7-17,2.5
			c-5.7,4.2-10.7,10.5-15.6,18.4c-4.5,7.9-8.5,17-11.6,26.6C1822.9,525.4,1821.2,534.4,1821.2,543.2 M1843.2,454.9
			c1.1-0.3,3.7-1.1,8.5-2.8c4.5-1.4,8.5-1.7,11.3-0.8c9.6-0.3,17,2.3,22.1,7.4c5.1,5.4,5.7,15.6,1.1,30.8
			c-6.2,17-14.7,31.1-25.2,42.1c-10.5,11.3-22.9,22.1-37.1,32.2c3.4,8.5,8.2,13.3,15,14.4c6.5,1.1,13.6,0,20.9-3.1
			c7.4-3.1,14.4-7.4,21.5-12.7s12.7-9.9,17-13.9c7.1-5.9,12.4-11,16.7-15.3s8.5-9.3,13.3-15.3c1.1-0.6,1.7-0.6,1.7,0.3
			c0.3,0.8,0,2-0.3,3.7c-0.3,1.7-0.8,4-1.4,7.1c-1.1,2.3-2,4.5-3.1,6.2c-1.1,1.7-2.5,4-4.2,5.9c-1.7,2.3-4.2,4.8-7.1,7.6
			c-3.1,3.1-6.5,7.1-11,11.9c-5.1,4.5-9.9,9.3-14.4,13.6c-4.5,4.5-9.6,8.5-14.7,11.6c-5.1,3.4-10.7,5.7-17,7.1
			c-6.2,1.4-13.3,1.4-21.2,0c-6.5-2.3-11.9-4.8-15.8-7.4s-7.1-5.4-9.3-8.2s-3.7-5.4-4.8-7.6c-1.1-2.3-1.7-4.2-2-5.9
			c-1.7-6.5-2.3-15.6-2-26.9c0.3-11.3,3.7-25.7,9.9-43.8c4.2-9.3,9.1-17.3,13.9-23.8C1830.8,463.7,1836.5,458.6,1843.2,454.9"/>
		<path d="M1963.4,589.8c3.4,1.4,7.1,1.4,11.3,0c4.2-1.4,8.2-3.7,11.9-6.5s7.1-5.9,9.9-9.3c2.8-3.4,4.8-6.5,5.7-9.3
			c0.8-2.5,0-5.1-2.5-7.9c-2.5-2.8-5.1-5.1-7.9-7.1c-3.4,2.3-7.1,5.4-11.3,9.3c-4.2,3.7-7.9,7.6-11,11.6c-3.1,4-5.4,7.6-7.1,11.3
			C1960.9,585.3,1961.2,587.9,1963.4,589.8 M1967.4,435.1c7.6,1.1,13.9,2.8,18.7,5.1c5.1,2,8.8,4.5,11.6,7.1
			c2.8,2.5,5.1,5.1,6.8,7.9c1.7,2.8,3.1,5.4,4.8,7.6c-0.3,1.1-1.7,1.1-4.2-0.6c-2.5-1.4-5.1-3.1-7.4-4.5c-6.5-4.2-14.7-6.8-24-7.6
			c-9.3-0.8-18.1-0.3-26,1.7c-7.9,2-14.4,5.4-19.2,10.2c-4.8,4.8-5.9,10.7-3.7,17.5s6.8,13,12.7,18.1c6.2,5.1,13,9.6,20.6,13.9
			c7.6,4,15,7.6,22.6,11c7.6,3.4,13.6,6.5,18.4,9.9c5.9-3.4,11-6.2,15.3-8.5s7.9-4.2,11.3-6.2c3.4-2,6.8-3.7,10.2-5.4
			c3.4-1.7,7.4-3.4,11.9-5.7c0.6-0.3,1.1-0.6,1.7-0.6s0.6,0.3,0,1.1c-0.6,0.8-1.7,2-3.7,3.7c-2,1.7-5.1,4-9.3,7.1
			c-2,1.4-5.9,4-11.6,7.6c-5.7,3.7-11.9,7.6-18.4,11.6c3.7,3.4,6.5,6.8,8.5,10.5c1.7,3.4,3.1,6.8,4,10.7c0.8,3.7,0,7.6-2,11.6
			c-5.9,9.6-12.7,17.3-20.4,22.6c-7.6,5.4-14.4,9.1-20.6,11.3c-4.2,1.4-8.8,1.7-13.9,0.6c-5.1-1.1-9.1-3.7-12.2-7.4
			c-3.4-4.8-4.2-9.6-2.5-14.7s4.5-9.9,8.5-14.4c4-4.5,8.5-9.1,13.6-13.3c5.1-4.2,9.6-7.9,13.6-11.3c-2.8-3.1-7.9-6.8-15.8-11
			s-15.8-9.1-24-14.4c-8.2-5.4-15.8-11-22.3-17c-6.5-5.9-10.2-12.2-10.7-18.1c-1.1-6.5-0.3-13,2.5-19.2s7.1-11.6,12.7-16.1
			c5.7-4.5,11.9-8.2,19.5-10.5C1951.6,434.3,1959.2,434,1967.4,435.1"/>
	</g>
</g>
</svg>
