<?xml version="1.0" encoding="UTF-8"?>
<svg width="79px" height="24px" viewBox="0 0 79 24" version="1.1" xmlns="http://www.w3.org/2000/svg" xmlns:xlink="http://www.w3.org/1999/xlink">
    <!-- Generator: Sketch 52.6 (67491) - http://www.bohemiancoding.com/sketch -->
    <title>GHC-logo</title>
    <desc>Created with Sketch.</desc>
    <g id="Page-1" stroke="none" stroke-width="1" fill="none" fill-rule="evenodd">
        <g id="GHC-logo">
            <rect id="backgroundrect" x="0" y="0.520833313" width="41.1458333" height="12.5"></rect>
            <g id="Layer-1">
                <path d="M65.1407469,13.5542227 C65.0892192,13.6037021 65.0470602,13.688042 65.0470602,13.7416446 C65.0470602,13.7952473 65.0119277,13.839104 64.9689879,13.839104 C64.9260482,13.839104 64.8909157,13.9403118 64.8909157,14.0640103 C64.8909157,14.3910615 64.7630724,14.3395205 64.7047134,13.9890415 L64.6549423,13.6891665 L64.1818245,13.6891665 C63.4174971,13.6891665 63.301755,13.9178212 63.3630418,15.3083043 C63.4555574,17.4096786 63.4983019,17.9623858 63.568567,17.9623858 C63.6087742,17.9623858 63.6417597,18.0298577 63.6417597,18.1123233 C63.6417597,18.194789 63.6066272,18.2622609 63.5636874,18.2622609 C63.5207477,18.2622609 63.4856152,18.3466007 63.4856152,18.4496828 C63.4856152,18.5527648 63.4504827,18.6371047 63.4075429,18.6371047 C63.3646032,18.6371047 63.3294707,18.6818985 63.3294707,18.7366257 C63.3294707,18.8663216 62.2409483,19.9115736 62.1058834,19.9115736 C62.0488906,19.9115736 62.0022424,19.9453095 62.0022424,19.9865423 C62.0022424,20.0277752 61.9319774,20.0615111 61.8460979,20.0615111 C61.6684836,20.0615111 61.6438908,19.9501825 61.7875438,19.7963091 C61.9571557,19.6148847 62.0697749,19.5020567 62.1741966,19.4090955 C62.4956591,19.1230896 62.6438012,18.7984749 62.6867409,18.2862509 C62.7382686,17.669258 62.6662469,17.587542 62.0707508,17.587542 C61.8183823,17.587542 61.6118812,17.6173421 61.6118812,17.6537019 C61.6118812,17.6902492 61.5390788,17.7382292 61.4498813,17.7607199 C61.3608789,17.7830231 61.2689488,17.8712988 61.2457223,17.9567632 C61.2223007,18.042415 61.1764332,18.1123233 61.1434477,18.1123233 C61.1104622,18.1123233 61.0554212,18.1882292 61.0208743,18.281003 C60.9744213,18.4062009 60.9509996,18.3289831 60.9301153,17.981128 C60.9022044,17.5183833 60.8988864,17.5125733 60.6713058,17.5125733 C60.5184793,17.5125733 60.4407975,17.5504325 60.4407975,17.6250264 C60.4407975,17.6868756 60.4056649,17.7374795 60.3627252,17.7374795 C60.3197855,17.7374795 60.284653,17.8386874 60.284653,17.9623858 C60.284653,18.0917069 60.3260312,18.1878544 60.3822433,18.1884166 C60.4568023,18.1893537 60.4577782,18.2030355 60.3861469,18.2467048 C60.3326674,18.2793162 60.282506,18.5227773 60.2690385,18.8145932 L60.2456168,19.3253179 L60.0752241,19.1828772 C59.9813423,19.1045349 59.8810194,18.9497244 59.8519375,18.8387706 C59.8230508,18.7278169 59.7680098,18.6371047 59.7297544,18.6371047 C59.6913039,18.6371047 59.6589039,18.5949347 59.6575376,18.5433937 C59.646022,18.1316278 59.035497,17.9659468 59.035497,18.374714 C59.035497,18.5190289 59.003097,18.6371047 58.9636705,18.6371047 C58.9240488,18.6371047 58.8672513,18.8563883 58.8373886,19.1244016 C58.807526,19.3924149 58.7520947,19.6116985 58.7140345,19.6116985 C58.6761694,19.6116985 58.6451357,19.6771088 58.6451357,19.7571379 C58.6451357,19.8371671 58.6144924,19.9209447 58.5770177,19.9430605 C58.4827454,19.9990996 58.4128708,19.5341059 58.4116997,18.8432687 C58.4113093,18.5064716 58.3781286,18.2622609 58.3328467,18.2622609 C58.2895166,18.2622609 58.2547745,18.0622817 58.2547745,17.8124483 C58.2547745,17.3315237 58.0371481,17.1860843 57.7416446,17.4696536 C57.6218037,17.5849181 57.5872567,18.1529939 57.6961675,18.2176544 C57.7324711,18.239208 57.7861458,18.6867715 57.8154229,19.2123025 C57.8447,19.7376461 57.8973987,20.1859592 57.9325313,20.2082624 C57.9676638,20.2305656 58.0172396,20.3758176 58.0428083,20.5308155 C58.1257601,21.036105 58.7353092,21.2769421 58.8473428,20.8486831 C58.8742778,20.745601 58.924244,20.6612612 58.9585958,20.6612612 C58.9927524,20.6612612 59.0450608,20.4925815 59.0745331,20.2864174 C59.1040054,20.0802533 59.1600222,19.9115736 59.1990583,19.9115736 C59.2378993,19.9115736 59.2697137,19.8307947 59.2697137,19.7322108 C59.2697137,19.6334395 59.3224125,19.5333562 59.3868221,19.5095536 C59.4524028,19.4853762 59.5039305,19.5076794 59.5039305,19.5599701 C59.5039305,19.6115111 59.5741955,19.7022233 59.660075,19.7616361 C59.7459544,19.8210488 59.8162195,19.9128855 59.8162195,19.9655511 C59.8162195,20.0184041 59.8689182,20.0615111 59.9333278,20.0615111 C59.9977374,20.0615111 60.0504362,20.095247 60.0504362,20.1364799 C60.0504362,20.2822941 60.4286963,20.2161342 60.4798336,20.0615111 C60.5071589,19.9790455 60.5621998,19.9115736 60.6022118,19.9115736 C60.6422239,19.9115736 60.6750142,19.8272337 60.6750142,19.7241517 C60.6750142,19.6210696 60.7101467,19.5367298 60.7530865,19.5367298 C60.7960262,19.5367298 60.8311587,19.6411238 60.8311587,19.7687581 C60.8311587,20.6179667 62.1125195,20.9191537 62.7552493,20.2211946 C62.965654,19.9925398 63.0491913,19.9083874 63.1891358,19.7839393 C63.2447623,19.7344599 63.3325936,19.65012 63.3843164,19.5965174 C63.6181428,19.3541808 63.7198319,19.300953 63.7198319,19.4212779 C63.7198319,19.4848139 63.7549644,19.5367298 63.7979042,19.5367298 C63.8408439,19.5367298 63.8759764,19.7054095 63.8759764,19.9115736 C63.8759764,20.1177377 63.9066198,20.2864174 63.9440945,20.2864174 C63.9815692,20.2864174 64.028998,20.4539726 64.049492,20.6588247 C64.0947739,21.1112612 64.2116871,21.2610113 64.5192918,21.2610113 L64.7531182,21.2610113 L64.6971013,20.6800034 C64.666458,20.360449 64.6096604,20.0877502 64.5708195,20.0740684 C64.5321737,20.0601991 64.5005544,19.9196327 64.5005544,19.7616361 C64.5005544,19.6036394 64.4615183,19.461761 64.4138942,19.4465798 C64.2854654,19.405347 64.2760967,17.6469548 64.4041352,17.6059094 C64.4572243,17.588854 64.5005544,17.4786499 64.5005544,17.3607615 C64.5005544,17.2430606 64.5329544,17.1274213 64.5723809,17.1039935 C64.6120026,17.0803784 64.6691905,16.7242767 64.6996387,16.3123234 C64.7790772,15.2361469 64.8909157,15.3900202 64.8909157,16.5754638 C64.8909157,17.2001409 64.9207783,17.587542 64.9689879,17.587542 C65.0119277,17.587542 65.0470602,17.7393538 65.0470602,17.9249014 C65.0470602,18.1104491 65.0119277,18.2622609 64.9689879,18.2622609 C64.9260482,18.2622609 64.8909157,18.3466007 64.8909157,18.4496828 C64.8909157,18.5527648 64.8557832,18.6371047 64.8128434,18.6371047 C64.7090073,18.6371047 64.7121302,19.1395828 64.8163567,19.201432 C64.861053,19.2280459 64.9488843,19.2089289 65.0115373,19.1590746 C65.103077,19.0861675 65.1251324,19.092165 65.1251324,19.1901867 C65.1251324,19.2570963 65.1602649,19.3118235 65.2032047,19.3118235 C65.2461444,19.3118235 65.2812769,19.4467673 65.2812769,19.6116985 C65.2812769,19.7766298 65.3113347,19.9115736 65.3480287,19.9115736 C65.3847227,19.9115736 65.4354696,20.1482874 65.4606479,20.4374794 C65.5100286,21.0016193 65.599031,21.1468713 65.9476236,21.2308363 L66.1642741,21.283127 L66.1092331,20.5786081 C66.0789801,20.1910196 66.0208163,19.8628439 65.9800236,19.8491621 C65.9392308,19.8352929 65.9058549,19.6609905 65.9058549,19.461761 C65.9058549,19.2625315 65.8679899,19.0872921 65.8219273,19.0724857 C65.697402,19.0327523 65.6856912,17.7953929 65.8094357,17.7558469 C65.8640863,17.7384166 65.9058549,17.5978502 65.9058549,17.4314196 C65.9058549,17.2698619 65.9386453,17.1377295 65.9786573,17.1377295 C66.0188645,17.1377295 66.0662934,17.0449556 66.0840548,16.9315654 C66.1020114,16.8181751 66.1219199,16.9193829 66.1283608,17.1564716 C66.1348018,17.3935603 66.1752042,17.587542 66.2181439,17.587542 C66.261474,17.587542 66.2962162,17.7875212 66.2962162,18.0373546 C66.2962162,18.2847515 66.3270547,18.4871671 66.3649197,18.4871671 C66.4027848,18.4871671 66.4589968,18.8498285 66.4900305,19.2930813 C66.5210642,19.7363341 66.582351,20.1411654 66.6260714,20.1927064 C66.7414232,20.3283999 67.1550109,20.313781 67.1550109,20.1739642 C67.1550109,20.1115527 67.2244952,20.0615111 67.3111554,20.0615111 C67.3970349,20.0615111 67.4672999,20.0315236 67.4672999,19.9946015 C67.4672999,19.9578668 67.5574734,19.9061383 67.6679456,19.8795244 C67.8742515,19.8298576 68.3260947,19.4381459 68.3260947,19.3091996 C68.3260947,19.2694661 68.3573236,19.2368547 68.3953838,19.2368547 C68.4336392,19.2368547 68.4878994,19.1187789 68.5162006,18.9744641 C68.5921258,18.5850014 68.7164559,18.656784 68.7164559,19.0901034 C68.7164559,19.4999951 68.7545161,19.5659676 69.2209978,19.9678001 C69.3507929,20.0795036 70.2779009,20.0959967 70.2779009,19.9865423 C70.2779009,19.9453095 70.3227924,19.9115736 70.3778334,19.9115736 C70.4777659,19.9115736 70.9805511,19.4433937 70.9805511,19.3504324 C70.9805511,19.2919568 71.185686,19.0869172 71.2442402,19.0869172 C71.2664908,19.0869172 71.2953775,19.2640309 71.3082594,19.4805032 L71.3318763,19.8740892 L71.6732472,19.8975169 L72.0148133,19.9211321 L71.9582109,19.4851888 C71.926982,19.2454761 71.8738929,19.0325649 71.8399314,19.0119485 C71.8061652,18.991332 71.7528809,18.5775045 71.7214568,18.0924566 C71.6900327,17.6072213 71.6334303,17.1920818 71.5957605,17.1695912 C71.5578954,17.147288 71.5270569,17.046455 71.5270569,16.9458094 C71.5270569,16.7906241 71.4897774,16.7628857 71.2809341,16.7628857 L71.0348114,16.7628857 L71.0828258,17.6246516 C71.1226426,18.337417 71.1107366,18.5027232 71.0143174,18.5805032 C70.950103,18.6322317 70.7508235,18.8095328 70.5712574,18.9744641 C70.2064648,19.3097619 69.9416047,19.461761 69.7224168,19.461761 C69.5141591,19.461761 69.5321157,19.427088 69.9236481,19.0734228 C70.1153154,18.900245 70.2937105,18.6637186 70.3202551,18.5478918 C70.3466045,18.4320651 70.4006695,18.3372296 70.4402912,18.3372296 C70.4797177,18.3372296 70.5121176,18.2528898 70.5121176,18.1498077 C70.5121176,18.0467257 70.5472502,17.9623858 70.5901899,17.9623858 C70.6331296,17.9623858 70.6682621,17.8250056 70.6682621,17.6570755 C70.6682621,17.3626357 70.5353441,17.1377295 70.3616334,17.1377295 C70.3155708,17.1377295 70.2779009,17.1039935 70.2779009,17.0627607 C70.2779009,17.0215279 70.1373708,16.9877919 69.9656119,16.9877919 C69.7938529,16.9877919 69.6533229,17.0215279 69.6533229,17.0627607 C69.6533229,17.1039935 69.6006241,17.1377295 69.5362145,17.1377295 C69.2805279,17.1377295 68.8726004,17.6778794 68.8726004,18.0165507 C68.8726004,18.1516819 68.8374679,18.2622609 68.7945282,18.2622609 C68.7504173,18.2622609 68.7164559,18.0499118 68.7164559,17.7749639 C68.7164559,17.500016 68.6824945,17.287667 68.6383837,17.287667 C68.5954439,17.287667 68.5603114,17.2201951 68.5603114,17.1377295 C68.5603114,17.0059719 68.5081982,16.9877919 68.130914,16.9877919 C67.8947455,16.9877919 67.7015167,17.0215279 67.7015167,17.0627607 C67.7015167,17.1039935 67.6607239,17.1377295 67.6109529,17.1377295 C67.474912,17.1377295 67.0769387,17.594664 67.0769387,17.7509739 C67.0769387,17.8343767 67.0201411,17.8874171 66.9307484,17.8874171 C66.7999774,17.8874171 66.779093,17.7995162 66.7304931,17.0440185 C66.6750618,16.1833771 66.5692739,15.7882918 66.3941968,15.7882918 C66.3211993,15.7882918 66.2962162,15.568071 66.2962162,14.926151 C66.2962162,14.4013697 66.2655728,14.0640103 66.2181439,14.0640103 C66.1752042,14.0640103 66.1400717,13.9871673 66.1400717,13.8932689 C66.1400717,13.5444768 65.4091202,13.2965176 65.1407469,13.5542227 M65.6716382,14.2514322 C65.6716382,14.3545142 65.7067707,14.4388541 65.7497104,14.4388541 C65.7926502,14.4388541 65.8277827,14.6075338 65.8277827,14.8136979 C65.8277827,15.019862 65.7926502,15.1885417 65.7497104,15.1885417 C65.7055996,15.1885417 65.6716382,15.4008907 65.6716382,15.6758386 C65.6716382,15.943852 65.6384575,16.1631356 65.5980551,16.1631356 C65.5576527,16.1631356 65.5110045,16.3065133 65.4946093,16.4817528 C65.4782142,16.6569923 65.4590865,16.260595 65.45206,15.6008699 C65.4452287,14.9411448 65.4606479,14.3254638 65.4866069,14.23269 C65.5500406,14.0057221 65.6716382,14.0180919 65.6716382,14.2514322 M64.2663377,15.1135729 C64.2663377,15.6302951 64.2349136,16.0131981 64.1923642,16.0131981 C64.1515715,16.0131981 64.1055088,16.1903118 64.0896992,16.406784 C64.0627643,16.7754429 64.0600318,16.7683209 64.0465643,16.2943309 C64.0385619,16.0160094 63.9969884,15.7882918 63.9540487,15.7882918 C63.9107186,15.7882918 63.8759764,15.5883126 63.8759764,15.3384792 C63.8759764,15.0886458 63.9107186,14.8886667 63.9540487,14.8886667 C63.9969884,14.8886667 64.0321209,14.7593455 64.0321209,14.6013489 C64.0321209,14.3157179 64.0766221,14.2139478 64.2013425,14.2139478 C64.2370606,14.2139478 64.2663377,14.6187791 64.2663377,15.1135729 M71.0000692,15.6130523 C70.9463945,15.6338561 70.9024789,15.7155721 70.9024789,15.7944767 C70.9024789,15.8735687 70.8673464,15.9382293 70.8244066,15.9382293 C70.7084694,15.9382293 70.7299392,16.1580752 70.8577825,16.281024 C71.113274,16.5261718 71.5270569,16.2489748 71.5270569,15.8325233 C71.5270569,15.5600119 71.3390979,15.4816695 71.0000692,15.6130523 M75.8991029,16.4630106 C75.8991029,16.5042434 75.8138089,16.5379794 75.7095825,16.5379794 C75.6051608,16.5379794 75.4671681,16.5885833 75.4027585,16.6504325 C75.3383489,16.7122817 75.2659369,16.7628857 75.2419297,16.7628857 C75.1345804,16.7628857 74.8841636,17.0333355 74.8841636,17.1493496 C74.8841636,17.2198202 74.8150697,17.2985374 74.7307516,17.3244017 C74.6335517,17.3540143 74.5587975,17.4657178 74.5267879,17.6293371 C74.4990722,17.7712155 74.4452024,17.8874171 74.406947,17.8874171 C74.3688868,17.8874171 74.3376579,17.9681959 74.3376579,18.0667798 C74.3376579,18.1655512 74.2849591,18.2656344 74.2205495,18.289437 C74.1327182,18.3216736 74.1034411,18.2770672 74.1034411,18.1098869 C74.1034411,17.9875003 74.0683086,17.8874171 74.0253689,17.8874171 C73.9824291,17.8874171 73.9472966,17.7693413 73.9472966,17.6250264 C73.9472966,17.4807115 73.9205569,17.3626357 73.8877665,17.3626357 C73.8549762,17.3626357 73.7934943,17.2867299 73.7511401,17.193956 C73.6418389,16.9548057 73.0188224,16.9030772 72.9577309,17.1279835 C72.9352851,17.2100743 72.8677526,17.2953513 72.807637,17.3176545 C72.7473261,17.3397703 72.6981406,17.4434146 72.6981406,17.5476212 C72.6981406,17.6520151 72.6630081,17.7374795 72.6200684,17.7374795 C72.5765431,17.7374795 72.5419961,17.5358136 72.5419961,17.2822317 C72.5419961,16.7756303 72.4389408,16.6129481 72.118259,16.6129481 C71.9203458,16.6129481 71.9174181,16.6211947 71.9174181,17.1752138 C71.9174181,17.500016 71.9504037,17.7374795 71.9954904,17.7374795 C72.0427241,17.7374795 72.073953,18.056659 72.0743434,18.5433937 C72.0757096,19.762948 72.1143554,19.9115736 72.4295721,19.9115736 C72.6829165,19.9115736 72.6877961,19.9052012 72.7404948,19.4992454 C72.7699671,19.2724649 72.8252032,19.0869172 72.8632634,19.0869172 C72.9013237,19.0869172 72.9323574,18.9688414 72.9323574,18.8245266 C72.9323574,18.6802117 72.9635863,18.5621359 73.0016465,18.5621359 C73.0399019,18.5621359 73.0959187,18.4356261 73.1259766,18.2811905 C73.1755524,18.0274212 73.2743138,17.8917278 73.4115258,17.8885416 C73.4388511,17.8879793 73.4849137,18.0392288 73.5138005,18.2247765 C73.5428824,18.4103242 73.5994848,18.5621359 73.6398871,18.5621359 C73.6800944,18.5621359 73.7130799,18.6389789 73.7130799,18.7328772 C73.7130799,18.8985582 73.8661015,19.1626357 74.0889978,19.3811696 C74.2322603,19.5219234 75.2848694,19.5425399 75.3328839,19.4055344 C75.3508405,19.3539934 75.4035393,19.3118235 75.4497971,19.3118235 C75.4960549,19.3118235 75.6336572,19.2046182 75.7554499,19.0734228 C75.9625366,18.8505782 75.9771751,18.8458927 75.9771751,19.0022025 C75.9771751,19.1110946 75.7593535,19.379108 75.3525971,19.7708197 C75.0090792,20.101432 74.7280191,20.4050554 74.7280191,20.4453511 C74.7280191,20.4854594 74.6470192,20.5928522 74.5478674,20.6835644 C74.3522964,20.8629271 74.1034411,21.3264215 74.1034411,21.5115943 C74.1034411,21.5751304 74.0683086,21.6478501 74.0253689,21.6733394 C73.7501642,21.8365839 74.0343472,23.210199 74.3433181,23.210199 C74.4260747,23.210199 74.4938024,23.243935 74.4938024,23.2851678 C74.4938024,23.379441 75.015325,23.3846888 75.0756358,23.2909779 C75.1000334,23.2529312 75.2251442,23.199516 75.353573,23.1725272 C75.4818067,23.1455385 75.5868139,23.0923106 75.5868139,23.054264 C75.5868139,23.0164048 75.6363897,22.9852927 75.6968957,22.9852927 C75.8477704,22.9852927 76.2113919,22.5572211 76.2113919,22.3797326 C76.2113919,22.3004531 76.2379364,22.2356051 76.2703364,22.2356051 C76.4596616,22.2356051 76.5560808,21.6995785 76.5592037,20.6299617 C76.5617411,19.8043682 76.5882856,19.5035561 76.6603073,19.4805032 C76.713982,19.4632604 76.7578976,19.4070338 76.7578976,19.3554928 C76.7578976,19.3039518 76.8623192,19.1633853 76.9899674,19.0432479 C77.1176155,18.9229231 77.223013,18.7654887 77.2241841,18.6933312 C77.2253552,18.6211738 77.2614636,18.5621359 77.3044034,18.5621359 C77.3473431,18.5621359 77.3824756,18.494664 77.3824756,18.4121984 C77.3824756,18.2339601 77.0135842,18.1961009 76.945271,18.3674045 C76.777806,18.7861051 76.6017531,18.5362717 76.6017531,17.8804824 C76.6017531,17.4852097 76.6335676,17.2126982 76.6798254,17.2126982 C76.8000566,17.2126982 76.772341,16.6159469 76.6464495,16.4950598 C76.520558,16.3741726 75.8991029,16.3475587 75.8991029,16.4630106 M75.9502402,17.4183 C75.924086,17.5725483 75.8668981,17.7103034 75.8227872,17.72436 C75.7788716,17.7384166 75.7429584,17.7978294 75.7429584,17.8561176 C75.7429584,17.9145932 75.7078259,17.9623858 75.6648861,17.9623858 C75.6219464,17.9623858 75.5862283,18.0214237 75.5854476,18.0935811 C75.5840813,18.239208 74.950525,18.8620109 74.8037492,18.8620109 C74.6938625,18.8620109 74.7748625,18.3153013 74.8906046,18.2748181 C74.9300311,18.2609489 74.9622359,18.185043 74.9622359,18.1061384 C74.9622359,18.0270464 74.9973684,17.9623858 75.0403081,17.9623858 C75.0832479,17.9623858 75.1183804,17.9157178 75.1183804,17.8587415 C75.1183804,17.7185499 75.7316379,17.1377295 75.8793896,17.1377295 C75.9722956,17.1377295 75.9875197,17.1977045 75.9502402,17.4183 M54.1754994,17.3393954 C53.859502,17.4186749 53.8911213,18.3406032 54.2215621,18.683023 C54.3357427,18.8012862 54.4292342,18.9261092 54.4292342,18.96022 C54.4292342,18.9945182 54.4792005,19.0706115 54.5400968,19.1290871 C54.6269522,19.2124899 54.6415908,19.3884791 54.607239,19.9391246 C54.5420486,20.9899992 54.5641041,21.036105 55.1334459,21.036105 C55.3901085,21.036105 55.600318,21.0063049 55.600318,20.969945 C55.600318,20.7847722 55.9516431,20.8282541 56.1618526,21.0394786 C56.283255,21.1613028 56.4347152,21.2610113 56.4987344,21.2610113 C56.5629488,21.2610113 56.6152572,21.2947472 56.6152572,21.33598 C56.6152572,21.3772128 56.7557873,21.4109488 56.9275462,21.4109488 C57.2948762,21.4109488 57.4018351,21.0955177 57.0690522,20.9941225 C56.9213004,20.9491412 56.7019174,20.7532853 56.3224863,20.3272753 C56.2051827,20.1955178 56.1952285,20.0615111 56.3029682,20.0615111 C56.345908,20.0615111 56.3812357,19.9856052 56.3814308,19.8928314 C56.3818212,19.8000575 56.43452,19.627442 56.4985392,19.5093662 C56.6314572,19.2647806 56.6535126,18.9369797 56.537185,18.9369797 C56.4942452,18.9369797 56.4591127,18.8863758 56.4591127,18.8245266 C56.4591127,18.537771 56.0720696,18.7030772 56.020737,19.0119485 C55.9932166,19.1768797 55.9401274,19.3118235 55.9026528,19.3118235 C55.8651781,19.3118235 55.8345347,19.3792954 55.8345347,19.461761 C55.8345347,19.5442267 55.8017444,19.6116985 55.7617324,19.6116985 C55.7217203,19.6116985 55.6666794,19.5442267 55.6393541,19.461761 C55.6120288,19.3792954 55.5569879,19.3118235 55.5169759,19.3118235 C55.4769638,19.3118235 55.4441735,19.2274836 55.4441735,19.1244016 C55.4441735,19.0213195 55.4777446,18.9369797 55.5187325,18.9369797 C55.5597204,18.9369797 55.614371,18.8104699 55.6401348,18.6558468 C55.6658987,18.5012238 55.7201589,18.3160509 55.7607565,18.2444558 C55.8581516,18.0725899 55.8554191,17.7374795 55.7564625,17.7374795 C55.7135227,17.7374795 55.6783902,17.6893121 55.6783902,17.6304616 C55.6783902,17.3348973 54.8400895,17.1725899 54.1754994,17.3393954 M54.8195955,17.6447057 C54.8195955,17.6761926 54.8986436,17.7352305 54.995258,17.775901 C55.1939519,17.8596786 55.2628507,18.1323775 55.1445712,18.3672171 C55.1008508,18.453806 55.0530315,18.5690705 55.038393,18.6232354 C54.997405,18.7729855 54.6855064,18.4852929 54.6209016,18.2384583 C54.5918197,18.1269422 54.5367788,18.0173004 54.4985234,17.9946224 C54.460268,17.9719443 54.490521,17.8720485 54.5656655,17.7729023 C54.7011208,17.5941018 54.8195955,17.5343142 54.8195955,17.6447057 M68.2480224,17.9249014 C68.2480224,18.1104491 68.2128899,18.2622609 68.1699502,18.2622609 C68.1270104,18.2622609 68.0918779,18.3466007 68.0918779,18.4496828 C68.0918779,18.5527648 68.0567454,18.6371047 68.0138057,18.6371047 C67.9708659,18.6371047 67.9357334,18.6822733 67.9357334,18.7373754 C67.9357334,18.8310863 67.2941747,19.461761 67.1985362,19.461761 C67.1747242,19.461761 67.1550109,19.3436852 67.1550109,19.1993704 C67.1550109,19.0550555 67.1901434,18.9369797 67.2330832,18.9369797 C67.2760229,18.9369797 67.3111554,18.8526398 67.3111554,18.7495578 C67.3111554,18.6464757 67.3423843,18.5621359 67.3804445,18.5621359 C67.4186999,18.5621359 67.472765,18.4448098 67.500871,18.301432 C67.621883,17.6816278 68.2480224,17.3660093 68.2480224,17.9249014 M69.9353589,17.8885416 C69.8891011,18.1674254 69.6137012,18.5490164 69.5223567,18.4613029 C69.4591182,18.4005782 69.5797398,17.9623858 69.6595687,17.9623858 C69.6989952,17.9623858 69.7313951,17.9271505 69.7313951,17.8842309 C69.7313951,17.809637 69.894371,17.5963508 69.956048,17.5903533 C69.972248,17.588854 69.9630746,17.723048 69.9353589,17.8885416 M61.9698425,18.6790872 C61.9017244,18.7268797 61.8460979,18.8044724 61.8460979,18.8515153 C61.8460979,18.8985582 61.8133076,18.9369797 61.7732956,18.9369797 C61.7332835,18.9369797 61.6782426,19.0044516 61.6509173,19.0869172 C61.623592,19.1693829 61.569527,19.2368547 61.5304909,19.2368547 C61.4444162,19.2368547 61.531662,18.759866 61.6241776,18.7246307 C61.6604812,18.7107615 61.6899534,18.6689664 61.6899534,18.631482 C61.6899534,18.5939976 61.7690016,18.475547 61.865616,18.3681542 L62.0412786,18.173048 L62.0674328,18.3825857 C62.0836328,18.5113446 62.0459629,18.6258593 61.9698425,18.6790872 M55.2983736,20.0729438 C55.4574458,20.2491204 55.4675952,20.2903532 55.3967446,20.4676544 C55.2849061,20.7476627 55.0538122,20.6003491 55.0538122,20.248933 C55.0538122,19.868654 55.090311,19.8426023 55.2983736,20.0729438 M75.9615607,20.8925398 C75.9420426,21.3496618 75.8934426,21.7460591 75.853821,21.7734227 C75.8141993,21.8007863 75.7304668,21.9244848 75.668009,22.0481832 C75.5364573,22.3083248 75.2169466,22.6104489 75.073684,22.6104489 C75.019619,22.6104489 74.96126,22.6505572 74.9442793,22.6994743 C74.9243708,22.7568254 74.8525444,22.7300241 74.7426577,22.6245056 C74.5673855,22.4562007 74.5025855,21.9857717 74.6431155,21.902369 C74.6823469,21.8789413 74.7381685,21.7252553 74.7670552,21.5605114 C74.7961372,21.3957676 74.8517636,21.2610113 74.8909949,21.2610113 C74.9302262,21.2610113 74.9622359,21.2255885 74.9622359,21.1822941 C74.9622359,21.1389996 75.0842238,20.9830646 75.2333418,20.8355635 C75.3824598,20.6882499 75.5247464,20.5060758 75.5495344,20.4309197 C75.5745175,20.3555761 75.6633247,20.2732978 75.746862,20.2478085 C75.8305945,20.2221317 75.8991029,20.169841 75.8991029,20.1314195 C75.8991029,20.092998 75.9211583,20.0615111 75.9480932,20.0615111 C75.9752233,20.0615111 75.9812739,20.4354178 75.9615607,20.8925398" id="path0" fill="#000000"></path>
                <path d="M63.9745426,13.6679878 C64.0934076,13.6852306 64.2690702,13.6848558 64.3649039,13.6670507 C64.4609328,13.6492456 64.363928,13.6350016 64.1492293,13.6355638 C63.9345306,13.6361261 63.8558728,13.650745 63.9745426,13.6679878" id="path1" fill="#005555"></path>
                <path d="M27.1236601,8.92865024 C27.1244409,9.09358151 27.1404457,9.15224457 27.159183,9.05890846 C27.1779204,8.96575978 27.1771396,8.83081601 27.1576216,8.75903342 C27.1381035,8.68743826 27.1226842,8.76371897 27.1236601,8.92865024" id="path2" fill="#FF0000"></path>
                <path d="M35.6918944,7.39179066 L35.6918944,13.6891665 L37.0971948,13.6891665 L38.5024953,13.6891665 L38.5024953,10.9528068 L38.5024953,8.21644702 L40.4152654,8.21644702 L42.3280356,8.21644702 L42.3280356,10.9528068 L42.3280356,13.6891665 L43.7333361,13.6891665 L45.1386365,13.6891665 L45.1386365,7.39179066 L45.1386365,1.09441483 L43.7333361,1.09441483 L42.3280356,1.09441483 L42.3280356,3.49341514 L42.3280356,5.89241546 L40.4152654,5.89241546 L38.5024953,5.89241546 L38.5024953,3.49341514 L38.5024953,1.09441483 L37.0971948,1.09441483 L35.6918944,1.09441483 L35.6918944,7.39179066 M61.8460979,7.39179066 L61.8460979,13.6891665 L62.6463385,13.6886042 C63.0864708,13.6884168 63.6837235,13.6666759 63.9735667,13.6402494 L64.5005544,13.5924568 L64.5005544,10.1547643 L64.5005544,6.71707182 L65.0860963,6.71707182 L65.6716382,6.71707182 L65.6716382,9.34097842 C65.6716382,10.784127 65.7022815,11.964885 65.7397562,11.964885 C65.7772309,11.964885 65.83032,12.0998288 65.8578405,12.2647601 C65.8851658,12.4296913 65.9423537,12.5646351 65.9849031,12.5646351 C66.0272573,12.5646351 66.0619994,12.6128025 66.0619994,12.671653 C66.0619994,12.8435189 66.6975075,13.4293997 67.0379025,13.5714655 C67.2096615,13.6430607 67.4112831,13.7326484 67.4858421,13.7705076 C67.6708733,13.8642186 69.3972459,13.8585959 69.4581423,13.7641353 C69.4846868,13.7229024 69.5945735,13.6891665 69.7025084,13.6891665 C70.0727661,13.6891665 70.1217564,13.5544102 70.1217564,12.5368967 C70.1217564,11.4715906 70.0905275,11.4157389 69.6503952,11.6953723 C69.3412291,11.8919779 68.7164559,11.9718196 68.7164559,11.8149475 C68.7164559,11.7737147 68.6637571,11.7399787 68.5993475,11.7399787 C68.5349379,11.7399787 68.4822392,11.6893748 68.4822392,11.6275256 C68.4822392,11.5656764 68.4471066,11.5150725 68.4041669,11.5150725 C68.3538103,11.5150725 68.3260947,10.665489 68.3260947,9.11607214 L68.3260947,6.71707182 L69.2239255,6.71707182 L70.1217564,6.71707182 L70.1217564,5.6300248 L70.1217564,4.54297778 L69.2239255,4.54297778 L68.3260947,4.54297778 L68.3260947,3.41844638 L68.3260947,2.29391499 L66.9988664,2.29391499 L65.6716382,2.29391499 L65.6716382,3.41844638 L65.6716382,4.54297778 L65.0860963,4.54297778 L64.5005544,4.54297778 L64.5005544,2.8186963 L64.5005544,1.09441483 L63.1733262,1.09441483 L61.8460979,1.09441483 L61.8460979,7.39179066 M70.5121176,7.39179066 L70.5121176,13.6891665 L71.8393459,13.6891665 L73.1665741,13.6891665 L73.1665741,10.5337314 L73.1665741,7.37848371 L73.520827,7.04768405 C73.7158124,6.86588481 73.9236798,6.71707182 73.9828195,6.71707182 C74.0419592,6.71707182 74.1038315,6.67827549 74.1204218,6.63085775 C74.2207447,6.34166576 75.3525971,6.54389399 75.3525971,6.85089106 C75.3525971,6.8939981 75.3965128,6.94347748 75.4501874,6.96072029 C75.5257223,6.98489772 75.553438,7.74564321 75.572956,10.3404994 L75.5983295,13.6891665 L76.8806662,13.6891665 L78.1631981,13.6891665 L78.1631981,9.90324412 C78.1631981,7.79905845 78.1329451,6.11732174 78.0950801,6.11732174 C78.0576054,6.11732174 78.0045163,5.98237797 77.9769958,5.8174467 C77.9496705,5.65251543 77.8924826,5.51757166 77.8499332,5.51757166 C77.807579,5.51757166 77.7728369,5.46528095 77.7728369,5.40155751 C77.7728369,5.28479366 77.4127286,4.91782158 77.2983528,4.91782158 C77.2643913,4.91782158 77.2150106,4.85147423 77.1880757,4.77050797 C77.1572372,4.67717186 77.0409095,4.60538928 76.8705168,4.57465208 C76.7227651,4.54803818 76.6017531,4.49630973 76.6017531,4.45957504 C76.6017531,4.42302777 76.4985026,4.39304026 76.3722207,4.39304026 C76.2459388,4.39304026 76.1208281,4.35930432 76.0942835,4.3180715 C76.0677389,4.27683869 75.8920764,4.24310274 75.7039222,4.24310274 C75.5157681,4.24310274 75.3401056,4.27683869 75.313561,4.3180715 C75.2870164,4.35930432 75.1443394,4.39304026 74.9965877,4.39304026 C74.8488359,4.39304026 74.7280191,4.4224655 74.7280191,4.45845051 C74.7280191,4.49443551 74.5874891,4.54541427 74.4157301,4.57184076 C74.2439712,4.59807982 74.1034411,4.64512272 74.1034411,4.67604733 C74.1034411,4.70715937 73.9629111,4.79093696 73.7911521,4.8623447 C73.6193932,4.93393987 73.4788631,5.02615144 73.4788631,5.06757168 C73.4788631,5.1088045 73.4085981,5.14272786 73.3227186,5.14272786 C73.1704777,5.14272786 73.1665741,5.09268622 73.1665741,3.11857134 L73.1665741,1.09441483 L71.8393459,1.09441483 L70.5121176,1.09441483 L70.5121176,7.39179066 M48.8470684,4.3180715 C48.8205238,4.35930432 48.6932661,4.39304026 48.5644469,4.39304026 C48.2373241,4.39304026 47.60611,4.6022031 47.4138571,4.77406899 C47.3254403,4.85316103 47.2007198,4.91782158 47.1367006,4.91782158 C47.0724862,4.91782158 46.9920717,4.96355253 46.95772,5.01940425 C46.9233682,5.07506856 46.816214,5.16072037 46.7195996,5.20945006 C46.6229852,5.25817975 46.543937,5.33108687 46.543937,5.37157 C46.543937,5.41205313 46.4256576,5.55543089 46.2812239,5.69018723 C46.1367903,5.82494358 45.9915759,6.01836298 45.9583952,6.11994565 C45.9254096,6.22152832 45.8748579,6.32161161 45.8461663,6.34222802 C45.7487712,6.41232381 45.5289978,6.92660951 45.5289978,7.08441875 C45.5289978,7.17100766 45.4938653,7.24185314 45.4509255,7.24185314 C45.4079858,7.24185314 45.3728533,7.37004972 45.3728533,7.52673443 C45.3728533,7.68341914 45.3351834,7.84778814 45.2891208,7.89201971 C45.1321956,8.04270692 45.2842413,10.8403536 45.4495593,10.8403536 C45.4821544,10.8403536 45.53134,10.9745477 45.5586652,11.1387293 C45.6082411,11.4359804 45.9613229,12.1298163 46.0874096,12.177234 C46.1237132,12.1911033 46.1535758,12.2458304 46.1535758,12.2990583 C46.1535758,12.4379379 47.060385,13.3143227 47.2042331,13.3143227 C47.2703993,13.3143227 47.3246595,13.3454347 47.3246595,13.383294 C47.3246595,13.4213406 47.4300571,13.4745684 47.5588763,13.5017446 C47.6876955,13.5289208 47.793093,13.5821486 47.793093,13.6201952 C47.793093,13.6580545 47.8787773,13.6891665 47.9835893,13.6891665 C48.0884013,13.6891665 48.1959458,13.7229024 48.2224904,13.7641353 C48.2507916,13.8081794 48.7047817,13.839104 49.3201862,13.839104 C49.9676004,13.839104 50.3694773,13.8104285 50.3694773,13.7641353 C50.3694773,13.7229024 50.4748748,13.6891665 50.603694,13.6891665 C50.7325132,13.6891665 50.8379108,13.659179 50.8379108,13.6226317 C50.8379108,13.585897 50.9608746,13.5337937 51.1111636,13.5066176 C51.2614527,13.4796288 51.3844165,13.4288375 51.3844165,13.393977 C51.3844165,13.3591165 51.4665876,13.3107617 51.5669104,13.2865843 C51.6672332,13.2624068 51.8805657,13.123902 52.0408089,12.9786501 C52.2012474,12.8333981 52.365004,12.7145726 52.4048208,12.7145726 C52.4448328,12.7145726 52.477428,12.6793373 52.477428,12.6362303 C52.477428,12.5931232 52.5652593,12.4735481 52.6726086,12.370466 C52.779958,12.267384 52.8677892,12.1493082 52.8677892,12.1082628 C52.8677892,12.0672174 52.9376639,11.9616988 53.0229578,11.8736106 C53.1082518,11.7857097 53.1999867,11.601474 53.2269216,11.4644685 C53.2536613,11.3272757 53.3067505,11.2151974 53.3450059,11.2151974 C53.4537215,11.2151974 53.426201,10.9908534 53.3028469,10.8724028 C53.2386324,10.8109284 53.0395482,10.7653849 52.8344134,10.7653849 C52.6380617,10.7653849 52.477428,10.7355848 52.477428,10.6992249 C52.477428,10.6628651 52.205151,10.6088876 51.8723681,10.5792749 C51.5395851,10.5496623 51.2237829,10.491374 51.1706937,10.449579 C51.0040095,10.3185711 50.861918,10.441145 50.8181975,10.7535773 C50.7951662,10.9192582 50.7022602,11.1308576 50.6118916,11.2240062 C50.521523,11.3171549 50.4475495,11.4163011 50.4475495,11.444227 C50.4475495,11.4723403 50.3078002,11.5840437 50.1370171,11.692561 C49.8235571,11.8916031 49.1983935,11.9731316 49.1983935,11.8149475 C49.1983935,11.7737147 49.125396,11.7399787 49.0360032,11.7399787 C48.8695142,11.7399787 48.1834543,11.1415406 48.1834543,10.9962886 C48.1834543,10.9516822 48.1500784,10.9153224 48.1092856,10.9153224 C48.0684929,10.9153224 48.0111098,10.712157 47.9818327,10.463823 C47.9525556,10.215489 47.8981002,9.99433116 47.8608207,9.97202796 C47.6033775,9.81927911 48.0343363,9.79079098 50.603694,9.79079098 L53.414295,9.79079098 L53.414295,9.04110338 C53.414295,8.6287752 53.384042,8.29141578 53.3471529,8.29141578 C53.3102637,8.29141578 53.2612734,8.0014741 53.2382421,7.64705929 C53.2152108,7.29264448 53.1576325,6.96540584 53.1102036,6.91986232 C53.0627747,6.8743188 53.0239337,6.75942917 53.0239337,6.66459369 C53.0239337,6.56975821 52.9888012,6.49216554 52.9458615,6.49216554 C52.9029218,6.49216554 52.8677892,6.45505601 52.8677892,6.40969991 C52.8677892,5.9868761 52.0121174,5.00853378 51.3844165,4.71371913 C50.9911276,4.52892114 50.4783881,4.3951019 50.1594629,4.3941648 C49.9795064,4.39360253 49.81048,4.35930432 49.7839354,4.3180715 C49.7573908,4.27683869 49.5465958,4.24310274 49.3155019,4.24310274 C49.084408,4.24310274 48.873613,4.27683869 48.8470684,4.3180715 M57.2031413,4.31432307 C57.1754256,4.35761752 56.9634595,4.39304026 56.7323656,4.39304026 C56.5012717,4.39304026 56.2934044,4.42227808 56.2701779,4.45807566 C56.2471466,4.49406067 56.0870985,4.54503942 55.9143636,4.57146591 C55.7416288,4.59807982 55.600318,4.65299444 55.600318,4.69385241 C55.600318,4.73452297 55.5476192,4.76788406 55.4832096,4.76788406 C55.4188,4.76788406 55.3661012,4.80162001 55.3661012,4.84285282 C55.3661012,4.88408564 55.3036434,4.91782158 55.2273278,4.91782158 C55.0852363,4.91782158 55.0372219,4.96186573 54.6142655,5.48027471 C54.2256608,5.95651375 54.0322369,6.33698021 53.9853935,6.71650956 L53.9418682,7.06905015 L54.3134921,7.11796727 C54.5180414,7.14495602 54.8012485,7.16688438 54.9429496,7.16688438 C55.084846,7.16688438 55.2224483,7.20062032 55.2489929,7.24185314 C55.2755374,7.28308596 55.4709132,7.3168219 55.6830746,7.3168219 C55.9047998,7.3168219 56.0687515,7.35093269 56.0687515,7.39703848 C56.0687515,7.558971 56.4196862,7.43171153 56.4450597,7.26059533 C56.4587224,7.16782149 56.502638,7.09191562 56.54265,7.09191562 C56.5826621,7.09191562 56.6152572,7.03194061 56.6152572,6.95865865 C56.6152572,6.66628049 57.2056786,6.34222802 57.7383265,6.34222802 C58.4764997,6.34222802 58.8012802,6.64172822 58.8012802,7.32263198 C58.8012802,7.77244454 58.740579,7.81124087 57.9424855,7.87159073 C57.310881,7.91938331 56.8961221,8.00540996 56.5967151,8.15066193 C56.5221561,8.18683436 56.3991923,8.2162596 56.3234622,8.21607218 C56.1347225,8.21550991 55.4441735,8.45822127 55.4441735,8.52513089 C55.4441735,8.55493097 55.3387759,8.60159903 55.2099567,8.6287752 C55.0811375,8.65595138 54.97574,8.7091792 54.97574,8.74722584 C54.97574,8.78508507 54.9257737,8.8161971 54.8648774,8.8161971 C54.7243473,8.8161971 53.8046562,9.69389386 53.8046562,9.82808794 C53.8046562,9.88318998 53.7607406,9.94222788 53.7070659,9.95947069 C53.6352395,9.98233616 53.6094756,10.2672174 53.6094756,11.0407076 C53.6094756,12.0921445 53.6619792,12.3425401 53.9412827,12.6262969 C53.9949574,12.6806493 54.038873,12.7655514 54.038873,12.8146559 C54.038873,12.8637605 54.133926,12.9709658 54.2502536,13.0528691 C54.3663861,13.1347725 54.5209691,13.2575339 54.5935763,13.3253806 C54.6661835,13.3934147 54.8346244,13.4719445 54.9677376,13.5000578 C55.1010459,13.5281711 55.2101519,13.5737146 55.2105423,13.601453 C55.2109326,13.6290041 55.3057904,13.693852 55.4213374,13.7453931 C55.6787806,13.8602827 57.474052,13.8765884 57.474052,13.7641353 C57.474052,13.7229024 57.5618833,13.6891665 57.6692326,13.6891665 C57.7765819,13.6891665 57.8644132,13.659179 57.8644132,13.6222569 C57.8644132,13.5855222 57.9610276,13.5322944 58.0791119,13.5039937 C58.2891263,13.4537646 58.8147477,13.1164052 58.8662754,12.9988916 C58.9240488,12.8669466 59.035497,12.9512865 59.035497,13.1269008 C59.035497,13.2299828 59.0706295,13.3143227 59.1135692,13.3143227 C59.1565089,13.3143227 59.1916415,13.3986626 59.1916415,13.5017446 L59.1916415,13.6891665 L60.4407975,13.6891665 L61.6899534,13.6891665 L61.6899534,13.4417696 C61.6899534,13.3057013 61.6460378,13.1522028 61.5923631,13.1006617 C61.5181945,13.0294414 61.4891126,12.2415197 61.4707656,9.80578473 C61.4567126,7.93437706 61.4163102,6.57500602 61.3731753,6.53339836 C61.3327729,6.49422718 61.2995922,6.40164076 61.2995922,6.32779654 C61.2995922,6.15443128 61.0468333,5.59254042 60.9689562,5.59254042 C60.9361659,5.59254042 60.909231,5.56124097 60.909231,5.52281948 C60.909231,5.39818391 60.3869276,4.91782158 60.2512771,4.91782158 C60.1786699,4.91782158 60.141,4.88408564 60.1675446,4.84285282 C60.1940891,4.80162001 60.1464651,4.76788406 60.0615615,4.76788406 C59.9766579,4.76788406 59.8944869,4.73077453 59.8786773,4.68560585 C59.8630628,4.64024975 59.6844725,4.58533513 59.481875,4.56340677 C59.2792776,4.54147841 59.1135692,4.49406067 59.1135692,4.45826309 C59.1135692,4.4224655 58.9576199,4.39304026 58.7669284,4.39304026 C58.576237,4.39304026 58.4017455,4.36436471 58.3792997,4.32950424 C58.3185985,4.23523102 57.2628665,4.22154923 57.2031413,4.31432307 M49.9193907,6.43800061 C50.3437134,6.64941252 50.7598385,7.30876276 50.7598385,7.76925837 L50.7598385,8.0665095 L49.3496585,8.0665095 L47.9396737,8.0665095 L47.9943243,7.71040789 C48.0243821,7.51455201 48.0704447,7.33743831 48.0967941,7.3168219 C48.1231435,7.29620549 48.196141,7.1781297 48.2591844,7.05443124 C48.5722541,6.44024968 49.3465356,6.15274448 49.9193907,6.43800061 M58.8012802,10.2780879 C58.8012802,10.6285669 58.7731742,10.9153224 58.7390176,10.9153224 C58.7046658,10.9153224 58.5553526,11.0347101 58.4072105,11.1807118 C58.1519143,11.4324194 57.8169843,11.6286501 57.6887507,11.6022236 C57.6565459,11.5954765 57.6301965,11.6237772 57.6301965,11.66501 C57.6301965,11.7062428 57.5774977,11.7399787 57.5130881,11.7399787 C57.4486785,11.7399787 57.3959797,11.7737147 57.3959797,11.8149475 C57.3959797,11.9780046 56.572903,11.8994748 56.4142212,11.7212365 C56.1950333,11.4751516 56.0687515,11.2375006 56.0687515,11.0708826 C56.0687515,10.8416656 56.4792163,10.2555973 56.6738114,10.2068676 C56.7704258,10.1825028 56.849474,10.1296498 56.849474,10.0891666 C56.849474,10.0488709 56.9343775,10.0156973 57.0382136,10.0156973 C57.1418546,10.0156973 57.238469,9.98233616 57.2529123,9.94147819 C57.2671605,9.90062021 57.4984496,9.84514333 57.7668229,9.818342 C58.0351963,9.79135325 58.2547745,9.74056191 58.2547745,9.70513917 C58.2547745,9.66971643 58.3777383,9.64085346 58.5280273,9.64085346 L58.8012802,9.64085346 L58.8012802,10.2780879" id="path3" fill="#00B0DC"></path>
                <path d="M4.7948016,0.919550193 C4.61230771,0.93791754 4.46299454,0.984960436 4.46299454,1.02375677 C4.46299454,1.0625531 4.37516325,1.09441483 4.26781391,1.09441483 C4.16046457,1.09441483 4.07263329,1.12384006 4.07263329,1.15982507 C4.07263329,1.19581007 3.93210324,1.24678883 3.76034429,1.27321532 C3.58858534,1.29945438 3.44805529,1.34724697 3.44805529,1.37892127 C3.44805529,1.41078299 3.33387463,1.4998084 3.19432048,1.57646395 C2.87754233,1.7505789 1.74803206,2.87136186 1.6810851,3.07790079 C1.65375982,3.16205323 1.609649,3.24789246 1.58329961,3.26850886 C1.48531894,3.344977 1.2620323,3.78298198 1.2620323,3.89862129 C1.2620323,3.96440638 1.23392629,4.01819646 1.19937932,4.01819646 C1.1119384,4.01819646 0.870890334,4.68822976 0.871280695,4.93037885 C0.871475876,5.04020808 0.836148183,5.14160333 0.792818085,5.15547255 C0.749487986,5.16934177 0.691519341,5.56011643 0.663803692,6.02379821 C0.636283224,6.48766742 0.583779636,6.86700934 0.54747604,6.86700934 C0.461206205,6.86700934 0.461011024,7.82079939 0.54728086,7.87196557 C0.583584456,7.89351909 0.635892863,8.28954156 0.663413331,8.75228623 C0.690933799,9.21484348 0.740900039,9.61236533 0.774471106,9.63579307 C0.830683126,9.67515167 0.9729698,10.0917906 1.08305167,10.5404786 C1.10842515,10.6435606 1.15038899,10.7447685 1.17654319,10.7653849 C1.20250221,10.7860013 1.34127564,11.0305868 1.48453822,11.3089084 C1.62799597,11.5872299 1.77711397,11.8149475 1.81595491,11.8149475 C1.85479586,11.8149475 1.8866103,11.848496 1.8866103,11.889354 C1.8866103,11.9611366 2.06851864,12.1882919 2.39407992,12.5230274 C2.58633284,12.7205701 3.21091083,13.1975589 3.36998304,13.2682169 C3.43439265,13.296705 3.5749227,13.3690499 3.68227204,13.4286501 C3.78962138,13.4882502 3.95650082,13.5375422 4.05311523,13.5381044 C4.14972963,13.5386667 4.22877779,13.5729649 4.22877779,13.6141977 C4.22877779,13.6554306 4.33417532,13.6891665 4.46299454,13.6891665 C4.59181375,13.6891665 4.69721128,13.7229024 4.69721128,13.7641353 C4.69721128,13.8106159 5.12660866,13.839104 5.8292589,13.839104 C6.53190915,13.839104 6.96130652,13.8106159 6.96130652,13.7641353 C6.96130652,13.7229024 7.0491378,13.6891665 7.15648714,13.6891665 C7.26383649,13.6891665 7.35166777,13.6554306 7.35166777,13.6141977 C7.35166777,13.5729649 7.42368942,13.539229 7.5115207,13.539229 C7.59954716,13.539229 7.86245546,13.4219029 8.09608667,13.2783377 L8.52060452,13.0176338 L8.56803342,13.2221111 C8.68592251,13.7315238 8.59711533,13.6955388 9.68036779,13.6726734 L10.6697384,13.6516821 L10.7109215,11.8899163 C10.7335624,10.920945 10.7599118,10.2525985 10.7694757,10.4047851 C10.7790395,10.5569717 10.8219793,10.7024111 10.864919,10.7279005 C10.9078587,10.7533899 10.9429912,10.8735273 10.9429912,10.9947893 C10.9429912,11.1160512 10.9742201,11.2151974 11.0122804,11.2151974 C11.0505358,11.2151974 11.104796,11.3332732 11.1330972,11.4775881 C11.1612032,11.6219029 11.2092176,11.7399787 11.2396658,11.7399787 C11.2703092,11.7399787 11.3384272,11.8336897 11.3913211,11.9483919 C11.6942415,12.6054931 12.7577807,13.539229 13.2033781,13.539229 C13.2912093,13.539229 13.363231,13.5729649 13.363231,13.6141977 C13.363231,13.6554306 13.4510623,13.6891665 13.5584116,13.6891665 C13.6657609,13.6891665 13.7535922,13.7229024 13.7535922,13.7641353 C13.7535922,13.810241 14.142392,13.839104 14.7638471,13.839104 C15.3532926,13.839104 15.7944008,13.8078046 15.8225068,13.7641353 C15.8490514,13.7229024 15.9565959,13.6891665 16.0614079,13.6891665 C16.1662199,13.6891665 16.2519042,13.6554306 16.2519042,13.6141977 C16.2519042,13.5729649 16.3371981,13.539229 16.4414246,13.539229 C16.5458462,13.539229 16.6838389,13.4886251 16.7482485,13.4267758 C16.8126581,13.3649266 16.8999039,13.3143227 16.9418677,13.3143227 C17.0861062,13.3143227 17.9437299,12.4527442 18.1732623,12.0773382 C18.5700645,11.4281087 18.5964139,11.3694456 18.6454042,11.0260887 C18.6717536,10.8414782 18.7236716,10.6904161 18.760756,10.6904161 C18.7978403,10.6904161 18.8282885,10.6377505 18.8282885,10.5734648 C18.8282885,10.5091791 18.863421,10.4775048 18.9063607,10.5029942 C18.9493004,10.5284836 18.9844329,10.6221945 18.9844329,10.7110325 C18.9844329,10.8857097 19.2165027,11.5287543 19.3017966,11.5900412 C19.330293,11.6106576 19.3806496,11.7118655 19.4136351,11.8149475 C19.6049122,12.414885 20.5173816,13.2481628 21.3266004,13.5620944 C21.4768895,13.6203827 21.6980292,13.7065967 21.8182604,13.7536396 C22.0891711,13.8597204 23.8748787,13.8685293 23.9420208,13.7641353 C23.9685654,13.7229024 24.0936761,13.6891665 24.219958,13.6891665 C24.3462399,13.6891665 24.4494904,13.659179 24.4494904,13.6222569 C24.4494904,13.5855222 24.5461048,13.5322944 24.6641891,13.5039937 C25.0506467,13.4114072 26.0890077,12.5232149 26.0890077,12.285189 C26.0890077,12.2327109 26.1231643,12.1897913 26.1649329,12.1897913 C26.2609618,12.1897913 26.7135857,11.3212782 26.7135857,11.1370425 C26.7135857,11.0611366 26.7487182,10.9782961 26.7916579,10.9528068 C26.8345976,10.9273174 26.8697302,10.8139271 26.8697302,10.7009117 C26.8697302,10.5878963 26.9087663,10.4580129 26.9563903,10.412282 C27.0131879,10.3577422 27.0432457,9.89555982 27.0432457,9.07858776 C27.0432457,8.2616157 27.0131879,7.79943329 26.9563903,7.74489352 C26.9087663,7.69916258 26.8697302,7.56721756 26.8697302,7.45176567 C26.8697302,7.33631378 26.8345976,7.24185314 26.7916579,7.24185314 C26.7487182,7.24185314 26.7135857,7.16857118 26.7135857,7.07917093 C26.7135857,6.54276946 25.5645573,5.09099942 24.937442,4.8349811 C24.7978878,4.77781742 24.6837072,4.70622226 24.6837072,4.67548507 C24.6837072,4.64474788 24.5431771,4.59807982 24.3714182,4.57184076 C24.1996592,4.54541427 24.0591292,4.49443551 24.0591292,4.45845051 C24.0591292,4.4224655 23.86551,4.39304026 23.6287559,4.39304026 C23.3920018,4.39304026 23.128508,4.35124518 23.043214,4.300079 C22.9196647,4.22604735 22.8564262,4.22604735 22.7328768,4.300079 C22.6475829,4.35124518 22.4016553,4.39304026 22.1863711,4.39304026 C21.9710869,4.39304026 21.7950339,4.4224655 21.7950339,4.45845051 C21.7950339,4.49443551 21.6545039,4.54541427 21.4827449,4.57184076 C21.310986,4.59807982 21.1704559,4.64680952 21.1704559,4.67979577 C21.1704559,4.71278203 21.0508102,4.78493946 20.9046199,4.8400415 C20.7584296,4.89514353 20.5472442,5.02802566 20.4354057,5.13523099 C19.8469361,5.69955833 19.6090109,5.95801313 19.6090109,6.03354415 C19.6090109,6.07964994 19.5738784,6.11732174 19.5309387,6.11732174 C19.487999,6.11732174 19.4526713,6.15949167 19.4524761,6.21103269 C19.4522809,6.26257372 19.3628882,6.47342335 19.253587,6.67958744 C19.1444811,6.88575153 19.034204,7.19874611 19.0088305,7.37511011 C18.9606209,7.70928336 18.8282885,7.88977065 18.8282885,7.62119507 C18.8282885,7.53629295 18.796474,7.46675942 18.7576331,7.46675942 C18.7185969,7.46675942 18.6625801,7.29807971 18.6331078,7.09191562 C18.6036356,6.88575153 18.5513271,6.71707182 18.5171705,6.71707182 C18.4828187,6.71707182 18.4309007,6.62542251 18.4016236,6.51353164 C18.2843201,6.06465619 17.4487518,5.13822974 16.9350364,4.88727181 C16.7740124,4.80855462 16.6422655,4.71615562 16.6422655,4.68204483 C16.6422655,4.64774663 16.5017354,4.59807982 16.3299765,4.57184076 C16.1582175,4.54541427 16.0176875,4.49724684 16.0176875,4.46482285 C16.0176875,4.41346925 15.260777,4.32275705 14.8075676,4.3197583 C14.4254039,4.31713439 13.70792,4.41234472 13.6403875,4.47456879 C13.5995947,4.51224059 13.5170333,4.54297778 13.4569177,4.54297778 C13.3009684,4.54297778 12.804624,4.77669289 12.6264241,4.93412729 C12.543082,5.00759667 12.4478339,5.0677591 12.414458,5.0677591 C12.3381423,5.0677591 11.7237137,5.67819223 11.7237137,5.7540981 C11.7237137,5.78521014 11.6358825,5.89503937 11.5285331,5.99812141 C11.4211838,6.10120346 11.3333525,6.25451457 11.3333525,6.33885443 C11.3333525,6.42319428 11.2997814,6.49216554 11.2587935,6.49216554 C11.2178056,6.49216554 11.1612032,6.61061618 11.132902,6.75530589 C11.1046008,6.90018302 11.0503406,7.03700101 11.0122804,7.05967906 C10.9742201,7.08235711 10.9429912,7.18319009 10.9429912,7.28383565 C10.9429912,7.38448121 10.9100057,7.46675942 10.8696033,7.46675942 C10.8292009,7.46675942 10.7825528,7.5932692 10.7655721,7.74789227 C10.7403938,7.9791709 10.7327817,7.95930417 10.7218516,7.63543913 L10.7087745,7.24185314 L8.28853476,7.24185314 L5.86829503,7.24185314 L5.86829503,8.32890016 L5.86829503,9.41594718 L6.93320051,9.41594718 L7.99830118,9.41594718 L7.9557518,10.0694873 C7.9315494,10.4418947 7.87650847,10.7348351 7.82771331,10.7503911 C7.7804796,10.7655723 7.74202902,10.8154265 7.74202902,10.8611575 C7.74202902,10.9762345 7.3442509,11.3651349 7.22636181,11.3651349 C7.17366304,11.3651349 7.11686548,11.4041187 7.10047031,11.4517239 C7.04347756,11.6159054 5.47403017,11.6308992 5.12231468,11.4706535 C4.29631028,11.0941229 3.69339734,10.0408118 3.54993958,8.72248615 C3.52846971,8.52663027 3.47928419,8.36638454 3.44044325,8.36638454 C3.4016023,8.36638454 3.36998304,7.86146994 3.36998304,7.24185314 C3.36998304,6.54220719 3.39945532,6.11732174 3.44805529,6.11732174 C3.49099503,6.11732174 3.52612754,5.95070367 3.52612754,5.74697607 C3.52612754,5.54324846 3.55638054,5.35863789 3.59326968,5.33670953 C3.63015881,5.31478117 3.68188168,5.14722599 3.7078407,4.96430221 C3.88604061,3.71588494 5.44280127,2.71430231 6.52800554,3.14968338 C6.69098136,3.21509362 6.87757403,3.26850886 6.94276436,3.26850886 C7.21816422,3.26850886 7.97624576,4.22548509 7.97624576,4.57296529 C7.97624576,4.6389378 8.01137828,4.6929153 8.05431801,4.6929153 C8.09725775,4.6929153 8.13239026,4.81567665 8.13239026,4.96561417 L8.13239026,5.23831303 L8.89027663,5.18489779 C9.30698726,5.15547255 9.70866898,5.10018309 9.78283762,5.06213645 C9.85700626,5.02390238 10.0744375,4.99279034 10.2659097,4.99279034 C10.7977769,4.99279034 10.860625,4.60314021 10.4774855,3.68083704 C10.2358518,3.09945431 10.1300639,2.89366506 10.0722905,2.89366506 C10.0359869,2.89366506 10.0061243,2.84999576 10.0061243,2.79658052 C10.0061243,2.67306949 9.200809,1.84410243 9.0809681,1.84410243 C9.0315874,1.84410243 8.99118501,1.81636398 8.99118501,1.78244062 C8.99118501,1.67486045 8.37285279,1.32719283 8.09101197,1.27640149 C7.94208916,1.24960016 7.82010127,1.19768429 7.82010127,1.1609496 C7.82010127,1.12440233 7.73929649,1.09441483 7.64053509,1.09441483 C7.5417737,1.09441483 7.42115207,1.05618076 7.37235691,1.00932528 C7.28042684,0.921049569 5.42016031,0.856201591 4.7948016,0.919550193 M32.7068019,3.11932103 L32.6861127,5.14422724 L32.4747321,4.95605565 C32.3585997,4.85259876 32.2268527,4.76788406 32.1819612,4.76788406 C32.1372648,4.76788406 32.1005709,4.73677203 32.1005709,4.6989128 C32.1005709,4.66086616 31.9955637,4.60763834 31.86733,4.58064959 C31.7389012,4.55366083 31.6137904,4.50024559 31.5893928,4.46219894 C31.5648001,4.4241523 31.4256363,4.39304026 31.2798363,4.39304026 C31.1342316,4.39304026 30.9244124,4.35349424 30.8139402,4.30513939 C30.6601379,4.23785493 30.5914343,4.23785493 30.5213644,4.30513939 C30.4710078,4.35349424 30.2963212,4.39304026 30.1331502,4.39304026 C29.9699792,4.39304026 29.8364756,4.4224655 29.8364756,4.45845051 C29.8364756,4.49443551 29.6959456,4.54541427 29.5241866,4.57184076 C29.3524277,4.59807982 29.2118976,4.64587241 29.2118976,4.67754671 C29.2118976,4.70940843 29.097717,4.79937094 28.9581628,4.87752588 C28.6333823,5.0591377 28.0408139,5.64558082 28.0408139,5.78539756 C28.0408139,5.84424803 28.0062669,5.89241546 27.9643031,5.89241546 C27.9221441,5.89241546 27.8655417,5.97675532 27.8386068,6.07983736 C27.8116718,6.18291941 27.7583875,6.26725926 27.7201321,6.26725926 C27.6816815,6.26725926 27.6504526,6.32798396 27.6504526,6.40220303 C27.6504526,6.4764221 27.6143442,6.57181985 27.5702334,6.6141772 C27.5263178,6.65634713 27.4685443,6.86550997 27.4423901,7.07898351 C27.4160407,7.29226963 27.3643179,7.46675942 27.3272335,7.46675942 C27.2903444,7.46675942 27.2600914,7.70084937 27.2600914,7.98704262 C27.2600914,8.27323586 27.2310095,8.52475605 27.1954866,8.5457473 C27.1599637,8.56692597 27.1574264,8.76278186 27.1898264,8.98131579 C27.2222264,9.19966231 27.2513083,9.65678432 27.2544312,9.99695507 C27.2575541,10.3371258 27.2903444,10.6154473 27.3272335,10.6154473 C27.3641227,10.6154473 27.4148696,10.805868 27.4398528,11.0384586 C27.4648359,11.2710491 27.5224142,11.49708 27.5678912,11.5407493 C27.6133683,11.5844186 27.6504526,11.6976214 27.6504526,11.7924569 C27.6504526,11.8872924 27.6785587,11.964885 27.7129104,11.964885 C27.7470671,11.964885 27.822602,12.0913948 27.8803754,12.2460179 C28.0134886,12.6026817 28.8972665,13.4353972 29.2132639,13.501932 C29.3413024,13.5291082 29.4461144,13.5821486 29.4461144,13.6201952 C29.4461144,13.6580545 29.5317987,13.6891665 29.6366107,13.6891665 C29.7414227,13.6891665 29.8489672,13.7229024 29.8755118,13.7641353 C30.0927478,14.1016821 32.0865179,13.7855014 32.8229344,13.2965176 C33.0698379,13.1325235 33.2716546,13.240291 33.2716546,13.5360428 C33.2716546,13.6893539 33.2997606,13.6929149 34.345148,13.6724859 L35.4186415,13.6516821 L35.4385499,7.37304847 L35.4586535,1.09441483 L34.0931699,1.09441483 L32.7276862,1.09441483 L32.7068019,3.11932103 M15.2982517,6.47342335 C15.5582323,6.63423134 15.7774201,6.872632 15.7809334,6.99820467 C15.7822996,7.04974569 15.8164562,7.09191562 15.8566635,7.09191562 C15.8970658,7.09191562 15.9538634,7.2441022 15.9829453,7.43021215 C16.0120272,7.6163221 16.066873,7.78687603 16.104738,7.80955408 C16.1960826,7.86371901 16.1943259,10.294581 16.1029814,10.348746 C16.0641405,10.3717989 16.0081236,10.5594082 15.9786513,10.7653849 C15.9491791,10.9715489 15.8931622,11.1402287 15.8541261,11.1402287 C15.8152852,11.1402287 15.7834707,11.1882087 15.7834707,11.2468717 C15.7834707,11.4794623 15.1514759,11.8899163 14.7935146,11.8899163 C14.608093,11.8899163 14.4562425,11.8561803 14.4562425,11.8149475 C14.4562425,11.7737147 14.4093991,11.7399787 14.352016,11.7399787 C14.2069968,11.7399787 13.8464982,11.3358971 13.7863826,11.1059305 C13.7590573,11.0011616 13.7053826,10.9153224 13.6671272,10.9153224 C13.6286766,10.9153224 13.5974477,10.8208617 13.5974477,10.7054099 C13.5974477,10.589958 13.5554839,10.4552016 13.5041514,10.4059097 C13.3743563,10.2812741 13.3766984,7.82473525 13.5064936,7.78331501 C13.5564598,7.76719673 13.5974477,7.6556807 13.5974477,7.53554326 C13.5974477,7.4152184 13.6286766,7.3168219 13.6667369,7.3168219 C13.7049923,7.3168219 13.7592525,7.19874611 13.7875537,7.05443124 C13.8156597,6.91011638 13.8634789,6.79204058 13.8937319,6.79204058 C13.9239849,6.79185316 14.0541704,6.69270698 14.1829896,6.57125758 C14.4640497,6.30661786 14.9586374,6.2633234 15.2982517,6.47342335 M23.3847801,6.45468116 C23.4093729,6.51653039 23.4774909,6.5671343 23.5360451,6.5671343 C23.5945993,6.5671343 23.6894571,6.65147416 23.7468402,6.7545562 C23.8042233,6.85763825 23.8789775,6.9419781 23.9125485,6.9419781 C23.9463148,6.9419781 23.9982328,7.06848788 24.0279003,7.22311095 C24.0573725,7.37773402 24.1204159,7.52823381 24.16804,7.55765904 C24.2892471,7.63281523 24.2871001,10.4784419 24.1656978,10.6227568 C24.1170978,10.6804827 24.0517123,10.8424153 24.0204834,10.9824194 C23.7692859,12.1090125 22.090147,12.1099496 21.8325086,10.9839188 C21.8053785,10.8647185 21.7505328,10.7477672 21.7109111,10.7243395 C21.6712894,10.7007243 21.6388894,10.5485377 21.6388894,10.3860429 C21.6388894,10.2235481 21.6037569,10.090666 21.5608172,10.090666 C21.5128028,10.090666 21.4827449,9.7173216 21.4827449,9.12057027 C21.4827449,8.55455613 21.5153401,8.13098264 21.5608172,8.10399388 C21.6037569,8.0785045 21.6388894,7.94356074 21.6388894,7.80411884 C21.6388894,7.66467695 21.6701183,7.53216966 21.7081786,7.50949162 C21.7462388,7.48681357 21.800499,7.34999558 21.8288002,7.20511845 C21.8571014,7.06042874 21.905311,6.9419781 21.9361495,6.9419781 C21.9669881,6.9419781 22.0269085,6.86607223 22.0692627,6.77329839 C22.1116169,6.68052455 22.2254072,6.57125758 22.3220216,6.53058703 C22.418636,6.48991648 22.4976842,6.43087858 22.4976842,6.3993917 C22.4976842,6.28412723 23.3373512,6.33641794 23.3847801,6.45468116 M32.0771492,6.68108682 C32.16986,6.76280277 32.3537201,6.91236544 32.4854671,7.01338585 L32.7251489,7.19724673 L32.7251489,8.95376478 C32.7251489,10.7518905 32.6437585,11.2151974 32.3283467,11.2151974 C32.2889202,11.2151974 32.1776672,11.2911033 32.0810528,11.3838771 C31.4960965,11.9455806 30.0706924,11.2907284 30.0706924,10.460262 C30.0706924,10.3875423 30.0267767,10.3140729 29.9731021,10.2968301 C29.9001045,10.2734024 29.8755118,9.94653858 29.8755118,9.003619 C29.8755118,8.06069942 29.9001045,7.73383563 29.9731021,7.71040789 C30.0267767,7.69316508 30.0706924,7.61332335 30.0706924,7.53291935 C30.0706924,6.76074113 31.4853615,6.16005394 32.0771492,6.68108682" id="path4" fill="#EC68A2"></path>
            </g>
        </g>
    </g>
</svg>