<?xml version="1.0" encoding="utf-8"?>
<!-- Generator: Adobe Illustrator 16.0.0, SVG Export Plug-In . SVG Version: 6.00 Build 0)  -->
<!DOCTYPE svg PUBLIC "-//W3C//DTD SVG 1.1//EN" "http://www.w3.org/Graphics/SVG/1.1/DTD/svg11.dtd">
<svg version="1.1" id="Layer_1" xmlns="http://www.w3.org/2000/svg" xmlns:xlink="http://www.w3.org/1999/xlink" x="0px" y="0px"
	 width="716.346px" height="203.005px" viewBox="34.312 334.715 716.346 203.005"
	 enable-background="new 34.312 334.715 716.346 203.005" xml:space="preserve">
<path fill="#CF609C" d="M103.197,418.239c0.902,14.081-2.407,25.12-20.604,25.12c-20.155,0-24.216-28.479-24.216-44.479
	s1.86-44.337,24.216-44.482c14.586-0.095,20.152,10.24,22.108,22.241l21.056-3.361c-2.405-23.678-20.154-38.563-43.164-38.563
	c-33.392,0-48.281,32.804-48.281,64.166c0,31.361,14.889,64.162,48.281,64.162c7.819,0,17.896-2.881,24.514-10.721l2.257,8.799
	h16.394V398.56H82.893v19.681L103.197,418.239L103.197,418.239z M164.409,463.041c24.515,0,36.999-23.043,36.999-46.721
	c0-23.84-12.333-46.72-36.999-46.72c-24.665,0-37,22.88-37,46.72C127.41,439.998,139.893,463.041,164.409,463.041 M164.409,445.599
	c-12.032,0-14.138-18.082-14.138-29.28c0-11.203,2.106-29.281,14.138-29.281c12.033,0,14.137,18.078,14.137,29.281
	C178.546,427.517,176.442,445.599,164.409,445.599 M238.859,463.041c24.513,0,36.998-23.043,36.998-46.721
	c0-23.84-12.333-46.72-36.998-46.72c-24.667,0-37.002,22.88-37.002,46.72C201.857,439.998,214.342,463.041,238.859,463.041
	 M238.859,445.599c-12.032,0-14.138-18.082-14.138-29.28c0-11.203,2.106-29.281,14.138-29.281c12.031,0,14.137,18.078,14.137,29.281
	C252.996,427.517,250.89,445.599,238.859,445.599 M335.266,461.119h17.898V336.637h-22.261v43.681
	c-6.315-5.92-11.731-10.719-20.755-10.719c-12.183,0-30.834,11.359-30.834,44.481c0,37.759,15.643,48.96,32.638,48.96
	c9.327,0,14.589-3.045,21.358-9.441L335.266,461.119z M330.902,398.079v34.561c-3.458,5.602-7.821,10.24-14.438,10.24
	c-13.387,0-15.343-17.283-15.343-28c0-9.922,2.559-26.561,14.89-26.561C322.48,388.319,326.992,393.117,330.902,398.079"/>
<path fill="#009DE1" d="M381.125,385.181v-48.64h-23.461v124.484h23.461v-54.724h38.654v54.724h23.465V336.542h-23.465v48.64
	L381.125,385.181L381.125,385.181z M469.111,406.941c0.301-9.6,4.361-20.001,14.439-20.001c10.676,0,14.436,9.92,14.436,20.001
	H469.111z M519.796,421.824c0.604-41.605-15.641-52.323-36.85-52.323c-24.666,0-37,22.88-37,46.722c0,23.679,12.482,46.72,37,46.72
	c15.941,0,32.035-10.078,36.85-27.842l-20.605-3.998c-1.656,7.52-6.018,14.398-13.988,14.398c-11.432,0-17.6-12.799-16.848-23.678
	H519.796z M576.044,461.025h21.658c-2.707-5.924-3.01-12.322-3.01-18.725v-44.479c0-16.799-10.375-28.321-33.086-28.321
	c-17.598,0-29.633,6.081-34.596,25.121l21.355,3.519c1.205-7.839,6.318-11.201,13.391-11.201c8.27,0,12.18,4.48,10.676,16.96
	c-17.896,2.082-49.178,7.199-49.178,32.483c0,15.998,11.879,26.559,26.467,26.559c10.68,0,15.643-3.84,23.914-10.078
	L576.044,461.025z M572.435,433.822c-4.213,5.92-10.527,11.68-19.703,11.68c-5.264,0-7.67-4.32-7.67-9.598
	c0-13.121,18.199-14.08,27.373-15.842V433.822z M622.82,336.542h-22.262v124.483h22.262V336.542z M658.31,349.02h-22.258v22.4
	h-10.375v19.682h10.375v43.999c0,19.523,11.432,27.842,25.266,27.842c4.814,0,9.629-1.279,14.291-2.719v-18.082
	c-2.705,1.76-5.113,3.359-8.873,3.359c-7.221,0-8.426-4.479-8.426-8.801v-45.6h17.299V371.42H658.31V349.02z M703.431,336.542
	h-22.26v124.483h22.26v-62.723c4.211-4.799,9.326-9.758,15.791-9.758c9.627,0,9.176,11.358,9.176,18.557v53.924h22.26v-63.523
	c0-22.079-12.938-28-22.107-28c-9.326,0-18.051,4.959-25.117,11.201v-44.161H703.431z"/>
<text transform="matrix(1 0 0 1 134.4087 361.6147)" font-family="'ArialMT'" font-size="27.0775">NEW ZEALAND</text>
<g>
	<path d="M510.791,483.089c0.117,0.703-0.438,1.408-1.67,2.111c-1.23,0.703-2.785,1.73-4.66,3.076
		c-1.879,1.35-3.928,3.135-6.154,5.361c-2.229,2.23-4.223,5.164-5.979,8.795c-1.879,3.988-3.227,7.447-4.047,10.377
		c-0.824,2.936-0.646,6.393,0.525,10.377c0.354,0.822,0.852,1.557,1.496,2.201c0.645,0.643,1.611,1.025,2.902,1.141
		c2.578-0.467,4.863-1.111,6.861-1.934c1.99-0.818,3.867-1.816,5.625-2.99c1.76-1.172,3.455-2.432,5.1-3.783
		c1.641-1.348,3.342-2.727,5.102-4.129c2.578-2.467,4.723-4.605,6.42-6.422s3.078-3.344,4.133-4.574
		c1.057-1.229,1.963-2.137,2.729-2.725c0.76-0.586,1.551-0.762,2.371-0.527c-0.469,1.055-1.787,3.283-3.957,6.684
		c-2.17,3.404-4.982,7.008-8.441,10.818c-3.457,3.811-7.475,7.385-12.045,10.727c-4.572,3.34-9.496,5.424-14.771,6.242
		c-2.111-0.115-3.844-0.354-5.189-0.703c-1.35-0.352-2.609-1.758-3.781-4.221c-1.41-2.93-1.938-6.479-1.582-10.641
		c0.352-4.16,1.229-8.293,2.637-12.4c1.408-4.104,3.166-7.912,5.277-11.432c2.107-3.518,4.158-6.092,6.152-7.736
		c2.816-1.992,5.422-3.223,7.826-3.693C506.072,482.621,508.447,482.621,510.791,483.089"/>
	<path d="M533.83,439.65c0.117,0.264,0.236,1.385,0.354,3.363c0.115,1.979,0.203,4.506,0.266,7.584
		c0.055,3.08,0.088,6.576,0.088,10.484c0,3.916,0.025,7.938,0.086,12.072c0.059,4.133,0.09,8.223,0.09,12.266v11.146v8.574v4.684
		c1.289-4.309,3.135-7.871,5.539-10.686c2.4-2.814,4.6-4.311,6.596-4.486c2.342-0.35,4.133,0.023,5.363,1.123
		c1.23,1.102,2.227,2.594,2.99,4.482c0.76,1.895,1.521,4.004,2.287,6.332c0.762,2.33,1.785,4.551,3.076,6.658
		c1.289,2.113,3.049,3.982,5.275,5.607c2.225,1.629,5.277,2.617,9.146,2.969c-3.053,1.938-5.777,2.814-8.18,2.637
		c-2.402-0.174-4.545-0.965-6.42-2.373c-1.875-1.406-3.518-3.209-4.924-5.408c-1.406-2.195-2.582-4.352-3.516-6.463
		c-0.939-2.109-1.701-3.957-2.285-5.539c-0.59-1.582-1-2.504-1.234-2.771c-0.701-0.703-1.467-0.746-2.285-0.131
		c-0.818,0.617-1.672,1.584-2.551,2.9c-0.879,1.318-1.701,2.838-2.461,4.553c-0.764,1.713-1.438,3.344-2.021,4.879
		c-0.59,1.537-1.057,2.838-1.408,3.891c-0.352,1.057-0.527,1.541-0.527,1.449c-0.352,1.146-0.645,2.641-0.879,4.486
		c-0.236,1.848-0.383,3.672-0.439,5.475c-0.063,1.805-0.063,3.428,0,4.881c0.059,1.449,0.203,2.352,0.439,2.703
		c-0.822,0-1.996-0.197-3.518-0.592c-1.525-0.396-2.699-0.596-3.52-0.596v-10.354v-14.248c0-5.23-0.027-10.832-0.086-16.816
		c-0.061-5.977-0.178-12.021-0.352-18.135c-0.178-6.111-0.385-12.18-0.617-18.201c-0.236-6.021-0.586-11.719-1.053-17.084
		c0-0.174,0.701-0.504,2.105-0.988C530.666,439.498,532.187,439.384,533.83,439.65"/>
	<path d="M579.203,523.716c0.354,0.467,0.82,0.967,1.408,1.494c0.586,0.527,1.32,0.939,2.197,1.23
		c0.877,0.295,1.787,0.324,2.727,0.088c0.938-0.232,1.936-0.879,2.99-1.934c2.813-2.93,4.926-5.953,6.33-9.061
		c1.408-3.104,2.314-6.037,2.727-8.793c0.406-2.752,0.352-5.188-0.176-7.299c-0.527-2.109-1.381-3.633-2.551-4.572
		c-0.939-0.584-1.73-1.082-2.373-1.492c-0.646-0.41-1.469-0.793-2.465-1.145c-0.994-0.352-2.258-0.73-3.779-1.145
		c-1.523-0.41-3.518-0.967-5.979-1.67c-1.174,3.754-1.994,7.506-2.463,11.256c-0.471,3.754-0.676,7.184-0.617,10.289
		c0.061,3.105,0.293,5.803,0.703,8.088C578.294,521.341,578.732,522.898,579.203,523.716 M572.871,481.857
		c2.229,0.119,4.689,0.439,7.391,0.971c2.695,0.525,5.332,1.229,7.912,2.109c2.576,0.879,4.951,1.879,7.121,2.99
		c2.168,1.113,3.959,2.371,5.365,3.781c1.406,1.289,2.225,3.252,2.463,5.891c0.232,2.637,0.057,5.541-0.525,8.703
		c-0.59,3.168-1.498,6.42-2.729,9.764c-1.23,3.34-2.609,6.357-4.133,9.057c-1.525,2.699-3.166,4.924-4.928,6.684
		c-1.754,1.758-3.398,2.637-4.92,2.637c-2.582,0-4.75-0.613-6.508-1.848c-1.762-1.229-3.164-2.725-4.223-4.479
		c-1.057-1.76-1.848-3.607-2.371-5.543c-0.529-1.936-0.854-3.605-0.973-5.012c-0.348-6.217-0.406-11.725-0.176-16.535
		c0.238-4.807,0.645-8.791,1.232-11.957c-0.352-0.588-0.703-1.113-1.057-1.584c-0.348-0.465-0.701-0.904-1.055-1.318
		c-0.352-0.408-0.762-0.789-1.23-1.143c0.471-0.232,0.941-0.584,1.406-1.059C571.876,483.265,572.519,482.562,572.871,481.857"/>
	<path d="M613.673,480.097c0.584,5.629,0.992,11.816,1.23,18.557c0.23,6.744,0.643,13.807,1.23,21.193
		c0.467,3.752,0.938,6.684,1.406,8.793c0.467,2.111,0.82,4.105,1.055,5.98c-1.877,0.352-3.342,0.32-4.396-0.09
		s-2.053-0.904-2.988-1.494c-0.238-1.873-0.502-4.984-0.791-9.32c-0.295-4.338-0.588-9.057-0.881-14.16
		c-0.295-5.102-0.586-10.051-0.879-14.857c-0.293-4.809-0.559-8.619-0.791-11.432c0.467-0.234,0.848-0.586,1.143-1.055
		c0.291-0.469,0.615-0.881,0.967-1.232c0.354-0.352,0.82-0.643,1.408-0.883C611.97,479.867,612.734,479.867,613.673,480.097
		 M613.146,457.238c1.172-0.236,1.871,0.469,2.109,2.109c0.234,1.643,0,2.873-0.705,3.691c-1.289,1.055-2.105,1.965-2.461,2.729
		c-0.352,0.764-1.174,1.262-2.463,1.492c-0.701-0.111-1.318-0.143-1.846-0.088c-0.527,0.063-0.967-0.906-1.32-2.898
		c0.471-1.291,1.201-2.578,2.199-3.873C609.658,459.117,611.15,458.058,613.146,457.238"/>
	<path d="M651.132,483.089c0.117,0.703-0.439,1.408-1.67,2.111c-1.232,0.703-2.787,1.73-4.662,3.076
		c-1.877,1.35-3.928,3.135-6.152,5.361c-2.23,2.23-4.225,5.164-5.98,8.795c-1.879,3.988-3.227,7.447-4.045,10.377
		c-0.824,2.936-0.646,6.393,0.527,10.377c0.35,0.822,0.85,1.557,1.492,2.201c0.646,0.643,1.613,1.025,2.902,1.141
		c2.58-0.467,4.865-1.111,6.861-1.934c1.99-0.818,3.869-1.816,5.627-2.99c1.76-1.172,3.457-2.432,5.1-3.783
		c1.641-1.348,3.342-2.727,5.102-4.129c2.578-2.467,4.717-4.605,6.42-6.422c1.697-1.816,3.078-3.344,4.135-4.574
		c1.053-1.229,1.959-2.137,2.725-2.725c0.762-0.586,1.551-0.762,2.373-0.527c-0.469,1.055-1.789,3.283-3.959,6.684
		c-2.168,3.404-4.982,7.008-8.439,10.818c-3.461,3.811-7.475,7.385-12.047,10.727c-4.572,3.34-9.496,5.424-14.771,6.242
		c-2.111-0.115-3.842-0.354-5.188-0.703c-1.354-0.352-2.613-1.758-3.781-4.221c-1.41-2.93-1.938-6.479-1.586-10.641
		c0.354-4.16,1.23-8.293,2.639-12.4c1.406-4.104,3.166-7.912,5.275-11.432c2.111-3.518,4.162-6.092,6.156-7.736
		c2.813-1.992,5.422-3.223,7.826-3.693C646.414,482.621,648.787,482.621,651.132,483.089"/>
	<path d="M671.886,515.978c1.521-0.82,3.311-1.965,5.361-3.43c2.049-1.465,3.986-3.166,5.805-5.102
		c1.814-1.936,3.4-4.072,4.75-6.418c1.346-2.346,2.078-4.809,2.197-7.387c0.354-1.76,0.291-2.99-0.176-3.695
		c-0.238-0.352-0.471-0.525-0.703-0.525c-1.996-0.939-3.986-0.646-5.98,0.881c-1.994,1.523-3.813,3.691-5.453,6.504
		c-1.643,2.816-3.021,5.953-4.133,9.412C672.441,509.675,671.886,512.929,671.886,515.978 M679.623,484.849
		c0.354-0.117,1.348-0.439,2.99-0.969c1.643-0.527,2.99-0.615,4.045-0.264c3.398-0.113,6.008,0.764,7.828,2.639
		c1.814,1.879,1.961,5.512,0.439,10.904c-2.229,5.98-5.189,10.963-8.883,14.947c-3.693,3.986-8.064,7.797-13.104,11.432
		c1.172,3.049,2.932,4.75,5.277,5.102c2.344,0.354,4.805-0.025,7.387-1.145c2.576-1.111,5.1-2.609,7.563-4.482
		c2.461-1.877,4.453-3.518,5.979-4.922c2.461-2.113,4.424-3.9,5.891-5.369c1.465-1.465,3.018-3.25,4.66-5.359
		c0.352-0.232,0.555-0.207,0.615,0.084c0.059,0.295,0.027,0.734-0.086,1.32c-0.117,0.588-0.293,1.404-0.529,2.465
		c-0.352,0.818-0.701,1.553-1.055,2.193c-0.354,0.646-0.852,1.354-1.492,2.111c-0.648,0.764-1.496,1.67-2.551,2.725
		c-1.057,1.057-2.35,2.463-3.869,4.227c-1.76,1.639-3.461,3.25-5.102,4.832c-1.645,1.584-3.371,2.965-5.188,4.133
		c-1.818,1.174-3.814,1.998-5.98,2.463c-2.17,0.471-4.66,0.471-7.475,0c-2.348-0.818-4.223-1.699-5.627-2.635
		c-1.408-0.939-2.494-1.906-3.252-2.904c-0.766-0.996-1.322-1.904-1.674-2.727c-0.352-0.816-0.59-1.523-0.703-2.109
		c-0.59-2.346-0.82-5.51-0.705-9.496c0.115-3.984,1.291-9.146,3.518-15.477c1.523-3.281,3.168-6.068,4.928-8.355
		S677.277,486.14,679.623,484.849"/>
	<path d="M722.111,532.494c1.17,0.533,2.496,0.533,3.986,0c1.486-0.533,2.898-1.299,4.229-2.313c1.328-1.01,2.496-2.129,3.51-3.35
		c1.008-1.221,1.672-2.313,1.992-3.266c0.32-0.854,0.025-1.781-0.877-2.795c-0.904-1.01-1.834-1.836-2.793-2.471
		c-1.17,0.852-2.498,1.941-3.984,3.268c-1.492,1.334-2.791,2.688-3.908,4.068c-1.115,1.381-1.941,2.709-2.473,3.986
		C721.259,530.9,721.367,531.859,722.111,532.494 M723.546,477.796c2.656,0.424,4.865,1.008,6.621,1.752
		c1.752,0.746,3.133,1.568,4.143,2.471c1.014,0.906,1.809,1.836,2.395,2.795c0.584,0.955,1.141,1.857,1.674,2.709
		c-0.105,0.426-0.613,0.373-1.514-0.158c-0.906-0.531-1.783-1.064-2.633-1.596c-2.34-1.486-5.156-2.395-8.453-2.713
		c-3.297-0.316-6.354-0.131-9.168,0.561c-2.818,0.691-5.08,1.887-6.777,3.588c-1.701,1.701-2.129,3.775-1.275,6.219
		c0.85,2.447,2.363,4.572,4.545,6.379c2.178,1.813,4.598,3.432,7.256,4.865c2.656,1.434,5.314,2.736,7.975,3.906
		c2.656,1.174,4.836,2.338,6.539,3.51c2.125-1.172,3.932-2.152,5.42-2.951c1.49-0.799,2.818-1.541,3.988-2.229
		c1.168-0.695,2.363-1.33,3.588-1.918c1.221-0.584,2.631-1.248,4.227-1.99c0.211-0.107,0.4-0.164,0.559-0.164s0.158,0.137,0,0.402
		s-0.584,0.689-1.273,1.275c-0.693,0.582-1.785,1.408-3.271,2.471c-0.744,0.531-2.127,1.436-4.145,2.711
		c-2.023,1.273-4.199,2.658-6.539,4.146c1.275,1.172,2.285,2.395,3.029,3.668c0.637,1.17,1.09,2.418,1.355,3.75
		c0.264,1.33,0.023,2.686-0.719,4.064c-2.131,3.4-4.52,6.059-7.178,7.973c-2.658,1.912-5.102,3.244-7.334,3.986
		c-1.49,0.527-3.137,0.584-4.945,0.162c-1.809-0.43-3.244-1.277-4.305-2.555c-1.17-1.699-1.465-3.43-0.879-5.182
		c0.584-1.756,1.566-3.453,2.953-5.105c1.381-1.645,2.973-3.211,4.781-4.703c1.809-1.486,3.4-2.813,4.785-3.986
		c-0.955-1.061-2.818-2.363-5.58-3.904c-2.768-1.543-5.611-3.246-8.533-5.104c-2.926-1.861-5.559-3.854-7.896-5.98
		c-2.334-2.127-3.611-4.254-3.826-6.383c-0.422-2.336-0.133-4.596,0.879-6.777c1.01-2.178,2.496-4.09,4.465-5.74
		c1.967-1.646,4.248-2.869,6.857-3.668C717.939,477.556,720.675,477.371,723.546,477.796"/>
</g>
</svg>
