<?xml version="1.0" encoding="utf-8"?>
<!-- Generator: Adobe Illustrator 16.0.0, SVG Export Plug-In . SVG Version: 6.00 Build 0)  -->
<!DOCTYPE svg PUBLIC "-//W3C//DTD SVG 1.1//EN" "http://www.w3.org/Graphics/SVG/1.1/DTD/svg11.dtd">
<svg version="1.1" id="Layer_1" xmlns="http://www.w3.org/2000/svg" xmlns:xlink="http://www.w3.org/1999/xlink" x="0px" y="0px"
	 width="515.275px" height="180.073px" viewBox="160.445 174.524 515.275 180.073"
	 enable-background="new 160.445 174.524 515.275 180.073" xml:space="preserve">
<g>
	<path d="M166.169,351.237c10.674,0,11.86-6.722,11.86-16.604v-44.87c0-9.883-1.186-16.604-11.86-16.604v-1.186l42.3-3.953v16.208
		c8.104-8.5,19.372-16.208,32.813-16.208c13.441,0,24.905,7.708,24.905,27.079v39.534c0,9.882,1.186,16.604,11.86,16.604v1.186
		h-53.171v-1.186c8.302,0,9.882-6.722,9.882-16.604V291.54c0-9.686-4.349-13.639-10.476-13.639c-5.93,0-10.872,3.36-14.825,7.117
		v49.612c0,9.883,1.582,16.604,9.884,16.604v1.185h-53.172V351.237z M394.655,311.703c0-23.521,14.429-43.683,42.102-43.683
		c9.291,0,15.416,2.373,19.568,4.546v-25.894c0-8.104,1.777-15.022,4.744-20.755c-35.383-16.407-73.926-44.474-109.11-44.474
		c-22.138,0-37.358,11.267-37.358,31.427c0,8.105,2.569,20.952,14.627,31.626c-24.51-1.777-42.695-16.208-42.695-34.986
		c0-18.381,17.197-34.986,49.021-34.986c44.276,0,88.75,31.825,126.504,49.417c8.695-14.627,25.895-21.744,41.904-21.744
		c16.207,0,22.73,7.117,22.73,16.999c0,11.07-8.305,17.987-24.115,17.987c-4.941,0-9.883-0.592-14.824-1.777v99.226
		c0,9.883,1.186,16.604,11.859,16.604v1.185h-42.301v-10.475c-5.533,6.521-14.033,12.65-26.686,12.65
		C407.701,354.598,394.655,334.039,394.655,311.703z M286.539,331.273c0-16.803,15.615-23.128,34.789-23.128
		c7.313,0,15.417,0.987,21.545,2.569V289.96c0-11.267-2.371-20.952-15.22-20.952c-8.302,0-13.441,4.15-16.802,8.697
		c5.338,2.569,8.698,8.303,8.698,14.033c0,8.104-6.522,14.43-15.023,14.43c-9.29,0-14.232-7.709-14.232-14.824
		c0-13.046,15.813-23.324,39.137-23.324c20.756,0,44.87,8.302,44.87,32.021v42.301c0,3.756,1.978,5.535,5.14,5.535
		c4.94,0,9.487-4.94,12.649-9.687l0.988,0.593c-5.535,7.906-12.256,15.615-26.091,15.615c-12.256,0-19.372-6.126-22.336-13.835
		c-5.337,7.313-14.035,14.034-29.058,14.034C298.399,354.598,286.539,345.9,286.539,331.273z M342.873,340.563v-28.267
		c-2.965-0.791-6.522-1.582-9.488-1.582c-10.277,0-14.627,7.115-14.627,18.976c0,9.687,2.965,18.384,11.464,18.384
		C334.373,348.074,338.722,345.9,342.873,340.563z M456.326,340.958v-61.475c-2.568-5.337-6.918-9.686-12.451-9.686
		c-13.441,0-16.406,25.896-16.406,40.719c0,20.756,5.93,35.777,17.592,35.777C449.804,346.296,453.56,343.725,456.326,340.958z
		 M502.58,235.604c15.221,0,22.139-7.51,22.139-16.407c0-8.302-5.93-15.219-17.197-15.219c-15.221,0-19.174,12.254-19.766,29.649
		C492.894,235.011,497.835,235.604,502.58,235.604z M505.339,351.237c10.674,0,11.859-6.722,11.859-16.604v-44.87
		c0-9.883-1.188-16.604-11.859-16.604v-1.186l43.287-3.953v66.613c0,9.882,1.189,16.604,11.859,16.604v1.186h-55.146V351.237
		L505.339,351.237z M514.431,240.744c0-10.082,8.104-17.198,18.186-17.198c10.08,0,18.188,7.117,18.188,17.198
		c0,10.278-8.105,17.393-18.188,17.393C522.535,258.136,514.431,251.021,514.431,240.744z M569.181,331.273
		c0-16.803,15.615-23.128,34.789-23.128c7.313,0,15.418,0.987,21.547,2.569V289.96c0-11.267-2.375-20.952-15.223-20.952
		c-8.301,0-13.441,4.15-16.801,8.697c5.336,2.569,8.697,8.303,8.697,14.033c0,8.104-6.523,14.43-15.023,14.43
		c-9.289,0-14.229-7.709-14.229-14.824c0-13.046,15.813-23.324,39.137-23.324c20.754,0,44.869,8.302,44.869,32.021v42.301
		c0,3.756,1.977,5.535,5.139,5.535c4.941,0,9.488-4.94,12.65-9.687l0.986,0.593c-5.531,7.906-12.252,15.615-26.09,15.615
		c-12.256,0-19.369-6.126-22.336-13.835c-5.338,7.313-14.035,14.034-29.055,14.034C581.041,354.598,569.181,345.9,569.181,331.273z
		 M625.517,340.563v-28.267c-2.965-0.791-6.523-1.582-9.488-1.582c-10.279,0-14.627,7.115-14.627,18.976
		c0,9.687,2.965,18.384,11.465,18.384C617.015,348.074,621.365,345.9,625.517,340.563z"/>
</g>
</svg>
