<?xml version="1.0" encoding="UTF-8"?>
<svg width="576px" height="125px" viewBox="0 0 576 125" version="1.1" xmlns="http://www.w3.org/2000/svg" xmlns:xlink="http://www.w3.org/1999/xlink">
    <!-- Generator: Sketch 52.6 (67491) - http://www.bohemiancoding.com/sketch -->
    <title>NZAWW-logo</title>
    <desc>Created with Sketch.</desc>
    <defs>
        <rect id="path-1" x="0" y="0" width="594" height="132.127"></rect>
        <rect id="path-3" x="0" y="0" width="594" height="132.127"></rect>
        <rect id="path-5" x="0" y="0" width="594" height="132.127"></rect>
        <rect id="path-7" x="0" y="0" width="594" height="132.127"></rect>
        <rect id="path-9" x="0" y="0" width="594" height="132.127"></rect>
        <rect id="path-11" x="0" y="0" width="594" height="132.127"></rect>
        <rect id="path-13" x="0" y="0" width="594" height="132.127"></rect>
        <rect id="path-15" x="0" y="0" width="594" height="132.127"></rect>
        <rect id="path-17" x="0" y="0" width="594" height="132.127"></rect>
        <rect id="path-19" x="0" y="0" width="594" height="132.127"></rect>
        <rect id="path-21" x="0" y="0" width="594" height="132.127"></rect>
    </defs>
    <g id="Page-1" stroke="none" stroke-width="1" fill="none" fill-rule="evenodd">
        <g id="NZAWW-logo" transform="translate(-9.000000, -7.000000)">
            <g id="Group">
                <g id="Clipped">
                    <mask id="mask-2" fill="white">
                        <use xlink:href="#path-1"></use>
                    </mask>
                    <g id="SVGID_1_"></g>
                    <path d="M184.228,127.127 L187.252,127.127 L187.252,120.828 L187.281,120.828 L190.464,127.127 L193.575,127.127 L193.575,115.594 L190.552,115.594 L190.552,121.764 L190.522,121.764 L187.499,115.594 L184.228,115.594 L184.228,127.127 Z M175.39,121.36 C175.39,118.794 176.64,118.194 177.454,118.194 C178.268,118.194 179.519,118.794 179.519,121.36 C179.519,123.928 178.268,124.526 177.454,124.526 C176.64,124.526 175.39,123.928 175.39,121.36 Z M172.191,121.36 C172.191,124.881 174.299,127.401 177.453,127.401 C180.608,127.401 182.716,124.881 182.716,121.36 C182.716,117.84 180.608,115.319 177.453,115.319 C174.299,115.319 172.191,117.84 172.191,121.36 Z M167.512,127.127 L170.71,127.127 L170.71,115.594 L167.512,115.594 L167.512,127.127 Z M160.083,127.127 L163.281,127.127 L163.281,118.551 L166.189,118.551 L166.189,115.594 L157.176,115.594 L157.176,118.551 L160.083,118.551 L160.083,127.127 Z M152.669,127.127 L155.867,127.127 L155.867,115.594 L152.669,115.594 L152.669,127.127 Z M144.413,118.551 L145.431,118.551 C147.742,118.551 147.946,120.569 147.946,121.295 C147.946,122.377 147.655,124.17 145.663,124.17 L144.413,124.17 L144.413,118.551 Z M141.214,127.127 L145.837,127.127 C149.456,127.127 151.143,124.881 151.143,121.344 C151.143,118.436 149.922,115.594 146.462,115.594 L141.214,115.594 L141.214,127.127 Z M130.835,127.127 L139.586,127.127 L139.586,124.17 L134.033,124.17 L134.033,122.732 L138.932,122.732 L138.932,119.986 L134.033,119.986 L134.033,118.55 L139.426,118.55 L139.426,115.593 L130.835,115.593 L130.835,127.127 Z M117.093,118.551 L118.11,118.551 C120.422,118.551 120.625,120.569 120.625,121.295 C120.625,122.377 120.334,124.17 118.343,124.17 L117.093,124.17 L117.093,118.551 Z M113.896,127.127 L118.518,127.127 C122.138,127.127 123.824,124.881 123.824,121.344 C123.824,118.436 122.603,115.594 119.143,115.594 L113.896,115.594 L113.896,127.127 Z M102.731,127.127 L105.754,127.127 L105.754,120.828 L105.784,120.828 L108.967,127.127 L112.078,127.127 L112.078,115.594 L109.054,115.594 L109.054,121.764 L109.025,121.764 L106.002,115.594 L102.731,115.594 L102.731,127.127 Z M91.131,127.127 L94.344,127.127 L94.809,125.479 L98.109,125.479 L98.545,127.127 L101.859,127.127 L98.079,115.594 L94.954,115.594 L91.131,127.127 Z M95.507,123.008 L96.51,119.455 L96.539,119.455 L97.469,123.008 L95.507,123.008 Z M82.773,127.127 L90.564,127.127 L90.564,124.17 L85.971,124.17 L85.971,115.594 L82.773,115.594 L82.773,127.127 Z M71.188,127.127 L74.4,127.127 L74.865,125.479 L78.165,125.479 L78.601,127.127 L81.915,127.127 L78.136,115.594 L75.011,115.594 L71.188,127.127 Z M75.563,123.008 L76.566,119.455 L76.595,119.455 L77.525,123.008 L75.563,123.008 Z M61.753,127.127 L70.504,127.127 L70.504,124.17 L64.951,124.17 L64.951,122.732 L69.85,122.732 L69.85,119.986 L64.951,119.986 L64.951,118.55 L70.344,118.55 L70.344,115.593 L61.753,115.593 L61.753,127.127 Z M51.171,127.127 L60.445,127.127 L60.445,124.17 L55.343,124.17 L60.213,118.178 L60.213,115.594 L51.447,115.594 L51.447,118.551 L55.997,118.551 L51.171,124.348 L51.171,127.127 Z M45.292,115.594 L42.138,115.594 L40.844,122.815 L40.815,122.815 L39.594,115.594 L36.774,115.594 L35.524,122.717 L35.495,122.717 L34.23,115.594 L31.09,115.594 L33.91,127.127 L37.036,127.127 L38.126,120.1 L38.155,120.1 L39.274,127.127 L42.385,127.127 L45.292,115.594 Z M21.643,127.127 L30.394,127.127 L30.394,124.17 L24.84,124.17 L24.84,122.732 L29.739,122.732 L29.739,119.986 L24.84,119.986 L24.84,118.55 L30.233,118.55 L30.233,115.593 L21.642,115.593 L21.642,127.127 L21.643,127.127 Z M10.479,127.127 L13.503,127.127 L13.503,120.828 L13.532,120.828 L16.715,127.127 L19.826,127.127 L19.826,115.594 L16.802,115.594 L16.802,121.764 L16.773,121.764 L13.75,115.594 L10.479,115.594 L10.479,127.127 Z" id="Shape" fill="#E31D3C" fill-rule="nonzero" mask="url(#mask-2)"></path>
                </g>
                <g id="Clipped">
                    <mask id="mask-4" fill="white">
                        <use xlink:href="#path-3"></use>
                    </mask>
                    <g id="SVGID_1_"></g>
                    <path d="M239.945,25.594 L243.693,25.594 L243.693,15.967 L243.73,15.967 L247.676,25.594 L251.533,25.594 L251.533,7.967 L247.784,7.967 L247.784,17.398 L247.748,17.398 L244,7.967 L239.945,7.967 L239.945,25.594 Z M225.564,25.594 L229.547,25.594 L230.123,23.076 L234.214,23.076 L234.755,25.594 L238.864,25.594 L234.178,7.968 L230.303,7.968 L225.564,25.594 Z M230.988,19.299 L232.232,13.867 L232.268,13.867 L233.421,19.299 L230.988,19.299 Z M220.554,25.594 L224.519,25.594 L224.519,7.967 L220.554,7.967 L220.554,25.594 Z M209.38,25.594 L219.04,25.594 L219.04,21.076 L213.345,21.076 L213.345,7.967 L209.38,7.967 L209.38,25.594 Z M195.017,25.594 L199,25.594 L199.577,23.076 L203.668,23.076 L204.208,25.594 L208.317,25.594 L203.632,7.968 L199.757,7.968 L195.017,25.594 Z M200.442,19.299 L201.685,13.867 L201.721,13.867 L202.875,19.299 L200.442,19.299 Z M186.259,12.164 L188.115,12.164 C189.629,12.164 190.079,12.806 190.079,13.917 C190.079,15.497 189.07,15.67 188.331,15.67 L186.259,15.67 L186.259,12.164 Z M182.294,25.594 L186.259,25.594 L186.259,19.448 L188.367,19.448 C189.935,19.448 190.043,21.201 190.151,22.879 C190.205,23.793 190.278,24.706 190.476,25.595 L194.441,25.595 C194.08,24.781 194.062,22.682 194.008,21.819 C193.864,19.622 193.197,17.992 192.116,17.424 C193.431,16.758 194.044,14.832 194.044,13.005 C194.044,9.673 192.098,7.969 189.845,7.969 L182.294,7.969 L182.294,25.594 Z M173.085,25.594 L177.049,25.594 L177.049,12.485 L180.654,12.485 L180.654,7.967 L169.48,7.967 L169.48,12.485 L173.085,12.485 L173.085,25.594 Z M157.063,19.669 C157.099,25.298 161.262,26.014 162.722,26.014 C165.588,26.014 168.669,24.533 168.669,19.942 C168.669,16.707 166.867,15.546 165.047,14.856 C163.227,14.165 161.389,13.893 161.316,12.634 C161.316,11.647 162.2,11.449 162.74,11.449 C163.137,11.449 163.587,11.572 163.912,11.893 C164.236,12.19 164.452,12.634 164.38,13.301 L168.129,13.301 C168.021,9.005 165.552,7.548 162.758,7.548 C160.109,7.548 157.568,9.301 157.568,13.375 C157.568,16.93 159.893,17.695 161.929,18.485 C164.146,19.348 164.705,19.595 164.705,20.508 C164.705,21.818 163.713,22.113 163.065,22.113 C162.326,22.113 161.461,21.891 161.172,20.829 C161.082,20.508 161.028,20.113 161.028,19.669 L157.063,19.669 Z M155.694,7.967 L151.729,7.967 L151.729,17.571 C151.729,19.373 151.729,21.619 149.855,21.619 C147.926,21.619 147.926,19.373 147.926,17.571 L147.926,7.967 L143.962,7.967 L143.962,18.78 C143.962,23.668 145.908,26.013 149.837,26.013 C153.766,26.013 155.694,23.667 155.694,18.78 L155.694,7.967 Z M130.373,25.594 L134.356,25.594 L134.933,23.076 L139.024,23.076 L139.565,25.594 L143.674,25.594 L138.988,7.968 L135.113,7.968 L130.373,25.594 Z M135.798,19.299 L137.042,13.867 L137.078,13.867 L138.231,19.299 L135.798,19.299 Z M111.876,25.594 L122.725,25.594 L122.725,21.076 L115.841,21.076 L115.841,18.879 L121.914,18.879 L121.914,14.682 L115.841,14.682 L115.841,12.485 L122.527,12.485 L122.527,7.967 L111.876,7.967 L111.876,25.594 Z M98.017,25.594 L101.982,25.594 L101.982,18.607 L105.695,18.607 L105.695,25.594 L109.659,25.594 L109.659,7.967 L105.695,7.967 L105.695,14.09 L101.982,14.09 L101.982,7.967 L98.017,7.967 L98.017,25.594 Z M88.808,25.594 L92.773,25.594 L92.773,12.485 L96.377,12.485 L96.377,7.967 L85.204,7.967 L85.204,12.485 L88.808,12.485 L88.808,25.594 Z" id="Shape" fill="#E31D3C" fill-rule="nonzero" mask="url(#mask-4)"></path>
                </g>
                <g id="Clipped">
                    <mask id="mask-6" fill="white">
                        <use xlink:href="#path-5"></use>
                    </mask>
                    <g id="SVGID_1_"></g>
                    <path d="M95.453,57.754 C90.336,57.754 89.653,67.387 89.653,74.645 C89.653,81.905 90.336,91.668 95.453,91.668 C100.57,91.668 101.253,81.904 101.253,74.645 C101.253,67.387 100.57,57.754 95.453,57.754 M95.453,110.672 C82.149,110.672 76.144,93.649 76.144,74.645 C76.144,55.642 82.148,38.75 95.453,38.75 C108.758,38.75 114.763,55.642 114.763,74.645 C114.763,93.649 108.758,110.672 95.453,110.672" id="Shape" fill="#E31D3C" fill-rule="nonzero" mask="url(#mask-6)"></path>
                </g>
                <g id="Clipped">
                    <mask id="mask-8" fill="white">
                        <use xlink:href="#path-7"></use>
                    </mask>
                    <g id="SVGID_1_"></g>
                    <path d="M118.175,40.466 L131.207,40.466 L131.207,49.572 L131.344,49.572 C134.073,41.653 138.03,38.75 142.944,38.75 C146.765,38.75 150.859,42.577 152.497,49.44 C153.043,48.647 155.772,38.75 164.574,38.75 C173.649,38.75 176.72,50.892 176.72,61.977 L176.72,108.958 L163.21,108.958 L163.21,71.874 C163.21,65.407 162.869,59.602 158.775,59.602 C155.362,59.602 154.203,64.748 154.203,71.874 L154.203,108.958 L140.694,108.958 L140.694,71.874 C140.694,65.407 140.352,59.602 136.257,59.602 C132.845,59.602 131.686,64.748 131.686,71.874 L131.686,108.958 L118.177,108.958 L118.177,40.466 L118.175,40.466 Z" id="Path" fill="#E31D3C" mask="url(#mask-8)"></path>
                </g>
                <g id="Clipped">
                    <mask id="mask-10" fill="white">
                        <use xlink:href="#path-9"></use>
                    </mask>
                    <g id="SVGID_1_"></g>
                    <path d="M205.922,66.991 C205.922,60.658 203.465,55.511 199.985,55.511 C195.96,55.511 193.639,59.601 193.024,66.991 L205.922,66.991 Z M192.958,80.584 C193.298,88.369 195.619,93.912 199.849,93.912 C202.032,93.912 204.42,92.328 205.512,89.029 L218.135,89.029 C215.406,103.81 207.969,110.672 199.917,110.672 C188.591,110.672 180.063,97.74 180.063,74.908 C180.063,54.982 187.568,38.75 198.757,38.75 C212.814,38.75 218.886,53.926 218.886,80.583 L192.958,80.583 L192.958,80.584 Z" id="Shape" fill="#E31D3C" fill-rule="nonzero" mask="url(#mask-10)"></path>
                </g>
                <g id="Clipped">
                    <mask id="mask-12" fill="white">
                        <use xlink:href="#path-11"></use>
                    </mask>
                    <g id="SVGID_1_"></g>
                    <path d="M223.069,40.466 L236.102,40.466 L236.102,49.176 L236.238,49.176 C238.762,42.314 242.378,38.75 247.769,38.75 C254.115,38.75 259.915,46.273 259.915,61.977 L259.915,108.958 L246.405,108.958 L246.405,73.063 C246.405,65.144 245.928,59.602 241.97,59.602 C239.65,59.602 236.58,61.844 236.58,72.798 L236.58,108.958 L223.07,108.958 L223.07,40.466 L223.069,40.466 Z" id="Path" fill="#E31D3C" mask="url(#mask-12)"></path>
                </g>
                <g id="Clipped">
                    <mask id="mask-14" fill="white">
                        <use xlink:href="#path-13"></use>
                    </mask>
                    <g id="SVGID_1_"></g>
                    <path d="M264.342,7.9 L278.261,7.9 L278.261,22.727 C278.261,31.605 276.053,39.821 270.097,42.559 C267.688,43.693 265.613,43.693 264.342,43.693 L264.342,35.476 C267.621,35.098 270.097,31.131 270.298,26.599 L264.342,26.599 L264.342,7.9 Z" id="Path" fill="#E31D3C" mask="url(#mask-14)"></path>
                </g>
                <g id="Clipped">
                    <mask id="mask-16" fill="white">
                        <use xlink:href="#path-15"></use>
                    </mask>
                    <g id="SVGID_1_"></g>
                    <path d="M298.632,60.393 C298.563,58.149 297.948,56.434 297.062,55.247 C296.243,53.928 295.151,53.268 294.059,53.268 C292.15,53.268 289.965,54.06 289.965,58.546 C289.965,60.525 290.785,61.449 291.535,62.109 C293.787,63.957 298.906,64.485 303.409,67.388 C307.912,70.159 311.869,75.306 311.869,86.525 C311.869,105.527 302.453,110.673 293.856,110.673 C285.531,110.673 276.388,104.206 276.184,86.525 L289.08,86.525 C289.147,88.898 289.694,90.879 290.717,92.593 C291.399,93.781 292.696,94.573 294.333,94.573 C296.107,94.573 298.907,93.253 298.907,89.294 C298.907,85.335 297.746,84.148 291.468,82.036 C281.163,78.604 277,72.27 277,60.524 C277,43.236 286.622,38.75 293.718,38.75 C301.358,38.75 310.57,42.842 310.911,60.393 L298.632,60.393 Z" id="Path" fill="#E31D3C" mask="url(#mask-16)"></path>
                </g>
            </g>
            <polygon id="Path" fill="#E31D3C" points="376.844 108.958 371.214 47.45 371.067 47.45 365.586 108.958 349.868 108.958 335.686 8 351.477 8 357.836 70.356 357.982 70.356 364.27 8 378.451 8 384.594 71.206 384.74 71.206 391.245 8 407.11 8 392.488 108.958"></polygon>
            <g id="Group">
                <g id="Clipped">
                    <mask id="mask-18" fill="white">
                        <use xlink:href="#path-17"></use>
                    </mask>
                    <g id="SVGID_3_"></g>
                    <path d="M428.137,66.991 C428.137,60.658 425.679,55.511 422.199,55.511 C418.176,55.511 415.855,59.601 415.24,66.991 L428.137,66.991 Z M415.171,80.584 C415.512,88.369 417.832,93.912 422.063,93.912 C424.248,93.912 426.635,92.328 427.728,89.029 L440.349,89.029 C437.62,103.81 430.183,110.672 422.131,110.672 C410.805,110.672 402.277,97.74 402.277,74.908 C402.277,54.982 409.781,38.75 420.972,38.75 C435.03,38.75 441.102,53.926 441.102,80.583 L415.171,80.583 L415.171,80.584 Z" id="Shape" fill="#E31D3C" fill-rule="nonzero" mask="url(#mask-18)"></path>
                </g>
                <g id="Clipped">
                    <mask id="mask-20" fill="white">
                        <use xlink:href="#path-19"></use>
                    </mask>
                    <g id="SVGID_3_"></g>
                    <path d="M469.484,66.991 C469.484,60.658 467.027,55.511 463.547,55.511 C459.522,55.511 457.201,59.601 456.586,66.991 L469.484,66.991 Z M456.519,80.584 C456.862,88.369 459.182,93.912 463.411,93.912 C465.596,93.912 467.984,92.328 469.075,89.029 L481.699,89.029 C478.969,103.81 471.533,110.672 463.481,110.672 C452.154,110.672 443.626,97.74 443.626,74.908 C443.626,54.982 451.13,38.75 462.32,38.75 C476.377,38.75 482.448,53.926 482.448,80.583 L456.519,80.583 L456.519,80.584 Z" id="Shape" fill="#E31D3C" fill-rule="nonzero" mask="url(#mask-20)"></path>
                </g>
            </g>
            <polygon id="Path" fill="#E31D3C" points="509.126 108.958 501.895 84.147 499.505 89.163 499.505 108.958 485.997 108.958 485.997 14.732 499.505 14.732 499.505 60.262 508.104 40.465 523.389 40.465 510.763 66.333 525.365 108.958"></polygon>
            <rect id="Rectangle" fill="#E31D3C" x="528.027" y="14.732" width="13.51" height="94.226"></rect>
            <g id="Clipped">
                <mask id="mask-22" fill="white">
                    <use xlink:href="#path-21"></use>
                </mask>
                <g id="SVGID_5_"></g>
                <path d="M573.265,103.678 C572.173,109.748 570.944,117.535 568.829,122.682 C565.28,131.26 559.821,131.127 554.568,131.127 L548.428,131.127 L548.428,110.277 L551.566,110.277 C552.931,110.277 554.704,110.539 555.659,109.617 C556.479,108.824 556.957,107.504 556.957,104.471 C556.957,101.17 551.77,75.965 551.019,72.006 L545.015,40.465 L559.48,40.465 L565.143,79.793 L565.28,79.793 L571.012,40.465 L584.998,40.465 L573.265,103.678 Z" id="Path" fill="#E31D3C" mask="url(#mask-22)"></path>
            </g>
            <polygon id="Path" fill="#E31D3C" points="50.159 108.958 44.529 47.45 44.383 47.45 38.9 108.958 23.183 108.958 9 8 24.791 8 31.15 70.356 31.297 70.356 37.585 8 51.767 8 57.908 71.206 58.055 71.206 64.56 8 80.425 8 65.803 108.958"></polygon>
        </g>
    </g>
</svg>