<?xml version="1.0" encoding="utf-8"?>
<!-- Generator: Adobe Illustrator 16.0.0, SVG Export Plug-In . SVG Version: 6.00 Build 0)  -->
<!DOCTYPE svg PUBLIC "-//W3C//DTD SVG 1.1//EN" "http://www.w3.org/Graphics/SVG/1.1/DTD/svg11.dtd">
<svg version="1.1" id="Layer_1" xmlns="http://www.w3.org/2000/svg" xmlns:xlink="http://www.w3.org/1999/xlink" x="0px" y="0px"
	 width="594px" height="132.127px" viewBox="0 0 594 132.127" enable-background="new 0 0 594 132.127" xml:space="preserve">
<g>
	<defs>
		<rect id="SVGID_1_" width="594" height="132.127"/>
	</defs>
	<clipPath id="SVGID_2_">
		<use xlink:href="#SVGID_1_"  overflow="visible"/>
	</clipPath>
	<path clip-path="url(#SVGID_2_)" fill="#E31D3C" d="M184.228,127.127h3.024v-6.299h0.029l3.183,6.299h3.111v-11.533h-3.023v6.17
		h-0.03l-3.023-6.17h-3.271V127.127z M175.39,121.36c0-2.566,1.25-3.166,2.064-3.166s2.065,0.6,2.065,3.166
		c0,2.568-1.251,3.166-2.065,3.166S175.39,123.928,175.39,121.36 M172.191,121.36c0,3.521,2.108,6.041,5.262,6.041
		c3.155,0,5.263-2.52,5.263-6.041c0-3.52-2.108-6.041-5.263-6.041C174.299,115.319,172.191,117.84,172.191,121.36 M167.512,127.127
		h3.198v-11.533h-3.198V127.127z M160.083,127.127h3.198v-8.576h2.908v-2.957h-9.013v2.957h2.907V127.127z M152.669,127.127h3.198
		v-11.533h-3.198V127.127z M144.413,118.551h1.018c2.311,0,2.515,2.018,2.515,2.744c0,1.082-0.291,2.875-2.283,2.875h-1.25V118.551z
		 M141.214,127.127h4.623c3.619,0,5.306-2.246,5.306-5.783c0-2.908-1.221-5.75-4.681-5.75h-5.248V127.127z M130.835,127.127h8.751
		v-2.957h-5.553v-1.438h4.899v-2.746h-4.899v-1.436h5.393v-2.957h-8.591V127.127z M117.093,118.551h1.017
		c2.312,0,2.515,2.018,2.515,2.744c0,1.082-0.291,2.875-2.282,2.875h-1.25V118.551z M113.896,127.127h4.622
		c3.62,0,5.306-2.246,5.306-5.783c0-2.908-1.221-5.75-4.681-5.75h-5.247V127.127z M102.731,127.127h3.023v-6.299h0.03l3.183,6.299
		h3.111v-11.533h-3.024v6.17h-0.029l-3.023-6.17h-3.271V127.127z M91.131,127.127h3.213l0.465-1.648h3.3l0.436,1.648h3.314
		l-3.78-11.533h-3.125L91.131,127.127z M95.507,123.008l1.003-3.553h0.029l0.93,3.553H95.507z M82.773,127.127h7.791v-2.957h-4.593
		v-8.576h-3.198V127.127z M71.188,127.127H74.4l0.465-1.648h3.3l0.436,1.648h3.314l-3.779-11.533h-3.125L71.188,127.127z
		 M75.563,123.008l1.003-3.553h0.029l0.93,3.553H75.563z M61.753,127.127h8.751v-2.957h-5.553v-1.438h4.899v-2.746h-4.899v-1.436
		h5.393v-2.957h-8.591V127.127z M51.171,127.127h9.274v-2.957h-5.102l4.87-5.992v-2.584h-8.766v2.957h4.55l-4.826,5.797V127.127z
		 M45.292,115.594h-3.154l-1.294,7.221h-0.029l-1.221-7.221h-2.82l-1.25,7.123h-0.029l-1.265-7.123h-3.14l2.82,11.533h3.126
		l1.09-7.027h0.029l1.119,7.027h3.111L45.292,115.594z M21.643,127.127h8.751v-2.957H24.84v-1.438h4.899v-2.746H24.84v-1.436h5.393
		v-2.957h-8.591V127.127z M10.479,127.127h3.024v-6.299h0.029l3.183,6.299h3.111v-11.533h-3.024v6.17h-0.029l-3.023-6.17h-3.271
		V127.127z"/>
	<path clip-path="url(#SVGID_2_)" fill="#E31D3C" d="M239.945,25.594h3.748v-9.627h0.037l3.946,9.627h3.857V7.967h-3.749v9.431
		h-0.036L244,7.967h-4.055V25.594z M225.564,25.594h3.983l0.576-2.518h4.091l0.541,2.518h4.109l-4.686-17.626h-3.875L225.564,25.594
		z M230.988,19.299l1.244-5.432h0.036l1.153,5.432H230.988z M220.554,25.594h3.965V7.967h-3.965V25.594z M209.38,25.594h9.66v-4.518
		h-5.695V7.967h-3.965V25.594z M195.017,25.594H199l0.577-2.518h4.091l0.54,2.518h4.109l-4.685-17.626h-3.875L195.017,25.594z
		 M200.442,19.299l1.243-5.432h0.036l1.154,5.432H200.442z M186.259,12.164h1.856c1.514,0,1.964,0.642,1.964,1.753
		c0,1.58-1.009,1.753-1.748,1.753h-2.072V12.164z M182.294,25.594h3.965v-6.146h2.108c1.568,0,1.676,1.753,1.784,3.431
		c0.054,0.914,0.127,1.827,0.325,2.716h3.965c-0.361-0.814-0.379-2.913-0.433-3.776c-0.144-2.197-0.811-3.827-1.892-4.395
		c1.315-0.666,1.928-2.592,1.928-4.419c0-3.332-1.946-5.036-4.199-5.036h-7.551V25.594z M173.085,25.594h3.964V12.485h3.605V7.967
		H169.48v4.518h3.605V25.594z M157.063,19.669c0.036,5.629,4.199,6.345,5.659,6.345c2.866,0,5.947-1.481,5.947-6.072
		c0-3.235-1.802-4.396-3.622-5.086c-1.82-0.691-3.658-0.963-3.731-2.222c0-0.987,0.884-1.185,1.424-1.185
		c0.397,0,0.847,0.123,1.172,0.444c0.324,0.297,0.54,0.741,0.468,1.408h3.749c-0.108-4.296-2.577-5.753-5.371-5.753
		c-2.649,0-5.19,1.753-5.19,5.827c0,3.555,2.325,4.32,4.361,5.11c2.217,0.863,2.776,1.11,2.776,2.023c0,1.31-0.992,1.605-1.64,1.605
		c-0.739,0-1.604-0.222-1.893-1.284c-0.09-0.321-0.144-0.716-0.144-1.16H157.063z M155.694,7.967h-3.965v9.604
		c0,1.802,0,4.048-1.874,4.048c-1.929,0-1.929-2.246-1.929-4.048V7.967h-3.964V18.78c0,4.888,1.946,7.233,5.875,7.233
		c3.929,0,5.857-2.346,5.857-7.233V7.967z M130.373,25.594h3.983l0.577-2.518h4.091l0.541,2.518h4.109l-4.686-17.626h-3.875
		L130.373,25.594z M135.798,19.299l1.244-5.432h0.036l1.153,5.432H135.798z M111.876,25.594h10.849v-4.518h-6.884v-2.197h6.073
		v-4.197h-6.073v-2.197h6.686V7.967h-10.651V25.594z M98.017,25.594h3.965v-6.987h3.713v6.987h3.964V7.967h-3.964v6.123h-3.713
		V7.967h-3.965V25.594z M88.808,25.594h3.965V12.485h3.604V7.967H85.204v4.518h3.604V25.594z"/>
	<path clip-path="url(#SVGID_2_)" fill="#E31D3C" d="M95.453,57.754c-5.117,0-5.8,9.633-5.8,16.891c0,7.26,0.683,17.023,5.8,17.023
		s5.8-9.764,5.8-17.023C101.253,67.387,100.57,57.754,95.453,57.754 M95.453,110.672c-13.304,0-19.309-17.023-19.309-36.027
		c0-19.003,6.004-35.895,19.309-35.895c13.305,0,19.31,16.892,19.31,35.895C114.763,93.649,108.758,110.672,95.453,110.672"/>
	<path clip-path="url(#SVGID_2_)" fill="#E31D3C" d="M118.175,40.466h13.032v9.106h0.137c2.729-7.919,6.686-10.822,11.6-10.822
		c3.821,0,7.915,3.827,9.553,10.69c0.546-0.793,3.275-10.69,12.077-10.69c9.075,0,12.146,12.142,12.146,23.227v46.981h-13.51V71.874
		c0-6.467-0.341-12.272-4.435-12.272c-3.413,0-4.572,5.146-4.572,12.272v37.084h-13.509V71.874c0-6.467-0.342-12.272-4.437-12.272
		c-3.412,0-4.571,5.146-4.571,12.272v37.084h-13.509V40.466z"/>
	<path clip-path="url(#SVGID_2_)" fill="#E31D3C" d="M205.922,66.991c0-6.333-2.457-11.48-5.937-11.48
		c-4.025,0-6.346,4.09-6.961,11.48H205.922z M192.958,80.584c0.34,7.785,2.661,13.328,6.891,13.328c2.183,0,4.571-1.584,5.663-4.883
		h12.623c-2.729,14.781-10.166,21.643-18.218,21.643c-11.326,0-19.854-12.932-19.854-35.764c0-19.926,7.505-36.158,18.694-36.158
		c14.057,0,20.129,15.176,20.129,41.833H192.958z"/>
	<path clip-path="url(#SVGID_2_)" fill="#E31D3C" d="M223.069,40.466h13.033v8.71h0.136c2.524-6.862,6.14-10.426,11.531-10.426
		c6.346,0,12.146,7.523,12.146,23.227v46.981h-13.51V73.063c0-7.919-0.477-13.461-4.435-13.461c-2.32,0-5.39,2.242-5.39,13.196
		v36.16h-13.51V40.466z"/>
	<path clip-path="url(#SVGID_2_)" fill="#E31D3C" d="M264.342,7.9h13.919v14.827c0,8.878-2.208,17.094-8.164,19.832
		c-2.409,1.134-4.484,1.134-5.755,1.134v-8.217c3.279-0.378,5.755-4.345,5.956-8.877h-5.956V7.9z"/>
	<path clip-path="url(#SVGID_2_)" fill="#E31D3C" d="M298.632,60.393c-0.069-2.244-0.684-3.959-1.57-5.146
		c-0.819-1.319-1.911-1.979-3.003-1.979c-1.909,0-4.094,0.792-4.094,5.278c0,1.979,0.82,2.903,1.57,3.563
		c2.252,1.848,7.371,2.376,11.874,5.279c4.503,2.771,8.46,7.918,8.46,19.137c0,19.002-9.416,24.148-18.013,24.148
		c-8.325,0-17.468-6.467-17.672-24.148h12.896c0.067,2.373,0.614,4.354,1.637,6.068c0.682,1.188,1.979,1.98,3.616,1.98
		c1.774,0,4.574-1.32,4.574-5.279s-1.161-5.146-7.439-7.258C281.163,78.604,277,72.27,277,60.524
		c0-17.288,9.622-21.774,16.718-21.774c7.64,0,16.852,4.092,17.193,21.643H298.632z"/>
</g>
<polygon fill="#E31D3C" points="376.844,108.958 371.214,47.45 371.067,47.45 365.586,108.958 349.868,108.958 335.686,8 351.477,8 
	357.836,70.356 357.982,70.356 364.27,8 378.451,8 384.594,71.206 384.74,71.206 391.245,8 407.11,8 392.488,108.958 "/>
<g>
	<defs>
		<rect id="SVGID_3_" width="594" height="132.127"/>
	</defs>
	<clipPath id="SVGID_4_">
		<use xlink:href="#SVGID_3_"  overflow="visible"/>
	</clipPath>
	<path clip-path="url(#SVGID_4_)" fill="#E31D3C" d="M428.137,66.991c0-6.333-2.458-11.48-5.938-11.48
		c-4.023,0-6.344,4.09-6.959,11.48H428.137z M415.171,80.584c0.341,7.785,2.661,13.328,6.892,13.328
		c2.185,0,4.572-1.584,5.665-4.883h12.621c-2.729,14.781-10.166,21.643-18.218,21.643c-11.326,0-19.854-12.932-19.854-35.764
		c0-19.926,7.504-36.158,18.695-36.158c14.058,0,20.13,15.176,20.13,41.833H415.171z"/>
	<path clip-path="url(#SVGID_4_)" fill="#E31D3C" d="M469.484,66.991c0-6.333-2.457-11.48-5.937-11.48
		c-4.025,0-6.346,4.09-6.961,11.48H469.484z M456.519,80.584c0.343,7.785,2.663,13.328,6.892,13.328
		c2.185,0,4.573-1.584,5.664-4.883h12.624c-2.73,14.781-10.166,21.643-18.218,21.643c-11.327,0-19.855-12.932-19.855-35.764
		c0-19.926,7.504-36.158,18.694-36.158c14.057,0,20.128,15.176,20.128,41.833H456.519z"/>
</g>
<polygon fill="#E31D3C" points="509.126,108.958 501.895,84.147 499.505,89.163 499.505,108.958 485.997,108.958 485.997,14.732 
	499.505,14.732 499.505,60.262 508.104,40.465 523.389,40.465 510.763,66.333 525.365,108.958 "/>
<rect x="528.027" y="14.732" fill="#E31D3C" width="13.51" height="94.226"/>
<g>
	<defs>
		<rect id="SVGID_5_" width="594" height="132.127"/>
	</defs>
	<clipPath id="SVGID_6_">
		<use xlink:href="#SVGID_5_"  overflow="visible"/>
	</clipPath>
	<path clip-path="url(#SVGID_6_)" fill="#E31D3C" d="M573.265,103.678c-1.092,6.07-2.321,13.857-4.436,19.004
		c-3.549,8.578-9.008,8.445-14.261,8.445h-6.14v-20.85h3.138c1.365,0,3.138,0.262,4.093-0.66c0.82-0.793,1.298-2.113,1.298-5.146
		c0-3.301-5.187-28.506-5.938-32.465l-6.004-31.541h14.465l5.663,39.328h0.137l5.732-39.328h13.986L573.265,103.678z"/>
</g>
<polygon fill="#E31D3C" points="50.159,108.958 44.529,47.45 44.383,47.45 38.9,108.958 23.183,108.958 9,8 24.791,8 31.15,70.356 
	31.297,70.356 37.585,8 51.767,8 57.908,71.206 58.055,71.206 64.56,8 80.425,8 65.803,108.958 "/>
</svg>
