<?xml version="1.0" encoding="utf-8"?>
<!-- Generator: Adobe Illustrator 16.0.0, SVG Export Plug-In . SVG Version: 6.00 Build 0)  -->
<!DOCTYPE svg PUBLIC "-//W3C//DTD SVG 1.1//EN" "http://www.w3.org/Graphics/SVG/1.1/DTD/svg11.dtd">
<svg version="1.1" id="svg" xmlns="http://www.w3.org/2000/svg" xmlns:xlink="http://www.w3.org/1999/xlink" x="0px" y="0px"
	 width="404.001px" height="88.866px" viewBox="-4 -0.074 404.001 88.866" enable-background="new -4 -0.074 404.001 88.866"
	 xml:space="preserve">
<g id="svgg">
	<path id="path1" fill="#CC0033" d="M106.912,33.095c1.052,0.082,2.672,0.081,3.601-0.003c0.928-0.084,0.067-0.151-1.912-0.15
		C106.62,32.943,105.86,33.012,106.912,33.095 M202.313,33.095c1.163,0.081,2.963,0.081,4-0.002
		c1.038-0.082,0.087-0.148-2.113-0.147S201.151,33.014,202.313,33.095 M364.1,33.094c1.045,0.082,2.755,0.082,3.8,0
		s0.19-0.15-1.9-0.15C363.91,32.944,363.055,33.012,364.1,33.094 M390.112,33.095c1.052,0.082,2.672,0.081,3.601-0.003
		c0.928-0.084,0.067-0.151-1.912-0.15C389.82,32.943,389.06,33.012,390.112,33.095 M0,0"/>
	<path id="path2" fill="#FF00FF" d="M36.493,37.2c0,0.77,0.082,1.085,0.183,0.7c0.101-0.385,0.101-1.015,0-1.4
		S36.493,36.43,36.493,37.2"/>
	<path id="path3" fill="#FF00FF" d="M0,0"/>
	<path id="path5" fill="#DB0080" d="M107.7,33.891c0.825,0.087,2.175,0.087,3,0c0.825-0.086,0.15-0.157-1.5-0.157
		S106.875,33.805,107.7,33.891 M203.491,33.889c0.71,0.088,1.97,0.09,2.8,0.003s0.249-0.159-1.291-0.161
		S202.781,33.8,203.491,33.889 M364.714,33.895c1.163,0.081,2.963,0.081,4-0.002c1.038-0.082,0.087-0.148-2.113-0.147
		S363.552,33.814,364.714,33.895 M389.301,33.891c0.824,0.087,2.175,0.087,3,0c0.824-0.086,0.149-0.157-1.5-0.157
		C389.15,33.734,388.475,33.805,389.301,33.891 M287.911,62.693c0.94,0.085,2.38,0.084,3.2-0.002
		c0.819-0.086,0.049-0.155-1.711-0.154C287.64,62.539,286.97,62.609,287.911,62.693 M0,0"/>
	<path id="path7" fill="#EC008C" d="M0.03,2.1c0.016,1.155,0.291,5.25,0.612,9.1c0.319,3.85,0.837,10.15,1.147,14
		c0.312,3.85,0.656,7.99,0.767,9.2c0.109,1.21,0.488,5.53,0.843,9.6C5.461,67.754,5.941,72.87,6.16,73.44
		c0.28,0.729,15.784,0.797,16.701,0.073c0.58-0.458,1.836-4.02,2.579-7.313c0.148-0.66,0.409-1.38,0.579-1.6
		c0.17-0.22,0.436-1.075,0.59-1.9c0.154-0.825,0.439-1.5,0.636-1.5c0.195,0,0.325-0.135,0.288-0.3
		c-0.126-0.558,0.571-3.493,1.067-4.5c0.271-0.55,0.619-1.697,0.773-2.549s0.438-1.842,0.631-2.2s0.826-2.271,1.408-4.251
		c0.583-1.98,1.2-3.96,1.373-4.4c0.172-0.44,0.712-2.15,1.2-3.8c2.525-8.539,2.588-8.429,3.224,5.597
		c0.254,5.608,0.566,10.364,0.693,10.569c0.126,0.205,0.335,4.287,0.464,9.071c0.128,4.783,0.383,8.847,0.566,9.03
		c0.183,0.183,4.096,0.374,8.694,0.424l8.362,0.09l0.777-1.608c0.427-0.884,0.896-2.152,1.043-2.817
		c0.146-0.665,0.517-1.693,0.824-2.283c0.309-0.59,0.562-1.377,0.563-1.749c0.001-0.372,0.162-0.775,0.357-0.896
		c0.194-0.121,0.479-0.896,0.633-1.724c0.152-0.827,0.517-2.044,0.809-2.704c0.292-0.66,0.623-1.47,0.736-1.8
		c0.112-0.33,0.218-0.116,0.234,0.476c0.019,0.592,0.213,1.188,0.433,1.324c0.22,0.136,0.399,0.566,0.399,0.956
		c0,2.714,3.354,9.644,4.668,9.644c0.294,0,0.532,0.177,0.532,0.392c0,0.216,0.45,0.506,1,0.644s1,0.382,1,0.543
		c0,0.161,0.766,0.534,1.7,0.829s1.942,0.72,2.239,0.945c2.33,1.77,13.047-0.188,16.661-3.044c2.437-1.925,3.971-3.51,5.247-5.423
		c0.839-1.257,1.689-2.466,1.89-2.686c0.348-0.382,0.196,1.517-0.302,3.762c-1.551,6.995-1.332,7.227,6.765,7.226
		c7.219,0,6.443,0.776,7.387-7.388c0.255-2.2,0.714-5.71,1.021-7.8c0.307-2.09,0.681-5.56,0.831-7.711
		c0.149-2.151,0.428-4.006,0.618-4.123c0.188-0.117,0.344-0.736,0.344-1.376c0-3.039,6.136-6.036,8.395-4.101
		c0.81,0.692,1.143,3.245,0.505,3.874c-0.164,0.163-0.512,2.308-0.771,4.767c-0.259,2.458-0.769,6.36-1.133,8.67
		s-0.7,4.473-0.748,4.807c-0.047,0.334-0.194,0.784-0.326,1s-0.37,1.611-0.528,3.099s-0.446,2.803-0.641,2.923
		c-0.615,0.38-0.384,1.296,0.593,2.35c0.936,1.01,1.013,1.021,7.101,1.015c7.11-0.007,6.994,0.034,7.295-2.594
		c0.516-4.511,1.416-11.665,1.586-12.6c0.099-0.55,0.386-3.34,0.636-6.2c0.693-7.908,1.237-9.176,4.679-10.909
		c1.435-0.722,1.608-0.733,2.192-0.138c1.225,1.249,2.225,4.24,1.556,4.653c-0.18,0.111-0.455,1.416-0.611,2.898
		c-0.156,1.483-0.41,2.786-0.564,2.896s-0.481,1.55-0.726,3.2c-0.613,4.125-1.653,9.543-2.121,11.06
		c-0.214,0.692-0.501,2.447-0.637,3.9l-0.247,2.64h1.426c0.783,0,1.499,0.225,1.59,0.5c0.184,0.554,10.163,0.965,12.552,0.517
		c1.437-0.27,2.108-1.693,2.178-4.617c0.02-0.77,0.138-1.138,0.264-0.818c0.643,1.634,3.984,4.728,5.448,5.046
		c0.693,0.15,1.388,0.475,1.544,0.722c0.437,0.687,8.811,0.601,9.654-0.099c0.363-0.302,0.661-0.446,0.661-0.32
		c0,0.125,0.624-0.033,1.387-0.351c1.704-0.712,4.088-0.756,4.313-0.08c0.21,0.633,23.92,0.932,25.071,0.316
		c0.607-0.326,0.78-1.119,1.022-4.704c0.16-2.372,0.407-4.492,0.548-4.712c0.143-0.22,0.472-2.47,0.731-5
		c0.607-5.918,1.322-12.241,1.572-13.912c0.145-0.975,0.628-1.616,1.875-2.493c0.924-0.65,1.896-1.364,2.162-1.588
		c2.335-1.967,4.656,0.187,4.38,4.064c-0.385,5.362-1.194,12.126-1.477,12.329c-0.153,0.11-0.401,1.28-0.551,2.6
		c-0.15,1.32-0.445,2.85-0.656,3.4c-0.211,0.55-0.624,2.745-0.917,4.878l-0.532,3.877l1.022,0.823
		c0.927,0.746,1.567,0.822,6.902,0.822c6.854,0,7.044-0.047,7.379-1.837l0.255-1.36l1.479,1.172c0.814,0.644,2.01,1.298,2.656,1.453
		c0.647,0.155,1.429,0.482,1.738,0.727c1.104,0.875,9.928,0.528,12.616-0.497c5.761-2.194,9.785-6.192,10.457-10.385
		c0.147-0.93,0.426-1.787,0.617-1.905c1.064-0.659-0.123-7.548-1.652-9.585c-0.945-1.258-3.742-3.303-4.925-3.6
		c-0.592-0.148-1.075-0.419-1.075-0.602s-0.813-0.454-1.806-0.603c-0.992-0.149-1.896-0.419-2.009-0.601
		c-0.113-0.182-1.013-0.452-2-0.6c-4.509-0.676-4.811-4.977-0.349-4.977h1.714l0.254,1.9c0.14,1.045,0.326,2.125,0.412,2.4
		c0.179,0.568,1.624,0.68,1.951,0.152c0.118-0.191,2.063-0.473,4.322-0.626c2.261-0.152,4.804-0.458,5.652-0.679l1.542-0.401
		l-0.279-2.237c-0.153-1.231-0.417-2.524-0.584-2.873c-0.167-0.35-0.646-1.348-1.063-2.218c-1.202-2.505-3.609-4.718-6.551-6.023
		c-2.082-0.924-10.618-1.173-11.647-0.341c-0.308,0.249-1.146,0.579-1.861,0.732c-0.715,0.152-1.3,0.443-1.3,0.646
		c0,0.202-0.253,0.368-0.563,0.368c-0.311,0-1.559,0.81-2.773,1.8c-2.64,2.15-2.515,2.132-3.207,0.476
		c-0.304-0.729-1.329-1.989-2.276-2.8l-1.725-1.476h3.441h3.44l0.403-1.3c0.222-0.715,0.519-2.11,0.66-3.1
		c0.249-1.744,0.611-2.747,2.26-6.272c0.546-1.164,0.746-2.316,0.661-3.8L238.2,13l-5.854-0.11l-5.854-0.111l-0.215,1.311
		c-0.118,0.72-0.23,2.75-0.247,4.51c-0.018,1.76-0.145,4.771-0.283,6.69l-0.25,3.49l-2.813-0.115
		c-2.852-0.116-5.852,0.45-8.146,1.538c-0.693,0.328-1.382,0.597-1.528,0.597c-0.147,0-0.548,0.279-0.888,0.619
		c-0.768,0.768-1.224,0.424-0.536-0.404c1.302-1.569,0.38-1.815-6.784-1.815c-8.066,0-7.36-0.579-7.839,6.424l-0.313,4.576l-0.471-2
		c-1.828-7.765-11.345-11.607-22.382-9.038c-5.38,1.253-12.199,7.142-12.199,10.535c0,1.645-0.707,0.522-0.91-1.446
		c-0.734-7.109-7.04-10.989-15.021-9.242c-2.232,0.488-5.276,1.636-5.669,2.137c-0.109,0.14-0.74,0.525-1.399,0.854
		c-0.66,0.329-1.313,0.753-1.45,0.941c-0.137,0.189-0.897-0.261-1.688-0.999c-2.213-2.064-2.333-2.141-4.393-2.818
		c-3.54-1.163-9.166-0.513-12.944,1.496C115.856,31.826,116,31.841,116,30.4v-1.2h-6.958h-6.958l-0.251,1.7
		c-0.139,0.935-0.473,3.652-0.742,6.037c-0.413,3.659-1.091,5.51-1.091,2.983c0-2.494-4.849-8.402-8.098-9.864
		c-6.207-2.796-14.576-1.549-20.639,3.075c-1.242,0.948-1.347,0.972-0.944,0.22c0.249-0.465,0.339-0.959,0.2-1.098
		C70.38,32.114,70.456,32,70.688,32c0.231,0,0.543-0.81,0.69-1.8c0.149-0.99,0.419-1.8,0.602-1.8c0.182,0,0.457-0.675,0.61-1.5
		c0.154-0.825,0.417-1.68,0.583-1.9s0.536-1.3,0.823-2.4c0.286-1.1,0.674-2.171,0.862-2.38c0.188-0.209,0.342-0.659,0.343-1
		c0.002-0.341,0.255-1.103,0.563-1.693c0.308-0.59,0.687-1.67,0.843-2.4c0.157-0.73,0.426-1.507,0.599-1.727
		c0.173-0.22,0.521-1.21,0.774-2.2c0.252-0.99,0.563-2.07,0.69-2.4c0.8-2.062,2.929-8.244,2.929-8.504
		C81.6-0.529,64.215,0.169,64.085,1c-0.069,0.44-0.284,1.16-0.477,1.6c-0.396,0.899-1.834,5.765-2.248,7.6
		c-0.149,0.66-0.418,1.389-0.598,1.62c-0.181,0.231-0.448,1.176-0.597,2.1c-0.146,0.924-0.4,1.68-0.563,1.68s-0.492,0.855-0.732,1.9
		c-0.889,3.875-1.819,7.106-2.101,7.3c-0.16,0.11-0.419,1.057-0.576,2.105c-0.157,1.048-0.425,1.991-0.595,2.096
		c-0.17,0.106-0.543,1.363-0.827,2.795c-0.285,1.432-0.649,2.604-0.81,2.604c-0.161,0-0.413,0.72-0.562,1.6
		c-0.149,0.88-0.408,1.6-0.577,1.6s-0.488,0.585-0.709,1.3c-0.654,2.118-0.818,0.76-1.238-10.3c-0.218-5.72-0.487-11.57-0.601-13
		c-0.113-1.43-0.335-5.525-0.494-9.1L49.493,0h-9.318h-9.317l-0.494,2.3C30.09,3.565,29.734,4.78,29.57,5s-0.43,1.12-0.592,2
		c-0.161,0.88-0.403,1.69-0.536,1.8c-0.241,0.198-1.275,3.738-2.104,7.2c-0.236,0.99-0.572,1.98-0.748,2.2
		c-0.175,0.22-0.447,1.12-0.605,2c-0.159,0.88-0.425,1.78-0.593,2c-0.167,0.22-0.524,1.469-0.792,2.776
		c-0.269,1.307-0.636,2.657-0.816,3c-0.181,0.343-0.513,1.344-0.738,2.224c-0.225,0.88-0.704,2.59-1.063,3.8s-0.977,3.37-1.369,4.8
		l-0.715,2.6L18.742,36c-0.085-2.97-0.202-11.16-0.26-18.2C18.398,7.641,18.266,4.916,17.839,4.593
		c-0.296-0.224-0.668-1.349-0.825-2.5L16.725,0H8.362H0L0.03,2.1 M279.6,1.376c0,0.757-0.157,1.474-0.349,1.592
		c-0.19,0.118-0.471,2.063-0.622,4.323c-0.15,2.26-0.527,5.639-0.837,7.509c-0.309,1.87-0.685,5.245-0.835,7.5
		c-0.149,2.255-0.427,4.1-0.615,4.1s-0.31,0.135-0.269,0.3c0.167,0.678-0.588,8.746-0.871,9.3c-0.168,0.33-0.425,2.31-0.572,4.4
		c-0.146,2.09-0.353,4.34-0.459,5c-0.416,2.577-0.607,4.181-1.081,9c-0.27,2.75-0.608,5.18-0.752,5.4
		c-0.144,0.22-0.391,2.29-0.55,4.6c-0.158,2.31-0.417,4.38-0.574,4.6s-0.328,1.334-0.379,2.477l-0.093,2.076l1.457,0.273
		c4.486,0.842,32.037-0.374,33.181-1.464c0.209-0.199,0.658-0.368,1-0.376c0.341-0.007,1.34-0.361,2.22-0.786
		c0.88-0.425,1.749-0.779,1.932-0.786c0.315-0.013,3.948-2.325,5.668-3.606c0.44-0.328,2.071-1.888,3.626-3.466l2.825-2.869
		l-0.129,1.863c-0.145,2.095,0.524,5.142,1.339,6.095c0.296,0.348,0.539,0.777,0.539,0.953c0,0.695,3.053,3.146,5.163,4.145
		c3.009,1.425,8.583,1.494,12.223,0.151c2.671-0.985,4.464-1.13,4.713-0.38c0.182,0.545,11.138,0.978,12.988,0.514
		c1.04-0.261,1.077-2,0.122-5.687c-0.181-0.7-0.212-1.389-0.069-1.53c0.144-0.142,0.48-2.539,0.749-5.327
		c1.373-14.248,1.679-15.769,2.298-11.47c0.158,1.1,0.43,2.18,0.603,2.4c0.29,0.369,1.18,4.411,1.278,5.8
		c0.022,0.33,0.177,0.78,0.343,1c0.165,0.22,0.427,1.345,0.583,2.5c0.155,1.154,0.424,2.187,0.598,2.294
		c0.173,0.108,0.445,1.233,0.604,2.501s0.438,2.588,0.622,2.934c0.798,1.494-2.111,6.674-3.83,6.821
		c-0.725,0.062-1.01,0.141-1.837,0.509c-0.618,0.274-4.158-0.595-5.638-1.384c-0.854-0.456-1.512,0.596-1.512,2.419
		c0,0.685-0.249,1.732-0.553,2.326s-0.682,2.025-0.838,3.18s-0.447,2.2-0.646,2.323c-0.581,0.358-0.418,1.777,0.204,1.777
		c0.312,0,0.626,0.175,0.7,0.389c0.177,0.517,5.02,1.192,8.613,1.203c8.369,0.022,11.833-2.562,16.607-12.392
		c5.101-10.499,6.313-13.098,6.313-13.537c0-0.255,0.18-0.463,0.399-0.463c0.221,0,0.4-0.19,0.4-0.422c0-0.579,0.746-2.219,7-15.378
		c3.19-6.714,4.2-8.965,4.2-9.369c0-0.237,0.15-0.431,0.336-0.431c0.185,0,0.574-0.72,0.863-1.6c0.29-0.88,0.651-1.6,0.802-1.6
		c0.149,0,0.48-0.696,0.735-1.546c0.902-3.012,1.267-2.854-6.546-2.854h-7.008l-0.448,1.1c-1.287,3.162-1.619,3.968-1.936,4.7
		c-1.385,3.192-1.999,4.755-1.999,5.09c0,0.432-0.569,1.746-2.854,6.586c-0.85,1.802-1.546,3.478-1.546,3.724
		c0,1.749-0.787-0.586-1.014-3.008c-0.154-1.652-0.424-3.092-0.6-3.2c-0.176-0.109-0.445-1.546-0.6-3.195
		C374.832,39.349,374.57,38,374.405,38c-0.166,0-0.425-1.305-0.576-2.9c-0.151-1.595-0.452-3.579-0.67-4.409l-0.395-1.509
		l-7.282,0.109L358.2,29.4l0.075,1.1c0.092,1.335,0.083,1.336-1.804,0.145c-3.323-2.098-14.056-2.787-18.071-1.161
		c-0.33,0.134-0.764,0.205-0.963,0.158c-0.2-0.046-0.47,0.06-0.6,0.237c-0.132,0.176-1.112,0.771-2.181,1.321
		c-1.068,0.55-2.034,1.225-2.143,1.5c-0.459,1.151-0.821,0.358-0.731-1.6c0.145-3.138-0.506-10.383-0.974-10.851
		c-0.225-0.225-0.409-0.743-0.409-1.151c0-1.262-2.761-7.096-3.905-8.254c-0.303-0.306-0.836-0.992-1.184-1.524
		c-1.563-2.383-9.126-7.089-12.18-7.577c-0.843-0.135-1.531-0.379-1.531-0.542C311.6,0.489,303.657,0,292.073,0H279.6V1.376
		 M13.6,3.784c0,0.46-0.75,0.61-3.5,0.7L6.6,4.6l0.058,5.8c0.032,3.19,0.157,6.7,0.279,7.8c0.121,1.1,0.299,8.66,0.395,16.8
		c0.18,15.137-0.058,15.617-0.986,2c-0.256-3.74-0.584-6.89-0.732-7s-0.489-4.011-0.758-8.669c-0.27-4.658-0.586-8.888-0.705-9.4
		C3.933,10.996,3.748,9.194,3.468,5.3l-0.15-2.1h5.142C12.701,3.2,13.6,3.302,13.6,3.784 M46.4,3.8c0,0.5-0.8,0.6-4.8,0.6
		c-4.533,0-4.801,0.044-4.801,0.8c0,0.44-0.159,0.8-0.356,0.8c-0.196,0-0.472,0.495-0.613,1.1c-0.239,1.021-0.828,2.434-2.045,4.9
		c-0.271,0.55-0.618,1.585-0.771,2.3c-0.152,0.715-0.43,1.3-0.614,1.3c-0.186,0-0.458,0.552-0.606,1.227
		c-0.147,0.675-0.521,1.71-0.829,2.3c-0.308,0.59-0.561,1.226-0.563,1.413c-0.002,0.327-0.663,1.955-1.812,4.46
		C27.298,27.821,26,31.221,26,31.788c0,0.337-0.188,0.612-0.418,0.612c-0.455,0-0.108-2.703,0.435-3.4c0.172-0.22,0.441-1.12,0.6-2
		c0.159-0.88,0.424-1.78,0.59-2s0.497-1.21,0.736-2.2c0.503-2.084,1.824-6.723,2.164-7.6c0.128-0.33,0.598-1.86,1.043-3.4
		c0.446-1.54,1.198-4.105,1.67-5.7l0.859-2.9h6.36C45.427,3.2,46.4,3.292,46.4,3.8 M76.8,3.8c0,0.501-0.821,0.6-5,0.6
		c-4.178,0-5-0.099-5-0.6c0-0.501,0.822-0.6,5-0.6C75.978,3.2,76.8,3.299,76.8,3.8 M308.444,3.838
		c0.306,0.237,1.546,0.644,2.756,0.906c2.714,0.587,4.178,1.415,1.8,1.019c-0.88-0.147-1.852-0.469-2.16-0.715
		c-0.387-0.308-4.374-0.447-12.789-0.448h-12.229l-0.513,2.8c-0.283,1.54-0.581,3.25-0.663,3.8c-0.082,0.55-0.248,1.27-0.368,1.6
		c-0.121,0.33-0.403,1.77-0.627,3.2c-0.225,1.43-0.697,3.95-1.05,5.6c-0.782,3.649-2.077,10.403-2.725,14.2
		c-0.262,1.54-0.593,2.98-0.735,3.2c-0.144,0.22-0.391,1.48-0.55,2.8c-0.365,3.042-0.962,4.239-0.979,1.967
		c-0.007-0.899,0.113-1.759,0.266-1.912c0.349-0.348,0.379-0.562,0.947-6.655c0.256-2.75,0.539-5.45,0.628-6
		c0.089-0.55,0.426-3.25,0.75-6c1.479-12.555,2.116-17.566,2.441-19.145l0.193-0.945l12.525,0.149
		C303.447,3.356,308.086,3.561,308.444,3.838 M304.179,15.549c3.609,0.833,8.214,3.879,8.223,5.439
		c0.002,0.227,0.317,0.952,0.7,1.612c0.846,1.455,1.049,15.642,0.239,16.644c-0.247,0.306-0.666,1.861-0.932,3.456
		c-0.265,1.595-0.638,2.9-0.828,2.9c-0.189,0-0.464,0.63-0.607,1.4c-0.146,0.77-0.423,1.4-0.619,1.4
		c-0.195,0-0.355,0.184-0.355,0.409c0,0.746-2.136,3.768-3.843,5.438c-3.06,2.991-6.698,4.146-13.077,4.151l-3.12,0.002l0.133-1.9
		c0.073-1.045,0.242-2.08,0.375-2.3c0.134-0.22,0.366-2.29,0.519-4.6s0.445-4.74,0.651-5.4c0.205-0.66,0.563-3.09,0.794-5.4
		s0.483-4.74,0.562-5.4c0.079-0.66,0.345-3.36,0.591-6c0.246-2.64,0.604-5.34,0.796-6c0.193-0.66,0.472-2.427,0.62-3.927
		l0.271-2.728l3.465,0.173C300.641,15.014,303.092,15.297,304.179,15.549 M232.275,17.9c-0.272,2.276-0.418,2.97-0.74,3.5
		c-0.678,1.118-0.798,3.8-0.17,3.8c0.349,0,0.635,0.27,0.635,0.6c0,0.422-0.427,0.6-1.442,0.6c-1.151,0-1.395-0.128-1.2-0.633
		c0.134-0.348,0.243-2.688,0.243-5.2V16h1.45h1.451L232.275,17.9 M328.4,30.6c0,3.937-0.16,6.651-0.4,6.8
		c-0.22,0.136-0.405,0.642-0.413,1.124s-0.354,1.595-0.769,2.473c-0.436,0.922-0.611,1.77-0.414,2.007
		c0.348,0.419-0.721,5.022-1.253,5.4c-0.158,0.112-0.416,0.716-0.573,1.342c-0.383,1.524-2.686,5.888-3.678,6.967
		c-0.275,0.299-0.5,0.685-0.5,0.856c0,0.465-6.165,6.677-7.15,7.204c-1.275,0.683-1.057,0.34,1.287-2.021
		c3.554-3.579,7.863-9.999,7.863-11.714c0-0.351,0.166-0.638,0.368-0.638c0.203,0,0.494-0.585,0.646-1.3
		c0.153-0.715,0.416-1.48,0.585-1.7c0.511-0.665,2.504-9.27,3.197-13.8c0.186-1.21,0.353-3.966,0.37-6.124
		c0.022-2.505,0.179-3.834,0.434-3.676C328.24,23.949,328.4,26.663,328.4,30.6 M68.675,27.622c-0.495,1.418-1.009,2.758-1.141,2.978
		c-0.132,0.22-0.374,1.024-0.538,1.787c-0.164,0.763-0.454,1.663-0.644,2c-0.464,0.822-1.515,3.84-2.021,5.813
		c-0.227,0.88-0.664,2.167-0.971,2.86c-0.308,0.694-0.561,1.513-0.561,1.82c0,0.308-0.171,0.731-0.379,0.94
		c-0.209,0.209-0.646,1.37-0.975,2.58c-0.327,1.21-0.979,3.19-1.446,4.4c-1.319,3.409-2.8,7.962-2.8,8.612
		c0,0.324-0.18,0.588-0.4,0.588c-0.22,0-0.407,0.315-0.418,0.7c-0.009,0.385-0.289,1.42-0.622,2.3s-0.819,2.41-1.081,3.4L54.2,70.2
		l-2.1,0.121c-2.224,0.128-2.32,0.07-1.72-1.026c0.209-0.382,0.684-1.415,1.054-2.295c0.369-0.88,0.998-2.32,1.396-3.2
		c0.397-0.88,0.843-2.095,0.99-2.7c0.146-0.605,0.408-1.1,0.58-1.1s0.429-0.495,0.57-1.1s0.51-1.64,0.818-2.3
		c0.31-0.66,0.909-2.01,1.334-3c0.425-0.99,1.18-2.7,1.676-3.8c0.497-1.1,1.133-2.63,1.411-3.4c0.279-0.77,0.795-1.94,1.146-2.6
		c0.352-0.66,0.64-1.41,0.642-1.668c0.001-0.257,0.25-0.977,0.553-1.6c0.693-1.423,1.583-3.416,2.561-5.732
		C69.365,24.716,70.471,22.488,68.675,27.622 M89.551,32.706c0.138,0.212,0.65,0.511,1.14,0.664
		c2.336,0.729,5.154,4.617,6.446,8.892c0.851,2.82,1.231,9.237,0.586,9.883c-0.153,0.153-0.315,0.528-0.36,0.833
		c-0.774,5.272-3.765,11.075-7.159,13.888c-1.181,0.979-1.2,0.588-0.033-0.671c0.559-0.602,1.234-1.702,1.503-2.445
		c0.269-0.742,0.617-1.35,0.776-1.35c0.158,0,0.413-0.585,0.565-1.3s0.428-1.487,0.61-1.716c0.184-0.228,0.523-1.173,0.754-2.1
		c0.232-0.926,0.626-2.449,0.878-3.384c2.095-7.8-0.533-17.178-5.36-19.131c-0.713-0.288-1.424-0.714-1.581-0.946
		c-0.394-0.582-9.45-0.567-9.83,0.015C78.328,34.08,77.66,34.409,77,34.57c-0.66,0.161-1.516,0.577-1.901,0.925
		c-0.388,0.349-0.824,0.513-0.972,0.365c-0.507-0.507,2.622-2.371,5.873-3.498C81.292,31.913,89.226,32.199,89.551,32.706
		 M131.654,33.21c2.227,1.467,3.127,3.375,2.061,4.368c-0.811,0.757-0.826,0.75-1.767-0.695c-0.521-0.802-1.488-1.733-2.148-2.07
		c-0.659-0.337-1.327-0.793-1.484-1.013c-0.157-0.22-1.979-0.4-4.047-0.4c-2.951,0-3.619-0.099-3.104-0.461
		C123.011,31.647,129.536,31.815,131.654,33.21 M154.273,33.452c1.508,1.221,1.645,1.409,2.702,3.709
		c0.666,1.452,0.867,6.039,0.265,6.039c-0.198,0-0.369,0.585-0.38,1.3c-0.021,1.35-0.769,8.551-1.068,10.3
		c-0.095,0.55-0.374,3.25-0.62,6s-0.55,5.27-0.675,5.6c-0.366,0.965-0.394,1.129-0.447,2.6L154,70.4h-2.762h-2.762l0.216-1.7
		c0.119-0.935,0.352-1.88,0.517-2.1c0.166-0.22,0.428-1.39,0.58-2.6c0.153-1.21,0.523-3.19,0.821-4.4
		c0.299-1.21,0.668-3.329,0.819-4.709s0.419-2.597,0.592-2.704c0.174-0.108,0.443-1.409,0.601-2.891
		c0.156-1.483,0.467-2.813,0.69-2.956c0.223-0.143,0.424-1.97,0.446-4.061c0.06-5.411-2.2-8.005-7.818-8.975l-2.141-0.369l1.4-0.455
		C147.907,31.601,152.607,32.104,154.273,33.452 M188.392,33.449c3.843,2.017,4.625,3.689,4.53,9.683
		c-0.043,2.712-0.25,5.142-0.459,5.4c-0.21,0.257-0.511,2.448-0.67,4.868c-0.157,2.42-0.415,4.58-0.569,4.8
		c-0.156,0.22-0.326,1.136-0.379,2.036c-0.054,0.899-0.161,1.979-0.24,2.4c-0.079,0.42-0.158,2.339-0.174,4.264l-0.031,3.5H188
		H185.6v-2.176c0-1.197,0.155-2.273,0.347-2.391c0.191-0.119,0.475-1.338,0.63-2.71s0.399-2.681,0.541-2.909S187.432,59.44,187.5,59
		c0.15-0.977,0.686-3.806,1.476-7.8c0.325-1.65,0.6-3.664,0.608-4.476S189.78,45.136,190,45c0.221-0.136,0.4-1.216,0.4-2.4
		s-0.18-2.264-0.4-2.4c-0.22-0.136-0.4-0.642-0.4-1.124c-0.007-3.417-4.224-5.661-10.641-5.661c-3.056,0-4.694,0.161-5.026,0.493
		c-0.271,0.27-0.789,0.492-1.152,0.492c-0.841,0-4.272,1.804-5.58,2.933c-0.772,0.668-0.728,0.552,0.2-0.511
		c1.833-2.101,2.674-2.754,4.2-3.261c0.77-0.256,1.581-0.607,1.802-0.78C175.033,31.5,185.576,31.97,188.392,33.449 M226.444,33.155
		c3.09,2.13,3.328,3.922,2.183,16.445c-0.662,7.241-1.132,9.6-1.911,9.6c-0.241,0-0.282,1.261-0.109,3.339
		c0.442,5.312-0.281,7.861-2.232,7.861h-1.498l0.206-1.7c0.113-0.935,0.38-2.42,0.594-3.3s0.632-2.95,0.929-4.6
		c0.296-1.65,0.734-3.9,0.973-5c0.239-1.1,0.697-3.35,1.02-5c0.32-1.65,0.873-4.404,1.226-6.12
		c1.411-6.859-1.337-10.79-7.942-11.363c-4.332-0.376-2.288-1.31,2.564-1.172C224.478,32.202,225.4,32.435,226.444,33.155
		 M352.749,32.694c0.139,0.21,0.761,0.507,1.383,0.66c4.432,1.085,5.876,8.581,3.668,19.046c-0.116,0.55-0.405,3.34-0.643,6.2
		c-0.237,2.86-0.61,5.579-0.831,6.041c-0.219,0.463-0.318,1.948-0.221,3.3l0.178,2.459h-2.398h-2.399l0.263-3.1
		c0.145-1.705,0.528-4.09,0.853-5.3s0.707-3.33,0.851-4.711c0.145-1.381,0.406-2.601,0.582-2.709
		c0.177-0.109,0.444-1.454,0.596-2.989c0.151-1.535,0.387-2.791,0.523-2.792c0.771-0.002,0.915-10.444,0.148-10.699
		c-0.275-0.092-0.5-0.403-0.5-0.692c0-0.731-2.676-3.008-3.534-3.008c-0.388,0-0.93-0.224-1.205-0.499
		c-0.677-0.677-9.862-0.66-10.542,0.02c-0.263,0.263-0.761,0.479-1.105,0.479c-0.819,0-3.557,1.456-4.778,2.542
		c-0.53,0.472-0.809,0.588-0.617,0.258c0.191-0.33,0.715-0.914,1.165-1.299c2.202-1.883,2.769-2.301,3.118-2.301
		c0.208,0,0.944-0.26,1.639-0.577c0.693-0.317,1.71-0.665,2.26-0.772C342.893,31.92,352.482,32.287,352.749,32.694 M112,33.232
		c0,0.779-0.187,0.823-2.986,0.7c-3.235-0.143-3.552,0.055-3.942,2.468c-0.102,0.632-0.18,0.411-0.211-0.6
		c-0.102-3.294,0.017-3.4,3.787-3.4C111.776,32.4,112,32.456,112,33.232 M207.923,33.1c-0.111,0.578-0.624,0.713-2.93,0.776
		c-1.536,0.042-2.985,0.087-3.22,0.1c-0.234,0.013-0.661,1.203-0.947,2.643c-0.681,3.427-0.872,3.104-0.56-0.945l0.253-3.274h3.77
		C207.664,32.4,208.044,32.473,207.923,33.1 M250.767,33.224c2.49,0.947,3.771,1.865,5.09,3.654c1.122,1.52,0.896,2.08-0.25,0.622
		c-1.131-1.439-4.121-3.1-5.578-3.1c-0.676,0-1.229-0.199-1.229-0.442c0-0.788-7.95,0.382-10.08,1.484
		c-0.919,0.475-2.269,0.527-1.486,0.058C242.046,32.612,246.977,31.783,250.767,33.224 M369.767,32.643
		c1.986,0.762,0.527,1.357-3.324,1.357c-3.771,0-5.08-0.429-4.148-1.361C362.608,32.326,368.949,32.329,369.767,32.643
		 M395.044,33.033c-0.135,0.348-0.246,0.933-0.249,1.3c-0.006,0.545-0.071,0.564-0.362,0.104c-0.264-0.416-1.145-0.539-3.395-0.473
		c-1.671,0.048-3.038,0.001-3.038-0.105c0-1.235,0.597-1.459,3.887-1.459C394.822,32.4,395.253,32.486,395.044,33.033
		 M104.438,40.29c-0.36,0.617-0.415,0.571-0.426-0.357c-0.02-1.668,0.554-2.826,0.714-1.443
		C104.795,39.089,104.665,39.899,104.438,40.29 M85.471,41.7c4.218,4.687-0.043,21.5-5.45,21.5c-4.623,0-4.857-15.491-0.318-20.999
		C81.172,40.419,84.09,40.166,85.471,41.7 M180.982,41.818c1.358,1.36,1.327,2.432-0.082,2.702c-0.605,0.115-2.63,0.49-4.5,0.833
		c-1.87,0.342-4.12,0.89-5,1.217c-0.88,0.327-1.915,0.603-2.3,0.612c-0.386,0.01-0.7,0.198-0.7,0.418c0,0.22-0.255,0.4-0.567,0.4
		c-0.841,0-4.633,1.982-4.633,2.421c0,0.208-0.251,0.379-0.559,0.379s-1.117,0.636-1.801,1.414l-1.24,1.414v-2.19
		c0-1.205,0.144-2.28,0.319-2.389c0.177-0.109,0.359-0.974,0.407-1.923c0.191-3.83,0.325-4.038,2.413-3.736
		c1.149,0.166,2.424,0.716,3.337,1.44c1.737,1.377,1.671,1.365,2.563,0.473c0.541-0.541,1.219-0.668,3.012-0.565
		c2.256,0.13,2.322,0.105,2.584-1.002C174.947,40.735,178.803,39.639,180.982,41.818 M346.725,41.616
		c2.284,2.127,0.592,3.112-7.23,4.209c-1.048,0.147-1.993,0.411-2.102,0.586c-0.108,0.176-0.916,0.441-1.795,0.589
		c-0.879,0.149-1.599,0.434-1.599,0.635c0,0.201-0.226,0.365-0.503,0.365c-0.673,0-4.424,1.999-4.774,2.545
		c-0.153,0.237-0.404,0.306-0.558,0.153c-0.153-0.153-0.089-0.508,0.143-0.788c0.231-0.281,0.548-1.187,0.703-2.014
		c0.153-0.828,0.439-1.603,0.635-1.724C329.841,46.051,330,45.614,330,45.2c0-1.233,0.696-1.299,2.286-0.219
		c1.777,1.207,2.013,1.242,2.19,0.319c0.116-0.601,0.517-0.681,2.83-0.564c2.277,0.116,2.693,0.036,2.693-0.514
		c0-0.694,1.112-2.628,1.791-3.116C342.687,40.462,345.837,40.788,346.725,41.616 M48.293,46.1c-0.084,0.935-0.152,0.17-0.152-1.7
		s0.068-2.635,0.152-1.7S48.377,45.165,48.293,46.1 M134.14,44.073c-0.188,0.29-0.561,2.597-0.828,5.127
		c-0.27,2.53-0.77,6.94-1.111,9.8s-0.687,5.83-0.765,6.6c-0.444,4.355-0.641,4.8-2.107,4.8h-1.369l0.278-2.5
		c0.152-1.375,0.386-2.59,0.52-2.7c0.134-0.11,0.3-0.65,0.368-1.2c0.069-0.55,0.396-2.44,0.725-4.2c0.329-1.76,0.824-4.46,1.102-6
		c0.278-1.54,0.61-3.07,0.738-3.4c0.129-0.33,0.422-1.833,0.649-3.34c0.277-1.821,0.659-2.917,1.139-3.267
		C134.314,43.181,134.63,43.315,134.14,44.073 M389.588,45.1c-0.008,0.165-0.302,0.66-0.654,1.1
		c-0.563,0.703-0.61,0.711-0.387,0.067c0.14-0.403,0.254-0.898,0.254-1.1s0.18-0.367,0.399-0.367
		C389.421,44.8,389.594,44.935,389.588,45.1 M241.531,47.6c0.258,0,0.469,0.18,0.469,0.4c0,0.702-0.632,0.432-1.63-0.697
		c-0.704-0.796-0.742-0.906-0.139-0.4C240.689,47.286,241.274,47.6,241.531,47.6 M388.4,47.401c0,0.111-0.36,0.874-0.8,1.695
		c-0.44,0.82-0.8,1.72-0.8,1.998c0,0.278-0.181,0.506-0.4,0.506s-0.4,0.175-0.4,0.388c0,0.44-1.422,3.673-3.436,7.816
		c-0.75,1.541-1.364,3.026-1.364,3.3c0,0.273-0.166,0.496-0.368,0.496s-0.486,0.54-0.632,1.2c-0.145,0.66-0.429,1.2-0.632,1.2
		c-0.202,0-0.37,0.225-0.372,0.5s-0.446,1.4-0.986,2.5c-0.541,1.1-0.99,2.225-0.996,2.5c-0.008,0.275-0.18,0.5-0.382,0.5
		s-0.486,0.54-0.632,1.2c-0.145,0.66-0.4,1.2-0.567,1.2c-0.168,0-0.516,0.699-0.771,1.553c-0.255,0.853-0.733,1.775-1.063,2.049
		c-0.329,0.273-0.599,0.708-0.599,0.967c0,0.708-3.979,5.031-4.632,5.031c-0.312,0-0.568,0.159-0.568,0.354s-0.359,0.447-0.8,0.563
		c-1.124,0.294-0.988-0.161,0.364-1.23c1.214-0.957,5.194-6.63,6.094-8.686c0.289-0.66,0.619-1.29,0.734-1.4
		c0.114-0.11,1.753-3.26,3.642-7c5.727-11.338,6.918-13.594,7.249-13.733c0.174-0.074,0.317-0.31,0.317-0.524
		c0-0.648,2.177-5.113,2.5-5.129C388.265,47.206,388.4,47.291,388.4,47.401 M245,49.203c0.221,0.161,1.12,0.418,2,0.572
		c3.819,0.666,8.601,3.909,8.601,5.832c0,0.41,0.152,0.84,0.34,0.956c0.623,0.385-0.201,5.825-1.1,7.252
		c-0.426,0.677-0.453,0.592-0.2-0.615c0.465-2.218,0.542-5.564,0.133-5.817c-0.205-0.126-0.373-0.566-0.373-0.976
		c0-1.688-4.666-5.607-6.678-5.607c-0.508,0-0.923-0.164-0.923-0.365s-0.702-0.484-1.563-0.629s-1.896-0.524-2.3-0.841
		C242.128,48.331,244.123,48.561,245,49.203 M73.234,51.242c-0.353,0.881-0.385,0.891-0.409,0.125
		c-0.014-0.459,0.095-0.954,0.242-1.1C73.544,49.789,73.626,50.263,73.234,51.242 M73.565,61.23
		c0.259,1.006,1.011,2.422,1.672,3.147c1.38,1.51,1.321,1.86-0.195,1.169c-1.214-0.553-2.642-2.644-2.642-3.87
		c0-0.456-0.18-0.94-0.4-1.076c-0.536-0.331-0.52-4.6,0.019-4.6c0.229,0,0.388-0.225,0.352-0.5s-0.012-1.13,0.053-1.9
		s0.242,0.22,0.396,2.2S73.307,60.223,73.565,61.23 M8.364,57.521c0.092,3.976-0.185,3.587-0.513-0.721
		c-0.152-1.989-0.114-3.177,0.091-2.863C8.135,54.232,8.325,55.845,8.364,57.521 M234.631,55.6c0.313,0,0.569,0.149,0.569,0.331
		c0,0.183,1.845,0.836,4.1,1.453c6.788,1.856,8.277,3.122,6,5.1c-1.533,1.333-4.899,1.144-4.899-0.274c0-0.336-0.17-0.61-0.378-0.61
		s-0.434-0.842-0.5-1.872l-0.122-1.872l-2.623,0.097c-1.443,0.053-3.288,0.246-4.1,0.43l-1.478,0.333v-1.925
		c0-3.039,0.26-3.38,1.673-2.191C233.527,55.15,234.318,55.6,234.631,55.6 M179.331,57.1c-0.584,4.007-2.883,6.1-6.699,6.1
		c-4.067,0-2.189-5.293,2.266-6.385c0.937-0.229,2.152-0.578,2.703-0.774C179.402,55.399,179.564,55.499,179.331,57.1
		 M345.008,57.495c-0.157,1.042-0.532,2.373-0.835,2.959c-1.211,2.342-7.012,3.771-7.514,1.851
		c-0.703-2.691,2.451-5.905,5.796-5.905c0.604,0,1.209-0.18,1.346-0.4C344.567,54.759,345.284,55.646,345.008,57.495 M236.588,62.3
		c0.151,0.605,0.72,1.685,1.264,2.4c0.647,0.851,0.806,1.3,0.458,1.3c-1.367,0-4.17-3.142-3.76-4.214
		C234.944,60.759,236.288,61.098,236.588,62.3 M168.063,64.771c0.949,1.207,0.282,1.665-0.886,0.608
		c-0.809-0.731-0.992-1.988-0.478-3.246c0.244-0.596,0.325-0.513,0.434,0.448C167.208,63.23,167.626,64.216,168.063,64.771
		 M294.8,62.407c-3.413,0.536-8.8,0.483-8.801-0.087c0-0.409,1.133-0.485,5.3-0.358C295.253,62.083,296.143,62.196,294.8,62.407
		 M333.238,63.499c0.23,0.605,0.703,1.415,1.052,1.8c0.541,0.598,0.548,0.701,0.045,0.701c-0.811,0-2.335-1.83-2.335-2.803
		C332,62.038,332.753,62.221,333.238,63.499 M203.773,67.958c-0.152,1.343-0.434,2.442-0.625,2.442
		c-0.466,0-0.439-0.584,0.138-3.069C203.917,64.62,204.121,64.882,203.773,67.958 M107.822,69.021
		c-0.142,0.759-0.43,1.379-0.64,1.379c-0.503,0-0.491-0.686,0.018-1c0.22-0.136,0.414-0.822,0.432-1.524s0.125-1.041,0.24-0.755
		C107.987,67.408,107.965,68.263,107.822,69.021 M0,0"/>
	<path id="path9" fill="#FF0080" d="M106.912,32.695c1.052,0.082,2.672,0.081,3.601-0.003c0.928-0.084,0.067-0.151-1.912-0.15
		C106.62,32.543,105.86,32.612,106.912,32.695 M202.313,32.695c1.163,0.081,2.963,0.081,4-0.002
		c1.038-0.082,0.087-0.148-2.113-0.147S201.151,32.614,202.313,32.695 M364.1,32.694c1.045,0.082,2.755,0.082,3.8,0
		s0.19-0.15-1.9-0.15C363.91,32.544,363.055,32.612,364.1,32.694 M390.112,32.695c1.052,0.082,2.672,0.081,3.601-0.003
		c0.928-0.084,0.067-0.151-1.912-0.15C389.82,32.543,389.06,32.612,390.112,32.695 M0,0"/>
</g>
</svg>
