<?xml version="1.0" encoding="utf-8"?>
<!-- Generator: Adobe Illustrator 16.0.0, SVG Export Plug-In . SVG Version: 6.00 Build 0)  -->
<!DOCTYPE svg PUBLIC "-//W3C//DTD SVG 1.1//EN" "http://www.w3.org/Graphics/SVG/1.1/DTD/svg11.dtd">
<svg version="1.1" id="Layer_1" xmlns="http://www.w3.org/2000/svg" xmlns:xlink="http://www.w3.org/1999/xlink" x="0px" y="0px"
	 width="557.369px" height="114.747px" viewBox="0 0 557.369 114.747" enable-background="new 0 0 557.369 114.747"
	 xml:space="preserve">
<g>
	<defs>
		<rect id="SVGID_1_" y="3.53" width="557.369" height="111.217"/>
	</defs>
	<clipPath id="SVGID_2_">
		<use xlink:href="#SVGID_1_"  overflow="visible"/>
	</clipPath>
	<path clip-path="url(#SVGID_2_)" fill="#20C4F4" d="M524.046,114.747h14.377l18.945-81.559h-13.213l-7.385,41.6h-0.193l-6.994-41.6
		h-13.602l13.311,59.647L524.046,114.747z M503.82,92.366h13.697V7.759H503.82V92.366z M477.873,92.366V60.139h0.193l12.727,32.227
		h15.447l-15.447-32.813l13.891-26.366h-14.279l-12.338,24.961h-0.193V7.759h-13.699v84.606H477.873z M464.125,65.413
		c0.486-18.983-1.553-33.397-20.012-33.397c-18.07,0-20.014,13.829-20.014,29.999c0,18.516,2.332,31.523,20.014,31.523
		c6.41,0,11.27-2.109,14.475-5.742c3.303-3.633,5.051-8.908,5.246-15.35h-13.893c0,4.92-0.971,10.545-5.828,10.545
		c-6.023,0-6.219-10.545-6.219-17.578H464.125z M437.894,56.157c0-5.039-0.096-13.945,6.219-13.945
		c6.508,0,6.314,8.203,6.314,13.945H437.894z M424.585,65.413c0.486-18.983-1.555-33.397-20.014-33.397
		c-18.068,0-20.012,13.829-20.012,29.999c0,18.516,2.332,31.523,20.012,31.523c6.412,0,11.27-2.109,14.477-5.742
		c3.303-3.633,5.051-8.908,5.246-15.35h-13.893c0,4.92-0.971,10.545-5.83,10.545c-6.021,0-6.217-10.545-6.217-17.578H424.585z
		 M398.355,56.157c0-5.039-0.096-13.945,6.217-13.945c6.51,0,6.316,8.203,6.316,13.945H398.355z M320.308,92.366h16.729
		l12.75-64.967h0.203l11.527,64.967h17.035L394.875,3.53h-15.098l-9.182,62.381h-0.203L359.376,3.53h-18.158l-11.629,62.381h-0.203
		L319.798,3.53h-15.813L320.308,92.366z M264.886,73.381c-0.777,16.523,7.189,20.156,19.139,20.156
		c11.365,0,18.361-7.734,18.361-18.047c0-18.984-24.094-18.516-24.094-27.889c0-3.984,1.652-6.328,4.664-6.328
		c1.457,0,2.623,0.234,3.496,1.289c0.973,1.054,1.359,3.515,1.359,7.617h13.408c0.777-12.773-7.676-18.165-17.002-18.165
		c-8.84,0-19.332,3.868-19.332,16.642c0,18.865,24.092,16.053,24.092,28.592c0,3.984-2.33,6.094-5.051,6.094
		s-4.178-0.938-4.955-2.813c-0.68-1.875-0.775-4.453-0.68-7.148H264.886z M255.347,31.845h9.326l7.094-23.084h-13.02L255.347,31.845
		z M236.238,33.188h-13.697v59.178h13.697V51.586c0-5.274,0.777-9.375,5.15-9.375c4.371,0,5.148,4.101,5.148,9.375v40.779h13.697
		V44.906c0-8.203-5.73-12.891-12.24-12.891c-2.527,0-4.76,0.469-6.703,1.641c-1.846,1.055-3.498,2.813-4.859,5.51h-0.193V33.188z
		 M219.947,51.821c0-10.781-2.234-19.806-19.625-19.806c-5.246,0-9.713,1.055-12.822,3.868c-3.205,2.697-5.053,7.265-5.053,14.414
		h13.408c0-4.688,0.387-9.023,5.148-9.023c4.955,0,5.537,3.632,5.537,8.672v4.57c-12.727-0.234-25.26,0.586-25.26,20.154
		c0,10.313,3.498,18.867,13.02,18.867c5.926,0,9.908-2.93,12.824-9.023h0.193l0.582,7.852h12.727
		c-0.291-3.633-0.68-7.383-0.68-11.016V51.821z M206.541,63.772c0,6.445,1.264,19.57-6.801,19.57c-4.469,0-5.051-5.158-5.051-9.375
		C194.689,63.42,199.74,64.124,206.541,63.772 M134.167,33.188h-13.698v59.178h13.698V51.586c0-5.274,0.777-9.375,5.149-9.375
		c4.371,0,5.149,4.101,5.149,9.375v40.779h13.408V51.586c0-5.274,0.775-9.375,5.148-9.375s5.148,4.101,5.148,9.375v40.779h13.697
		V44.906c0-8.203-5.732-12.891-12.24-12.891c-5.635,0-9.52,2.344-12.727,7.501c-2.234-4.688-6.121-7.501-10.978-7.501
		c-5.149,0-8.841,1.875-11.561,7.151h-0.194V33.188z M100.622,93.538c17.681,0,20.012-13.008,20.012-31.523
		c0-16.17-1.943-29.999-20.012-29.999c-18.07,0-20.013,13.829-20.013,29.999C80.609,80.53,82.941,93.538,100.622,93.538
		 M100.622,82.991c-5.052,0-6.315-3.867-6.315-21.914c0-12.301,0.486-18.514,6.315-18.514c5.829,0,6.314,6.213,6.314,18.514
		C106.936,79.124,105.673,82.991,100.622,82.991 M16.321,92.366H33.05l12.751-64.967h0.204l11.526,64.967h17.035L90.887,3.53H75.79
		l-9.18,62.381h-0.204L55.389,3.53H37.232L25.604,65.911h-0.205L15.811,3.53H0L16.321,92.366z"/>
	<path clip-path="url(#SVGID_2_)" fill="#20C4F4" d="M240.003,11.841h0.518c0.848,0,1.346,0.322,1.68,0.875
		c0.35,0.57,0.461,1.542,0.461,2.874c0,1.331-0.111,2.302-0.461,2.873c-0.334,0.553-0.832,0.875-1.68,0.875h-0.518V11.841z
		 M234.835,22.459h6.57c4.098,0,6.721-2.568,6.721-6.718c0-4.072-1.699-7.021-7.033-7.021h-6.258V22.459z M219.367,22.459h4.283
		v-8.374h0.037l2.824,8.374h6.33V8.72h-4.283v8.315h-0.035l-2.826-8.315h-6.33V22.459z M203.251,22.459h5.055l0.537-2.207h3.82
		l0.516,2.207h5.465L214.363,8.72h-6.848L203.251,22.459z M209.636,16.903l1.162-5.176h0.037l1.053,5.176H209.636z M192.769,22.459
		h10.133v-3.691h-4.854V8.72h-5.279V22.459z M176.652,22.459h5.057l0.535-2.207h3.82l0.518,2.207h5.463L187.763,8.72h-6.848
		L176.652,22.459z M183.037,16.903l1.164-5.176h0.037l1.053,5.176H183.037z M165.902,22.459h10.299v-3.576h-5.24V17.34h4.688v-3.577
		h-4.688v-1.465h5.074V8.72h-10.133V22.459z M152.589,22.459h11.793v-3.576h-5.686l5.557-6.815V8.72h-11.498v3.578h5.406
		l-5.572,6.812V22.459z M129.128,22.459h5.722l1.236-8.906h0.037l1.237,8.906h5.722l2.879-13.739h-4.725l-1.126,8.639h-0.037
		l-1.236-8.639h-5.464l-1.237,8.639h-0.037l-1.126-8.639h-4.725L129.128,22.459z M114.225,22.459h10.299v-3.576h-5.242V17.34h4.689
		v-3.577h-4.689v-1.465h5.076V8.72h-10.133V22.459z M98.757,22.459h4.282v-8.374h0.037l2.824,8.374h6.331V8.72h-4.282v8.315h-0.037
		l-2.824-8.315h-6.331V22.459z"/>
</g>
</svg>
