<?xml version="1.0" encoding="utf-8"?>
<!-- Generator: Adobe Illustrator 16.0.0, SVG Export Plug-In . SVG Version: 6.00 Build 0)  -->
<!DOCTYPE svg PUBLIC "-//W3C//DTD SVG 1.1//EN" "http://www.w3.org/Graphics/SVG/1.1/DTD/svg11.dtd">
<svg version="1.1" id="Layer_1" xmlns="http://www.w3.org/2000/svg" xmlns:xlink="http://www.w3.org/1999/xlink" x="0px" y="0px"
	 width="579.259px" height="113.636px" viewBox="13.5 311 579.259 113.636" enable-background="new 13.5 311 579.259 113.636"
	 xml:space="preserve">
<g>
	<path fill="#C4007A" d="M39.929,401.768h17.093l13.029-66.377h0.208l11.778,66.377h17.406L116.119,311h-15.425l-9.381,63.739
		h-0.208L79.848,311H61.296l-11.882,63.739h-0.208L39.408,311H23.253L39.929,401.768L39.929,401.768z M126.066,392.19
		c-5.162,0-6.453-3.952-6.453-22.39c0-12.572,0.497-18.917,6.453-18.917c5.955,0,6.452,6.346,6.452,18.917
		C132.519,388.238,131.228,392.19,126.066,392.19L126.066,392.19z M126.066,402.965c18.065,0,20.448-13.289,20.448-32.208
		c0-16.523-1.985-30.651-20.448-30.651s-20.448,14.128-20.448,30.651C105.618,389.676,108,402.965,126.066,402.965L126.066,402.965z
		 M160.342,341.304h-13.996v60.463h13.996v-41.667c0-5.387,0.794-9.578,5.261-9.578s5.261,4.19,5.261,9.578v41.667h13.699v-41.667
		c0-5.387,0.794-9.578,5.261-9.578c4.467,0,5.261,4.19,5.261,9.578v41.667h13.997v-48.49c0-8.382-5.857-13.171-12.507-13.171
		c-5.757,0-9.728,2.395-13.004,7.663c-2.283-4.79-6.253-7.663-11.216-7.663c-5.262,0-9.033,1.916-11.813,7.304h-0.199
		L160.342,341.304L160.342,341.304z M234.292,372.553c0,6.586,1.291,19.995-6.948,19.995c-4.566,0-5.162-5.267-5.162-9.578
		C222.182,372.194,227.344,372.913,234.292,372.553L234.292,372.553z M247.991,360.341c0-11.016-2.284-20.234-20.052-20.234
		c-5.36,0-9.925,1.078-13.103,3.951c-3.277,2.754-5.162,7.423-5.162,14.727h13.699c0-4.79,0.397-9.22,5.26-9.22
		c5.064,0,5.658,3.712,5.658,8.86v4.67c-13.003-0.239-25.809,0.598-25.809,20.593c0,10.536,3.574,19.276,13.301,19.276
		c6.056,0,10.126-2.992,13.104-9.219h0.198l0.596,8.021h13.004c-0.298-3.711-0.695-7.542-0.695-11.254v-30.171H247.991z
		 M264.638,341.304H250.64v60.463h13.998v-41.667c0-5.387,0.794-9.578,5.26-9.578c4.466,0,5.261,4.19,5.261,9.578v41.667h13.996
		v-48.49c0-8.382-5.857-13.171-12.507-13.171c-2.581,0-4.864,0.479-6.85,1.676c-1.886,1.078-3.573,2.875-4.963,5.628h-0.198
		L264.638,341.304L264.638,341.304z M284.162,339.932h9.529l7.246-23.587h-13.301L284.162,339.932L284.162,339.932z
		 M293.909,382.372c-0.794,16.882,7.345,20.593,19.555,20.593c11.614,0,18.761-7.901,18.761-18.438
		c0-19.397-24.617-18.918-24.617-28.496c0-4.071,1.688-6.466,4.765-6.466c1.49,0,2.68,0.24,3.573,1.317
		c0.992,1.078,1.39,3.592,1.39,7.783h13.699c0.794-13.051-7.842-18.559-17.371-18.559c-9.033,0-19.753,3.951-19.753,17.001
		c0,19.277,24.617,16.404,24.617,29.214c0,4.071-2.381,6.226-5.161,6.226c-2.778,0-4.27-0.957-5.063-2.872
		c-0.695-1.917-0.795-4.551-0.695-7.304L293.909,382.372L293.909,382.372z M350.536,401.768h17.094l13.028-66.377h0.209
		l11.777,66.377h17.405L426.727,311h-15.425l-9.381,63.739h-0.208L390.456,311h-18.553l-11.882,63.739h-0.21L350.017,311H333.86
		L350.536,401.768L350.536,401.768z M430.285,364.771c0-5.148-0.101-14.247,6.354-14.247c6.65,0,6.451,8.381,6.451,14.247H430.285
		L430.285,364.771z M457.086,374.23c0.496-19.396-1.588-34.124-20.447-34.124c-18.464,0-20.448,14.128-20.448,30.651
		c0,18.918,2.382,32.208,20.448,32.208c6.551,0,11.515-2.154,14.79-5.866c3.374-3.711,5.16-9.1,5.358-15.686h-14.193
		c0,5.029-0.993,10.777-5.955,10.777c-6.155,0-6.354-10.777-6.354-17.96H457.086L457.086,374.23z M470.685,364.771
		c0-5.148-0.099-14.247,6.354-14.247c6.65,0,6.452,8.381,6.452,14.247H470.685L470.685,364.771z M497.487,374.23
		c0.495-19.396-1.589-34.124-20.448-34.124c-18.464,0-20.45,14.128-20.45,30.651c0,18.918,2.384,32.208,20.45,32.208
		c6.551,0,11.514-2.154,14.789-5.866c3.376-3.711,5.162-9.1,5.359-15.686h-14.192c0,5.029-0.994,10.777-5.956,10.777
		c-6.155,0-6.354-10.777-6.354-17.96H497.487L497.487,374.23z M511.532,401.768v-32.926h0.199l13.003,32.926h15.781l-15.781-33.524
		l14.193-26.939h-14.592l-12.604,25.503h-0.199v-51.484h-13.996v86.444H511.532L511.532,401.768z M538.046,315.322v86.445h13.996
		v-86.445H538.046L538.046,315.322z M558.713,424.636h14.69l19.355-83.332H579.26l-7.545,42.505h-0.198l-7.146-42.505h-13.898
		l13.601,60.942L558.713,424.636L558.713,424.636z"/>
	<path fill="#C4007A" d="M124.161,330.342h4.375v-8.555h0.038l2.885,8.555h6.469v-14.038h-4.375v8.496h-0.038l-2.886-8.496h-6.468
		V330.342L124.161,330.342z M139.965,330.342h10.524v-3.656h-5.356v-1.575h4.79v-3.655h-4.79v-1.497h5.187v-3.655h-10.355V330.342
		L139.965,330.342z M155.192,330.342h5.847l1.264-9.1h0.037l1.264,9.1h5.847l2.941-14.038h-4.828l-1.151,8.827h-0.038l-1.264-8.827
		h-5.582l-1.264,8.827h-0.038l-1.15-8.827h-4.828L155.192,330.342L155.192,330.342z M179.163,330.342h12.052v-3.656h-5.809
		l5.677-6.96v-3.422h-11.75v3.655h5.526l-5.696,6.96V330.342L179.163,330.342z M192.768,330.342h10.524v-3.656h-5.356v-1.575h4.791
		v-3.655h-4.791v-1.497h5.186v-3.655h-10.354V330.342L192.768,330.342z M210.277,324.665l1.188-5.289h0.038l1.075,5.289H210.277
		L210.277,324.665z M203.751,330.342h5.167l0.547-2.255h3.904l0.529,2.255h5.582l-4.375-14.038h-6.998L203.751,330.342
		L203.751,330.342z M220.22,330.342h10.354v-3.772h-4.96v-10.266h-5.394V330.342L220.22,330.342z M237.456,324.665l1.188-5.289
		h0.038l1.075,5.289H237.456L237.456,324.665z M230.93,330.342h5.167l0.548-2.255h3.903l0.528,2.255h5.583l-4.376-14.038h-6.998
		L230.93,330.342L230.93,330.342z M247.398,330.342h4.375v-8.555h0.038l2.886,8.555h6.469v-14.038h-4.375v8.496h-0.037l-2.887-8.496
		h-6.469V330.342L247.398,330.342z M263.203,330.342h6.714c4.188,0,6.865-2.625,6.865-6.864c0-4.161-1.734-7.174-7.186-7.174h-6.394
		L263.203,330.342L263.203,330.342z M268.484,319.492h0.527c0.868,0,1.376,0.331,1.717,0.894c0.359,0.583,0.472,1.576,0.472,2.936
		c0,1.361-0.113,2.354-0.472,2.936c-0.34,0.564-0.849,0.895-1.717,0.895h-0.527V319.492L268.484,319.492z"/>
</g>
</svg>
