<?xml version="1.0" encoding="UTF-8"?>
<svg width="427px" height="231px" viewBox="0 0 427 231" version="1.1" xmlns="http://www.w3.org/2000/svg" xmlns:xlink="http://www.w3.org/1999/xlink">
    <!-- Generator: Sketch 52.6 (67491) - http://www.bohemiancoding.com/sketch -->
    <title>SIMPLY-logo</title>
    <desc>Created with Sketch.</desc>
    <g id="Page-1" stroke="none" stroke-width="1" fill="none" fill-rule="evenodd">
        <g id="SIMPLY-logo" transform="translate(-16.000000, -159.000000)">
            <rect id="Rectangle" x="0.601" y="0.965" width="473.764" height="438.232"></rect>
            <g id="Group" transform="translate(16.000000, 159.000000)" fill="#000000" fill-rule="nonzero">
                <path d="M300.949,166.619 C300.949,194.369 308.172,207.674 317.484,216.605 C330.978,229.339 350.173,230.099 356.636,230.099 C367.849,230.099 382.103,228.199 395.786,216.035 C410.991,202.541 413.272,179.734 413.272,159.207 L413.272,138.871 C413.272,109.223 413.272,103.899 413.653,97.817 C414.032,91.165 415.551,88.124 420.684,86.984 C422.965,86.604 424.106,86.414 425.436,86.414 C426.196,86.414 426.957,86.034 426.957,85.273 C426.957,84.133 426.006,83.753 423.916,83.753 C418.213,83.753 409.281,84.322 407.949,84.322 C406.808,84.322 396.355,83.753 387.803,83.753 C385.713,83.753 384.762,84.133 384.762,85.273 C384.762,86.034 385.524,86.414 386.283,86.414 C387.994,86.414 391.224,86.604 392.744,86.984 C399.015,88.314 400.537,91.355 400.918,97.817 C401.299,103.899 401.299,109.221 401.299,138.871 L401.299,162.629 C401.299,182.205 399.018,198.359 390.276,209.193 C383.432,217.365 372.03,222.879 360.436,222.879 C349.604,222.879 341.049,221.166 331.737,212.426 C323.565,204.633 317.483,192.848 317.483,165.481 L317.483,138.872 C317.483,109.224 317.483,103.9 317.864,97.818 C318.243,91.166 319.762,87.745 324.895,86.985 C327.176,86.605 328.317,86.415 329.647,86.415 C330.407,86.415 331.167,86.035 331.167,85.274 C331.167,84.134 330.216,83.754 328.126,83.754 C322.425,83.754 311.021,84.323 309.312,84.323 C307.599,84.323 296.007,83.754 287.455,83.754 C285.363,83.754 284.414,84.134 284.414,85.274 C284.414,86.035 285.174,86.415 285.935,86.415 C287.646,86.415 290.876,86.605 292.396,86.985 C298.667,88.315 300.189,91.356 300.57,97.818 C300.949,103.9 300.949,109.222 300.949,138.872 L300.949,166.619 Z M143.858,150.083 C143.858,108.462 167.615,87.555 199.355,87.555 C229.384,87.555 257.134,112.074 257.134,157.687 C257.134,212.996 221.782,222.878 204.676,222.878 C170.466,222.878 143.858,194.369 143.858,150.083 Z M125.803,155.406 C125.803,189.617 147.47,230.099 199.546,230.099 C245.351,230.099 275.38,194.937 275.38,152.365 C275.38,108.082 243.448,81.093 200.687,81.093 C148.229,81.093 125.803,124.617 125.803,155.406 Z M61.27,194.558 C61.27,197.599 61.27,205.581 60.7,213.566 C60.32,219.078 58.609,223.257 54.808,224.017 C53.097,224.398 50.817,224.779 49.106,224.779 C47.966,224.779 47.586,225.349 47.586,225.92 C47.586,227.061 48.536,227.441 50.627,227.441 C56.328,227.441 68.302,226.871 69.253,226.871 C70.203,226.871 82.177,227.441 92.63,227.441 C94.721,227.441 95.671,226.871 95.671,225.92 C95.671,225.35 95.291,224.779 94.15,224.779 C92.44,224.779 88.259,224.398 85.598,224.017 C79.896,223.257 78.185,219.078 77.805,213.566 C77.235,205.582 77.235,197.599 77.235,194.558 L77.235,178.214 C77.235,171.943 77.235,166.05 80.086,159.206 C83.507,151.034 110.115,106.37 116.387,98.768 C120.569,93.636 122.659,91.355 126.461,89.075 C129.502,87.175 133.113,86.414 135.203,86.414 C136.724,86.414 137.674,85.845 137.674,84.893 C137.674,84.133 136.534,83.753 135.203,83.753 C131.592,83.753 117.908,84.322 116.768,84.322 C115.247,84.322 109.165,83.753 104.224,83.753 C102.323,83.753 101.183,84.133 101.183,84.893 C101.183,85.844 102.323,86.224 104.034,86.794 C106.314,87.363 107.075,89.454 107.075,92.115 C107.075,94.586 106.314,97.816 103.843,101.808 C100.042,108.079 75.905,149.704 72.293,157.684 C68.872,152.174 40.363,103.138 37.322,97.626 C35.802,94.774 34.852,92.494 34.852,90.214 C34.852,88.693 35.802,87.553 37.322,86.793 C39.033,86.032 40.173,85.843 40.173,85.081 C40.173,84.321 39.793,83.752 37.703,83.752 C30.29,83.752 23.068,84.321 21.737,84.321 C20.787,84.321 6.533,83.752 2.922,83.752 C1.211,83.752 0.451,84.321 0.451,85.081 C0.451,86.032 1.401,86.412 2.351,86.412 C4.062,86.412 7.673,87.553 10.524,89.453 C13.945,91.733 18.697,96.485 23.448,103.517 C30.1,113.4 55.568,155.213 56.899,158.254 C59.369,163.766 61.27,167.947 61.27,178.211 L61.27,194.558 Z" id="Shape"></path>
                <path d="M399.691,34.939 C399.691,35.864 399.691,38.292 399.515,40.719 C399.402,42.396 398.88,43.666 397.724,43.898 C397.204,44.014 396.511,44.13 395.992,44.13 C395.644,44.13 395.529,44.303 395.529,44.476 C395.529,44.823 395.818,44.939 396.455,44.939 C398.187,44.939 401.83,44.765 402.119,44.765 C402.408,44.765 406.049,44.939 409.226,44.939 C409.865,44.939 410.152,44.765 410.152,44.476 C410.152,44.303 410.037,44.13 409.689,44.13 C409.169,44.13 407.898,44.014 407.087,43.898 C405.353,43.667 404.833,42.396 404.718,40.719 C404.544,38.291 404.544,35.864 404.544,34.939 L404.544,29.968 C404.544,28.061 404.544,26.269 405.411,24.188 C406.452,21.703 414.544,8.119 416.452,5.807 C417.722,4.246 418.358,3.553 419.515,2.859 C420.439,2.281 421.538,2.05 422.173,2.05 C422.636,2.05 422.925,1.877 422.925,1.588 C422.925,1.356 422.577,1.24 422.173,1.24 C421.075,1.24 416.913,1.413 416.568,1.413 C416.103,1.413 414.255,1.24 412.754,1.24 C412.176,1.24 411.828,1.355 411.828,1.588 C411.828,1.877 412.176,1.991 412.695,2.165 C413.388,2.339 413.621,2.975 413.621,3.783 C413.621,4.535 413.389,5.517 412.637,6.731 C411.481,8.638 404.141,21.297 403.043,23.725 C402.002,22.048 393.332,7.136 392.408,5.458 C391.943,4.592 391.656,3.898 391.656,3.204 C391.656,2.742 391.943,2.395 392.408,2.164 C392.928,1.933 393.273,1.876 393.273,1.643 C393.273,1.412 393.158,1.239 392.521,1.239 C390.267,1.239 388.072,1.412 387.667,1.412 C387.378,1.412 383.042,1.239 381.944,1.239 C381.423,1.239 381.192,1.412 381.192,1.643 C381.192,1.932 381.479,2.048 381.768,2.048 C382.289,2.048 383.387,2.395 384.254,2.973 C385.295,3.667 386.74,5.112 388.184,7.25 C390.207,10.256 397.955,22.972 398.358,23.896 C399.112,25.572 399.688,26.844 399.688,29.965 L399.688,34.939 L399.691,34.939 Z M328.523,18.004 C328.523,8.986 328.523,7.368 328.636,5.519 C328.753,3.496 329.214,2.513 330.892,2.224 C331.585,2.109 332.394,2.051 332.798,2.051 C333.03,2.051 333.261,1.935 333.261,1.703 C333.261,1.356 332.972,1.241 332.337,1.241 C330.603,1.241 326.382,1.414 326.093,1.414 C325.804,1.414 322.163,1.241 319.564,1.241 C318.927,1.241 318.638,1.356 318.638,1.703 C318.638,1.934 318.868,2.051 319.099,2.051 C319.62,2.051 320.603,2.109 321.066,2.224 C322.972,2.629 323.435,3.554 323.55,5.519 C323.665,7.369 323.665,8.987 323.665,18.004 L323.665,28.177 C323.665,33.726 323.665,38.292 323.376,40.72 C323.146,42.397 322.856,43.667 321.7,43.899 C321.179,44.015 320.487,44.131 319.966,44.131 C319.62,44.131 319.505,44.304 319.505,44.477 C319.505,44.824 319.794,44.94 320.429,44.94 C321.296,44.94 322.568,44.882 323.724,44.824 C324.88,44.824 325.865,44.766 326.093,44.766 C327.769,44.766 329.562,44.824 331.989,44.94 C334.417,44.998 337.423,45.113 341.585,45.113 C344.648,45.113 344.821,44.883 345.226,43.553 C345.689,41.875 346.093,38.407 346.093,37.772 C346.093,37.137 346.036,36.905 345.747,36.905 C345.399,36.905 345.284,37.194 345.226,37.657 C345.052,38.756 344.474,40.2 343.724,41.125 C342.335,42.802 339.792,42.859 336.73,42.859 C332.22,42.859 330.718,42.454 329.792,41.529 C328.753,40.489 328.522,36.79 328.522,28.293 L328.522,18.004 L328.523,18.004 Z M249.957,28.177 C249.957,33.726 249.957,38.292 249.668,40.72 C249.436,42.397 249.147,43.667 247.99,43.899 C247.47,44.015 246.777,44.131 246.258,44.131 C245.91,44.131 245.795,44.304 245.795,44.477 C245.795,44.824 246.084,44.94 246.719,44.94 C248.453,44.94 252.096,44.766 252.268,44.766 C252.557,44.766 256.202,44.94 259.379,44.94 C260.014,44.94 260.303,44.766 260.303,44.477 C260.303,44.304 260.188,44.131 259.84,44.131 C259.32,44.131 258.049,44.015 257.238,43.899 C255.506,43.668 255.158,42.397 254.984,40.72 C254.695,38.292 254.695,33.726 254.695,28.177 L254.695,4.421 C254.695,3.843 254.812,3.438 255.158,3.322 C255.679,3.091 256.66,2.975 257.642,2.975 C258.972,2.975 262.497,2.744 265.562,5.865 C268.626,8.986 268.798,12.859 268.798,14.766 C268.798,20.084 264.405,24.188 258.798,24.188 C257.585,24.188 257.237,24.246 257.237,24.708 C257.237,24.997 257.585,25.113 257.874,25.113 C258.163,25.172 258.798,25.172 259.087,25.172 C267.296,25.172 273.306,19.622 273.306,11.414 C273.306,8.351 271.689,5.749 270.417,4.536 C269.491,3.67 266.89,1.241 259.665,1.241 C257.007,1.241 253.655,1.414 252.382,1.414 C251.921,1.414 248.452,1.241 245.851,1.241 C245.216,1.241 244.927,1.356 244.927,1.703 C244.927,1.934 245.157,2.051 245.388,2.051 C245.909,2.051 246.892,2.109 247.355,2.224 C249.261,2.629 249.724,3.554 249.839,5.519 C249.954,7.369 249.954,8.987 249.954,18.004 L249.954,28.177 L249.957,28.177 Z M190.927,1.992 C190.812,0.894 190.638,0.432 190.234,0.432 C189.829,0.432 189.598,0.836 189.367,1.356 L172.373,37.656 L154.686,1.3 C154.397,0.663 154.166,0.433 153.819,0.433 C153.472,0.433 153.241,0.837 153.183,1.473 L149.021,39.16 C148.79,41.356 148.617,43.61 146.709,43.957 C145.842,44.132 145.438,44.132 144.975,44.132 C144.686,44.132 144.397,44.246 144.397,44.421 C144.397,44.824 144.802,44.941 145.38,44.941 C146.94,44.941 149.715,44.767 150.235,44.767 C150.697,44.767 153.472,44.941 155.611,44.941 C156.304,44.941 156.651,44.825 156.651,44.421 C156.651,44.246 156.42,44.132 156.189,44.132 C155.842,44.132 154.975,44.073 153.992,43.843 C153.125,43.668 152.489,42.917 152.489,42.051 C152.489,41.068 152.489,40.028 152.547,39.103 L154.859,12.283 L155.09,12.283 C155.726,13.845 162.2,27.717 162.72,28.757 C163.009,29.334 167.98,39.334 169.483,42.166 C170.581,44.247 170.87,44.825 171.275,44.825 C171.795,44.825 171.968,44.305 173.182,41.762 L187.344,11.704 L187.517,11.704 L190.291,41.529 C190.407,42.57 190.349,43.553 190.06,43.61 C189.771,43.668 189.656,43.784 189.656,44.015 C189.656,44.304 189.945,44.477 191.274,44.593 C193.413,44.766 199.655,44.94 200.927,44.94 C201.621,44.94 202.141,44.766 202.141,44.42 C202.141,44.188 201.967,44.131 201.678,44.131 C201.1,44.131 199.598,44.131 197.921,43.61 C195.436,42.801 195.031,39.564 194.8,37.483 L190.927,1.992 Z M92.593,18.004 C92.593,8.986 92.593,7.368 92.709,5.519 C92.825,3.496 93.287,2.513 94.848,2.224 C95.541,2.109 95.888,2.051 96.293,2.051 C96.524,2.051 96.755,1.935 96.755,1.703 C96.755,1.356 96.466,1.241 95.83,1.241 C94.096,1.241 90.455,1.414 90.166,1.414 C89.877,1.414 86.235,1.241 84.328,1.241 C83.692,1.241 83.403,1.356 83.403,1.703 C83.403,1.934 83.634,2.051 83.865,2.051 C84.27,2.051 85.021,2.109 85.657,2.281 C86.929,2.57 87.507,3.552 87.622,5.518 C87.738,7.368 87.738,8.986 87.738,18.003 L87.738,28.176 C87.738,33.725 87.738,38.291 87.449,40.719 C87.218,42.396 86.929,43.666 85.773,43.898 C85.253,44.014 84.559,44.13 84.039,44.13 C83.692,44.13 83.576,44.303 83.576,44.476 C83.576,44.823 83.865,44.939 84.501,44.939 C86.235,44.939 89.877,44.765 90.166,44.765 C90.455,44.765 94.096,44.939 97.275,44.939 C97.911,44.939 98.2,44.765 98.2,44.476 C98.2,44.303 98.084,44.13 97.738,44.13 C97.217,44.13 95.946,44.014 95.137,43.898 C93.403,43.667 93.056,42.396 92.882,40.719 C92.593,38.291 92.593,33.725 92.593,28.176 L92.593,18.004 Z M21.368,45.748 C24.489,45.748 27.611,45.055 30.096,43.32 C34.084,40.488 35.009,36.095 35.009,33.725 C35.009,29.101 33.391,25.517 26.57,20.142 L24.952,18.87 C19.403,14.535 17.9,12.454 17.9,9.16 C17.9,4.94 21.021,2.455 25.009,2.455 C30.327,2.455 31.888,4.883 32.235,5.518 C32.582,6.153 32.928,7.715 32.986,8.408 C33.044,8.871 33.102,9.16 33.449,9.16 C33.738,9.16 33.853,8.756 33.853,7.83 C33.853,3.9 34.084,1.992 34.084,1.703 C34.084,1.414 33.969,1.3 33.506,1.3 C33.044,1.3 32.582,1.241 31.483,1.011 C30.038,0.663 28.362,0.433 26.108,0.433 C18.767,0.433 14.143,4.652 14.143,10.837 C14.143,14.767 15.53,18.351 21.657,23.38 L24.258,25.518 C29.229,29.622 30.905,31.934 30.905,35.923 C30.905,39.621 28.189,43.61 22.64,43.61 C18.767,43.61 14.952,41.992 14.085,37.715 C13.912,36.904 13.912,36.096 13.912,35.575 C13.912,35.113 13.854,34.939 13.507,34.939 C13.218,34.939 13.102,35.228 13.045,35.864 C12.987,36.789 12.756,39.101 12.756,41.991 C12.756,43.553 12.813,43.783 13.623,44.187 C15.992,45.344 18.651,45.748 21.368,45.748 Z" id="Shape"></path>
            </g>
        </g>
    </g>
</svg>