<?xml version="1.0" encoding="utf-8"?>
<!-- Generator: Adobe Illustrator 16.0.0, SVG Export Plug-In . SVG Version: 6.00 Build 0)  -->
<!DOCTYPE svg PUBLIC "-//W3C//DTD SVG 1.1//EN" "http://www.w3.org/Graphics/SVG/1.1/DTD/svg11.dtd">
<svg version="1.1" id="Layer_1" xmlns="http://www.w3.org/2000/svg" xmlns:xlink="http://www.w3.org/1999/xlink" x="0px" y="0px"
	 width="426.507px" height="239px" viewBox="86.451 274.445 426.507 239" enable-background="new 86.451 274.445 426.507 239"
	 xml:space="preserve">
<rect x="70.601" y="120.965" fill="none" width="473.764" height="438.232"/>
<g>
	<path d="M386.949,445.619c0,27.75,7.223,41.055,16.535,49.986c13.494,12.734,32.689,13.494,39.152,13.494
		c11.213,0,25.467-1.9,39.15-14.064c15.205-13.494,17.486-36.301,17.486-56.828v-20.336c0-29.648,0-34.972,0.381-41.054
		c0.379-6.652,1.898-9.693,7.031-10.833c2.281-0.38,3.422-0.57,4.752-0.57c0.76,0,1.521-0.38,1.521-1.141
		c0-1.14-0.951-1.52-3.041-1.52c-5.703,0-14.635,0.569-15.967,0.569c-1.141,0-11.594-0.569-20.146-0.569
		c-2.09,0-3.041,0.38-3.041,1.52c0,0.761,0.762,1.141,1.521,1.141c1.711,0,4.941,0.19,6.461,0.57
		c6.271,1.33,7.793,4.371,8.174,10.833c0.381,6.082,0.381,11.404,0.381,41.054v23.758c0,19.576-2.281,35.73-11.023,46.564
		c-6.844,8.172-18.246,13.686-29.84,13.686c-10.832,0-19.387-1.713-28.699-10.453c-8.172-7.793-14.254-19.578-14.254-46.945v-26.609
		c0-29.648,0-34.972,0.381-41.054c0.379-6.652,1.898-10.073,7.031-10.833c2.281-0.38,3.422-0.57,4.752-0.57
		c0.76,0,1.52-0.38,1.52-1.141c0-1.14-0.951-1.52-3.041-1.52c-5.701,0-17.105,0.569-18.814,0.569
		c-1.713,0-13.305-0.569-21.857-0.569c-2.092,0-3.041,0.38-3.041,1.52c0,0.761,0.76,1.141,1.521,1.141
		c1.711,0,4.941,0.19,6.461,0.57c6.271,1.33,7.793,4.371,8.174,10.833c0.379,6.082,0.379,11.404,0.379,41.054V445.619
		L386.949,445.619z M229.858,429.083c0-41.621,23.757-62.528,55.497-62.528c30.029,0,57.779,24.519,57.779,70.132
		c0,55.309-35.352,65.191-52.458,65.191C256.466,501.878,229.858,473.369,229.858,429.083 M211.803,434.406
		c0,34.211,21.667,74.693,73.743,74.693c45.805,0,75.834-35.162,75.834-77.734c0-44.283-31.932-71.272-74.693-71.272
		C234.229,360.093,211.803,403.617,211.803,434.406 M147.27,473.558c0,3.041,0,11.023-0.57,19.008
		c-0.38,5.512-2.091,9.691-5.892,10.451c-1.711,0.381-3.991,0.762-5.702,0.762c-1.14,0-1.52,0.57-1.52,1.141
		c0,1.141,0.95,1.521,3.041,1.521c5.701,0,17.675-0.57,18.626-0.57c0.95,0,12.924,0.57,23.377,0.57c2.091,0,3.041-0.57,3.041-1.521
		c0-0.57-0.38-1.141-1.521-1.141c-1.71,0-5.891-0.381-8.552-0.762c-5.702-0.76-7.413-4.939-7.793-10.451
		c-0.57-7.984-0.57-15.967-0.57-19.008v-16.344c0-6.271,0-12.164,2.851-19.008c3.421-8.172,30.029-52.836,36.301-60.438
		c4.182-5.132,6.272-7.413,10.074-9.693c3.041-1.9,6.652-2.661,8.742-2.661c1.521,0,2.471-0.569,2.471-1.521
		c0-0.76-1.14-1.14-2.471-1.14c-3.611,0-17.295,0.569-18.435,0.569c-1.521,0-7.603-0.569-12.544-0.569
		c-1.901,0-3.041,0.38-3.041,1.14c0,0.951,1.14,1.331,2.851,1.901c2.28,0.569,3.041,2.66,3.041,5.321
		c0,2.471-0.761,5.701-3.232,9.693c-3.801,6.271-27.938,47.896-31.55,55.876c-3.421-5.51-31.93-54.546-34.971-60.058
		c-1.52-2.852-2.47-5.132-2.47-7.412c0-1.521,0.95-2.661,2.47-3.421c1.711-0.761,2.851-0.95,2.851-1.712
		c0-0.76-0.38-1.329-2.47-1.329c-7.413,0-14.635,0.569-15.966,0.569c-0.95,0-15.204-0.569-18.815-0.569
		c-1.711,0-2.471,0.569-2.471,1.329c0,0.951,0.95,1.331,1.9,1.331c1.711,0,5.322,1.141,8.173,3.041
		c3.421,2.28,8.173,7.032,12.924,14.064c6.652,9.883,32.12,51.696,33.451,54.737c2.47,5.512,4.371,9.693,4.371,19.957V473.558
		L147.27,473.558z"/>
	<path d="M485.691,313.939c0,0.925,0,3.353-0.176,5.78c-0.113,1.677-0.635,2.947-1.791,3.179c-0.52,0.116-1.213,0.232-1.732,0.232
		c-0.348,0-0.463,0.173-0.463,0.346c0,0.347,0.289,0.463,0.926,0.463c1.732,0,5.375-0.174,5.664-0.174s3.93,0.174,7.107,0.174
		c0.639,0,0.926-0.174,0.926-0.463c0-0.173-0.115-0.346-0.463-0.346c-0.52,0-1.791-0.116-2.602-0.232
		c-1.734-0.231-2.254-1.502-2.369-3.179c-0.174-2.428-0.174-4.855-0.174-5.78v-4.971c0-1.907,0-3.699,0.867-5.78
		c1.041-2.485,9.133-16.069,11.041-18.381c1.27-1.561,1.906-2.254,3.063-2.948c0.924-0.578,2.023-0.809,2.658-0.809
		c0.463,0,0.752-0.173,0.752-0.462c0-0.232-0.348-0.348-0.752-0.348c-1.098,0-5.26,0.173-5.605,0.173
		c-0.465,0-2.313-0.173-3.814-0.173c-0.578,0-0.926,0.115-0.926,0.348c0,0.289,0.348,0.403,0.867,0.577
		c0.693,0.174,0.926,0.81,0.926,1.618c0,0.752-0.232,1.734-0.984,2.948c-1.156,1.907-8.496,14.566-9.594,16.994
		c-1.041-1.677-9.711-16.589-10.635-18.267c-0.465-0.866-0.752-1.56-0.752-2.254c0-0.462,0.287-0.809,0.752-1.04
		c0.52-0.231,0.865-0.288,0.865-0.521c0-0.231-0.115-0.404-0.752-0.404c-2.254,0-4.449,0.173-4.854,0.173
		c-0.289,0-4.625-0.173-5.723-0.173c-0.521,0-0.752,0.173-0.752,0.404c0,0.289,0.287,0.405,0.576,0.405
		c0.521,0,1.619,0.347,2.486,0.925c1.041,0.694,2.486,2.139,3.93,4.277c2.023,3.006,9.771,15.722,10.174,16.646
		c0.754,1.676,1.33,2.948,1.33,6.069v4.974H485.691z M414.523,297.004c0-9.018,0-10.636,0.113-12.485
		c0.117-2.023,0.578-3.006,2.256-3.295c0.693-0.115,1.502-0.173,1.906-0.173c0.232,0,0.463-0.116,0.463-0.348
		c0-0.347-0.289-0.462-0.924-0.462c-1.734,0-5.955,0.173-6.244,0.173s-3.93-0.173-6.529-0.173c-0.637,0-0.926,0.115-0.926,0.462
		c0,0.231,0.23,0.348,0.461,0.348c0.521,0,1.504,0.058,1.967,0.173c1.906,0.405,2.369,1.33,2.484,3.295
		c0.115,1.85,0.115,3.468,0.115,12.485v10.173c0,5.549,0,10.115-0.289,12.543c-0.23,1.677-0.52,2.947-1.676,3.179
		c-0.521,0.116-1.213,0.232-1.734,0.232c-0.346,0-0.461,0.173-0.461,0.346c0,0.347,0.289,0.463,0.924,0.463
		c0.867,0,2.139-0.058,3.295-0.116c1.156,0,2.141-0.058,2.369-0.058c1.676,0,3.469,0.058,5.896,0.174
		c2.428,0.058,5.434,0.173,9.596,0.173c3.063,0,3.236-0.23,3.641-1.56c0.463-1.678,0.867-5.146,0.867-5.781
		c0-0.635-0.057-0.867-0.346-0.867c-0.348,0-0.463,0.289-0.521,0.752c-0.174,1.099-0.752,2.543-1.502,3.468
		c-1.389,1.677-3.932,1.734-6.994,1.734c-4.51,0-6.012-0.405-6.938-1.33c-1.039-1.04-1.27-4.739-1.27-13.236V297.004z
		 M335.957,307.177c0,5.549,0,10.115-0.289,12.543c-0.232,1.677-0.521,2.947-1.678,3.179c-0.52,0.116-1.213,0.232-1.732,0.232
		c-0.348,0-0.463,0.173-0.463,0.346c0,0.347,0.289,0.463,0.924,0.463c1.734,0,5.377-0.174,5.549-0.174
		c0.289,0,3.934,0.174,7.111,0.174c0.635,0,0.924-0.174,0.924-0.463c0-0.173-0.115-0.346-0.463-0.346
		c-0.52,0-1.791-0.116-2.602-0.232c-1.732-0.231-2.08-1.502-2.254-3.179c-0.289-2.428-0.289-6.994-0.289-12.543v-23.756
		c0-0.578,0.117-0.983,0.463-1.099c0.521-0.231,1.502-0.347,2.484-0.347c1.33,0,4.855-0.231,7.92,2.89
		c3.064,3.121,3.236,6.994,3.236,8.901c0,5.318-4.393,9.422-10,9.422c-1.213,0-1.561,0.058-1.561,0.52
		c0,0.289,0.348,0.405,0.637,0.405c0.289,0.059,0.924,0.059,1.213,0.059c8.209,0,14.219-5.55,14.219-13.758
		c0-3.063-1.617-5.665-2.889-6.878c-0.926-0.866-3.527-3.295-10.752-3.295c-2.658,0-6.01,0.173-7.283,0.173
		c-0.461,0-3.93-0.173-6.531-0.173c-0.635,0-0.924,0.115-0.924,0.462c0,0.231,0.23,0.348,0.461,0.348
		c0.521,0,1.504,0.058,1.967,0.173c1.906,0.405,2.369,1.33,2.484,3.295c0.115,1.85,0.115,3.468,0.115,12.485v10.173H335.957z
		 M276.927,280.992c-0.115-1.098-0.289-1.56-0.693-1.56c-0.405,0-0.636,0.404-0.867,0.924l-16.994,36.3L240.686,280.3
		c-0.289-0.637-0.52-0.867-0.867-0.867c-0.347,0-0.578,0.404-0.636,1.04l-4.162,37.687c-0.231,2.196-0.404,4.45-2.312,4.797
		c-0.867,0.175-1.271,0.175-1.734,0.175c-0.289,0-0.578,0.114-0.578,0.289c0,0.403,0.405,0.52,0.983,0.52
		c1.56,0,4.335-0.174,4.855-0.174c0.462,0,3.237,0.174,5.376,0.174c0.693,0,1.04-0.116,1.04-0.52c0-0.175-0.231-0.289-0.462-0.289
		c-0.347,0-1.214-0.059-2.197-0.289c-0.867-0.175-1.503-0.926-1.503-1.792c0-0.983,0-2.023,0.058-2.948l2.312-26.82h0.231
		c0.636,1.562,7.11,15.434,7.63,16.474c0.289,0.577,5.26,10.577,6.763,13.409c1.098,2.081,1.387,2.659,1.792,2.659
		c0.52,0,0.693-0.52,1.907-3.063l14.162-30.058h0.173l2.774,29.825c0.116,1.041,0.058,2.024-0.231,2.081
		c-0.289,0.058-0.404,0.174-0.404,0.405c0,0.289,0.289,0.462,1.618,0.578c2.139,0.173,8.381,0.347,9.653,0.347
		c0.694,0,1.214-0.174,1.214-0.52c0-0.232-0.174-0.289-0.463-0.289c-0.578,0-2.08,0-3.757-0.521
		c-2.485-0.809-2.89-4.046-3.121-6.127L276.927,280.992z M178.593,297.004c0-9.018,0-10.636,0.116-12.485
		c0.116-2.023,0.578-3.006,2.139-3.295c0.693-0.115,1.04-0.173,1.445-0.173c0.231,0,0.462-0.116,0.462-0.348
		c0-0.347-0.289-0.462-0.925-0.462c-1.734,0-5.375,0.173-5.664,0.173s-3.931-0.173-5.838-0.173c-0.636,0-0.925,0.115-0.925,0.462
		c0,0.231,0.231,0.348,0.462,0.348c0.405,0,1.156,0.058,1.792,0.23c1.272,0.289,1.85,1.271,1.965,3.237
		c0.116,1.85,0.116,3.468,0.116,12.485v10.173c0,5.549,0,10.115-0.289,12.543c-0.231,1.677-0.52,2.947-1.676,3.179
		c-0.52,0.116-1.214,0.232-1.734,0.232c-0.347,0-0.463,0.173-0.463,0.346c0,0.347,0.289,0.463,0.925,0.463
		c1.734,0,5.376-0.174,5.665-0.174s3.93,0.174,7.109,0.174c0.636,0,0.925-0.174,0.925-0.463c0-0.173-0.116-0.346-0.462-0.346
		c-0.521,0-1.792-0.116-2.601-0.232c-1.734-0.231-2.081-1.502-2.255-3.179c-0.289-2.428-0.289-6.994-0.289-12.543V297.004z
		 M107.368,324.748c3.121,0,6.243-0.693,8.728-2.428c3.988-2.832,4.913-7.225,4.913-9.595c0-4.624-1.618-8.208-8.439-13.583
		l-1.618-1.272c-5.549-4.335-7.052-6.416-7.052-9.71c0-4.22,3.121-6.705,7.109-6.705c5.318,0,6.879,2.428,7.226,3.063
		c0.347,0.635,0.693,2.197,0.751,2.89c0.058,0.463,0.116,0.752,0.463,0.752c0.289,0,0.404-0.404,0.404-1.33
		c0-3.93,0.231-5.838,0.231-6.127s-0.115-0.403-0.578-0.403c-0.462,0-0.924-0.059-2.023-0.289c-1.445-0.348-3.121-0.578-5.375-0.578
		c-7.341,0-11.965,4.219-11.965,10.404c0,3.93,1.387,7.514,7.514,12.543l2.601,2.138c4.971,4.104,6.647,6.416,6.647,10.405
		c0,3.698-2.716,7.687-8.265,7.687c-3.873,0-7.688-1.618-8.555-5.895c-0.173-0.811-0.173-1.619-0.173-2.14
		c0-0.462-0.058-0.636-0.405-0.636c-0.289,0-0.405,0.289-0.462,0.925c-0.058,0.925-0.289,3.237-0.289,6.127
		c0,1.562,0.057,1.792,0.867,2.196C101.992,324.344,104.651,324.748,107.368,324.748"/>
</g>
</svg>
