<?xml version="1.0" standalone="no"?>
<!DOCTYPE svg PUBLIC "-//W3C//DTD SVG 20010904//EN"
 "http://www.w3.org/TR/2001/REC-SVG-20010904/DTD/svg10.dtd">
<svg version="1.0" xmlns="http://www.w3.org/2000/svg"
 width="260.000000pt" height="260.000000pt" viewBox="0 0 260.000000 260.000000"
 preserveAspectRatio="xMidYMid meet">
<metadata>
Created by potrace 1.11, written by Peter Selinger 2001-2013
</metadata>
<g transform="translate(0.000000,260.000000) scale(0.100000,-0.100000)"
fill="#000000" stroke="none">
<path d="M0 1300 l0 -1300 1300 0 1300 0 0 1300 0 1300 -1300 0 -1300 0 0
-1300z m1390 986 c401 -77 646 -240 789 -523 127 -253 133 -651 13 -915 -121
-267 -343 -439 -672 -520 -80 -20 -118 -21 -652 -25 l-568 -4 0 1006 0 1007
503 -5 c409 -4 518 -8 587 -21z"/>
<path d="M1050 1290 l0 -393 86 7 c160 13 258 59 331 154 43 57 63 128 63 228
0 244 -130 375 -387 391 l-93 6 0 -393z"/>
</g>
</svg>
