<?xml version="1.0" encoding="UTF-8" standalone="no"?>
<svg xmlns="http://www.w3.org/2000/svg" viewBox="8.071593 7.639186 25.223728 26.088541" y="0px" x="0px" width="25.223728" height="26.088541">
	<path d="m 20.656032,7.8362564 c -3.41859,0 -3.847618,0.015178 -5.190297,0.077391 -1.340057,0.062402 -2.25476,0.2782077 -3.055122,0.5948461 C 11.582715,8.8355269 10.88043,9.272974 10.180768,9.9849301 9.4805812,10.696602 9.0505048,11.410931 8.7279466,12.252782 c -0.3120671,0.814367 -0.5244847,1.745048 -0.5847999,3.10758 -0.060051,1.365737 -0.075782,1.802389 -0.075782,5.279679 0,3.477291 0.015291,3.912349 0.076046,5.278086 0.061636,1.363063 0.2737808,2.29346 0.5847999,3.107561 0.3217711,0.842117 0.7518475,1.556463 1.4517724,2.268136 0.6994,0.712203 1.401686,1.150732 2.229059,1.477765 0.800886,0.316637 1.71585,0.532422 3.055646,0.594846 1.342679,0.06221 1.771444,0.07739 5.189771,0.07739 3.418853,0 3.846569,-0.01518 5.18925,-0.07739 1.340054,-0.0624 2.255807,-0.278209 3.056694,-0.594846 0.827636,-0.327033 1.528873,-0.765562 2.228271,-1.477765 0.700186,-0.711673 1.130263,-1.426019 1.452823,-2.267872 0.309444,-0.814365 0.521859,-1.745028 0.584798,-3.107559 0.0603,-1.365738 0.07605,-1.801061 0.07605,-5.278352 0,-3.47729 -0.01567,-3.913676 -0.07605,-5.279414 -0.06294,-1.363063 -0.275358,-2.293478 -0.584801,-3.107579 C 32.258933,11.410931 31.828857,10.696602 31.128671,9.9849301 30.428484,9.2727081 29.728297,8.8352609 28.899613,8.5084934 28.09715,8.191855 27.181926,7.9760719 25.841868,7.9136473 24.499189,7.8514341 24.071735,7.8362564 20.652097,7.8362564 Z m -1.129216,2.3073446 c 0.335146,-5.32e-4 0.709104,0 1.129216,0 3.360894,0 3.759241,0.01138 5.08645,0.0736 1.227292,0.0571 1.893388,0.265671 2.337101,0.440938 0.587423,0.232058 1.006222,0.50947 1.446527,0.957615 0.440568,0.448127 0.713301,0.874915 0.941973,1.472416 0.172291,0.450801 0.37763,1.128331 0.433489,2.376711 0.0603,1.349729 0.07342,1.755176 0.07342,5.172167 0,3.41701 -0.01306,3.822458 -0.07342,5.172186 -0.05611,1.248362 -0.261194,1.925891 -0.433489,2.376693 -0.228151,0.597502 -0.501405,1.02296 -0.941973,1.47084 -0.440566,0.448126 -0.858841,0.725538 -1.446527,0.957597 -0.443189,0.176026 -1.109809,0.384128 -2.337101,0.441203 -1.326948,0.06127 -1.725556,0.07473 -5.08645,0.07473 -3.361159,0 -3.759503,-0.01328 -5.086449,-0.07473 -1.227294,-0.05766 -1.893389,-0.266201 -2.337366,-0.441468 -0.587421,-0.232059 -1.007009,-0.50947 -1.447576,-0.957617 -0.440566,-0.448126 -0.713299,-0.87385 -0.941973,-1.471618 -0.172291,-0.450801 -0.377629,-1.12833 -0.433488,-2.376693 -0.0603,-1.349728 -0.07237,-1.755195 -0.07237,-5.174329 0,-3.419134 0.01212,-3.822437 0.07237,-5.172167 0.05611,-1.248361 0.261194,-1.925909 0.433488,-2.377242 0.22815,-0.597502 0.501407,-1.024289 0.941973,-1.472415 0.440567,-0.448145 0.860155,-0.725557 1.447576,-0.958147 0.443714,-0.176025 1.110072,-0.384127 2.337366,-0.441469 1.161208,-0.0533 1.611215,-0.06942 3.957233,-0.07208 z M 27.3752,12.26955 c -0.83393,0 -1.510516,0.687413 -1.510516,1.535922 0,0.848244 0.676586,1.536453 1.510516,1.536453 0.833932,0 1.510517,-0.688209 1.510517,-1.536453 0,-0.848244 -0.676585,-1.536453 -1.510517,-1.536453 z m -6.719168,1.7952 c -3.569903,0 -6.464271,2.944053 -6.464271,6.575253 0,3.6312 2.894368,6.573926 6.464271,6.573926 3.569902,0 6.463218,-2.942726 6.463218,-6.573926 0,-3.6312 -2.893579,-6.575253 -6.463481,-6.575253 z m 0,2.307344 c 2.317171,0 4.195874,1.910678 4.195874,4.267909 0,2.356947 -1.878703,4.26791 -4.195874,4.26791 -2.317434,0 -4.195875,-1.910963 -4.195875,-4.26791 0,-2.357231 1.878441,-4.267909 4.195875,-4.267909 z" />
</svg>
