<?xml version="1.0" encoding="UTF-8" standalone="no"?>
<svg xmlns="http://www.w3.org/2000/svg" height="17" width="23" preserveAspectRatio="xMidYMid" xmlns:xlink="http://www.w3.org/1999/xlink" viewBox="0 0 23 17">
 <path id="path-1" class="cls-2" fill-rule="evenodd" d="m22.999 14.303c0 1.281-0.606 2.707-1.797 2.707h-18.688c-1.19 0-2.515-1.426-2.515-2.707v-12.377c0-0.062 0.017-0.116 0.023-0.175-0.039-0.223 0.003-0.461 0.152-0.646 0.027-0.033 0.063-0.05 0.093-0.077 0.445-0.685 1.379-1.036 2.247-1.036h18.688c0.96 0 1.52 0.444 1.709 1.28 0.071 0.153 0.093 0.318 0.065 0.481 0.003 0.062 0.023 0.107 0.023 0.173v12.377zm-20.485 1.161h18.688c0.397 0 0.359-0.734 0.359-1.161v-11.082l-9.592 8.257c-0.135 0.127-0.302 0.191-0.47 0.191s-0.336-0.064-0.471-0.191l-9.592-8.258v11.083c0 0.427 0.682 1.161 1.078 1.161zm18.329-13.926h-18.329c-0.198 0-0.468-0.009-0.689 0.035l9.674 8.297 9.713-8.332h-0.01-0.359z"/>
</svg>
